<?xml version="1.0" standalone="yes"?>

<svg version="1.1" viewBox="0.0 0.0 960.0 720.0" fill="none" stroke="none" stroke-linecap="square" stroke-miterlimit="10" clip-path="url(#p.0)" xmlns="http://www.w3.org/2000/svg" xmlns:xlink="http://www.w3.org/1999/xlink"><clipPath id="p.0"><path d="M0 0L960.0 0L960.0 720.0L0 720.0L0 0Z" clip-rule="nonzero"></path></clipPath><path d="M154.76903 450.17584L316.28085 450.17584L316.28085 582.04987L154.76903 582.04987Z" fill-rule="nonzero" fill="#efefef"></path><path d="M210.29918 522.2769L205.01793 508.68317L206.97105 508.68317L210.5023 518.55817Q210.9398 519.74567 211.22105 520.7769Q211.53355 519.66754 211.95543 518.55817L215.6273 508.68317L217.47105 508.68317L212.14293 522.2769L210.29918 522.2769ZM218.18025 518.68317L219.85213 518.4644Q220.13338 519.8863 220.82869 520.5113Q221.524 521.1363 222.50838 521.1363Q223.69588 521.1363 224.50838 520.316Q225.32088 519.49567 225.32088 518.29254Q225.32088 517.1519 224.56306 516.4019Q223.80525 515.6519 222.649 515.6519Q222.18025 515.6519 221.47713 515.8394L221.66463 514.37067Q221.82088 514.3863 221.93025 514.3863Q222.99275 514.3863 223.84431 513.8316Q224.69588 513.2769 224.69588 512.12067Q224.69588 511.1988 224.07869 510.59723Q223.4615 509.99567 222.47713 509.99567Q221.50838 509.99567 220.85994 510.60504Q220.2115 511.21442 220.024 512.4488L218.35213 512.1519Q218.649 510.46442 219.73494 509.54254Q220.82088 508.62067 222.44588 508.62067Q223.55525 508.62067 224.49275 509.09723Q225.43025 509.5738 225.92244 510.40192Q226.41463 511.23004 226.41463 512.1519Q226.41463 513.04254 225.94588 513.7613Q225.47713 514.48004 224.53963 514.91754Q225.75838 515.18317 226.42244 516.066Q227.0865 516.9488 227.0865 518.2613Q227.0865 520.04254 225.78963 521.2769Q224.49275 522.5113 222.50838 522.5113Q220.7115 522.5113 219.53181 521.4488Q218.35213 520.3863 218.18025 518.68317ZM234.70802 522.2769L234.70802 508.68317L236.52052 508.68317L236.52052 522.2769L234.70802 522.2769ZM239.04758 515.6519Q239.04758 512.2613 240.86789 510.34723Q242.6882 508.43317 245.5632 508.43317Q247.4382 508.43317 248.95383 509.3316Q250.46945 510.23004 251.25851 511.83942Q252.04758 513.4488 252.04758 515.49567Q252.04758 517.55817 251.21164 519.191Q250.3757 520.8238 248.84445 521.66754Q247.3132 522.5113 245.54758 522.5113Q243.6257 522.5113 242.11789 521.5816Q240.61008 520.6519 239.82883 519.05035Q239.04758 517.4488 239.04758 515.6519ZM240.90695 515.68317Q240.90695 518.1363 242.22726 519.55035Q243.54758 520.9644 245.53195 520.9644Q247.5632 520.9644 248.8757 519.5347Q250.1882 518.10504 250.1882 515.48004Q250.1882 513.8238 249.63351 512.5894Q249.07883 511.35504 247.99289 510.66754Q246.90695 509.98004 245.5632 509.98004Q243.65695 509.98004 242.28195 511.29254Q240.90695 512.60504 240.90695 515.68317ZM263.809 517.5113L265.60587 517.9644Q265.04337 520.18317 263.57462 521.3472Q262.10587 522.5113 259.98087 522.5113Q257.77774 522.5113 256.40274 521.61285Q255.02776 520.7144 254.309 519.0191Q253.59026 517.3238 253.59026 515.37067Q253.59026 513.24567 254.39494 511.66754Q255.19963 510.08942 256.69962 509.2691Q258.19962 508.4488 259.9965 508.4488Q262.04337 508.4488 263.434 509.48785Q264.82462 510.52692 265.3715 512.4019L263.60587 512.8238Q263.13712 511.33942 262.23087 510.65973Q261.32462 509.98004 259.96524 509.98004Q258.40274 509.98004 257.34805 510.73004Q256.29337 511.48004 255.8637 512.7535Q255.434 514.0269 255.434 515.37067Q255.434 517.10504 255.94182 518.3941Q256.44962 519.68317 257.51993 520.3238Q258.59024 520.9644 259.82462 520.9644Q261.34024 520.9644 262.38712 520.0972Q263.434 519.23004 263.809 517.5113Z" fill-rule="nonzero" fill="#000000"></path><path d="M154.76903 388.28223L316.28085 388.28223L316.28085 450.172L154.76903 450.172Z" fill-rule="nonzero" fill="#cccccc"></path><path d="M194.72649 425.39117L189.44524 411.79742L191.39836 411.79742L194.92961 421.67242Q195.36711 422.85992 195.64836 423.89117Q195.96086 422.7818 196.38274 421.67242L200.05461 411.79742L201.89836 411.79742L196.57024 425.39117L194.72649 425.39117ZM202.60756 421.79742L204.27943 421.57867Q204.56068 423.00055 205.256 423.62555Q205.95131 424.25055 206.93568 424.25055Q208.12318 424.25055 208.93568 423.43024Q209.74818 422.60992 209.74818 421.4068Q209.74818 420.26617 208.99037 419.51617Q208.23256 418.76617 207.07631 418.76617Q206.60756 418.76617 205.90443 418.95367L206.09193 417.48492Q206.24818 417.50055 206.35756 417.50055Q207.42006 417.50055 208.27162 416.94586Q209.12318 416.39117 209.12318 415.23492Q209.12318 414.31305 208.506 413.7115Q207.88881 413.10992 206.90443 413.10992Q205.93568 413.10992 205.28725 413.7193Q204.63881 414.32867 204.45131 415.56305L202.77943 415.26617Q203.07631 413.57867 204.16225 412.6568Q205.24818 411.73492 206.87318 411.73492Q207.98256 411.73492 208.92006 412.2115Q209.85756 412.68805 210.34975 413.51617Q210.84193 414.3443 210.84193 415.26617Q210.84193 416.1568 210.37318 416.87555Q209.90443 417.5943 208.96693 418.0318Q210.18568 418.29742 210.84975 419.18024Q211.51381 420.06305 211.51381 421.37555Q211.51381 423.1568 210.21693 424.39117Q208.92006 425.62555 206.93568 425.62555Q205.13881 425.62555 203.95912 424.56305Q202.77943 423.50055 202.60756 421.79742ZM223.35828 420.62555L225.15515 421.07867Q224.59265 423.29742 223.1239 424.4615Q221.65515 425.62555 219.53015 425.62555Q217.32703 425.62555 215.95203 424.7271Q214.57703 423.82867 213.85828 422.13336Q213.13953 420.43805 213.13953 418.48492Q213.13953 416.35992 213.94421 414.7818Q214.7489 413.20367 216.2489 412.38336Q217.7489 411.56305 219.54578 411.56305Q221.59265 411.56305 222.98328 412.6021Q224.3739 413.64117 224.92078 415.51617L223.15515 415.93805Q222.6864 414.45367 221.78015 413.774Q220.8739 413.0943 219.51453 413.0943Q217.95203 413.0943 216.89734 413.8443Q215.84265 414.5943 215.41296 415.86774Q214.98328 417.14117 214.98328 418.48492Q214.98328 420.2193 215.49109 421.50836Q215.9989 422.79742 217.06921 423.43805Q218.13953 424.07867 219.3739 424.07867Q220.88953 424.07867 221.9364 423.2115Q222.98328 422.3443 223.35828 420.62555ZM226.90935 425.39117L226.90935 411.79742L228.58122 411.79742L228.58122 416.67242Q229.7531 415.31305 231.53435 415.31305Q232.6281 415.31305 233.43279 415.74274Q234.23747 416.17242 234.58904 416.93805Q234.9406 417.70367 234.9406 419.14117L234.9406 425.39117L233.26872 425.39117L233.26872 419.14117Q233.26872 417.89117 232.72185 417.32086Q232.17497 416.75055 231.1906 416.75055Q230.4406 416.75055 229.79216 417.13336Q229.14372 417.51617 228.86247 418.18024Q228.58122 418.8443 228.58122 420.00055L228.58122 425.39117L226.90935 425.39117ZM243.72256 424.17242Q242.78506 424.9693 241.92569 425.2896Q241.06631 425.60992 240.08194 425.60992Q238.47256 425.60992 237.59756 424.82086Q236.72256 424.0318 236.72256 422.79742Q236.72256 422.06305 237.05069 421.4693Q237.37881 420.87555 237.91006 420.51617Q238.44131 420.1568 239.11319 419.9693Q239.61319 419.82867 240.59756 419.7193Q242.62881 419.4693 243.58194 419.14117Q243.58194 418.79742 243.58194 418.70367Q243.58194 417.68805 243.11319 417.26617Q242.47256 416.70367 241.20694 416.70367Q240.03506 416.70367 239.47256 417.10992Q238.91006 417.51617 238.64444 418.57867L237.00381 418.3443Q237.23819 417.29742 237.746 416.6568Q238.25381 416.01617 239.21475 415.6646Q240.17569 415.31305 241.45694 415.31305Q242.72256 415.31305 243.50381 415.60992Q244.28506 415.9068 244.66006 416.35992Q245.03506 416.81305 245.17569 417.50055Q245.26944 417.92242 245.26944 419.0318L245.26944 421.26617Q245.26944 423.5943 245.371 424.2115Q245.47256 424.82867 245.80069 425.39117L244.05069 425.39117Q243.78506 424.87555 243.72256 424.17242ZM243.58194 420.45367Q242.67569 420.81305 240.84756 421.07867Q239.81631 421.2193 239.39444 421.4068Q238.97256 421.5943 238.73819 421.95367Q238.50381 422.31305 238.50381 422.75055Q238.50381 423.42242 239.01163 423.86774Q239.51944 424.31305 240.48819 424.31305Q241.45694 424.31305 242.20694 423.88336Q242.95694 423.45367 243.31631 422.73492Q243.58194 422.1568 243.58194 421.06305L243.58194 420.45367ZM247.66078 425.39117L247.66078 415.5318L249.16078 415.5318L249.16078 416.93805Q250.25453 415.31305 252.3014 415.31305Q253.19203 415.31305 253.94203 415.63336Q254.69203 415.95367 255.05922 416.4771Q255.4264 417.00055 255.58266 417.70367Q255.6764 418.17242 255.6764 419.32867L255.6764 425.39117L254.00453 425.39117L254.00453 419.39117Q254.00453 418.37555 253.80922 417.86774Q253.6139 417.35992 253.1139 417.06305Q252.6139 416.76617 251.94203 416.76617Q250.87953 416.76617 250.1061 417.43805Q249.33266 418.10992 249.33266 420.01617L249.33266 425.39117L247.66078 425.39117ZM258.0365 425.39117L258.0365 415.5318L259.5365 415.5318L259.5365 416.93805Q260.63025 415.31305 262.67712 415.31305Q263.56775 415.31305 264.31775 415.63336Q265.06775 415.95367 265.43494 416.4771Q265.80212 417.00055 265.95837 417.70367Q266.05212 418.17242 266.05212 419.32867L266.05212 425.39117L264.38025 425.39117L264.38025 419.39117Q264.38025 418.37555 264.18494 417.86774Q263.98962 417.35992 263.48962 417.06305Q262.98962 416.76617 262.31775 416.76617Q261.25525 416.76617 260.4818 417.43805Q259.70837 418.10992 259.70837 420.01617L259.70837 425.39117L258.0365 425.39117ZM275.16223 422.2193L276.88098 422.43805Q276.47473 423.93805 275.37317 424.774Q274.2716 425.60992 272.55286 425.60992Q270.3966 425.60992 269.13098 424.2818Q267.86536 422.95367 267.86536 420.54742Q267.86536 418.06305 269.1388 416.68805Q270.41223 415.31305 272.4591 415.31305Q274.44348 415.31305 275.69348 416.6568Q276.94348 418.00055 276.94348 420.45367Q276.94348 420.5943 276.92786 420.89117L269.5841 420.89117Q269.67786 422.51617 270.50598 423.37555Q271.3341 424.23492 272.56848 424.23492Q273.47473 424.23492 274.12317 423.75836Q274.7716 423.2818 275.16223 422.2193ZM269.67786 419.51617L275.17786 419.51617Q275.06848 418.2818 274.55286 417.6568Q273.75598 416.68805 272.47473 416.68805Q271.3341 416.68805 270.54504 417.4615Q269.75598 418.23492 269.67786 419.51617ZM278.75668 425.39117L278.75668 411.79742L280.42856 411.79742L280.42856 425.39117L278.75668 425.39117Z" fill-rule="nonzero" fill="#000000"></path><path d="M265.41733 100.135254L426.92914 100.135254L426.92914 162.02502L265.41733 162.02502Z" fill-rule="nonzero" fill="#f3f3f3"></path><path d="M338.16507 132.47858L339.96194 132.9317Q339.39944 135.15045 337.9307 136.31451Q336.46194 137.47858 334.33694 137.47858Q332.13382 137.47858 330.75882 136.58014Q329.38382 135.6817 328.66507 133.98639Q327.94632 132.29108 327.94632 130.33795Q327.94632 128.21295 328.751 126.63483Q329.5557 125.0567 331.0557 124.23639Q332.5557 123.41608 334.35257 123.41608Q336.39944 123.41608 337.79007 124.45514Q339.1807 125.4942 339.72757 127.3692L337.96194 127.79108Q337.4932 126.3067 336.58694 125.627014Q335.6807 124.94733 334.32132 124.94733Q332.75882 124.94733 331.70413 125.69733Q330.64944 126.44733 330.21976 127.720764Q329.79007 128.9942 329.79007 130.33795Q329.79007 132.07233 330.29788 133.36139Q330.8057 134.65045 331.876 135.29108Q332.94632 135.9317 334.1807 135.9317Q335.69632 135.9317 336.7432 135.06451Q337.79007 134.19733 338.16507 132.47858ZM341.3255 132.8692L343.013 132.72858Q343.138 133.7442 343.5755 134.40045Q344.013 135.0567 344.9427 135.46295Q345.87238 135.8692 347.02863 135.8692Q348.05988 135.8692 348.84894 135.5567Q349.638 135.2442 350.02863 134.71295Q350.41925 134.1817 350.41925 133.5567Q350.41925 132.91608 350.04425 132.43951Q349.66925 131.96295 348.80988 131.63483Q348.263 131.41608 346.388 130.97076Q344.513 130.52545 343.763 130.1192Q342.79425 129.60358 342.3177 128.85358Q341.84113 128.10358 341.84113 127.16608Q341.84113 126.13483 342.42706 125.23639Q343.013 124.33795 344.1302 123.877014Q345.24738 123.41608 346.62238 123.41608Q348.138 123.41608 349.29425 123.90045Q350.4505 124.38483 351.0677 125.33014Q351.68488 126.27545 351.73175 127.47858L350.013 127.60358Q349.87238 126.32233 349.0677 125.658264Q348.263 124.9942 346.7005 124.9942Q345.0755 124.9942 344.3255 125.595764Q343.5755 126.19733 343.5755 127.04108Q343.5755 127.77545 344.10675 128.2442Q344.62238 128.71295 346.8177 129.21295Q349.013 129.71295 349.8255 130.08795Q351.013 130.63483 351.5833 131.47076Q352.15363 132.3067 352.15363 133.40045Q352.15363 134.4942 351.52863 135.45514Q350.90363 136.41608 349.73956 136.94733Q348.5755 137.47858 347.12238 137.47858Q345.27863 137.47858 344.02863 136.93951Q342.77863 136.40045 342.0677 135.32233Q341.35675 134.2442 341.3255 132.8692ZM353.76907 132.8692L355.45657 132.72858Q355.58157 133.7442 356.01907 134.40045Q356.45657 135.0567 357.38626 135.46295Q358.31595 135.8692 359.4722 135.8692Q360.50345 135.8692 361.2925 135.5567Q362.08157 135.2442 362.4722 134.71295Q362.86282 134.1817 362.86282 133.5567Q362.86282 132.91608 362.48782 132.43951Q362.11282 131.96295 361.25345 131.63483Q360.70657 131.41608 358.83157 130.97076Q356.95657 130.52545 356.20657 130.1192Q355.23782 129.60358 354.76126 128.85358Q354.2847 128.10358 354.2847 127.16608Q354.2847 126.13483 354.87064 125.23639Q355.45657 124.33795 356.57376 123.877014Q357.69095 123.41608 359.06595 123.41608Q360.58157 123.41608 361.73782 123.90045Q362.89407 124.38483 363.51126 125.33014Q364.12845 126.27545 364.17532 127.47858L362.45657 127.60358Q362.31595 126.32233 361.51126 125.658264Q360.70657 124.9942 359.14407 124.9942Q357.51907 124.9942 356.76907 125.595764Q356.01907 126.19733 356.01907 127.04108Q356.01907 127.77545 356.55032 128.2442Q357.06595 128.71295 359.26126 129.21295Q361.45657 129.71295 362.26907 130.08795Q363.45657 130.63483 364.0269 131.47076Q364.5972 132.3067 364.5972 133.40045Q364.5972 134.4942 363.9722 135.45514Q363.3472 136.41608 362.18314 136.94733Q361.01907 137.47858 359.56595 137.47858Q357.7222 137.47858 356.4722 136.93951Q355.2222 136.40045 354.51126 135.32233Q353.80032 134.2442 353.76907 132.8692Z" fill-rule="nonzero" fill="#000000"></path><path d="M265.41733 162.02502L426.92914 162.02502L426.92914 223.91478L265.41733 223.91478Z" fill-rule="nonzero" fill="#cccccc"></path><path d="M298.3824 199.13396L298.3824 185.5402L303.5074 185.5402Q304.86676 185.5402 305.5855 185.6652Q306.5855 185.83708 307.2574 186.30583Q307.92926 186.77458 308.34332 187.61833Q308.7574 188.46208 308.7574 189.46208Q308.7574 191.19646 307.65582 192.39958Q306.55426 193.6027 303.66364 193.6027L300.17926 193.6027L300.17926 199.13396L298.3824 199.13396ZM300.17926 191.99333L303.6949 191.99333Q305.4449 191.99333 306.17145 191.3449Q306.898 190.69646 306.898 189.52458Q306.898 188.6652 306.46832 188.05583Q306.03864 187.44646 305.3355 187.25896Q304.8824 187.13396 303.66364 187.13396L300.17926 187.13396L300.17926 191.99333ZM314.71658 199.13396L309.43533 185.5402L311.38846 185.5402L314.9197 195.4152Q315.3572 196.6027 315.63846 197.63396Q315.95096 196.52458 316.37283 195.4152L320.0447 185.5402L321.88846 185.5402L316.56033 199.13396L314.71658 199.13396ZM323.20703 199.13396L323.20703 185.5402L325.92578 185.5402L329.14453 195.1652Q329.58203 196.50896 329.78516 197.18083Q330.01953 196.43083 330.51953 194.99333L333.76953 185.5402L336.1914 185.5402L336.1914 199.13396L334.45703 199.13396L334.45703 187.74333L330.5039 199.13396L328.8789 199.13396L324.9414 187.55583L324.9414 199.13396L323.20703 199.13396ZM345.02908 197.9152Q344.09158 198.71208 343.2322 199.0324Q342.37283 199.3527 341.38846 199.3527Q339.77908 199.3527 338.90408 198.56364Q338.02908 197.77458 338.02908 196.5402Q338.02908 195.80583 338.3572 195.21208Q338.68533 194.61833 339.21658 194.25896Q339.74783 193.89958 340.4197 193.71208Q340.9197 193.57146 341.90408 193.46208Q343.93533 193.21208 344.88846 192.88396Q344.88846 192.5402 344.88846 192.44646Q344.88846 191.43083 344.4197 191.00896Q343.77908 190.44646 342.51346 190.44646Q341.34158 190.44646 340.77908 190.8527Q340.21658 191.25896 339.95096 192.32146L338.31033 192.08708Q338.5447 191.0402 339.05252 190.39958Q339.56033 189.75896 340.52127 189.4074Q341.4822 189.05583 342.76346 189.05583Q344.02908 189.05583 344.81033 189.3527Q345.59158 189.64958 345.96658 190.1027Q346.34158 190.55583 346.4822 191.24333Q346.57596 191.6652 346.57596 192.77458L346.57596 195.00896Q346.57596 197.33708 346.67752 197.95427Q346.77908 198.57146 347.1072 199.13396L345.3572 199.13396Q345.09158 198.61833 345.02908 197.9152ZM344.88846 194.19646Q343.9822 194.55583 342.15408 194.82146Q341.12283 194.96208 340.70096 195.14958Q340.27908 195.33708 340.0447 195.69646Q339.81033 196.05583 339.81033 196.49333Q339.81033 197.1652 340.31815 197.61052Q340.82596 198.05583 341.7947 198.05583Q342.76346 198.05583 343.51346 197.62614Q344.26346 197.19646 344.62283 196.4777Q344.88846 195.89958 344.88846 194.80583L344.88846 194.19646ZM348.9673 199.13396L348.9673 189.27458L350.4673 189.27458L350.4673 190.68083Q351.56104 189.05583 353.6079 189.05583Q354.49854 189.05583 355.24854 189.37614Q355.99854 189.69646 356.36572 190.2199Q356.7329 190.74333 356.88916 191.44646Q356.9829 191.9152 356.9829 193.07146L356.9829 199.13396L355.31104 199.13396L355.31104 193.13396Q355.31104 192.11833 355.11572 191.61052Q354.9204 191.1027 354.4204 190.80583Q353.9204 190.50896 353.24854 190.50896Q352.18604 190.50896 351.4126 191.18083Q350.63916 191.8527 350.63916 193.75896L350.63916 199.13396L348.9673 199.13396ZM365.78052 197.9152Q364.84302 198.71208 363.98364 199.0324Q363.12427 199.3527 362.1399 199.3527Q360.53052 199.3527 359.65552 198.56364Q358.78052 197.77458 358.78052 196.5402Q358.78052 195.80583 359.10864 195.21208Q359.43677 194.61833 359.96802 194.25896Q360.49927 193.89958 361.17114 193.71208Q361.67114 193.57146 362.65552 193.46208Q364.68677 193.21208 365.6399 192.88396Q365.6399 192.5402 365.6399 192.44646Q365.6399 191.43083 365.17114 191.00896Q364.53052 190.44646 363.2649 190.44646Q362.09302 190.44646 361.53052 190.8527Q360.96802 191.25896 360.7024 192.32146L359.06177 192.08708Q359.29614 191.0402 359.80396 190.39958Q360.31177 189.75896 361.2727 189.4074Q362.23364 189.05583 363.5149 189.05583Q364.78052 189.05583 365.56177 189.3527Q366.34302 189.64958 366.71802 190.1027Q367.09302 190.55583 367.23364 191.24333Q367.3274 191.6652 367.3274 192.77458L367.3274 195.00896Q367.3274 197.33708 367.42896 197.95427Q367.53052 198.57146 367.85864 199.13396L366.10864 199.13396Q365.84302 198.61833 365.78052 197.9152ZM365.6399 194.19646Q364.73364 194.55583 362.90552 194.82146Q361.87427 194.96208 361.4524 195.14958Q361.03052 195.33708 360.79614 195.69646Q360.56177 196.05583 360.56177 196.49333Q360.56177 197.1652 361.06958 197.61052Q361.5774 198.05583 362.54614 198.05583Q363.5149 198.05583 364.2649 197.62614Q365.0149 197.19646 365.37427 196.4777Q365.6399 195.89958 365.6399 194.80583L365.6399 194.19646ZM369.42184 199.94646L371.03122 200.19646Q371.1406 200.94646 371.60934 201.2902Q372.21872 201.74333 373.29684 201.74333Q374.46872 201.74333 375.09372 201.2824Q375.71872 200.82146 375.9531 199.99333Q376.0781 199.4777 376.06247 197.83708Q374.96872 199.13396 373.34372 199.13396Q371.31247 199.13396 370.19528 197.6652Q369.0781 196.19646 369.0781 194.14958Q369.0781 192.74333 369.59372 191.54802Q370.10934 190.3527 371.0781 189.70427Q372.04684 189.05583 373.34372 189.05583Q375.09372 189.05583 376.21872 190.46208L376.21872 189.27458L377.7656 189.27458L377.7656 197.7902Q377.7656 200.1027 377.29684 201.06364Q376.8281 202.02458 375.81247 202.57927Q374.79684 203.13396 373.31247 203.13396Q371.54684 203.13396 370.4609 202.33708Q369.37497 201.5402 369.42184 199.94646ZM370.79684 194.02458Q370.79684 195.9777 371.57028 196.86833Q372.34372 197.75896 373.49997 197.75896Q374.6406 197.75896 375.42184 196.86833Q376.2031 195.9777 376.2031 194.08708Q376.2031 192.27458 375.3984 191.36052Q374.59372 190.44646 373.46872 190.44646Q372.35934 190.44646 371.5781 191.3449Q370.79684 192.24333 370.79684 194.02458ZM386.84445 195.96208L388.5632 196.18083Q388.15695 197.68083 387.0554 198.51677Q385.95383 199.3527 384.23508 199.3527Q382.07883 199.3527 380.8132 198.02458Q379.54758 196.69646 379.54758 194.2902Q379.54758 191.80583 380.821 190.43083Q382.09445 189.05583 384.14133 189.05583Q386.1257 189.05583 387.3757 190.39958Q388.6257 191.74333 388.6257 194.19646Q388.6257 194.33708 388.61008 194.63396L381.26633 194.63396Q381.36008 196.25896 382.1882 197.11833Q383.01633 197.9777 384.2507 197.9777Q385.15695 197.9777 385.8054 197.50114Q386.45383 197.02458 386.84445 195.96208ZM381.36008 193.25896L386.86008 193.25896Q386.7507 192.02458 386.23508 191.39958Q385.4382 190.43083 384.15695 190.43083Q383.01633 190.43083 382.22726 191.20427Q381.4382 191.9777 381.36008 193.25896ZM390.45453 199.13396L390.45453 189.27458L391.95453 189.27458L391.95453 190.77458Q392.53265 189.7277 393.01703 189.39177Q393.5014 189.05583 394.09515 189.05583Q394.9389 189.05583 395.8139 189.6027L395.23578 191.14958Q394.6264 190.7902 394.0014 190.7902Q393.45453 190.7902 393.02484 191.11833Q392.59515 191.44646 392.40765 192.02458Q392.1264 192.9152 392.1264 193.9777L392.1264 199.13396L390.45453 199.13396Z" fill-rule="nonzero" fill="#000000"></path><path d="M411.66666 450.17584L573.17847 450.17584L573.17847 582.04987L411.66666 582.04987Z" fill-rule="nonzero" fill="#efefef"></path><path d="M467.1968 522.2769L461.91556 508.68317L463.86868 508.68317L467.39993 518.55817Q467.83743 519.74567 468.11868 520.7769Q468.43118 519.66754 468.85306 518.55817L472.52493 508.68317L474.36868 508.68317L469.04056 522.2769L467.1968 522.2769ZM475.07788 518.68317L476.74976 518.4644Q477.031 519.8863 477.72632 520.5113Q478.42163 521.1363 479.406 521.1363Q480.5935 521.1363 481.406 520.316Q482.2185 519.49567 482.2185 518.29254Q482.2185 517.1519 481.4607 516.4019Q480.70288 515.6519 479.54663 515.6519Q479.07788 515.6519 478.37476 515.8394L478.56226 514.37067Q478.7185 514.3863 478.82788 514.3863Q479.89038 514.3863 480.74194 513.8316Q481.5935 513.2769 481.5935 512.12067Q481.5935 511.1988 480.97632 510.59723Q480.35913 509.99567 479.37476 509.99567Q478.406 509.99567 477.75757 510.60504Q477.10913 511.21442 476.92163 512.4488L475.24976 512.1519Q475.54663 510.46442 476.63257 509.54254Q477.7185 508.62067 479.3435 508.62067Q480.45288 508.62067 481.39038 509.09723Q482.32788 509.5738 482.82007 510.40192Q483.31226 511.23004 483.31226 512.1519Q483.31226 513.04254 482.8435 513.7613Q482.37476 514.48004 481.43726 514.91754Q482.656 515.18317 483.32007 516.066Q483.98413 516.9488 483.98413 518.2613Q483.98413 520.04254 482.68726 521.2769Q481.39038 522.5113 479.406 522.5113Q477.60913 522.5113 476.42944 521.4488Q475.24976 520.3863 475.07788 518.68317ZM491.60565 522.2769L491.60565 508.68317L493.41815 508.68317L493.41815 522.2769L491.60565 522.2769ZM495.94522 515.6519Q495.94522 512.2613 497.76553 510.34723Q499.58585 508.43317 502.46085 508.43317Q504.33585 508.43317 505.85147 509.3316Q507.3671 510.23004 508.15616 511.83942Q508.94522 513.4488 508.94522 515.49567Q508.94522 517.55817 508.10928 519.191Q507.27335 520.8238 505.7421 521.66754Q504.21085 522.5113 502.44522 522.5113Q500.52335 522.5113 499.01553 521.5816Q497.50772 520.6519 496.72647 519.05035Q495.94522 517.4488 495.94522 515.6519ZM497.8046 515.68317Q497.8046 518.1363 499.1249 519.55035Q500.44522 520.9644 502.4296 520.9644Q504.46085 520.9644 505.77335 519.5347Q507.08585 518.10504 507.08585 515.48004Q507.08585 513.8238 506.53116 512.5894Q505.97647 511.35504 504.89053 510.66754Q503.8046 509.98004 502.46085 509.98004Q500.5546 509.98004 499.1796 511.29254Q497.8046 512.60504 497.8046 515.68317ZM520.70667 517.5113L522.50354 517.9644Q521.94104 520.18317 520.4723 521.3472Q519.00354 522.5113 516.87854 522.5113Q514.6754 522.5113 513.3004 521.61285Q511.92538 520.7144 511.20663 519.0191Q510.48788 517.3238 510.48788 515.37067Q510.48788 513.24567 511.29257 511.66754Q512.0973 510.08942 513.5973 509.2691Q515.0973 508.4488 516.89417 508.4488Q518.94104 508.4488 520.33167 509.48785Q521.7223 510.52692 522.26917 512.4019L520.50354 512.8238Q520.0348 511.33942 519.12854 510.65973Q518.2223 509.98004 516.8629 509.98004Q515.3004 509.98004 514.2457 510.73004Q513.19104 511.48004 512.76135 512.7535Q512.33167 514.0269 512.33167 515.37067Q512.33167 517.10504 512.8395 518.3941Q513.3473 519.68317 514.4176 520.3238Q515.4879 520.9644 516.7223 520.9644Q518.2379 520.9644 519.2848 520.0972Q520.33167 519.23004 520.70667 517.5113Z" fill-rule="nonzero" fill="#000000"></path><path d="M346.17322 223.91478L242.22614 378.32764" fill-rule="evenodd" stroke="#000000" stroke-width="2.0" stroke-linejoin="round" stroke-linecap="butt"></path><path d="M239.48575 376.48288L237.15768 385.85678L244.96652 380.1724Z" fill-rule="evenodd" fill="#000000" stroke="#000000" stroke-width="2.0" stroke-linecap="butt"></path><path d="M346.17322 223.91478L485.90842 440.09784" fill-rule="evenodd" stroke="#000000" stroke-width="2.0" stroke-linejoin="round" stroke-linecap="butt"></path><path d="M483.13406 441.89114L490.8354 447.72034L488.68277 438.3046Z" fill-rule="evenodd" fill="#000000" stroke="#000000" stroke-width="2.0" stroke-linecap="butt"></path></svg>

