<?xml version="1.0" standalone="yes"?>

<svg version="1.1" viewBox="0.0 0.0 953.0 536.0" fill="none" stroke="none" stroke-linecap="square" stroke-miterlimit="10" clip-path="url(#p.0)" xmlns="http://www.w3.org/2000/svg" xmlns:xlink="http://www.w3.org/1999/xlink"><clipPath id="p.0"><path d="M0 0L953.0 0L953.0 536.0L0 536.0L0 0Z" clip-rule="nonzero"></path></clipPath><path d="M367.85333 74.15672L347.6415 53.94488L93.45964 53.94488L93.45964 459.78027L113.67148 479.99213L367.85333 479.99213ZM367.85333 74.15672L113.67148 74.15672L93.45964 53.94488M113.67148 74.15672L113.67148 479.99213" fill-rule="nonzero" stroke="#000000" stroke-width="2.0" stroke-linejoin="round" stroke-linecap="butt"></path><path d="M880.84283 74.15672L860.631 53.94488L606.44916 53.94488L606.44916 459.78027L626.66095 479.99213L880.84283 479.99213ZM880.84283 74.15672L626.66095 74.15672L606.44916 53.94488M626.66095 74.15672L626.66095 479.99213" fill-rule="nonzero" stroke="#000000" stroke-width="2.0" stroke-linejoin="round" stroke-linecap="butt"></path><path d="M845.7877 324.0793L835.61914 313.91077L651.6775 313.91077L651.6775 441.78946L661.84607 451.958L845.7877 451.958ZM845.7877 324.0793L661.84607 324.0793L651.6775 313.91077M661.84607 324.0793L661.84607 451.958" fill-rule="nonzero" stroke="#000000" stroke-width="2.0" stroke-linejoin="round" stroke-linecap="butt"></path><path d="M700.41174 377.50305L700.41174 375.95618L709.41174 372.14368L709.41174 373.79993L702.2711 376.73743L709.41174 379.70618L709.41174 381.36243L700.41174 377.50305ZM711.3067 377.50305L711.3067 375.95618L720.3067 372.14368L720.3067 373.79993L713.1661 376.73743L720.3067 379.70618L720.3067 381.36243L711.3067 377.50305ZM722.4048 387.23743L722.4048 373.5968L723.93604 373.5968L723.93604 374.87805Q724.4673 374.12805 725.147 373.75305Q725.82666 373.37805 726.7798 373.37805Q728.0454 373.37805 729.01416 374.0265Q729.9829 374.67493 730.4751 375.86243Q730.9673 377.04993 730.9673 378.45618Q730.9673 379.9718 730.4204 381.18274Q729.87354 382.39368 728.8423 383.0343Q727.81104 383.67493 726.6704 383.67493Q725.82666 383.67493 725.1626 383.32336Q724.49854 382.9718 724.07666 382.44055L724.07666 387.23743L722.4048 387.23743ZM723.9204 378.58118Q723.9204 380.48743 724.69385 381.39368Q725.4673 382.29993 726.56104 382.29993Q727.6704 382.29993 728.4595 381.36243Q729.24854 380.42493 729.24854 378.44055Q729.24854 376.56555 728.4751 375.62805Q727.70166 374.69055 726.62354 374.69055Q725.56104 374.69055 724.7407 375.69055Q723.9204 376.69055 723.9204 378.58118ZM732.7649 383.45618L732.7649 373.5968L734.2649 373.5968L734.2649 375.0968Q734.843 374.04993 735.3274 373.714Q735.81177 373.37805 736.4055 373.37805Q737.24927 373.37805 738.12427 373.92493L737.54614 375.4718Q736.93677 375.11243 736.31177 375.11243Q735.7649 375.11243 735.3352 375.44055Q734.9055 375.76868 734.718 376.3468Q734.43677 377.23743 734.43677 378.29993L734.43677 383.45618L732.7649 383.45618ZM738.36816 378.5343Q738.36816 375.79993 739.8994 374.4718Q741.16504 373.37805 742.99316 373.37805Q745.0244 373.37805 746.3135 374.714Q747.60254 376.04993 747.60254 378.39368Q747.60254 380.29993 747.0322 381.38586Q746.4619 382.4718 745.376 383.07336Q744.29004 383.67493 742.99316 383.67493Q740.93066 383.67493 739.6494 382.3468Q738.36816 381.01868 738.36816 378.5343ZM740.0869 378.5343Q740.0869 380.42493 740.91504 381.36243Q741.74316 382.29993 742.99316 382.29993Q744.24316 382.29993 745.0635 381.3546Q745.8838 380.4093 745.8838 378.4718Q745.8838 376.64368 745.05566 375.70618Q744.22754 374.76868 742.99316 374.76868Q741.74316 374.76868 740.91504 375.70618Q740.0869 376.64368 740.0869 378.5343ZM755.8064 379.8468L757.447 380.06555Q757.1814 381.75305 756.072 382.714Q754.96265 383.67493 753.33765 383.67493Q751.322 383.67493 750.09546 382.3546Q748.8689 381.0343 748.8689 378.56555Q748.8689 376.9718 749.39233 375.7765Q749.9158 374.58118 751.0017 373.9796Q752.08765 373.37805 753.3533 373.37805Q754.96265 373.37805 755.9783 374.19055Q756.9939 375.00305 757.2908 376.50305L755.6658 376.75305Q755.4314 375.75305 754.83765 375.25305Q754.2439 374.75305 753.4158 374.75305Q752.15015 374.75305 751.3611 375.6593Q750.572 376.56555 750.572 378.51868Q750.572 380.50305 751.33765 381.4015Q752.1033 382.29993 753.322 382.29993Q754.3064 382.29993 754.96265 381.69836Q755.6189 381.0968 755.8064 379.8468ZM765.447 380.2843L767.1658 380.50305Q766.7595 382.00305 765.65796 382.839Q764.5564 383.67493 762.83765 383.67493Q760.6814 383.67493 759.4158 382.3468Q758.15015 381.01868 758.15015 378.61243Q758.15015 376.12805 759.4236 374.75305Q760.697 373.37805 762.7439 373.37805Q764.7283 373.37805 765.9783 374.7218Q767.2283 376.06555 767.2283 378.51868Q767.2283 378.6593 767.21265 378.95618L759.8689 378.95618Q759.96265 380.58118 760.7908 381.44055Q761.6189 382.29993 762.8533 382.29993Q763.7595 382.29993 764.40796 381.82336Q765.0564 381.3468 765.447 380.2843ZM759.96265 377.58118L765.46265 377.58118Q765.3533 376.3468 764.83765 375.7218Q764.0408 374.75305 762.7595 374.75305Q761.6189 374.75305 760.82983 375.5265Q760.0408 376.29993 759.96265 377.58118ZM768.4009 380.51868L770.0571 380.25305Q770.19775 381.25305 770.83057 381.7765Q771.4634 382.29993 772.604 382.29993Q773.76025 382.29993 774.31494 381.83118Q774.8696 381.36243 774.8696 380.73743Q774.8696 380.17493 774.38525 379.8468Q774.0415 379.62805 772.6821 379.2843Q770.8384 378.81555 770.12744 378.4796Q769.4165 378.14368 769.0493 377.5421Q768.6821 376.94055 768.6821 376.2218Q768.6821 375.56555 768.9868 375.00305Q769.2915 374.44055 769.8071 374.06555Q770.19775 373.7843 770.8696 373.58118Q771.5415 373.37805 772.3071 373.37805Q773.479 373.37805 774.354 373.714Q775.229 374.04993 775.64307 374.62024Q776.0571 375.19055 776.2134 376.14368L774.5884 376.36243Q774.479 375.61243 773.93994 375.18274Q773.4009 374.75305 772.4321 374.75305Q771.2759 374.75305 770.7915 375.13586Q770.3071 375.51868 770.3071 376.01868Q770.3071 376.3468 770.51025 376.61243Q770.7134 376.87805 771.1509 377.04993Q771.4009 377.14368 772.6196 377.48743Q774.38525 377.95618 775.0884 378.25305Q775.7915 378.54993 776.18994 379.12805Q776.5884 379.70618 776.5884 380.56555Q776.5884 381.39368 776.104 382.13586Q775.6196 382.87805 774.69775 383.2765Q773.7759 383.67493 772.6196 383.67493Q770.69775 383.67493 769.68994 382.87805Q768.6821 382.08118 768.4009 380.51868ZM777.729 380.51868L779.38525 380.25305Q779.5259 381.25305 780.1587 381.7765Q780.7915 382.29993 781.9321 382.29993Q783.0884 382.29993 783.64307 381.83118Q784.19775 381.36243 784.19775 380.73743Q784.19775 380.17493 783.7134 379.8468Q783.3696 379.62805 782.01025 379.2843Q780.1665 378.81555 779.45557 378.4796Q778.7446 378.14368 778.37744 377.5421Q778.01025 376.94055 778.01025 376.2218Q778.01025 375.56555 778.31494 375.00305Q778.6196 374.44055 779.13525 374.06555Q779.5259 373.7843 780.19775 373.58118Q780.8696 373.37805 781.63525 373.37805Q782.8071 373.37805 783.6821 373.714Q784.5571 374.04993 784.9712 374.62024Q785.38525 375.19055 785.5415 376.14368L783.9165 376.36243Q783.8071 375.61243 783.26807 375.18274Q782.729 374.75305 781.76025 374.75305Q780.604 374.75305 780.1196 375.13586Q779.63525 375.51868 779.63525 376.01868Q779.63525 376.3468 779.8384 376.61243Q780.0415 376.87805 780.479 377.04993Q780.729 377.14368 781.94775 377.48743Q783.7134 377.95618 784.4165 378.25305Q785.1196 378.54993 785.51807 379.12805Q785.9165 379.70618 785.9165 380.56555Q785.9165 381.39368 785.4321 382.13586Q784.94775 382.87805 784.0259 383.2765Q783.104 383.67493 781.94775 383.67493Q780.0259 383.67493 779.01807 382.87805Q778.01025 382.08118 777.729 380.51868ZM796.5259 377.50305L787.5259 381.36243L787.5259 379.70618L794.6509 376.73743L787.5259 373.79993L787.5259 372.14368L796.5259 375.95618L796.5259 377.50305ZM807.42084 377.50305L798.42084 381.36243L798.42084 379.70618L805.54584 376.73743L798.42084 373.79993L798.42084 372.14368L807.42084 375.95618L807.42084 377.50305Z" fill-rule="nonzero" fill="#000000"></path><path d="M702.1449 396.95618L702.1449 395.04993L704.05115 395.04993L704.05115 396.95618L702.1449 396.95618ZM702.1449 404.9093L702.1449 403.00305L704.05115 403.00305L704.05115 404.9093L702.1449 404.9093ZM707.10944 404.9093L707.10944 391.31555L713.1407 391.31555Q714.9532 391.31555 715.8985 391.67493Q716.8438 392.0343 717.4063 392.964Q717.9688 393.89368 717.9688 395.01868Q717.9688 396.4718 717.0391 397.464Q716.10944 398.45618 714.1407 398.7218Q714.85944 399.06555 715.23444 399.39368Q716.0157 400.12805 716.7188 401.20618L719.0938 404.9093L716.8282 404.9093L715.0313 402.08118Q714.23444 400.86243 713.7266 400.20618Q713.2188 399.54993 712.81256 399.2921Q712.4063 399.0343 712.00006 398.94055Q711.68756 398.86243 710.98444 398.86243L708.9063 398.86243L708.9063 404.9093L707.10944 404.9093ZM708.9063 397.31555L712.7657 397.31555Q714.00006 397.31555 714.6954 397.05774Q715.3907 396.79993 715.7579 396.23743Q716.12506 395.67493 716.12506 395.01868Q716.12506 394.04993 715.42194 393.43274Q714.7188 392.81555 713.2032 392.81555L708.9063 392.81555L708.9063 397.31555ZM720.55115 404.9093L720.55115 391.31555L725.67615 391.31555Q727.0355 391.31555 727.7543 391.44055Q728.7543 391.61243 729.42615 392.08118Q730.098 392.54993 730.5121 393.39368Q730.92615 394.23743 730.92615 395.23743Q730.92615 396.9718 729.8246 398.17493Q728.723 399.37805 725.8324 399.37805L722.348 399.37805L722.348 404.9093L720.55115 404.9093ZM722.348 397.76868L725.86365 397.76868Q727.61365 397.76868 728.3402 397.12024Q729.0668 396.4718 729.0668 395.29993Q729.0668 394.44055 728.6371 393.83118Q728.2074 393.2218 727.5043 393.0343Q727.05115 392.9093 725.8324 392.9093L722.348 392.9093L722.348 397.76868ZM742.6978 400.14368L744.4947 400.5968Q743.9322 402.81555 742.46344 403.9796Q740.9947 405.14368 738.8697 405.14368Q736.66656 405.14368 735.29156 404.24524Q733.91656 403.3468 733.1978 401.6515Q732.47906 399.95618 732.47906 398.00305Q732.47906 395.87805 733.28375 394.29993Q734.08844 392.7218 735.58844 391.9015Q737.08844 391.08118 738.8853 391.08118Q740.9322 391.08118 742.3228 392.12024Q743.71344 393.1593 744.2603 395.0343L742.4947 395.45618Q742.02594 393.9718 741.1197 393.2921Q740.21344 392.61243 738.85406 392.61243Q737.29156 392.61243 736.2369 393.36243Q735.1822 394.11243 734.7525 395.38586Q734.3228 396.6593 734.3228 398.00305Q734.3228 399.73743 734.8306 401.0265Q735.33844 402.31555 736.40875 402.95618Q737.47906 403.5968 738.71344 403.5968Q740.22906 403.5968 741.27594 402.7296Q742.3228 401.86243 742.6978 400.14368ZM745.8583 400.5343L747.5458 400.39368Q747.6708 401.4093 748.1083 402.06555Q748.5458 402.7218 749.47546 403.12805Q750.40515 403.5343 751.5614 403.5343Q752.59265 403.5343 753.3817 403.2218Q754.1708 402.9093 754.5614 402.37805Q754.952 401.8468 754.952 401.2218Q754.952 400.58118 754.577 400.1046Q754.202 399.62805 753.34265 399.29993Q752.7958 399.08118 750.9208 398.63586Q749.0458 398.19055 748.2958 397.7843Q747.327 397.26868 746.85046 396.51868Q746.3739 395.76868 746.3739 394.83118Q746.3739 393.79993 746.95984 392.9015Q747.5458 392.00305 748.66296 391.5421Q749.78015 391.08118 751.15515 391.08118Q752.6708 391.08118 753.827 391.56555Q754.9833 392.04993 755.60046 392.99524Q756.21765 393.94055 756.2645 395.14368L754.5458 395.26868Q754.40515 393.98743 753.60046 393.32336Q752.7958 392.6593 751.2333 392.6593Q749.6083 392.6593 748.8583 393.26086Q748.1083 393.86243 748.1083 394.70618Q748.1083 395.44055 748.6395 395.9093Q749.15515 396.37805 751.35046 396.87805Q753.5458 397.37805 754.3583 397.75305Q755.5458 398.29993 756.1161 399.13586Q756.6864 399.9718 756.6864 401.06555Q756.6864 402.1593 756.0614 403.12024Q755.4364 404.08118 754.27234 404.61243Q753.1083 405.14368 751.65515 405.14368Q749.8114 405.14368 748.5614 404.6046Q747.3114 404.06555 746.60046 402.98743Q745.8895 401.9093 745.8583 400.5343ZM765.44244 401.73743L767.1612 401.95618Q766.75494 403.45618 765.6534 404.2921Q764.5518 405.12805 762.83307 405.12805Q760.6768 405.12805 759.4112 403.79993Q758.14557 402.4718 758.14557 400.06555Q758.14557 397.58118 759.419 396.20618Q760.69244 394.83118 762.7393 394.83118Q764.7237 394.83118 765.9737 396.17493Q767.2237 397.51868 767.2237 399.9718Q767.2237 400.11243 767.20807 400.4093L759.8643 400.4093Q759.95807 402.0343 760.7862 402.89368Q761.6143 403.75305 762.8487 403.75305Q763.75494 403.75305 764.4034 403.2765Q765.0518 402.79993 765.44244 401.73743ZM759.95807 399.0343L765.45807 399.0343Q765.3487 397.79993 764.83307 397.17493Q764.0362 396.20618 762.75494 396.20618Q761.6143 396.20618 760.82526 396.9796Q760.0362 397.75305 759.95807 399.0343ZM769.05255 404.9093L769.05255 395.04993L770.55255 395.04993L770.55255 396.54993Q771.1307 395.50305 771.61505 395.1671Q772.0994 394.83118 772.6932 394.83118Q773.5369 394.83118 774.4119 395.37805L773.8338 396.92493Q773.2244 396.56555 772.5994 396.56555Q772.05255 396.56555 771.62286 396.89368Q771.1932 397.2218 771.0057 397.79993Q770.7244 398.69055 770.7244 399.75305L770.7244 404.9093L769.05255 404.9093ZM778.01526 404.9093L774.26526 395.04993L776.0309 395.04993L778.1559 400.95618Q778.49963 401.9093 778.7809 402.94055Q778.99963 402.1593 779.4059 401.06555L781.5934 395.04993L783.31213 395.04993L779.57776 404.9093L778.01526 404.9093ZM784.62463 393.2218L784.62463 391.31555L786.2965 391.31555L786.2965 393.2218L784.62463 393.2218ZM784.62463 404.9093L784.62463 395.04993L786.2965 395.04993L786.2965 404.9093L784.62463 404.9093ZM795.1913 401.29993L796.8319 401.51868Q796.5663 403.20618 795.4569 404.1671Q794.34753 405.12805 792.72253 405.12805Q790.7069 405.12805 789.48035 403.80774Q788.2538 402.48743 788.2538 400.01868Q788.2538 398.42493 788.7772 397.2296Q789.30066 396.0343 790.3866 395.43274Q791.47253 394.83118 792.73816 394.83118Q794.34753 394.83118 795.36316 395.64368Q796.3788 396.45618 796.67566 397.95618L795.05066 398.20618Q794.8163 397.20618 794.22253 396.70618Q793.6288 396.20618 792.80066 396.20618Q791.53503 396.20618 790.746 397.11243Q789.9569 398.01868 789.9569 399.9718Q789.9569 401.95618 790.72253 402.8546Q791.48816 403.75305 792.7069 403.75305Q793.6913 403.75305 794.34753 403.1515Q795.0038 402.54993 795.1913 401.29993ZM804.8319 401.73743L806.55066 401.95618Q806.1444 403.45618 805.04285 404.2921Q803.9413 405.12805 802.22253 405.12805Q800.0663 405.12805 798.80066 403.79993Q797.53503 402.4718 797.53503 400.06555Q797.53503 397.58118 798.8085 396.20618Q800.0819 394.83118 802.1288 394.83118Q804.11316 394.83118 805.36316 396.17493Q806.61316 397.51868 806.61316 399.9718Q806.61316 400.11243 806.59753 400.4093L799.2538 400.4093Q799.34753 402.0343 800.17566 402.89368Q801.0038 403.75305 802.23816 403.75305Q803.1444 403.75305 803.79285 403.2765Q804.4413 402.79993 804.8319 401.73743ZM799.34753 399.0343L804.84753 399.0343Q804.73816 397.79993 804.22253 397.17493Q803.42566 396.20618 802.1444 396.20618Q801.0038 396.20618 800.2147 396.9796Q799.42566 397.75305 799.34753 399.0343Z" fill-rule="nonzero" fill="#000000"></path><path d="M699.6837 136.03293L699.6837 134.48605L708.6837 130.67355L708.6837 132.3298L701.5431 135.2673L708.6837 138.23605L708.6837 139.8923L699.6837 136.03293ZM710.5787 136.03293L710.5787 134.48605L719.5787 130.67355L719.5787 132.3298L712.43805 135.2673L719.5787 138.23605L719.5787 139.8923L710.5787 136.03293ZM721.67676 141.98605L721.67676 132.12668L723.17676 132.12668L723.17676 133.5173Q723.6299 132.79855 724.4033 132.35324Q725.17676 131.90793 726.16113 131.90793Q727.2549 131.90793 727.958 132.36105Q728.66113 132.81418 728.9424 133.6423Q730.11426 131.90793 731.98926 131.90793Q733.458 131.90793 734.2471 132.72043Q735.03613 133.53293 735.03613 135.22043L735.03613 141.98605L733.36426 141.98605L733.36426 135.78293Q733.36426 134.78293 733.208 134.33762Q733.05176 133.8923 732.6221 133.62668Q732.1924 133.36105 731.61426 133.36105Q730.583 133.36105 729.8955 134.04855Q729.208 134.73605 729.208 136.2673L729.208 141.98605L727.53613 141.98605L727.53613 135.5798Q727.53613 134.47043 727.1299 133.91574Q726.72363 133.36105 725.78613 133.36105Q725.083 133.36105 724.48145 133.72824Q723.8799 134.09543 723.61426 134.81418Q723.34863 135.53293 723.34863 136.87668L723.34863 141.98605L721.67676 141.98605ZM743.655 140.7673Q742.7175 141.56418 741.85815 141.88449Q740.9988 142.2048 740.0144 142.2048Q738.405 142.2048 737.53 141.41574Q736.655 140.62668 736.655 139.3923Q736.655 138.65793 736.98315 138.06418Q737.3113 137.47043 737.8425 137.11105Q738.3738 136.75168 739.04565 136.56418Q739.54565 136.42355 740.53 136.31418Q742.5613 136.06418 743.5144 135.73605Q743.5144 135.3923 743.5144 135.29855Q743.5144 134.28293 743.04565 133.86105Q742.405 133.29855 741.1394 133.29855Q739.9675 133.29855 739.405 133.7048Q738.8425 134.11105 738.5769 135.17355L736.9363 134.93918Q737.17065 133.8923 737.67847 133.25168Q738.1863 132.61105 739.1472 132.25949Q740.10815 131.90793 741.3894 131.90793Q742.655 131.90793 743.4363 132.2048Q744.2175 132.50168 744.5925 132.9548Q744.9675 133.40793 745.10815 134.09543Q745.2019 134.5173 745.2019 135.62668L745.2019 137.86105Q745.2019 140.18918 745.30347 140.80637Q745.405 141.42355 745.73315 141.98605L743.98315 141.98605Q743.7175 141.47043 743.655 140.7673ZM743.5144 137.04855Q742.60815 137.40793 740.78 137.67355Q739.7488 137.81418 739.3269 138.00168Q738.905 138.18918 738.67065 138.54855Q738.4363 138.90793 738.4363 139.34543Q738.4363 140.0173 738.9441 140.46262Q739.4519 140.90793 740.42065 140.90793Q741.3894 140.90793 742.1394 140.47824Q742.8894 140.04855 743.2488 139.3298Q743.5144 138.75168 743.5144 137.65793L743.5144 137.04855ZM754.03076 138.37668L755.6714 138.59543Q755.40576 140.28293 754.2964 141.24387Q753.187 142.2048 751.562 142.2048Q749.5464 142.2048 748.3198 140.88449Q747.09326 139.56418 747.09326 137.09543Q747.09326 135.50168 747.6167 134.30637Q748.14014 133.11105 749.2261 132.50949Q750.312 131.90793 751.57764 131.90793Q753.187 131.90793 754.20264 132.72043Q755.21826 133.53293 755.51514 135.03293L753.89014 135.28293Q753.65576 134.28293 753.062 133.78293Q752.46826 133.28293 751.64014 133.28293Q750.3745 133.28293 749.58545 134.18918Q748.7964 135.09543 748.7964 137.04855Q748.7964 139.03293 749.562 139.93137Q750.32764 140.8298 751.5464 140.8298Q752.53076 140.8298 753.187 140.22824Q753.84326 139.62668 754.03076 138.37668ZM756.9214 141.98605L756.9214 128.3923L758.59326 128.3923L758.59326 133.2673Q759.76514 131.90793 761.5464 131.90793Q762.64014 131.90793 763.4448 132.33762Q764.2495 132.7673 764.6011 133.53293Q764.95264 134.29855 764.95264 135.73605L764.95264 141.98605L763.28076 141.98605L763.28076 135.73605Q763.28076 134.48605 762.7339 133.91574Q762.187 133.34543 761.20264 133.34543Q760.45264 133.34543 759.8042 133.72824Q759.15576 134.11105 758.8745 134.77512Q758.59326 135.43918 758.59326 136.59543L758.59326 141.98605L756.9214 141.98605ZM767.31274 130.29855L767.31274 128.3923L768.9846 128.3923L768.9846 130.29855L767.31274 130.29855ZM767.31274 141.98605L767.31274 132.12668L768.9846 132.12668L768.9846 141.98605L767.31274 141.98605ZM771.4419 141.98605L771.4419 132.12668L772.9419 132.12668L772.9419 133.53293Q774.03564 131.90793 776.0825 131.90793Q776.97314 131.90793 777.72314 132.22824Q778.47314 132.54855 778.84033 133.07199Q779.2075 133.59543 779.3638 134.29855Q779.4575 134.7673 779.4575 135.92355L779.4575 141.98605L777.78564 141.98605L777.78564 135.98605Q777.78564 134.97043 777.59033 134.46262Q777.395 133.9548 776.895 133.65793Q776.395 133.36105 775.72314 133.36105Q774.66064 133.36105 773.8872 134.03293Q773.1138 134.7048 773.1138 136.61105L773.1138 141.98605L771.4419 141.98605ZM788.5676 138.81418L790.2864 139.03293Q789.8801 140.53293 788.77856 141.36887Q787.677 142.2048 785.95825 142.2048Q783.802 142.2048 782.5364 140.87668Q781.27075 139.54855 781.27075 137.1423Q781.27075 134.65793 782.5442 133.28293Q783.8176 131.90793 785.8645 131.90793Q787.8489 131.90793 789.0989 133.25168Q790.3489 134.59543 790.3489 137.04855Q790.3489 137.18918 790.33325 137.48605L782.9895 137.48605Q783.08325 139.11105 783.9114 139.97043Q784.7395 140.8298 785.9739 140.8298Q786.8801 140.8298 787.52856 140.35324Q788.177 139.87668 788.5676 138.81418ZM783.08325 136.11105L788.58325 136.11105Q788.4739 134.87668 787.95825 134.25168Q787.1614 133.28293 785.8801 133.28293Q784.7395 133.28293 783.95044 134.05637Q783.1614 134.8298 783.08325 136.11105ZM800.99023 136.03293L791.99023 139.8923L791.99023 138.23605L799.11523 135.2673L791.99023 132.3298L791.99023 130.67355L800.99023 134.48605L800.99023 136.03293ZM811.8852 136.03293L802.8852 139.8923L802.8852 138.23605L810.0102 135.2673L802.8852 132.3298L802.8852 130.67355L811.8852 134.48605L811.8852 136.03293Z" fill-rule="nonzero" fill="#000000"></path><path d="M727.3379 155.48605L727.3379 153.5798L729.24414 153.5798L729.24414 155.48605L727.3379 155.48605ZM727.3379 163.43918L727.3379 161.53293L729.24414 161.53293L729.24414 163.43918L727.3379 163.43918ZM731.6618 159.06418L733.3493 158.92355Q733.4743 159.93918 733.9118 160.59543Q734.3493 161.25168 735.279 161.65793Q736.2087 162.06418 737.3649 162.06418Q738.3962 162.06418 739.18524 161.75168Q739.9743 161.43918 740.3649 160.90793Q740.75555 160.37668 740.75555 159.75168Q740.75555 159.11105 740.38055 158.63449Q740.00555 158.15793 739.1462 157.8298Q738.5993 157.61105 736.7243 157.16574Q734.8493 156.72043 734.0993 156.31418Q733.13055 155.79855 732.654 155.04855Q732.1774 154.29855 732.1774 153.36105Q732.1774 152.3298 732.76337 151.43137Q733.3493 150.53293 734.4665 150.07199Q735.5837 149.61105 736.9587 149.61105Q738.4743 149.61105 739.63055 150.09543Q740.7868 150.5798 741.404 151.52512Q742.0212 152.47043 742.06805 153.67355L740.3493 153.79855Q740.2087 152.5173 739.404 151.85324Q738.5993 151.18918 737.0368 151.18918Q735.4118 151.18918 734.6618 151.79074Q733.9118 152.3923 733.9118 153.23605Q733.9118 153.97043 734.44305 154.43918Q734.9587 154.90793 737.154 155.40793Q739.3493 155.90793 740.1618 156.28293Q741.3493 156.8298 741.9196 157.66574Q742.4899 158.50168 742.4899 159.59543Q742.4899 160.68918 741.8649 161.65012Q741.2399 162.61105 740.07587 163.1423Q738.9118 163.67355 737.4587 163.67355Q735.6149 163.67355 734.3649 163.13449Q733.1149 162.59543 732.404 161.5173Q731.69305 160.43918 731.6618 159.06418ZM751.24603 160.2673L752.9648 160.48605Q752.55853 161.98605 751.457 162.82199Q750.3554 163.65793 748.63666 163.65793Q746.4804 163.65793 745.2148 162.3298Q743.94916 161.00168 743.94916 158.59543Q743.94916 156.11105 745.2226 154.73605Q746.49603 153.36105 748.5429 153.36105Q750.5273 153.36105 751.7773 154.7048Q753.0273 156.04855 753.0273 158.50168Q753.0273 158.6423 753.01166 158.93918L745.6679 158.93918Q745.76166 160.56418 746.5898 161.42355Q747.4179 162.28293 748.6523 162.28293Q749.55853 162.28293 750.207 161.80637Q750.8554 161.3298 751.24603 160.2673ZM745.76166 157.56418L751.26166 157.56418Q751.1523 156.3298 750.63666 155.7048Q749.8398 154.73605 748.55853 154.73605Q747.4179 154.73605 746.62885 155.50949Q745.8398 156.28293 745.76166 157.56418ZM754.85614 163.43918L754.85614 153.5798L756.35614 153.5798L756.35614 155.0798Q756.93427 154.03293 757.41864 153.69699Q757.903 153.36105 758.49677 153.36105Q759.3405 153.36105 760.2155 153.90793L759.6374 155.4548Q759.028 155.09543 758.403 155.09543Q757.85614 155.09543 757.42645 155.42355Q756.99677 155.75168 756.80927 156.3298Q756.528 157.22043 756.528 158.28293L756.528 163.43918L754.85614 163.43918ZM763.8188 163.43918L760.0688 153.5798L761.8344 153.5798L763.9594 159.48605Q764.30316 160.43918 764.5844 161.47043Q764.80316 160.68918 765.2094 159.59543L767.3969 153.5798L769.11566 153.5798L765.3813 163.43918L763.8188 163.43918ZM777.16254 160.2673L778.8813 160.48605Q778.47504 161.98605 777.3735 162.82199Q776.2719 163.65793 774.55316 163.65793Q772.3969 163.65793 771.1313 162.3298Q769.86566 161.00168 769.86566 158.59543Q769.86566 156.11105 771.1391 154.73605Q772.41254 153.36105 774.4594 153.36105Q776.4438 153.36105 777.6938 154.7048Q778.9438 156.04855 778.9438 158.50168Q778.9438 158.6423 778.92816 158.93918L771.5844 158.93918Q771.67816 160.56418 772.5063 161.42355Q773.3344 162.28293 774.5688 162.28293Q775.47504 162.28293 776.1235 161.80637Q776.7719 161.3298 777.16254 160.2673ZM771.67816 157.56418L777.17816 157.56418Q777.0688 156.3298 776.55316 155.7048Q775.7563 154.73605 774.47504 154.73605Q773.3344 154.73605 772.54535 155.50949Q771.7563 156.28293 771.67816 157.56418ZM780.77264 163.43918L780.77264 153.5798L782.27264 153.5798L782.27264 155.0798Q782.85077 154.03293 783.33514 153.69699Q783.8195 153.36105 784.41327 153.36105Q785.257 153.36105 786.132 153.90793L785.5539 155.4548Q784.9445 155.09543 784.3195 155.09543Q783.77264 155.09543 783.34296 155.42355Q782.91327 155.75168 782.72577 156.3298Q782.4445 157.22043 782.4445 158.28293L782.4445 163.43918L780.77264 163.43918Z" fill-rule="nonzero" fill="#000000"></path><path d="M179.74178 136.03293L179.74178 134.48605L188.74178 130.67355L188.74178 132.3298L181.60115 135.2673L188.74178 138.23605L188.74178 139.8923L179.74178 136.03293ZM190.63673 136.03293L190.63673 134.48605L199.63673 130.67355L199.63673 132.3298L192.49611 135.2673L199.63673 138.23605L199.63673 139.8923L190.63673 136.03293ZM201.73482 141.98605L201.73482 132.12668L203.23482 132.12668L203.23482 133.5173Q203.68794 132.79855 204.46138 132.35324Q205.23482 131.90793 206.2192 131.90793Q207.31294 131.90793 208.01607 132.36105Q208.7192 132.81418 209.00044 133.6423Q210.17232 131.90793 212.04732 131.90793Q213.51607 131.90793 214.30513 132.72043Q215.0942 133.53293 215.0942 135.22043L215.0942 141.98605L213.42232 141.98605L213.42232 135.78293Q213.42232 134.78293 213.26607 134.33762Q213.10982 133.8923 212.68013 133.62668Q212.25044 133.36105 211.67232 133.36105Q210.64107 133.36105 209.95357 134.04855Q209.26607 134.73605 209.26607 136.2673L209.26607 141.98605L207.5942 141.98605L207.5942 135.5798Q207.5942 134.47043 207.18794 133.91574Q206.7817 133.36105 205.8442 133.36105Q205.14107 133.36105 204.5395 133.72824Q203.93794 134.09543 203.67232 134.81418Q203.4067 135.53293 203.4067 136.87668L203.4067 141.98605L201.73482 141.98605ZM223.71312 140.7673Q222.77562 141.56418 221.91624 141.88449Q221.05687 142.2048 220.0725 142.2048Q218.46312 142.2048 217.58812 141.41574Q216.71312 140.62668 216.71312 139.3923Q216.71312 138.65793 217.04124 138.06418Q217.36937 137.47043 217.90062 137.11105Q218.43187 136.75168 219.10374 136.56418Q219.60374 136.42355 220.58812 136.31418Q222.61937 136.06418 223.5725 135.73605Q223.5725 135.3923 223.5725 135.29855Q223.5725 134.28293 223.10374 133.86105Q222.46312 133.29855 221.1975 133.29855Q220.02562 133.29855 219.46312 133.7048Q218.90062 134.11105 218.635 135.17355L216.99437 134.93918Q217.22874 133.8923 217.73656 133.25168Q218.24437 132.61105 219.2053 132.25949Q220.16624 131.90793 221.4475 131.90793Q222.71312 131.90793 223.49437 132.2048Q224.27562 132.50168 224.65062 132.9548Q225.02562 133.40793 225.16624 134.09543Q225.26 134.5173 225.26 135.62668L225.26 137.86105Q225.26 140.18918 225.36156 140.80637Q225.46312 141.42355 225.79124 141.98605L224.04124 141.98605Q223.77562 141.47043 223.71312 140.7673ZM223.5725 137.04855Q222.66624 137.40793 220.83812 137.67355Q219.80687 137.81418 219.385 138.00168Q218.96312 138.18918 218.72874 138.54855Q218.49437 138.90793 218.49437 139.34543Q218.49437 140.0173 219.00218 140.46262Q219.51 140.90793 220.47874 140.90793Q221.4475 140.90793 222.1975 140.47824Q222.9475 140.04855 223.30687 139.3298Q223.5725 138.75168 223.5725 137.65793L223.5725 137.04855ZM234.08884 138.37668L235.72946 138.59543Q235.46384 140.28293 234.35446 141.24387Q233.24509 142.2048 231.62009 142.2048Q229.60446 142.2048 228.3779 140.88449Q227.15134 139.56418 227.15134 137.09543Q227.15134 135.50168 227.67477 134.30637Q228.19821 133.11105 229.28415 132.50949Q230.37009 131.90793 231.63571 131.90793Q233.24509 131.90793 234.26071 132.72043Q235.27634 133.53293 235.57321 135.03293L233.94821 135.28293Q233.71384 134.28293 233.12009 133.78293Q232.52634 133.28293 231.69821 133.28293Q230.43259 133.28293 229.64352 134.18918Q228.85446 135.09543 228.85446 137.04855Q228.85446 139.03293 229.62009 139.93137Q230.38571 140.8298 231.60446 140.8298Q232.58884 140.8298 233.24509 140.22824Q233.90134 139.62668 234.08884 138.37668ZM236.97946 141.98605L236.97946 128.3923L238.65134 128.3923L238.65134 133.2673Q239.82321 131.90793 241.60446 131.90793Q242.69821 131.90793 243.5029 132.33762Q244.30759 132.7673 244.65915 133.53293Q245.01071 134.29855 245.01071 135.73605L245.01071 141.98605L243.33884 141.98605L243.33884 135.73605Q243.33884 134.48605 242.79196 133.91574Q242.24509 133.34543 241.26071 133.34543Q240.51071 133.34543 239.86227 133.72824Q239.21384 134.11105 238.93259 134.77512Q238.65134 135.43918 238.65134 136.59543L238.65134 141.98605L236.97946 141.98605ZM247.3708 130.29855L247.3708 128.3923L249.04268 128.3923L249.04268 130.29855L247.3708 130.29855ZM247.3708 141.98605L247.3708 132.12668L249.04268 132.12668L249.04268 141.98605L247.3708 141.98605ZM251.5 141.98605L251.5 132.12668L253.0 132.12668L253.0 133.53293Q254.09375 131.90793 256.14062 131.90793Q257.03125 131.90793 257.78125 132.22824Q258.53125 132.54855 258.89844 133.07199Q259.26562 133.59543 259.42188 134.29855Q259.51562 134.7673 259.51562 135.92355L259.51562 141.98605L257.84375 141.98605L257.84375 135.98605Q257.84375 134.97043 257.64844 134.46262Q257.45312 133.9548 256.95312 133.65793Q256.45312 133.36105 255.78125 133.36105Q254.71875 133.36105 253.94531 134.03293Q253.17188 134.7048 253.17188 136.61105L253.17188 141.98605L251.5 141.98605ZM268.62573 138.81418L270.34448 139.03293Q269.93823 140.53293 268.83667 141.36887Q267.7351 142.2048 266.01636 142.2048Q263.8601 142.2048 262.59448 140.87668Q261.32886 139.54855 261.32886 137.1423Q261.32886 134.65793 262.6023 133.28293Q263.87573 131.90793 265.9226 131.90793Q267.90698 131.90793 269.15698 133.25168Q270.40698 134.59543 270.40698 137.04855Q270.40698 137.18918 270.39136 137.48605L263.0476 137.48605Q263.14136 139.11105 263.96948 139.97043Q264.7976 140.8298 266.03198 140.8298Q266.93823 140.8298 267.58667 140.35324Q268.2351 139.87668 268.62573 138.81418ZM263.14136 136.11105L268.64136 136.11105Q268.53198 134.87668 268.01636 134.25168Q267.21948 133.28293 265.93823 133.28293Q264.7976 133.28293 264.00854 134.05637Q263.21948 134.8298 263.14136 136.11105ZM281.0483 136.03293L272.0483 139.8923L272.0483 138.23605L279.1733 135.2673L272.0483 132.3298L272.0483 130.67355L281.0483 134.48605L281.0483 136.03293ZM291.94327 136.03293L282.94327 139.8923L282.94327 138.23605L290.06827 135.2673L282.94327 132.3298L282.94327 130.67355L291.94327 134.48605L291.94327 136.03293Z" fill-rule="nonzero" fill="#000000"></path><path d="M211.02156 155.48605L211.02156 153.5798L212.92781 153.5798L212.92781 155.48605L211.02156 155.48605ZM211.02156 163.43918L211.02156 161.53293L212.92781 161.53293L212.92781 163.43918L211.02156 163.43918ZM225.65799 158.67355L227.45486 159.12668Q226.89236 161.34543 225.42361 162.50949Q223.95486 163.67355 221.82986 163.67355Q219.62674 163.67355 218.25174 162.77512Q216.87674 161.87668 216.15799 160.18137Q215.43924 158.48605 215.43924 156.53293Q215.43924 154.40793 216.24393 152.8298Q217.04861 151.25168 218.54861 150.43137Q220.04861 149.61105 221.84549 149.61105Q223.89236 149.61105 225.28299 150.65012Q226.67361 151.68918 227.22049 153.56418L225.45486 153.98605Q224.98611 152.50168 224.07986 151.82199Q223.17361 151.1423 221.81424 151.1423Q220.25174 151.1423 219.19705 151.8923Q218.14236 152.6423 217.71268 153.91574Q217.28299 155.18918 217.28299 156.53293Q217.28299 158.2673 217.7908 159.55637Q218.29861 160.84543 219.36893 161.48605Q220.43924 162.12668 221.67361 162.12668Q223.18924 162.12668 224.23611 161.25949Q225.28299 160.3923 225.65799 158.67355ZM229.17781 163.43918L229.17781 149.84543L230.84969 149.84543L230.84969 163.43918L229.17781 163.43918ZM233.3695 151.75168L233.3695 149.84543L235.04138 149.84543L235.04138 151.75168L233.3695 151.75168ZM233.3695 163.43918L233.3695 153.5798L235.04138 153.5798L235.04138 163.43918L233.3695 163.43918ZM244.2487 160.2673L245.96745 160.48605Q245.5612 161.98605 244.45964 162.82199Q243.35808 163.65793 241.63933 163.65793Q239.48308 163.65793 238.21745 162.3298Q236.95183 161.00168 236.95183 158.59543Q236.95183 156.11105 238.22527 154.73605Q239.4987 153.36105 241.54558 153.36105Q243.52995 153.36105 244.77995 154.7048Q246.02995 156.04855 246.02995 158.50168Q246.02995 158.6423 246.01433 158.93918L238.67058 158.93918Q238.76433 160.56418 239.59245 161.42355Q240.42058 162.28293 241.65495 162.28293Q242.5612 162.28293 243.20964 161.80637Q243.85808 161.3298 244.2487 160.2673ZM238.76433 157.56418L244.26433 157.56418Q244.15495 156.3298 243.63933 155.7048Q242.84245 154.73605 241.5612 154.73605Q240.42058 154.73605 239.63152 155.50949Q238.84245 156.28293 238.76433 157.56418ZM247.87442 163.43918L247.87442 153.5798L249.37442 153.5798L249.37442 154.98605Q250.46817 153.36105 252.51505 153.36105Q253.40567 153.36105 254.15567 153.68137Q254.90567 154.00168 255.27286 154.52512Q255.64005 155.04855 255.7963 155.75168Q255.89005 156.22043 255.89005 157.37668L255.89005 163.43918L254.21817 163.43918L254.21817 157.43918Q254.21817 156.42355 254.02286 155.91574Q253.82755 155.40793 253.32755 155.11105Q252.82755 154.81418 252.15567 154.81418Q251.09317 154.81418 250.31973 155.48605Q249.5463 156.15793 249.5463 158.06418L249.5463 163.43918L247.87442 163.43918ZM261.9064 161.93918L262.14078 163.42355Q261.43765 163.56418 260.87515 163.56418Q259.9689 163.56418 259.4689 163.27512Q258.9689 162.98605 258.76578 162.52512Q258.56265 162.06418 258.56265 160.54855L258.56265 154.8923L257.32828 154.8923L257.32828 153.5798L258.56265 153.5798L258.56265 151.1423L260.2189 150.1423L260.2189 153.5798L261.9064 153.5798L261.9064 154.8923L260.2189 154.8923L260.2189 160.6423Q260.2189 161.36105 260.30484 161.56418Q260.39078 161.7673 260.5939 161.8923Q260.79703 162.0173 261.17203 162.0173Q261.43765 162.0173 261.9064 161.93918Z" fill-rule="nonzero" fill="#000000"></path><path d="M332.79825 324.0793L322.6297 313.91077L138.68802 313.91077L138.68802 441.78946L148.85658 451.958L332.79825 451.958ZM332.79825 324.0793L148.85658 324.0793L138.68802 313.91077M148.85658 324.0793L148.85658 451.958" fill-rule="nonzero" stroke="#000000" stroke-width="2.0" stroke-linejoin="round" stroke-linecap="butt"></path><path d="M187.42227 377.50305L187.42227 375.95618L196.42227 372.14368L196.42227 373.79993L189.28165 376.73743L196.42227 379.70618L196.42227 381.36243L187.42227 377.50305ZM198.31723 377.50305L198.31723 375.95618L207.31723 372.14368L207.31723 373.79993L200.1766 376.73743L207.31723 379.70618L207.31723 381.36243L198.31723 377.50305ZM209.41531 387.23743L209.41531 373.5968L210.94656 373.5968L210.94656 374.87805Q211.47781 374.12805 212.1575 373.75305Q212.83719 373.37805 213.79031 373.37805Q215.05594 373.37805 216.02469 374.0265Q216.99344 374.67493 217.48563 375.86243Q217.97781 377.04993 217.97781 378.45618Q217.97781 379.9718 217.43094 381.18274Q216.88406 382.39368 215.85281 383.0343Q214.82156 383.67493 213.68094 383.67493Q212.83719 383.67493 212.17313 383.32336Q211.50906 382.9718 211.08719 382.44055L211.08719 387.23743L209.41531 387.23743ZM210.93094 378.58118Q210.93094 380.48743 211.70438 381.39368Q212.47781 382.29993 213.57156 382.29993Q214.68094 382.29993 215.47 381.36243Q216.25906 380.42493 216.25906 378.44055Q216.25906 376.56555 215.48563 375.62805Q214.71219 374.69055 213.63406 374.69055Q212.57156 374.69055 211.75125 375.69055Q210.93094 376.69055 210.93094 378.58118ZM219.7754 383.45618L219.7754 373.5968L221.2754 373.5968L221.2754 375.0968Q221.85353 374.04993 222.3379 373.714Q222.82228 373.37805 223.41603 373.37805Q224.25978 373.37805 225.13478 373.92493L224.55666 375.4718Q223.94728 375.11243 223.32228 375.11243Q222.7754 375.11243 222.34572 375.44055Q221.91603 375.76868 221.72853 376.3468Q221.44728 377.23743 221.44728 378.29993L221.44728 383.45618L219.7754 383.45618ZM225.37871 378.5343Q225.37871 375.79993 226.90996 374.4718Q228.17558 373.37805 230.00371 373.37805Q232.03496 373.37805 233.32402 374.714Q234.61308 376.04993 234.61308 378.39368Q234.61308 380.29993 234.04277 381.38586Q233.47246 382.4718 232.38652 383.07336Q231.30058 383.67493 230.00371 383.67493Q227.94121 383.67493 226.65996 382.3468Q225.37871 381.01868 225.37871 378.5343ZM227.09746 378.5343Q227.09746 380.42493 227.92558 381.36243Q228.75371 382.29993 230.00371 382.29993Q231.25371 382.29993 232.07402 381.3546Q232.89433 380.4093 232.89433 378.4718Q232.89433 376.64368 232.06621 375.70618Q231.23808 374.76868 230.00371 374.76868Q228.75371 374.76868 227.92558 375.70618Q227.09746 376.64368 227.09746 378.5343ZM242.81693 379.8468L244.45755 380.06555Q244.19193 381.75305 243.08255 382.714Q241.97318 383.67493 240.34818 383.67493Q238.33255 383.67493 237.10599 382.3546Q235.87943 381.0343 235.87943 378.56555Q235.87943 376.9718 236.40286 375.7765Q236.9263 374.58118 238.01224 373.9796Q239.09818 373.37805 240.3638 373.37805Q241.97318 373.37805 242.9888 374.19055Q244.00443 375.00305 244.3013 376.50305L242.6763 376.75305Q242.44193 375.75305 241.84818 375.25305Q241.25443 374.75305 240.4263 374.75305Q239.16068 374.75305 238.37161 375.6593Q237.58255 376.56555 237.58255 378.51868Q237.58255 380.50305 238.34818 381.4015Q239.1138 382.29993 240.33255 382.29993Q241.31693 382.29993 241.97318 381.69836Q242.62943 381.0968 242.81693 379.8468ZM252.45755 380.2843L254.1763 380.50305Q253.77005 382.00305 252.66849 382.839Q251.56693 383.67493 249.84818 383.67493Q247.69193 383.67493 246.4263 382.3468Q245.16068 381.01868 245.16068 378.61243Q245.16068 376.12805 246.43411 374.75305Q247.70755 373.37805 249.75443 373.37805Q251.7388 373.37805 252.9888 374.7218Q254.2388 376.06555 254.2388 378.51868Q254.2388 378.6593 254.22318 378.95618L246.87943 378.95618Q246.97318 380.58118 247.8013 381.44055Q248.62943 382.29993 249.8638 382.29993Q250.77005 382.29993 251.41849 381.82336Q252.06693 381.3468 252.45755 380.2843ZM246.97318 377.58118L252.47318 377.58118Q252.3638 376.3468 251.84818 375.7218Q251.0513 374.75305 249.77005 374.75305Q248.62943 374.75305 247.84036 375.5265Q247.0513 376.29993 246.97318 377.58118ZM255.41139 380.51868L257.06763 380.25305Q257.20825 381.25305 257.84106 381.7765Q258.47388 382.29993 259.6145 382.29993Q260.77075 382.29993 261.32544 381.83118Q261.88013 381.36243 261.88013 380.73743Q261.88013 380.17493 261.39575 379.8468Q261.052 379.62805 259.69263 379.2843Q257.84888 378.81555 257.13794 378.4796Q256.427 378.14368 256.0598 377.5421Q255.69264 376.94055 255.69264 376.2218Q255.69264 375.56555 255.99733 375.00305Q256.302 374.44055 256.81763 374.06555Q257.20825 373.7843 257.88013 373.58118Q258.552 373.37805 259.31763 373.37805Q260.4895 373.37805 261.3645 373.714Q262.2395 374.04993 262.65356 374.62024Q263.06763 375.19055 263.22388 376.14368L261.59888 376.36243Q261.4895 375.61243 260.95044 375.18274Q260.41138 374.75305 259.44263 374.75305Q258.28638 374.75305 257.802 375.13586Q257.31763 375.51868 257.31763 376.01868Q257.31763 376.3468 257.52075 376.61243Q257.72388 376.87805 258.16138 377.04993Q258.41138 377.14368 259.63013 377.48743Q261.39575 377.95618 262.09888 378.25305Q262.802 378.54993 263.20044 379.12805Q263.59888 379.70618 263.59888 380.56555Q263.59888 381.39368 263.1145 382.13586Q262.63013 382.87805 261.70825 383.2765Q260.78638 383.67493 259.63013 383.67493Q257.70825 383.67493 256.70044 382.87805Q255.69264 382.08118 255.41139 380.51868ZM264.7395 380.51868L266.39575 380.25305Q266.53638 381.25305 267.1692 381.7765Q267.802 382.29993 268.94263 382.29993Q270.09888 382.29993 270.65356 381.83118Q271.20825 381.36243 271.20825 380.73743Q271.20825 380.17493 270.72388 379.8468Q270.38013 379.62805 269.02075 379.2843Q267.177 378.81555 266.46606 378.4796Q265.75513 378.14368 265.38794 377.5421Q265.02075 376.94055 265.02075 376.2218Q265.02075 375.56555 265.32544 375.00305Q265.63013 374.44055 266.14575 374.06555Q266.53638 373.7843 267.20825 373.58118Q267.88013 373.37805 268.64575 373.37805Q269.81763 373.37805 270.69263 373.714Q271.56763 374.04993 271.9817 374.62024Q272.39575 375.19055 272.552 376.14368L270.927 376.36243Q270.81763 375.61243 270.27856 375.18274Q269.7395 374.75305 268.77075 374.75305Q267.6145 374.75305 267.13013 375.13586Q266.64575 375.51868 266.64575 376.01868Q266.64575 376.3468 266.84888 376.61243Q267.052 376.87805 267.4895 377.04993Q267.7395 377.14368 268.95825 377.48743Q270.72388 377.95618 271.427 378.25305Q272.13013 378.54993 272.52856 379.12805Q272.927 379.70618 272.927 380.56555Q272.927 381.39368 272.44263 382.13586Q271.95825 382.87805 271.03638 383.2765Q270.1145 383.67493 268.95825 383.67493Q267.03638 383.67493 266.02856 382.87805Q265.02075 382.08118 264.7395 380.51868ZM283.53638 377.50305L274.53638 381.36243L274.53638 379.70618L281.66138 376.73743L274.53638 373.79993L274.53638 372.14368L283.53638 375.95618L283.53638 377.50305ZM294.43134 377.50305L285.43134 381.36243L285.43134 379.70618L292.55634 376.73743L285.43134 373.79993L285.43134 372.14368L294.43134 375.95618L294.43134 377.50305Z" fill-rule="nonzero" fill="#000000"></path><path d="M196.41112 396.95618L196.41112 395.04993L198.31737 395.04993L198.31737 396.95618L196.41112 396.95618ZM196.41112 404.9093L196.41112 403.00305L198.31737 403.00305L198.31737 404.9093L196.41112 404.9093ZM201.37567 404.9093L201.37567 391.31555L207.40692 391.31555Q209.21942 391.31555 210.16473 391.67493Q211.11005 392.0343 211.67255 392.964Q212.23505 393.89368 212.23505 395.01868Q212.23505 396.4718 211.30536 397.464Q210.37567 398.45618 208.40692 398.7218Q209.12567 399.06555 209.50067 399.39368Q210.28192 400.12805 210.98505 401.20618L213.36005 404.9093L211.09442 404.9093L209.29755 402.08118Q208.50067 400.86243 207.99286 400.20618Q207.48505 399.54993 207.0788 399.2921Q206.67255 399.0343 206.2663 398.94055Q205.9538 398.86243 205.25067 398.86243L203.17255 398.86243L203.17255 404.9093L201.37567 404.9093ZM203.17255 397.31555L207.03192 397.31555Q208.2663 397.31555 208.96161 397.05774Q209.65692 396.79993 210.02411 396.23743Q210.3913 395.67493 210.3913 395.01868Q210.3913 394.04993 209.68817 393.43274Q208.98505 392.81555 207.46942 392.81555L203.17255 392.81555L203.17255 397.31555ZM214.81737 404.9093L214.81737 391.31555L219.94237 391.31555Q221.30174 391.31555 222.0205 391.44055Q223.0205 391.61243 223.69237 392.08118Q224.36424 392.54993 224.7783 393.39368Q225.19237 394.23743 225.19237 395.23743Q225.19237 396.9718 224.0908 398.17493Q222.98924 399.37805 220.09862 399.37805L216.61424 399.37805L216.61424 404.9093L214.81737 404.9093ZM216.61424 397.76868L220.12987 397.76868Q221.87987 397.76868 222.60643 397.12024Q223.333 396.4718 223.333 395.29993Q223.333 394.44055 222.9033 393.83118Q222.47362 393.2218 221.7705 393.0343Q221.31737 392.9093 220.09862 392.9093L216.61424 392.9093L216.61424 397.76868ZM236.96407 400.14368L238.76094 400.5968Q238.19844 402.81555 236.72969 403.9796Q235.26094 405.14368 233.13594 405.14368Q230.93282 405.14368 229.55782 404.24524Q228.18282 403.3468 227.46407 401.6515Q226.74532 399.95618 226.74532 398.00305Q226.74532 395.87805 227.55 394.29993Q228.35469 392.7218 229.85469 391.9015Q231.35469 391.08118 233.15157 391.08118Q235.19844 391.08118 236.58907 392.12024Q237.97969 393.1593 238.52657 395.0343L236.76094 395.45618Q236.29219 393.9718 235.38594 393.2921Q234.47969 392.61243 233.12032 392.61243Q231.55782 392.61243 230.50313 393.36243Q229.44844 394.11243 229.01875 395.38586Q228.58907 396.6593 228.58907 398.00305Q228.58907 399.73743 229.09688 401.0265Q229.60469 402.31555 230.675 402.95618Q231.74532 403.5968 232.97969 403.5968Q234.49532 403.5968 235.54219 402.7296Q236.58907 401.86243 236.96407 400.14368ZM250.43701 400.14368L252.23389 400.5968Q251.67139 402.81555 250.20264 403.9796Q248.73389 405.14368 246.60889 405.14368Q244.40576 405.14368 243.03076 404.24524Q241.65576 403.3468 240.93701 401.6515Q240.21826 399.95618 240.21826 398.00305Q240.21826 395.87805 241.02295 394.29993Q241.82764 392.7218 243.32764 391.9015Q244.82764 391.08118 246.62451 391.08118Q248.67139 391.08118 250.06201 392.12024Q251.45264 393.1593 251.99951 395.0343L250.23389 395.45618Q249.76514 393.9718 248.85889 393.2921Q247.95264 392.61243 246.59326 392.61243Q245.03076 392.61243 243.97607 393.36243Q242.92139 394.11243 242.4917 395.38586Q242.06201 396.6593 242.06201 398.00305Q242.06201 399.73743 242.56982 401.0265Q243.07764 402.31555 244.14795 402.95618Q245.21826 403.5968 246.45264 403.5968Q247.96826 403.5968 249.01514 402.7296Q250.06201 401.86243 250.43701 400.14368ZM253.95683 404.9093L253.95683 391.31555L255.62871 391.31555L255.62871 404.9093L253.95683 404.9093ZM258.14853 393.2218L258.14853 391.31555L259.8204 391.31555L259.8204 393.2218L258.14853 393.2218ZM258.14853 404.9093L258.14853 395.04993L259.8204 395.04993L259.8204 404.9093L258.14853 404.9093ZM269.0277 401.73743L270.74646 401.95618Q270.3402 403.45618 269.23865 404.2921Q268.1371 405.12805 266.41833 405.12805Q264.2621 405.12805 262.99646 403.79993Q261.73083 402.4718 261.73083 400.06555Q261.73083 397.58118 263.00427 396.20618Q264.2777 394.83118 266.3246 394.83118Q268.30896 394.83118 269.55896 396.17493Q270.80896 397.51868 270.80896 399.9718Q270.80896 400.11243 270.79333 400.4093L263.4496 400.4093Q263.54333 402.0343 264.37146 402.89368Q265.1996 403.75305 266.43396 403.75305Q267.3402 403.75305 267.98865 403.2765Q268.6371 402.79993 269.0277 401.73743ZM263.54333 399.0343L269.04333 399.0343Q268.93396 397.79993 268.41833 397.17493Q267.62146 396.20618 266.3402 396.20618Q265.1996 396.20618 264.41052 396.9796Q263.62146 397.75305 263.54333 399.0343ZM272.65344 404.9093L272.65344 395.04993L274.15344 395.04993L274.15344 396.45618Q275.2472 394.83118 277.29407 394.83118Q278.1847 394.83118 278.9347 395.1515Q279.6847 395.4718 280.05188 395.99524Q280.41907 396.51868 280.57532 397.2218Q280.66907 397.69055 280.66907 398.8468L280.66907 404.9093L278.9972 404.9093L278.9972 398.9093Q278.9972 397.89368 278.80188 397.38586Q278.60657 396.87805 278.10657 396.58118Q277.60657 396.2843 276.9347 396.2843Q275.8722 396.2843 275.09875 396.95618Q274.32532 397.62805 274.32532 399.5343L274.32532 404.9093L272.65344 404.9093ZM286.6854 403.4093L286.91977 404.89368Q286.21664 405.0343 285.65414 405.0343Q284.7479 405.0343 284.2479 404.74524Q283.7479 404.45618 283.54477 403.99524Q283.34164 403.5343 283.34164 402.01868L283.34164 396.36243L282.10727 396.36243L282.10727 395.04993L283.34164 395.04993L283.34164 392.61243L284.9979 391.61243L284.9979 395.04993L286.6854 395.04993L286.6854 396.36243L284.9979 396.36243L284.9979 402.11243Q284.9979 402.83118 285.08383 403.0343Q285.16977 403.23743 285.3729 403.36243Q285.57602 403.48743 285.95102 403.48743Q286.21664 403.48743 286.6854 403.4093Z" fill-rule="nonzero" fill="#000000"></path><path d="M434.63046 229.28537L434.63046 227.7385L443.63046 223.926L443.63046 225.58224L436.48984 228.51974L443.63046 231.4885L443.63046 233.14474L434.63046 229.28537ZM445.52542 229.28537L445.52542 227.7385L454.52542 223.926L454.52542 225.58224L447.3848 228.51974L454.52542 231.4885L454.52542 233.14474L445.52542 229.28537ZM456.6235 239.01974L456.6235 225.37912L458.15475 225.37912L458.15475 226.66037Q458.686 225.91037 459.3657 225.53537Q460.04538 225.16037 460.9985 225.16037Q462.26413 225.16037 463.23288 225.8088Q464.20163 226.45724 464.69382 227.64474Q465.186 228.83224 465.186 230.2385Q465.186 231.75412 464.63913 232.96506Q464.09225 234.176 463.061 234.81662Q462.02975 235.45724 460.88913 235.45724Q460.04538 235.45724 459.38132 235.10568Q458.71725 234.75412 458.29538 234.22287L458.29538 239.01974L456.6235 239.01974ZM458.13913 230.3635Q458.13913 232.26974 458.91257 233.176Q459.686 234.08224 460.77975 234.08224Q461.88913 234.08224 462.6782 233.14474Q463.46725 232.20724 463.46725 230.22287Q463.46725 228.34787 462.69382 227.41037Q461.92038 226.47287 460.84225 226.47287Q459.77975 226.47287 458.95944 227.47287Q458.13913 228.47287 458.13913 230.3635ZM469.7336 235.2385L465.9836 225.37912L467.74924 225.37912L469.87424 231.28537Q470.218 232.2385 470.49924 233.26974Q470.718 232.4885 471.12424 231.39474L473.31174 225.37912L475.0305 225.37912L471.2961 235.2385L469.7336 235.2385ZM475.0461 235.2385L480.2805 221.64474L482.218 221.64474L487.7805 235.2385L485.7336 235.2385L484.13986 231.1135L478.45236 231.1135L476.968 235.2385L475.0461 235.2385ZM478.968 229.66037L483.57736 229.66037L482.1711 225.87912Q481.51486 224.176 481.20236 223.06662Q480.93674 224.37912 480.468 225.66037L478.968 229.66037ZM495.20844 231.62912L496.84906 231.84787Q496.58344 233.53537 495.47406 234.4963Q494.3647 235.45724 492.7397 235.45724Q490.72406 235.45724 489.4975 234.13693Q488.27094 232.81662 488.27094 230.34787Q488.27094 228.75412 488.79437 227.5588Q489.3178 226.3635 490.40375 225.76193Q491.4897 225.16037 492.7553 225.16037Q494.3647 225.16037 495.3803 225.97287Q496.39594 226.78537 496.6928 228.28537L495.0678 228.53537Q494.83344 227.53537 494.2397 227.03537Q493.64594 226.53537 492.8178 226.53537Q491.5522 226.53537 490.76312 227.44162Q489.97406 228.34787 489.97406 230.301Q489.97406 232.28537 490.7397 233.1838Q491.5053 234.08224 492.72406 234.08224Q493.70844 234.08224 494.3647 233.48068Q495.02094 232.87912 495.20844 231.62912ZM504.53656 231.62912L506.1772 231.84787Q505.91156 233.53537 504.8022 234.4963Q503.6928 235.45724 502.0678 235.45724Q500.0522 235.45724 498.82562 234.13693Q497.59906 232.81662 497.59906 230.34787Q497.59906 228.75412 498.1225 227.5588Q498.64594 226.3635 499.73187 225.76193Q500.8178 225.16037 502.08344 225.16037Q503.6928 225.16037 504.70844 225.97287Q505.72406 226.78537 506.02094 228.28537L504.39594 228.53537Q504.16156 227.53537 503.5678 227.03537Q502.97406 226.53537 502.14594 226.53537Q500.8803 226.53537 500.09125 227.44162Q499.3022 228.34787 499.3022 230.301Q499.3022 232.28537 500.0678 233.1838Q500.83344 234.08224 502.0522 234.08224Q503.03656 234.08224 503.6928 233.48068Q504.34906 232.87912 504.53656 231.62912ZM514.1772 232.06662L515.89594 232.28537Q515.4897 233.78537 514.3881 234.6213Q513.28656 235.45724 511.5678 235.45724Q509.41156 235.45724 508.14594 234.12912Q506.8803 232.801 506.8803 230.39474Q506.8803 227.91037 508.15375 226.53537Q509.4272 225.16037 511.47406 225.16037Q513.45844 225.16037 514.70844 226.50412Q515.95844 227.84787 515.95844 230.301Q515.95844 230.44162 515.9428 230.7385L508.59906 230.7385Q508.6928 232.3635 509.52094 233.22287Q510.34906 234.08224 511.58344 234.08224Q512.4897 234.08224 513.1381 233.60568Q513.78656 233.12912 514.1772 232.06662ZM508.6928 229.3635L514.1928 229.3635Q514.08344 228.12912 513.5678 227.50412Q512.77094 226.53537 511.4897 226.53537Q510.34906 226.53537 509.56 227.3088Q508.77094 228.08224 508.6928 229.3635ZM517.13104 232.301L518.7873 232.03537Q518.9279 233.03537 519.5607 233.5588Q520.19354 234.08224 521.33417 234.08224Q522.4904 234.08224 523.0451 233.6135Q523.5998 233.14474 523.5998 232.51974Q523.5998 231.95724 523.1154 231.62912Q522.77167 231.41037 521.4123 231.06662Q519.56854 230.59787 518.8576 230.26193Q518.14667 229.926 517.7795 229.32443Q517.4123 228.72287 517.4123 228.00412Q517.4123 227.34787 517.717 226.78537Q518.02167 226.22287 518.5373 225.84787Q518.9279 225.56662 519.5998 225.3635Q520.27167 225.16037 521.0373 225.16037Q522.20917 225.16037 523.08417 225.4963Q523.95917 225.83224 524.3732 226.40256Q524.7873 226.97287 524.94354 227.926L523.31854 228.14474Q523.20917 227.39474 522.6701 226.96506Q522.13104 226.53537 521.1623 226.53537Q520.00604 226.53537 519.52167 226.91818Q519.0373 227.301 519.0373 227.801Q519.0373 228.12912 519.2404 228.39474Q519.44354 228.66037 519.88104 228.83224Q520.13104 228.926 521.3498 229.26974Q523.1154 229.7385 523.81854 230.03537Q524.52167 230.33224 524.9201 230.91037Q525.31854 231.4885 525.31854 232.34787Q525.31854 233.176 524.83417 233.91818Q524.3498 234.66037 523.4279 235.0588Q522.50604 235.45724 521.3498 235.45724Q519.4279 235.45724 518.4201 234.66037Q517.4123 233.8635 517.13104 232.301ZM526.45917 232.301L528.1154 232.03537Q528.25604 233.03537 528.88885 233.5588Q529.52167 234.08224 530.6623 234.08224Q531.81854 234.08224 532.3732 233.6135Q532.9279 233.14474 532.9279 232.51974Q532.9279 231.95724 532.44354 231.62912Q532.0998 231.41037 530.7404 231.06662Q528.89667 230.59787 528.1857 230.26193Q527.4748 229.926 527.1076 229.32443Q526.7404 228.72287 526.7404 228.00412Q526.7404 227.34787 527.0451 226.78537Q527.3498 226.22287 527.8654 225.84787Q528.25604 225.56662 528.9279 225.3635Q529.5998 225.16037 530.3654 225.16037Q531.5373 225.16037 532.4123 225.4963Q533.2873 225.83224 533.70135 226.40256Q534.1154 226.97287 534.27167 227.926L532.64667 228.14474Q532.5373 227.39474 531.9982 226.96506Q531.45917 226.53537 530.4904 226.53537Q529.33417 226.53537 528.8498 226.91818Q528.3654 227.301 528.3654 227.801Q528.3654 228.12912 528.56854 228.39474Q528.77167 228.66037 529.20917 228.83224Q529.45917 228.926 530.6779 229.26974Q532.44354 229.7385 533.14667 230.03537Q533.8498 230.33224 534.2482 230.91037Q534.64667 231.4885 534.64667 232.34787Q534.64667 233.176 534.1623 233.91818Q533.6779 234.66037 532.75604 235.0588Q531.83417 235.45724 530.6779 235.45724Q528.75604 235.45724 527.7482 234.66037Q526.7404 233.8635 526.45917 232.301ZM545.25604 229.28537L536.25604 233.14474L536.25604 231.4885L543.38104 228.51974L536.25604 225.58224L536.25604 223.926L545.25604 227.7385L545.25604 229.28537ZM556.151 229.28537L547.151 233.14474L547.151 231.4885L554.276 228.51974L547.151 225.58224L547.151 223.926L556.151 227.7385L556.151 229.28537Z" fill-rule="nonzero" fill="#000000"></path><path d="M626.66095 277.07443L367.85333 277.07443" fill-rule="nonzero" stroke="#000000" stroke-width="2.0" stroke-linejoin="round" stroke-linecap="butt"></path></svg>

