<?xml version="1.0" standalone="yes"?>

<svg version="1.1" viewBox="0.0 0.0 953.0 536.0" fill="none" stroke="none" stroke-linecap="square" stroke-miterlimit="10" clip-path="url(#p.0)" xmlns="http://www.w3.org/2000/svg" xmlns:xlink="http://www.w3.org/1999/xlink"><clipPath id="p.0"><path d="M0 0L953.0 0L953.0 536.0L0 536.0L0 0Z" clip-rule="nonzero"></path></clipPath><path d="M570.05804 65.76438L547.4682 43.17454L263.3809 43.17454L263.3809 446.63196L285.97073 469.22177L570.05804 469.22177ZM570.05804 65.76438L285.97073 65.76438L263.3809 43.17454M285.97073 65.76438L285.97073 469.22177" fill-rule="nonzero" stroke="#000000" stroke-width="2.0" stroke-linejoin="round" stroke-linecap="butt"></path><path d="M360.7181 93.27418L360.7181 91.7273L369.7181 87.9148L369.7181 89.57105L362.57748 92.50855L369.7181 95.4773L369.7181 97.13355L360.7181 93.27418ZM371.61307 93.27418L371.61307 91.7273L380.61307 87.9148L380.61307 89.57105L373.47244 92.50855L380.61307 95.4773L380.61307 97.13355L371.61307 93.27418ZM382.71115 99.2273L382.71115 89.36793L384.21115 89.36793L384.21115 90.75855Q384.66428 90.0398 385.4377 89.59449Q386.21115 89.14918 387.19553 89.14918Q388.28928 89.14918 388.9924 89.6023Q389.69553 90.05543 389.97678 90.88355Q391.14865 89.14918 393.02365 89.14918Q394.4924 89.14918 395.28146 89.96168Q396.07053 90.77418 396.07053 92.46168L396.07053 99.2273L394.39865 99.2273L394.39865 93.02418Q394.39865 92.02418 394.2424 91.578865Q394.08615 91.13355 393.65646 90.86793Q393.22678 90.6023 392.64865 90.6023Q391.6174 90.6023 390.9299 91.2898Q390.2424 91.9773 390.2424 93.50855L390.2424 99.2273L388.57053 99.2273L388.57053 92.82105Q388.57053 91.71168 388.16428 91.15699Q387.75803 90.6023 386.82053 90.6023Q386.1174 90.6023 385.51584 90.96949Q384.91428 91.33668 384.64865 92.05543Q384.38303 92.77418 384.38303 94.11793L384.38303 99.2273L382.71115 99.2273ZM404.68945 98.00855Q403.75195 98.80543 402.89258 99.12574Q402.0332 99.44605 401.04883 99.44605Q399.43945 99.44605 398.56445 98.65699Q397.68945 97.86793 397.68945 96.63355Q397.68945 95.89918 398.01758 95.30543Q398.3457 94.71168 398.87695 94.3523Q399.4082 93.99293 400.08008 93.80543Q400.58008 93.6648 401.56445 93.55543Q403.5957 93.30543 404.54883 92.9773Q404.54883 92.63355 404.54883 92.5398Q404.54883 91.52418 404.08008 91.1023Q403.43945 90.5398 402.17383 90.5398Q401.00195 90.5398 400.43945 90.94605Q399.87695 91.3523 399.61133 92.4148L397.9707 92.18043Q398.20508 91.13355 398.7129 90.49293Q399.2207 89.8523 400.18164 89.50074Q401.14258 89.14918 402.42383 89.14918Q403.68945 89.14918 404.4707 89.44605Q405.25195 89.74293 405.62695 90.19605Q406.00195 90.64918 406.14258 91.33668Q406.23633 91.75855 406.23633 92.86793L406.23633 95.1023Q406.23633 97.43043 406.3379 98.047615Q406.43945 98.6648 406.76758 99.2273L405.01758 99.2273Q404.75195 98.71168 404.68945 98.00855ZM404.54883 94.2898Q403.64258 94.64918 401.81445 94.9148Q400.7832 95.05543 400.36133 95.24293Q399.93945 95.43043 399.70508 95.7898Q399.4707 96.14918 399.4707 96.58668Q399.4707 97.25855 399.97852 97.703865Q400.48633 98.14918 401.45508 98.14918Q402.42383 98.14918 403.17383 97.71949Q403.92383 97.2898 404.2832 96.57105Q404.54883 95.99293 404.54883 94.89918L404.54883 94.2898ZM415.0652 95.61793L416.7058 95.83668Q416.4402 97.52418 415.3308 98.485115Q414.22144 99.44605 412.59644 99.44605Q410.5808 99.44605 409.35425 98.12574Q408.1277 96.80543 408.1277 94.33668Q408.1277 92.74293 408.65112 91.547615Q409.17456 90.3523 410.2605 89.75074Q411.34644 89.14918 412.61206 89.14918Q414.22144 89.14918 415.23706 89.96168Q416.2527 90.77418 416.54956 92.27418L414.92456 92.52418Q414.6902 91.52418 414.09644 91.02418Q413.5027 90.52418 412.67456 90.52418Q411.40894 90.52418 410.61987 91.43043Q409.8308 92.33668 409.8308 94.2898Q409.8308 96.27418 410.59644 97.172615Q411.36206 98.07105 412.5808 98.07105Q413.5652 98.07105 414.22144 97.46949Q414.8777 96.86793 415.0652 95.61793ZM417.9558 99.2273L417.9558 85.63355L419.6277 85.63355L419.6277 90.50855Q420.79956 89.14918 422.5808 89.14918Q423.67456 89.14918 424.47925 89.578865Q425.28394 90.00855 425.6355 90.77418Q425.98706 91.5398 425.98706 92.9773L425.98706 99.2273L424.3152 99.2273L424.3152 92.9773Q424.3152 91.7273 423.7683 91.15699Q423.22144 90.58668 422.23706 90.58668Q421.48706 90.58668 420.83862 90.96949Q420.1902 91.3523 419.90894 92.016365Q419.6277 92.68043 419.6277 93.83668L419.6277 99.2273L417.9558 99.2273ZM428.34714 87.5398L428.34714 85.63355L430.019 85.63355L430.019 87.5398L428.34714 87.5398ZM428.34714 99.2273L428.34714 89.36793L430.019 89.36793L430.019 99.2273L428.34714 99.2273ZM432.47635 99.2273L432.47635 89.36793L433.97635 89.36793L433.97635 90.77418Q435.0701 89.14918 437.11697 89.14918Q438.0076 89.14918 438.7576 89.46949Q439.5076 89.7898 439.8748 90.31324Q440.24197 90.83668 440.39822 91.5398Q440.49197 92.00855 440.49197 93.1648L440.49197 99.2273L438.8201 99.2273L438.8201 93.2273Q438.8201 92.21168 438.6248 91.703865Q438.42947 91.19605 437.92947 90.89918Q437.42947 90.6023 436.7576 90.6023Q435.6951 90.6023 434.92166 91.27418Q434.14822 91.94605 434.14822 93.8523L434.14822 99.2273L432.47635 99.2273ZM449.60205 96.05543L451.3208 96.27418Q450.91455 97.77418 449.813 98.610115Q448.71143 99.44605 446.99268 99.44605Q444.83643 99.44605 443.5708 98.11793Q442.30518 96.7898 442.30518 94.38355Q442.30518 91.89918 443.5786 90.52418Q444.85205 89.14918 446.89893 89.14918Q448.8833 89.14918 450.1333 90.49293Q451.3833 91.83668 451.3833 94.2898Q451.3833 94.43043 451.36768 94.7273L444.02393 94.7273Q444.11768 96.3523 444.9458 97.21168Q445.77393 98.07105 447.0083 98.07105Q447.91455 98.07105 448.563 97.59449Q449.21143 97.11793 449.60205 96.05543ZM444.11768 93.3523L449.61768 93.3523Q449.5083 92.11793 448.99268 91.49293Q448.1958 90.52418 446.91455 90.52418Q445.77393 90.52418 444.98486 91.297615Q444.1958 92.07105 444.11768 93.3523ZM462.02463 93.27418L453.02463 97.13355L453.02463 95.4773L460.14963 92.50855L453.02463 89.57105L453.02463 87.9148L462.02463 91.7273L462.02463 93.27418ZM472.9196 93.27418L463.9196 97.13355L463.9196 95.4773L471.0446 92.50855L463.9196 89.57105L463.9196 87.9148L472.9196 91.7273L472.9196 93.27418Z" fill-rule="nonzero" fill="#000000"></path><path d="M358.30188 112.7273L358.30188 110.82105L360.20813 110.82105L360.20813 112.7273L358.30188 112.7273ZM358.30188 120.68043L358.30188 118.77418L360.20813 118.77418L360.20813 120.68043L358.30188 120.68043ZM369.45392 119.46168Q368.51642 120.25855 367.65704 120.578865Q366.79767 120.89918 365.8133 120.89918Q364.20392 120.89918 363.32892 120.110115Q362.45392 119.32105 362.45392 118.08668Q362.45392 117.3523 362.78204 116.75855Q363.11017 116.1648 363.64142 115.80543Q364.17267 115.44605 364.84454 115.25855Q365.34454 115.11793 366.32892 115.00855Q368.36017 114.75855 369.3133 114.43043Q369.3133 114.08668 369.3133 113.99293Q369.3133 112.9773 368.84454 112.55543Q368.20392 111.99293 366.9383 111.99293Q365.76642 111.99293 365.20392 112.39918Q364.64142 112.80543 364.3758 113.86793L362.73517 113.63355Q362.96954 112.58668 363.47736 111.94605Q363.98517 111.30543 364.9461 110.953865Q365.90704 110.6023 367.1883 110.6023Q368.45392 110.6023 369.23517 110.89918Q370.01642 111.19605 370.39142 111.64918Q370.76642 112.1023 370.90704 112.7898Q371.0008 113.21168 371.0008 114.32105L371.0008 116.55543Q371.0008 118.88355 371.10236 119.50074Q371.20392 120.11793 371.53204 120.68043L369.78204 120.68043Q369.51642 120.1648 369.45392 119.46168ZM369.3133 115.74293Q368.40704 116.1023 366.57892 116.36793Q365.54767 116.50855 365.1258 116.69605Q364.70392 116.88355 364.46954 117.24293Q364.23517 117.6023 364.23517 118.0398Q364.23517 118.71168 364.74298 119.15699Q365.2508 119.6023 366.21954 119.6023Q367.1883 119.6023 367.9383 119.172615Q368.6883 118.74293 369.04767 118.02418Q369.3133 117.44605 369.3133 116.3523L369.3133 115.74293ZM373.37653 120.68043L373.37653 110.82105L374.87653 110.82105L374.87653 112.32105Q375.45465 111.27418 375.93903 110.93824Q376.4234 110.6023 377.01715 110.6023Q377.8609 110.6023 378.7359 111.14918L378.15778 112.69605Q377.5484 112.33668 376.9234 112.33668Q376.37653 112.33668 375.94684 112.6648Q375.51715 112.99293 375.32965 113.57105Q375.0484 114.46168 375.0484 115.52418L375.0484 120.68043L373.37653 120.68043ZM386.04233 117.07105L387.68295 117.2898Q387.41733 118.9773 386.30795 119.93824Q385.19858 120.89918 383.57358 120.89918Q381.55795 120.89918 380.3314 119.578865Q379.10483 118.25855 379.10483 115.7898Q379.10483 114.19605 379.62827 113.00074Q380.1517 111.80543 381.23764 111.203865Q382.32358 110.6023 383.5892 110.6023Q385.19858 110.6023 386.2142 111.4148Q387.22983 112.2273 387.5267 113.7273L385.9017 113.9773Q385.66733 112.9773 385.07358 112.4773Q384.47983 111.9773 383.6517 111.9773Q382.38608 111.9773 381.59702 112.88355Q380.80795 113.7898 380.80795 115.74293Q380.80795 117.7273 381.57358 118.62574Q382.3392 119.52418 383.55795 119.52418Q384.54233 119.52418 385.19858 118.922615Q385.85483 118.32105 386.04233 117.07105ZM388.93295 120.68043L388.93295 107.08668L390.60483 107.08668L390.60483 111.96168Q391.7767 110.6023 393.55795 110.6023Q394.6517 110.6023 395.4564 111.03199Q396.26108 111.46168 396.61264 112.2273Q396.9642 112.99293 396.9642 114.43043L396.9642 120.68043L395.29233 120.68043L395.29233 114.43043Q395.29233 113.18043 394.74545 112.610115Q394.19858 112.0398 393.2142 112.0398Q392.4642 112.0398 391.81577 112.422615Q391.16733 112.80543 390.88608 113.46949Q390.60483 114.13355 390.60483 115.2898L390.60483 120.68043L388.93295 120.68043ZM399.32428 108.99293L399.32428 107.08668L400.99615 107.08668L400.99615 108.99293L399.32428 108.99293ZM399.32428 120.68043L399.32428 110.82105L400.99615 110.82105L400.99615 120.68043L399.32428 120.68043ZM406.18787 120.68043L402.43787 110.82105L404.2035 110.82105L406.3285 116.7273Q406.67224 117.68043 406.9535 118.71168Q407.17224 117.93043 407.5785 116.83668L409.766 110.82105L411.48474 110.82105L407.75037 120.68043L406.18787 120.68043ZM419.53162 117.50855L421.25037 117.7273Q420.84412 119.2273 419.74255 120.06324Q418.641 120.89918 416.92224 120.89918Q414.766 120.89918 413.50037 119.57105Q412.23474 118.24293 412.23474 115.83668Q412.23474 113.3523 413.50818 111.9773Q414.78162 110.6023 416.8285 110.6023Q418.81287 110.6023 420.06287 111.94605Q421.31287 113.2898 421.31287 115.74293Q421.31287 115.88355 421.29724 116.18043L413.9535 116.18043Q414.04724 117.80543 414.87537 118.6648Q415.7035 119.52418 416.93787 119.52418Q417.84412 119.52418 418.49255 119.047615Q419.141 118.57105 419.53162 117.50855ZM414.04724 114.80543L419.54724 114.80543Q419.43787 113.57105 418.92224 112.94605Q418.12537 111.9773 416.84412 111.9773Q415.7035 111.9773 414.91443 112.75074Q414.12537 113.52418 414.04724 114.80543ZM422.7667 116.30543L424.4542 116.1648Q424.5792 117.18043 425.0167 117.83668Q425.4542 118.49293 426.38388 118.89918Q427.31357 119.30543 428.46982 119.30543Q429.50107 119.30543 430.29013 118.99293Q431.0792 118.68043 431.46982 118.14918Q431.86044 117.61793 431.86044 116.99293Q431.86044 116.3523 431.48544 115.87574Q431.11044 115.39918 430.25107 115.07105Q429.7042 114.8523 427.8292 114.40699Q425.9542 113.96168 425.2042 113.55543Q424.23544 113.0398 423.75888 112.2898Q423.28232 111.5398 423.28232 110.6023Q423.28232 109.57105 423.86826 108.672615Q424.4542 107.77418 425.57138 107.31324Q426.68857 106.8523 428.06357 106.8523Q429.5792 106.8523 430.73544 107.33668Q431.8917 107.82105 432.50888 108.766365Q433.12607 109.71168 433.17294 110.9148L431.4542 111.0398Q431.31357 109.75855 430.50888 109.09449Q429.7042 108.43043 428.1417 108.43043Q426.5167 108.43043 425.7667 109.03199Q425.0167 109.63355 425.0167 110.4773Q425.0167 111.21168 425.54794 111.68043Q426.06357 112.14918 428.25888 112.64918Q430.4542 113.14918 431.2667 113.52418Q432.4542 114.07105 433.0245 114.90699Q433.59482 115.74293 433.59482 116.83668Q433.59482 117.93043 432.96982 118.891365Q432.34482 119.8523 431.18076 120.38355Q430.0167 120.9148 428.56357 120.9148Q426.71982 120.9148 425.46982 120.37574Q424.21982 119.83668 423.50888 118.75855Q422.79794 117.68043 422.7667 116.30543ZM442.3509 117.50855L444.06964 117.7273Q443.6634 119.2273 442.56183 120.06324Q441.46027 120.89918 439.74152 120.89918Q437.58527 120.89918 436.31964 119.57105Q435.05402 118.24293 435.05402 115.83668Q435.05402 113.3523 436.32745 111.9773Q437.6009 110.6023 439.64777 110.6023Q441.63214 110.6023 442.88214 111.94605Q444.13214 113.2898 444.13214 115.74293Q444.13214 115.88355 444.11652 116.18043L436.77277 116.18043Q436.86652 117.80543 437.69464 118.6648Q438.52277 119.52418 439.75714 119.52418Q440.6634 119.52418 441.31183 119.047615Q441.96027 118.57105 442.3509 117.50855ZM436.86652 114.80543L442.36652 114.80543Q442.25714 113.57105 441.74152 112.94605Q440.94464 111.9773 439.6634 111.9773Q438.52277 111.9773 437.7337 112.75074Q436.94464 113.52418 436.86652 114.80543ZM445.961 120.68043L445.961 110.82105L447.461 110.82105L447.461 112.32105Q448.03912 111.27418 448.5235 110.93824Q449.00787 110.6023 449.60162 110.6023Q450.44537 110.6023 451.32037 111.14918L450.74225 112.69605Q450.13287 112.33668 449.50787 112.33668Q448.961 112.33668 448.5313 112.6648Q448.10162 112.99293 447.91412 113.57105Q447.63287 114.46168 447.63287 115.52418L447.63287 120.68043L445.961 120.68043ZM454.92365 120.68043L451.17368 110.82105L452.93927 110.82105L455.06427 116.7273Q455.40802 117.68043 455.68927 118.71168Q455.90802 117.93043 456.31427 116.83668L458.50177 110.82105L460.22052 110.82105L456.48615 120.68043L454.92365 120.68043ZM468.2674 117.50855L469.98615 117.7273Q469.5799 119.2273 468.47833 120.06324Q467.37677 120.89918 465.65802 120.89918Q463.50177 120.89918 462.23615 119.57105Q460.97052 118.24293 460.97052 115.83668Q460.97052 113.3523 462.24396 111.9773Q463.5174 110.6023 465.56427 110.6023Q467.54865 110.6023 468.79865 111.94605Q470.04865 113.2898 470.04865 115.74293Q470.04865 115.88355 470.03302 116.18043L462.68927 116.18043Q462.78302 117.80543 463.61115 118.6648Q464.43927 119.52418 465.67365 119.52418Q466.5799 119.52418 467.22833 119.047615Q467.87677 118.57105 468.2674 117.50855ZM462.78302 114.80543L468.28302 114.80543Q468.17365 113.57105 467.65802 112.94605Q466.86115 111.9773 465.5799 111.9773Q464.43927 111.9773 463.6502 112.75074Q462.86115 113.52418 462.78302 114.80543ZM471.8775 120.68043L471.8775 110.82105L473.3775 110.82105L473.3775 112.32105Q473.95563 111.27418 474.44 110.93824Q474.92438 110.6023 475.51813 110.6023Q476.36188 110.6023 477.23688 111.14918L476.65875 112.69605Q476.04938 112.33668 475.42438 112.33668Q474.8775 112.33668 474.4478 112.6648Q474.01813 112.99293 473.83063 113.57105Q473.54938 114.46168 473.54938 115.52418L473.54938 120.68043L471.8775 120.68043Z" fill-rule="nonzero" fill="#000000"></path><path d="M539.7505 165.93948L525.6008 151.7898L308.6009 151.7898L308.6009 329.73462L322.75055 343.88428L539.7505 343.88428ZM539.7505 165.93948L322.75055 165.93948L308.6009 151.7898M322.75055 165.93948L322.75055 343.88428" fill-rule="nonzero" stroke="#000000" stroke-width="2.0" stroke-linejoin="round" stroke-linecap="butt"></path><path d="M196.415 225.1131L189.78212 218.48022L38.8087 218.48022L38.8087 301.8946L45.44158 308.52747L196.415 308.52747ZM196.415 225.1131L45.44158 225.1131L38.8087 218.48022M45.44158 225.1131L45.44158 308.52747" fill-rule="nonzero" stroke="#000000" stroke-width="2.0" stroke-linejoin="round" stroke-linecap="butt"></path><path d="M64.92694 256.30466L64.92694 254.75778L73.92694 250.94528L73.92694 252.60153L66.786316 255.53903L73.92694 258.50778L73.92694 260.16403L64.92694 256.30466ZM75.8219 256.30466L75.8219 254.75778L84.8219 250.94528L84.8219 252.60153L77.681274 255.53903L84.8219 258.50778L84.8219 260.16403L75.8219 256.30466ZM86.91998 262.25778L86.91998 252.3984L88.41998 252.3984L88.41998 253.78903Q88.87311 253.07028 89.646545 252.62497Q90.41998 252.17966 91.40436 252.17966Q92.49811 252.17966 93.20123 252.63278Q93.90436 253.0859 94.18561 253.91403Q95.35748 252.17966 97.23248 252.17966Q98.70123 252.17966 99.490295 252.99216Q100.27936 253.80466 100.27936 255.49216L100.27936 262.25778L98.60748 262.25778L98.60748 256.05466Q98.60748 255.05466 98.45123 254.60934Q98.29498 254.16403 97.865295 253.8984Q97.43561 253.63278 96.85748 253.63278Q95.82623 253.63278 95.13873 254.32028Q94.45123 255.00778 94.45123 256.53903L94.45123 262.25778L92.77936 262.25778L92.77936 255.85153Q92.77936 254.74216 92.37311 254.18747Q91.96686 253.63278 91.02936 253.63278Q90.32623 253.63278 89.72467 253.99997Q89.12311 254.36716 88.85748 255.0859Q88.59186 255.80466 88.59186 257.1484L88.59186 262.25778L86.91998 262.25778ZM108.898285 261.03903Q107.960785 261.8359 107.10141 262.15622Q106.242035 262.47653 105.25766 262.47653Q103.648285 262.47653 102.773285 261.68747Q101.898285 260.8984 101.898285 259.66403Q101.898285 258.92966 102.22641 258.3359Q102.554535 257.74216 103.085785 257.38278Q103.617035 257.0234 104.28891 256.8359Q104.78891 256.69528 105.773285 256.5859Q107.804535 256.3359 108.75766 256.00778Q108.75766 255.66403 108.75766 255.57028Q108.75766 254.55466 108.28891 254.13278Q107.648285 253.57028 106.38266 253.57028Q105.210785 253.57028 104.648285 253.97653Q104.085785 254.38278 103.82016 255.44528L102.179535 255.2109Q102.41391 254.16403 102.92172 253.5234Q103.429535 252.88278 104.39047 252.53122Q105.35141 252.17966 106.63266 252.17966Q107.898285 252.17966 108.679535 252.47653Q109.460785 252.7734 109.835785 253.22653Q110.210785 253.67966 110.35141 254.36716Q110.44516 254.78903 110.44516 255.8984L110.44516 258.13278Q110.44516 260.4609 110.54672 261.0781Q110.648285 261.69528 110.97641 262.25778L109.22641 262.25778Q108.960785 261.74216 108.898285 261.03903ZM108.75766 257.32028Q107.85141 257.67966 106.023285 257.94528Q104.992035 258.0859 104.57016 258.2734Q104.148285 258.4609 103.91391 258.82028Q103.679535 259.17966 103.679535 259.61716Q103.679535 260.28903 104.18735 260.73434Q104.69516 261.17966 105.66391 261.17966Q106.63266 261.17966 107.38266 260.74997Q108.13266 260.32028 108.492035 259.60153Q108.75766 259.0234 108.75766 257.92966L108.75766 257.32028ZM119.274 258.6484L120.91463 258.86716Q120.649 260.55466 119.53963 261.5156Q118.43025 262.47653 116.80525 262.47653Q114.78963 262.47653 113.563065 261.15622Q112.3365 259.8359 112.3365 257.36716Q112.3365 255.7734 112.85994 254.5781Q113.38338 253.38278 114.469315 252.78122Q115.55525 252.17966 116.82088 252.17966Q118.43025 252.17966 119.44588 252.99216Q120.4615 253.80466 120.75838 255.30466L119.13338 255.55466Q118.899 254.55466 118.30525 254.05466Q117.7115 253.55466 116.88338 253.55466Q115.61775 253.55466 114.82869 254.4609Q114.03963 255.36716 114.03963 257.32028Q114.03963 259.30466 114.80525 260.2031Q115.57088 261.10153 116.78963 261.10153Q117.774 261.10153 118.43025 260.49997Q119.0865 259.8984 119.274 258.6484ZM122.16463 262.25778L122.16463 248.66403L123.8365 248.66403L123.8365 253.53903Q125.00838 252.17966 126.78963 252.17966Q127.88338 252.17966 128.68806 252.60934Q129.49275 253.03903 129.84431 253.80466Q130.19588 254.57028 130.19588 256.00778L130.19588 262.25778L128.524 262.25778L128.524 256.00778Q128.524 254.75778 127.97713 254.18747Q127.43025 253.61716 126.44588 253.61716Q125.69588 253.61716 125.04744 253.99997Q124.399 254.38278 124.11775 255.04684Q123.8365 255.7109 123.8365 256.86716L123.8365 262.25778L122.16463 262.25778ZM132.55597 250.57028L132.55597 248.66403L134.22784 248.66403L134.22784 250.57028L132.55597 250.57028ZM132.55597 262.25778L132.55597 252.3984L134.22784 252.3984L134.22784 262.25778L132.55597 262.25778ZM136.68517 262.25778L136.68517 252.3984L138.18517 252.3984L138.18517 253.80466Q139.27892 252.17966 141.32579 252.17966Q142.21642 252.17966 142.96642 252.49997Q143.71642 252.82028 144.0836 253.34372Q144.45079 253.86716 144.60704 254.57028Q144.70079 255.03903 144.70079 256.19528L144.70079 262.25778L143.02892 262.25778L143.02892 256.25778Q143.02892 255.24216 142.8336 254.73434Q142.63829 254.22653 142.13829 253.92966Q141.63829 253.63278 140.96642 253.63278Q139.90392 253.63278 139.13048 254.30466Q138.35704 254.97653 138.35704 256.88278L138.35704 262.25778L136.68517 262.25778ZM153.81088 259.0859L155.52963 259.30466Q155.12338 260.80466 154.02182 261.6406Q152.92026 262.47653 151.2015 262.47653Q149.04526 262.47653 147.77963 261.1484Q146.514 259.82028 146.514 257.41403Q146.514 254.92966 147.78745 253.55466Q149.06088 252.17966 151.10776 252.17966Q153.09213 252.17966 154.34213 253.5234Q155.59213 254.86716 155.59213 257.32028Q155.59213 257.4609 155.5765 257.75778L148.23276 257.75778Q148.3265 259.38278 149.15463 260.24216Q149.98276 261.10153 151.21713 261.10153Q152.12338 261.10153 152.77182 260.62497Q153.42026 260.1484 153.81088 259.0859ZM148.3265 256.38278L153.8265 256.38278Q153.71713 255.1484 153.2015 254.5234Q152.40463 253.55466 151.12338 253.55466Q149.98276 253.55466 149.1937 254.3281Q148.40463 255.10153 148.3265 256.38278ZM166.23347 256.30466L157.23347 260.16403L157.23347 258.50778L164.35847 255.53903L157.23347 252.60153L157.23347 250.94528L166.23347 254.75778L166.23347 256.30466ZM177.12843 256.30466L168.12843 260.16403L168.12843 258.50778L175.25343 255.53903L168.12843 252.60153L168.12843 250.94528L177.12843 254.75778L177.12843 256.30466Z" fill-rule="nonzero" fill="#000000"></path><path d="M66.13628 275.75778L66.13628 273.85153L68.04253 273.85153L68.04253 275.75778L66.13628 275.75778ZM66.13628 283.7109L66.13628 281.80466L68.04253 281.80466L68.04253 283.7109L66.13628 283.7109ZM77.28833 282.49216Q76.35083 283.28903 75.491455 283.60934Q74.63208 283.92966 73.647705 283.92966Q72.03833 283.92966 71.16333 283.1406Q70.28833 282.35153 70.28833 281.11716Q70.28833 280.38278 70.616455 279.78903Q70.94458 279.19528 71.47583 278.8359Q72.00708 278.47653 72.678955 278.28903Q73.178955 278.1484 74.16333 278.03903Q76.19458 277.78903 77.147705 277.4609Q77.147705 277.11716 77.147705 277.0234Q77.147705 276.00778 76.678955 275.5859Q76.03833 275.0234 74.772705 275.0234Q73.60083 275.0234 73.03833 275.42966Q72.47583 275.8359 72.210205 276.8984L70.56958 276.66403Q70.803955 275.61716 71.31177 274.97653Q71.81958 274.3359 72.78052 273.98434Q73.741455 273.63278 75.022705 273.63278Q76.28833 273.63278 77.06958 273.92966Q77.85083 274.22653 78.22583 274.67966Q78.60083 275.13278 78.741455 275.82028Q78.835205 276.24216 78.835205 277.35153L78.835205 279.5859Q78.835205 281.91403 78.93677 282.53122Q79.03833 283.1484 79.366455 283.7109L77.616455 283.7109Q77.35083 283.19528 77.28833 282.49216ZM77.147705 278.7734Q76.241455 279.13278 74.41333 279.3984Q73.38208 279.53903 72.960205 279.72653Q72.53833 279.91403 72.303955 280.2734Q72.06958 280.63278 72.06958 281.07028Q72.06958 281.74216 72.57739 282.18747Q73.085205 282.63278 74.053955 282.63278Q75.022705 282.63278 75.772705 282.2031Q76.522705 281.7734 76.88208 281.05466Q77.147705 280.47653 77.147705 279.38278L77.147705 278.7734ZM81.21092 283.7109L81.21092 273.85153L82.71092 273.85153L82.71092 275.35153Q83.28905 274.30466 83.77342 273.96872Q84.2578 273.63278 84.85155 273.63278Q85.6953 273.63278 86.5703 274.17966L85.99217 275.72653Q85.3828 275.36716 84.7578 275.36716Q84.21092 275.36716 83.781235 275.69528Q83.35155 276.0234 83.16405 276.60153Q82.8828 277.49216 82.8828 278.55466L82.8828 283.7109L81.21092 283.7109ZM93.876724 280.10153L95.51735 280.32028Q95.251724 282.00778 94.14235 282.96872Q93.032974 283.92966 91.407974 283.92966Q89.39235 283.92966 88.16579 282.60934Q86.939224 281.28903 86.939224 278.82028Q86.939224 277.22653 87.46266 276.03122Q87.9861 274.8359 89.07204 274.23434Q90.157974 273.63278 91.4236 273.63278Q93.032974 273.63278 94.0486 274.44528Q95.064224 275.25778 95.3611 276.75778L93.7361 277.00778Q93.501724 276.00778 92.907974 275.50778Q92.314224 275.00778 91.4861 275.00778Q90.220474 275.00778 89.43141 275.91403Q88.64235 276.82028 88.64235 278.7734Q88.64235 280.75778 89.407974 281.65622Q90.1736 282.55466 91.39235 282.55466Q92.376724 282.55466 93.032974 281.9531Q93.689224 281.35153 93.876724 280.10153ZM96.76735 283.7109L96.76735 270.11716L98.439224 270.11716L98.439224 274.99216Q99.6111 273.63278 101.39235 273.63278Q102.4861 273.63278 103.29079 274.06247Q104.095474 274.49216 104.44704 275.25778Q104.7986 276.0234 104.7986 277.4609L104.7986 283.7109L103.126724 283.7109L103.126724 277.4609Q103.126724 276.2109 102.57985 275.6406Q102.032974 275.07028 101.0486 275.07028Q100.2986 275.07028 99.65016 275.4531Q99.001724 275.8359 98.720474 276.49997Q98.439224 277.16403 98.439224 278.32028L98.439224 283.7109L96.76735 283.7109ZM107.15869 272.0234L107.15869 270.11716L108.83057 270.11716L108.83057 272.0234L107.15869 272.0234ZM107.15869 283.7109L107.15869 273.85153L108.83057 273.85153L108.83057 283.7109L107.15869 283.7109ZM114.02226 283.7109L110.27226 273.85153L112.03789 273.85153L114.16289 279.75778Q114.50664 280.7109 114.78789 281.74216Q115.00664 280.9609 115.41289 279.86716L117.60039 273.85153L119.31914 273.85153L115.58476 283.7109L114.02226 283.7109ZM127.36601 280.53903L129.08476 280.75778Q128.67851 282.25778 127.57695 283.09372Q126.47539 283.92966 124.75664 283.92966Q122.60039 283.92966 121.33476 282.60153Q120.06914 281.2734 120.06914 278.86716Q120.06914 276.38278 121.342575 275.00778Q122.61601 273.63278 124.66289 273.63278Q126.64726 273.63278 127.89726 274.97653Q129.14726 276.32028 129.14726 278.7734Q129.14726 278.91403 129.13164 279.2109L121.78789 279.2109Q121.88164 280.8359 122.70976 281.69528Q123.53789 282.55466 124.77226 282.55466Q125.67851 282.55466 126.32695 282.0781Q126.97539 281.60153 127.36601 280.53903ZM121.88164 277.8359L127.38164 277.8359Q127.27226 276.60153 126.75664 275.97653Q125.95976 275.00778 124.67851 275.00778Q123.53789 275.00778 122.748825 275.78122Q121.95976 276.55466 121.88164 277.8359ZM140.9136 278.94528L142.71048 279.3984Q142.14798 281.61716 140.67923 282.78122Q139.21048 283.94528 137.08548 283.94528Q134.88235 283.94528 133.50735 283.04684Q132.13235 282.1484 131.4136 280.4531Q130.69485 278.75778 130.69485 276.80466Q130.69485 274.67966 131.49954 273.10153Q132.30423 271.5234 133.80423 270.7031Q135.30423 269.88278 137.1011 269.88278Q139.14798 269.88278 140.5386 270.92184Q141.92923 271.9609 142.4761 273.8359L140.71048 274.25778Q140.24173 272.7734 139.33548 272.09372Q138.42923 271.41403 137.06985 271.41403Q135.50735 271.41403 134.45267 272.16403Q133.39798 272.91403 132.96829 274.18747Q132.5386 275.4609 132.5386 276.80466Q132.5386 278.53903 133.04642 279.8281Q133.55423 281.11716 134.62454 281.75778Q135.69485 282.3984 136.92923 282.3984Q138.44485 282.3984 139.49173 281.53122Q140.5386 280.66403 140.9136 278.94528ZM144.43343 283.7109L144.43343 270.11716L146.1053 270.11716L146.1053 283.7109L144.43343 283.7109ZM148.62512 272.0234L148.62512 270.11716L150.297 270.11716L150.297 272.0234L148.62512 272.0234ZM148.62512 283.7109L148.62512 273.85153L150.297 273.85153L150.297 283.7109L148.62512 283.7109ZM159.50432 280.53903L161.22307 280.75778Q160.81682 282.25778 159.71526 283.09372Q158.6137 283.92966 156.89494 283.92966Q154.7387 283.92966 153.47307 282.60153Q152.20744 281.2734 152.20744 278.86716Q152.20744 276.38278 153.48088 275.00778Q154.75432 273.63278 156.8012 273.63278Q158.78557 273.63278 160.03557 274.97653Q161.28557 276.32028 161.28557 278.7734Q161.28557 278.91403 161.26994 279.2109L153.9262 279.2109Q154.01994 280.8359 154.84807 281.69528Q155.6762 282.55466 156.91057 282.55466Q157.81682 282.55466 158.46526 282.0781Q159.1137 281.60153 159.50432 280.53903ZM154.01994 277.8359L159.51994 277.8359Q159.41057 276.60153 158.89494 275.97653Q158.09807 275.00778 156.81682 275.00778Q155.6762 275.00778 154.88713 275.78122Q154.09807 276.55466 154.01994 277.8359ZM163.13004 283.7109L163.13004 273.85153L164.63004 273.85153L164.63004 275.25778Q165.72379 273.63278 167.77066 273.63278Q168.66129 273.63278 169.41129 273.9531Q170.16129 274.2734 170.52847 274.79684Q170.89566 275.32028 171.05191 276.0234Q171.14566 276.49216 171.14566 277.6484L171.14566 283.7109L169.47379 283.7109L169.47379 277.7109Q169.47379 276.69528 169.27847 276.18747Q169.08316 275.67966 168.58316 275.38278Q168.08316 275.0859 167.41129 275.0859Q166.34879 275.0859 165.57535 275.75778Q164.80191 276.42966 164.80191 278.3359L164.80191 283.7109L163.13004 283.7109ZM177.162 282.2109L177.39638 283.69528Q176.69325 283.8359 176.13075 283.8359Q175.2245 283.8359 174.7245 283.54684Q174.2245 283.25778 174.02138 282.79684Q173.81825 282.3359 173.81825 280.82028L173.81825 275.16403L172.58388 275.16403L172.58388 273.85153L173.81825 273.85153L173.81825 271.41403L175.4745 270.41403L175.4745 273.85153L177.162 273.85153L177.162 275.16403L175.4745 275.16403L175.4745 280.91403Q175.4745 281.63278 175.56044 281.8359Q175.64638 282.03903 175.8495 282.16403Q176.05263 282.28903 176.42763 282.28903Q176.69325 282.28903 177.162 282.2109Z" fill-rule="nonzero" fill="#000000"></path><path d="M167.02385 332.7384L167.02385 331.75403L172.71135 329.34778L172.71135 330.39465L168.19572 332.2384L172.71135 334.1134L172.71135 335.16028L167.02385 332.7384ZM174.03166 332.7384L174.03166 331.75403L179.71916 329.34778L179.71916 330.39465L175.20354 332.2384L179.71916 334.1134L179.71916 335.16028L174.03166 332.7384ZM181.1801 338.87903L181.1801 330.26965L182.13322 330.26965L182.13322 331.06653Q182.47697 330.59778 182.90666 330.3634Q183.33635 330.12903 183.94572 330.12903Q184.7426 330.12903 185.35197 330.53528Q185.96135 330.94153 186.26604 331.69153Q186.57072 332.44153 186.57072 333.33215Q186.57072 334.28528 186.23479 335.0509Q185.89885 335.81653 185.2426 336.22278Q184.58635 336.62903 183.8676 336.62903Q183.33635 336.62903 182.91447 336.40247Q182.4926 336.1759 182.22697 335.84778L182.22697 338.87903L181.1801 338.87903ZM182.13322 333.41028Q182.13322 334.6134 182.6176 335.18372Q183.10197 335.75403 183.78947 335.75403Q184.4926 335.75403 184.9926 335.16028Q185.4926 334.56653 185.4926 333.31653Q185.4926 332.12903 185.00822 331.5431Q184.52385 330.95715 183.83635 330.95715Q183.16447 330.95715 182.64885 331.58215Q182.13322 332.20715 182.13322 333.41028ZM189.57268 336.4884L187.2133 330.26965L188.32268 330.26965L189.66643 333.9884Q189.86955 334.59778 190.05705 335.2384Q190.19768 334.75403 190.44768 334.06653L191.8383 330.26965L192.91643 330.26965L190.55705 336.4884L189.57268 336.4884ZM193.04143 336.4884L196.3383 327.89465L197.55705 327.89465L201.07268 336.4884L199.79143 336.4884L198.7758 333.87903L195.19768 333.87903L194.24455 336.4884L193.04143 336.4884ZM195.5258 332.95715L198.43205 332.95715L197.54143 330.58215Q197.11955 329.50403 196.93205 328.8009Q196.76018 329.62903 196.4633 330.44153L195.5258 332.95715ZM205.92033 334.20715L206.95158 334.34778Q206.77971 335.41028 206.07658 336.01965Q205.37346 336.62903 204.35783 336.62903Q203.07658 336.62903 202.30315 335.7931Q201.52971 334.95715 201.52971 333.39465Q201.52971 332.39465 201.86565 331.63684Q202.20158 330.87903 202.88127 330.50403Q203.56096 330.12903 204.37346 330.12903Q205.37346 330.12903 206.0219 330.63684Q206.67033 331.14465 206.85783 332.09778L205.82658 332.25403Q205.68596 331.62903 205.31096 331.30872Q204.93596 330.9884 204.40471 330.9884Q203.60783 330.9884 203.10783 331.55872Q202.60783 332.12903 202.60783 333.3634Q202.60783 334.62903 203.09221 335.19153Q203.57658 335.75403 204.34221 335.75403Q204.96721 335.75403 205.38127 335.37903Q205.79533 335.00403 205.92033 334.20715ZM211.92033 334.20715L212.95158 334.34778Q212.77971 335.41028 212.07658 336.01965Q211.37346 336.62903 210.35783 336.62903Q209.07658 336.62903 208.30315 335.7931Q207.52971 334.95715 207.52971 333.39465Q207.52971 332.39465 207.86565 331.63684Q208.20158 330.87903 208.88127 330.50403Q209.56096 330.12903 210.37346 330.12903Q211.37346 330.12903 212.0219 330.63684Q212.67033 331.14465 212.85783 332.09778L211.82658 332.25403Q211.68596 331.62903 211.31096 331.30872Q210.93596 330.9884 210.40471 330.9884Q209.60783 330.9884 209.10783 331.55872Q208.60783 332.12903 208.60783 333.3634Q208.60783 334.62903 209.09221 335.19153Q209.57658 335.75403 210.34221 335.75403Q210.96721 335.75403 211.38127 335.37903Q211.79533 335.00403 211.92033 334.20715ZM218.10783 334.4884L219.20158 334.6134Q218.95158 335.56653 218.24846 336.09778Q217.54533 336.62903 216.46721 336.62903Q215.10783 336.62903 214.30315 335.78528Q213.49846 334.94153 213.49846 333.4259Q213.49846 331.8634 214.31096 330.99622Q215.12346 330.12903 216.40471 330.12903Q217.65471 330.12903 218.44377 330.97278Q219.23283 331.81653 219.23283 333.3634Q219.23283 333.45715 219.23283 333.64465L214.59221 333.64465Q214.65471 334.6759 215.17033 335.21497Q215.68596 335.75403 216.46721 335.75403Q217.04533 335.75403 217.4594 335.44934Q217.87346 335.14465 218.10783 334.4884ZM214.65471 332.78528L218.12346 332.78528Q218.06096 331.9884 217.73283 331.59778Q217.21721 330.9884 216.42033 330.9884Q215.68596 330.9884 215.19377 331.47278Q214.70158 331.95715 214.65471 332.78528ZM220.10979 334.62903L221.14104 334.47278Q221.23479 335.09778 221.63322 335.4259Q222.03166 335.75403 222.76604 335.75403Q223.48479 335.75403 223.83635 335.46497Q224.18791 335.1759 224.18791 334.76965Q224.18791 334.41028 223.87541 334.20715Q223.65666 334.06653 222.79729 333.84778Q221.64104 333.5509 221.19572 333.33997Q220.75041 333.12903 220.51604 332.75403Q220.28166 332.37903 220.28166 331.91028Q220.28166 331.50403 220.46916 331.14465Q220.65666 330.78528 220.98479 330.5509Q221.23479 330.37903 221.65666 330.25403Q222.07854 330.12903 222.57854 330.12903Q223.29729 330.12903 223.85197 330.33997Q224.40666 330.5509 224.67229 330.91028Q224.93791 331.26965 225.03166 331.8634L224.00041 332.00403Q223.93791 331.53528 223.60197 331.26184Q223.26604 330.9884 222.64104 330.9884Q221.92229 330.9884 221.60979 331.2306Q221.29729 331.47278 221.29729 331.8009Q221.29729 332.00403 221.42229 332.16028Q221.56291 332.33215 221.82854 332.44153Q221.98479 332.50403 222.76604 332.70715Q223.89104 333.01965 224.32854 333.20715Q224.76604 333.39465 225.01604 333.75403Q225.26604 334.1134 225.26604 334.66028Q225.26604 335.19153 224.96135 335.65247Q224.65666 336.1134 224.07854 336.37122Q223.50041 336.62903 222.76604 336.62903Q221.54729 336.62903 220.91447 336.12122Q220.28166 335.6134 220.10979 334.62903ZM226.10979 334.62903L227.14104 334.47278Q227.23479 335.09778 227.63322 335.4259Q228.03166 335.75403 228.76604 335.75403Q229.48479 335.75403 229.83635 335.46497Q230.18791 335.1759 230.18791 334.76965Q230.18791 334.41028 229.87541 334.20715Q229.65666 334.06653 228.79729 333.84778Q227.64104 333.5509 227.19572 333.33997Q226.75041 333.12903 226.51604 332.75403Q226.28166 332.37903 226.28166 331.91028Q226.28166 331.50403 226.46916 331.14465Q226.65666 330.78528 226.98479 330.5509Q227.23479 330.37903 227.65666 330.25403Q228.07854 330.12903 228.57854 330.12903Q229.29729 330.12903 229.85197 330.33997Q230.40666 330.5509 230.67229 330.91028Q230.93791 331.26965 231.03166 331.8634L230.00041 332.00403Q229.93791 331.53528 229.60197 331.26184Q229.26604 330.9884 228.64104 330.9884Q227.92229 330.9884 227.60979 331.2306Q227.29729 331.47278 227.29729 331.8009Q227.29729 332.00403 227.42229 332.16028Q227.56291 332.33215 227.82854 332.44153Q227.98479 332.50403 228.76604 332.70715Q229.89104 333.01965 230.32854 333.20715Q230.76604 333.39465 231.01604 333.75403Q231.26604 334.1134 231.26604 334.66028Q231.26604 335.19153 230.96135 335.65247Q230.65666 336.1134 230.07854 336.37122Q229.50041 336.62903 228.76604 336.62903Q227.54729 336.62903 226.91447 336.12122Q226.28166 335.6134 226.10979 334.62903ZM238.07854 332.7384L232.39104 335.16028L232.39104 334.1134L236.89104 332.2384L232.39104 330.39465L232.39104 329.34778L238.07854 331.75403L238.07854 332.7384ZM245.08635 332.7384L239.39885 335.16028L239.39885 334.1134L243.89885 332.2384L239.39885 330.39465L239.39885 329.34778L245.08635 331.75403L245.08635 332.7384Z" fill-rule="nonzero" fill="#000000"></path><path d="M499.7061 247.54372L492.90384 240.74147L362.47772 240.74147L362.47772 326.28568L369.27997 333.08792L499.7061 333.08792ZM499.7061 247.54372L369.27997 247.54372L362.47772 240.74147M369.27997 247.54372L369.27997 333.08792" fill-rule="nonzero" stroke="#000000" stroke-width="2.0" stroke-linejoin="round" stroke-linecap="butt"></path><path d="M385.19223 282.9877L385.19223 281.90958L391.34848 279.31583L391.34848 280.44083L386.45786 282.45645L391.34848 284.47208L391.34848 285.6127L385.19223 282.9877ZM392.97565 282.9877L392.97565 281.90958L399.1319 279.31583L399.1319 280.44083L394.24127 282.45645L399.1319 284.47208L399.1319 285.6127L392.97565 282.9877ZM407.68094 283.78458L408.9153 284.09708Q408.5247 285.6127 407.51688 286.40958Q406.50906 287.20645 405.05594 287.20645Q403.55594 287.20645 402.61063 286.59708Q401.6653 285.9877 401.17313 284.82364Q400.68094 283.65958 400.68094 282.33145Q400.68094 280.87833 401.24344 279.7924Q401.80594 278.70645 402.82938 278.14395Q403.8528 277.58145 405.0872 277.58145Q406.4778 277.58145 407.43094 278.2924Q408.38406 279.00333 408.75906 280.3002L407.5403 280.58145Q407.2122 279.56583 406.6028 279.1049Q405.99344 278.64395 405.05594 278.64395Q403.9778 278.64395 403.25906 279.15958Q402.5403 279.6752 402.25125 280.53458Q401.9622 281.39395 401.9622 282.31583Q401.9622 283.50333 402.30594 284.39395Q402.6497 285.28458 403.37625 285.72208Q404.1028 286.15958 404.9622 286.15958Q405.99344 286.15958 406.7122 285.558Q407.43094 284.95645 407.68094 283.78458ZM410.10297 283.6752Q410.10297 281.8002 411.13422 280.90958Q412.00922 280.15958 413.25922 280.15958Q414.64984 280.15958 415.53265 281.06583Q416.41547 281.97208 416.41547 283.58145Q416.41547 284.87833 416.02484 285.62833Q415.63422 286.37833 414.88422 286.7924Q414.13422 287.20645 413.25922 287.20645Q411.83734 287.20645 410.97015 286.3002Q410.10297 285.39395 410.10297 283.6752ZM411.27484 283.6752Q411.27484 284.97208 411.83734 285.6205Q412.39984 286.26895 413.25922 286.26895Q414.10297 286.26895 414.67328 285.6205Q415.2436 284.97208 415.2436 283.64395Q415.2436 282.39395 414.67328 281.7455Q414.10297 281.09708 413.25922 281.09708Q412.39984 281.09708 411.83734 281.7377Q411.27484 282.37833 411.27484 283.6752ZM417.93732 287.0502L417.93732 280.31583L418.95294 280.31583L418.95294 281.25333Q419.28107 280.75333 419.8045 280.45645Q420.32794 280.15958 420.99982 280.15958Q421.74982 280.15958 422.22638 280.47208Q422.70294 280.78458 422.90607 281.33145Q423.70294 280.15958 424.9842 280.15958Q425.9842 280.15958 426.52325 280.71426Q427.06232 281.26895 427.06232 282.4252L427.06232 287.0502L425.93732 287.0502L425.93732 282.8002Q425.93732 282.1127 425.82794 281.81583Q425.71857 281.51895 425.4217 281.33145Q425.12482 281.14395 424.7342 281.14395Q424.01544 281.14395 423.5467 281.6205Q423.07794 282.09708 423.07794 283.12833L423.07794 287.0502L421.93732 287.0502L421.93732 282.6752Q421.93732 281.90958 421.65607 281.52676Q421.37482 281.14395 420.74982 281.14395Q420.26544 281.14395 419.8592 281.40176Q419.45294 281.65958 419.26544 282.14395Q419.07794 282.62833 419.07794 283.5502L419.07794 287.0502L417.93732 287.0502ZM429.03973 289.62833L429.03973 280.31583L430.07098 280.31583L430.07098 281.19083Q430.44598 280.6752 430.90692 280.4174Q431.36786 280.15958 432.03973 280.15958Q432.8991 280.15958 433.5554 280.6049Q434.21164 281.0502 434.54758 281.8549Q434.8835 282.65958 434.8835 283.62833Q434.8835 284.65958 434.51633 285.4877Q434.14914 286.31583 433.4382 286.76114Q432.72723 287.20645 431.94598 287.20645Q431.38348 287.20645 430.93036 286.96426Q430.47723 286.72208 430.18036 286.34708L430.18036 289.62833L429.03973 289.62833ZM430.07098 283.72208Q430.07098 285.01895 430.60223 285.64395Q431.13348 286.26895 431.86786 286.26895Q432.63348 286.26895 433.18036 285.6205Q433.72726 284.97208 433.72726 283.62833Q433.72726 282.33145 433.19598 281.69083Q432.66473 281.0502 431.93036 281.0502Q431.19598 281.0502 430.63348 281.7299Q430.07098 282.40958 430.07098 283.72208ZM436.03036 283.6752Q436.03036 281.8002 437.0616 280.90958Q437.9366 280.15958 439.1866 280.15958Q440.57724 280.15958 441.46005 281.06583Q442.34286 281.97208 442.34286 283.58145Q442.34286 284.87833 441.95224 285.62833Q441.5616 286.37833 440.8116 286.7924Q440.0616 287.20645 439.1866 287.20645Q437.76474 287.20645 436.89755 286.3002Q436.03036 285.39395 436.03036 283.6752ZM437.20224 283.6752Q437.20224 284.97208 437.76474 285.6205Q438.32724 286.26895 439.1866 286.26895Q440.03036 286.26895 440.60068 285.6205Q441.171 284.97208 441.171 283.64395Q441.171 282.39395 440.60068 281.7455Q440.03036 281.09708 439.1866 281.09708Q438.32724 281.09708 437.76474 281.7377Q437.20224 282.37833 437.20224 283.6752ZM443.86472 287.0502L443.86472 280.31583L444.89597 280.31583L444.89597 281.26895Q445.63034 280.15958 447.0366 280.15958Q447.64597 280.15958 448.15378 280.37833Q448.6616 280.59708 448.9194 280.94864Q449.17722 281.3002 449.27097 281.8002Q449.33347 282.1127 449.33347 282.90958L449.33347 287.0502L448.19284 287.0502L448.19284 282.95645Q448.19284 282.25333 448.06003 281.90958Q447.92722 281.56583 447.59128 281.3549Q447.25534 281.14395 446.80222 281.14395Q446.06784 281.14395 445.5366 281.6049Q445.00534 282.06583 445.00534 283.3627L445.00534 287.0502L443.86472 287.0502ZM455.88657 284.87833L457.07407 285.01895Q456.79282 286.06583 456.035 286.63614Q455.2772 287.20645 454.10532 287.20645Q452.62094 287.20645 451.75375 286.2924Q450.88657 285.37833 450.88657 283.7377Q450.88657 282.03458 451.76938 281.09708Q452.6522 280.15958 454.04282 280.15958Q455.4022 280.15958 456.25375 281.08145Q457.10532 282.00333 457.10532 283.65958Q457.10532 283.76895 457.10532 283.97208L452.07407 283.97208Q452.13657 285.08145 452.69907 285.6752Q453.26157 286.26895 454.10532 286.26895Q454.74594 286.26895 455.19125 285.933Q455.63657 285.59708 455.88657 284.87833ZM452.13657 283.03458L455.9022 283.03458Q455.82407 282.1752 455.4647 281.75333Q454.91782 281.09708 454.05844 281.09708Q453.26157 281.09708 452.73032 281.6205Q452.19907 282.14395 452.13657 283.03458ZM458.68967 287.0502L458.68967 280.31583L459.72092 280.31583L459.72092 281.26895Q460.4553 280.15958 461.86154 280.15958Q462.47092 280.15958 462.97873 280.37833Q463.48654 280.59708 463.74435 280.94864Q464.00217 281.3002 464.09592 281.8002Q464.15842 282.1127 464.15842 282.90958L464.15842 287.0502L463.0178 287.0502L463.0178 282.95645Q463.0178 282.25333 462.88498 281.90958Q462.75217 281.56583 462.41623 281.3549Q462.0803 281.14395 461.62717 281.14395Q460.8928 281.14395 460.36154 281.6049Q459.8303 282.06583 459.8303 283.3627L459.8303 287.0502L458.68967 287.0502ZM468.60214 286.03458L468.7584 287.03458Q468.27402 287.14395 467.89902 287.14395Q467.27402 287.14395 466.93027 286.94083Q466.58652 286.7377 466.4459 286.4174Q466.30527 286.09708 466.30527 285.08145L466.30527 281.19083L465.47714 281.19083L465.47714 280.31583L466.30527 280.31583L466.30527 278.64395L467.4459 277.95645L467.4459 280.31583L468.60214 280.31583L468.60214 281.19083L467.4459 281.19083L467.4459 285.14395Q467.4459 285.62833 467.5084 285.76895Q467.5709 285.90958 467.7037 285.9877Q467.83652 286.06583 468.08652 286.06583Q468.28964 286.06583 468.60214 286.03458ZM475.82074 282.9877L469.6645 285.6127L469.6645 284.47208L474.5395 282.45645L469.6645 280.44083L469.6645 279.31583L475.82074 281.90958L475.82074 282.9877ZM483.60416 282.9877L477.4479 285.6127L477.4479 284.47208L482.3229 282.45645L477.4479 280.44083L477.4479 279.31583L483.60416 281.90958L483.60416 282.9877Z" fill-rule="nonzero" fill="#000000"></path><path d="M403.80557 296.94083L403.80557 295.64395L405.10245 295.64395L405.10245 296.94083L403.80557 296.94083ZM403.80557 302.37833L403.80557 301.08145L405.10245 301.08145L405.10245 302.37833L403.80557 302.37833ZM407.1648 302.37833L407.1648 293.06583L408.30542 293.06583L408.30542 302.37833L407.1648 302.37833ZM410.15714 294.39395L410.15714 293.06583L411.29776 293.06583L411.29776 294.39395L410.15714 294.39395ZM410.15714 302.37833L410.15714 295.64395L411.29776 295.64395L411.29776 302.37833L410.15714 302.37833ZM414.1651 302.37833L413.1026 302.37833L413.1026 293.06583L414.25885 293.06583L414.25885 296.39395Q414.9776 295.4877 416.1026 295.4877Q416.7276 295.4877 417.2823 295.7377Q417.83698 295.9877 418.19635 296.44083Q418.55573 296.89395 418.75885 297.53458Q418.96198 298.1752 418.96198 298.90958Q418.96198 300.64395 418.1026 301.58926Q417.24323 302.53458 416.0401 302.53458Q414.8526 302.53458 414.1651 301.53458L414.1651 302.37833ZM414.14948 298.95645Q414.14948 300.1752 414.49323 300.70645Q415.02448 301.59708 415.94635 301.59708Q416.69635 301.59708 417.24323 300.94083Q417.7901 300.28458 417.7901 299.00333Q417.7901 297.6752 417.26666 297.0502Q416.74323 296.4252 415.99323 296.4252Q415.24323 296.4252 414.69635 297.07364Q414.14948 297.72208 414.14948 298.95645ZM420.24945 299.39395L421.42133 299.28458Q421.49945 299.9877 421.80414 300.433Q422.10883 300.87833 422.74164 301.15176Q423.37445 301.4252 424.17133 301.4252Q424.87445 301.4252 425.4135 301.22208Q425.95258 301.01895 426.2182 300.65176Q426.48383 300.28458 426.48383 299.84708Q426.48383 299.40958 426.226 299.08145Q425.9682 298.75333 425.39008 298.53458Q425.01508 298.39395 423.73383 298.08145Q422.45258 297.76895 421.93695 297.50333Q421.26508 297.15958 420.93695 296.63614Q420.60883 296.1127 420.60883 295.47208Q420.60883 294.76895 421.00726 294.15958Q421.4057 293.5502 422.17914 293.2299Q422.95258 292.90958 423.89008 292.90958Q424.92133 292.90958 425.7104 293.2455Q426.49945 293.58145 426.92914 294.2299Q427.35883 294.87833 427.39008 295.69083L426.20258 295.78458Q426.10883 294.89395 425.56195 294.44864Q425.01508 294.00333 423.93695 294.00333Q422.82758 294.00333 422.31195 294.40958Q421.79633 294.81583 421.79633 295.39395Q421.79633 295.89395 422.1557 296.22208Q422.51508 296.5502 424.01508 296.88614Q425.51508 297.22208 426.07758 297.47208Q426.89008 297.84708 427.2729 298.4252Q427.6557 299.00333 427.6557 299.75333Q427.6557 300.4877 427.23383 301.14395Q426.81195 301.8002 426.01508 302.1674Q425.2182 302.53458 424.2182 302.53458Q422.95258 302.53458 422.101 302.1674Q421.24945 301.8002 420.76508 301.058Q420.2807 300.31583 420.24945 299.39395ZM431.92047 301.3627L432.07672 302.3627Q431.59235 302.47208 431.21735 302.47208Q430.59235 302.47208 430.2486 302.26895Q429.90485 302.06583 429.76422 301.7455Q429.6236 301.4252 429.6236 300.40958L429.6236 296.51895L428.79547 296.51895L428.79547 295.64395L429.6236 295.64395L429.6236 293.97208L430.76422 293.28458L430.76422 295.64395L431.92047 295.64395L431.92047 296.51895L430.76422 296.51895L430.76422 300.47208Q430.76422 300.95645 430.82672 301.09708Q430.88922 301.2377 431.02203 301.31583Q431.15485 301.39395 431.40485 301.39395Q431.60797 301.39395 431.92047 301.3627ZM432.70157 299.00333Q432.70157 297.12833 433.73285 296.2377Q434.60785 295.4877 435.85785 295.4877Q437.24847 295.4877 438.1313 296.39395Q439.0141 297.3002 439.0141 298.90958Q439.0141 300.20645 438.62347 300.95645Q438.23285 301.70645 437.48285 302.1205Q436.73285 302.53458 435.85785 302.53458Q434.43597 302.53458 433.5688 301.62833Q432.70157 300.72208 432.70157 299.00333ZM433.87347 299.00333Q433.87347 300.3002 434.43597 300.94864Q434.99847 301.59708 435.85785 301.59708Q436.7016 301.59708 437.2719 300.94864Q437.84222 300.3002 437.84222 298.97208Q437.84222 297.72208 437.2719 297.07364Q436.7016 296.4252 435.85785 296.4252Q434.99847 296.4252 434.43597 297.06583Q433.87347 297.70645 433.87347 299.00333ZM440.52032 302.37833L440.52032 295.64395L441.55157 295.64395L441.55157 296.65958Q441.9422 295.94083 442.27814 295.71426Q442.61407 295.4877 443.0047 295.4877Q443.58282 295.4877 444.17657 295.84708L443.78595 296.90958Q443.36407 296.65958 442.95782 296.65958Q442.58282 296.65958 442.27814 296.88614Q441.97345 297.1127 441.84845 297.51895Q441.66095 298.12833 441.66095 298.84708L441.66095 302.37833L440.52032 302.37833ZM449.36493 301.5502Q448.73993 302.08145 448.154 302.308Q447.56805 302.53458 446.89618 302.53458Q445.77118 302.53458 445.17743 301.9877Q444.58368 301.44083 444.58368 300.59708Q444.58368 300.1127 444.81024 299.69864Q445.0368 299.28458 445.404 299.03458Q445.77118 298.78458 446.2243 298.65958Q446.55243 298.58145 447.23993 298.4877Q448.61493 298.33145 449.27118 298.09708Q449.2868 297.8627 449.2868 297.8002Q449.2868 297.09708 448.95868 296.81583Q448.52118 296.4252 447.6618 296.4252Q446.8493 296.4252 446.4665 296.70645Q446.08368 296.9877 445.89618 297.70645L444.7868 297.56583Q444.92743 296.84708 445.279 296.40176Q445.63055 295.95645 446.29462 295.72208Q446.95868 295.4877 447.81805 295.4877Q448.69305 295.4877 449.23212 295.69083Q449.77118 295.89395 450.02118 296.19864Q450.27118 296.50333 450.38055 296.97208Q450.42743 297.26895 450.42743 298.03458L450.42743 299.5502Q450.42743 301.14395 450.50555 301.56583Q450.58368 301.9877 450.7868 302.37833L449.5993 302.37833Q449.42743 302.01895 449.36493 301.5502ZM449.27118 298.9877Q448.64618 299.25333 447.4118 299.4252Q446.70868 299.53458 446.4118 299.65958Q446.11493 299.78458 445.95868 300.02676Q445.80243 300.26895 445.80243 300.56583Q445.80243 301.01895 446.14618 301.32364Q446.48993 301.62833 447.1618 301.62833Q447.81805 301.62833 448.33368 301.33926Q448.8493 301.0502 449.0993 300.5502Q449.27118 300.1752 449.27118 299.40958L449.27118 298.9877ZM452.16803 302.94083L453.29303 303.09708Q453.35553 303.6127 453.66803 303.84708Q454.10553 304.1752 454.8399 304.1752Q455.62115 304.1752 456.05865 303.8549Q456.49615 303.53458 456.63678 302.95645Q456.73053 302.6127 456.73053 301.50333Q455.98053 302.37833 454.85553 302.37833Q453.4649 302.37833 452.7071 301.37833Q451.94928 300.37833 451.94928 298.97208Q451.94928 298.00333 452.30084 297.19083Q452.6524 296.37833 453.30865 295.933Q453.9649 295.4877 454.87115 295.4877Q456.05865 295.4877 456.8399 296.45645L456.8399 295.64395L457.88678 295.64395L457.88678 301.45645Q457.88678 303.03458 457.56647 303.69083Q457.24615 304.34708 456.55084 304.7299Q455.85553 305.1127 454.8399 305.1127Q453.63678 305.1127 452.8946 304.57364Q452.1524 304.03458 452.16803 302.94083ZM453.12115 298.89395Q453.12115 300.20645 453.6446 300.81583Q454.16803 301.4252 454.9649 301.4252Q455.76178 301.4252 456.29303 300.82364Q456.82428 300.22208 456.82428 298.9252Q456.82428 297.69083 456.2774 297.058Q455.73053 296.4252 454.94928 296.4252Q454.18365 296.4252 453.6524 297.0502Q453.12115 297.6752 453.12115 298.89395ZM464.40863 300.20645L465.59613 300.34708Q465.31488 301.39395 464.55707 301.96426Q463.79926 302.53458 462.62738 302.53458Q461.143 302.53458 460.27582 301.6205Q459.40863 300.70645 459.40863 299.06583Q459.40863 297.3627 460.29144 296.4252Q461.17426 295.4877 462.56488 295.4877Q463.92426 295.4877 464.77582 296.40958Q465.62738 297.33145 465.62738 298.9877Q465.62738 299.09708 465.62738 299.3002L460.59613 299.3002Q460.65863 300.40958 461.22113 301.00333Q461.78363 301.59708 462.62738 301.59708Q463.268 301.59708 463.71332 301.26114Q464.15863 300.9252 464.40863 300.20645ZM460.65863 298.3627L464.42426 298.3627Q464.34613 297.50333 463.98676 297.08145Q463.43988 296.4252 462.5805 296.4252Q461.78363 296.4252 461.25238 296.94864Q460.72113 297.47208 460.65863 298.3627Z" fill-rule="nonzero" fill="#000000"></path><path d="M377.68677 192.84789L377.68677 191.30101L386.68677 187.48851L386.68677 189.14476L379.54614 192.08226L386.68677 195.05101L386.68677 196.70726L377.68677 192.84789ZM388.58173 192.84789L388.58173 191.30101L397.58173 187.48851L397.58173 189.14476L390.4411 192.08226L397.58173 195.05101L397.58173 196.70726L388.58173 192.84789ZM399.6798 202.58226L399.6798 188.94164L401.21106 188.94164L401.21106 190.22289Q401.7423 189.47289 402.422 189.09789Q403.10168 188.72289 404.0548 188.72289Q405.32043 188.72289 406.28918 189.37132Q407.25793 190.01976 407.75012 191.20726Q408.2423 192.39476 408.2423 193.80101Q408.2423 195.31664 407.69543 196.52757Q407.14856 197.73851 406.1173 198.37914Q405.08606 199.01976 403.94543 199.01976Q403.10168 199.01976 402.43762 198.6682Q401.77356 198.31664 401.35168 197.78539L401.35168 202.58226L399.6798 202.58226ZM401.19543 193.92601Q401.19543 195.83226 401.96887 196.73851Q402.7423 197.64476 403.83606 197.64476Q404.94543 197.64476 405.7345 196.70726Q406.52356 195.76976 406.52356 193.78539Q406.52356 191.91039 405.75012 190.97289Q404.97668 190.03539 403.89856 190.03539Q402.83606 190.03539 402.01575 191.03539Q401.19543 192.03539 401.19543 193.92601ZM410.0399 198.80101L410.0399 188.94164L411.5399 188.94164L411.5399 190.44164Q412.118 189.39476 412.6024 189.05882Q413.08676 188.72289 413.6805 188.72289Q414.52426 188.72289 415.39926 189.26976L414.82114 190.81664Q414.21176 190.45726 413.58676 190.45726Q413.0399 190.45726 412.6102 190.78539Q412.1805 191.11351 411.993 191.69164Q411.71176 192.58226 411.71176 193.64476L411.71176 198.80101L410.0399 198.80101ZM415.6432 193.87914Q415.6432 191.14476 417.17444 189.81664Q418.44006 188.72289 420.2682 188.72289Q422.29944 188.72289 423.5885 190.05882Q424.87756 191.39476 424.87756 193.73851Q424.87756 195.64476 424.30725 196.7307Q423.73694 197.81664 422.651 198.4182Q421.56506 199.01976 420.2682 199.01976Q418.2057 199.01976 416.92444 197.69164Q415.6432 196.36351 415.6432 193.87914ZM417.36194 193.87914Q417.36194 195.76976 418.19006 196.70726Q419.0182 197.64476 420.2682 197.64476Q421.5182 197.64476 422.3385 196.69945Q423.1588 195.75414 423.1588 193.81664Q423.1588 191.98851 422.3307 191.05101Q421.50256 190.11351 420.2682 190.11351Q419.0182 190.11351 418.19006 191.05101Q417.36194 191.98851 417.36194 193.87914ZM433.08142 195.19164L434.72205 195.41039Q434.45642 197.09789 433.34705 198.05882Q432.23767 199.01976 430.61267 199.01976Q428.59705 199.01976 427.37048 197.69945Q426.14392 196.37914 426.14392 193.91039Q426.14392 192.31664 426.66736 191.12132Q427.1908 189.92601 428.27673 189.32445Q429.36267 188.72289 430.6283 188.72289Q432.23767 188.72289 433.2533 189.53539Q434.26892 190.34789 434.5658 191.84789L432.9408 192.09789Q432.70642 191.09789 432.11267 190.59789Q431.51892 190.09789 430.6908 190.09789Q429.42517 190.09789 428.6361 191.00414Q427.84705 191.91039 427.84705 193.86351Q427.84705 195.84789 428.61267 196.74632Q429.3783 197.64476 430.59705 197.64476Q431.58142 197.64476 432.23767 197.0432Q432.89392 196.44164 433.08142 195.19164ZM442.72205 195.62914L444.4408 195.84789Q444.03455 197.34789 442.93298 198.18382Q441.83142 199.01976 440.11267 199.01976Q437.95642 199.01976 436.6908 197.69164Q435.42517 196.36351 435.42517 193.95726Q435.42517 191.47289 436.6986 190.09789Q437.97205 188.72289 440.01892 188.72289Q442.0033 188.72289 443.2533 190.06664Q444.5033 191.41039 444.5033 193.86351Q444.5033 194.00414 444.48767 194.30101L437.14392 194.30101Q437.23767 195.92601 438.0658 196.78539Q438.89392 197.64476 440.1283 197.64476Q441.03455 197.64476 441.68298 197.1682Q442.33142 196.69164 442.72205 195.62914ZM437.23767 192.92601L442.73767 192.92601Q442.6283 191.69164 442.11267 191.06664Q441.3158 190.09789 440.03455 190.09789Q438.89392 190.09789 438.10486 190.87132Q437.3158 191.64476 437.23767 192.92601ZM445.67587 195.86351L447.33212 195.59789Q447.47275 196.59789 448.10556 197.12132Q448.73837 197.64476 449.879 197.64476Q451.03525 197.64476 451.58994 197.17601Q452.14462 196.70726 452.14462 196.08226Q452.14462 195.51976 451.66025 195.19164Q451.3165 194.97289 449.95712 194.62914Q448.11337 194.16039 447.40244 193.82445Q446.6915 193.48851 446.3243 192.88695Q445.95712 192.28539 445.95712 191.56664Q445.95712 190.91039 446.2618 190.34789Q446.5665 189.78539 447.08212 189.41039Q447.47275 189.12914 448.14462 188.92601Q448.8165 188.72289 449.58212 188.72289Q450.754 188.72289 451.629 189.05882Q452.504 189.39476 452.91806 189.96507Q453.33212 190.53539 453.48837 191.48851L451.86337 191.70726Q451.754 190.95726 451.21494 190.52757Q450.67587 190.09789 449.70712 190.09789Q448.55087 190.09789 448.0665 190.4807Q447.58212 190.86351 447.58212 191.36351Q447.58212 191.69164 447.78525 191.95726Q447.98837 192.22289 448.42587 192.39476Q448.67587 192.48851 449.89462 192.83226Q451.66025 193.30101 452.36337 193.59789Q453.0665 193.89476 453.46494 194.47289Q453.86337 195.05101 453.86337 195.91039Q453.86337 196.73851 453.379 197.4807Q452.89462 198.22289 451.97275 198.62132Q451.05087 199.01976 449.89462 199.01976Q447.97275 199.01976 446.96494 198.22289Q445.95712 197.42601 445.67587 195.86351ZM455.004 195.86351L456.66025 195.59789Q456.80087 196.59789 457.4337 197.12132Q458.0665 197.64476 459.20712 197.64476Q460.36337 197.64476 460.91806 197.17601Q461.47275 196.70726 461.47275 196.08226Q461.47275 195.51976 460.98837 195.19164Q460.64462 194.97289 459.28525 194.62914Q457.4415 194.16039 456.73056 193.82445Q456.01962 193.48851 455.65244 192.88695Q455.28525 192.28539 455.28525 191.56664Q455.28525 190.91039 455.58994 190.34789Q455.89462 189.78539 456.41025 189.41039Q456.80087 189.12914 457.47275 188.92601Q458.14462 188.72289 458.91025 188.72289Q460.08212 188.72289 460.95712 189.05882Q461.83212 189.39476 462.2462 189.96507Q462.66025 190.53539 462.8165 191.48851L461.1915 191.70726Q461.08212 190.95726 460.54306 190.52757Q460.004 190.09789 459.03525 190.09789Q457.879 190.09789 457.39462 190.4807Q456.91025 190.86351 456.91025 191.36351Q456.91025 191.69164 457.11337 191.95726Q457.3165 192.22289 457.754 192.39476Q458.004 192.48851 459.22275 192.83226Q460.98837 193.30101 461.6915 193.59789Q462.39462 193.89476 462.79306 194.47289Q463.1915 195.05101 463.1915 195.91039Q463.1915 196.73851 462.70712 197.4807Q462.22275 198.22289 461.30087 198.62132Q460.379 199.01976 459.22275 199.01976Q457.30087 199.01976 456.29306 198.22289Q455.28525 197.42601 455.004 195.86351ZM473.80087 192.84789L464.80087 196.70726L464.80087 195.05101L471.92587 192.08226L464.80087 189.14476L464.80087 187.48851L473.80087 191.30101L473.80087 192.84789ZM484.69583 192.84789L475.69583 196.70726L475.69583 195.05101L482.82083 192.08226L475.69583 189.14476L475.69583 187.48851L484.69583 191.30101L484.69583 192.84789Z" fill-rule="nonzero" fill="#000000"></path><path d="M369.0442 212.30101L369.0442 210.39476L370.95044 210.39476L370.95044 212.30101L369.0442 212.30101ZM369.0442 220.25414L369.0442 218.34789L370.95044 218.34789L370.95044 220.25414L369.0442 220.25414ZM380.19623 219.03539Q379.25873 219.83226 378.39935 220.15257Q377.53998 220.47289 376.5556 220.47289Q374.94623 220.47289 374.07123 219.68382Q373.19623 218.89476 373.19623 217.66039Q373.19623 216.92601 373.52435 216.33226Q373.85248 215.73851 374.38373 215.37914Q374.91498 215.01976 375.58685 214.83226Q376.08685 214.69164 377.07123 214.58226Q379.10248 214.33226 380.0556 214.00414Q380.0556 213.66039 380.0556 213.56664Q380.0556 212.55101 379.58685 212.12914Q378.94623 211.56664 377.6806 211.56664Q376.50873 211.56664 375.94623 211.97289Q375.38373 212.37914 375.1181 213.44164L373.47748 213.20726Q373.71185 212.16039 374.21967 211.51976Q374.72748 210.87914 375.68842 210.52757Q376.64935 210.17601 377.9306 210.17601Q379.19623 210.17601 379.97748 210.47289Q380.75873 210.76976 381.13373 211.22289Q381.50873 211.67601 381.64935 212.36351Q381.7431 212.78539 381.7431 213.89476L381.7431 216.12914Q381.7431 218.45726 381.84467 219.07445Q381.94623 219.69164 382.27435 220.25414L380.52435 220.25414Q380.25873 219.73851 380.19623 219.03539ZM380.0556 215.31664Q379.14935 215.67601 377.32123 215.94164Q376.28998 216.08226 375.8681 216.26976Q375.44623 216.45726 375.21185 216.81664Q374.97748 217.17601 374.97748 217.61351Q374.97748 218.28539 375.4853 218.7307Q375.9931 219.17601 376.96185 219.17601Q377.9306 219.17601 378.6806 218.74632Q379.4306 218.31664 379.78998 217.59789Q380.0556 217.01976 380.0556 215.92601L380.0556 215.31664ZM384.11884 220.25414L384.11884 210.39476L385.61884 210.39476L385.61884 211.89476Q386.19696 210.84789 386.68134 210.51195Q387.1657 210.17601 387.75946 210.17601Q388.6032 210.17601 389.4782 210.72289L388.9001 212.26976Q388.2907 211.91039 387.6657 211.91039Q387.11884 211.91039 386.68915 212.23851Q386.25946 212.56664 386.07196 213.14476Q385.7907 214.03539 385.7907 215.09789L385.7907 220.25414L384.11884 220.25414ZM396.78464 216.64476L398.42526 216.86351Q398.15964 218.55101 397.05026 219.51195Q395.9409 220.47289 394.3159 220.47289Q392.30026 220.47289 391.0737 219.15257Q389.84714 217.83226 389.84714 215.36351Q389.84714 213.76976 390.37057 212.57445Q390.894 211.37914 391.97995 210.77757Q393.0659 210.17601 394.3315 210.17601Q395.9409 210.17601 396.9565 210.98851Q397.97214 211.80101 398.269 213.30101L396.644 213.55101Q396.40964 212.55101 395.8159 212.05101Q395.22214 211.55101 394.394 211.55101Q393.1284 211.55101 392.33932 212.45726Q391.55026 213.36351 391.55026 215.31664Q391.55026 217.30101 392.3159 218.19945Q393.0815 219.09789 394.30026 219.09789Q395.28464 219.09789 395.9409 218.49632Q396.59714 217.89476 396.78464 216.64476ZM399.67526 220.25414L399.67526 206.66039L401.34714 206.66039L401.34714 211.53539Q402.519 210.17601 404.30026 210.17601Q405.394 210.17601 406.1987 210.6057Q407.0034 211.03539 407.35495 211.80101Q407.7065 212.56664 407.7065 214.00414L407.7065 220.25414L406.03464 220.25414L406.03464 214.00414Q406.03464 212.75414 405.48776 212.18382Q404.9409 211.61351 403.9565 211.61351Q403.2065 211.61351 402.55807 211.99632Q401.90964 212.37914 401.6284 213.0432Q401.34714 213.70726 401.34714 214.86351L401.34714 220.25414L399.67526 220.25414ZM410.0666 208.56664L410.0666 206.66039L411.73846 206.66039L411.73846 208.56664L410.0666 208.56664ZM410.0666 220.25414L410.0666 210.39476L411.73846 210.39476L411.73846 220.25414L410.0666 220.25414ZM416.93018 220.25414L413.18018 210.39476L414.9458 210.39476L417.0708 216.30101Q417.41455 217.25414 417.6958 218.28539Q417.91455 217.50414 418.3208 216.41039L420.5083 210.39476L422.22705 210.39476L418.49268 220.25414L416.93018 220.25414ZM430.27393 217.08226L431.99268 217.30101Q431.58643 218.80101 430.48486 219.63695Q429.3833 220.47289 427.66455 220.47289Q425.5083 220.47289 424.24268 219.14476Q422.97705 217.81664 422.97705 215.41039Q422.97705 212.92601 424.2505 211.55101Q425.52393 210.17601 427.5708 210.17601Q429.55518 210.17601 430.80518 211.51976Q432.05518 212.86351 432.05518 215.31664Q432.05518 215.45726 432.03955 215.75414L424.6958 215.75414Q424.78955 217.37914 425.61768 218.23851Q426.4458 219.09789 427.68018 219.09789Q428.58643 219.09789 429.23486 218.62132Q429.8833 218.14476 430.27393 217.08226ZM424.78955 214.37914L430.28955 214.37914Q430.18018 213.14476 429.66455 212.51976Q428.86768 211.55101 427.58643 211.55101Q426.4458 211.55101 425.65674 212.32445Q424.86768 213.09789 424.78955 214.37914ZM433.509 215.87914L435.1965 215.73851Q435.3215 216.75414 435.759 217.41039Q436.1965 218.06664 437.1262 218.47289Q438.05588 218.87914 439.21213 218.87914Q440.24338 218.87914 441.03244 218.56664Q441.8215 218.25414 442.21213 217.72289Q442.60275 217.19164 442.60275 216.56664Q442.60275 215.92601 442.22775 215.44945Q441.85275 214.97289 440.99338 214.64476Q440.4465 214.42601 438.5715 213.9807Q436.6965 213.53539 435.9465 213.12914Q434.97775 212.61351 434.5012 211.86351Q434.02463 211.11351 434.02463 210.17601Q434.02463 209.14476 434.61057 208.24632Q435.1965 207.34789 436.3137 206.88695Q437.43088 206.42601 438.80588 206.42601Q440.3215 206.42601 441.47775 206.91039Q442.634 207.39476 443.2512 208.34007Q443.86838 209.28539 443.91525 210.48851L442.1965 210.61351Q442.05588 209.33226 441.2512 208.6682Q440.4465 208.00414 438.884 208.00414Q437.259 208.00414 436.509 208.6057Q435.759 209.20726 435.759 210.05101Q435.759 210.78539 436.29025 211.25414Q436.80588 211.72289 439.0012 212.22289Q441.1965 212.72289 442.009 213.09789Q443.1965 213.64476 443.7668 214.4807Q444.33713 215.31664 444.33713 216.41039Q444.33713 217.50414 443.71213 218.46507Q443.08713 219.42601 441.92307 219.95726Q440.759 220.48851 439.30588 220.48851Q437.46213 220.48851 436.21213 219.94945Q434.96213 219.41039 434.2512 218.33226Q433.54025 217.25414 433.509 215.87914ZM453.0932 217.08226L454.81195 217.30101Q454.4057 218.80101 453.30414 219.63695Q452.20258 220.47289 450.48383 220.47289Q448.32758 220.47289 447.06195 219.14476Q445.79633 217.81664 445.79633 215.41039Q445.79633 212.92601 447.06976 211.55101Q448.3432 210.17601 450.39008 210.17601Q452.37445 210.17601 453.62445 211.51976Q454.87445 212.86351 454.87445 215.31664Q454.87445 215.45726 454.85883 215.75414L447.51508 215.75414Q447.60883 217.37914 448.43695 218.23851Q449.26508 219.09789 450.49945 219.09789Q451.4057 219.09789 452.05414 218.62132Q452.70258 218.14476 453.0932 217.08226ZM447.60883 214.37914L453.10883 214.37914Q452.99945 213.14476 452.48383 212.51976Q451.68695 211.55101 450.4057 211.55101Q449.26508 211.55101 448.476 212.32445Q447.68695 213.09789 447.60883 214.37914ZM456.7033 220.25414L456.7033 210.39476L458.2033 210.39476L458.2033 211.89476Q458.78143 210.84789 459.2658 210.51195Q459.75018 210.17601 460.34393 210.17601Q461.18768 210.17601 462.06268 210.72289L461.48456 212.26976Q460.87518 211.91039 460.25018 211.91039Q459.7033 211.91039 459.27362 212.23851Q458.84393 212.56664 458.65643 213.14476Q458.37518 214.03539 458.37518 215.09789L458.37518 220.25414L456.7033 220.25414ZM465.666 220.25414L461.916 210.39476L463.6816 210.39476L465.8066 216.30101Q466.15036 217.25414 466.4316 218.28539Q466.65036 217.50414 467.0566 216.41039L469.2441 210.39476L470.96286 210.39476L467.2285 220.25414L465.666 220.25414ZM472.27536 208.56664L472.27536 206.66039L473.94724 206.66039L473.94724 208.56664L472.27536 208.56664ZM472.27536 220.25414L472.27536 210.39476L473.94724 210.39476L473.94724 220.25414L472.27536 220.25414ZM482.84204 216.64476L484.48267 216.86351Q484.21704 218.55101 483.10767 219.51195Q481.9983 220.47289 480.3733 220.47289Q478.35767 220.47289 477.1311 219.15257Q475.90454 217.83226 475.90454 215.36351Q475.90454 213.76976 476.42798 212.57445Q476.95142 211.37914 478.03735 210.77757Q479.1233 210.17601 480.38892 210.17601Q481.9983 210.17601 483.01392 210.98851Q484.02954 211.80101 484.32642 213.30101L482.70142 213.55101Q482.46704 212.55101 481.8733 212.05101Q481.27954 211.55101 480.45142 211.55101Q479.1858 211.55101 478.39673 212.45726Q477.60767 213.36351 477.60767 215.31664Q477.60767 217.30101 478.3733 218.19945Q479.13892 219.09789 480.35767 219.09789Q481.34204 219.09789 481.9983 218.49632Q482.65454 217.89476 482.84204 216.64476ZM492.48267 217.08226L494.20142 217.30101Q493.79517 218.80101 492.6936 219.63695Q491.59204 220.47289 489.8733 220.47289Q487.71704 220.47289 486.45142 219.14476Q485.1858 217.81664 485.1858 215.41039Q485.1858 212.92601 486.45923 211.55101Q487.73267 210.17601 489.77954 210.17601Q491.76392 210.17601 493.01392 211.51976Q494.26392 212.86351 494.26392 215.31664Q494.26392 215.45726 494.2483 215.75414L486.90454 215.75414Q486.9983 217.37914 487.82642 218.23851Q488.65454 219.09789 489.88892 219.09789Q490.79517 219.09789 491.4436 218.62132Q492.09204 218.14476 492.48267 217.08226ZM486.9983 214.37914L492.4983 214.37914Q492.38892 213.14476 491.8733 212.51976Q491.07642 211.55101 489.79517 211.55101Q488.65454 211.55101 487.86548 212.32445Q487.07642 213.09789 486.9983 214.37914Z" fill-rule="nonzero" fill="#000000"></path><path d="M196.415 266.82028L285.97073 267.49307" fill-rule="nonzero" stroke="#000000" stroke-width="2.0" stroke-linejoin="round" stroke-linecap="butt"></path><path d="M492.78986 370.2235L485.9876 363.42126L355.56152 363.42126L355.56152 448.96548L362.36377 455.76773L492.78986 455.76773ZM492.78986 370.2235L362.36377 370.2235L355.56152 363.42126M362.36377 370.2235L362.36377 455.76773" fill-rule="nonzero" stroke="#000000" stroke-width="2.0" stroke-linejoin="round" stroke-linecap="butt"></path><path d="M401.99072 405.66748L401.99072 404.58936L408.14697 401.9956L408.14697 403.1206L403.25635 405.13623L408.14697 407.15186L408.14697 408.29248L401.99072 405.66748ZM409.77414 405.66748L409.77414 404.58936L415.9304 401.9956L415.9304 403.1206L411.03976 405.13623L415.9304 407.15186L415.9304 408.29248L409.77414 405.66748ZM417.9013 409.72998L417.9013 400.41748L424.18256 400.41748L424.18256 401.52686L419.13568 401.52686L419.13568 404.40186L423.51068 404.40186L423.51068 405.4956L419.13568 405.4956L419.13568 409.72998L417.9013 409.72998ZM425.83954 401.7456L425.83954 400.41748L426.98016 400.41748L426.98016 401.7456L425.83954 401.7456ZM425.83954 409.72998L425.83954 402.9956L426.98016 402.9956L426.98016 409.72998L425.83954 409.72998ZM428.76938 409.72998L428.76938 400.41748L429.91 400.41748L429.91 409.72998L428.76938 409.72998ZM436.3711 407.5581L437.5586 407.69873Q437.27734 408.7456 436.51953 409.31592Q435.76172 409.88623 434.58984 409.88623Q433.10547 409.88623 432.23828 408.97217Q431.3711 408.0581 431.3711 406.41748Q431.3711 404.71436 432.2539 403.77686Q433.13672 402.83936 434.52734 402.83936Q435.88672 402.83936 436.73828 403.76123Q437.58984 404.6831 437.58984 406.33936Q437.58984 406.44873 437.58984 406.65186L432.5586 406.65186Q432.6211 407.76123 433.1836 408.35498Q433.7461 408.94873 434.58984 408.94873Q435.23047 408.94873 435.67578 408.6128Q436.1211 408.27686 436.3711 407.5581ZM432.6211 405.71436L436.38672 405.71436Q436.3086 404.85498 435.94922 404.4331Q435.40234 403.77686 434.54297 403.77686Q433.7461 403.77686 433.21484 404.3003Q432.6836 404.82373 432.6211 405.71436ZM445.18982 405.66748L439.03357 408.29248L439.03357 407.15186L443.90857 405.13623L439.03357 403.1206L439.03357 401.9956L445.18982 404.58936L445.18982 405.66748ZM452.97324 405.66748L446.817 408.29248L446.817 407.15186L451.692 405.13623L446.817 403.1206L446.817 401.9956L452.97324 404.58936L452.97324 405.66748Z" fill-rule="nonzero" fill="#000000"></path><path d="M375.78757 419.6206L375.78757 418.32373L377.08444 418.32373L377.08444 419.6206L375.78757 419.6206ZM375.78757 425.0581L375.78757 423.76123L377.08444 423.76123L377.08444 425.0581L375.78757 425.0581ZM379.34995 425.0581L379.34995 415.7456L386.0687 415.7456L386.0687 416.85498L380.58432 416.85498L380.58432 419.69873L385.72495 419.69873L385.72495 420.79248L380.58432 420.79248L380.58432 423.96436L386.28745 423.96436L386.28745 425.0581L379.34995 425.0581ZM388.20844 425.0581L388.20844 415.7456L391.72406 415.7456Q392.64594 415.7456 393.1303 415.83936Q393.8178 415.94873 394.28656 416.26904Q394.7553 416.58936 395.03656 417.16748Q395.3178 417.7456 395.3178 418.44873Q395.3178 419.63623 394.56 420.45654Q393.8022 421.27686 391.83344 421.27686L389.4428 421.27686L389.4428 425.0581L388.20844 425.0581ZM389.4428 420.1831L391.84906 420.1831Q393.03656 420.1831 393.54437 419.7378Q394.0522 419.29248 394.0522 418.47998Q394.0522 417.90186 393.7553 417.4878Q393.45844 417.07373 392.97406 416.9331Q392.66156 416.85498 391.8178 416.85498L389.4428 416.85498L389.4428 420.1831ZM397.31696 425.0581L397.31696 415.7456L398.5357 415.7456L398.5357 425.0581L397.31696 425.0581ZM407.4418 421.79248L408.67618 422.10498Q408.28555 423.6206 407.27774 424.41748Q406.26993 425.21436 404.8168 425.21436Q403.3168 425.21436 402.3715 424.60498Q401.42618 423.9956 400.934 422.83154Q400.4418 421.66748 400.4418 420.33936Q400.4418 418.88623 401.0043 417.8003Q401.5668 416.71436 402.59024 416.15186Q403.61368 415.58936 404.84805 415.58936Q406.23868 415.58936 407.1918 416.3003Q408.14493 417.01123 408.51993 418.3081L407.30118 418.58936Q406.97305 417.57373 406.36368 417.1128Q405.7543 416.65186 404.8168 416.65186Q403.73868 416.65186 403.01993 417.16748Q402.30118 417.6831 402.01212 418.54248Q401.72305 419.40186 401.72305 420.32373Q401.72305 421.51123 402.0668 422.40186Q402.41055 423.29248 403.13712 423.72998Q403.86368 424.16748 404.72305 424.16748Q405.7543 424.16748 406.47305 423.56592Q407.1918 422.96436 407.4418 421.79248ZM410.00446 422.07373L411.17633 421.96436Q411.25446 422.66748 411.55914 423.1128Q411.86383 423.5581 412.49664 423.83154Q413.12946 424.10498 413.92633 424.10498Q414.62946 424.10498 415.16852 423.90186Q415.70758 423.69873 415.9732 423.33154Q416.23883 422.96436 416.23883 422.52686Q416.23883 422.08936 415.98102 421.76123Q415.7232 421.4331 415.14508 421.21436Q414.77008 421.07373 413.48883 420.76123Q412.20758 420.44873 411.69196 420.1831Q411.02008 419.83936 410.69196 419.31592Q410.36383 418.79248 410.36383 418.15186Q410.36383 417.44873 410.76227 416.83936Q411.1607 416.22998 411.93414 415.90967Q412.70758 415.58936 413.64508 415.58936Q414.67633 415.58936 415.4654 415.9253Q416.25446 416.26123 416.68414 416.90967Q417.11383 417.5581 417.14508 418.3706L415.95758 418.46436Q415.86383 417.57373 415.31696 417.12842Q414.77008 416.6831 413.69196 416.6831Q412.58258 416.6831 412.06696 417.08936Q411.55133 417.4956 411.55133 418.07373Q411.55133 418.57373 411.9107 418.90186Q412.27008 419.22998 413.77008 419.56592Q415.27008 419.90186 415.83258 420.15186Q416.64508 420.52686 417.0279 421.10498Q417.4107 421.6831 417.4107 422.4331Q417.4107 423.16748 416.98883 423.82373Q416.56696 424.47998 415.77008 424.84717Q414.9732 425.21436 413.9732 425.21436Q412.70758 425.21436 411.85602 424.84717Q411.00446 424.47998 410.52008 423.7378Q410.0357 422.9956 410.00446 422.07373ZM421.05048 425.0581L418.48798 418.32373L419.6911 418.32373L421.1286 422.35498Q421.36298 423.01123 421.5661 423.71436Q421.72235 423.1831 421.98798 422.4331L423.48798 418.32373L424.65985 418.32373L422.11298 425.0581L421.05048 425.0581ZM425.52704 422.60498L426.66766 422.44873Q426.8708 423.41748 427.33954 423.84717Q427.8083 424.27686 428.4958 424.27686Q429.29266 424.27686 429.84735 423.72217Q430.40204 423.16748 430.40204 422.33936Q430.40204 421.54248 429.89423 421.03467Q429.3864 420.52686 428.58954 420.52686Q428.2614 420.52686 427.77704 420.65186L427.90204 419.65186Q428.02704 419.66748 428.08954 419.66748Q428.8239 419.66748 429.40985 419.28467Q429.9958 418.90186 429.9958 418.10498Q429.9958 417.47998 429.5661 417.06592Q429.1364 416.65186 428.46454 416.65186Q427.79266 416.65186 427.35516 417.07373Q426.91766 417.4956 426.77704 418.32373L425.6364 418.1206Q425.85516 416.97998 426.59735 416.34717Q427.33954 415.71436 428.4333 415.71436Q429.1989 415.71436 429.83954 416.04248Q430.48016 416.3706 430.8239 416.9331Q431.16766 417.4956 431.16766 418.13623Q431.16766 418.72998 430.83954 419.22998Q430.5114 419.72998 429.8864 420.01123Q430.6989 420.21436 431.15985 420.8081Q431.6208 421.40186 431.6208 422.3081Q431.6208 423.52686 430.73016 424.37842Q429.83954 425.22998 428.48016 425.22998Q427.2614 425.22998 426.4489 424.4956Q425.6364 423.76123 425.52704 422.60498ZM436.08002 425.0581L439.65814 415.7456L440.97064 415.7456L444.78314 425.0581L443.3769 425.0581L442.29877 422.2456L438.40814 422.2456L437.3769 425.0581L436.08002 425.0581ZM438.76752 421.22998L441.92377 421.22998L440.9394 418.65186Q440.5019 417.47998 440.28314 416.72998Q440.11127 417.6206 439.78314 418.51123L438.76752 421.22998ZM445.82913 425.0581L445.82913 418.32373L446.86038 418.32373L446.86038 419.33936Q447.251 418.6206 447.58694 418.39404Q447.92288 418.16748 448.3135 418.16748Q448.89163 418.16748 449.48538 418.52686L449.09476 419.58936Q448.67288 419.33936 448.26663 419.33936Q447.89163 419.33936 447.58694 419.56592Q447.28226 419.79248 447.15726 420.19873Q446.96976 420.8081 446.96976 421.52686L446.96976 425.0581L445.82913 425.0581ZM454.67377 422.58936L455.79877 422.72998Q455.6269 423.90186 454.86127 424.5581Q454.09564 425.21436 453.0019 425.21436Q451.61127 425.21436 450.77533 424.3081Q449.9394 423.40186 449.9394 421.71436Q449.9394 420.6206 450.29877 419.8003Q450.65814 418.97998 451.39252 418.57373Q452.1269 418.16748 453.0019 418.16748Q454.09564 418.16748 454.79877 418.72217Q455.5019 419.27686 455.6894 420.29248L454.58002 420.46436Q454.42377 419.79248 454.02533 419.44873Q453.6269 419.10498 453.04877 419.10498Q452.1894 419.10498 451.65033 419.72217Q451.11127 420.33936 451.11127 421.6831Q451.11127 423.04248 451.6269 423.65967Q452.14252 424.27686 452.98627 424.27686Q453.65814 424.27686 454.11127 423.8628Q454.5644 423.44873 454.67377 422.58936ZM456.9472 425.0581L456.9472 415.7456L458.08783 415.7456L458.08783 419.08936Q458.8847 418.16748 460.10345 418.16748Q460.85345 418.16748 461.40814 418.46436Q461.96283 418.76123 462.1972 419.27686Q462.43158 419.79248 462.43158 420.79248L462.43158 425.0581L461.29095 425.0581L461.29095 420.79248Q461.29095 419.9331 460.92377 419.54248Q460.55658 419.15186 459.86908 419.15186Q459.36908 419.15186 458.91595 419.40967Q458.46283 419.66748 458.27533 420.1206Q458.08783 420.57373 458.08783 421.3706L458.08783 425.0581L456.9472 425.0581ZM464.35968 417.07373L464.35968 415.7456L465.5003 415.7456L465.5003 417.07373L464.35968 417.07373ZM464.35968 425.0581L464.35968 418.32373L465.5003 418.32373L465.5003 425.0581L464.35968 425.0581ZM469.19577 425.0581L466.63327 418.32373L467.8364 418.32373L469.2739 422.35498Q469.50827 423.01123 469.7114 423.71436Q469.86765 423.1831 470.13327 422.4331L471.63327 418.32373L472.80515 418.32373L470.25827 425.0581L469.19577 425.0581ZM478.5942 422.88623L479.7817 423.02686Q479.50046 424.07373 478.74265 424.64404Q477.98483 425.21436 476.81296 425.21436Q475.32858 425.21436 474.4614 424.3003Q473.5942 423.38623 473.5942 421.7456Q473.5942 420.04248 474.47702 419.10498Q475.35983 418.16748 476.75046 418.16748Q478.10983 418.16748 478.9614 419.08936Q479.81296 420.01123 479.81296 421.66748Q479.81296 421.77686 479.81296 421.97998L474.7817 421.97998Q474.8442 423.08936 475.4067 423.6831Q475.9692 424.27686 476.81296 424.27686Q477.45358 424.27686 477.8989 423.94092Q478.3442 423.60498 478.5942 422.88623ZM474.8442 421.04248L478.60983 421.04248Q478.5317 420.1831 478.17233 419.76123Q477.62546 419.10498 476.76608 419.10498Q475.9692 419.10498 475.43796 419.62842Q474.9067 420.15186 474.8442 421.04248Z" fill-rule="nonzero" fill="#000000"></path><path d="M431.25052 343.88428L427.5768 370.2235" fill-rule="nonzero" stroke="#000000" stroke-width="2.0" stroke-linejoin="round" stroke-linecap="butt"></path></svg>

