<?xml version="1.0" standalone="yes"?>

<svg version="1.1" viewBox="0.0 0.0 839.0 318.0" fill="none" stroke="none" stroke-linecap="square" stroke-miterlimit="10" clip-path="url(#p.0)" xmlns="http://www.w3.org/2000/svg" xmlns:xlink="http://www.w3.org/1999/xlink"><clipPath id="p.0"><path d="M0 0L839.0 0L839.0 318.0L0 318.0L0 0Z" clip-rule="nonzero"></path></clipPath><path d="M532.9619 44.3674L517.51074 28.9162L323.19815 28.9162L323.19815 259.9532L338.64935 275.4044L532.9619 275.4044ZM532.9619 44.3674L338.64935 44.3674L323.19815 28.9162M338.64935 44.3674L338.64935 275.4044" fill-rule="nonzero" stroke="#000000" stroke-width="2.0" stroke-linejoin="round" stroke-linecap="butt"></path><path d="M188.39398 30.028059L181.76111 23.39518L30.78769 23.39518L30.78769 106.80955L37.42057 113.44242L188.39398 113.44242ZM188.39398 30.028059L37.42057 30.028059L30.78769 23.39518M37.42057 30.028059L37.42057 113.44242" fill-rule="nonzero" stroke="#000000" stroke-width="2.0" stroke-linejoin="round" stroke-linecap="butt"></path><path d="M64.8565 62.797745L64.8565 61.485245L72.45025 58.28212L72.45025 59.68837L66.43462 62.15712L72.45025 64.641495L72.45025 66.047745L64.8565 62.797745ZM74.20025 62.797745L74.20025 61.485245L81.794 58.28212L81.794 59.68837L75.77837 62.15712L81.794 64.641495L81.794 66.047745L74.20025 62.797745ZM83.7315 67.81337L83.7315 59.516495L84.9815 59.516495L84.9815 60.672745Q85.37212 60.06337 86.02056 59.696182Q86.669 59.328995 87.49712 59.328995Q88.419 59.328995 89.01275 59.711807Q89.6065 60.09462 89.84087 60.78212Q90.82525 59.328995 92.40337 59.328995Q93.63775 59.328995 94.30181 60.008682Q94.96587 60.68837 94.96587 62.110245L94.96587 67.81337L93.57525 67.81337L93.57525 62.578995Q93.57525 61.735245 93.43462 61.368057Q93.294 61.00087 92.93462 60.774307Q92.57525 60.547745 92.09087 60.547745Q91.21587 60.547745 90.63775 61.12587Q90.05962 61.703995 90.05962 62.985245L90.05962 67.81337L88.65337 67.81337L88.65337 62.422745Q88.65337 61.485245 88.30962 61.016495Q87.96587 60.547745 87.18462 60.547745Q86.59087 60.547745 86.09087 60.860245Q85.59087 61.172745 85.36431 61.774307Q85.13775 62.37587 85.13775 63.50087L85.13775 67.81337L83.7315 67.81337ZM102.46587 66.78212Q101.68462 67.453995 100.96587 67.72743Q100.24712 68.00087 99.419 68.00087Q98.044 68.00087 97.30962 67.328995Q96.57525 66.65712 96.57525 65.62587Q96.57525 65.016495 96.8565 64.50868Q97.13775 64.00087 97.58306 63.696182Q98.02837 63.391495 98.59087 63.235245Q99.01275 63.12587 99.84087 63.03212Q101.544 62.828995 102.3565 62.547745Q102.3565 62.25087 102.3565 62.172745Q102.3565 61.31337 101.96587 60.96962Q101.419 60.485245 100.3565 60.485245Q99.37212 60.485245 98.89556 60.836807Q98.419 61.18837 98.20025 62.06337L96.82525 61.87587Q97.01275 61.00087 97.44244 60.453995Q97.87212 59.90712 98.68462 59.618057Q99.49712 59.328995 100.55962 59.328995Q101.62212 59.328995 102.28619 59.578995Q102.95025 59.828995 103.26275 60.203995Q103.57525 60.578995 103.70025 61.15712Q103.77837 61.516495 103.77837 62.453995L103.77837 64.328995Q103.77837 66.297745 103.86431 66.81337Q103.95025 67.328995 104.21587 67.81337L102.74712 67.81337Q102.52837 67.37587 102.46587 66.78212ZM102.3565 63.641495Q101.59087 63.953995 100.05962 64.172745Q99.18462 64.297745 98.82525 64.453995Q98.46587 64.610245 98.27056 64.91493Q98.07525 65.21962 98.07525 65.578995Q98.07525 66.141495 98.50494 66.516495Q98.93462 66.891495 99.74712 66.891495Q100.55962 66.891495 101.19244 66.53993Q101.82525 66.18837 102.12212 65.56337Q102.3565 65.09462 102.3565 64.15712L102.3565 63.641495ZM111.36431 64.766495L112.75494 64.953995Q112.52056 66.37587 111.59087 67.18837Q110.66119 68.00087 109.30181 68.00087Q107.59869 68.00087 106.55962 66.88368Q105.52056 65.766495 105.52056 63.68837Q105.52056 62.34462 105.96587 61.336807Q106.41119 60.328995 107.32525 59.828995Q108.23931 59.328995 109.30181 59.328995Q110.66119 59.328995 111.52056 60.008682Q112.37994 60.68837 112.61431 61.953995L111.25494 62.15712Q111.05181 61.328995 110.55962 60.90712Q110.06744 60.485245 109.36431 60.485245Q108.30181 60.485245 107.63775 61.243057Q106.97369 62.00087 106.97369 63.65712Q106.97369 65.328995 107.61431 66.08681Q108.25494 66.84462 109.28619 66.84462Q110.11431 66.84462 110.669 66.33681Q111.22369 65.828995 111.36431 64.766495ZM113.95806 67.81337L113.95806 56.360245L115.36431 56.360245L115.36431 60.46962Q116.34869 59.328995 117.84869 59.328995Q118.77056 59.328995 119.45025 59.68837Q120.12994 60.047745 120.419 60.68837Q120.70806 61.328995 120.70806 62.547745L120.70806 67.81337L119.30181 67.81337L119.30181 62.547745Q119.30181 61.50087 118.84869 61.016495Q118.39556 60.53212 117.55181 60.53212Q116.92681 60.53212 116.37994 60.860245Q115.83306 61.18837 115.59869 61.743057Q115.36431 62.297745 115.36431 63.266495L115.36431 67.81337L113.95806 67.81337ZM122.8565 57.96962L122.8565 56.360245L124.26275 56.360245L124.26275 57.96962L122.8565 57.96962ZM122.8565 67.81337L122.8565 59.516495L124.26275 59.516495L124.26275 67.81337L122.8565 67.81337ZM126.41119 67.81337L126.41119 59.516495L127.67681 59.516495L127.67681 60.68837Q128.58305 59.328995 130.31743 59.328995Q131.06743 59.328995 131.69243 59.59462Q132.31743 59.860245 132.62993 60.297745Q132.94243 60.735245 133.06743 61.34462Q133.14555 61.735245 133.14555 62.703995L133.14555 67.81337L131.7393 67.81337L131.7393 62.766495Q131.7393 61.90712 131.57524 61.477432Q131.41118 61.047745 130.99712 60.797745Q130.58305 60.547745 130.02055 60.547745Q129.1143 60.547745 128.46587 61.118057Q127.81744 61.68837 127.81744 63.28212L127.81744 67.81337L126.41119 67.81337ZM140.98149 65.141495L142.43462 65.31337Q142.09087 66.59462 141.16118 67.297745Q140.23149 68.00087 138.79399 68.00087Q136.96587 68.00087 135.90337 66.87587Q134.84087 65.75087 134.84087 63.735245Q134.84087 61.641495 135.91899 60.485245Q136.99712 59.328995 138.71587 59.328995Q140.37212 59.328995 141.4268 60.461807Q142.48149 61.59462 142.48149 63.641495Q142.48149 63.766495 142.48149 64.016495L136.29399 64.016495Q136.37212 65.391495 137.06743 66.11806Q137.76274 66.84462 138.79399 66.84462Q139.57524 66.84462 140.12212 66.43837Q140.66899 66.03212 140.98149 65.141495ZM136.37212 62.860245L140.99712 62.860245Q140.90337 61.81337 140.46587 61.297745Q139.79399 60.485245 138.73149 60.485245Q137.76274 60.485245 137.09868 61.133682Q136.43462 61.78212 136.37212 62.860245ZM151.6143 62.797745L144.02055 66.047745L144.02055 64.641495L150.03618 62.15712L144.02055 59.68837L144.02055 58.28212L151.6143 61.485245L151.6143 62.797745ZM160.95805 62.797745L153.3643 66.047745L153.3643 64.641495L159.37993 62.15712L153.3643 59.68837L153.3643 58.28212L160.95805 61.485245L160.95805 62.797745Z" fill-rule="nonzero" fill="#000000"></path><path d="M57.004936 79.516495L57.004936 77.922745L58.598686 77.922745L58.598686 79.516495L57.004936 79.516495ZM57.004936 86.21962L57.004936 84.610245L58.598686 84.610245L58.598686 86.21962L57.004936 86.21962ZM61.26275 86.21962L61.26275 74.766495L69.544 74.766495L69.544 76.110245L62.778374 76.110245L62.778374 79.62587L69.12212 79.62587L69.12212 80.96962L62.778374 80.96962L62.778374 84.860245L69.80962 84.860245L69.80962 86.21962L61.26275 86.21962ZM71.90337 86.21962L71.90337 74.766495L76.2315 74.766495Q77.37212 74.766495 77.96587 74.87587Q78.80962 75.016495 79.37994 75.40712Q79.95025 75.797745 80.30181 76.50868Q80.65337 77.21962 80.65337 78.078995Q80.65337 79.53212 79.72369 80.547745Q78.794 81.56337 76.3565 81.56337L73.419 81.56337L73.419 86.21962L71.90337 86.21962ZM73.419 80.203995L76.38775 80.203995Q77.8565 80.203995 78.47369 79.65712Q79.09087 79.110245 79.09087 78.12587Q79.09087 77.40712 78.72369 76.891495Q78.3565 76.37587 77.76275 76.21962Q77.38775 76.110245 76.3565 76.110245L73.419 76.110245L73.419 80.203995ZM82.84087 86.21962L82.84087 74.766495L84.3565 74.766495L84.3565 86.21962L82.84087 86.21962ZM95.19244 82.203995L96.70806 82.578995Q96.23931 84.453995 94.99712 85.43837Q93.75494 86.422745 91.97369 86.422745Q90.11431 86.422745 88.95806 85.66493Q87.80181 84.90712 87.19244 83.47743Q86.58306 82.047745 86.58306 80.40712Q86.58306 78.610245 87.27056 77.28212Q87.95806 75.953995 89.21587 75.25868Q90.47369 74.56337 91.98931 74.56337Q93.70806 74.56337 94.87994 75.43837Q96.05181 76.31337 96.52056 77.90712L95.02056 78.25087Q94.62994 77.00087 93.87212 76.43056Q93.11431 75.860245 91.95806 75.860245Q90.64556 75.860245 89.75494 76.49306Q88.86431 77.12587 88.50494 78.19618Q88.14556 79.266495 88.14556 80.391495Q88.14556 81.860245 88.57525 82.94618Q89.00494 84.03212 89.90337 84.57118Q90.80181 85.110245 91.84869 85.110245Q93.11431 85.110245 93.99712 84.37587Q94.87994 83.641495 95.19244 82.203995ZM98.05962 82.53212L99.49712 82.40712Q99.59087 83.266495 99.96587 83.82118Q100.34087 84.37587 101.12212 84.71181Q101.90337 85.047745 102.87212 85.047745Q103.74712 85.047745 104.41119 84.78993Q105.07525 84.53212 105.39556 84.08681Q105.71587 83.641495 105.71587 83.110245Q105.71587 82.56337 105.40337 82.16493Q105.09087 81.766495 104.37212 81.485245Q103.919 81.31337 102.34087 80.93056Q100.76275 80.547745 100.12212 80.21962Q99.30962 79.78212 98.90337 79.14931Q98.49712 78.516495 98.49712 77.71962Q98.49712 76.860245 98.98931 76.10243Q99.4815 75.34462 100.42681 74.953995Q101.37212 74.56337 102.52837 74.56337Q103.80962 74.56337 104.77837 74.97743Q105.74712 75.391495 106.27056 76.18837Q106.794 76.985245 106.84087 77.985245L105.38775 78.09462Q105.26275 77.016495 104.59087 76.46181Q103.919 75.90712 102.59087 75.90712Q101.21587 75.90712 100.59087 76.40712Q99.96587 76.90712 99.96587 77.62587Q99.96587 78.235245 100.40337 78.641495Q100.84087 79.03212 102.69244 79.453995Q104.544 79.87587 105.2315 80.18837Q106.2315 80.641495 106.70806 81.35243Q107.18462 82.06337 107.18462 82.985245Q107.18462 83.891495 106.66119 84.703995Q106.13775 85.516495 105.15337 85.96962Q104.169 86.422745 102.95025 86.422745Q101.38775 86.422745 100.34087 85.96181Q99.294 85.50087 98.69244 84.59462Q98.09087 83.68837 98.05962 82.53212ZM111.37212 86.21962L108.21587 77.922745L109.70025 77.922745L111.4815 82.891495Q111.77837 83.68837 112.01275 84.56337Q112.20025 83.90712 112.544 82.985245L114.38775 77.922745L115.82525 77.922745L112.68462 86.21962L111.37212 86.21962ZM121.18462 86.21962L121.18462 83.46962L116.21587 83.46962L116.21587 82.18837L121.45025 74.766495L122.59087 74.766495L122.59087 82.18837L124.13775 82.18837L124.13775 83.46962L122.59087 83.46962L122.59087 86.21962L121.18462 86.21962ZM121.18462 82.18837L121.18462 77.016495L117.6065 82.18837L121.18462 82.18837ZM138.76274 82.203995L140.27837 82.578995Q139.80962 84.453995 138.56743 85.43837Q137.32524 86.422745 135.54399 86.422745Q133.68462 86.422745 132.52837 85.66493Q131.37212 84.90712 130.76274 83.47743Q130.15337 82.047745 130.15337 80.40712Q130.15337 78.610245 130.84087 77.28212Q131.52837 75.953995 132.78618 75.25868Q134.04399 74.56337 135.55962 74.56337Q137.27837 74.56337 138.45024 75.43837Q139.62212 76.31337 140.09087 77.90712L138.59087 78.25087Q138.20024 77.00087 137.44243 76.43056Q136.68462 75.860245 135.52837 75.860245Q134.21587 75.860245 133.32524 76.49306Q132.43462 77.12587 132.07524 78.19618Q131.71587 79.266495 131.71587 80.391495Q131.71587 81.860245 132.14555 82.94618Q132.57524 84.03212 133.47368 84.57118Q134.37212 85.110245 135.41899 85.110245Q136.68462 85.110245 137.56743 84.37587Q138.45024 83.641495 138.76274 82.203995ZM141.94243 86.21962L141.94243 74.766495L143.34868 74.766495L143.34868 86.21962L141.94243 86.21962ZM145.52837 76.37587L145.52837 74.766495L146.93462 74.766495L146.93462 76.37587L145.52837 76.37587ZM145.52837 86.21962L145.52837 77.922745L146.93462 77.922745L146.93462 86.21962L145.52837 86.21962ZM154.75493 83.547745L156.20805 83.71962Q155.8643 85.00087 154.93462 85.703995Q154.00493 86.40712 152.56743 86.40712Q150.7393 86.40712 149.6768 85.28212Q148.6143 84.15712 148.6143 82.141495Q148.6143 80.047745 149.69243 78.891495Q150.77055 77.735245 152.4893 77.735245Q154.14555 77.735245 155.20024 78.86806Q156.25493 80.00087 156.25493 82.047745Q156.25493 82.172745 156.25493 82.422745L150.06743 82.422745Q150.14555 83.797745 150.84087 84.52431Q151.53618 85.25087 152.56743 85.25087Q153.34868 85.25087 153.89555 84.84462Q154.44243 84.43837 154.75493 83.547745ZM150.14555 81.266495L154.77055 81.266495Q154.6768 80.21962 154.2393 79.703995Q153.56743 78.891495 152.50493 78.891495Q151.53618 78.891495 150.87212 79.53993Q150.20805 80.18837 150.14555 81.266495ZM157.98149 86.21962L157.98149 77.922745L159.24712 77.922745L159.24712 79.09462Q160.15337 77.735245 161.88774 77.735245Q162.63774 77.735245 163.26274 78.00087Q163.88774 78.266495 164.20024 78.703995Q164.51274 79.141495 164.63774 79.75087Q164.71587 80.141495 164.71587 81.110245L164.71587 86.21962L163.30962 86.21962L163.30962 81.172745Q163.30962 80.31337 163.14555 79.88368Q162.98149 79.453995 162.56743 79.203995Q162.15337 78.953995 161.59087 78.953995Q160.68462 78.953995 160.03618 79.52431Q159.38774 80.09462 159.38774 81.68837L159.38774 86.21962L157.98149 86.21962ZM169.94243 84.953995L170.14555 86.203995Q169.5518 86.328995 169.08305 86.328995Q168.31743 86.328995 167.89555 86.08681Q167.47368 85.84462 167.3018 85.44618Q167.12993 85.047745 167.12993 83.78212L167.12993 79.016495L166.09868 79.016495L166.09868 77.922745L167.12993 77.922745L167.12993 75.860245L168.53618 75.016495L168.53618 77.922745L169.94243 77.922745L169.94243 79.016495L168.53618 79.016495L168.53618 83.860245Q168.53618 84.46962 168.60649 84.641495Q168.6768 84.81337 168.84868 84.91493Q169.02055 85.016495 169.33305 85.016495Q169.56743 85.016495 169.94243 84.953995Z" fill-rule="nonzero" fill="#000000"></path><path d="M806.3793 41.202435L655.4058 41.202435L655.4058 124.6168L806.3793 124.6168Z" fill-rule="nonzero" fill="#ffffff"></path><path d="M655.4058 41.202435L648.77295 34.569553L648.77295 117.98392L655.4058 124.6168Z" fill-rule="nonzero" fill="#cbcbcb"></path><path d="M806.3793 41.202435L799.7464 34.569553L648.77295 34.569553L655.4058 41.202435Z" fill-rule="nonzero" fill="#ffffff"></path><path d="M806.3793 41.202435L799.7464 34.569553L648.77295 34.569553L648.77295 117.98392L655.4058 124.6168L806.3793 124.6168ZM806.3793 41.202435L655.4058 41.202435L648.77295 34.569553M655.4058 41.202435L655.4058 124.6168" fill-rule="nonzero" stroke="#000000" stroke-width="2.0" stroke-linejoin="round" stroke-linecap="butt"></path><path d="M674.89124 72.39399L674.89124 70.847115L683.89124 67.034615L683.89124 68.690865L676.7506 71.628365L683.89124 74.597115L683.89124 76.253365L674.89124 72.39399ZM685.7862 72.39399L685.7862 70.847115L694.7862 67.034615L694.7862 68.690865L687.64557 71.628365L694.7862 74.597115L694.7862 76.253365L685.7862 72.39399ZM696.8843 78.347115L696.8843 68.48774L698.3843 68.48774L698.3843 69.878365Q698.8374 69.159615 699.61084 68.7143Q700.3843 68.26899 701.36865 68.26899Q702.4624 68.26899 703.1655 68.722115Q703.86865 69.17524 704.1499 70.003365Q705.3218 68.26899 707.1968 68.26899Q708.6655 68.26899 709.4546 69.08149Q710.24365 69.89399 710.24365 71.58149L710.24365 78.347115L708.5718 78.347115L708.5718 72.14399Q708.5718 71.14399 708.4155 70.69868Q708.2593 70.253365 707.8296 69.98774Q707.3999 69.722115 706.8218 69.722115Q705.7905 69.722115 705.103 70.409615Q704.4155 71.097115 704.4155 72.628365L704.4155 78.347115L702.74365 78.347115L702.74365 71.940865Q702.74365 70.83149 702.3374 70.2768Q701.93115 69.722115 700.99365 69.722115Q700.2905 69.722115 699.68896 70.0893Q699.0874 70.45649 698.8218 71.17524Q698.55615 71.89399 698.55615 73.23774L698.55615 78.347115L696.8843 78.347115ZM718.86255 77.128365Q717.92505 77.92524 717.0657 78.24555Q716.2063 78.565865 715.2219 78.565865Q713.61255 78.565865 712.73755 77.7768Q711.86255 76.98774 711.86255 75.753365Q711.86255 75.01899 712.1907 74.42524Q712.5188 73.83149 713.05005 73.472115Q713.5813 73.11274 714.2532 72.92524Q714.7532 72.784615 715.73755 72.67524Q717.7688 72.42524 718.7219 72.097115Q718.7219 71.753365 718.7219 71.659615Q718.7219 70.64399 718.2532 70.222115Q717.61255 69.659615 716.3469 69.659615Q715.17505 69.659615 714.61255 70.065865Q714.05005 70.472115 713.7844 71.534615L712.1438 71.30024Q712.3782 70.253365 712.886 69.61274Q713.3938 68.972115 714.35474 68.62055Q715.3157 68.26899 716.5969 68.26899Q717.86255 68.26899 718.6438 68.565865Q719.42505 68.86274 719.80005 69.315865Q720.17505 69.76899 720.3157 70.45649Q720.4094 70.878365 720.4094 71.98774L720.4094 74.222115Q720.4094 76.55024 720.511 77.16743Q720.61255 77.784615 720.9407 78.347115L719.1907 78.347115Q718.92505 77.83149 718.86255 77.128365ZM718.7219 73.409615Q717.8157 73.76899 715.98755 74.034615Q714.9563 74.17524 714.5344 74.36274Q714.11255 74.55024 713.8782 74.909615Q713.6438 75.26899 713.6438 75.70649Q713.6438 76.378365 714.1516 76.82368Q714.6594 77.26899 715.6282 77.26899Q716.5969 77.26899 717.3469 76.8393Q718.0969 76.409615 718.4563 75.690865Q718.7219 75.11274 718.7219 74.01899L718.7219 73.409615ZM729.2383 74.73774L730.8789 74.95649Q730.6133 76.64399 729.5039 77.60493Q728.39453 78.565865 726.76953 78.565865Q724.7539 78.565865 723.52734 77.24555Q722.3008 75.92524 722.3008 73.45649Q722.3008 71.86274 722.8242 70.66743Q723.34766 69.472115 724.4336 68.87055Q725.51953 68.26899 726.78516 68.26899Q728.39453 68.26899 729.41016 69.08149Q730.4258 69.89399 730.72266 71.39399L729.09766 71.64399Q728.8633 70.64399 728.26953 70.14399Q727.6758 69.64399 726.84766 69.64399Q725.58203 69.64399 724.79297 70.55024Q724.0039 71.45649 724.0039 73.409615Q724.0039 75.39399 724.76953 76.29243Q725.53516 77.190865 726.7539 77.190865Q727.7383 77.190865 728.39453 76.5893Q729.0508 75.98774 729.2383 74.73774ZM732.1289 78.347115L732.1289 64.753365L733.8008 64.753365L733.8008 69.628365Q734.97266 68.26899 736.7539 68.26899Q737.84766 68.26899 738.65234 68.69868Q739.45703 69.128365 739.8086 69.89399Q740.16016 70.659615 740.16016 72.097115L740.16016 78.347115L738.4883 78.347115L738.4883 72.097115Q738.4883 70.847115 737.9414 70.2768Q737.39453 69.70649 736.41016 69.70649Q735.66016 69.70649 735.0117 70.0893Q734.3633 70.472115 734.08203 71.13618Q733.8008 71.80024 733.8008 72.95649L733.8008 78.347115L732.1289 78.347115ZM742.52026 66.659615L742.52026 64.753365L744.19214 64.753365L744.19214 66.659615L742.52026 66.659615ZM742.52026 78.347115L742.52026 68.48774L744.19214 68.48774L744.19214 78.347115L742.52026 78.347115ZM746.6494 78.347115L746.6494 68.48774L748.1494 68.48774L748.1494 69.89399Q749.24316 68.26899 751.29004 68.26899Q752.18066 68.26899 752.93066 68.5893Q753.68066 68.909615 754.04785 69.43305Q754.41504 69.95649 754.5713 70.659615Q754.66504 71.128365 754.66504 72.284615L754.66504 78.347115L752.99316 78.347115L752.99316 72.347115Q752.99316 71.33149 752.79785 70.82368Q752.60254 70.315865 752.10254 70.01899Q751.60254 69.722115 750.93066 69.722115Q749.86816 69.722115 749.0947 70.39399Q748.3213 71.065865 748.3213 72.972115L748.3213 78.347115L746.6494 78.347115ZM763.77515 75.17524L765.4939 75.39399Q765.08765 76.89399 763.9861 77.72993Q762.8845 78.565865 761.1658 78.565865Q759.0095 78.565865 757.7439 77.23774Q756.4783 75.909615 756.4783 73.503365Q756.4783 71.01899 757.7517 69.64399Q759.02515 68.26899 761.072 68.26899Q763.0564 68.26899 764.3064 69.61274Q765.5564 70.95649 765.5564 73.409615Q765.5564 73.55024 765.5408 73.847115L758.197 73.847115Q758.2908 75.472115 759.1189 76.33149Q759.947 77.190865 761.1814 77.190865Q762.08765 77.190865 762.7361 76.7143Q763.3845 76.23774 763.77515 75.17524ZM758.2908 72.472115L763.7908 72.472115Q763.6814 71.23774 763.1658 70.61274Q762.3689 69.64399 761.08765 69.64399Q759.947 69.64399 759.15796 70.41743Q758.3689 71.190865 758.2908 72.472115ZM776.19775 72.39399L767.19775 76.253365L767.19775 74.597115L774.32275 71.628365L767.19775 68.690865L767.19775 67.034615L776.19775 70.847115L776.19775 72.39399ZM787.0927 72.39399L778.0927 76.253365L778.0927 74.597115L785.2177 71.628365L778.0927 68.690865L778.0927 67.034615L787.0927 70.847115L787.0927 72.39399Z" fill-rule="nonzero" fill="#000000"></path><path d="M710.32495 91.847115L710.32495 89.940865L712.2312 89.940865L712.2312 91.847115L710.32495 91.847115ZM710.32495 99.80024L710.32495 97.89399L712.2312 97.89399L712.2312 99.80024L710.32495 99.80024ZM715.2895 99.80024L715.2895 86.20649L721.32074 86.20649Q723.13324 86.20649 724.07855 86.565865Q725.02386 86.92524 725.58636 87.85493Q726.14886 88.784615 726.14886 89.909615Q726.14886 91.36274 725.2192 92.35493Q724.2895 93.347115 722.32074 93.61274Q723.0395 93.95649 723.4145 94.284615Q724.19574 95.01899 724.89886 96.097115L727.27386 99.80024L725.00824 99.80024L723.21136 96.972115Q722.4145 95.753365 721.9067 95.097115Q721.39886 94.440865 720.9926 94.18305Q720.58636 93.92524 720.1801 93.83149Q719.8676 93.753365 719.1645 93.753365L717.08636 93.753365L717.08636 99.80024L715.2895 99.80024ZM717.08636 92.20649L720.94574 92.20649Q722.1801 92.20649 722.8754 91.94868Q723.57074 91.690865 723.9379 91.128365Q724.3051 90.565865 724.3051 89.909615Q724.3051 88.940865 723.602 88.32368Q722.89886 87.70649 721.38324 87.70649L717.08636 87.70649L717.08636 92.20649ZM728.7312 99.80024L728.7312 86.20649L733.4187 86.20649Q734.9968 86.20649 735.8406 86.39399Q736.9968 86.659615 737.82495 87.36274Q738.9031 88.284615 739.4343 89.69868Q739.9656 91.11274 739.9656 92.92524Q739.9656 94.472115 739.6062 95.66743Q739.2468 96.86274 738.6843 97.6518Q738.1218 98.440865 737.44995 98.88618Q736.7781 99.33149 735.82495 99.565865Q734.8718 99.80024 733.63745 99.80024L728.7312 99.80024ZM730.5281 98.190865L733.4343 98.190865Q734.7781 98.190865 735.5437 97.940865Q736.3093 97.690865 736.76245 97.23774Q737.4031 96.597115 737.76245 95.51899Q738.1218 94.440865 738.1218 92.89399Q738.1218 90.76899 737.4187 89.62055Q736.7156 88.472115 735.7156 88.08149Q734.9968 87.80024 733.38745 87.80024L730.5281 87.80024L730.5281 98.190865ZM742.126 99.80024L742.126 86.20649L747.23535 86.20649Q748.7822 86.20649 749.72754 86.61274Q750.67285 87.01899 751.2041 87.878365Q751.73535 88.73774 751.73535 89.67524Q751.73535 90.55024 751.2666 91.32368Q750.79785 92.097115 749.8291 92.565865Q751.0635 92.92524 751.72754 93.80024Q752.3916 94.67524 752.3916 95.86274Q752.3916 96.815865 751.99316 97.63618Q751.5947 98.45649 751.001 98.9018Q750.4072 99.347115 749.5088 99.57368Q748.61035 99.80024 747.3135 99.80024L742.126 99.80024ZM743.92285 91.909615L746.86035 91.909615Q748.0635 91.909615 748.5791 91.753365Q749.2666 91.55024 749.61816 91.08149Q749.9697 90.61274 749.9697 89.89399Q749.9697 89.222115 749.6416 88.70649Q749.3135 88.190865 748.7119 87.99555Q748.11035 87.80024 746.6416 87.80024L743.92285 87.80024L743.92285 91.909615ZM743.92285 98.190865L747.3135 98.190865Q748.1885 98.190865 748.5322 98.128365Q749.1572 98.01899 749.5791 97.76118Q750.001 97.503365 750.2666 97.003365Q750.5322 96.503365 750.5322 95.86274Q750.5322 95.097115 750.1416 94.534615Q749.751 93.972115 749.0635 93.74555Q748.376 93.51899 747.0791 93.51899L743.92285 93.51899L743.92285 98.190865Z" fill-rule="nonzero" fill="#000000"></path><path d="M532.9619 159.8859L655.4058 82.909615" fill-rule="nonzero" stroke="#000000" stroke-width="2.0" stroke-linejoin="round" stroke-linecap="butt"></path><path d="M539.79095 68.75474L539.79095 67.67661L545.9472 65.08286L545.9472 66.20786L541.0566 68.22349L545.9472 70.23911L545.9472 71.37974L539.79095 68.75474ZM547.5744 68.75474L547.5744 67.67661L553.73065 65.08286L553.73065 66.20786L548.84 68.22349L553.73065 70.23911L553.73065 71.37974L547.5744 68.75474ZM555.01404 70.17661L556.1234 70.02036Q556.1703 71.08286 556.52185 71.4813Q556.8734 71.87974 557.51404 71.87974Q557.96716 71.87974 558.3031 71.6688Q558.63904 71.45786 558.77185 71.090675Q558.90466 70.72349 558.90466 69.92661L558.90466 63.504738L560.1234 63.504738L560.1234 69.84849Q560.1234 71.02036 559.84216 71.66099Q559.5609 72.30161 558.95154 72.63755Q558.34216 72.97349 557.51404 72.97349Q556.2953 72.97349 555.63904 72.27036Q554.9828 71.56724 555.01404 70.17661ZM562.3031 72.81724L562.3031 63.504738L565.5062 63.504738Q566.6 63.504738 567.1625 63.645363Q567.975 63.832863 568.5375 64.31724Q569.27185 64.92661 569.63904 65.89536Q570.0062 66.86411 570.0062 68.11411Q570.0062 69.17661 569.7562 69.996925Q569.5062 70.81724 569.1156 71.34849Q568.725 71.87974 568.26404 72.19224Q567.8031 72.50474 567.15466 72.66099Q566.5062 72.81724 565.6625 72.81724L562.3031 72.81724ZM563.5375 71.72349L565.52185 71.72349Q566.4437 71.72349 566.96716 71.55161Q567.4906 71.37974 567.8031 71.06724Q568.2406 70.62974 568.4828 69.88755Q568.725 69.14536 568.725 68.09849Q568.725 66.62974 568.2484 65.84849Q567.77185 65.06724 567.08435 64.80161Q566.58435 64.61411 565.4906 64.61411L563.5375 64.61411L563.5375 71.72349ZM571.8814 72.81724L571.8814 63.504738L575.3658 63.504738Q576.4439 63.504738 577.08453 63.7938Q577.72516 64.08286 578.09235 64.6688Q578.45953 65.25474 578.45953 65.89536Q578.45953 66.48911 578.1314 67.01255Q577.8033 67.53599 577.16266 67.86411Q578.0064 68.11411 578.45953 68.70786Q578.91266 69.30161 578.91266 70.11411Q578.91266 70.77036 578.6314 71.33286Q578.35016 71.89536 577.9439 72.20005Q577.53766 72.50474 576.9283 72.66099Q576.3189 72.81724 575.4283 72.81724L571.8814 72.81724ZM573.1158 67.42661L575.1314 67.42661Q575.9439 67.42661 576.3033 67.31724Q576.77203 67.17661 577.0064 66.84849Q577.2408 66.52036 577.2408 66.03599Q577.2408 65.56724 577.02203 65.215675Q576.8033 64.86411 576.3892 64.73911Q575.97516 64.61411 574.97516 64.61411L573.1158 64.61411L573.1158 67.42661ZM573.1158 71.72349L575.4283 71.72349Q576.02203 71.72349 576.27203 71.67661Q576.6939 71.59849 576.97516 71.4188Q577.2564 71.23911 577.4439 70.903175Q577.6314 70.56724 577.6314 70.11411Q577.6314 69.59849 577.3658 69.215675Q577.10016 68.83286 576.6236 68.67661Q576.14703 68.52036 575.2564 68.52036L573.1158 68.52036L573.1158 71.72349ZM587.4586 69.55161L588.693 69.86411Q588.30237 71.37974 587.29456 72.17661Q586.28674 72.97349 584.8336 72.97349Q583.3336 72.97349 582.3883 72.36411Q581.443 71.75474 580.9508 70.590675Q580.4586 69.42661 580.4586 68.09849Q580.4586 66.64536 581.0211 65.559425Q581.5836 64.47349 582.60706 63.910988Q583.6305 63.348488 584.86487 63.348488Q586.2555 63.348488 587.2086 64.059425Q588.16174 64.77036 588.53674 66.06724L587.318 66.34849Q586.98987 65.33286 586.3805 64.871925Q585.7711 64.41099 584.8336 64.41099Q583.7555 64.41099 583.03674 64.92661Q582.318 65.44224 582.02893 66.30161Q581.73987 67.16099 581.73987 68.08286Q581.73987 69.27036 582.0836 70.16099Q582.42737 71.05161 583.15393 71.48911Q583.8805 71.92661 584.73987 71.92661Q585.7711 71.92661 586.48987 71.32505Q587.2086 70.72349 587.4586 69.55161ZM598.6149 70.64536L599.8024 70.78599Q599.5212 71.83286 598.76337 72.403175Q598.00555 72.97349 596.8337 72.97349Q595.3493 72.97349 594.4821 72.059425Q593.6149 71.14536 593.6149 69.50474Q593.6149 67.80161 594.49774 66.86411Q595.38055 65.92661 596.7712 65.92661Q598.13055 65.92661 598.9821 66.84849Q599.8337 67.77036 599.8337 69.42661Q599.8337 69.53599 599.8337 69.73911L594.8024 69.73911Q594.8649 70.84849 595.4274 71.44224Q595.9899 72.03599 596.8337 72.03599Q597.4743 72.03599 597.9196 71.70005Q598.3649 71.36411 598.6149 70.64536ZM594.8649 68.80161L598.63055 68.80161Q598.5524 67.94224 598.19305 67.52036Q597.6462 66.86411 596.7868 66.86411Q595.9899 66.86411 595.4587 67.38755Q594.9274 67.91099 594.8649 68.80161ZM603.918 71.80161L604.0743 72.80161Q603.5899 72.91099 603.2149 72.91099Q602.5899 72.91099 602.24615 72.70786Q601.9024 72.50474 601.7618 72.184425Q601.62115 71.86411 601.62115 70.84849L601.62115 66.95786L600.793 66.95786L600.793 66.08286L601.62115 66.08286L601.62115 64.41099L602.7618 63.723488L602.7618 66.08286L603.918 66.08286L603.918 66.95786L602.7618 66.95786L602.7618 70.91099Q602.7618 71.39536 602.8243 71.53599Q602.8868 71.67661 603.0196 71.75474Q603.1524 71.83286 603.4024 71.83286Q603.6055 71.83286 603.918 71.80161ZM609.5116 70.34849L610.6366 70.48911Q610.4647 71.66099 609.6991 72.31724Q608.9335 72.97349 607.8397 72.97349Q606.4491 72.97349 605.61316 72.06724Q604.7772 71.16099 604.7772 69.47349Q604.7772 68.37974 605.1366 67.559425Q605.496 66.73911 606.23035 66.33286Q606.9647 65.92661 607.8397 65.92661Q608.9335 65.92661 609.6366 66.4813Q610.3397 67.03599 610.5272 68.05161L609.41785 68.22349Q609.2616 67.55161 608.86316 67.20786Q608.4647 66.86411 607.8866 66.86411Q607.0272 66.86411 606.48816 67.4813Q605.9491 68.09849 605.9491 69.44224Q605.9491 70.80161 606.4647 71.4188Q606.98035 72.03599 607.8241 72.03599Q608.496 72.03599 608.9491 71.621925Q609.4022 71.20786 609.5116 70.34849ZM612.11316 72.81724L612.11316 71.52036L613.41003 71.52036L613.41003 72.81724L612.11316 72.81724ZM621.50366 68.75474L615.3474 71.37974L615.3474 70.23911L620.2224 68.22349L615.3474 66.20786L615.3474 65.08286L621.50366 67.67661L621.50366 68.75474ZM629.2871 68.75474L623.13086 71.37974L623.13086 70.23911L628.00586 68.22349L623.13086 66.20786L623.13086 65.08286L629.2871 67.67661L629.2871 68.75474Z" fill-rule="nonzero" fill="#000000"></path><path d="M372.0787 69.07755L372.0787 67.53068L381.0787 63.718174L381.0787 65.37443L373.93808 68.31193L381.0787 71.28068L381.0787 72.93693L372.0787 69.07755ZM382.97366 69.07755L382.97366 67.53068L391.97366 63.718174L391.97366 65.37443L384.83304 68.31193L391.97366 71.28068L391.97366 72.93693L382.97366 69.07755ZM394.07175 75.03068L394.07175 65.1713L395.57175 65.1713L395.57175 66.56193Q396.02487 65.84318 396.7983 65.397865Q397.57175 64.95255 398.55612 64.95255Q399.64987 64.95255 400.353 65.40568Q401.05612 65.8588 401.33737 66.68693Q402.50925 64.95255 404.38425 64.95255Q405.853 64.95255 406.64206 65.76505Q407.43112 66.57755 407.43112 68.26505L407.43112 75.03068L405.75925 75.03068L405.75925 68.82755Q405.75925 67.82755 405.603 67.38224Q405.44675 66.93693 405.01706 66.6713Q404.58737 66.40568 404.00925 66.40568Q402.978 66.40568 402.2905 67.09318Q401.603 67.78068 401.603 69.31193L401.603 75.03068L399.93112 75.03068L399.93112 68.62443Q399.93112 67.51505 399.52487 66.960365Q399.11862 66.40568 398.18112 66.40568Q397.478 66.40568 396.87643 66.772865Q396.27487 67.14005 396.00925 67.8588Q395.74362 68.57755 395.74362 69.9213L395.74362 75.03068L394.07175 75.03068ZM416.05005 73.81193Q415.11255 74.6088 414.25317 74.929115Q413.3938 75.24943 412.40942 75.24943Q410.80005 75.24943 409.92505 74.460365Q409.05005 73.6713 409.05005 72.43693Q409.05005 71.70255 409.37817 71.1088Q409.7063 70.51505 410.23755 70.15568Q410.7688 69.7963 411.44067 69.6088Q411.94067 69.46818 412.92505 69.3588Q414.9563 69.1088 415.90942 68.78068Q415.90942 68.43693 415.90942 68.34318Q415.90942 67.32755 415.44067 66.90568Q414.80005 66.34318 413.53442 66.34318Q412.36255 66.34318 411.80005 66.74943Q411.23755 67.15568 410.97192 68.21818L409.3313 67.9838Q409.56567 66.93693 410.0735 66.2963Q410.5813 65.65568 411.54224 65.304115Q412.50317 64.95255 413.78442 64.95255Q415.05005 64.95255 415.8313 65.24943Q416.61255 65.5463 416.98755 65.99943Q417.36255 66.45255 417.50317 67.14005Q417.59692 67.56193 417.59692 68.6713L417.59692 70.90568Q417.59692 73.2338 417.6985 73.85099Q417.80005 74.46818 418.12817 75.03068L416.37817 75.03068Q416.11255 74.51505 416.05005 73.81193ZM415.90942 70.09318Q415.00317 70.45255 413.17505 70.71818Q412.1438 70.8588 411.72192 71.0463Q411.30005 71.2338 411.06567 71.59318Q410.8313 71.95255 410.8313 72.39005Q410.8313 73.06193 411.3391 73.50724Q411.84692 73.95255 412.81567 73.95255Q413.78442 73.95255 414.53442 73.522865Q415.28442 73.09318 415.6438 72.37443Q415.90942 71.7963 415.90942 70.70255L415.90942 70.09318ZM426.42578 71.4213L428.0664 71.64005Q427.80078 73.32755 426.6914 74.28849Q425.58203 75.24943 423.95703 75.24943Q421.9414 75.24943 420.71484 73.929115Q419.48828 72.6088 419.48828 70.14005Q419.48828 68.5463 420.01172 67.35099Q420.53516 66.15568 421.6211 65.554115Q422.70703 64.95255 423.97266 64.95255Q425.58203 64.95255 426.59766 65.76505Q427.61328 66.57755 427.91016 68.07755L426.28516 68.32755Q426.05078 67.32755 425.45703 66.82755Q424.86328 66.32755 424.03516 66.32755Q422.76953 66.32755 421.98047 67.2338Q421.1914 68.14005 421.1914 70.09318Q421.1914 72.07755 421.95703 72.97599Q422.72266 73.87443 423.9414 73.87443Q424.92578 73.87443 425.58203 73.272865Q426.23828 72.6713 426.42578 71.4213ZM429.3164 75.03068L429.3164 61.436924L430.98828 61.436924L430.98828 66.31193Q432.16016 64.95255 433.9414 64.95255Q435.03516 64.95255 435.83984 65.38224Q436.64453 65.81193 436.9961 66.57755Q437.34766 67.34318 437.34766 68.78068L437.34766 75.03068L435.67578 75.03068L435.67578 68.78068Q435.67578 67.53068 435.1289 66.960365Q434.58203 66.39005 433.59766 66.39005Q432.84766 66.39005 432.19922 66.772865Q431.55078 67.15568 431.26953 67.81974Q430.98828 68.4838 430.98828 69.64005L430.98828 75.03068L429.3164 75.03068ZM439.70773 63.343174L439.70773 61.436924L441.3796 61.436924L441.3796 63.343174L439.70773 63.343174ZM439.70773 75.03068L439.70773 65.1713L441.3796 65.1713L441.3796 75.03068L439.70773 75.03068ZM443.83694 75.03068L443.83694 65.1713L445.33694 65.1713L445.33694 66.57755Q446.4307 64.95255 448.47757 64.95255Q449.3682 64.95255 450.1182 65.272865Q450.8682 65.59318 451.23538 66.116615Q451.60257 66.64005 451.75882 67.34318Q451.85257 67.81193 451.85257 68.96818L451.85257 75.03068L450.1807 75.03068L450.1807 69.03068Q450.1807 68.01505 449.98538 67.50724Q449.79007 66.99943 449.29007 66.70255Q448.79007 66.40568 448.1182 66.40568Q447.0557 66.40568 446.28226 67.07755Q445.50882 67.74943 445.50882 69.65568L445.50882 75.03068L443.83694 75.03068ZM460.96265 71.8588L462.6814 72.07755Q462.27515 73.57755 461.17358 74.41349Q460.07202 75.24943 458.35327 75.24943Q456.19702 75.24943 454.9314 73.9213Q453.66577 72.59318 453.66577 70.18693Q453.66577 67.70255 454.9392 66.32755Q456.21265 64.95255 458.25952 64.95255Q460.2439 64.95255 461.4939 66.2963Q462.7439 67.64005 462.7439 70.09318Q462.7439 70.2338 462.72827 70.53068L455.38452 70.53068Q455.47827 72.15568 456.3064 73.01505Q457.13452 73.87443 458.3689 73.87443Q459.27515 73.87443 459.92358 73.397865Q460.57202 72.9213 460.96265 71.8588ZM455.47827 69.15568L460.97827 69.15568Q460.8689 67.9213 460.35327 67.2963Q459.5564 66.32755 458.27515 66.32755Q457.13452 66.32755 456.34546 67.10099Q455.5564 67.87443 455.47827 69.15568ZM473.38525 69.07755L464.38525 72.93693L464.38525 71.28068L471.51025 68.31193L464.38525 65.37443L464.38525 63.718174L473.38525 67.53068L473.38525 69.07755ZM484.2802 69.07755L475.2802 72.93693L475.2802 71.28068L482.4052 68.31193L475.2802 65.37443L475.2802 63.718174L484.2802 67.53068L484.2802 69.07755Z" fill-rule="nonzero" fill="#000000"></path><path d="M366.01868 88.53068L366.01868 86.62443L367.92493 86.62443L367.92493 88.53068L366.01868 88.53068ZM366.01868 96.4838L366.01868 94.57755L367.92493 94.57755L367.92493 96.4838L366.01868 96.4838ZM380.6551 91.71818L382.45197 92.1713Q381.88947 94.39005 380.42072 95.554115Q378.95197 96.71818 376.82697 96.71818Q374.62384 96.71818 373.24884 95.81974Q371.87384 94.9213 371.1551 93.22599Q370.43634 91.53068 370.43634 89.57755Q370.43634 87.45255 371.24103 85.87443Q372.04572 84.2963 373.54572 83.47599Q375.04572 82.65568 376.8426 82.65568Q378.88947 82.65568 380.2801 83.69474Q381.67072 84.7338 382.2176 86.6088L380.45197 87.03068Q379.98322 85.5463 379.07697 84.866615Q378.17072 84.18693 376.81134 84.18693Q375.24884 84.18693 374.19415 84.93693Q373.13947 85.68693 372.70978 86.960365Q372.2801 88.2338 372.2801 89.57755Q372.2801 91.31193 372.7879 92.60099Q373.29572 93.89005 374.36603 94.53068Q375.43634 95.1713 376.67072 95.1713Q378.18634 95.1713 379.23322 94.304115Q380.2801 93.43693 380.6551 91.71818ZM384.20618 96.4838L384.20618 82.89005L385.87805 82.89005L385.87805 87.76505Q387.04993 86.40568 388.83118 86.40568Q389.92493 86.40568 390.7296 86.835365Q391.5343 87.26505 391.88586 88.03068Q392.23743 88.7963 392.23743 90.2338L392.23743 96.4838L390.56555 96.4838L390.56555 90.2338Q390.56555 88.9838 390.01868 88.41349Q389.4718 87.84318 388.48743 87.84318Q387.73743 87.84318 387.089 88.22599Q386.44055 88.6088 386.1593 89.272865Q385.87805 89.93693 385.87805 91.09318L385.87805 96.4838L384.20618 96.4838ZM401.01938 95.26505Q400.08188 96.06193 399.2225 96.38224Q398.36313 96.70255 397.37875 96.70255Q395.76938 96.70255 394.89438 95.91349Q394.01938 95.12443 394.01938 93.89005Q394.01938 93.15568 394.3475 92.56193Q394.67563 91.96818 395.20688 91.6088Q395.73813 91.24943 396.41 91.06193Q396.91 90.9213 397.89438 90.81193Q399.92563 90.56193 400.87875 90.2338Q400.87875 89.89005 400.87875 89.7963Q400.87875 88.78068 400.41 88.3588Q399.76938 87.7963 398.50375 87.7963Q397.33188 87.7963 396.76938 88.20255Q396.20688 88.6088 395.94125 89.6713L394.30063 89.43693Q394.535 88.39005 395.04282 87.74943Q395.55063 87.1088 396.51157 86.75724Q397.4725 86.40568 398.75375 86.40568Q400.01938 86.40568 400.80063 86.70255Q401.58188 86.99943 401.95688 87.45255Q402.33188 87.90568 402.4725 88.59318Q402.56625 89.01505 402.56625 90.12443L402.56625 92.3588Q402.56625 94.68693 402.66782 95.304115Q402.76938 95.9213 403.0975 96.4838L401.3475 96.4838Q401.08188 95.96818 401.01938 95.26505ZM400.87875 91.5463Q399.9725 91.90568 398.14438 92.1713Q397.11313 92.31193 396.69125 92.49943Q396.26938 92.68693 396.035 93.0463Q395.80063 93.40568 395.80063 93.84318Q395.80063 94.51505 396.30844 94.960365Q396.81625 95.40568 397.785 95.40568Q398.75375 95.40568 399.50375 94.97599Q400.25375 94.5463 400.61313 93.82755Q400.87875 93.24943 400.87875 92.15568L400.87875 91.5463ZM404.9576 96.4838L404.9576 86.62443L406.4576 86.62443L406.4576 88.03068Q407.55136 86.40568 409.59824 86.40568Q410.48886 86.40568 411.23886 86.72599Q411.98886 87.0463 412.35605 87.56974Q412.72324 88.09318 412.8795 88.7963Q412.97324 89.26505 412.97324 90.4213L412.97324 96.4838L411.30136 96.4838L411.30136 90.4838Q411.30136 89.46818 411.10605 88.960365Q410.91074 88.45255 410.41074 88.15568Q409.91074 87.8588 409.23886 87.8588Q408.17636 87.8588 407.40292 88.53068Q406.6295 89.20255 406.6295 91.1088L406.6295 96.4838L404.9576 96.4838ZM415.3333 96.4838L415.3333 86.62443L416.8333 86.62443L416.8333 88.03068Q417.92706 86.40568 419.97394 86.40568Q420.86456 86.40568 421.61456 86.72599Q422.36456 87.0463 422.73175 87.56974Q423.09894 88.09318 423.2552 88.7963Q423.34894 89.26505 423.34894 90.4213L423.34894 96.4838L421.67706 96.4838L421.67706 90.4838Q421.67706 89.46818 421.48175 88.960365Q421.28644 88.45255 420.78644 88.15568Q420.28644 87.8588 419.61456 87.8588Q418.55206 87.8588 417.77863 88.53068Q417.0052 89.20255 417.0052 91.1088L417.0052 96.4838L415.3333 96.4838ZM432.45905 93.31193L434.1778 93.53068Q433.77155 95.03068 432.66998 95.866615Q431.56842 96.70255 429.84967 96.70255Q427.69342 96.70255 426.4278 95.37443Q425.16217 94.0463 425.16217 91.64005Q425.16217 89.15568 426.4356 87.78068Q427.70905 86.40568 429.75592 86.40568Q431.7403 86.40568 432.9903 87.74943Q434.2403 89.09318 434.2403 91.5463Q434.2403 91.68693 434.22467 91.9838L426.88092 91.9838Q426.97467 93.6088 427.8028 94.46818Q428.63092 95.32755 429.8653 95.32755Q430.77155 95.32755 431.41998 94.85099Q432.06842 94.37443 432.45905 93.31193ZM426.97467 90.6088L432.47467 90.6088Q432.3653 89.37443 431.84967 88.74943Q431.0528 87.78068 429.77155 87.78068Q428.63092 87.78068 427.84186 88.554115Q427.0528 89.32755 426.97467 90.6088ZM436.0535 96.4838L436.0535 82.89005L437.72537 82.89005L437.72537 96.4838L436.0535 96.4838ZM440.54208 96.4838L440.54208 82.89005L449.71396 82.89005L449.71396 84.4838L442.33896 84.4838L442.33896 88.70255L448.71396 88.70255L448.71396 90.31193L442.33896 90.31193L442.33896 96.4838L440.54208 96.4838ZM451.64117 84.7963L451.64117 82.89005L453.31305 82.89005L453.31305 84.7963L451.64117 84.7963ZM451.64117 96.4838L451.64117 86.62443L453.31305 86.62443L453.31305 96.4838L451.64117 96.4838ZM455.7704 96.4838L455.7704 86.62443L457.2704 86.62443L457.2704 88.03068Q458.36414 86.40568 460.411 86.40568Q461.30164 86.40568 462.05164 86.72599Q462.80164 87.0463 463.16882 87.56974Q463.536 88.09318 463.69226 88.7963Q463.786 89.26505 463.786 90.4213L463.786 96.4838L462.11414 96.4838L462.11414 90.4838Q462.11414 89.46818 461.91882 88.960365Q461.7235 88.45255 461.2235 88.15568Q460.7235 87.8588 460.05164 87.8588Q458.98914 87.8588 458.2157 88.53068Q457.44226 89.20255 457.44226 91.1088L457.44226 96.4838L455.7704 96.4838ZM472.5367 96.4838L472.5367 95.2338Q471.5992 96.70255 469.7867 96.70255Q468.61484 96.70255 467.62265 96.054115Q466.63046 95.40568 466.0914 94.241615Q465.55234 93.07755 465.55234 91.56193Q465.55234 90.09318 466.04453 88.89005Q466.5367 87.68693 467.51328 87.0463Q468.48984 86.40568 469.7086 86.40568Q470.5992 86.40568 471.29453 86.78068Q471.98984 87.15568 472.42734 87.76505L472.42734 82.89005L474.0836 82.89005L474.0836 96.4838L472.5367 96.4838ZM467.25546 91.56193Q467.25546 93.45255 468.06015 94.39005Q468.86484 95.32755 469.94296 95.32755Q471.0367 95.32755 471.80234 94.43693Q472.56796 93.5463 472.56796 91.70255Q472.56796 89.68693 471.7867 88.741615Q471.00546 87.7963 469.86484 87.7963Q468.75546 87.7963 468.00546 88.70255Q467.25546 89.6088 467.25546 91.56193ZM483.27182 93.31193L484.99057 93.53068Q484.58432 95.03068 483.48276 95.866615Q482.3812 96.70255 480.66245 96.70255Q478.5062 96.70255 477.24057 95.37443Q475.97495 94.0463 475.97495 91.64005Q475.97495 89.15568 477.24838 87.78068Q478.52182 86.40568 480.5687 86.40568Q482.55307 86.40568 483.80307 87.74943Q485.05307 89.09318 485.05307 91.5463Q485.05307 91.68693 485.03745 91.9838L477.6937 91.9838Q477.78745 93.6088 478.61557 94.46818Q479.4437 95.32755 480.67807 95.32755Q481.58432 95.32755 482.23276 94.85099Q482.8812 94.37443 483.27182 93.31193ZM477.78745 90.6088L483.28745 90.6088Q483.17807 89.37443 482.66245 88.74943Q481.86557 87.78068 480.58432 87.78068Q479.4437 87.78068 478.65463 88.554115Q477.86557 89.32755 477.78745 90.6088ZM486.8819 96.4838L486.8819 86.62443L488.3819 86.62443L488.3819 88.12443Q488.96002 87.07755 489.4444 86.741615Q489.92877 86.40568 490.52252 86.40568Q491.36627 86.40568 492.24127 86.95255L491.66315 88.49943Q491.05377 88.14005 490.42877 88.14005Q489.8819 88.14005 489.4522 88.46818Q489.02252 88.7963 488.83502 89.37443Q488.55377 90.26505 488.55377 91.32755L488.55377 96.4838L486.8819 96.4838Z" fill-rule="nonzero" fill="#000000"></path><path d="M521.20447 128.08383L517.0447 123.92407L353.86588 123.92407L353.86588 176.23676L358.02563 180.39651L521.20447 180.39651ZM521.20447 128.08383L358.02563 128.08383L353.86588 123.92407M358.02563 128.08383L358.02563 180.39651" fill-rule="nonzero" stroke="#000000" stroke-width="2.0" stroke-linejoin="round" stroke-linecap="butt"></path><path d="M372.71875 143.72455L372.71875 142.17767L381.71875 138.36517L381.71875 140.02142L374.57812 142.95892L381.71875 145.92767L381.71875 147.58392L372.71875 143.72455ZM383.6137 143.72455L383.6137 142.17767L392.6137 138.36517L392.6137 140.02142L385.47308 142.95892L392.6137 145.92767L392.6137 147.58392L383.6137 143.72455ZM401.1493 146.0683L402.78992 146.28705Q402.5243 147.97455 401.41492 148.93549Q400.30554 149.89642 398.68054 149.89642Q396.66492 149.89642 395.43835 148.57611Q394.2118 147.2558 394.2118 144.78705Q394.2118 143.1933 394.73523 141.99799Q395.25867 140.80267 396.3446 140.20111Q397.43054 139.59955 398.69617 139.59955Q400.30554 139.59955 401.32117 140.41205Q402.3368 141.22455 402.63367 142.72455L401.00867 142.97455Q400.7743 141.97455 400.18054 141.47455Q399.5868 140.97455 398.75867 140.97455Q397.49304 140.97455 396.70398 141.8808Q395.91492 142.78705 395.91492 144.74017Q395.91492 146.72455 396.68054 147.62299Q397.44617 148.52142 398.66492 148.52142Q399.6493 148.52142 400.30554 147.91986Q400.9618 147.3183 401.1493 146.0683ZM403.41492 144.7558Q403.41492 142.02142 404.94617 140.6933Q406.2118 139.59955 408.03992 139.59955Q410.07117 139.59955 411.36023 140.93549Q412.6493 142.27142 412.6493 144.61517Q412.6493 146.52142 412.07898 147.60736Q411.50867 148.6933 410.42273 149.29486Q409.3368 149.89642 408.03992 149.89642Q405.97742 149.89642 404.69617 148.5683Q403.41492 147.24017 403.41492 144.7558ZM405.13367 144.7558Q405.13367 146.64642 405.9618 147.58392Q406.78992 148.52142 408.03992 148.52142Q409.28992 148.52142 410.11023 147.57611Q410.93054 146.6308 410.93054 144.6933Q410.93054 142.86517 410.10242 141.92767Q409.2743 140.99017 408.03992 140.99017Q406.78992 140.99017 405.9618 141.92767Q405.13367 142.86517 405.13367 144.7558ZM414.41562 149.67767L414.41562 139.8183L415.91562 139.8183L415.91562 141.20892Q416.36874 140.49017 417.14218 140.04486Q417.91562 139.59955 418.9 139.59955Q419.99374 139.59955 420.69687 140.05267Q421.4 140.5058 421.68124 141.33392Q422.85312 139.59955 424.72812 139.59955Q426.19687 139.59955 426.98593 140.41205Q427.775 141.22455 427.775 142.91205L427.775 149.67767L426.10312 149.67767L426.10312 143.47455Q426.10312 142.47455 425.94687 142.02924Q425.79062 141.58392 425.36093 141.3183Q424.93124 141.05267 424.35312 141.05267Q423.32187 141.05267 422.63437 141.74017Q421.94687 142.42767 421.94687 143.95892L421.94687 149.67767L420.275 149.67767L420.275 143.27142Q420.275 142.16205 419.86874 141.60736Q419.4625 141.05267 418.525 141.05267Q417.82187 141.05267 417.2203 141.41986Q416.61874 141.78705 416.35312 142.5058Q416.0875 143.22455 416.0875 144.5683L416.0875 149.67767L414.41562 149.67767ZM429.95642 153.45892L429.95642 139.8183L431.48767 139.8183L431.48767 141.09955Q432.01892 140.34955 432.6986 139.97455Q433.3783 139.59955 434.33142 139.59955Q435.59705 139.59955 436.5658 140.24799Q437.53455 140.89642 438.02673 142.08392Q438.51892 143.27142 438.51892 144.67767Q438.51892 146.1933 437.97205 147.40424Q437.42517 148.61517 436.39392 149.2558Q435.36267 149.89642 434.22205 149.89642Q433.3783 149.89642 432.71423 149.54486Q432.05017 149.1933 431.6283 148.66205L431.6283 153.45892L429.95642 153.45892ZM431.47205 144.80267Q431.47205 146.70892 432.24548 147.61517Q433.01892 148.52142 434.11267 148.52142Q435.22205 148.52142 436.0111 147.58392Q436.80017 146.64642 436.80017 144.66205Q436.80017 142.78705 436.02673 141.84955Q435.2533 140.91205 434.17517 140.91205Q433.11267 140.91205 432.29236 141.91205Q431.47205 142.91205 431.47205 144.80267ZM439.70715 144.7558Q439.70715 142.02142 441.2384 140.6933Q442.50403 139.59955 444.33215 139.59955Q446.3634 139.59955 447.65247 140.93549Q448.94153 142.27142 448.94153 144.61517Q448.94153 146.52142 448.37122 147.60736Q447.8009 148.6933 446.71497 149.29486Q445.62903 149.89642 444.33215 149.89642Q442.26965 149.89642 440.9884 148.5683Q439.70715 147.24017 439.70715 144.7558ZM441.4259 144.7558Q441.4259 146.64642 442.25403 147.58392Q443.08215 148.52142 444.33215 148.52142Q445.58215 148.52142 446.40247 147.57611Q447.22278 146.6308 447.22278 144.6933Q447.22278 142.86517 446.39465 141.92767Q445.56653 140.99017 444.33215 140.99017Q443.08215 140.99017 442.25403 141.92767Q441.4259 142.86517 441.4259 144.7558ZM450.70786 149.67767L450.70786 139.8183L452.20786 139.8183L452.20786 141.22455Q453.3016 139.59955 455.34848 139.59955Q456.2391 139.59955 456.9891 139.91986Q457.7391 140.24017 458.1063 140.76361Q458.47348 141.28705 458.62973 141.99017Q458.72348 142.45892 458.72348 143.61517L458.72348 149.67767L457.0516 149.67767L457.0516 143.67767Q457.0516 142.66205 456.8563 142.15424Q456.66098 141.64642 456.16098 141.34955Q455.66098 141.05267 454.9891 141.05267Q453.9266 141.05267 453.15317 141.72455Q452.37973 142.39642 452.37973 144.30267L452.37973 149.67767L450.70786 149.67767ZM467.8336 146.5058L469.55234 146.72455Q469.1461 148.22455 468.04453 149.06049Q466.94296 149.89642 465.2242 149.89642Q463.06796 149.89642 461.80234 148.5683Q460.5367 147.24017 460.5367 144.83392Q460.5367 142.34955 461.81015 140.97455Q463.0836 139.59955 465.13046 139.59955Q467.11484 139.59955 468.36484 140.9433Q469.61484 142.28705 469.61484 144.74017Q469.61484 144.8808 469.5992 145.17767L462.25546 145.17767Q462.3492 146.80267 463.17734 147.66205Q464.00546 148.52142 465.23984 148.52142Q466.1461 148.52142 466.79453 148.04486Q467.44296 147.5683 467.8336 146.5058ZM462.3492 143.80267L467.8492 143.80267Q467.73984 142.5683 467.2242 141.9433Q466.42734 140.97455 465.1461 140.97455Q464.00546 140.97455 463.2164 141.74799Q462.42734 142.52142 462.3492 143.80267ZM471.4593 149.67767L471.4593 139.8183L472.9593 139.8183L472.9593 141.22455Q474.05304 139.59955 476.0999 139.59955Q476.99054 139.59955 477.74054 139.91986Q478.49054 140.24017 478.85773 140.76361Q479.2249 141.28705 479.38116 141.99017Q479.4749 142.45892 479.4749 143.61517L479.4749 149.67767L477.80304 149.67767L477.80304 143.67767Q477.80304 142.66205 477.60773 142.15424Q477.4124 141.64642 476.9124 141.34955Q476.4124 141.05267 475.74054 141.05267Q474.67804 141.05267 473.9046 141.72455Q473.13116 142.39642 473.13116 144.30267L473.13116 149.67767L471.4593 149.67767ZM485.49127 148.17767L485.72565 149.66205Q485.02252 149.80267 484.46002 149.80267Q483.55377 149.80267 483.05377 149.51361Q482.55377 149.22455 482.35065 148.76361Q482.14752 148.30267 482.14752 146.78705L482.14752 141.1308L480.91315 141.1308L480.91315 139.8183L482.14752 139.8183L482.14752 137.3808L483.80377 136.3808L483.80377 139.8183L485.49127 139.8183L485.49127 141.1308L483.80377 141.1308L483.80377 146.8808Q483.80377 147.59955 483.8897 147.80267Q483.97565 148.0058 484.17877 148.1308Q484.3819 148.2558 484.7569 148.2558Q485.02252 148.2558 485.49127 148.17767ZM495.8152 143.72455L486.8152 147.58392L486.8152 145.92767L493.9402 142.95892L486.8152 140.02142L486.8152 138.36517L495.8152 142.17767L495.8152 143.72455ZM506.71014 143.72455L497.71014 147.58392L497.71014 145.92767L504.83514 142.95892L497.71014 140.02142L497.71014 138.36517L506.71014 142.17767L506.71014 143.72455Z" fill-rule="nonzero" fill="#000000"></path><path d="M383.79822 163.17767L383.79822 161.27142L385.70447 161.27142L385.70447 163.17767L383.79822 163.17767ZM383.79822 171.1308L383.79822 169.22455L385.70447 169.22455L385.70447 171.1308L383.79822 171.1308ZM388.7628 171.1308L388.7628 157.53705L394.79404 157.53705Q396.60654 157.53705 397.55185 157.89642Q398.49716 158.2558 399.05966 159.18549Q399.62216 160.11517 399.62216 161.24017Q399.62216 162.6933 398.69247 163.68549Q397.7628 164.67767 395.79404 164.9433Q396.5128 165.28705 396.8878 165.61517Q397.66904 166.34955 398.37216 167.42767L400.74716 171.1308L398.48154 171.1308L396.68466 168.30267Q395.8878 167.08392 395.37997 166.42767Q394.87216 165.77142 394.4659 165.51361Q394.05966 165.2558 393.6534 165.16205Q393.3409 165.08392 392.6378 165.08392L390.55966 165.08392L390.55966 171.1308L388.7628 171.1308ZM390.55966 163.53705L394.41904 163.53705Q395.6534 163.53705 396.34872 163.27924Q397.04404 163.02142 397.41122 162.45892Q397.7784 161.89642 397.7784 161.24017Q397.7784 160.27142 397.0753 159.65424Q396.37216 159.03705 394.85654 159.03705L390.55966 159.03705L390.55966 163.53705ZM402.23572 171.1308L402.23572 157.53705L412.07947 157.53705L412.07947 159.1308L404.0326 159.1308L404.0326 163.30267L411.56384 163.30267L411.56384 164.89642L404.0326 164.89642L404.0326 169.52142L412.39197 169.52142L412.39197 171.1308L402.23572 171.1308ZM414.03867 166.7558L415.72617 166.61517Q415.85117 167.6308 416.28867 168.28705Q416.72617 168.9433 417.65585 169.34955Q418.58554 169.7558 419.7418 169.7558Q420.77304 169.7558 421.5621 169.4433Q422.35117 169.1308 422.7418 168.59955Q423.13242 168.0683 423.13242 167.4433Q423.13242 166.80267 422.75742 166.32611Q422.38242 165.84955 421.52304 165.52142Q420.97617 165.30267 419.10117 164.85736Q417.22617 164.41205 416.47617 164.0058Q415.50742 163.49017 415.03085 162.74017Q414.5543 161.99017 414.5543 161.05267Q414.5543 160.02142 415.14023 159.12299Q415.72617 158.22455 416.84335 157.76361Q417.96054 157.30267 419.33554 157.30267Q420.85117 157.30267 422.00742 157.78705Q423.16367 158.27142 423.78085 159.21674Q424.39804 160.16205 424.44492 161.36517L422.72617 161.49017Q422.58554 160.20892 421.78085 159.54486Q420.97617 158.8808 419.41367 158.8808Q417.78867 158.8808 417.03867 159.48236Q416.28867 160.08392 416.28867 160.92767Q416.28867 161.66205 416.81992 162.1308Q417.33554 162.59955 419.53085 163.09955Q421.72617 163.59955 422.53867 163.97455Q423.72617 164.52142 424.29648 165.35736Q424.8668 166.1933 424.8668 167.28705Q424.8668 168.3808 424.2418 169.34174Q423.6168 170.30267 422.45273 170.83392Q421.28867 171.36517 419.83554 171.36517Q417.9918 171.36517 416.7418 170.82611Q415.4918 170.28705 414.78085 169.20892Q414.06992 168.1308 414.03867 166.7558ZM430.54474 171.1308L430.54474 159.1308L426.076 159.1308L426.076 157.53705L436.8416 157.53705L436.8416 159.1308L432.3416 159.1308L432.3416 171.1308L430.54474 171.1308ZM443.06152 166.7558L444.74902 166.61517Q444.87402 167.6308 445.31152 168.28705Q445.74902 168.9433 446.6787 169.34955Q447.6084 169.7558 448.76465 169.7558Q449.7959 169.7558 450.58496 169.4433Q451.37402 169.1308 451.76465 168.59955Q452.15527 168.0683 452.15527 167.4433Q452.15527 166.80267 451.78027 166.32611Q451.40527 165.84955 450.5459 165.52142Q449.99902 165.30267 448.12402 164.85736Q446.24902 164.41205 445.49902 164.0058Q444.53027 163.49017 444.0537 162.74017Q443.57715 161.99017 443.57715 161.05267Q443.57715 160.02142 444.1631 159.12299Q444.74902 158.22455 445.8662 157.76361Q446.9834 157.30267 448.3584 157.30267Q449.87402 157.30267 451.03027 157.78705Q452.18652 158.27142 452.8037 159.21674Q453.4209 160.16205 453.46777 161.36517L451.74902 161.49017Q451.6084 160.20892 450.8037 159.54486Q449.99902 158.8808 448.43652 158.8808Q446.81152 158.8808 446.06152 159.48236Q445.31152 160.08392 445.31152 160.92767Q445.31152 161.66205 445.84277 162.1308Q446.3584 162.59955 448.5537 163.09955Q450.74902 163.59955 451.56152 163.97455Q452.74902 164.52142 453.31934 165.35736Q453.88965 166.1933 453.88965 167.28705Q453.88965 168.3808 453.26465 169.34174Q452.63965 170.30267 451.4756 170.83392Q450.31152 171.36517 448.8584 171.36517Q447.01465 171.36517 445.76465 170.82611Q444.51465 170.28705 443.8037 169.20892Q443.09277 168.1308 443.06152 166.7558ZM462.64572 167.95892L464.36447 168.17767Q463.95822 169.67767 462.85666 170.51361Q461.7551 171.34955 460.03635 171.34955Q457.8801 171.34955 456.61447 170.02142Q455.34885 168.6933 455.34885 166.28705Q455.34885 163.80267 456.62228 162.42767Q457.89572 161.05267 459.9426 161.05267Q461.92697 161.05267 463.17697 162.39642Q464.42697 163.74017 464.42697 166.1933Q464.42697 166.33392 464.41135 166.6308L457.0676 166.6308Q457.16135 168.2558 457.98947 169.11517Q458.8176 169.97455 460.05197 169.97455Q460.95822 169.97455 461.60666 169.49799Q462.2551 169.02142 462.64572 167.95892ZM457.16135 165.2558L462.66135 165.2558Q462.55197 164.02142 462.03635 163.39642Q461.23947 162.42767 459.95822 162.42767Q458.8176 162.42767 458.02853 163.20111Q457.23947 163.97455 457.16135 165.2558ZM466.25583 171.1308L466.25583 161.27142L467.75583 161.27142L467.75583 162.77142Q468.33395 161.72455 468.81833 161.38861Q469.3027 161.05267 469.89645 161.05267Q470.7402 161.05267 471.6152 161.59955L471.03708 163.14642Q470.4277 162.78705 469.8027 162.78705Q469.25583 162.78705 468.82614 163.11517Q468.39645 163.4433 468.20895 164.02142Q467.9277 164.91205 467.9277 165.97455L467.9277 171.1308L466.25583 171.1308ZM475.2185 171.1308L471.4685 161.27142L473.23413 161.27142L475.35913 167.17767Q475.70288 168.1308 475.98413 169.16205Q476.20288 168.3808 476.60913 167.28705L478.79663 161.27142L480.51538 161.27142L476.781 171.1308L475.2185 171.1308ZM488.56223 167.95892L490.28098 168.17767Q489.87473 169.67767 488.77316 170.51361Q487.6716 171.34955 485.95288 171.34955Q483.79663 171.34955 482.531 170.02142Q481.26538 168.6933 481.26538 166.28705Q481.26538 163.80267 482.53882 162.42767Q483.81226 161.05267 485.85913 161.05267Q487.84348 161.05267 489.09348 162.39642Q490.34348 163.74017 490.34348 166.1933Q490.34348 166.33392 490.32785 166.6308L482.98413 166.6308Q483.07788 168.2558 483.906 169.11517Q484.73413 169.97455 485.9685 169.97455Q486.87473 169.97455 487.52316 169.49799Q488.1716 169.02142 488.56223 167.95892ZM483.07788 165.2558L488.57785 165.2558Q488.46848 164.02142 487.95285 163.39642Q487.15598 162.42767 485.87476 162.42767Q484.73413 162.42767 483.94507 163.20111Q483.156 163.97455 483.07788 165.2558ZM492.17233 171.1308L492.17233 161.27142L493.67233 161.27142L493.67233 162.77142Q494.25046 161.72455 494.73483 161.38861Q495.2192 161.05267 495.81296 161.05267Q496.6567 161.05267 497.5317 161.59955L496.95358 163.14642Q496.3442 162.78705 495.7192 162.78705Q495.17233 162.78705 494.74265 163.11517Q494.31296 163.4433 494.12546 164.02142Q493.8442 164.91205 493.8442 165.97455L493.8442 171.1308L492.17233 171.1308Z" fill-rule="nonzero" fill="#000000"></path><path d="M521.20447 200.56152L517.0447 196.40176L353.86588 196.40176L353.86588 248.71445L358.02563 252.8742L521.20447 252.8742ZM521.20447 200.56152L358.02563 200.56152L353.86588 196.40176M358.02563 200.56152L358.02563 252.8742" fill-rule="nonzero" stroke="#000000" stroke-width="2.0" stroke-linejoin="round" stroke-linecap="butt"></path><path d="M372.71875 216.20224L372.71875 214.65536L381.71875 210.84286L381.71875 212.49911L374.57812 215.43661L381.71875 218.40536L381.71875 220.06161L372.71875 216.20224ZM383.6137 216.20224L383.6137 214.65536L392.6137 210.84286L392.6137 212.49911L385.47308 215.43661L392.6137 218.40536L392.6137 220.06161L383.6137 216.20224ZM401.1493 218.54599L402.78992 218.76474Q402.5243 220.45224 401.41492 221.41318Q400.30554 222.37411 398.68054 222.37411Q396.66492 222.37411 395.43835 221.0538Q394.2118 219.73349 394.2118 217.26474Q394.2118 215.67099 394.73523 214.47568Q395.25867 213.28036 396.3446 212.6788Q397.43054 212.07724 398.69617 212.07724Q400.30554 212.07724 401.32117 212.88974Q402.3368 213.70224 402.63367 215.20224L401.00867 215.45224Q400.7743 214.45224 400.18054 213.95224Q399.5868 213.45224 398.75867 213.45224Q397.49304 213.45224 396.70398 214.35849Q395.91492 215.26474 395.91492 217.21786Q395.91492 219.20224 396.68054 220.10068Q397.44617 220.99911 398.66492 220.99911Q399.6493 220.99911 400.30554 220.39755Q400.9618 219.79599 401.1493 218.54599ZM403.41492 217.23349Q403.41492 214.49911 404.94617 213.17099Q406.2118 212.07724 408.03992 212.07724Q410.07117 212.07724 411.36023 213.41318Q412.6493 214.74911 412.6493 217.09286Q412.6493 218.99911 412.07898 220.08505Q411.50867 221.17099 410.42273 221.77255Q409.3368 222.37411 408.03992 222.37411Q405.97742 222.37411 404.69617 221.04599Q403.41492 219.71786 403.41492 217.23349ZM405.13367 217.23349Q405.13367 219.12411 405.9618 220.06161Q406.78992 220.99911 408.03992 220.99911Q409.28992 220.99911 410.11023 220.0538Q410.93054 219.10849 410.93054 217.17099Q410.93054 215.34286 410.10242 214.40536Q409.2743 213.46786 408.03992 213.46786Q406.78992 213.46786 405.9618 214.40536Q405.13367 215.34286 405.13367 217.23349ZM414.41562 222.15536L414.41562 212.29599L415.91562 212.29599L415.91562 213.68661Q416.36874 212.96786 417.14218 212.52255Q417.91562 212.07724 418.9 212.07724Q419.99374 212.07724 420.69687 212.53036Q421.4 212.98349 421.68124 213.81161Q422.85312 212.07724 424.72812 212.07724Q426.19687 212.07724 426.98593 212.88974Q427.775 213.70224 427.775 215.38974L427.775 222.15536L426.10312 222.15536L426.10312 215.95224Q426.10312 214.95224 425.94687 214.50693Q425.79062 214.06161 425.36093 213.79599Q424.93124 213.53036 424.35312 213.53036Q423.32187 213.53036 422.63437 214.21786Q421.94687 214.90536 421.94687 216.43661L421.94687 222.15536L420.275 222.15536L420.275 215.74911Q420.275 214.63974 419.86874 214.08505Q419.4625 213.53036 418.525 213.53036Q417.82187 213.53036 417.2203 213.89755Q416.61874 214.26474 416.35312 214.98349Q416.0875 215.70224 416.0875 217.04599L416.0875 222.15536L414.41562 222.15536ZM429.95642 225.93661L429.95642 212.29599L431.48767 212.29599L431.48767 213.57724Q432.01892 212.82724 432.6986 212.45224Q433.3783 212.07724 434.33142 212.07724Q435.59705 212.07724 436.5658 212.72568Q437.53455 213.37411 438.02673 214.56161Q438.51892 215.74911 438.51892 217.15536Q438.51892 218.67099 437.97205 219.88193Q437.42517 221.09286 436.39392 221.73349Q435.36267 222.37411 434.22205 222.37411Q433.3783 222.37411 432.71423 222.02255Q432.05017 221.67099 431.6283 221.13974L431.6283 225.93661L429.95642 225.93661ZM431.47205 217.28036Q431.47205 219.18661 432.24548 220.09286Q433.01892 220.99911 434.11267 220.99911Q435.22205 220.99911 436.0111 220.06161Q436.80017 219.12411 436.80017 217.13974Q436.80017 215.26474 436.02673 214.32724Q435.2533 213.38974 434.17517 213.38974Q433.11267 213.38974 432.29236 214.38974Q431.47205 215.38974 431.47205 217.28036ZM439.70715 217.23349Q439.70715 214.49911 441.2384 213.17099Q442.50403 212.07724 444.33215 212.07724Q446.3634 212.07724 447.65247 213.41318Q448.94153 214.74911 448.94153 217.09286Q448.94153 218.99911 448.37122 220.08505Q447.8009 221.17099 446.71497 221.77255Q445.62903 222.37411 444.33215 222.37411Q442.26965 222.37411 440.9884 221.04599Q439.70715 219.71786 439.70715 217.23349ZM441.4259 217.23349Q441.4259 219.12411 442.25403 220.06161Q443.08215 220.99911 444.33215 220.99911Q445.58215 220.99911 446.40247 220.0538Q447.22278 219.10849 447.22278 217.17099Q447.22278 215.34286 446.39465 214.40536Q445.56653 213.46786 444.33215 213.46786Q443.08215 213.46786 442.25403 214.40536Q441.4259 215.34286 441.4259 217.23349ZM450.70786 222.15536L450.70786 212.29599L452.20786 212.29599L452.20786 213.70224Q453.3016 212.07724 455.34848 212.07724Q456.2391 212.07724 456.9891 212.39755Q457.7391 212.71786 458.1063 213.2413Q458.47348 213.76474 458.62973 214.46786Q458.72348 214.93661 458.72348 216.09286L458.72348 222.15536L457.0516 222.15536L457.0516 216.15536Q457.0516 215.13974 456.8563 214.63193Q456.66098 214.12411 456.16098 213.82724Q455.66098 213.53036 454.9891 213.53036Q453.9266 213.53036 453.15317 214.20224Q452.37973 214.87411 452.37973 216.78036L452.37973 222.15536L450.70786 222.15536ZM467.8336 218.98349L469.55234 219.20224Q469.1461 220.70224 468.04453 221.53818Q466.94296 222.37411 465.2242 222.37411Q463.06796 222.37411 461.80234 221.04599Q460.5367 219.71786 460.5367 217.31161Q460.5367 214.82724 461.81015 213.45224Q463.0836 212.07724 465.13046 212.07724Q467.11484 212.07724 468.36484 213.42099Q469.61484 214.76474 469.61484 217.21786Q469.61484 217.35849 469.5992 217.65536L462.25546 217.65536Q462.3492 219.28036 463.17734 220.13974Q464.00546 220.99911 465.23984 220.99911Q466.1461 220.99911 466.79453 220.52255Q467.44296 220.04599 467.8336 218.98349ZM462.3492 216.28036L467.8492 216.28036Q467.73984 215.04599 467.2242 214.42099Q466.42734 213.45224 465.1461 213.45224Q464.00546 213.45224 463.2164 214.22568Q462.42734 214.99911 462.3492 216.28036ZM471.4593 222.15536L471.4593 212.29599L472.9593 212.29599L472.9593 213.70224Q474.05304 212.07724 476.0999 212.07724Q476.99054 212.07724 477.74054 212.39755Q478.49054 212.71786 478.85773 213.2413Q479.2249 213.76474 479.38116 214.46786Q479.4749 214.93661 479.4749 216.09286L479.4749 222.15536L477.80304 222.15536L477.80304 216.15536Q477.80304 215.13974 477.60773 214.63193Q477.4124 214.12411 476.9124 213.82724Q476.4124 213.53036 475.74054 213.53036Q474.67804 213.53036 473.9046 214.20224Q473.13116 214.87411 473.13116 216.78036L473.13116 222.15536L471.4593 222.15536ZM485.49127 220.65536L485.72565 222.13974Q485.02252 222.28036 484.46002 222.28036Q483.55377 222.28036 483.05377 221.9913Q482.55377 221.70224 482.35065 221.2413Q482.14752 220.78036 482.14752 219.26474L482.14752 213.60849L480.91315 213.60849L480.91315 212.29599L482.14752 212.29599L482.14752 209.85849L483.80377 208.85849L483.80377 212.29599L485.49127 212.29599L485.49127 213.60849L483.80377 213.60849L483.80377 219.35849Q483.80377 220.07724 483.8897 220.28036Q483.97565 220.48349 484.17877 220.60849Q484.3819 220.73349 484.7569 220.73349Q485.02252 220.73349 485.49127 220.65536ZM495.8152 216.20224L486.8152 220.06161L486.8152 218.40536L493.9402 215.43661L486.8152 212.49911L486.8152 210.84286L495.8152 214.65536L495.8152 216.20224ZM506.71014 216.20224L497.71014 220.06161L497.71014 218.40536L504.83514 215.43661L497.71014 212.49911L497.71014 210.84286L506.71014 214.65536L506.71014 216.20224Z" fill-rule="nonzero" fill="#000000"></path><path d="M398.82434 235.65536L398.82434 233.74911L400.7306 233.74911L400.7306 235.65536L398.82434 235.65536ZM398.82434 243.60849L398.82434 241.70224L400.7306 241.70224L400.7306 243.60849L398.82434 243.60849ZM403.53888 247.38974L403.53888 233.74911L405.07013 233.74911L405.07013 235.03036Q405.60138 234.28036 406.28107 233.90536Q406.96075 233.53036 407.91388 233.53036Q409.1795 233.53036 410.14825 234.1788Q411.117 234.82724 411.6092 236.01474Q412.10138 237.20224 412.10138 238.60849Q412.10138 240.12411 411.5545 241.33505Q411.00763 242.54599 409.97638 243.18661Q408.94513 243.82724 407.8045 243.82724Q406.96075 243.82724 406.2967 243.47568Q405.63263 243.12411 405.21075 242.59286L405.21075 247.38974L403.53888 247.38974ZM405.0545 238.73349Q405.0545 240.63974 405.82794 241.54599Q406.60138 242.45224 407.69513 242.45224Q408.8045 242.45224 409.59357 241.51474Q410.38263 240.57724 410.38263 238.59286Q410.38263 236.71786 409.6092 235.78036Q408.83575 234.84286 407.75763 234.84286Q406.69513 234.84286 405.87482 235.84286Q405.0545 236.84286 405.0545 238.73349ZM416.649 243.60849L412.899 233.74911L414.6646 233.74911L416.7896 239.65536Q417.13336 240.60849 417.4146 241.63974Q417.63336 240.85849 418.0396 239.76474L420.2271 233.74911L421.94586 233.74911L418.2115 243.60849L416.649 243.60849ZM421.9615 243.60849L427.19586 230.01474L429.13336 230.01474L434.69586 243.60849L432.649 243.60849L431.05524 239.48349L425.36774 239.48349L423.88336 243.60849L421.9615 243.60849ZM425.88336 238.03036L430.49274 238.03036L429.0865 234.24911Q428.43024 232.54599 428.11774 231.43661Q427.8521 232.74911 427.38336 234.03036L425.88336 238.03036ZM442.1238 239.99911L443.76443 240.21786Q443.4988 241.90536 442.38943 242.8663Q441.28006 243.82724 439.65506 243.82724Q437.63943 243.82724 436.41287 242.50693Q435.1863 241.18661 435.1863 238.71786Q435.1863 237.12411 435.70975 235.9288Q436.2332 234.73349 437.31912 234.13193Q438.40506 233.53036 439.6707 233.53036Q441.28006 233.53036 442.2957 234.34286Q443.3113 235.15536 443.6082 236.65536L441.9832 236.90536Q441.7488 235.90536 441.15506 235.40536Q440.5613 234.90536 439.7332 234.90536Q438.46756 234.90536 437.6785 235.81161Q436.88943 236.71786 436.88943 238.67099Q436.88943 240.65536 437.65506 241.5538Q438.4207 242.45224 439.63943 242.45224Q440.6238 242.45224 441.28006 241.85068Q441.9363 241.24911 442.1238 239.99911ZM451.45193 239.99911L453.09256 240.21786Q452.82693 241.90536 451.71756 242.8663Q450.6082 243.82724 448.9832 243.82724Q446.96756 243.82724 445.741 242.50693Q444.51443 241.18661 444.51443 238.71786Q444.51443 237.12411 445.03787 235.9288Q445.5613 234.73349 446.64725 234.13193Q447.7332 233.53036 448.9988 233.53036Q450.6082 233.53036 451.6238 234.34286Q452.63943 235.15536 452.9363 236.65536L451.3113 236.90536Q451.07693 235.90536 450.4832 235.40536Q449.88943 234.90536 449.0613 234.90536Q447.7957 234.90536 447.00662 235.81161Q446.21756 236.71786 446.21756 238.67099Q446.21756 240.65536 446.9832 241.5538Q447.7488 242.45224 448.96756 242.45224Q449.95193 242.45224 450.6082 241.85068Q451.26443 241.24911 451.45193 239.99911ZM461.09256 240.43661L462.8113 240.65536Q462.40506 242.15536 461.3035 242.9913Q460.20193 243.82724 458.4832 243.82724Q456.32693 243.82724 455.0613 242.49911Q453.7957 241.17099 453.7957 238.76474Q453.7957 236.28036 455.06912 234.90536Q456.34256 233.53036 458.38943 233.53036Q460.3738 233.53036 461.6238 234.87411Q462.8738 236.21786 462.8738 238.67099Q462.8738 238.81161 462.8582 239.10849L455.51443 239.10849Q455.6082 240.73349 456.4363 241.59286Q457.26443 242.45224 458.4988 242.45224Q459.40506 242.45224 460.0535 241.97568Q460.70193 241.49911 461.09256 240.43661ZM455.6082 237.73349L461.1082 237.73349Q460.9988 236.49911 460.4832 235.87411Q459.6863 234.90536 458.40506 234.90536Q457.26443 234.90536 456.47537 235.6788Q455.6863 236.45224 455.6082 237.73349ZM464.0464 240.67099L465.70264 240.40536Q465.84326 241.40536 466.47607 241.9288Q467.1089 242.45224 468.2495 242.45224Q469.40576 242.45224 469.96045 241.98349Q470.51514 241.51474 470.51514 240.88974Q470.51514 240.32724 470.03076 239.99911Q469.687 239.78036 468.32764 239.43661Q466.4839 238.96786 465.77295 238.63193Q465.062 238.29599 464.69482 237.69443Q464.32764 237.09286 464.32764 236.37411Q464.32764 235.71786 464.63232 235.15536Q464.937 234.59286 465.45264 234.21786Q465.84326 233.93661 466.51514 233.73349Q467.187 233.53036 467.95264 233.53036Q469.1245 233.53036 469.9995 233.8663Q470.8745 234.20224 471.28857 234.77255Q471.70264 235.34286 471.8589 236.29599L470.2339 236.51474Q470.1245 235.76474 469.58545 235.33505Q469.0464 234.90536 468.07764 234.90536Q466.9214 234.90536 466.437 235.28818Q465.95264 235.67099 465.95264 236.17099Q465.95264 236.49911 466.15576 236.76474Q466.3589 237.03036 466.7964 237.20224Q467.0464 237.29599 468.26514 237.63974Q470.03076 238.10849 470.7339 238.40536Q471.437 238.70224 471.83545 239.28036Q472.2339 239.85849 472.2339 240.71786Q472.2339 241.54599 471.7495 242.28818Q471.26514 243.03036 470.34326 243.4288Q469.4214 243.82724 468.26514 243.82724Q466.34326 243.82724 465.33545 243.03036Q464.32764 242.23349 464.0464 240.67099ZM473.3745 240.67099L475.03076 240.40536Q475.1714 241.40536 475.8042 241.9288Q476.437 242.45224 477.57764 242.45224Q478.7339 242.45224 479.28857 241.98349Q479.84326 241.51474 479.84326 240.88974Q479.84326 240.32724 479.3589 239.99911Q479.01514 239.78036 477.65576 239.43661Q475.812 238.96786 475.10107 238.63193Q474.39014 238.29599 474.02295 237.69443Q473.65576 237.09286 473.65576 236.37411Q473.65576 235.71786 473.96045 235.15536Q474.26514 234.59286 474.78076 234.21786Q475.1714 233.93661 475.84326 233.73349Q476.51514 233.53036 477.28076 233.53036Q478.45264 233.53036 479.32764 233.8663Q480.20264 234.20224 480.6167 234.77255Q481.03076 235.34286 481.187 236.29599L479.562 236.51474Q479.45264 235.76474 478.91357 235.33505Q478.3745 234.90536 477.40576 234.90536Q476.2495 234.90536 475.76514 235.28818Q475.28076 235.67099 475.28076 236.17099Q475.28076 236.49911 475.4839 236.76474Q475.687 237.03036 476.1245 237.20224Q476.3745 237.29599 477.59326 237.63974Q479.3589 238.10849 480.062 238.40536Q480.76514 238.70224 481.16357 239.28036Q481.562 239.85849 481.562 240.71786Q481.562 241.54599 481.07764 242.28818Q480.59326 243.03036 479.6714 243.4288Q478.7495 243.82724 477.59326 243.82724Q475.6714 243.82724 474.66357 243.03036Q473.65576 242.23349 473.3745 240.67099Z" fill-rule="nonzero" fill="#000000"></path><path d="M188.39398 186.24724L181.76111 179.61436L30.78769 179.61436L30.78769 263.02872L37.42057 269.66162L188.39398 269.66162ZM188.39398 186.24724L37.42057 186.24724L30.78769 179.61436M37.42057 186.24724L37.42057 269.66162" fill-rule="nonzero" stroke="#000000" stroke-width="2.0" stroke-linejoin="round" stroke-linecap="butt"></path><path d="M64.8565 219.01692L64.8565 217.70442L72.45025 214.5013L72.45025 215.90755L66.43462 218.3763L72.45025 220.86067L72.45025 222.26692L64.8565 219.01692ZM74.20025 219.01692L74.20025 217.70442L81.794 214.5013L81.794 215.90755L75.77837 218.3763L81.794 220.86067L81.794 222.26692L74.20025 219.01692ZM83.7315 224.03255L83.7315 215.73567L84.9815 215.73567L84.9815 216.89192Q85.37212 216.28255 86.02056 215.91536Q86.669 215.54817 87.49712 215.54817Q88.419 215.54817 89.01275 215.93098Q89.6065 216.3138 89.84087 217.0013Q90.82525 215.54817 92.40337 215.54817Q93.63775 215.54817 94.30181 216.22786Q94.96587 216.90755 94.96587 218.32942L94.96587 224.03255L93.57525 224.03255L93.57525 218.79817Q93.57525 217.95442 93.43462 217.58723Q93.294 217.22005 92.93462 216.99348Q92.57525 216.76692 92.09087 216.76692Q91.21587 216.76692 90.63775 217.34505Q90.05962 217.92317 90.05962 219.20442L90.05962 224.03255L88.65337 224.03255L88.65337 218.64192Q88.65337 217.70442 88.30962 217.23567Q87.96587 216.76692 87.18462 216.76692Q86.59087 216.76692 86.09087 217.07942Q85.59087 217.39192 85.36431 217.99348Q85.13775 218.59505 85.13775 219.72005L85.13775 224.03255L83.7315 224.03255ZM102.46587 223.0013Q101.68462 223.67317 100.96587 223.94661Q100.24712 224.22005 99.419 224.22005Q98.044 224.22005 97.30962 223.54817Q96.57525 222.8763 96.57525 221.84505Q96.57525 221.23567 96.8565 220.72786Q97.13775 220.22005 97.58306 219.91536Q98.02837 219.61067 98.59087 219.45442Q99.01275 219.34505 99.84087 219.2513Q101.544 219.04817 102.3565 218.76692Q102.3565 218.47005 102.3565 218.39192Q102.3565 217.53255 101.96587 217.1888Q101.419 216.70442 100.3565 216.70442Q99.37212 216.70442 98.89556 217.05598Q98.419 217.40755 98.20025 218.28255L96.82525 218.09505Q97.01275 217.22005 97.44244 216.67317Q97.87212 216.1263 98.68462 215.83723Q99.49712 215.54817 100.55962 215.54817Q101.62212 215.54817 102.28619 215.79817Q102.95025 216.04817 103.26275 216.42317Q103.57525 216.79817 103.70025 217.3763Q103.77837 217.73567 103.77837 218.67317L103.77837 220.54817Q103.77837 222.51692 103.86431 223.03255Q103.95025 223.54817 104.21587 224.03255L102.74712 224.03255Q102.52837 223.59505 102.46587 223.0013ZM102.3565 219.86067Q101.59087 220.17317 100.05962 220.39192Q99.18462 220.51692 98.82525 220.67317Q98.46587 220.82942 98.27056 221.13411Q98.07525 221.4388 98.07525 221.79817Q98.07525 222.36067 98.50494 222.73567Q98.93462 223.11067 99.74712 223.11067Q100.55962 223.11067 101.19244 222.75911Q101.82525 222.40755 102.12212 221.78255Q102.3565 221.3138 102.3565 220.3763L102.3565 219.86067ZM111.36431 220.98567L112.75494 221.17317Q112.52056 222.59505 111.59087 223.40755Q110.66119 224.22005 109.30181 224.22005Q107.59869 224.22005 106.55962 223.10286Q105.52056 221.98567 105.52056 219.90755Q105.52056 218.5638 105.96587 217.55598Q106.41119 216.54817 107.32525 216.04817Q108.23931 215.54817 109.30181 215.54817Q110.66119 215.54817 111.52056 216.22786Q112.37994 216.90755 112.61431 218.17317L111.25494 218.3763Q111.05181 217.54817 110.55962 217.1263Q110.06744 216.70442 109.36431 216.70442Q108.30181 216.70442 107.63775 217.46223Q106.97369 218.22005 106.97369 219.8763Q106.97369 221.54817 107.61431 222.30598Q108.25494 223.0638 109.28619 223.0638Q110.11431 223.0638 110.669 222.55598Q111.22369 222.04817 111.36431 220.98567ZM113.95806 224.03255L113.95806 212.57942L115.36431 212.57942L115.36431 216.6888Q116.34869 215.54817 117.84869 215.54817Q118.77056 215.54817 119.45025 215.90755Q120.12994 216.26692 120.419 216.90755Q120.70806 217.54817 120.70806 218.76692L120.70806 224.03255L119.30181 224.03255L119.30181 218.76692Q119.30181 217.72005 118.84869 217.23567Q118.39556 216.7513 117.55181 216.7513Q116.92681 216.7513 116.37994 217.07942Q115.83306 217.40755 115.59869 217.96223Q115.36431 218.51692 115.36431 219.48567L115.36431 224.03255L113.95806 224.03255ZM122.8565 214.1888L122.8565 212.57942L124.26275 212.57942L124.26275 214.1888L122.8565 214.1888ZM122.8565 224.03255L122.8565 215.73567L124.26275 215.73567L124.26275 224.03255L122.8565 224.03255ZM126.41119 224.03255L126.41119 215.73567L127.67681 215.73567L127.67681 216.90755Q128.58305 215.54817 130.31743 215.54817Q131.06743 215.54817 131.69243 215.8138Q132.31743 216.07942 132.62993 216.51692Q132.94243 216.95442 133.06743 217.5638Q133.14555 217.95442 133.14555 218.92317L133.14555 224.03255L131.7393 224.03255L131.7393 218.98567Q131.7393 218.1263 131.57524 217.69661Q131.41118 217.26692 130.99712 217.01692Q130.58305 216.76692 130.02055 216.76692Q129.1143 216.76692 128.46587 217.33723Q127.81744 217.90755 127.81744 219.5013L127.81744 224.03255L126.41119 224.03255ZM140.98149 221.36067L142.43462 221.53255Q142.09087 222.8138 141.16118 223.51692Q140.23149 224.22005 138.79399 224.22005Q136.96587 224.22005 135.90337 223.09505Q134.84087 221.97005 134.84087 219.95442Q134.84087 217.86067 135.91899 216.70442Q136.99712 215.54817 138.71587 215.54817Q140.37212 215.54817 141.4268 216.68098Q142.48149 217.8138 142.48149 219.86067Q142.48149 219.98567 142.48149 220.23567L136.29399 220.23567Q136.37212 221.61067 137.06743 222.33723Q137.76274 223.0638 138.79399 223.0638Q139.57524 223.0638 140.12212 222.65755Q140.66899 222.2513 140.98149 221.36067ZM136.37212 219.07942L140.99712 219.07942Q140.90337 218.03255 140.46587 217.51692Q139.79399 216.70442 138.73149 216.70442Q137.76274 216.70442 137.09868 217.35286Q136.43462 218.0013 136.37212 219.07942ZM151.6143 219.01692L144.02055 222.26692L144.02055 220.86067L150.03618 218.3763L144.02055 215.90755L144.02055 214.5013L151.6143 217.70442L151.6143 219.01692ZM160.95805 219.01692L153.3643 222.26692L153.3643 220.86067L159.37993 218.3763L153.3643 215.90755L153.3643 214.5013L160.95805 217.70442L160.95805 219.01692Z" fill-rule="nonzero" fill="#000000"></path><path d="M68.12603 235.73567L68.12603 234.14192L69.71978 234.14192L69.71978 235.73567L68.12603 235.73567ZM68.12603 242.4388L68.12603 240.82942L69.71978 240.82942L69.71978 242.4388L68.12603 242.4388ZM72.38384 242.4388L72.38384 230.98567L77.46197 230.98567Q78.99322 230.98567 79.79009 231.29036Q80.58697 231.59505 81.06353 232.3763Q81.54009 233.15755 81.54009 234.11067Q81.54009 235.32942 80.75103 236.16536Q79.96197 237.0013 78.30572 237.22005Q78.91509 237.51692 79.22759 237.79817Q79.88384 238.40755 80.47759 239.3138L82.47759 242.4388L80.57134 242.4388L79.05572 240.04817Q78.38384 239.01692 77.954155 238.47005Q77.52447 237.92317 77.18853 237.70442Q76.85259 237.48567 76.49322 237.40755Q76.24322 237.34505 75.64947 237.34505L73.89947 237.34505L73.89947 242.4388L72.38384 242.4388ZM73.89947 236.03255L77.14947 236.03255Q78.19634 236.03255 78.78228 235.82161Q79.36822 235.61067 79.672905 235.13411Q79.97759 234.65755 79.97759 234.11067Q79.97759 233.29817 79.38384 232.77473Q78.79009 232.2513 77.52447 232.2513L73.89947 232.2513L73.89947 236.03255ZM83.93853 242.4388L83.93853 230.98567L92.21978 230.98567L92.21978 232.32942L85.454155 232.32942L85.454155 235.84505L91.797905 235.84505L91.797905 237.1888L85.454155 237.1888L85.454155 241.07942L92.485405 241.07942L92.485405 242.4388L83.93853 242.4388ZM94.06353 238.7513L95.50103 238.6263Q95.59478 239.48567 95.96978 240.04036Q96.34478 240.59505 97.12603 240.93098Q97.90728 241.26692 98.87603 241.26692Q99.75103 241.26692 100.41509 241.00911Q101.079155 240.7513 101.39947 240.30598Q101.71978 239.86067 101.71978 239.32942Q101.71978 238.78255 101.40728 238.38411Q101.09478 237.98567 100.37603 237.70442Q99.922905 237.53255 98.34478 237.14973Q96.766655 236.76692 96.12603 236.4388Q95.31353 236.0013 94.90728 235.36848Q94.50103 234.73567 94.50103 233.9388Q94.50103 233.07942 94.99322 232.32161Q95.485405 231.5638 96.43072 231.17317Q97.37603 230.78255 98.53228 230.78255Q99.81353 230.78255 100.78228 231.19661Q101.75103 231.61067 102.27447 232.40755Q102.797905 233.20442 102.84478 234.20442L101.391655 234.3138Q101.266655 233.23567 100.59478 232.68098Q99.922905 232.1263 98.59478 232.1263Q97.21978 232.1263 96.59478 232.6263Q95.96978 233.1263 95.96978 233.84505Q95.96978 234.45442 96.40728 234.86067Q96.84478 235.2513 98.69634 235.67317Q100.547905 236.09505 101.235405 236.40755Q102.235405 236.86067 102.71197 237.57161Q103.18853 238.28255 103.18853 239.20442Q103.18853 240.11067 102.66509 240.92317Q102.141655 241.73567 101.15728 242.1888Q100.172905 242.64192 98.954155 242.64192Q97.391655 242.64192 96.34478 242.18098Q95.297905 241.72005 94.69634 240.8138Q94.09478 239.90755 94.06353 238.7513ZM108.172905 242.4388L108.172905 232.32942L104.391655 232.32942L104.391655 230.98567L113.46978 230.98567L113.46978 232.32942L109.68853 232.32942L109.68853 242.4388L108.172905 242.4388ZM127.641655 238.42317L129.15727 238.79817Q128.68852 240.67317 127.44634 241.65755Q126.204155 242.64192 124.422905 242.64192Q122.56353 242.64192 121.40728 241.88411Q120.25103 241.1263 119.641655 239.69661Q119.03228 238.26692 119.03228 236.6263Q119.03228 234.82942 119.71978 233.5013Q120.40728 232.17317 121.66509 231.47786Q122.922905 230.78255 124.43853 230.78255Q126.15728 230.78255 127.329155 231.65755Q128.50102 232.53255 128.96977 234.1263L127.46978 234.47005Q127.079155 233.22005 126.32134 232.64973Q125.56353 232.07942 124.40728 232.07942Q123.09478 232.07942 122.204155 232.71223Q121.31353 233.34505 120.954155 234.41536Q120.59478 235.48567 120.59478 236.61067Q120.59478 238.07942 121.02447 239.16536Q121.454155 240.2513 122.35259 240.79036Q123.25103 241.32942 124.297905 241.32942Q125.56353 241.32942 126.44634 240.59505Q127.329155 239.86067 127.641655 238.42317ZM130.82133 242.4388L130.82133 230.98567L132.22758 230.98567L132.22758 242.4388L130.82133 242.4388ZM134.40727 232.59505L134.40727 230.98567L135.81352 230.98567L135.81352 232.59505L134.40727 232.59505ZM134.40727 242.4388L134.40727 234.14192L135.81352 234.14192L135.81352 242.4388L134.40727 242.4388ZM143.63383 239.76692L145.08696 239.9388Q144.74321 241.22005 143.81352 241.92317Q142.88383 242.6263 141.44633 242.6263Q139.61821 242.6263 138.55571 241.5013Q137.49321 240.3763 137.49321 238.36067Q137.49321 236.26692 138.57133 235.11067Q139.64946 233.95442 141.36821 233.95442Q143.02446 233.95442 144.07915 235.08723Q145.13383 236.22005 145.13383 238.26692Q145.13383 238.39192 145.13383 238.64192L138.94633 238.64192Q139.02446 240.01692 139.71977 240.74348Q140.41508 241.47005 141.44633 241.47005Q142.22758 241.47005 142.77446 241.0638Q143.32133 240.65755 143.63383 239.76692ZM139.02446 237.48567L143.64946 237.48567Q143.55571 236.4388 143.11821 235.92317Q142.44633 235.11067 141.38383 235.11067Q140.41508 235.11067 139.75102 235.75911Q139.08696 236.40755 139.02446 237.48567ZM146.8604 242.4388L146.8604 234.14192L148.12602 234.14192L148.12602 235.3138Q149.03227 233.95442 150.76665 233.95442Q151.51665 233.95442 152.14165 234.22005Q152.76665 234.48567 153.07915 234.92317Q153.39165 235.36067 153.51665 235.97005Q153.59477 236.36067 153.59477 237.32942L153.59477 242.4388L152.18852 242.4388L152.18852 237.39192Q152.18852 236.53255 152.02446 236.10286Q151.8604 235.67317 151.44633 235.42317Q151.03227 235.17317 150.46977 235.17317Q149.56352 235.17317 148.91508 235.74348Q148.26665 236.3138 148.26665 237.90755L148.26665 242.4388L146.8604 242.4388ZM158.82133 241.17317L159.02446 242.42317Q158.43071 242.54817 157.96196 242.54817Q157.19633 242.54817 156.77446 242.30598Q156.35258 242.0638 156.18071 241.66536Q156.00883 241.26692 156.00883 240.0013L156.00883 235.23567L154.97758 235.23567L154.97758 234.14192L156.00883 234.14192L156.00883 232.07942L157.41508 231.23567L157.41508 234.14192L158.82133 234.14192L158.82133 235.23567L157.41508 235.23567L157.41508 240.07942Q157.41508 240.6888 157.4854 240.86067Q157.55571 241.03255 157.72758 241.13411Q157.89946 241.23567 158.21196 241.23567Q158.44633 241.23567 158.82133 241.17317Z" fill-rule="nonzero" fill="#000000"></path><path d="M188.39398 71.735245L338.64935 159.8859" fill-rule="nonzero" stroke="#000000" stroke-width="2.0" stroke-linejoin="round" stroke-linecap="butt"></path><path d="M188.39398 227.95442L338.64935 159.8859" fill-rule="nonzero" stroke="#000000" stroke-width="2.0" stroke-linejoin="round" stroke-linecap="butt"></path><path d="M213.452 68.75474L213.452 67.67661L219.60825 65.08286L219.60825 66.20786L214.71762 68.22349L219.60825 70.23911L219.60825 71.37974L213.452 68.75474ZM221.23541 68.75474L221.23541 67.67661L227.39166 65.08286L227.39166 66.20786L222.50104 68.22349L227.39166 70.23911L227.39166 71.37974L221.23541 68.75474ZM229.15945 75.39536L229.15945 66.08286L230.1907 66.08286L230.1907 66.95786Q230.5657 66.44224 231.02664 66.184425Q231.48758 65.92661 232.15945 65.92661Q233.01883 65.92661 233.67508 66.371925Q234.33133 66.81724 234.66727 67.621925Q235.0032 68.42661 235.0032 69.39536Q235.0032 70.42661 234.63602 71.25474Q234.26883 72.08286 233.55789 72.528175Q232.84695 72.97349 232.0657 72.97349Q231.5032 72.97349 231.05008 72.7313Q230.59695 72.48911 230.30008 72.11411L230.30008 75.39536L229.15945 75.39536ZM230.1907 69.48911Q230.1907 70.78599 230.72195 71.41099Q231.2532 72.03599 231.98758 72.03599Q232.7532 72.03599 233.30008 71.38755Q233.84695 70.73911 233.84695 69.39536Q233.84695 68.09849 233.3157 67.45786Q232.78445 66.81724 232.05008 66.81724Q231.3157 66.81724 230.7532 67.496925Q230.1907 68.17661 230.1907 69.48911ZM238.44693 72.81724L235.88443 66.08286L237.08755 66.08286L238.52505 70.11411Q238.75943 70.77036 238.96255 71.47349Q239.1188 70.94224 239.38443 70.19224L240.88443 66.08286L242.0563 66.08286L239.50943 72.81724L238.44693 72.81724ZM242.361 72.81724L245.93912 63.504738L247.25162 63.504738L251.06412 72.81724L249.65787 72.81724L248.57974 70.00474L244.68912 70.00474L243.65787 72.81724L242.361 72.81724ZM245.0485 68.98911L248.20474 68.98911L247.22037 66.41099Q246.78287 65.23911 246.56412 64.48911Q246.39224 65.37974 246.06412 66.27036L245.0485 68.98911ZM256.51636 70.34849L257.64136 70.48911Q257.46948 71.66099 256.70386 72.31724Q255.93825 72.97349 254.8445 72.97349Q253.45387 72.97349 252.61794 72.06724Q251.782 71.16099 251.782 69.47349Q251.782 68.37974 252.14137 67.559425Q252.50075 66.73911 253.23512 66.33286Q253.9695 65.92661 254.8445 65.92661Q255.93825 65.92661 256.64136 66.4813Q257.34448 67.03599 257.53198 68.05161L256.4226 68.22349Q256.26636 67.55161 255.86794 67.20786Q255.4695 66.86411 254.89137 66.86411Q254.032 66.86411 253.49294 67.4813Q252.95387 68.09849 252.95387 69.44224Q252.95387 70.80161 253.4695 71.4188Q253.98512 72.03599 254.82887 72.03599Q255.50075 72.03599 255.95387 71.621925Q256.40698 71.20786 256.51636 70.34849ZM263.18042 70.34849L264.30542 70.48911Q264.13354 71.66099 263.36792 72.31724Q262.6023 72.97349 261.50854 72.97349Q260.11792 72.97349 259.28198 72.06724Q258.44604 71.16099 258.44604 69.47349Q258.44604 68.37974 258.80542 67.559425Q259.1648 66.73911 259.89917 66.33286Q260.63354 65.92661 261.50854 65.92661Q262.6023 65.92661 263.30542 66.4813Q264.00854 67.03599 264.19604 68.05161L263.08667 68.22349Q262.93042 67.55161 262.53198 67.20786Q262.13354 66.86411 261.55542 66.86411Q260.69604 66.86411 260.15698 67.4813Q259.61792 68.09849 259.61792 69.44224Q259.61792 70.80161 260.13354 71.4188Q260.64917 72.03599 261.49292 72.03599Q262.1648 72.03599 262.61792 71.621925Q263.07104 71.20786 263.18042 70.34849ZM270.06323 70.64536L271.25073 70.78599Q270.96948 71.83286 270.21167 72.403175Q269.45386 72.97349 268.28198 72.97349Q266.7976 72.97349 265.93042 72.059425Q265.06323 71.14536 265.06323 69.50474Q265.06323 67.80161 265.94604 66.86411Q266.82886 65.92661 268.21948 65.92661Q269.57886 65.92661 270.43042 66.84849Q271.28198 67.77036 271.28198 69.42661Q271.28198 69.53599 271.28198 69.73911L266.25073 69.73911Q266.31323 70.84849 266.87573 71.44224Q267.43823 72.03599 268.28198 72.03599Q268.9226 72.03599 269.36792 71.70005Q269.81323 71.36411 270.06323 70.64536ZM266.31323 68.80161L270.07886 68.80161Q270.00073 67.94224 269.64136 67.52036Q269.09448 66.86411 268.2351 66.86411Q267.43823 66.86411 266.90698 67.38755Q266.37573 67.91099 266.31323 68.80161ZM272.4132 70.80161L273.5382 70.62974Q273.63196 71.30161 274.06946 71.6688Q274.50696 72.03599 275.2882 72.03599Q276.06946 72.03599 276.45227 71.715675Q276.83508 71.39536 276.83508 70.95786Q276.83508 70.56724 276.49133 70.34849Q276.25696 70.19224 275.31946 69.95786Q274.06946 69.64536 273.58508 69.41099Q273.1007 69.17661 272.8507 68.77036Q272.6007 68.36411 272.6007 67.86411Q272.6007 67.41099 272.80383 67.028175Q273.00696 66.64536 273.36633 66.39536Q273.63196 66.19224 274.0929 66.059425Q274.55383 65.92661 275.08508 65.92661Q275.86633 65.92661 276.4679 66.153175Q277.06946 66.37974 277.35852 66.77036Q277.64758 67.16099 277.75696 67.81724L276.63196 67.97349Q276.55383 67.44224 276.19446 67.153175Q275.83508 66.86411 275.1632 66.86411Q274.38196 66.86411 274.0382 67.121925Q273.69446 67.37974 273.69446 67.73911Q273.69446 67.95786 273.83508 68.12974Q273.9757 68.31724 274.27258 68.44224Q274.44446 68.50474 275.2882 68.72349Q276.50696 69.05161 276.98352 69.25474Q277.46008 69.45786 277.73352 69.8563Q278.00696 70.25474 278.00696 70.83286Q278.00696 71.41099 277.67102 71.91099Q277.33508 72.41099 276.71008 72.69224Q276.08508 72.97349 275.2882 72.97349Q273.9757 72.97349 273.2882 72.42661Q272.6007 71.87974 272.4132 70.80161ZM279.07727 70.80161L280.20227 70.62974Q280.29602 71.30161 280.73352 71.6688Q281.17102 72.03599 281.95227 72.03599Q282.73352 72.03599 283.11633 71.715675Q283.49915 71.39536 283.49915 70.95786Q283.49915 70.56724 283.1554 70.34849Q282.92102 70.19224 281.98352 69.95786Q280.73352 69.64536 280.24915 69.41099Q279.76477 69.17661 279.51477 68.77036Q279.26477 68.36411 279.26477 67.86411Q279.26477 67.41099 279.4679 67.028175Q279.67102 66.64536 280.0304 66.39536Q280.29602 66.19224 280.75696 66.059425Q281.2179 65.92661 281.74915 65.92661Q282.5304 65.92661 283.13196 66.153175Q283.73352 66.37974 284.02258 66.77036Q284.31165 67.16099 284.42102 67.81724L283.29602 67.97349Q283.2179 67.44224 282.85852 67.153175Q282.49915 66.86411 281.82727 66.86411Q281.04602 66.86411 280.70227 67.121925Q280.35852 67.37974 280.35852 67.73911Q280.35852 67.95786 280.49915 68.12974Q280.63977 68.31724 280.93665 68.44224Q281.10852 68.50474 281.95227 68.72349Q283.17102 69.05161 283.64758 69.25474Q284.12415 69.45786 284.39758 69.8563Q284.67102 70.25474 284.67102 70.83286Q284.67102 71.41099 284.33508 71.91099Q283.99915 72.41099 283.37415 72.69224Q282.74915 72.97349 281.95227 72.97349Q280.63977 72.97349 279.95227 72.42661Q279.26477 71.87974 279.07727 70.80161ZM292.21008 68.75474L286.05383 71.37974L286.05383 70.23911L290.92883 68.22349L286.05383 66.20786L286.05383 65.08286L292.21008 67.67661L292.21008 68.75474ZM299.9935 68.75474L293.83725 71.37974L293.83725 70.23911L298.71225 68.22349L293.83725 66.20786L293.83725 65.08286L299.9935 67.67661L299.9935 68.75474Z" fill-rule="nonzero" fill="#000000"></path><path d="M231.27478 239.42665L231.27478 238.34853L237.43103 235.75478L237.43103 236.87978L232.5404 238.8954L237.43103 240.91103L237.43103 242.05165L231.27478 239.42665ZM239.0582 239.42665L239.0582 238.34853L245.21445 235.75478L245.21445 236.87978L240.32382 238.8954L245.21445 240.91103L245.21445 242.05165L239.0582 239.42665ZM247.16974 243.48915L247.16974 234.17665L248.38849 234.17665L248.38849 238.00478L253.23224 238.00478L253.23224 234.17665L254.46661 234.17665L254.46661 243.48915L253.23224 243.48915L253.23224 239.09853L248.38849 239.09853L248.38849 243.48915L247.16974 243.48915ZM259.12302 243.48915L259.12302 235.28603L256.06052 235.28603L256.06052 234.17665L263.43552 234.17665L263.43552 235.28603L260.3574 235.28603L260.3574 243.48915L259.12302 243.48915ZM267.26437 243.48915L267.26437 235.28603L264.20187 235.28603L264.20187 234.17665L271.57687 234.17665L271.57687 235.28603L268.49875 235.28603L268.49875 243.48915L267.26437 243.48915ZM273.03073 243.48915L273.03073 234.17665L276.54636 234.17665Q277.46823 234.17665 277.9526 234.2704Q278.6401 234.37978 279.10886 234.70009Q279.5776 235.0204 279.85886 235.59853Q280.1401 236.17665 280.1401 236.87978Q280.1401 238.06728 279.3823 238.88759Q278.62448 239.7079 276.65573 239.7079L274.2651 239.7079L274.2651 243.48915L273.03073 243.48915ZM274.2651 238.61415L276.67136 238.61415Q277.85886 238.61415 278.36667 238.16884Q278.87448 237.72353 278.87448 236.91103Q278.87448 236.3329 278.5776 235.91884Q278.28073 235.50478 277.79636 235.36415Q277.48386 235.28603 276.6401 235.28603L274.2651 235.28603L274.2651 238.61415ZM287.7955 239.42665L281.63925 242.05165L281.63925 240.91103L286.51425 238.8954L281.63925 236.87978L281.63925 235.75478L287.7955 238.34853L287.7955 239.42665ZM295.57892 239.42665L289.42267 242.05165L289.42267 240.91103L294.29767 238.8954L289.42267 236.87978L289.42267 235.75478L295.57892 238.34853L295.57892 239.42665Z" fill-rule="nonzero" fill="#000000"></path><path d="M654.9751 265.3053L658.1752 252.50504L670.9754 249.30498L654.9751 265.3053L574.9754 265.3053L574.9754 169.3053L670.9754 169.3053L670.9754 249.30498" fill-rule="nonzero" stroke="#000000" stroke-width="2.0" stroke-linejoin="round" stroke-linecap="butt"></path><path d="M600.95135 215.4692L600.95135 203.4692L596.4826 203.4692L596.4826 201.87544L607.2482 201.87544L607.2482 203.4692L602.7482 203.4692L602.7482 215.4692L600.95135 215.4692ZM608.34735 208.8442Q608.34735 205.45357 610.16766 203.5395Q611.988 201.62544 614.863 201.62544Q616.738 201.62544 618.2536 202.52388Q619.7692 203.42232 620.5583 205.0317Q621.34735 206.64107 621.34735 208.68794Q621.34735 210.75044 620.5114 212.38326Q619.6755 214.01607 618.1442 214.85982Q616.613 215.70357 614.84735 215.70357Q612.9255 215.70357 611.41766 214.77388Q609.90985 213.8442 609.1286 212.24263Q608.34735 210.64107 608.34735 208.8442ZM610.2067 208.87544Q610.2067 211.32857 611.52704 212.74263Q612.84735 214.1567 614.8317 214.1567Q616.863 214.1567 618.1755 212.727Q619.488 211.29732 619.488 208.67232Q619.488 207.01607 618.9333 205.7817Q618.3786 204.54732 617.29266 203.85982Q616.2067 203.17232 614.863 203.17232Q612.9567 203.17232 611.5817 204.48482Q610.2067 205.79732 610.2067 208.87544ZM623.40564 215.4692L623.40564 201.87544L628.09314 201.87544Q629.67126 201.87544 630.515 202.06294Q631.67126 202.32857 632.4994 203.0317Q633.5775 203.95357 634.10876 205.36763Q634.64 206.7817 634.64 208.5942Q634.64 210.14107 634.28064 211.33638Q633.92126 212.5317 633.35876 213.32076Q632.79626 214.10982 632.1244 214.55513Q631.4525 215.00044 630.4994 215.23482Q629.54626 215.4692 628.3119 215.4692L623.40564 215.4692ZM625.2025 213.85982L628.10876 213.85982Q629.4525 213.85982 630.21814 213.60982Q630.98376 213.35982 631.4369 212.9067Q632.0775 212.26607 632.4369 211.18794Q632.79626 210.10982 632.79626 208.56294Q632.79626 206.43794 632.09314 205.2895Q631.39 204.14107 630.39 203.75044Q629.67126 203.4692 628.0619 203.4692L625.2025 203.4692L625.2025 213.85982ZM636.3317 208.8442Q636.3317 205.45357 638.15204 203.5395Q639.97235 201.62544 642.84735 201.62544Q644.72235 201.62544 646.238 202.52388Q647.7536 203.42232 648.54266 205.0317Q649.3317 206.64107 649.3317 208.68794Q649.3317 210.75044 648.4958 212.38326Q647.65985 214.01607 646.1286 214.85982Q644.59735 215.70357 642.8317 215.70357Q640.90985 215.70357 639.40204 214.77388Q637.8942 213.8442 637.113 212.24263Q636.3317 210.64107 636.3317 208.8442ZM638.1911 208.87544Q638.1911 211.32857 639.5114 212.74263Q640.8317 214.1567 642.8161 214.1567Q644.84735 214.1567 646.15985 212.727Q647.47235 211.29732 647.47235 208.67232Q647.47235 207.01607 646.91766 205.7817Q646.363 204.54732 645.27704 203.85982Q644.1911 203.17232 642.84735 203.17232Q640.9411 203.17232 639.5661 204.48482Q638.1911 205.79732 638.1911 208.87544Z" fill-rule="nonzero" fill="#000000"></path><path d="M574.9754 217.3053L521.20447 226.71786" fill-rule="nonzero" stroke="#000000" stroke-width="2.0" stroke-linejoin="round" stroke-linecap="butt" stroke-dasharray="2.0,6.0"></path></svg>

