<?xml version="1.0" standalone="yes"?>

<svg version="1.1" viewBox="0.0 0.0 953.0 536.0" fill="none" stroke="none" stroke-linecap="square" stroke-miterlimit="10" clip-path="url(#p.0)" xmlns="http://www.w3.org/2000/svg" xmlns:xlink="http://www.w3.org/1999/xlink"><clipPath id="p.0"><path d="M0 0L953.0 0L953.0 536.0L0 536.0L0 0Z" clip-rule="nonzero"></path></clipPath><path d="M602.1944 49.48743L581.9826 29.27559L327.80072 29.27559L327.80072 435.111L348.01254 455.32285L602.1944 455.32285ZM602.1944 49.48743L348.01254 49.48743L327.80072 29.27559M348.01254 49.48743L348.01254 455.32285" fill-rule="nonzero" stroke="#000000" stroke-width="2.0" stroke-linejoin="round" stroke-linecap="butt"></path><path d="M567.1393 299.41003L556.97076 289.24146L373.02905 289.24146L373.02905 417.12015L383.19763 427.28873L567.1393 427.28873ZM567.1393 299.41003L383.19763 299.41003L373.02905 289.24146M383.19763 299.41003L383.19763 427.28873" fill-rule="nonzero" stroke="#000000" stroke-width="2.0" stroke-linejoin="round" stroke-linecap="butt"></path><path d="M406.19974 352.83374L406.19974 351.28687L415.19974 347.47437L415.19974 349.1306L408.0591 352.0681L415.19974 355.03687L415.19974 356.6931L406.19974 352.83374ZM417.0947 352.83374L417.0947 351.28687L426.0947 347.47437L426.0947 349.1306L418.95407 352.0681L426.0947 355.03687L426.0947 356.6931L417.0947 352.83374ZM438.11465 354.02124L439.91153 354.47437Q439.34903 356.6931 437.88028 357.85718Q436.41153 359.02124 434.28653 359.02124Q432.0834 359.02124 430.7084 358.1228Q429.3334 357.22437 428.61465 355.52905Q427.8959 353.83374 427.8959 351.8806Q427.8959 349.7556 428.7006 348.1775Q429.50528 346.59937 431.00528 345.77905Q432.50528 344.95874 434.30215 344.95874Q436.34903 344.95874 437.73965 345.9978Q439.13028 347.03687 439.67715 348.91187L437.91153 349.33374Q437.44278 347.84937 436.53653 347.16968Q435.63028 346.49 434.2709 346.49Q432.7084 346.49 431.65372 347.24Q430.59903 347.99 430.16934 349.26343Q429.73965 350.53687 429.73965 351.8806Q429.73965 353.615 430.24747 354.90405Q430.75528 356.1931 431.8256 356.83374Q432.8959 357.47437 434.13028 357.47437Q435.6459 357.47437 436.69278 356.60718Q437.73965 355.74 438.11465 354.02124ZM441.04074 353.865Q441.04074 351.1306 442.572 349.8025Q443.83762 348.70874 445.66574 348.70874Q447.697 348.70874 448.98605 350.04468Q450.27512 351.3806 450.27512 353.72437Q450.27512 355.6306 449.7048 356.71655Q449.1345 357.8025 448.04855 358.40405Q446.96262 359.0056 445.66574 359.0056Q443.60324 359.0056 442.322 357.6775Q441.04074 356.34937 441.04074 353.865ZM442.7595 353.865Q442.7595 355.7556 443.58762 356.6931Q444.41574 357.6306 445.66574 357.6306Q446.91574 357.6306 447.73605 356.6853Q448.55637 355.74 448.55637 353.8025Q448.55637 351.97437 447.72824 351.03687Q446.90012 350.09937 445.66574 350.09937Q444.41574 350.09937 443.58762 351.03687Q442.7595 351.97437 442.7595 353.865ZM452.04144 358.78687L452.04144 348.9275L453.54144 348.9275L453.54144 350.3181Q453.99457 349.59937 454.768 349.15405Q455.54144 348.70874 456.52582 348.70874Q457.61957 348.70874 458.3227 349.16187Q459.02582 349.615 459.30707 350.4431Q460.47894 348.70874 462.35394 348.70874Q463.8227 348.70874 464.61176 349.52124Q465.40082 350.33374 465.40082 352.02124L465.40082 358.78687L463.72894 358.78687L463.72894 352.58374Q463.72894 351.58374 463.5727 351.13843Q463.41644 350.6931 462.98676 350.4275Q462.55707 350.16187 461.97894 350.16187Q460.9477 350.16187 460.2602 350.84937Q459.5727 351.53687 459.5727 353.0681L459.5727 358.78687L457.90082 358.78687L457.90082 352.3806Q457.90082 351.27124 457.49457 350.71655Q457.08832 350.16187 456.15082 350.16187Q455.4477 350.16187 454.84613 350.52905Q454.24457 350.89624 453.97894 351.615Q453.71332 352.33374 453.71332 353.6775L453.71332 358.78687L452.04144 358.78687ZM467.58224 362.5681L467.58224 348.9275L469.1135 348.9275L469.1135 350.20874Q469.64474 349.45874 470.32443 349.08374Q471.00412 348.70874 471.95724 348.70874Q473.22287 348.70874 474.19162 349.35718Q475.16037 350.0056 475.65256 351.1931Q476.14474 352.3806 476.14474 353.78687Q476.14474 355.3025 475.59787 356.51343Q475.051 357.72437 474.01974 358.365Q472.9885 359.0056 471.84787 359.0056Q471.00412 359.0056 470.34006 358.65405Q469.676 358.3025 469.25412 357.77124L469.25412 362.5681L467.58224 362.5681ZM469.09787 353.91187Q469.09787 355.8181 469.8713 356.72437Q470.64474 357.6306 471.7385 357.6306Q472.84787 357.6306 473.63693 356.6931Q474.426 355.7556 474.426 353.77124Q474.426 351.89624 473.65256 350.95874Q472.87912 350.02124 471.801 350.02124Q470.7385 350.02124 469.91818 351.02124Q469.09787 352.02124 469.09787 353.91187ZM477.33298 353.865Q477.33298 351.1306 478.86423 349.8025Q480.12985 348.70874 481.95798 348.70874Q483.98923 348.70874 485.2783 350.04468Q486.56735 351.3806 486.56735 353.72437Q486.56735 355.6306 485.99704 356.71655Q485.42673 357.8025 484.3408 358.40405Q483.25485 359.0056 481.95798 359.0056Q479.89548 359.0056 478.61423 357.6775Q477.33298 356.34937 477.33298 353.865ZM479.05173 353.865Q479.05173 355.7556 479.87985 356.6931Q480.70798 357.6306 481.95798 357.6306Q483.20798 357.6306 484.0283 356.6853Q484.8486 355.74 484.8486 353.8025Q484.8486 351.97437 484.02048 351.03687Q483.19235 350.09937 481.95798 350.09937Q480.70798 350.09937 479.87985 351.03687Q479.05173 351.97437 479.05173 353.865ZM488.33368 358.78687L488.33368 348.9275L489.83368 348.9275L489.83368 350.33374Q490.92743 348.70874 492.9743 348.70874Q493.86493 348.70874 494.61493 349.02905Q495.36493 349.34937 495.73212 349.8728Q496.0993 350.39624 496.25555 351.09937Q496.3493 351.5681 496.3493 352.72437L496.3493 358.78687L494.67743 358.78687L494.67743 352.78687Q494.67743 351.77124 494.48212 351.26343Q494.2868 350.7556 493.7868 350.45874Q493.2868 350.16187 492.61493 350.16187Q491.55243 350.16187 490.779 350.83374Q490.00555 351.5056 490.00555 353.41187L490.00555 358.78687L488.33368 358.78687ZM505.4594 355.615L507.17816 355.83374Q506.7719 357.33374 505.67035 358.16968Q504.5688 359.0056 502.85004 359.0056Q500.6938 359.0056 499.42816 357.6775Q498.16254 356.34937 498.16254 353.9431Q498.16254 351.45874 499.43597 350.08374Q500.7094 348.70874 502.7563 348.70874Q504.74066 348.70874 505.99066 350.0525Q507.24066 351.39624 507.24066 353.84937Q507.24066 353.99 507.22504 354.28687L499.8813 354.28687Q499.97504 355.91187 500.80316 356.77124Q501.6313 357.6306 502.86566 357.6306Q503.7719 357.6306 504.42035 357.15405Q505.0688 356.6775 505.4594 355.615ZM499.97504 352.91187L505.47504 352.91187Q505.36566 351.6775 504.85004 351.0525Q504.05316 350.08374 502.7719 350.08374Q501.6313 350.08374 500.84222 350.85718Q500.05316 351.6306 499.97504 352.91187ZM509.0851 358.78687L509.0851 348.9275L510.5851 348.9275L510.5851 350.33374Q511.67886 348.70874 513.72577 348.70874Q514.6164 348.70874 515.3664 349.02905Q516.1164 349.34937 516.4836 349.8728Q516.85077 350.39624 517.007 351.09937Q517.10077 351.5681 517.10077 352.72437L517.10077 358.78687L515.4289 358.78687L515.4289 352.78687Q515.4289 351.77124 515.2336 351.26343Q515.03827 350.7556 514.53827 350.45874Q514.03827 350.16187 513.3664 350.16187Q512.3039 350.16187 511.53043 350.83374Q510.757 351.5056 510.757 353.41187L510.757 358.78687L509.0851 358.78687ZM523.11707 357.28687L523.35144 358.77124Q522.6483 358.91187 522.0858 358.91187Q521.17957 358.91187 520.67957 358.6228Q520.17957 358.33374 519.97644 357.8728Q519.7733 357.41187 519.7733 355.89624L519.7733 350.24L518.53894 350.24L518.53894 348.9275L519.7733 348.9275L519.7733 346.49L521.42957 345.49L521.42957 348.9275L523.11707 348.9275L523.11707 350.24L521.42957 350.24L521.42957 355.99Q521.42957 356.70874 521.5155 356.91187Q521.60144 357.115 521.80457 357.24Q522.0077 357.365 522.3827 357.365Q522.6483 357.365 523.11707 357.28687ZM533.44104 352.83374L524.44104 356.6931L524.44104 355.03687L531.56604 352.0681L524.44104 349.1306L524.44104 347.47437L533.44104 351.28687L533.44104 352.83374ZM544.336 352.83374L535.336 356.6931L535.336 355.03687L542.461 352.0681L535.336 349.1306L535.336 347.47437L544.336 351.28687L544.336 352.83374Z" fill-rule="nonzero" fill="#000000"></path><path d="M413.6354 372.28687L413.6354 370.3806L415.54166 370.3806L415.54166 372.28687L413.6354 372.28687ZM413.6354 380.24L413.6354 378.33374L415.54166 378.33374L415.54166 380.24L413.6354 380.24ZM422.02185 380.24L422.02185 368.24L417.5531 368.24L417.5531 366.64624L428.31873 366.64624L428.31873 368.24L423.81873 368.24L423.81873 380.24L422.02185 380.24ZM429.73032 380.24L429.73032 370.3806L431.23032 370.3806L431.23032 371.8806Q431.80844 370.83374 432.29282 370.4978Q432.7772 370.16187 433.37094 370.16187Q434.2147 370.16187 435.0897 370.70874L434.51157 372.2556Q433.9022 371.89624 433.2772 371.89624Q432.73032 371.89624 432.30063 372.22437Q431.87094 372.5525 431.68344 373.1306Q431.4022 374.02124 431.4022 375.08374L431.4022 380.24L429.73032 380.24ZM442.39612 379.02124Q441.45862 379.8181 440.59924 380.13843Q439.73987 380.45874 438.7555 380.45874Q437.14612 380.45874 436.27112 379.66968Q435.39612 378.8806 435.39612 377.64624Q435.39612 376.91187 435.72424 376.3181Q436.05237 375.72437 436.58362 375.365Q437.11487 375.0056 437.78674 374.8181Q438.28674 374.6775 439.27112 374.5681Q441.30237 374.3181 442.2555 373.99Q442.2555 373.64624 442.2555 373.5525Q442.2555 372.53687 441.78674 372.115Q441.14612 371.5525 439.8805 371.5525Q438.70862 371.5525 438.14612 371.95874Q437.58362 372.365 437.318 373.4275L435.67737 373.1931Q435.91174 372.14624 436.41956 371.5056Q436.92737 370.865 437.8883 370.51343Q438.84924 370.16187 440.1305 370.16187Q441.39612 370.16187 442.17737 370.45874Q442.95862 370.7556 443.33362 371.20874Q443.70862 371.66187 443.84924 372.34937Q443.943 372.77124 443.943 373.8806L443.943 376.115Q443.943 378.4431 444.04456 379.0603Q444.14612 379.6775 444.47424 380.24L442.72424 380.24Q442.45862 379.72437 442.39612 379.02124ZM442.2555 375.3025Q441.34924 375.66187 439.52112 375.9275Q438.48987 376.0681 438.068 376.2556Q437.64612 376.4431 437.41174 376.8025Q437.17737 377.16187 437.17737 377.59937Q437.17737 378.27124 437.68518 378.71655Q438.193 379.16187 439.16174 379.16187Q440.1305 379.16187 440.8805 378.73218Q441.6305 378.3025 441.98987 377.58374Q442.2555 377.0056 442.2555 375.91187L442.2555 375.3025ZM452.77185 376.6306L454.41248 376.84937Q454.14685 378.53687 453.03748 379.4978Q451.9281 380.45874 450.3031 380.45874Q448.28748 380.45874 447.0609 379.13843Q445.83435 377.8181 445.83435 375.34937Q445.83435 373.7556 446.3578 372.5603Q446.88123 371.365 447.96716 370.76343Q449.0531 370.16187 450.31873 370.16187Q451.9281 370.16187 452.94373 370.97437Q453.95935 371.78687 454.25623 373.28687L452.63123 373.53687Q452.39685 372.53687 451.8031 372.03687Q451.20935 371.53687 450.38123 371.53687Q449.1156 371.53687 448.32654 372.4431Q447.53748 373.34937 447.53748 375.3025Q447.53748 377.28687 448.3031 378.1853Q449.06873 379.08374 450.28748 379.08374Q451.27185 379.08374 451.9281 378.48218Q452.58435 377.8806 452.77185 376.6306ZM455.6781 380.24L455.6781 366.64624L457.34998 366.64624L457.34998 374.39624L461.3031 370.3806L463.45935 370.3806L459.69373 374.03687L463.83435 380.24L461.77185 380.24L458.52185 375.20874L457.34998 376.33374L457.34998 380.24L455.6781 380.24ZM465.00623 368.5525L465.00623 366.64624L466.6781 366.64624L466.6781 368.5525L465.00623 368.5525ZM465.00623 380.24L465.00623 370.3806L466.6781 370.3806L466.6781 380.24L465.00623 380.24ZM469.1354 380.24L469.1354 370.3806L470.6354 370.3806L470.6354 371.78687Q471.72916 370.16187 473.77603 370.16187Q474.66666 370.16187 475.41666 370.48218Q476.16666 370.8025 476.53384 371.32593Q476.90103 371.84937 477.05728 372.5525Q477.15103 373.02124 477.15103 374.1775L477.15103 380.24L475.47916 380.24L475.47916 374.24Q475.47916 373.22437 475.28384 372.71655Q475.08853 372.20874 474.58853 371.91187Q474.08853 371.615 473.41666 371.615Q472.35416 371.615 471.58072 372.28687Q470.80728 372.95874 470.80728 374.865L470.80728 380.24L469.1354 380.24ZM479.21426 381.0525L480.82364 381.3025Q480.933 382.0525 481.40176 382.39624Q482.01114 382.84937 483.08926 382.84937Q484.26114 382.84937 484.88614 382.38843Q485.51114 381.9275 485.7455 381.09937Q485.8705 380.58374 485.8549 378.9431Q484.76114 380.24 483.13614 380.24Q481.1049 380.24 479.9877 378.77124Q478.8705 377.3025 478.8705 375.2556Q478.8705 373.84937 479.38614 372.65405Q479.90176 371.45874 480.8705 370.8103Q481.83926 370.16187 483.13614 370.16187Q484.88614 370.16187 486.01114 371.5681L486.01114 370.3806L487.558 370.3806L487.558 378.89624Q487.558 381.20874 487.08926 382.16968Q486.6205 383.1306 485.6049 383.6853Q484.58926 384.24 483.1049 384.24Q481.33926 384.24 480.25333 383.4431Q479.1674 382.64624 479.21426 381.0525ZM480.58926 375.1306Q480.58926 377.08374 481.3627 377.97437Q482.13614 378.865 483.2924 378.865Q484.433 378.865 485.21426 377.97437Q485.9955 377.08374 485.9955 375.1931Q485.9955 373.3806 485.19083 372.46655Q484.38614 371.5525 483.26114 371.5525Q482.15176 371.5525 481.3705 372.45093Q480.58926 373.34937 480.58926 375.1306ZM504.99203 375.47437L506.7889 375.9275Q506.2264 378.14624 504.75766 379.3103Q503.2889 380.47437 501.1639 380.47437Q498.9608 380.47437 497.5858 379.57593Q496.2108 378.6775 495.49203 376.98218Q494.7733 375.28687 494.7733 373.33374Q494.7733 371.20874 495.57797 369.6306Q496.38266 368.0525 497.88266 367.23218Q499.38266 366.41187 501.17953 366.41187Q503.2264 366.41187 504.61703 367.45093Q506.00766 368.49 506.55453 370.365L504.7889 370.78687Q504.32016 369.3025 503.4139 368.6228Q502.50766 367.9431 501.1483 367.9431Q499.5858 367.9431 498.5311 368.6931Q497.4764 369.4431 497.04672 370.71655Q496.61703 371.99 496.61703 373.33374Q496.61703 375.0681 497.12485 376.35718Q497.63266 377.64624 498.70297 378.28687Q499.7733 378.9275 501.00766 378.9275Q502.5233 378.9275 503.57016 378.0603Q504.61703 377.1931 504.99203 375.47437ZM507.9181 375.3181Q507.9181 372.58374 509.44934 371.2556Q510.71497 370.16187 512.5431 370.16187Q514.57434 370.16187 515.8634 371.4978Q517.15247 372.83374 517.15247 375.1775Q517.15247 377.08374 516.58215 378.16968Q516.01184 379.2556 514.9259 379.85718Q513.83997 380.45874 512.5431 380.45874Q510.4806 380.45874 509.19934 379.1306Q507.9181 377.8025 507.9181 375.3181ZM509.63684 375.3181Q509.63684 377.20874 510.46497 378.14624Q511.29312 379.08374 512.5431 379.08374Q513.7931 379.08374 514.6134 378.13843Q515.4337 377.1931 515.4337 375.2556Q515.4337 373.4275 514.6056 372.49Q513.77747 371.5525 512.5431 371.5525Q511.29312 371.5525 510.46497 372.49Q509.63684 373.4275 509.63684 375.3181ZM525.30945 380.24L525.30945 378.99Q524.37195 380.45874 522.55945 380.45874Q521.3876 380.45874 520.3954 379.8103Q519.4032 379.16187 518.86414 377.9978Q518.3251 376.83374 518.3251 375.3181Q518.3251 373.84937 518.81726 372.64624Q519.30945 371.4431 520.286 370.8025Q521.2626 370.16187 522.4813 370.16187Q523.37195 370.16187 524.06726 370.53687Q524.7626 370.91187 525.2001 371.52124L525.2001 366.64624L526.8563 366.64624L526.8563 380.24L525.30945 380.24ZM520.0282 375.3181Q520.0282 377.20874 520.8329 378.14624Q521.6376 379.08374 522.7157 379.08374Q523.80945 379.08374 524.5751 378.1931Q525.3407 377.3025 525.3407 375.45874Q525.3407 373.4431 524.55945 372.4978Q523.7782 371.5525 522.6376 371.5525Q521.5282 371.5525 520.7782 372.45874Q520.0282 373.365 520.0282 375.3181ZM536.04456 377.0681L537.7633 377.28687Q537.35706 378.78687 536.2555 379.6228Q535.15393 380.45874 533.4352 380.45874Q531.27893 380.45874 530.0133 379.1306Q528.7477 377.8025 528.7477 375.39624Q528.7477 372.91187 530.0211 371.53687Q531.29456 370.16187 533.34143 370.16187Q535.3258 370.16187 536.5758 371.5056Q537.8258 372.84937 537.8258 375.3025Q537.8258 375.4431 537.8102 375.74L530.46643 375.74Q530.5602 377.365 531.3883 378.22437Q532.21643 379.08374 533.4508 379.08374Q534.35706 379.08374 535.0055 378.60718Q535.65393 378.1306 536.04456 377.0681ZM530.5602 374.365L536.0602 374.365Q535.9508 373.1306 535.4352 372.5056Q534.6383 371.53687 533.35706 371.53687Q532.21643 371.53687 531.42737 372.3103Q530.6383 373.08374 530.5602 374.365Z" fill-rule="nonzero" fill="#000000"></path><path d="M414.08282 74.37676L414.08282 72.82989L423.08282 69.01739L423.08282 70.67364L415.9422 73.61114L423.08282 76.57989L423.08282 78.23614L414.08282 74.37676ZM424.97778 74.37676L424.97778 72.82989L433.97778 69.01739L433.97778 70.67364L426.83716 73.61114L433.97778 76.57989L433.97778 78.23614L424.97778 74.37676ZM436.07587 80.32989L436.07587 70.47051L437.57587 70.47051L437.57587 71.86114Q438.029 71.14239 438.80243 70.697075Q439.57587 70.25176 440.56024 70.25176Q441.654 70.25176 442.35712 70.70489Q443.06024 71.15801 443.3415 71.98614Q444.51337 70.25176 446.38837 70.25176Q447.85712 70.25176 448.64618 71.06426Q449.43524 71.87676 449.43524 73.56426L449.43524 80.32989L447.76337 80.32989L447.76337 74.12676Q447.76337 73.12676 447.60712 72.68145Q447.45087 72.23614 447.02118 71.97051Q446.5915 71.70489 446.01337 71.70489Q444.98212 71.70489 444.29462 72.39239Q443.60712 73.07989 443.60712 74.61114L443.60712 80.32989L441.93524 80.32989L441.93524 73.92364Q441.93524 72.81426 441.529 72.259575Q441.12274 71.70489 440.18524 71.70489Q439.48212 71.70489 438.88055 72.072075Q438.279 72.43926 438.01337 73.15801Q437.74774 73.87676 437.74774 75.22051L437.74774 80.32989L436.07587 80.32989ZM458.05417 79.11114Q457.11667 79.90801 456.2573 80.228325Q455.39792 80.54864 454.41354 80.54864Q452.80417 80.54864 451.92917 79.759575Q451.05417 78.97051 451.05417 77.73614Q451.05417 77.00176 451.3823 76.40801Q451.71042 75.81426 452.24167 75.45489Q452.77292 75.09551 453.4448 74.90801Q453.9448 74.76739 454.92917 74.65801Q456.96042 74.40801 457.91354 74.07989Q457.91354 73.73614 457.91354 73.64239Q457.91354 72.62676 457.4448 72.20489Q456.80417 71.64239 455.53854 71.64239Q454.36667 71.64239 453.80417 72.04864Q453.24167 72.45489 452.97604 73.51739L451.33542 73.28301Q451.5698 72.23614 452.0776 71.59551Q452.58542 70.95489 453.54636 70.603325Q454.5073 70.25176 455.78854 70.25176Q457.05417 70.25176 457.83542 70.54864Q458.61667 70.84551 458.99167 71.29864Q459.36667 71.75176 459.5073 72.43926Q459.60104 72.86114 459.60104 73.97051L459.60104 76.20489Q459.60104 78.53301 459.7026 79.1502Q459.80417 79.76739 460.1323 80.32989L458.3823 80.32989Q458.11667 79.81426 458.05417 79.11114ZM457.91354 75.39239Q457.0073 75.75176 455.17917 76.01739Q454.14792 76.15801 453.72604 76.34551Q453.30417 76.53301 453.0698 76.89239Q452.83542 77.25176 452.83542 77.68926Q452.83542 78.36114 453.34323 78.80645Q453.85104 79.25176 454.8198 79.25176Q455.78854 79.25176 456.53854 78.822075Q457.28854 78.39239 457.64792 77.67364Q457.91354 77.09551 457.91354 76.00176L457.91354 75.39239ZM468.4299 76.72051L470.07053 76.93926Q469.8049 78.62676 468.69553 79.5877Q467.58615 80.54864 465.96115 80.54864Q463.94553 80.54864 462.71896 79.228325Q461.4924 77.90801 461.4924 75.43926Q461.4924 73.84551 462.01584 72.6502Q462.53928 71.45489 463.6252 70.853325Q464.71115 70.25176 465.97678 70.25176Q467.58615 70.25176 468.60178 71.06426Q469.6174 71.87676 469.91428 73.37676L468.28928 73.62676Q468.0549 72.62676 467.46115 72.12676Q466.8674 71.62676 466.03928 71.62676Q464.77365 71.62676 463.9846 72.53301Q463.19553 73.43926 463.19553 75.39239Q463.19553 77.37676 463.96115 78.2752Q464.72678 79.17364 465.94553 79.17364Q466.9299 79.17364 467.58615 78.572075Q468.2424 77.97051 468.4299 76.72051ZM471.32053 80.32989L471.32053 66.73614L472.9924 66.73614L472.9924 71.61114Q474.16428 70.25176 475.94553 70.25176Q477.03928 70.25176 477.84396 70.68145Q478.64865 71.11114 479.0002 71.87676Q479.35178 72.64239 479.35178 74.07989L479.35178 80.32989L477.6799 80.32989L477.6799 74.07989Q477.6799 72.82989 477.13303 72.259575Q476.58615 71.68926 475.60178 71.68926Q474.85178 71.68926 474.20334 72.072075Q473.5549 72.45489 473.27365 73.11895Q472.9924 73.78301 472.9924 74.93926L472.9924 80.32989L471.32053 80.32989ZM481.71185 68.64239L481.71185 66.73614L483.38373 66.73614L483.38373 68.64239L481.71185 68.64239ZM481.71185 80.32989L481.71185 70.47051L483.38373 70.47051L483.38373 80.32989L481.71185 80.32989ZM485.84106 80.32989L485.84106 70.47051L487.34106 70.47051L487.34106 71.87676Q488.4348 70.25176 490.4817 70.25176Q491.3723 70.25176 492.1223 70.572075Q492.8723 70.89239 493.2395 71.415825Q493.6067 71.93926 493.76294 72.64239Q493.8567 73.11114 493.8567 74.26739L493.8567 80.32989L492.1848 80.32989L492.1848 74.32989Q492.1848 73.31426 491.9895 72.80645Q491.7942 72.29864 491.2942 72.00176Q490.7942 71.70489 490.1223 71.70489Q489.0598 71.70489 488.28638 72.37676Q487.51294 73.04864 487.51294 74.95489L487.51294 80.32989L485.84106 80.32989ZM502.96677 77.15801L504.68552 77.37676Q504.27927 78.87676 503.1777 79.7127Q502.07614 80.54864 500.3574 80.54864Q498.20114 80.54864 496.93552 79.22051Q495.6699 77.89239 495.6699 75.48614Q495.6699 73.00176 496.94333 71.62676Q498.21677 70.25176 500.26364 70.25176Q502.24802 70.25176 503.49802 71.59551Q504.74802 72.93926 504.74802 75.39239Q504.74802 75.53301 504.7324 75.82989L497.38864 75.82989Q497.4824 77.45489 498.31052 78.31426Q499.13864 79.17364 500.37302 79.17364Q501.27927 79.17364 501.9277 78.697075Q502.57614 78.22051 502.96677 77.15801ZM497.4824 74.45489L502.9824 74.45489Q502.87302 73.22051 502.3574 72.59551Q501.56052 71.62676 500.27927 71.62676Q499.13864 71.62676 498.34958 72.4002Q497.56052 73.17364 497.4824 74.45489ZM515.38934 74.37676L506.38934 78.23614L506.38934 76.57989L513.51434 73.61114L506.38934 70.67364L506.38934 69.01739L515.38934 72.82989L515.38934 74.37676ZM526.2843 74.37676L517.2843 78.23614L517.2843 76.57989L524.4093 73.61114L517.2843 70.67364L517.2843 69.01739L526.2843 72.82989L526.2843 74.37676Z" fill-rule="nonzero" fill="#000000"></path><path d="M416.33066 93.82989L416.33066 91.92364L418.2369 91.92364L418.2369 93.82989L416.33066 93.82989ZM416.33066 101.78301L416.33066 99.87676L418.2369 99.87676L418.2369 101.78301L416.33066 101.78301ZM421.20145 101.78301L421.20145 88.18926L423.9202 88.18926L427.13895 97.81426Q427.57645 99.15801 427.77957 99.82989Q428.01395 99.07989 428.51395 97.64239L431.76395 88.18926L434.18582 88.18926L434.18582 101.78301L432.45145 101.78301L432.45145 90.39239L428.49832 101.78301L426.87332 101.78301L422.93582 90.20489L422.93582 101.78301L421.20145 101.78301ZM435.961 96.86114Q435.961 94.12676 437.49225 92.79864Q438.75787 91.70489 440.586 91.70489Q442.61725 91.70489 443.9063 93.040825Q445.19537 94.37676 445.19537 96.72051Q445.19537 98.62676 444.62506 99.7127Q444.05475 100.79864 442.9688 101.4002Q441.88287 102.00176 440.586 102.00176Q438.5235 102.00176 437.24225 100.67364Q435.961 99.34551 435.961 96.86114ZM437.67975 96.86114Q437.67975 98.75176 438.50787 99.68926Q439.336 100.62676 440.586 100.62676Q441.836 100.62676 442.6563 99.68145Q443.47662 98.73614 443.47662 96.79864Q443.47662 94.97051 442.6485 94.03301Q441.82037 93.09551 440.586 93.09551Q439.336 93.09551 438.50787 94.03301Q437.67975 94.97051 437.67975 96.86114ZM453.35236 101.78301L453.35236 100.53301Q452.41486 102.00176 450.60236 102.00176Q449.43048 102.00176 448.4383 101.353325Q447.4461 100.70489 446.90704 99.540825Q446.36798 98.37676 446.36798 96.86114Q446.36798 95.39239 446.86017 94.18926Q447.35236 92.98614 448.32892 92.34551Q449.30548 91.70489 450.52423 91.70489Q451.41486 91.70489 452.11017 92.07989Q452.80548 92.45489 453.24298 93.06426L453.24298 88.18926L454.89923 88.18926L454.89923 101.78301L453.35236 101.78301ZM448.0711 96.86114Q448.0711 98.75176 448.8758 99.68926Q449.68048 100.62676 450.7586 100.62676Q451.85236 100.62676 452.61798 99.73614Q453.3836 98.84551 453.3836 97.00176Q453.3836 94.98614 452.60236 94.040825Q451.8211 93.09551 450.68048 93.09551Q449.5711 93.09551 448.8211 94.00176Q448.0711 94.90801 448.0711 96.86114ZM464.08743 98.61114L465.80618 98.82989Q465.39993 100.32989 464.29837 101.165825Q463.1968 102.00176 461.47806 102.00176Q459.3218 102.00176 458.05618 100.67364Q456.79056 99.34551 456.79056 96.93926Q456.79056 94.45489 458.064 93.07989Q459.33743 91.70489 461.3843 91.70489Q463.36868 91.70489 464.61868 93.04864Q465.86868 94.39239 465.86868 96.84551Q465.86868 96.98614 465.85306 97.28301L458.5093 97.28301Q458.60306 98.90801 459.43118 99.76739Q460.2593 100.62676 461.49368 100.62676Q462.39993 100.62676 463.04837 100.1502Q463.6968 99.67364 464.08743 98.61114ZM458.60306 95.90801L464.10306 95.90801Q463.99368 94.67364 463.47806 94.04864Q462.68118 93.07989 461.39993 93.07989Q460.2593 93.07989 459.47025 93.853325Q458.68118 94.62676 458.60306 95.90801ZM467.68192 101.78301L467.68192 88.18926L469.3538 88.18926L469.3538 101.78301L467.68192 101.78301ZM471.46735 97.40801L473.15485 97.26739Q473.27985 98.28301 473.71735 98.93926Q474.15485 99.59551 475.08453 100.00176Q476.01422 100.40801 477.17047 100.40801Q478.20172 100.40801 478.99078 100.09551Q479.77985 99.78301 480.17047 99.25176Q480.5611 98.72051 480.5611 98.09551Q480.5611 97.45489 480.1861 96.978325Q479.8111 96.50176 478.95172 96.17364Q478.40485 95.95489 476.52985 95.509575Q474.65485 95.06426 473.90485 94.65801Q472.9361 94.14239 472.45953 93.39239Q471.98297 92.64239 471.98297 91.70489Q471.98297 90.67364 472.5689 89.7752Q473.15485 88.87676 474.27203 88.415825Q475.38922 87.95489 476.76422 87.95489Q478.27985 87.95489 479.4361 88.43926Q480.59235 88.92364 481.20953 89.86895Q481.82672 90.81426 481.8736 92.01739L480.15485 92.14239Q480.01422 90.86114 479.20953 90.197075Q478.40485 89.53301 476.84235 89.53301Q475.21735 89.53301 474.46735 90.134575Q473.71735 90.73614 473.71735 91.57989Q473.71735 92.31426 474.2486 92.78301Q474.76422 93.25176 476.95953 93.75176Q479.15485 94.25176 479.96735 94.62676Q481.15485 95.17364 481.72516 96.009575Q482.29547 96.84551 482.29547 97.93926Q482.29547 99.03301 481.67047 99.99395Q481.04547 100.95489 479.8814 101.48614Q478.71735 102.01739 477.26422 102.01739Q475.42047 102.01739 474.17047 101.478325Q472.92047 100.93926 472.20953 99.86114Q471.4986 98.78301 471.46735 97.40801ZM491.05154 98.61114L492.7703 98.82989Q492.36404 100.32989 491.26248 101.165825Q490.16092 102.00176 488.44217 102.00176Q486.28592 102.00176 485.0203 100.67364Q483.75467 99.34551 483.75467 96.93926Q483.75467 94.45489 485.0281 93.07989Q486.30154 91.70489 488.34842 91.70489Q490.3328 91.70489 491.5828 93.04864Q492.8328 94.39239 492.8328 96.84551Q492.8328 96.98614 492.81717 97.28301L485.47342 97.28301Q485.56717 98.90801 486.3953 99.76739Q487.22342 100.62676 488.4578 100.62676Q489.36404 100.62676 490.01248 100.1502Q490.66092 99.67364 491.05154 98.61114ZM485.56717 95.90801L491.06717 95.90801Q490.9578 94.67364 490.44217 94.04864Q489.6453 93.07989 488.36404 93.07989Q487.22342 93.07989 486.43436 93.853325Q485.6453 94.62676 485.56717 95.90801ZM494.66165 101.78301L494.66165 91.92364L496.16165 91.92364L496.16165 93.42364Q496.73978 92.37676 497.22415 92.040825Q497.70853 91.70489 498.30228 91.70489Q499.14603 91.70489 500.02103 92.25176L499.4429 93.79864Q498.83353 93.43926 498.20853 93.43926Q497.66165 93.43926 497.23196 93.76739Q496.80228 94.09551 496.61478 94.67364Q496.33353 95.56426 496.33353 96.62676L496.33353 101.78301L494.66165 101.78301ZM503.62433 101.78301L499.87433 91.92364L501.63995 91.92364L503.76495 97.82989Q504.1087 98.78301 504.38995 99.81426Q504.6087 99.03301 505.01495 97.93926L507.20242 91.92364L508.92117 91.92364L505.18683 101.78301L503.62433 101.78301ZM516.9681 98.61114L518.6868 98.82989Q518.2806 100.32989 517.179 101.165825Q516.07745 102.00176 514.3587 102.00176Q512.20245 102.00176 510.9368 100.67364Q509.67117 99.34551 509.67117 96.93926Q509.67117 94.45489 510.9446 93.07989Q512.2181 91.70489 514.26495 91.70489Q516.2493 91.70489 517.4993 93.04864Q518.7493 94.39239 518.7493 96.84551Q518.7493 96.98614 518.7337 97.28301L511.38992 97.28301Q511.48367 98.90801 512.3118 99.76739Q513.13995 100.62676 514.3743 100.62676Q515.2806 100.62676 515.929 100.1502Q516.57745 99.67364 516.9681 98.61114ZM511.48367 95.90801L516.9837 95.90801Q516.8743 94.67364 516.3587 94.04864Q515.5618 93.07989 514.2806 93.07989Q513.13995 93.07989 512.3509 93.853325Q511.5618 94.62676 511.48367 95.90801ZM520.5782 101.78301L520.5782 91.92364L522.0782 91.92364L522.0782 93.42364Q522.6563 92.37676 523.1407 92.040825Q523.62506 91.70489 524.2188 91.70489Q525.06256 91.70489 525.93756 92.25176L525.35944 93.79864Q524.75006 93.43926 524.12506 93.43926Q523.5782 93.43926 523.1485 93.76739Q522.7188 94.09551 522.5313 94.67364Q522.25006 95.56426 522.25006 96.62676L522.25006 101.78301L520.5782 101.78301Z" fill-rule="nonzero" fill="#000000"></path><path d="M567.1393 143.06094L556.97076 132.8924L373.02905 132.8924L373.02905 260.7711L383.19763 270.93964L567.1393 270.93964ZM567.1393 143.06094L383.19763 143.06094L373.02905 132.8924M383.19763 143.06094L383.19763 270.93964" fill-rule="nonzero" stroke="#000000" stroke-width="2.0" stroke-linejoin="round" stroke-linecap="butt"></path><path d="M406.19974 196.48466L406.19974 194.93779L415.19974 191.12529L415.19974 192.78154L408.0591 195.71904L415.19974 198.68779L415.19974 200.34404L406.19974 196.48466ZM417.0947 196.48466L417.0947 194.93779L426.0947 191.12529L426.0947 192.78154L418.95407 195.71904L426.0947 198.68779L426.0947 200.34404L417.0947 196.48466ZM438.11465 197.67216L439.91153 198.12529Q439.34903 200.34404 437.88028 201.5081Q436.41153 202.67216 434.28653 202.67216Q432.0834 202.67216 430.7084 201.77373Q429.3334 200.87529 428.61465 199.17998Q427.8959 197.48466 427.8959 195.53154Q427.8959 193.40654 428.7006 191.82841Q429.50528 190.25029 431.00528 189.42998Q432.50528 188.60966 434.30215 188.60966Q436.34903 188.60966 437.73965 189.64873Q439.13028 190.68779 439.67715 192.56279L437.91153 192.98466Q437.44278 191.50029 436.53653 190.8206Q435.63028 190.14091 434.2709 190.14091Q432.7084 190.14091 431.65372 190.89091Q430.59903 191.64091 430.16934 192.91435Q429.73965 194.18779 429.73965 195.53154Q429.73965 197.26591 430.24747 198.55498Q430.75528 199.84404 431.8256 200.48466Q432.8959 201.12529 434.13028 201.12529Q435.6459 201.12529 436.69278 200.2581Q437.73965 199.39091 438.11465 197.67216ZM441.04074 197.51591Q441.04074 194.78154 442.572 193.45341Q443.83762 192.35966 445.66574 192.35966Q447.697 192.35966 448.98605 193.6956Q450.27512 195.03154 450.27512 197.37529Q450.27512 199.28154 449.7048 200.36748Q449.1345 201.45341 448.04855 202.05498Q446.96262 202.65654 445.66574 202.65654Q443.60324 202.65654 442.322 201.32841Q441.04074 200.00029 441.04074 197.51591ZM442.7595 197.51591Q442.7595 199.40654 443.58762 200.34404Q444.41574 201.28154 445.66574 201.28154Q446.91574 201.28154 447.73605 200.33623Q448.55637 199.39091 448.55637 197.45341Q448.55637 195.62529 447.72824 194.68779Q446.90012 193.75029 445.66574 193.75029Q444.41574 193.75029 443.58762 194.68779Q442.7595 195.62529 442.7595 197.51591ZM452.04144 202.43779L452.04144 192.57841L453.54144 192.57841L453.54144 193.96904Q453.99457 193.25029 454.768 192.80498Q455.54144 192.35966 456.52582 192.35966Q457.61957 192.35966 458.3227 192.81279Q459.02582 193.26591 459.30707 194.09404Q460.47894 192.35966 462.35394 192.35966Q463.8227 192.35966 464.61176 193.17216Q465.40082 193.98466 465.40082 195.67216L465.40082 202.43779L463.72894 202.43779L463.72894 196.23466Q463.72894 195.23466 463.5727 194.78935Q463.41644 194.34404 462.98676 194.07841Q462.55707 193.81279 461.97894 193.81279Q460.9477 193.81279 460.2602 194.50029Q459.5727 195.18779 459.5727 196.71904L459.5727 202.43779L457.90082 202.43779L457.90082 196.03154Q457.90082 194.92216 457.49457 194.36748Q457.08832 193.81279 456.15082 193.81279Q455.4477 193.81279 454.84613 194.17998Q454.24457 194.54716 453.97894 195.26591Q453.71332 195.98466 453.71332 197.32841L453.71332 202.43779L452.04144 202.43779ZM467.58224 206.21904L467.58224 192.57841L469.1135 192.57841L469.1135 193.85966Q469.64474 193.10966 470.32443 192.73466Q471.00412 192.35966 471.95724 192.35966Q473.22287 192.35966 474.19162 193.0081Q475.16037 193.65654 475.65256 194.84404Q476.14474 196.03154 476.14474 197.43779Q476.14474 198.95341 475.59787 200.16435Q475.051 201.37529 474.01974 202.01591Q472.9885 202.65654 471.84787 202.65654Q471.00412 202.65654 470.34006 202.30498Q469.676 201.95341 469.25412 201.42216L469.25412 206.21904L467.58224 206.21904ZM469.09787 197.56279Q469.09787 199.46904 469.8713 200.37529Q470.64474 201.28154 471.7385 201.28154Q472.84787 201.28154 473.63693 200.34404Q474.426 199.40654 474.426 197.42216Q474.426 195.54716 473.65256 194.60966Q472.87912 193.67216 471.801 193.67216Q470.7385 193.67216 469.91818 194.67216Q469.09787 195.67216 469.09787 197.56279ZM477.33298 197.51591Q477.33298 194.78154 478.86423 193.45341Q480.12985 192.35966 481.95798 192.35966Q483.98923 192.35966 485.2783 193.6956Q486.56735 195.03154 486.56735 197.37529Q486.56735 199.28154 485.99704 200.36748Q485.42673 201.45341 484.3408 202.05498Q483.25485 202.65654 481.95798 202.65654Q479.89548 202.65654 478.61423 201.32841Q477.33298 200.00029 477.33298 197.51591ZM479.05173 197.51591Q479.05173 199.40654 479.87985 200.34404Q480.70798 201.28154 481.95798 201.28154Q483.20798 201.28154 484.0283 200.33623Q484.8486 199.39091 484.8486 197.45341Q484.8486 195.62529 484.02048 194.68779Q483.19235 193.75029 481.95798 193.75029Q480.70798 193.75029 479.87985 194.68779Q479.05173 195.62529 479.05173 197.51591ZM488.33368 202.43779L488.33368 192.57841L489.83368 192.57841L489.83368 193.98466Q490.92743 192.35966 492.9743 192.35966Q493.86493 192.35966 494.61493 192.67998Q495.36493 193.00029 495.73212 193.52373Q496.0993 194.04716 496.25555 194.75029Q496.3493 195.21904 496.3493 196.37529L496.3493 202.43779L494.67743 202.43779L494.67743 196.43779Q494.67743 195.42216 494.48212 194.91435Q494.2868 194.40654 493.7868 194.10966Q493.2868 193.81279 492.61493 193.81279Q491.55243 193.81279 490.779 194.48466Q490.00555 195.15654 490.00555 197.06279L490.00555 202.43779L488.33368 202.43779ZM505.4594 199.26591L507.17816 199.48466Q506.7719 200.98466 505.67035 201.8206Q504.5688 202.65654 502.85004 202.65654Q500.6938 202.65654 499.42816 201.32841Q498.16254 200.00029 498.16254 197.59404Q498.16254 195.10966 499.43597 193.73466Q500.7094 192.35966 502.7563 192.35966Q504.74066 192.35966 505.99066 193.70341Q507.24066 195.04716 507.24066 197.50029Q507.24066 197.64091 507.22504 197.93779L499.8813 197.93779Q499.97504 199.56279 500.80316 200.42216Q501.6313 201.28154 502.86566 201.28154Q503.7719 201.28154 504.42035 200.80498Q505.0688 200.32841 505.4594 199.26591ZM499.97504 196.56279L505.47504 196.56279Q505.36566 195.32841 504.85004 194.70341Q504.05316 193.73466 502.7719 193.73466Q501.6313 193.73466 500.84222 194.5081Q500.05316 195.28154 499.97504 196.56279ZM509.0851 202.43779L509.0851 192.57841L510.5851 192.57841L510.5851 193.98466Q511.67886 192.35966 513.72577 192.35966Q514.6164 192.35966 515.3664 192.67998Q516.1164 193.00029 516.4836 193.52373Q516.85077 194.04716 517.007 194.75029Q517.10077 195.21904 517.10077 196.37529L517.10077 202.43779L515.4289 202.43779L515.4289 196.43779Q515.4289 195.42216 515.2336 194.91435Q515.03827 194.40654 514.53827 194.10966Q514.03827 193.81279 513.3664 193.81279Q512.3039 193.81279 511.53043 194.48466Q510.757 195.15654 510.757 197.06279L510.757 202.43779L509.0851 202.43779ZM523.11707 200.93779L523.35144 202.42216Q522.6483 202.56279 522.0858 202.56279Q521.17957 202.56279 520.67957 202.27373Q520.17957 201.98466 519.97644 201.52373Q519.7733 201.06279 519.7733 199.54716L519.7733 193.89091L518.53894 193.89091L518.53894 192.57841L519.7733 192.57841L519.7733 190.14091L521.42957 189.14091L521.42957 192.57841L523.11707 192.57841L523.11707 193.89091L521.42957 193.89091L521.42957 199.64091Q521.42957 200.35966 521.5155 200.56279Q521.60144 200.76591 521.80457 200.89091Q522.0077 201.01591 522.3827 201.01591Q522.6483 201.01591 523.11707 200.93779ZM533.44104 196.48466L524.44104 200.34404L524.44104 198.68779L531.56604 195.71904L524.44104 192.78154L524.44104 191.12529L533.44104 194.93779L533.44104 196.48466ZM544.336 196.48466L535.336 200.34404L535.336 198.68779L542.461 195.71904L535.336 192.78154L535.336 191.12529L544.336 194.93779L544.336 196.48466Z" fill-rule="nonzero" fill="#000000"></path><path d="M434.37775 215.93779L434.37775 214.03154L436.284 214.03154L436.284 215.93779L434.37775 215.93779ZM434.37775 223.89091L434.37775 221.98466L436.284 221.98466L436.284 223.89091L434.37775 223.89091ZM439.0923 227.67216L439.0923 214.03154L440.62354 214.03154L440.62354 215.31279Q441.1548 214.56279 441.83447 214.18779Q442.51416 213.81279 443.4673 213.81279Q444.7329 213.81279 445.70166 214.46123Q446.6704 215.10966 447.1626 216.29716Q447.6548 217.48466 447.6548 218.89091Q447.6548 220.40654 447.1079 221.61748Q446.56104 222.82841 445.5298 223.46904Q444.49854 224.10966 443.3579 224.10966Q442.51416 224.10966 441.8501 223.7581Q441.18604 223.40654 440.76416 222.87529L440.76416 227.67216L439.0923 227.67216ZM440.6079 219.01591Q440.6079 220.92216 441.38135 221.82841Q442.1548 222.73466 443.24854 222.73466Q444.3579 222.73466 445.14697 221.79716Q445.93604 220.85966 445.93604 218.87529Q445.93604 217.00029 445.1626 216.06279Q444.38916 215.12529 443.31104 215.12529Q442.24854 215.12529 441.42822 216.12529Q440.6079 217.12529 440.6079 219.01591ZM452.2024 223.89091L448.4524 214.03154L450.21802 214.03154L452.34302 219.93779Q452.68677 220.89091 452.96802 221.92216Q453.18677 221.14091 453.59302 220.04716L455.78052 214.03154L457.49927 214.03154L453.7649 223.89091L452.2024 223.89091ZM457.5149 223.89091L462.74927 210.29716L464.68677 210.29716L470.24927 223.89091L468.2024 223.89091L466.60864 219.76591L460.92114 219.76591L459.43677 223.89091L457.5149 223.89091ZM461.43677 218.31279L466.04614 218.31279L464.6399 214.53154Q463.98364 212.82841 463.67114 211.71904Q463.40552 213.03154 462.93677 214.31279L461.43677 218.31279ZM477.67722 220.28154L479.31784 220.50029Q479.05222 222.18779 477.94284 223.14873Q476.83347 224.10966 475.20847 224.10966Q473.19284 224.10966 471.96628 222.78935Q470.73972 221.46904 470.73972 219.00029Q470.73972 217.40654 471.26315 216.21123Q471.7866 215.01591 472.87253 214.41435Q473.95847 213.81279 475.2241 213.81279Q476.83347 213.81279 477.8491 214.62529Q478.86472 215.43779 479.1616 216.93779L477.5366 217.18779Q477.30222 216.18779 476.70847 215.68779Q476.11472 215.18779 475.2866 215.18779Q474.02097 215.18779 473.2319 216.09404Q472.44284 217.00029 472.44284 218.95341Q472.44284 220.93779 473.20847 221.83623Q473.9741 222.73466 475.19284 222.73466Q476.17722 222.73466 476.83347 222.1331Q477.48972 221.53154 477.67722 220.28154ZM487.00534 220.28154L488.64597 220.50029Q488.38034 222.18779 487.27097 223.14873Q486.1616 224.10966 484.5366 224.10966Q482.52097 224.10966 481.2944 222.78935Q480.06784 221.46904 480.06784 219.00029Q480.06784 217.40654 480.59128 216.21123Q481.11472 215.01591 482.20065 214.41435Q483.2866 213.81279 484.55222 213.81279Q486.1616 213.81279 487.17722 214.62529Q488.19284 215.43779 488.48972 216.93779L486.86472 217.18779Q486.63034 216.18779 486.0366 215.68779Q485.44284 215.18779 484.61472 215.18779Q483.3491 215.18779 482.56003 216.09404Q481.77097 217.00029 481.77097 218.95341Q481.77097 220.93779 482.5366 221.83623Q483.30222 222.73466 484.52097 222.73466Q485.50534 222.73466 486.1616 222.1331Q486.81784 221.53154 487.00534 220.28154ZM496.64597 220.71904L498.36472 220.93779Q497.95847 222.43779 496.8569 223.27373Q495.75534 224.10966 494.0366 224.10966Q491.88034 224.10966 490.61472 222.78154Q489.3491 221.45341 489.3491 219.04716Q489.3491 216.56279 490.62253 215.18779Q491.89597 213.81279 493.94284 213.81279Q495.92722 213.81279 497.17722 215.15654Q498.42722 216.50029 498.42722 218.95341Q498.42722 219.09404 498.4116 219.39091L491.06784 219.39091Q491.1616 221.01591 491.98972 221.87529Q492.81784 222.73466 494.05222 222.73466Q494.95847 222.73466 495.6069 222.2581Q496.25534 221.78154 496.64597 220.71904ZM491.1616 218.01591L496.6616 218.01591Q496.55222 216.78154 496.0366 216.15654Q495.23972 215.18779 493.95847 215.18779Q492.81784 215.18779 492.02878 215.96123Q491.23972 216.73466 491.1616 218.01591ZM499.5998 220.95341L501.25604 220.68779Q501.39667 221.68779 502.02948 222.21123Q502.6623 222.73466 503.80292 222.73466Q504.95917 222.73466 505.51385 222.26591Q506.06854 221.79716 506.06854 221.17216Q506.06854 220.60966 505.58417 220.28154Q505.24042 220.06279 503.88104 219.71904Q502.0373 219.25029 501.32635 218.91435Q500.61542 218.57841 500.24823 217.97685Q499.88104 217.37529 499.88104 216.65654Q499.88104 216.00029 500.18573 215.43779Q500.49042 214.87529 501.00604 214.50029Q501.39667 214.21904 502.06854 214.01591Q502.74042 213.81279 503.50604 213.81279Q504.67792 213.81279 505.55292 214.14873Q506.42792 214.48466 506.84198 215.05498Q507.25604 215.62529 507.4123 216.57841L505.7873 216.79716Q505.67792 216.04716 505.13885 215.61748Q504.5998 215.18779 503.63104 215.18779Q502.4748 215.18779 501.99042 215.5706Q501.50604 215.95341 501.50604 216.45341Q501.50604 216.78154 501.70917 217.04716Q501.9123 217.31279 502.3498 217.48466Q502.5998 217.57841 503.81854 217.92216Q505.58417 218.39091 506.2873 218.68779Q506.99042 218.98466 507.38885 219.56279Q507.7873 220.14091 507.7873 221.00029Q507.7873 221.82841 507.30292 222.5706Q506.81854 223.31279 505.89667 223.71123Q504.9748 224.10966 503.81854 224.10966Q501.89667 224.10966 500.88885 223.31279Q499.88104 222.51591 499.5998 220.95341ZM508.92792 220.95341L510.58417 220.68779Q510.7248 221.68779 511.35764 222.21123Q511.99045 222.73466 513.13104 222.73466Q514.2873 222.73466 514.842 222.26591Q515.39667 221.79716 515.39667 221.17216Q515.39667 220.60966 514.9123 220.28154Q514.56854 220.06279 513.20917 219.71904Q511.36545 219.25029 510.65448 218.91435Q509.94354 218.57841 509.57635 217.97685Q509.20917 217.37529 509.20917 216.65654Q509.20917 216.00029 509.51385 215.43779Q509.81854 214.87529 510.33417 214.50029Q510.7248 214.21904 511.3967 214.01591Q512.06854 213.81279 512.83417 213.81279Q514.00604 213.81279 514.88104 214.14873Q515.75604 214.48466 516.1701 215.05498Q516.58417 215.62529 516.7404 216.57841L515.1154 216.79716Q515.00604 216.04716 514.467 215.61748Q513.9279 215.18779 512.95917 215.18779Q511.80295 215.18779 511.31857 215.5706Q510.83417 215.95341 510.83417 216.45341Q510.83417 216.78154 511.0373 217.04716Q511.24045 217.31279 511.67795 217.48466Q511.92795 217.57841 513.14667 217.92216Q514.9123 218.39091 515.6154 218.68779Q516.31854 218.98466 516.717 219.56279Q517.1154 220.14091 517.1154 221.00029Q517.1154 221.82841 516.63104 222.5706Q516.14667 223.31279 515.2248 223.71123Q514.3029 224.10966 513.14667 224.10966Q511.22482 224.10966 510.21698 223.31279Q509.20917 222.51591 508.92792 220.95341Z" fill-rule="nonzero" fill="#000000"></path><path d="M221.88971 189.63051L211.72116 179.46194L27.779478 179.46194L27.779478 307.34064L37.948036 317.5092L221.88971 317.5092ZM221.88971 189.63051L37.948036 189.63051L27.779478 179.46194M37.948036 189.63051L37.948036 317.5092" fill-rule="nonzero" stroke="#000000" stroke-width="2.0" stroke-linejoin="round" stroke-linecap="butt"></path><path d="M73.91753 243.05421L73.91753 241.50734L82.91753 237.69484L82.91753 239.35109L75.7769 242.28859L82.91753 245.25734L82.91753 246.91359L73.91753 243.05421ZM84.812485 243.05421L84.812485 241.50734L93.812485 237.69484L93.812485 239.35109L86.67186 242.28859L93.812485 245.25734L93.812485 246.91359L84.812485 243.05421ZM95.91057 249.00734L95.91057 239.14796L97.41057 239.14796L97.41057 240.53859Q97.86369 239.81984 98.63713 239.37453Q99.41057 238.92921 100.39494 238.92921Q101.48869 238.92921 102.19182 239.38234Q102.89494 239.83546 103.17619 240.66359Q104.34807 238.92921 106.22307 238.92921Q107.69182 238.92921 108.48088 239.74171Q109.26994 240.55421 109.26994 242.24171L109.26994 249.00734L107.59807 249.00734L107.59807 242.80421Q107.59807 241.80421 107.44182 241.3589Q107.28557 240.91359 106.85588 240.64796Q106.42619 240.38234 105.84807 240.38234Q104.81682 240.38234 104.12932 241.06984Q103.44182 241.75734 103.44182 243.28859L103.44182 249.00734L101.76994 249.00734L101.76994 242.60109Q101.76994 241.49171 101.36369 240.93703Q100.95744 240.38234 100.01994 240.38234Q99.31682 240.38234 98.715256 240.74953Q98.11369 241.11671 97.84807 241.83546Q97.58244 242.55421 97.58244 243.89796L97.58244 249.00734L95.91057 249.00734ZM117.88887 247.78859Q116.95137 248.58546 116.091995 248.90578Q115.23262 249.22609 114.248245 249.22609Q112.63887 249.22609 111.76387 248.43703Q110.88887 247.64796 110.88887 246.41359Q110.88887 245.67921 111.216995 245.08546Q111.54512 244.49171 112.07637 244.13234Q112.60762 243.77296 113.279495 243.58546Q113.779495 243.44484 114.76387 243.33546Q116.79512 243.08546 117.748245 242.75734Q117.748245 242.41359 117.748245 242.31984Q117.748245 241.30421 117.279495 240.88234Q116.63887 240.31984 115.373245 240.31984Q114.20137 240.31984 113.63887 240.72609Q113.07637 241.13234 112.810745 242.19484L111.17012 241.96046Q111.404495 240.91359 111.91231 240.27296Q112.42012 239.63234 113.38106 239.28078Q114.341995 238.92921 115.623245 238.92921Q116.88887 238.92921 117.67012 239.22609Q118.45137 239.52296 118.82637 239.97609Q119.20137 240.42921 119.341995 241.11671Q119.435745 241.53859 119.435745 242.64796L119.435745 244.88234Q119.435745 247.21046 119.53731 247.82765Q119.63887 248.44484 119.966995 249.00734L118.216995 249.00734Q117.95137 248.49171 117.88887 247.78859ZM117.748245 244.06984Q116.841995 244.42921 115.01387 244.69484Q113.98262 244.83546 113.560745 245.02296Q113.13887 245.21046 112.904495 245.56984Q112.67012 245.92921 112.67012 246.36671Q112.67012 247.03859 113.17793 247.4839Q113.685745 247.92921 114.654495 247.92921Q115.623245 247.92921 116.373245 247.49953Q117.123245 247.06984 117.48262 246.35109Q117.748245 245.77296 117.748245 244.67921L117.748245 244.06984ZM128.26459 245.39796L129.90521 245.61671Q129.63959 247.30421 128.53021 248.26515Q127.42084 249.22609 125.79584 249.22609Q123.78021 249.22609 122.55365 247.90578Q121.32709 246.58546 121.32709 244.11671Q121.32709 242.52296 121.850525 241.32765Q122.37396 240.13234 123.4599 239.53078Q124.54584 238.92921 125.81146 238.92921Q127.42084 238.92921 128.43646 239.74171Q129.45209 240.55421 129.74896 242.05421L128.12396 242.30421Q127.88959 241.30421 127.29584 240.80421Q126.70209 240.30421 125.87396 240.30421Q124.60834 240.30421 123.819275 241.21046Q123.03021 242.11671 123.03021 244.06984Q123.03021 246.05421 123.79584 246.95265Q124.56146 247.85109 125.78021 247.85109Q126.76459 247.85109 127.42084 247.24953Q128.07709 246.64796 128.26459 245.39796ZM131.15521 249.00734L131.15521 235.41359L132.82709 235.41359L132.82709 240.28859Q133.99896 238.92921 135.78021 238.92921Q136.87396 238.92921 137.67865 239.3589Q138.48334 239.78859 138.8349 240.55421Q139.18646 241.31984 139.18646 242.75734L139.18646 249.00734L137.51459 249.00734L137.51459 242.75734Q137.51459 241.50734 136.96771 240.93703Q136.42084 240.36671 135.43646 240.36671Q134.68646 240.36671 134.03802 240.74953Q133.38959 241.13234 133.10834 241.7964Q132.82709 242.46046 132.82709 243.61671L132.82709 249.00734L131.15521 249.00734ZM141.54655 237.31984L141.54655 235.41359L143.21843 235.41359L143.21843 237.31984L141.54655 237.31984ZM141.54655 249.00734L141.54655 239.14796L143.21843 239.14796L143.21843 249.00734L141.54655 249.00734ZM145.67575 249.00734L145.67575 239.14796L147.17575 239.14796L147.17575 240.55421Q148.2695 238.92921 150.31638 238.92921Q151.207 238.92921 151.957 239.24953Q152.707 239.56984 153.07419 240.09328Q153.44138 240.61671 153.59763 241.31984Q153.69138 241.78859 153.69138 242.94484L153.69138 249.00734L152.0195 249.00734L152.0195 243.00734Q152.0195 241.99171 151.82419 241.4839Q151.62888 240.97609 151.12888 240.67921Q150.62888 240.38234 149.957 240.38234Q148.8945 240.38234 148.12106 241.05421Q147.34763 241.72609 147.34763 243.63234L147.34763 249.00734L145.67575 249.00734ZM162.80147 245.83546L164.52022 246.05421Q164.11397 247.55421 163.0124 248.39015Q161.91084 249.22609 160.1921 249.22609Q158.03584 249.22609 156.77022 247.89796Q155.5046 246.56984 155.5046 244.16359Q155.5046 241.67921 156.77803 240.30421Q158.05147 238.92921 160.09834 238.92921Q162.08272 238.92921 163.33272 240.27296Q164.58272 241.61671 164.58272 244.06984Q164.58272 244.21046 164.5671 244.50734L157.22334 244.50734Q157.3171 246.13234 158.14522 246.99171Q158.97334 247.85109 160.20772 247.85109Q161.11397 247.85109 161.7624 247.37453Q162.41084 246.89796 162.80147 245.83546ZM157.3171 243.13234L162.8171 243.13234Q162.70772 241.89796 162.1921 241.27296Q161.39522 240.30421 160.11397 240.30421Q158.97334 240.30421 158.18428 241.07765Q157.39522 241.85109 157.3171 243.13234ZM175.22408 243.05421L166.22408 246.91359L166.22408 245.25734L173.34908 242.28859L166.22408 239.35109L166.22408 237.69484L175.22408 241.50734L175.22408 243.05421ZM186.11903 243.05421L177.11903 246.91359L177.11903 245.25734L184.24403 242.28859L177.11903 239.35109L177.11903 237.69484L186.11903 241.50734L186.11903 243.05421Z" fill-rule="nonzero" fill="#000000"></path><path d="M105.19731 262.50735L105.19731 260.6011L107.10356 260.6011L107.10356 262.50735L105.19731 262.50735ZM105.19731 270.46048L105.19731 268.55423L107.10356 268.55423L107.10356 270.46048L105.19731 270.46048ZM119.83374 265.69485L121.630615 266.14798Q121.068115 268.36673 119.599365 269.5308Q118.130615 270.69485 116.005615 270.69485Q113.80249 270.69485 112.42749 269.79642Q111.05249 268.89798 110.33374 267.20267Q109.61499 265.50735 109.61499 263.55423Q109.61499 261.42923 110.41968 259.8511Q111.224365 258.27298 112.724365 257.45267Q114.224365 256.63235 116.02124 256.63235Q118.068115 256.63235 119.45874 257.67142Q120.849365 258.71048 121.39624 260.58548L119.630615 261.00735Q119.161865 259.52298 118.255615 258.8433Q117.349365 258.1636 115.98999 258.1636Q114.42749 258.1636 113.3728 258.9136Q112.318115 259.6636 111.88843 260.93704Q111.45874 262.21048 111.45874 263.55423Q111.45874 265.2886 111.96655 266.57767Q112.474365 267.86673 113.54468 268.50735Q114.61499 269.14798 115.849365 269.14798Q117.36499 269.14798 118.411865 268.2808Q119.45874 267.4136 119.83374 265.69485ZM123.35356 270.46048L123.35356 256.86673L125.02544 256.86673L125.02544 270.46048L123.35356 270.46048ZM127.54526 258.77298L127.54526 256.86673L129.21713 256.86673L129.21713 258.77298L127.54526 258.77298ZM127.54526 270.46048L127.54526 260.6011L129.21713 260.6011L129.21713 270.46048L127.54526 270.46048ZM138.42445 267.2886L140.1432 267.50735Q139.73695 269.00735 138.63539 269.8433Q137.53383 270.67923 135.81508 270.67923Q133.65883 270.67923 132.3932 269.3511Q131.12758 268.02298 131.12758 265.61673Q131.12758 263.13235 132.40102 261.75735Q133.67445 260.38235 135.72133 260.38235Q137.7057 260.38235 138.9557 261.7261Q140.2057 263.06985 140.2057 265.52298Q140.2057 265.6636 140.19008 265.96048L132.84633 265.96048Q132.94008 267.58548 133.7682 268.44485Q134.59633 269.30423 135.8307 269.30423Q136.73695 269.30423 137.38539 268.82767Q138.03383 268.3511 138.42445 267.2886ZM132.94008 264.58548L138.44008 264.58548Q138.3307 263.3511 137.81508 262.7261Q137.0182 261.75735 135.73695 261.75735Q134.59633 261.75735 133.80727 262.5308Q133.0182 263.30423 132.94008 264.58548ZM142.05017 270.46048L142.05017 260.6011L143.55017 260.6011L143.55017 262.00735Q144.64392 260.38235 146.6908 260.38235Q147.58142 260.38235 148.33142 260.70267Q149.08142 261.02298 149.44861 261.54642Q149.8158 262.06985 149.97205 262.77298Q150.0658 263.24173 150.0658 264.39798L150.0658 270.46048L148.39392 270.46048L148.39392 264.46048Q148.39392 263.44485 148.19861 262.93704Q148.0033 262.42923 147.5033 262.13235Q147.0033 261.83548 146.33142 261.83548Q145.26892 261.83548 144.49548 262.50735Q143.72205 263.17923 143.72205 265.08548L143.72205 270.46048L142.05017 270.46048ZM156.08214 268.96048L156.31651 270.44485Q155.61339 270.58548 155.05089 270.58548Q154.14464 270.58548 153.64464 270.29642Q153.14464 270.00735 152.94151 269.54642Q152.73839 269.08548 152.73839 267.56985L152.73839 261.9136L151.50401 261.9136L151.50401 260.6011L152.73839 260.6011L152.73839 258.1636L154.39464 257.1636L154.39464 260.6011L156.08214 260.6011L156.08214 261.9136L154.39464 261.9136L154.39464 267.6636Q154.39464 268.38235 154.48058 268.58548Q154.56651 268.7886 154.76964 268.9136Q154.97276 269.0386 155.34776 269.0386Q155.61339 269.0386 156.08214 268.96048Z" fill-rule="nonzero" fill="#000000"></path><path d="M232.1194 186.1627L232.1194 185.08458L238.27565 182.49083L238.27565 183.61583L233.38503 185.63145L238.27565 187.64708L238.27565 188.7877L232.1194 186.1627ZM239.90282 186.1627L239.90282 185.08458L246.05907 182.49083L246.05907 183.61583L241.16844 185.63145L246.05907 187.64708L246.05907 188.7877L239.90282 186.1627ZM247.82686 192.80333L247.82686 183.49083L248.85811 183.49083L248.85811 184.36583Q249.23311 183.8502 249.69405 183.59239Q250.15498 183.33458 250.82686 183.33458Q251.68623 183.33458 252.34248 183.77989Q252.99873 184.2252 253.33467 185.02989Q253.67061 185.83458 253.67061 186.80333Q253.67061 187.83458 253.30342 188.6627Q252.93623 189.49083 252.2253 189.93614Q251.51436 190.38145 250.73311 190.38145Q250.17061 190.38145 249.71748 190.13927Q249.26436 189.89708 248.96748 189.52208L248.96748 192.80333L247.82686 192.80333ZM248.85811 186.89708Q248.85811 188.19395 249.38936 188.81895Q249.92061 189.44395 250.65498 189.44395Q251.42061 189.44395 251.96748 188.79552Q252.51436 188.14708 252.51436 186.80333Q252.51436 185.50645 251.98311 184.86583Q251.45186 184.2252 250.71748 184.2252Q249.98311 184.2252 249.42061 184.90489Q248.85811 185.58458 248.85811 186.89708ZM257.11435 190.2252L254.55183 183.49083L255.75496 183.49083L257.19247 187.52208Q257.42685 188.17833 257.62997 188.88145Q257.78622 188.3502 258.05185 187.6002L259.55185 183.49083L260.72372 183.49083L258.17685 190.2252L257.11435 190.2252ZM261.0284 190.2252L264.60654 180.9127L265.91904 180.9127L269.73154 190.2252L268.3253 190.2252L267.24716 187.4127L263.35654 187.4127L262.3253 190.2252L261.0284 190.2252ZM263.7159 186.39708L266.87216 186.39708L265.8878 183.81895Q265.4503 182.64708 265.23154 181.89708Q265.05966 182.7877 264.73154 183.67833L263.7159 186.39708ZM275.18378 187.75645L276.30878 187.89708Q276.1369 189.06895 275.37128 189.7252Q274.60565 190.38145 273.5119 190.38145Q272.12128 190.38145 271.28534 189.4752Q270.4494 188.56895 270.4494 186.88145Q270.4494 185.7877 270.80878 184.96739Q271.16815 184.14708 271.90253 183.74083Q272.6369 183.33458 273.5119 183.33458Q274.60565 183.33458 275.30878 183.88927Q276.0119 184.44395 276.1994 185.45958L275.09003 185.63145Q274.93378 184.95958 274.53534 184.61583Q274.1369 184.27208 273.55878 184.27208Q272.6994 184.27208 272.16034 184.88927Q271.62128 185.50645 271.62128 186.8502Q271.62128 188.20958 272.1369 188.82677Q272.65253 189.44395 273.49628 189.44395Q274.16815 189.44395 274.62128 189.02989Q275.0744 188.61583 275.18378 187.75645ZM281.84784 187.75645L282.97284 187.89708Q282.80096 189.06895 282.03534 189.7252Q281.2697 190.38145 280.17596 190.38145Q278.78534 190.38145 277.9494 189.4752Q277.11346 188.56895 277.11346 186.88145Q277.11346 185.7877 277.47284 184.96739Q277.8322 184.14708 278.5666 183.74083Q279.30096 183.33458 280.17596 183.33458Q281.2697 183.33458 281.97284 183.88927Q282.67596 184.44395 282.86346 185.45958L281.7541 185.63145Q281.59784 184.95958 281.1994 184.61583Q280.80096 184.27208 280.22284 184.27208Q279.36346 184.27208 278.8244 184.88927Q278.28534 185.50645 278.28534 186.8502Q278.28534 188.20958 278.80096 188.82677Q279.3166 189.44395 280.16034 189.44395Q280.8322 189.44395 281.28534 189.02989Q281.73846 188.61583 281.84784 187.75645ZM288.73065 188.05333L289.91815 188.19395Q289.6369 189.24083 288.8791 189.81114Q288.12128 190.38145 286.9494 190.38145Q285.46503 190.38145 284.59784 189.46739Q283.73065 188.55333 283.73065 186.9127Q283.73065 185.20958 284.61346 184.27208Q285.49628 183.33458 286.8869 183.33458Q288.24628 183.33458 289.09784 184.25645Q289.9494 185.17833 289.9494 186.83458Q289.9494 186.94395 289.9494 187.14708L284.91815 187.14708Q284.98065 188.25645 285.54315 188.8502Q286.10565 189.44395 286.9494 189.44395Q287.59003 189.44395 288.03534 189.10802Q288.48065 188.77208 288.73065 188.05333ZM284.98065 186.20958L288.74628 186.20958Q288.66815 185.3502 288.30878 184.92833Q287.7619 184.27208 286.90253 184.27208Q286.10565 184.27208 285.5744 184.79552Q285.04315 185.31895 284.98065 186.20958ZM291.08063 188.20958L292.20563 188.0377Q292.29938 188.70958 292.73688 189.07677Q293.17438 189.44395 293.95563 189.44395Q294.73688 189.44395 295.1197 189.12364Q295.5025 188.80333 295.5025 188.36583Q295.5025 187.9752 295.15875 187.75645Q294.92438 187.6002 293.98688 187.36583Q292.73688 187.05333 292.2525 186.81895Q291.76813 186.58458 291.51813 186.17833Q291.26813 185.77208 291.26813 185.27208Q291.26813 184.81895 291.47125 184.43614Q291.67438 184.05333 292.03375 183.80333Q292.29938 183.6002 292.7603 183.46739Q293.22125 183.33458 293.7525 183.33458Q294.53375 183.33458 295.1353 183.56114Q295.73688 183.7877 296.02594 184.17833Q296.315 184.56895 296.42438 185.2252L295.29938 185.38145Q295.22125 184.8502 294.86188 184.56114Q294.5025 184.27208 293.83063 184.27208Q293.04938 184.27208 292.70563 184.52989Q292.36188 184.7877 292.36188 185.14708Q292.36188 185.36583 292.5025 185.5377Q292.64313 185.7252 292.94 185.8502Q293.11188 185.9127 293.95563 186.13145Q295.17438 186.45958 295.65094 186.6627Q296.1275 186.86583 296.40094 187.26427Q296.67438 187.6627 296.67438 188.24083Q296.67438 188.81895 296.33844 189.31895Q296.0025 189.81895 295.3775 190.1002Q294.7525 190.38145 293.95563 190.38145Q292.64313 190.38145 291.95563 189.83458Q291.26813 189.2877 291.08063 188.20958ZM297.7447 188.20958L298.8697 188.0377Q298.96344 188.70958 299.40094 189.07677Q299.83844 189.44395 300.6197 189.44395Q301.40094 189.44395 301.78375 189.12364Q302.16656 188.80333 302.16656 188.36583Q302.16656 187.9752 301.8228 187.75645Q301.58844 187.6002 300.65094 187.36583Q299.40094 187.05333 298.91656 186.81895Q298.4322 186.58458 298.1822 186.17833Q297.9322 185.77208 297.9322 185.27208Q297.9322 184.81895 298.1353 184.43614Q298.33844 184.05333 298.6978 183.80333Q298.96344 183.6002 299.42438 183.46739Q299.8853 183.33458 300.41656 183.33458Q301.1978 183.33458 301.79938 183.56114Q302.40094 183.7877 302.69 184.17833Q302.97906 184.56895 303.08844 185.2252L301.96344 185.38145Q301.8853 184.8502 301.52594 184.56114Q301.16656 184.27208 300.4947 184.27208Q299.71344 184.27208 299.3697 184.52989Q299.02594 184.7877 299.02594 185.14708Q299.02594 185.36583 299.16656 185.5377Q299.3072 185.7252 299.60406 185.8502Q299.77594 185.9127 300.6197 186.13145Q301.83844 186.45958 302.315 186.6627Q302.79156 186.86583 303.065 187.26427Q303.33844 187.6627 303.33844 188.24083Q303.33844 188.81895 303.0025 189.31895Q302.66656 189.81895 302.04156 190.1002Q301.41656 190.38145 300.6197 190.38145Q299.3072 190.38145 298.6197 189.83458Q297.9322 189.2877 297.7447 188.20958ZM310.8775 186.1627L304.72125 188.7877L304.72125 187.64708L309.59625 185.63145L304.72125 183.61583L304.72125 182.49083L310.8775 185.08458L310.8775 186.1627ZM318.66092 186.1627L312.50467 188.7877L312.50467 187.64708L317.37967 185.63145L312.50467 183.61583L312.50467 182.49083L318.66092 185.08458L318.66092 186.1627Z" fill-rule="nonzero" fill="#000000"></path><path d="M913.9396 189.63051L903.771 179.46194L719.82935 179.46194L719.82935 307.34064L729.9979 317.5092L913.9396 317.5092ZM913.9396 189.63051L729.9979 189.63051L719.82935 179.46194M729.9979 189.63051L729.9979 317.5092" fill-rule="nonzero" stroke="#000000" stroke-width="2.0" stroke-linejoin="round" stroke-linecap="butt"></path><path d="M765.9674 243.05421L765.9674 241.50734L774.9674 237.69484L774.9674 239.35109L767.8268 242.28859L774.9674 245.25734L774.9674 246.91359L765.9674 243.05421ZM776.86237 243.05421L776.86237 241.50734L785.86237 237.69484L785.86237 239.35109L778.72174 242.28859L785.86237 245.25734L785.86237 246.91359L776.86237 243.05421ZM787.96045 249.00734L787.96045 239.14796L789.46045 239.14796L789.46045 240.53859Q789.9136 239.81984 790.687 239.37453Q791.46045 238.92921 792.4448 238.92921Q793.5386 238.92921 794.2417 239.38234Q794.9448 239.83546 795.2261 240.66359Q796.39795 238.92921 798.27295 238.92921Q799.7417 238.92921 800.53076 239.74171Q801.3198 240.55421 801.3198 242.24171L801.3198 249.00734L799.64795 249.00734L799.64795 242.80421Q799.64795 241.80421 799.4917 241.3589Q799.33545 240.91359 798.90576 240.64796Q798.4761 240.38234 797.89795 240.38234Q796.8667 240.38234 796.1792 241.06984Q795.4917 241.75734 795.4917 243.28859L795.4917 249.00734L793.8198 249.00734L793.8198 242.60109Q793.8198 241.49171 793.4136 240.93703Q793.0073 240.38234 792.0698 240.38234Q791.3667 240.38234 790.76514 240.74953Q790.1636 241.11671 789.89795 241.83546Q789.6323 242.55421 789.6323 243.89796L789.6323 249.00734L787.96045 249.00734ZM809.9387 247.78859Q809.0012 248.58546 808.14185 248.90578Q807.2825 249.22609 806.2981 249.22609Q804.6887 249.22609 803.8137 248.43703Q802.9387 247.64796 802.9387 246.41359Q802.9387 245.67921 803.26685 245.08546Q803.595 244.49171 804.1262 244.13234Q804.6575 243.77296 805.32935 243.58546Q805.82935 243.44484 806.8137 243.33546Q808.845 243.08546 809.7981 242.75734Q809.7981 242.41359 809.7981 242.31984Q809.7981 241.30421 809.32935 240.88234Q808.6887 240.31984 807.4231 240.31984Q806.2512 240.31984 805.6887 240.72609Q805.1262 241.13234 804.8606 242.19484L803.22 241.96046Q803.45435 240.91359 803.96216 240.27296Q804.47 239.63234 805.4309 239.28078Q806.39185 238.92921 807.6731 238.92921Q808.9387 238.92921 809.72 239.22609Q810.5012 239.52296 810.8762 239.97609Q811.2512 240.42921 811.39185 241.11671Q811.4856 241.53859 811.4856 242.64796L811.4856 244.88234Q811.4856 247.21046 811.58716 247.82765Q811.6887 248.44484 812.01685 249.00734L810.26685 249.00734Q810.0012 248.49171 809.9387 247.78859ZM809.7981 244.06984Q808.89185 244.42921 807.0637 244.69484Q806.0325 244.83546 805.6106 245.02296Q805.1887 245.21046 804.95435 245.56984Q804.72 245.92921 804.72 246.36671Q804.72 247.03859 805.2278 247.4839Q805.7356 247.92921 806.70435 247.92921Q807.6731 247.92921 808.4231 247.49953Q809.1731 247.06984 809.5325 246.35109Q809.7981 245.77296 809.7981 244.67921L809.7981 244.06984ZM820.31445 245.39796L821.9551 245.61671Q821.68945 247.30421 820.5801 248.26515Q819.4707 249.22609 817.8457 249.22609Q815.8301 249.22609 814.6035 247.90578Q813.37695 246.58546 813.37695 244.11671Q813.37695 242.52296 813.9004 241.32765Q814.4238 240.13234 815.50977 239.53078Q816.5957 238.92921 817.8613 238.92921Q819.4707 238.92921 820.4863 239.74171Q821.50195 240.55421 821.7988 242.05421L820.1738 242.30421Q819.93945 241.30421 819.3457 240.80421Q818.75195 240.30421 817.9238 240.30421Q816.6582 240.30421 815.86914 241.21046Q815.0801 242.11671 815.0801 244.06984Q815.0801 246.05421 815.8457 246.95265Q816.6113 247.85109 817.8301 247.85109Q818.81445 247.85109 819.4707 247.24953Q820.12695 246.64796 820.31445 245.39796ZM823.2051 249.00734L823.2051 235.41359L824.87695 235.41359L824.87695 240.28859Q826.0488 238.92921 827.8301 238.92921Q828.9238 238.92921 829.7285 239.3589Q830.5332 239.78859 830.88477 240.55421Q831.2363 241.31984 831.2363 242.75734L831.2363 249.00734L829.56445 249.00734L829.56445 242.75734Q829.56445 241.50734 829.0176 240.93703Q828.4707 240.36671 827.4863 240.36671Q826.7363 240.36671 826.0879 240.74953Q825.43945 241.13234 825.1582 241.7964Q824.87695 242.46046 824.87695 243.61671L824.87695 249.00734L823.2051 249.00734ZM833.59644 237.31984L833.59644 235.41359L835.2683 235.41359L835.2683 237.31984L833.59644 237.31984ZM833.59644 249.00734L833.59644 239.14796L835.2683 239.14796L835.2683 249.00734L833.59644 249.00734ZM837.72565 249.00734L837.72565 239.14796L839.22565 239.14796L839.22565 240.55421Q840.3194 238.92921 842.3663 238.92921Q843.2569 238.92921 844.0069 239.24953Q844.7569 239.56984 845.1241 240.09328Q845.4913 240.61671 845.6475 241.31984Q845.7413 241.78859 845.7413 242.94484L845.7413 249.00734L844.0694 249.00734L844.0694 243.00734Q844.0694 241.99171 843.8741 241.4839Q843.6788 240.97609 843.1788 240.67921Q842.6788 240.38234 842.0069 240.38234Q840.9444 240.38234 840.17096 241.05421Q839.3975 241.72609 839.3975 243.63234L839.3975 249.00734L837.72565 249.00734ZM854.8513 245.83546L856.57007 246.05421Q856.1638 247.55421 855.06226 248.39015Q853.9607 249.22609 852.24194 249.22609Q850.0857 249.22609 848.82007 247.89796Q847.55444 246.56984 847.55444 244.16359Q847.55444 241.67921 848.8279 240.30421Q850.1013 238.92921 852.1482 238.92921Q854.13257 238.92921 855.38257 240.27296Q856.63257 241.61671 856.63257 244.06984Q856.63257 244.21046 856.61694 244.50734L849.2732 244.50734Q849.36694 246.13234 850.19507 246.99171Q851.0232 247.85109 852.25757 247.85109Q853.1638 247.85109 853.81226 247.37453Q854.4607 246.89796 854.8513 245.83546ZM849.36694 243.13234L854.86694 243.13234Q854.75757 241.89796 854.24194 241.27296Q853.44507 240.30421 852.1638 240.30421Q851.0232 240.30421 850.23413 241.07765Q849.44507 241.85109 849.36694 243.13234ZM867.2739 243.05421L858.2739 246.91359L858.2739 245.25734L865.3989 242.28859L858.2739 239.35109L858.2739 237.69484L867.2739 241.50734L867.2739 243.05421ZM878.1689 243.05421L869.1689 246.91359L869.1689 245.25734L876.2939 242.28859L869.1689 239.35109L869.1689 237.69484L878.1689 241.50734L878.1689 243.05421Z" fill-rule="nonzero" fill="#000000"></path><path d="M770.29675 262.50735L770.29675 260.6011L772.203 260.6011L772.203 262.50735L770.29675 262.50735ZM770.29675 270.46048L770.29675 268.55423L772.203 268.55423L772.203 270.46048L770.29675 270.46048ZM775.2613 270.46048L775.2613 256.86673L781.29254 256.86673Q783.10504 256.86673 784.05035 257.2261Q784.99567 257.58548 785.55817 258.51517Q786.12067 259.44485 786.12067 260.56985Q786.12067 262.02298 785.191 263.01517Q784.2613 264.00735 782.29254 264.27298Q783.0113 264.61673 783.3863 264.94485Q784.16754 265.67923 784.87067 266.75735L787.24567 270.46048L784.98004 270.46048L783.18317 267.63235Q782.3863 266.4136 781.8785 265.75735Q781.37067 265.1011 780.9644 264.8433Q780.55817 264.58548 780.1519 264.49173Q779.8394 264.4136 779.1363 264.4136L777.05817 264.4136L777.05817 270.46048L775.2613 270.46048ZM777.05817 262.86673L780.91754 262.86673Q782.1519 262.86673 782.8472 262.60892Q783.54254 262.3511 783.9097 261.7886Q784.2769 261.2261 784.2769 260.56985Q784.2769 259.6011 783.5738 258.98392Q782.87067 258.36673 781.35504 258.36673L777.05817 258.36673L777.05817 262.86673ZM788.703 270.46048L788.703 256.86673L793.3905 256.86673Q794.9686 256.86673 795.8124 257.05423Q796.9686 257.31985 797.79675 258.02298Q798.8749 258.94485 799.4061 260.35892Q799.9374 261.77298 799.9374 263.58548Q799.9374 265.13235 799.578 266.32767Q799.2186 267.52298 798.6561 268.31204Q798.0936 269.1011 797.42175 269.54642Q796.7499 269.99173 795.79675 270.2261Q794.8436 270.46048 793.60925 270.46048L788.703 270.46048ZM790.4999 268.8511L793.4061 268.8511Q794.7499 268.8511 795.5155 268.6011Q796.2811 268.3511 796.73425 267.89798Q797.3749 267.25735 797.73425 266.17923Q798.0936 265.1011 798.0936 263.55423Q798.0936 261.42923 797.3905 260.2808Q796.6874 259.13235 795.6874 258.74173Q794.9686 258.46048 793.35925 258.46048L790.4999 258.46048L790.4999 268.8511ZM802.0978 270.46048L802.0978 256.86673L807.20715 256.86673Q808.754 256.86673 809.69934 257.27298Q810.64465 257.67923 811.1759 258.5386Q811.70715 259.39798 811.70715 260.33548Q811.70715 261.21048 811.2384 261.98392Q810.76965 262.75735 809.8009 263.2261Q811.0353 263.58548 811.69934 264.46048Q812.3634 265.33548 812.3634 266.52298Q812.3634 267.4761 811.96497 268.29642Q811.5665 269.11673 810.9728 269.56204Q810.379 270.00735 809.4806 270.23392Q808.58215 270.46048 807.2853 270.46048L802.0978 270.46048ZM803.89465 262.56985L806.83215 262.56985Q808.0353 262.56985 808.5509 262.4136Q809.2384 262.21048 809.58997 261.74173Q809.9415 261.27298 809.9415 260.55423Q809.9415 259.88235 809.6134 259.36673Q809.2853 258.8511 808.6837 258.6558Q808.08215 258.46048 806.6134 258.46048L803.89465 258.46048L803.89465 262.56985ZM803.89465 268.8511L807.2853 268.8511Q808.1603 268.8511 808.504 268.7886Q809.129 268.67923 809.5509 268.42142Q809.9728 268.1636 810.2384 267.6636Q810.504 267.1636 810.504 266.52298Q810.504 265.75735 810.1134 265.19485Q809.7228 264.63235 809.0353 264.4058Q808.3478 264.17923 807.0509 264.17923L803.89465 264.17923L803.89465 268.8511ZM814.01013 266.08548L815.69763 265.94485Q815.82263 266.96048 816.26013 267.61673Q816.69763 268.27298 817.6273 268.67923Q818.557 269.08548 819.71326 269.08548Q820.7445 269.08548 821.53357 268.77298Q822.32263 268.46048 822.71326 267.92923Q823.1039 267.39798 823.1039 266.77298Q823.1039 266.13235 822.7289 265.6558Q822.3539 265.17923 821.4945 264.8511Q820.94763 264.63235 819.07263 264.18704Q817.19763 263.74173 816.44763 263.33548Q815.4789 262.81985 815.0023 262.06985Q814.52576 261.31985 814.52576 260.38235Q814.52576 259.3511 815.1117 258.45267Q815.69763 257.55423 816.8148 257.0933Q817.932 256.63235 819.307 256.63235Q820.82263 256.63235 821.9789 257.11673Q823.13513 257.6011 823.7523 258.54642Q824.3695 259.49173 824.4164 260.69485L822.69763 260.81985Q822.557 259.5386 821.7523 258.87454Q820.94763 258.21048 819.38513 258.21048Q817.76013 258.21048 817.01013 258.81204Q816.26013 259.4136 816.26013 260.25735Q816.26013 260.99173 816.7914 261.46048Q817.307 261.92923 819.5023 262.42923Q821.69763 262.92923 822.51013 263.30423Q823.69763 263.8511 824.26794 264.68704Q824.83826 265.52298 824.83826 266.61673Q824.83826 267.71048 824.21326 268.67142Q823.58826 269.63235 822.4242 270.1636Q821.26013 270.69485 819.807 270.69485Q817.96326 270.69485 816.71326 270.1558Q815.46326 269.61673 814.7523 268.5386Q814.0414 267.46048 814.01013 266.08548ZM833.5943 267.2886L835.31305 267.50735Q834.9068 269.00735 833.80524 269.8433Q832.7037 270.67923 830.9849 270.67923Q828.8287 270.67923 827.56305 269.3511Q826.2974 268.02298 826.2974 265.61673Q826.2974 263.13235 827.57086 261.75735Q828.8443 260.38235 830.8912 260.38235Q832.87555 260.38235 834.12555 261.7261Q835.37555 263.06985 835.37555 265.52298Q835.37555 265.6636 835.3599 265.96048L828.0162 265.96048Q828.1099 267.58548 828.93805 268.44485Q829.7662 269.30423 831.00055 269.30423Q831.9068 269.30423 832.55524 268.82767Q833.2037 268.3511 833.5943 267.2886ZM828.1099 264.58548L833.6099 264.58548Q833.50055 263.3511 832.9849 262.7261Q832.18805 261.75735 830.9068 261.75735Q829.7662 261.75735 828.9771 262.5308Q828.18805 263.30423 828.1099 264.58548ZM837.2044 270.46048L837.2044 260.6011L838.7044 260.6011L838.7044 262.1011Q839.28253 261.05423 839.7669 260.7183Q840.2513 260.38235 840.84503 260.38235Q841.6888 260.38235 842.5638 260.92923L841.98566 262.4761Q841.3763 262.11673 840.7513 262.11673Q840.2044 262.11673 839.7747 262.44485Q839.34503 262.77298 839.15753 263.3511Q838.8763 264.24173 838.8763 265.30423L838.8763 270.46048L837.2044 270.46048ZM846.1671 270.46048L842.4171 260.6011L844.18274 260.6011L846.30774 266.50735Q846.6515 267.46048 846.93274 268.49173Q847.1515 267.71048 847.55774 266.61673L849.74524 260.6011L851.464 260.6011L847.7296 270.46048L846.1671 270.46048ZM852.7765 258.77298L852.7765 256.86673L854.44836 256.86673L854.44836 258.77298L852.7765 258.77298ZM852.7765 270.46048L852.7765 260.6011L854.44836 260.6011L854.44836 270.46048L852.7765 270.46048ZM863.34314 266.8511L864.98376 267.06985Q864.71814 268.75735 863.60876 269.7183Q862.4994 270.67923 860.8744 270.67923Q858.85876 270.67923 857.6322 269.35892Q856.40564 268.0386 856.40564 265.56985Q856.40564 263.9761 856.9291 262.7808Q857.4525 261.58548 858.53845 260.98392Q859.6244 260.38235 860.89 260.38235Q862.4994 260.38235 863.515 261.19485Q864.53064 262.00735 864.8275 263.50735L863.2025 263.75735Q862.96814 262.75735 862.3744 262.25735Q861.78064 261.75735 860.9525 261.75735Q859.6869 261.75735 858.8978 262.6636Q858.10876 263.56985 858.10876 265.52298Q858.10876 267.50735 858.8744 268.4058Q859.64 269.30423 860.85876 269.30423Q861.84314 269.30423 862.4994 268.70267Q863.15564 268.1011 863.34314 266.8511ZM872.98376 267.2886L874.7025 267.50735Q874.29626 269.00735 873.1947 269.8433Q872.09314 270.67923 870.3744 270.67923Q868.21814 270.67923 866.9525 269.3511Q865.6869 268.02298 865.6869 265.61673Q865.6869 263.13235 866.9603 261.75735Q868.23376 260.38235 870.28064 260.38235Q872.265 260.38235 873.515 261.7261Q874.765 263.06985 874.765 265.52298Q874.765 265.6636 874.7494 265.96048L867.40564 265.96048Q867.4994 267.58548 868.3275 268.44485Q869.15564 269.30423 870.39 269.30423Q871.29626 269.30423 871.9447 268.82767Q872.59314 268.3511 872.98376 267.2886ZM867.4994 264.58548L872.9994 264.58548Q872.89 263.3511 872.3744 262.7261Q871.5775 261.75735 870.29626 261.75735Q869.15564 261.75735 868.3666 262.5308Q867.5775 263.30423 867.4994 264.58548Z" fill-rule="nonzero" fill="#000000"></path><path d="M221.88971 253.56984L348.01254 252.40514" fill-rule="nonzero" stroke="#000000" stroke-width="2.0" stroke-linejoin="round" stroke-linecap="butt"></path><path d="M602.1944 252.40514L729.9979 253.56984" fill-rule="nonzero" stroke="#000000" stroke-width="2.0" stroke-linejoin="round" stroke-linecap="butt"></path><path d="M622.7306 186.1627L622.7306 185.08458L628.88684 182.49083L628.88684 183.61583L623.9962 185.63145L628.88684 187.64708L628.88684 188.7877L622.7306 186.1627ZM630.514 186.1627L630.514 185.08458L636.6702 182.49083L636.6702 183.61583L631.7796 185.63145L636.6702 187.64708L636.6702 188.7877L630.514 186.1627ZM638.43805 192.80333L638.43805 183.49083L639.4693 183.49083L639.4693 184.36583Q639.8443 183.8502 640.30524 183.59239Q640.7662 183.33458 641.43805 183.33458Q642.2974 183.33458 642.9537 183.77989Q643.6099 184.2252 643.94586 185.02989Q644.2818 185.83458 644.2818 186.80333Q644.2818 187.83458 643.9146 188.6627Q643.5474 189.49083 642.8365 189.93614Q642.12555 190.38145 641.3443 190.38145Q640.7818 190.38145 640.3287 190.13927Q639.87555 189.89708 639.5787 189.52208L639.5787 192.80333L638.43805 192.80333ZM639.4693 186.89708Q639.4693 188.19395 640.00055 188.81895Q640.5318 189.44395 641.2662 189.44395Q642.0318 189.44395 642.5787 188.79552Q643.12555 188.14708 643.12555 186.80333Q643.12555 185.50645 642.5943 184.86583Q642.06305 184.2252 641.3287 184.2252Q640.5943 184.2252 640.0318 184.90489Q639.4693 185.58458 639.4693 186.89708ZM647.7255 190.2252L645.163 183.49083L646.36615 183.49083L647.80365 187.52208Q648.038 188.17833 648.24115 188.88145Q648.3974 188.3502 648.663 187.6002L650.163 183.49083L651.3349 183.49083L648.788 190.2252L647.7255 190.2252ZM651.6396 190.2252L655.2177 180.9127L656.5302 180.9127L660.3427 190.2252L658.93646 190.2252L657.85834 187.4127L653.9677 187.4127L652.93646 190.2252L651.6396 190.2252ZM654.3271 186.39708L657.48334 186.39708L656.49896 183.81895Q656.06146 182.64708 655.8427 181.89708Q655.67084 182.7877 655.3427 183.67833L654.3271 186.39708ZM665.7949 187.75645L666.9199 187.89708Q666.74805 189.06895 665.9824 189.7252Q665.2168 190.38145 664.12305 190.38145Q662.7324 190.38145 661.8965 189.4752Q661.06055 188.56895 661.06055 186.88145Q661.06055 185.7877 661.4199 184.96739Q661.7793 184.14708 662.5137 183.74083Q663.24805 183.33458 664.12305 183.33458Q665.2168 183.33458 665.9199 183.88927Q666.62305 184.44395 666.81055 185.45958L665.7012 185.63145Q665.5449 184.95958 665.1465 184.61583Q664.74805 184.27208 664.1699 184.27208Q663.31055 184.27208 662.7715 184.88927Q662.2324 185.50645 662.2324 186.8502Q662.2324 188.20958 662.74805 188.82677Q663.2637 189.44395 664.1074 189.44395Q664.7793 189.44395 665.2324 189.02989Q665.68555 188.61583 665.7949 187.75645ZM672.459 187.75645L673.584 187.89708Q673.4121 189.06895 672.6465 189.7252Q671.88086 190.38145 670.7871 190.38145Q669.3965 190.38145 668.56055 189.4752Q667.7246 188.56895 667.7246 186.88145Q667.7246 185.7877 668.084 184.96739Q668.44336 184.14708 669.17773 183.74083Q669.9121 183.33458 670.7871 183.33458Q671.88086 183.33458 672.584 183.88927Q673.2871 184.44395 673.4746 185.45958L672.36523 185.63145Q672.209 184.95958 671.81055 184.61583Q671.4121 184.27208 670.834 184.27208Q669.9746 184.27208 669.43555 184.88927Q668.8965 185.50645 668.8965 186.8502Q668.8965 188.20958 669.4121 188.82677Q669.92773 189.44395 670.7715 189.44395Q671.44336 189.44395 671.8965 189.02989Q672.3496 188.61583 672.459 187.75645ZM679.3418 188.05333L680.5293 188.19395Q680.24805 189.24083 679.49023 189.81114Q678.7324 190.38145 677.56055 190.38145Q676.0762 190.38145 675.209 189.46739Q674.3418 188.55333 674.3418 186.9127Q674.3418 185.20958 675.2246 184.27208Q676.1074 183.33458 677.49805 183.33458Q678.8574 183.33458 679.709 184.25645Q680.56055 185.17833 680.56055 186.83458Q680.56055 186.94395 680.56055 187.14708L675.5293 187.14708Q675.5918 188.25645 676.1543 188.8502Q676.7168 189.44395 677.56055 189.44395Q678.2012 189.44395 678.6465 189.10802Q679.0918 188.77208 679.3418 188.05333ZM675.5918 186.20958L679.3574 186.20958Q679.2793 185.3502 678.9199 184.92833Q678.37305 184.27208 677.5137 184.27208Q676.7168 184.27208 676.18555 184.79552Q675.6543 185.31895 675.5918 186.20958ZM681.6918 188.20958L682.8168 188.0377Q682.9105 188.70958 683.348 189.07677Q683.7855 189.44395 684.5668 189.44395Q685.348 189.44395 685.73083 189.12364Q686.11365 188.80333 686.11365 188.36583Q686.11365 187.9752 685.7699 187.75645Q685.5355 187.6002 684.598 187.36583Q683.348 187.05333 682.86365 186.81895Q682.3793 186.58458 682.1293 186.17833Q681.8793 185.77208 681.8793 185.27208Q681.8793 184.81895 682.0824 184.43614Q682.2855 184.05333 682.6449 183.80333Q682.9105 183.6002 683.37146 183.46739Q683.8324 183.33458 684.36365 183.33458Q685.1449 183.33458 685.74646 183.56114Q686.348 183.7877 686.6371 184.17833Q686.92615 184.56895 687.0355 185.2252L685.9105 185.38145Q685.8324 184.8502 685.473 184.56114Q685.11365 184.27208 684.4418 184.27208Q683.6605 184.27208 683.3168 184.52989Q682.973 184.7877 682.973 185.14708Q682.973 185.36583 683.11365 185.5377Q683.2543 185.7252 683.55115 185.8502Q683.723 185.9127 684.5668 186.13145Q685.7855 186.45958 686.2621 186.6627Q686.73865 186.86583 687.0121 187.26427Q687.2855 187.6627 687.2855 188.24083Q687.2855 188.81895 686.9496 189.31895Q686.61365 189.81895 685.98865 190.1002Q685.36365 190.38145 684.5668 190.38145Q683.2543 190.38145 682.5668 189.83458Q681.8793 189.2877 681.6918 188.20958ZM688.35583 188.20958L689.48083 188.0377Q689.5746 188.70958 690.0121 189.07677Q690.4496 189.44395 691.23083 189.44395Q692.0121 189.44395 692.3949 189.12364Q692.7777 188.80333 692.7777 188.36583Q692.7777 187.9752 692.43396 187.75645Q692.1996 187.6002 691.2621 187.36583Q690.0121 187.05333 689.5277 186.81895Q689.04333 186.58458 688.79333 186.17833Q688.54333 185.77208 688.54333 185.27208Q688.54333 184.81895 688.74646 184.43614Q688.9496 184.05333 689.30896 183.80333Q689.5746 183.6002 690.0355 183.46739Q690.49646 183.33458 691.0277 183.33458Q691.80896 183.33458 692.4105 183.56114Q693.0121 183.7877 693.30115 184.17833Q693.5902 184.56895 693.6996 185.2252L692.5746 185.38145Q692.49646 184.8502 692.1371 184.56114Q691.7777 184.27208 691.10583 184.27208Q690.3246 184.27208 689.98083 184.52989Q689.6371 184.7877 689.6371 185.14708Q689.6371 185.36583 689.7777 185.5377Q689.91833 185.7252 690.2152 185.8502Q690.3871 185.9127 691.23083 186.13145Q692.4496 186.45958 692.92615 186.6627Q693.4027 186.86583 693.67615 187.26427Q693.9496 187.6627 693.9496 188.24083Q693.9496 188.81895 693.61365 189.31895Q693.2777 189.81895 692.6527 190.1002Q692.0277 190.38145 691.23083 190.38145Q689.91833 190.38145 689.23083 189.83458Q688.54333 189.2877 688.35583 188.20958ZM701.48865 186.1627L695.3324 188.7877L695.3324 187.64708L700.2074 185.63145L695.3324 183.61583L695.3324 182.49083L701.48865 185.08458L701.48865 186.1627ZM709.2721 186.1627L703.11584 188.7877L703.11584 187.64708L707.99084 185.63145L703.11584 183.61583L703.11584 182.49083L709.2721 185.08458L709.2721 186.1627Z" fill-rule="nonzero" fill="#000000"></path></svg>

