<?xml version="1.0" standalone="yes"?>

<svg version="1.1" viewBox="0.0 0.0 953.0 536.0" fill="none" stroke="none" stroke-linecap="square" stroke-miterlimit="10" clip-path="url(#p.0)" xmlns="http://www.w3.org/2000/svg" xmlns:xlink="http://www.w3.org/1999/xlink"><clipPath id="p.0"><path d="M0 0L953.0 0L953.0 536.0L0 536.0L0 0Z" clip-rule="nonzero"></path></clipPath><path d="M367.85333 74.15672L347.6415 53.94488L93.45964 53.94488L93.45964 459.78027L113.67148 479.99213L367.85333 479.99213ZM367.85333 74.15672L113.67148 74.15672L93.45964 53.94488M113.67148 74.15672L113.67148 479.99213" fill-rule="nonzero" stroke="#000000" stroke-width="2.0" stroke-linejoin="round" stroke-linecap="butt"></path><path d="M880.84283 74.15672L860.631 53.94488L606.44916 53.94488L606.44916 459.78027L626.66095 479.99213L880.84283 479.99213ZM880.84283 74.15672L626.66095 74.15672L606.44916 53.94488M626.66095 74.15672L626.66095 479.99213" fill-rule="nonzero" stroke="#000000" stroke-width="2.0" stroke-linejoin="round" stroke-linecap="butt"></path><path d="M856.14557 210.90178L841.08417 195.84035L651.67316 195.84035L651.67316 436.90488L666.73456 451.96634L856.14557 451.96634ZM856.14557 210.90178L666.73456 210.90178L651.67316 195.84035M666.73456 210.90178L666.73456 451.96634" fill-rule="nonzero" stroke="#000000" stroke-width="2.0" stroke-linejoin="round" stroke-linecap="butt"></path><path d="M699.6837 136.03293L699.6837 134.48605L708.6837 130.67355L708.6837 132.3298L701.5431 135.2673L708.6837 138.23605L708.6837 139.8923L699.6837 136.03293ZM710.5787 136.03293L710.5787 134.48605L719.5787 130.67355L719.5787 132.3298L712.43805 135.2673L719.5787 138.23605L719.5787 139.8923L710.5787 136.03293ZM721.67676 141.98605L721.67676 132.12668L723.17676 132.12668L723.17676 133.5173Q723.6299 132.79855 724.4033 132.35324Q725.17676 131.90793 726.16113 131.90793Q727.2549 131.90793 727.958 132.36105Q728.66113 132.81418 728.9424 133.6423Q730.11426 131.90793 731.98926 131.90793Q733.458 131.90793 734.2471 132.72043Q735.03613 133.53293 735.03613 135.22043L735.03613 141.98605L733.36426 141.98605L733.36426 135.78293Q733.36426 134.78293 733.208 134.33762Q733.05176 133.8923 732.6221 133.62668Q732.1924 133.36105 731.61426 133.36105Q730.583 133.36105 729.8955 134.04855Q729.208 134.73605 729.208 136.2673L729.208 141.98605L727.53613 141.98605L727.53613 135.5798Q727.53613 134.47043 727.1299 133.91574Q726.72363 133.36105 725.78613 133.36105Q725.083 133.36105 724.48145 133.72824Q723.8799 134.09543 723.61426 134.81418Q723.34863 135.53293 723.34863 136.87668L723.34863 141.98605L721.67676 141.98605ZM743.655 140.7673Q742.7175 141.56418 741.85815 141.88449Q740.9988 142.2048 740.0144 142.2048Q738.405 142.2048 737.53 141.41574Q736.655 140.62668 736.655 139.3923Q736.655 138.65793 736.98315 138.06418Q737.3113 137.47043 737.8425 137.11105Q738.3738 136.75168 739.04565 136.56418Q739.54565 136.42355 740.53 136.31418Q742.5613 136.06418 743.5144 135.73605Q743.5144 135.3923 743.5144 135.29855Q743.5144 134.28293 743.04565 133.86105Q742.405 133.29855 741.1394 133.29855Q739.9675 133.29855 739.405 133.7048Q738.8425 134.11105 738.5769 135.17355L736.9363 134.93918Q737.17065 133.8923 737.67847 133.25168Q738.1863 132.61105 739.1472 132.25949Q740.10815 131.90793 741.3894 131.90793Q742.655 131.90793 743.4363 132.2048Q744.2175 132.50168 744.5925 132.9548Q744.9675 133.40793 745.10815 134.09543Q745.2019 134.5173 745.2019 135.62668L745.2019 137.86105Q745.2019 140.18918 745.30347 140.80637Q745.405 141.42355 745.73315 141.98605L743.98315 141.98605Q743.7175 141.47043 743.655 140.7673ZM743.5144 137.04855Q742.60815 137.40793 740.78 137.67355Q739.7488 137.81418 739.3269 138.00168Q738.905 138.18918 738.67065 138.54855Q738.4363 138.90793 738.4363 139.34543Q738.4363 140.0173 738.9441 140.46262Q739.4519 140.90793 740.42065 140.90793Q741.3894 140.90793 742.1394 140.47824Q742.8894 140.04855 743.2488 139.3298Q743.5144 138.75168 743.5144 137.65793L743.5144 137.04855ZM754.03076 138.37668L755.6714 138.59543Q755.40576 140.28293 754.2964 141.24387Q753.187 142.2048 751.562 142.2048Q749.5464 142.2048 748.3198 140.88449Q747.09326 139.56418 747.09326 137.09543Q747.09326 135.50168 747.6167 134.30637Q748.14014 133.11105 749.2261 132.50949Q750.312 131.90793 751.57764 131.90793Q753.187 131.90793 754.20264 132.72043Q755.21826 133.53293 755.51514 135.03293L753.89014 135.28293Q753.65576 134.28293 753.062 133.78293Q752.46826 133.28293 751.64014 133.28293Q750.3745 133.28293 749.58545 134.18918Q748.7964 135.09543 748.7964 137.04855Q748.7964 139.03293 749.562 139.93137Q750.32764 140.8298 751.5464 140.8298Q752.53076 140.8298 753.187 140.22824Q753.84326 139.62668 754.03076 138.37668ZM756.9214 141.98605L756.9214 128.3923L758.59326 128.3923L758.59326 133.2673Q759.76514 131.90793 761.5464 131.90793Q762.64014 131.90793 763.4448 132.33762Q764.2495 132.7673 764.6011 133.53293Q764.95264 134.29855 764.95264 135.73605L764.95264 141.98605L763.28076 141.98605L763.28076 135.73605Q763.28076 134.48605 762.7339 133.91574Q762.187 133.34543 761.20264 133.34543Q760.45264 133.34543 759.8042 133.72824Q759.15576 134.11105 758.8745 134.77512Q758.59326 135.43918 758.59326 136.59543L758.59326 141.98605L756.9214 141.98605ZM767.31274 130.29855L767.31274 128.3923L768.9846 128.3923L768.9846 130.29855L767.31274 130.29855ZM767.31274 141.98605L767.31274 132.12668L768.9846 132.12668L768.9846 141.98605L767.31274 141.98605ZM771.4419 141.98605L771.4419 132.12668L772.9419 132.12668L772.9419 133.53293Q774.03564 131.90793 776.0825 131.90793Q776.97314 131.90793 777.72314 132.22824Q778.47314 132.54855 778.84033 133.07199Q779.2075 133.59543 779.3638 134.29855Q779.4575 134.7673 779.4575 135.92355L779.4575 141.98605L777.78564 141.98605L777.78564 135.98605Q777.78564 134.97043 777.59033 134.46262Q777.395 133.9548 776.895 133.65793Q776.395 133.36105 775.72314 133.36105Q774.66064 133.36105 773.8872 134.03293Q773.1138 134.7048 773.1138 136.61105L773.1138 141.98605L771.4419 141.98605ZM788.5676 138.81418L790.2864 139.03293Q789.8801 140.53293 788.77856 141.36887Q787.677 142.2048 785.95825 142.2048Q783.802 142.2048 782.5364 140.87668Q781.27075 139.54855 781.27075 137.1423Q781.27075 134.65793 782.5442 133.28293Q783.8176 131.90793 785.8645 131.90793Q787.8489 131.90793 789.0989 133.25168Q790.3489 134.59543 790.3489 137.04855Q790.3489 137.18918 790.33325 137.48605L782.9895 137.48605Q783.08325 139.11105 783.9114 139.97043Q784.7395 140.8298 785.9739 140.8298Q786.8801 140.8298 787.52856 140.35324Q788.177 139.87668 788.5676 138.81418ZM783.08325 136.11105L788.58325 136.11105Q788.4739 134.87668 787.95825 134.25168Q787.1614 133.28293 785.8801 133.28293Q784.7395 133.28293 783.95044 134.05637Q783.1614 134.8298 783.08325 136.11105ZM800.99023 136.03293L791.99023 139.8923L791.99023 138.23605L799.11523 135.2673L791.99023 132.3298L791.99023 130.67355L800.99023 134.48605L800.99023 136.03293ZM811.8852 136.03293L802.8852 139.8923L802.8852 138.23605L810.0102 135.2673L802.8852 132.3298L802.8852 130.67355L811.8852 134.48605L811.8852 136.03293Z" fill-rule="nonzero" fill="#000000"></path><path d="M727.3379 155.48605L727.3379 153.5798L729.24414 153.5798L729.24414 155.48605L727.3379 155.48605ZM727.3379 163.43918L727.3379 161.53293L729.24414 161.53293L729.24414 163.43918L727.3379 163.43918ZM731.6618 159.06418L733.3493 158.92355Q733.4743 159.93918 733.9118 160.59543Q734.3493 161.25168 735.279 161.65793Q736.2087 162.06418 737.3649 162.06418Q738.3962 162.06418 739.18524 161.75168Q739.9743 161.43918 740.3649 160.90793Q740.75555 160.37668 740.75555 159.75168Q740.75555 159.11105 740.38055 158.63449Q740.00555 158.15793 739.1462 157.8298Q738.5993 157.61105 736.7243 157.16574Q734.8493 156.72043 734.0993 156.31418Q733.13055 155.79855 732.654 155.04855Q732.1774 154.29855 732.1774 153.36105Q732.1774 152.3298 732.76337 151.43137Q733.3493 150.53293 734.4665 150.07199Q735.5837 149.61105 736.9587 149.61105Q738.4743 149.61105 739.63055 150.09543Q740.7868 150.5798 741.404 151.52512Q742.0212 152.47043 742.06805 153.67355L740.3493 153.79855Q740.2087 152.5173 739.404 151.85324Q738.5993 151.18918 737.0368 151.18918Q735.4118 151.18918 734.6618 151.79074Q733.9118 152.3923 733.9118 153.23605Q733.9118 153.97043 734.44305 154.43918Q734.9587 154.90793 737.154 155.40793Q739.3493 155.90793 740.1618 156.28293Q741.3493 156.8298 741.9196 157.66574Q742.4899 158.50168 742.4899 159.59543Q742.4899 160.68918 741.8649 161.65012Q741.2399 162.61105 740.07587 163.1423Q738.9118 163.67355 737.4587 163.67355Q735.6149 163.67355 734.3649 163.13449Q733.1149 162.59543 732.404 161.5173Q731.69305 160.43918 731.6618 159.06418ZM751.24603 160.2673L752.9648 160.48605Q752.55853 161.98605 751.457 162.82199Q750.3554 163.65793 748.63666 163.65793Q746.4804 163.65793 745.2148 162.3298Q743.94916 161.00168 743.94916 158.59543Q743.94916 156.11105 745.2226 154.73605Q746.49603 153.36105 748.5429 153.36105Q750.5273 153.36105 751.7773 154.7048Q753.0273 156.04855 753.0273 158.50168Q753.0273 158.6423 753.01166 158.93918L745.6679 158.93918Q745.76166 160.56418 746.5898 161.42355Q747.4179 162.28293 748.6523 162.28293Q749.55853 162.28293 750.207 161.80637Q750.8554 161.3298 751.24603 160.2673ZM745.76166 157.56418L751.26166 157.56418Q751.1523 156.3298 750.63666 155.7048Q749.8398 154.73605 748.55853 154.73605Q747.4179 154.73605 746.62885 155.50949Q745.8398 156.28293 745.76166 157.56418ZM754.85614 163.43918L754.85614 153.5798L756.35614 153.5798L756.35614 155.0798Q756.93427 154.03293 757.41864 153.69699Q757.903 153.36105 758.49677 153.36105Q759.3405 153.36105 760.2155 153.90793L759.6374 155.4548Q759.028 155.09543 758.403 155.09543Q757.85614 155.09543 757.42645 155.42355Q756.99677 155.75168 756.80927 156.3298Q756.528 157.22043 756.528 158.28293L756.528 163.43918L754.85614 163.43918ZM763.8188 163.43918L760.0688 153.5798L761.8344 153.5798L763.9594 159.48605Q764.30316 160.43918 764.5844 161.47043Q764.80316 160.68918 765.2094 159.59543L767.3969 153.5798L769.11566 153.5798L765.3813 163.43918L763.8188 163.43918ZM777.16254 160.2673L778.8813 160.48605Q778.47504 161.98605 777.3735 162.82199Q776.2719 163.65793 774.55316 163.65793Q772.3969 163.65793 771.1313 162.3298Q769.86566 161.00168 769.86566 158.59543Q769.86566 156.11105 771.1391 154.73605Q772.41254 153.36105 774.4594 153.36105Q776.4438 153.36105 777.6938 154.7048Q778.9438 156.04855 778.9438 158.50168Q778.9438 158.6423 778.92816 158.93918L771.5844 158.93918Q771.67816 160.56418 772.5063 161.42355Q773.3344 162.28293 774.5688 162.28293Q775.47504 162.28293 776.1235 161.80637Q776.7719 161.3298 777.16254 160.2673ZM771.67816 157.56418L777.17816 157.56418Q777.0688 156.3298 776.55316 155.7048Q775.7563 154.73605 774.47504 154.73605Q773.3344 154.73605 772.54535 155.50949Q771.7563 156.28293 771.67816 157.56418ZM780.77264 163.43918L780.77264 153.5798L782.27264 153.5798L782.27264 155.0798Q782.85077 154.03293 783.33514 153.69699Q783.8195 153.36105 784.41327 153.36105Q785.257 153.36105 786.132 153.90793L785.5539 155.4548Q784.9445 155.09543 784.3195 155.09543Q783.77264 155.09543 783.34296 155.42355Q782.91327 155.75168 782.72577 156.3298Q782.4445 157.22043 782.4445 158.28293L782.4445 163.43918L780.77264 163.43918Z" fill-rule="nonzero" fill="#000000"></path><path d="M179.74178 136.03293L179.74178 134.48605L188.74178 130.67355L188.74178 132.3298L181.60115 135.2673L188.74178 138.23605L188.74178 139.8923L179.74178 136.03293ZM190.63673 136.03293L190.63673 134.48605L199.63673 130.67355L199.63673 132.3298L192.49611 135.2673L199.63673 138.23605L199.63673 139.8923L190.63673 136.03293ZM201.73482 141.98605L201.73482 132.12668L203.23482 132.12668L203.23482 133.5173Q203.68794 132.79855 204.46138 132.35324Q205.23482 131.90793 206.2192 131.90793Q207.31294 131.90793 208.01607 132.36105Q208.7192 132.81418 209.00044 133.6423Q210.17232 131.90793 212.04732 131.90793Q213.51607 131.90793 214.30513 132.72043Q215.0942 133.53293 215.0942 135.22043L215.0942 141.98605L213.42232 141.98605L213.42232 135.78293Q213.42232 134.78293 213.26607 134.33762Q213.10982 133.8923 212.68013 133.62668Q212.25044 133.36105 211.67232 133.36105Q210.64107 133.36105 209.95357 134.04855Q209.26607 134.73605 209.26607 136.2673L209.26607 141.98605L207.5942 141.98605L207.5942 135.5798Q207.5942 134.47043 207.18794 133.91574Q206.7817 133.36105 205.8442 133.36105Q205.14107 133.36105 204.5395 133.72824Q203.93794 134.09543 203.67232 134.81418Q203.4067 135.53293 203.4067 136.87668L203.4067 141.98605L201.73482 141.98605ZM223.71312 140.7673Q222.77562 141.56418 221.91624 141.88449Q221.05687 142.2048 220.0725 142.2048Q218.46312 142.2048 217.58812 141.41574Q216.71312 140.62668 216.71312 139.3923Q216.71312 138.65793 217.04124 138.06418Q217.36937 137.47043 217.90062 137.11105Q218.43187 136.75168 219.10374 136.56418Q219.60374 136.42355 220.58812 136.31418Q222.61937 136.06418 223.5725 135.73605Q223.5725 135.3923 223.5725 135.29855Q223.5725 134.28293 223.10374 133.86105Q222.46312 133.29855 221.1975 133.29855Q220.02562 133.29855 219.46312 133.7048Q218.90062 134.11105 218.635 135.17355L216.99437 134.93918Q217.22874 133.8923 217.73656 133.25168Q218.24437 132.61105 219.2053 132.25949Q220.16624 131.90793 221.4475 131.90793Q222.71312 131.90793 223.49437 132.2048Q224.27562 132.50168 224.65062 132.9548Q225.02562 133.40793 225.16624 134.09543Q225.26 134.5173 225.26 135.62668L225.26 137.86105Q225.26 140.18918 225.36156 140.80637Q225.46312 141.42355 225.79124 141.98605L224.04124 141.98605Q223.77562 141.47043 223.71312 140.7673ZM223.5725 137.04855Q222.66624 137.40793 220.83812 137.67355Q219.80687 137.81418 219.385 138.00168Q218.96312 138.18918 218.72874 138.54855Q218.49437 138.90793 218.49437 139.34543Q218.49437 140.0173 219.00218 140.46262Q219.51 140.90793 220.47874 140.90793Q221.4475 140.90793 222.1975 140.47824Q222.9475 140.04855 223.30687 139.3298Q223.5725 138.75168 223.5725 137.65793L223.5725 137.04855ZM234.08884 138.37668L235.72946 138.59543Q235.46384 140.28293 234.35446 141.24387Q233.24509 142.2048 231.62009 142.2048Q229.60446 142.2048 228.3779 140.88449Q227.15134 139.56418 227.15134 137.09543Q227.15134 135.50168 227.67477 134.30637Q228.19821 133.11105 229.28415 132.50949Q230.37009 131.90793 231.63571 131.90793Q233.24509 131.90793 234.26071 132.72043Q235.27634 133.53293 235.57321 135.03293L233.94821 135.28293Q233.71384 134.28293 233.12009 133.78293Q232.52634 133.28293 231.69821 133.28293Q230.43259 133.28293 229.64352 134.18918Q228.85446 135.09543 228.85446 137.04855Q228.85446 139.03293 229.62009 139.93137Q230.38571 140.8298 231.60446 140.8298Q232.58884 140.8298 233.24509 140.22824Q233.90134 139.62668 234.08884 138.37668ZM236.97946 141.98605L236.97946 128.3923L238.65134 128.3923L238.65134 133.2673Q239.82321 131.90793 241.60446 131.90793Q242.69821 131.90793 243.5029 132.33762Q244.30759 132.7673 244.65915 133.53293Q245.01071 134.29855 245.01071 135.73605L245.01071 141.98605L243.33884 141.98605L243.33884 135.73605Q243.33884 134.48605 242.79196 133.91574Q242.24509 133.34543 241.26071 133.34543Q240.51071 133.34543 239.86227 133.72824Q239.21384 134.11105 238.93259 134.77512Q238.65134 135.43918 238.65134 136.59543L238.65134 141.98605L236.97946 141.98605ZM247.3708 130.29855L247.3708 128.3923L249.04268 128.3923L249.04268 130.29855L247.3708 130.29855ZM247.3708 141.98605L247.3708 132.12668L249.04268 132.12668L249.04268 141.98605L247.3708 141.98605ZM251.5 141.98605L251.5 132.12668L253.0 132.12668L253.0 133.53293Q254.09375 131.90793 256.14062 131.90793Q257.03125 131.90793 257.78125 132.22824Q258.53125 132.54855 258.89844 133.07199Q259.26562 133.59543 259.42188 134.29855Q259.51562 134.7673 259.51562 135.92355L259.51562 141.98605L257.84375 141.98605L257.84375 135.98605Q257.84375 134.97043 257.64844 134.46262Q257.45312 133.9548 256.95312 133.65793Q256.45312 133.36105 255.78125 133.36105Q254.71875 133.36105 253.94531 134.03293Q253.17188 134.7048 253.17188 136.61105L253.17188 141.98605L251.5 141.98605ZM268.62573 138.81418L270.34448 139.03293Q269.93823 140.53293 268.83667 141.36887Q267.7351 142.2048 266.01636 142.2048Q263.8601 142.2048 262.59448 140.87668Q261.32886 139.54855 261.32886 137.1423Q261.32886 134.65793 262.6023 133.28293Q263.87573 131.90793 265.9226 131.90793Q267.90698 131.90793 269.15698 133.25168Q270.40698 134.59543 270.40698 137.04855Q270.40698 137.18918 270.39136 137.48605L263.0476 137.48605Q263.14136 139.11105 263.96948 139.97043Q264.7976 140.8298 266.03198 140.8298Q266.93823 140.8298 267.58667 140.35324Q268.2351 139.87668 268.62573 138.81418ZM263.14136 136.11105L268.64136 136.11105Q268.53198 134.87668 268.01636 134.25168Q267.21948 133.28293 265.93823 133.28293Q264.7976 133.28293 264.00854 134.05637Q263.21948 134.8298 263.14136 136.11105ZM281.0483 136.03293L272.0483 139.8923L272.0483 138.23605L279.1733 135.2673L272.0483 132.3298L272.0483 130.67355L281.0483 134.48605L281.0483 136.03293ZM291.94327 136.03293L282.94327 139.8923L282.94327 138.23605L290.06827 135.2673L282.94327 132.3298L282.94327 130.67355L291.94327 134.48605L291.94327 136.03293Z" fill-rule="nonzero" fill="#000000"></path><path d="M211.02156 155.48605L211.02156 153.5798L212.92781 153.5798L212.92781 155.48605L211.02156 155.48605ZM211.02156 163.43918L211.02156 161.53293L212.92781 161.53293L212.92781 163.43918L211.02156 163.43918ZM225.65799 158.67355L227.45486 159.12668Q226.89236 161.34543 225.42361 162.50949Q223.95486 163.67355 221.82986 163.67355Q219.62674 163.67355 218.25174 162.77512Q216.87674 161.87668 216.15799 160.18137Q215.43924 158.48605 215.43924 156.53293Q215.43924 154.40793 216.24393 152.8298Q217.04861 151.25168 218.54861 150.43137Q220.04861 149.61105 221.84549 149.61105Q223.89236 149.61105 225.28299 150.65012Q226.67361 151.68918 227.22049 153.56418L225.45486 153.98605Q224.98611 152.50168 224.07986 151.82199Q223.17361 151.1423 221.81424 151.1423Q220.25174 151.1423 219.19705 151.8923Q218.14236 152.6423 217.71268 153.91574Q217.28299 155.18918 217.28299 156.53293Q217.28299 158.2673 217.7908 159.55637Q218.29861 160.84543 219.36893 161.48605Q220.43924 162.12668 221.67361 162.12668Q223.18924 162.12668 224.23611 161.25949Q225.28299 160.3923 225.65799 158.67355ZM229.17781 163.43918L229.17781 149.84543L230.84969 149.84543L230.84969 163.43918L229.17781 163.43918ZM233.3695 151.75168L233.3695 149.84543L235.04138 149.84543L235.04138 151.75168L233.3695 151.75168ZM233.3695 163.43918L233.3695 153.5798L235.04138 153.5798L235.04138 163.43918L233.3695 163.43918ZM244.2487 160.2673L245.96745 160.48605Q245.5612 161.98605 244.45964 162.82199Q243.35808 163.65793 241.63933 163.65793Q239.48308 163.65793 238.21745 162.3298Q236.95183 161.00168 236.95183 158.59543Q236.95183 156.11105 238.22527 154.73605Q239.4987 153.36105 241.54558 153.36105Q243.52995 153.36105 244.77995 154.7048Q246.02995 156.04855 246.02995 158.50168Q246.02995 158.6423 246.01433 158.93918L238.67058 158.93918Q238.76433 160.56418 239.59245 161.42355Q240.42058 162.28293 241.65495 162.28293Q242.5612 162.28293 243.20964 161.80637Q243.85808 161.3298 244.2487 160.2673ZM238.76433 157.56418L244.26433 157.56418Q244.15495 156.3298 243.63933 155.7048Q242.84245 154.73605 241.5612 154.73605Q240.42058 154.73605 239.63152 155.50949Q238.84245 156.28293 238.76433 157.56418ZM247.87442 163.43918L247.87442 153.5798L249.37442 153.5798L249.37442 154.98605Q250.46817 153.36105 252.51505 153.36105Q253.40567 153.36105 254.15567 153.68137Q254.90567 154.00168 255.27286 154.52512Q255.64005 155.04855 255.7963 155.75168Q255.89005 156.22043 255.89005 157.37668L255.89005 163.43918L254.21817 163.43918L254.21817 157.43918Q254.21817 156.42355 254.02286 155.91574Q253.82755 155.40793 253.32755 155.11105Q252.82755 154.81418 252.15567 154.81418Q251.09317 154.81418 250.31973 155.48605Q249.5463 156.15793 249.5463 158.06418L249.5463 163.43918L247.87442 163.43918ZM261.9064 161.93918L262.14078 163.42355Q261.43765 163.56418 260.87515 163.56418Q259.9689 163.56418 259.4689 163.27512Q258.9689 162.98605 258.76578 162.52512Q258.56265 162.06418 258.56265 160.54855L258.56265 154.8923L257.32828 154.8923L257.32828 153.5798L258.56265 153.5798L258.56265 151.1423L260.2189 150.1423L260.2189 153.5798L261.9064 153.5798L261.9064 154.8923L260.2189 154.8923L260.2189 160.6423Q260.2189 161.36105 260.30484 161.56418Q260.39078 161.7673 260.5939 161.8923Q260.79703 162.0173 261.17203 162.0173Q261.43765 162.0173 261.9064 161.93918Z" fill-rule="nonzero" fill="#000000"></path><path d="M332.79825 324.0793L322.6297 313.91077L138.68802 313.91077L138.68802 441.78946L148.85658 451.958L332.79825 451.958ZM332.79825 324.0793L148.85658 324.0793L138.68802 313.91077M148.85658 324.0793L148.85658 451.958" fill-rule="nonzero" stroke="#000000" stroke-width="2.0" stroke-linejoin="round" stroke-linecap="butt"></path><path d="M187.42227 377.50305L187.42227 375.95618L196.42227 372.14368L196.42227 373.79993L189.28165 376.73743L196.42227 379.70618L196.42227 381.36243L187.42227 377.50305ZM198.31723 377.50305L198.31723 375.95618L207.31723 372.14368L207.31723 373.79993L200.1766 376.73743L207.31723 379.70618L207.31723 381.36243L198.31723 377.50305ZM209.41531 387.23743L209.41531 373.5968L210.94656 373.5968L210.94656 374.87805Q211.47781 374.12805 212.1575 373.75305Q212.83719 373.37805 213.79031 373.37805Q215.05594 373.37805 216.02469 374.0265Q216.99344 374.67493 217.48563 375.86243Q217.97781 377.04993 217.97781 378.45618Q217.97781 379.9718 217.43094 381.18274Q216.88406 382.39368 215.85281 383.0343Q214.82156 383.67493 213.68094 383.67493Q212.83719 383.67493 212.17313 383.32336Q211.50906 382.9718 211.08719 382.44055L211.08719 387.23743L209.41531 387.23743ZM210.93094 378.58118Q210.93094 380.48743 211.70438 381.39368Q212.47781 382.29993 213.57156 382.29993Q214.68094 382.29993 215.47 381.36243Q216.25906 380.42493 216.25906 378.44055Q216.25906 376.56555 215.48563 375.62805Q214.71219 374.69055 213.63406 374.69055Q212.57156 374.69055 211.75125 375.69055Q210.93094 376.69055 210.93094 378.58118ZM219.7754 383.45618L219.7754 373.5968L221.2754 373.5968L221.2754 375.0968Q221.85353 374.04993 222.3379 373.714Q222.82228 373.37805 223.41603 373.37805Q224.25978 373.37805 225.13478 373.92493L224.55666 375.4718Q223.94728 375.11243 223.32228 375.11243Q222.7754 375.11243 222.34572 375.44055Q221.91603 375.76868 221.72853 376.3468Q221.44728 377.23743 221.44728 378.29993L221.44728 383.45618L219.7754 383.45618ZM225.37871 378.5343Q225.37871 375.79993 226.90996 374.4718Q228.17558 373.37805 230.00371 373.37805Q232.03496 373.37805 233.32402 374.714Q234.61308 376.04993 234.61308 378.39368Q234.61308 380.29993 234.04277 381.38586Q233.47246 382.4718 232.38652 383.07336Q231.30058 383.67493 230.00371 383.67493Q227.94121 383.67493 226.65996 382.3468Q225.37871 381.01868 225.37871 378.5343ZM227.09746 378.5343Q227.09746 380.42493 227.92558 381.36243Q228.75371 382.29993 230.00371 382.29993Q231.25371 382.29993 232.07402 381.3546Q232.89433 380.4093 232.89433 378.4718Q232.89433 376.64368 232.06621 375.70618Q231.23808 374.76868 230.00371 374.76868Q228.75371 374.76868 227.92558 375.70618Q227.09746 376.64368 227.09746 378.5343ZM242.81693 379.8468L244.45755 380.06555Q244.19193 381.75305 243.08255 382.714Q241.97318 383.67493 240.34818 383.67493Q238.33255 383.67493 237.10599 382.3546Q235.87943 381.0343 235.87943 378.56555Q235.87943 376.9718 236.40286 375.7765Q236.9263 374.58118 238.01224 373.9796Q239.09818 373.37805 240.3638 373.37805Q241.97318 373.37805 242.9888 374.19055Q244.00443 375.00305 244.3013 376.50305L242.6763 376.75305Q242.44193 375.75305 241.84818 375.25305Q241.25443 374.75305 240.4263 374.75305Q239.16068 374.75305 238.37161 375.6593Q237.58255 376.56555 237.58255 378.51868Q237.58255 380.50305 238.34818 381.4015Q239.1138 382.29993 240.33255 382.29993Q241.31693 382.29993 241.97318 381.69836Q242.62943 381.0968 242.81693 379.8468ZM252.45755 380.2843L254.1763 380.50305Q253.77005 382.00305 252.66849 382.839Q251.56693 383.67493 249.84818 383.67493Q247.69193 383.67493 246.4263 382.3468Q245.16068 381.01868 245.16068 378.61243Q245.16068 376.12805 246.43411 374.75305Q247.70755 373.37805 249.75443 373.37805Q251.7388 373.37805 252.9888 374.7218Q254.2388 376.06555 254.2388 378.51868Q254.2388 378.6593 254.22318 378.95618L246.87943 378.95618Q246.97318 380.58118 247.8013 381.44055Q248.62943 382.29993 249.8638 382.29993Q250.77005 382.29993 251.41849 381.82336Q252.06693 381.3468 252.45755 380.2843ZM246.97318 377.58118L252.47318 377.58118Q252.3638 376.3468 251.84818 375.7218Q251.0513 374.75305 249.77005 374.75305Q248.62943 374.75305 247.84036 375.5265Q247.0513 376.29993 246.97318 377.58118ZM255.41139 380.51868L257.06763 380.25305Q257.20825 381.25305 257.84106 381.7765Q258.47388 382.29993 259.6145 382.29993Q260.77075 382.29993 261.32544 381.83118Q261.88013 381.36243 261.88013 380.73743Q261.88013 380.17493 261.39575 379.8468Q261.052 379.62805 259.69263 379.2843Q257.84888 378.81555 257.13794 378.4796Q256.427 378.14368 256.0598 377.5421Q255.69264 376.94055 255.69264 376.2218Q255.69264 375.56555 255.99733 375.00305Q256.302 374.44055 256.81763 374.06555Q257.20825 373.7843 257.88013 373.58118Q258.552 373.37805 259.31763 373.37805Q260.4895 373.37805 261.3645 373.714Q262.2395 374.04993 262.65356 374.62024Q263.06763 375.19055 263.22388 376.14368L261.59888 376.36243Q261.4895 375.61243 260.95044 375.18274Q260.41138 374.75305 259.44263 374.75305Q258.28638 374.75305 257.802 375.13586Q257.31763 375.51868 257.31763 376.01868Q257.31763 376.3468 257.52075 376.61243Q257.72388 376.87805 258.16138 377.04993Q258.41138 377.14368 259.63013 377.48743Q261.39575 377.95618 262.09888 378.25305Q262.802 378.54993 263.20044 379.12805Q263.59888 379.70618 263.59888 380.56555Q263.59888 381.39368 263.1145 382.13586Q262.63013 382.87805 261.70825 383.2765Q260.78638 383.67493 259.63013 383.67493Q257.70825 383.67493 256.70044 382.87805Q255.69264 382.08118 255.41139 380.51868ZM264.7395 380.51868L266.39575 380.25305Q266.53638 381.25305 267.1692 381.7765Q267.802 382.29993 268.94263 382.29993Q270.09888 382.29993 270.65356 381.83118Q271.20825 381.36243 271.20825 380.73743Q271.20825 380.17493 270.72388 379.8468Q270.38013 379.62805 269.02075 379.2843Q267.177 378.81555 266.46606 378.4796Q265.75513 378.14368 265.38794 377.5421Q265.02075 376.94055 265.02075 376.2218Q265.02075 375.56555 265.32544 375.00305Q265.63013 374.44055 266.14575 374.06555Q266.53638 373.7843 267.20825 373.58118Q267.88013 373.37805 268.64575 373.37805Q269.81763 373.37805 270.69263 373.714Q271.56763 374.04993 271.9817 374.62024Q272.39575 375.19055 272.552 376.14368L270.927 376.36243Q270.81763 375.61243 270.27856 375.18274Q269.7395 374.75305 268.77075 374.75305Q267.6145 374.75305 267.13013 375.13586Q266.64575 375.51868 266.64575 376.01868Q266.64575 376.3468 266.84888 376.61243Q267.052 376.87805 267.4895 377.04993Q267.7395 377.14368 268.95825 377.48743Q270.72388 377.95618 271.427 378.25305Q272.13013 378.54993 272.52856 379.12805Q272.927 379.70618 272.927 380.56555Q272.927 381.39368 272.44263 382.13586Q271.95825 382.87805 271.03638 383.2765Q270.1145 383.67493 268.95825 383.67493Q267.03638 383.67493 266.02856 382.87805Q265.02075 382.08118 264.7395 380.51868ZM283.53638 377.50305L274.53638 381.36243L274.53638 379.70618L281.66138 376.73743L274.53638 373.79993L274.53638 372.14368L283.53638 375.95618L283.53638 377.50305ZM294.43134 377.50305L285.43134 381.36243L285.43134 379.70618L292.55634 376.73743L285.43134 373.79993L285.43134 372.14368L294.43134 375.95618L294.43134 377.50305Z" fill-rule="nonzero" fill="#000000"></path><path d="M185.00146 396.95618L185.00146 395.04993L186.90771 395.04993L186.90771 396.95618L185.00146 396.95618ZM185.00146 404.9093L185.00146 403.00305L186.90771 403.00305L186.90771 404.9093L185.00146 404.9093ZM189.71602 404.9093L189.71602 395.04993L191.21602 395.04993L191.21602 396.44055Q191.66914 395.7218 192.44258 395.2765Q193.21602 394.83118 194.2004 394.83118Q195.29414 394.83118 195.99727 395.2843Q196.7004 395.73743 196.98164 396.56555Q198.15352 394.83118 200.02852 394.83118Q201.49727 394.83118 202.28633 395.64368Q203.0754 396.45618 203.0754 398.14368L203.0754 404.9093L201.40352 404.9093L201.40352 398.70618Q201.40352 397.70618 201.24727 397.26086Q201.09102 396.81555 200.66133 396.54993Q200.23164 396.2843 199.65352 396.2843Q198.62227 396.2843 197.93477 396.9718Q197.24727 397.6593 197.24727 399.19055L197.24727 404.9093L195.5754 404.9093L195.5754 398.50305Q195.5754 397.39368 195.16914 396.839Q194.7629 396.2843 193.8254 396.2843Q193.12227 396.2843 192.5207 396.6515Q191.91914 397.01868 191.65352 397.73743Q191.3879 398.45618 191.3879 399.79993L191.3879 404.9093L189.71602 404.9093ZM204.63182 399.98743Q204.63182 397.25305 206.16307 395.92493Q207.4287 394.83118 209.25682 394.83118Q211.28807 394.83118 212.57713 396.1671Q213.8662 397.50305 213.8662 399.8468Q213.8662 401.75305 213.29588 402.839Q212.72557 403.92493 211.63963 404.5265Q210.5537 405.12805 209.25682 405.12805Q207.19432 405.12805 205.91307 403.79993Q204.63182 402.4718 204.63182 399.98743ZM206.35057 399.98743Q206.35057 401.87805 207.1787 402.81555Q208.00682 403.75305 209.25682 403.75305Q210.50682 403.75305 211.32713 402.80774Q212.14745 401.86243 212.14745 399.92493Q212.14745 398.0968 211.31932 397.1593Q210.4912 396.2218 209.25682 396.2218Q208.00682 396.2218 207.1787 397.1593Q206.35057 398.0968 206.35057 399.98743ZM215.63254 404.9093L215.63254 395.04993L217.13254 395.04993L217.13254 396.45618Q218.22629 394.83118 220.27316 394.83118Q221.16379 394.83118 221.91379 395.1515Q222.66379 395.4718 223.03098 395.99524Q223.39816 396.51868 223.55441 397.2218Q223.64816 397.69055 223.64816 398.8468L223.64816 404.9093L221.97629 404.9093L221.97629 398.9093Q221.97629 397.89368 221.78098 397.38586Q221.58566 396.87805 221.08566 396.58118Q220.58566 396.2843 219.91379 396.2843Q218.85129 396.2843 218.07785 396.95618Q217.30441 397.62805 217.30441 399.5343L217.30441 404.9093L215.63254 404.9093ZM226.02388 393.2218L226.02388 391.31555L227.69576 391.31555L227.69576 393.2218L226.02388 393.2218ZM226.02388 404.9093L226.02388 395.04993L227.69576 395.04993L227.69576 404.9093L226.02388 404.9093ZM233.80933 403.4093L234.0437 404.89368Q233.34058 405.0343 232.77808 405.0343Q231.87183 405.0343 231.37183 404.74524Q230.87183 404.45618 230.6687 403.99524Q230.46558 403.5343 230.46558 402.01868L230.46558 396.36243L229.2312 396.36243L229.2312 395.04993L230.46558 395.04993L230.46558 392.61243L232.12183 391.61243L232.12183 395.04993L233.80933 395.04993L233.80933 396.36243L232.12183 396.36243L232.12183 402.11243Q232.12183 402.83118 232.20776 403.0343Q232.2937 403.23743 232.49683 403.36243Q232.69995 403.48743 233.07495 403.48743Q233.34058 403.48743 233.80933 403.4093ZM234.71138 399.98743Q234.71138 397.25305 236.24263 395.92493Q237.50826 394.83118 239.33638 394.83118Q241.36763 394.83118 242.6567 396.1671Q243.94576 397.50305 243.94576 399.8468Q243.94576 401.75305 243.37544 402.839Q242.80513 403.92493 241.7192 404.5265Q240.63326 405.12805 239.33638 405.12805Q237.27388 405.12805 235.99263 403.79993Q234.71138 402.4718 234.71138 399.98743ZM236.43013 399.98743Q236.43013 401.87805 237.25826 402.81555Q238.08638 403.75305 239.33638 403.75305Q240.58638 403.75305 241.4067 402.80774Q242.227 401.86243 242.227 399.92493Q242.227 398.0968 241.39888 397.1593Q240.57076 396.2218 239.33638 396.2218Q238.08638 396.2218 237.25826 397.1593Q236.43013 398.0968 236.43013 399.98743ZM245.69647 404.9093L245.69647 395.04993L247.19647 395.04993L247.19647 396.54993Q247.7746 395.50305 248.25897 395.1671Q248.74335 394.83118 249.3371 394.83118Q250.18085 394.83118 251.05585 395.37805L250.47772 396.92493Q249.86835 396.56555 249.24335 396.56555Q248.69647 396.56555 248.26678 396.89368Q247.8371 397.2218 247.6496 397.79993Q247.36835 398.69055 247.36835 399.75305L247.36835 404.9093L245.69647 404.9093ZM261.84665 400.14368L263.64352 400.5968Q263.08102 402.81555 261.61227 403.9796Q260.14352 405.14368 258.01852 405.14368Q255.8154 405.14368 254.4404 404.24524Q253.0654 403.3468 252.34665 401.6515Q251.6279 399.95618 251.6279 398.00305Q251.6279 395.87805 252.43259 394.29993Q253.23727 392.7218 254.73727 391.9015Q256.23727 391.08118 258.03415 391.08118Q260.08102 391.08118 261.47165 392.12024Q262.86227 393.1593 263.40915 395.0343L261.64352 395.45618Q261.17477 393.9718 260.26852 393.2921Q259.36227 392.61243 258.0029 392.61243Q256.4404 392.61243 255.38571 393.36243Q254.33102 394.11243 253.90134 395.38586Q253.47165 396.6593 253.47165 398.00305Q253.47165 399.73743 253.97946 401.0265Q254.48727 402.31555 255.55759 402.95618Q256.6279 403.5968 257.86227 403.5968Q259.3779 403.5968 260.42477 402.7296Q261.47165 401.86243 261.84665 400.14368ZM265.3665 404.9093L265.3665 391.31555L267.03836 391.31555L267.03836 404.9093L265.3665 404.9093ZM269.55817 393.2218L269.55817 391.31555L271.23004 391.31555L271.23004 393.2218L269.55817 393.2218ZM269.55817 404.9093L269.55817 395.04993L271.23004 395.04993L271.23004 404.9093L269.55817 404.9093ZM280.43735 401.73743L282.1561 401.95618Q281.74985 403.45618 280.6483 404.2921Q279.54672 405.12805 277.82797 405.12805Q275.67175 405.12805 274.40613 403.79993Q273.1405 402.4718 273.1405 400.06555Q273.1405 397.58118 274.41394 396.20618Q275.68738 394.83118 277.73422 394.83118Q279.7186 394.83118 280.9686 396.17493Q282.2186 397.51868 282.2186 399.9718Q282.2186 400.11243 282.20297 400.4093L274.85925 400.4093Q274.953 402.0343 275.78113 402.89368Q276.60925 403.75305 277.8436 403.75305Q278.74985 403.75305 279.3983 403.2765Q280.04672 402.79993 280.43735 401.73743ZM274.953 399.0343L280.45297 399.0343Q280.3436 397.79993 279.82797 397.17493Q279.0311 396.20618 277.74985 396.20618Q276.60925 396.20618 275.8202 396.9796Q275.03113 397.75305 274.953 399.0343ZM284.06308 404.9093L284.06308 395.04993L285.56308 395.04993L285.56308 396.45618Q286.65683 394.83118 288.7037 394.83118Q289.59433 394.83118 290.34433 395.1515Q291.09433 395.4718 291.46152 395.99524Q291.8287 396.51868 291.98495 397.2218Q292.0787 397.69055 292.0787 398.8468L292.0787 404.9093L290.40683 404.9093L290.40683 398.9093Q290.40683 397.89368 290.21152 397.38586Q290.0162 396.87805 289.5162 396.58118Q289.0162 396.2843 288.34433 396.2843Q287.28183 396.2843 286.5084 396.95618Q285.73495 397.62805 285.73495 399.5343L285.73495 404.9093L284.06308 404.9093ZM298.09503 403.4093L298.3294 404.89368Q297.62628 405.0343 297.06378 405.0343Q296.15753 405.0343 295.65753 404.74524Q295.15753 404.45618 294.9544 403.99524Q294.75128 403.5343 294.75128 402.01868L294.75128 396.36243L293.5169 396.36243L293.5169 395.04993L294.75128 395.04993L294.75128 392.61243L296.40753 391.61243L296.40753 395.04993L298.09503 395.04993L298.09503 396.36243L296.40753 396.36243L296.40753 402.11243Q296.40753 402.83118 296.49347 403.0343Q296.5794 403.23743 296.78253 403.36243Q296.98566 403.48743 297.36066 403.48743Q297.62628 403.48743 298.09503 403.4093Z" fill-rule="nonzero" fill="#000000"></path><path d="M434.63046 229.28537L434.63046 227.7385L443.63046 223.926L443.63046 225.58224L436.48984 228.51974L443.63046 231.4885L443.63046 233.14474L434.63046 229.28537ZM445.52542 229.28537L445.52542 227.7385L454.52542 223.926L454.52542 225.58224L447.3848 228.51974L454.52542 231.4885L454.52542 233.14474L445.52542 229.28537ZM456.6235 239.01974L456.6235 225.37912L458.15475 225.37912L458.15475 226.66037Q458.686 225.91037 459.3657 225.53537Q460.04538 225.16037 460.9985 225.16037Q462.26413 225.16037 463.23288 225.8088Q464.20163 226.45724 464.69382 227.64474Q465.186 228.83224 465.186 230.2385Q465.186 231.75412 464.63913 232.96506Q464.09225 234.176 463.061 234.81662Q462.02975 235.45724 460.88913 235.45724Q460.04538 235.45724 459.38132 235.10568Q458.71725 234.75412 458.29538 234.22287L458.29538 239.01974L456.6235 239.01974ZM458.13913 230.3635Q458.13913 232.26974 458.91257 233.176Q459.686 234.08224 460.77975 234.08224Q461.88913 234.08224 462.6782 233.14474Q463.46725 232.20724 463.46725 230.22287Q463.46725 228.34787 462.69382 227.41037Q461.92038 226.47287 460.84225 226.47287Q459.77975 226.47287 458.95944 227.47287Q458.13913 228.47287 458.13913 230.3635ZM469.7336 235.2385L465.9836 225.37912L467.74924 225.37912L469.87424 231.28537Q470.218 232.2385 470.49924 233.26974Q470.718 232.4885 471.12424 231.39474L473.31174 225.37912L475.0305 225.37912L471.2961 235.2385L469.7336 235.2385ZM475.0461 235.2385L480.2805 221.64474L482.218 221.64474L487.7805 235.2385L485.7336 235.2385L484.13986 231.1135L478.45236 231.1135L476.968 235.2385L475.0461 235.2385ZM478.968 229.66037L483.57736 229.66037L482.1711 225.87912Q481.51486 224.176 481.20236 223.06662Q480.93674 224.37912 480.468 225.66037L478.968 229.66037ZM495.20844 231.62912L496.84906 231.84787Q496.58344 233.53537 495.47406 234.4963Q494.3647 235.45724 492.7397 235.45724Q490.72406 235.45724 489.4975 234.13693Q488.27094 232.81662 488.27094 230.34787Q488.27094 228.75412 488.79437 227.5588Q489.3178 226.3635 490.40375 225.76193Q491.4897 225.16037 492.7553 225.16037Q494.3647 225.16037 495.3803 225.97287Q496.39594 226.78537 496.6928 228.28537L495.0678 228.53537Q494.83344 227.53537 494.2397 227.03537Q493.64594 226.53537 492.8178 226.53537Q491.5522 226.53537 490.76312 227.44162Q489.97406 228.34787 489.97406 230.301Q489.97406 232.28537 490.7397 233.1838Q491.5053 234.08224 492.72406 234.08224Q493.70844 234.08224 494.3647 233.48068Q495.02094 232.87912 495.20844 231.62912ZM504.53656 231.62912L506.1772 231.84787Q505.91156 233.53537 504.8022 234.4963Q503.6928 235.45724 502.0678 235.45724Q500.0522 235.45724 498.82562 234.13693Q497.59906 232.81662 497.59906 230.34787Q497.59906 228.75412 498.1225 227.5588Q498.64594 226.3635 499.73187 225.76193Q500.8178 225.16037 502.08344 225.16037Q503.6928 225.16037 504.70844 225.97287Q505.72406 226.78537 506.02094 228.28537L504.39594 228.53537Q504.16156 227.53537 503.5678 227.03537Q502.97406 226.53537 502.14594 226.53537Q500.8803 226.53537 500.09125 227.44162Q499.3022 228.34787 499.3022 230.301Q499.3022 232.28537 500.0678 233.1838Q500.83344 234.08224 502.0522 234.08224Q503.03656 234.08224 503.6928 233.48068Q504.34906 232.87912 504.53656 231.62912ZM514.1772 232.06662L515.89594 232.28537Q515.4897 233.78537 514.3881 234.6213Q513.28656 235.45724 511.5678 235.45724Q509.41156 235.45724 508.14594 234.12912Q506.8803 232.801 506.8803 230.39474Q506.8803 227.91037 508.15375 226.53537Q509.4272 225.16037 511.47406 225.16037Q513.45844 225.16037 514.70844 226.50412Q515.95844 227.84787 515.95844 230.301Q515.95844 230.44162 515.9428 230.7385L508.59906 230.7385Q508.6928 232.3635 509.52094 233.22287Q510.34906 234.08224 511.58344 234.08224Q512.4897 234.08224 513.1381 233.60568Q513.78656 233.12912 514.1772 232.06662ZM508.6928 229.3635L514.1928 229.3635Q514.08344 228.12912 513.5678 227.50412Q512.77094 226.53537 511.4897 226.53537Q510.34906 226.53537 509.56 227.3088Q508.77094 228.08224 508.6928 229.3635ZM517.13104 232.301L518.7873 232.03537Q518.9279 233.03537 519.5607 233.5588Q520.19354 234.08224 521.33417 234.08224Q522.4904 234.08224 523.0451 233.6135Q523.5998 233.14474 523.5998 232.51974Q523.5998 231.95724 523.1154 231.62912Q522.77167 231.41037 521.4123 231.06662Q519.56854 230.59787 518.8576 230.26193Q518.14667 229.926 517.7795 229.32443Q517.4123 228.72287 517.4123 228.00412Q517.4123 227.34787 517.717 226.78537Q518.02167 226.22287 518.5373 225.84787Q518.9279 225.56662 519.5998 225.3635Q520.27167 225.16037 521.0373 225.16037Q522.20917 225.16037 523.08417 225.4963Q523.95917 225.83224 524.3732 226.40256Q524.7873 226.97287 524.94354 227.926L523.31854 228.14474Q523.20917 227.39474 522.6701 226.96506Q522.13104 226.53537 521.1623 226.53537Q520.00604 226.53537 519.52167 226.91818Q519.0373 227.301 519.0373 227.801Q519.0373 228.12912 519.2404 228.39474Q519.44354 228.66037 519.88104 228.83224Q520.13104 228.926 521.3498 229.26974Q523.1154 229.7385 523.81854 230.03537Q524.52167 230.33224 524.9201 230.91037Q525.31854 231.4885 525.31854 232.34787Q525.31854 233.176 524.83417 233.91818Q524.3498 234.66037 523.4279 235.0588Q522.50604 235.45724 521.3498 235.45724Q519.4279 235.45724 518.4201 234.66037Q517.4123 233.8635 517.13104 232.301ZM526.45917 232.301L528.1154 232.03537Q528.25604 233.03537 528.88885 233.5588Q529.52167 234.08224 530.6623 234.08224Q531.81854 234.08224 532.3732 233.6135Q532.9279 233.14474 532.9279 232.51974Q532.9279 231.95724 532.44354 231.62912Q532.0998 231.41037 530.7404 231.06662Q528.89667 230.59787 528.1857 230.26193Q527.4748 229.926 527.1076 229.32443Q526.7404 228.72287 526.7404 228.00412Q526.7404 227.34787 527.0451 226.78537Q527.3498 226.22287 527.8654 225.84787Q528.25604 225.56662 528.9279 225.3635Q529.5998 225.16037 530.3654 225.16037Q531.5373 225.16037 532.4123 225.4963Q533.2873 225.83224 533.70135 226.40256Q534.1154 226.97287 534.27167 227.926L532.64667 228.14474Q532.5373 227.39474 531.9982 226.96506Q531.45917 226.53537 530.4904 226.53537Q529.33417 226.53537 528.8498 226.91818Q528.3654 227.301 528.3654 227.801Q528.3654 228.12912 528.56854 228.39474Q528.77167 228.66037 529.20917 228.83224Q529.45917 228.926 530.6779 229.26974Q532.44354 229.7385 533.14667 230.03537Q533.8498 230.33224 534.2482 230.91037Q534.64667 231.4885 534.64667 232.34787Q534.64667 233.176 534.1623 233.91818Q533.6779 234.66037 532.75604 235.0588Q531.83417 235.45724 530.6779 235.45724Q528.75604 235.45724 527.7482 234.66037Q526.7404 233.8635 526.45917 232.301ZM545.25604 229.28537L536.25604 233.14474L536.25604 231.4885L543.38104 228.51974L536.25604 225.58224L536.25604 223.926L545.25604 227.7385L545.25604 229.28537ZM556.151 229.28537L547.151 233.14474L547.151 231.4885L554.276 228.51974L547.151 225.58224L547.151 223.926L556.151 227.7385L556.151 229.28537Z" fill-rule="nonzero" fill="#000000"></path><path d="M626.66095 277.07443L367.85333 277.07443" fill-rule="nonzero" stroke="#000000" stroke-width="2.0" stroke-linejoin="round" stroke-linecap="butt"></path><path d="M834.6142 321.48343L825.4363 312.3055L681.95276 312.3055L681.95276 427.726L691.1307 436.90393L834.6142 436.90393ZM834.6142 321.48343L691.1307 321.48343L681.95276 312.3055M691.1307 321.48343L691.1307 436.90393" fill-rule="nonzero" stroke="#000000" stroke-width="2.0" stroke-linejoin="round" stroke-linecap="butt"></path><path d="M703.7465 379.4046L703.7465 377.85773L712.7465 374.04523L712.7465 375.70148L705.6059 378.63898L712.7465 381.60773L712.7465 383.26398L703.7465 379.4046ZM714.6415 379.4046L714.6415 377.85773L723.6415 374.04523L723.6415 375.70148L716.50085 378.63898L723.6415 381.60773L723.6415 383.26398L714.6415 379.4046ZM732.1302 385.35773L732.1302 384.10773Q731.1927 385.57648 729.3802 385.57648Q728.2083 385.57648 727.2161 384.92804Q726.22394 384.2796 725.6849 383.11554Q725.1458 381.95148 725.1458 380.43585Q725.1458 378.9671 725.638 377.76398Q726.1302 376.56085 727.10675 375.92023Q728.0833 375.2796 729.30206 375.2796Q730.1927 375.2796 730.888 375.6546Q731.5833 376.0296 732.0208 376.63898L732.0208 371.76398L733.67706 371.76398L733.67706 385.35773L732.1302 385.35773ZM726.84894 380.43585Q726.84894 382.32648 727.6536 383.26398Q728.4583 384.20148 729.53644 384.20148Q730.6302 384.20148 731.3958 383.31085Q732.16144 382.42023 732.16144 380.57648Q732.16144 378.56085 731.3802 377.61554Q730.59894 376.67023 729.4583 376.67023Q728.34894 376.67023 727.59894 377.57648Q726.84894 378.48273 726.84894 380.43585ZM742.5528 384.13898Q741.6153 384.93585 740.7559 385.25616Q739.89655 385.57648 738.9122 385.57648Q737.3028 385.57648 736.4278 384.7874Q735.5528 383.99835 735.5528 382.76398Q735.5528 382.0296 735.8809 381.43585Q736.20905 380.8421 736.7403 380.48273Q737.27155 380.12335 737.9434 379.93585Q738.4434 379.79523 739.4278 379.68585Q741.45905 379.43585 742.4122 379.10773Q742.4122 378.76398 742.4122 378.67023Q742.4122 377.6546 741.9434 377.23273Q741.3028 376.67023 740.0372 376.67023Q738.8653 376.67023 738.3028 377.07648Q737.7403 377.48273 737.4747 378.54523L735.83405 378.31085Q736.0684 377.26398 736.57623 376.62335Q737.08405 375.98273 738.045 375.63116Q739.0059 375.2796 740.2872 375.2796Q741.5528 375.2796 742.33405 375.57648Q743.1153 375.87335 743.4903 376.32648Q743.8653 376.7796 744.0059 377.4671Q744.0997 377.88898 744.0997 378.99835L744.0997 381.23273Q744.0997 383.56085 744.20123 384.17804Q744.3028 384.79523 744.6309 385.35773L742.8809 385.35773Q742.6153 384.8421 742.5528 384.13898ZM742.4122 380.42023Q741.5059 380.7796 739.6778 381.04523Q738.64655 381.18585 738.2247 381.37335Q737.8028 381.56085 737.5684 381.92023Q737.33405 382.2796 737.33405 382.7171Q737.33405 383.38898 737.84186 383.8343Q738.3497 384.2796 739.3184 384.2796Q740.2872 384.2796 741.0372 383.8499Q741.7872 383.42023 742.14655 382.70148Q742.4122 382.12335 742.4122 381.0296L742.4122 380.42023ZM750.1472 383.85773L750.3816 385.3421Q749.67847 385.48273 749.11597 385.48273Q748.2097 385.48273 747.7097 385.19366Q747.2097 384.9046 747.0066 384.44366Q746.80347 383.98273 746.80347 382.4671L746.80347 376.81085L745.5691 376.81085L745.5691 375.49835L746.80347 375.49835L746.80347 373.06085L748.4597 372.06085L748.4597 375.49835L750.1472 375.49835L750.1472 376.81085L748.4597 376.81085L748.4597 382.56085Q748.4597 383.2796 748.54565 383.48273Q748.6316 383.68585 748.8347 383.81085Q749.03784 383.93585 749.41284 383.93585Q749.67847 383.93585 750.1472 383.85773ZM758.1118 384.13898Q757.1743 384.93585 756.31494 385.25616Q755.45557 385.57648 754.4712 385.57648Q752.8618 385.57648 751.9868 384.7874Q751.1118 383.99835 751.1118 382.76398Q751.1118 382.0296 751.43994 381.43585Q751.76807 380.8421 752.2993 380.48273Q752.83057 380.12335 753.50244 379.93585Q754.00244 379.79523 754.9868 379.68585Q757.01807 379.43585 757.9712 379.10773Q757.9712 378.76398 757.9712 378.67023Q757.9712 377.6546 757.50244 377.23273Q756.8618 376.67023 755.5962 376.67023Q754.4243 376.67023 753.8618 377.07648Q753.2993 377.48273 753.0337 378.54523L751.39307 378.31085Q751.62744 377.26398 752.13525 376.62335Q752.64307 375.98273 753.604 375.63116Q754.56494 375.2796 755.8462 375.2796Q757.1118 375.2796 757.89307 375.57648Q758.6743 375.87335 759.0493 376.32648Q759.4243 376.7796 759.56494 377.4671Q759.6587 377.88898 759.6587 378.99835L759.6587 381.23273Q759.6587 383.56085 759.76025 384.17804Q759.8618 384.79523 760.18994 385.35773L758.43994 385.35773Q758.1743 384.8421 758.1118 384.13898ZM757.9712 380.42023Q757.06494 380.7796 755.2368 381.04523Q754.20557 381.18585 753.7837 381.37335Q753.3618 381.56085 753.12744 381.92023Q752.89307 382.2796 752.89307 382.7171Q752.89307 383.38898 753.4009 383.8343Q753.9087 384.2796 754.87744 384.2796Q755.8462 384.2796 756.5962 383.8499Q757.3462 383.42023 757.70557 382.70148Q757.9712 382.12335 757.9712 381.0296L757.9712 380.42023ZM763.5969 385.35773L762.05005 385.35773L762.05005 371.76398L763.7063 371.76398L763.7063 376.60773Q764.7688 375.2796 766.4094 375.2796Q767.3157 375.2796 768.1282 375.6468Q768.9407 376.01398 769.4641 376.67804Q769.98755 377.3421 770.2844 378.2796Q770.5813 379.2171 770.5813 380.2796Q770.5813 382.81085 769.3313 384.19366Q768.0813 385.57648 766.3313 385.57648Q764.5813 385.57648 763.5969 384.12335L763.5969 385.35773ZM763.5813 380.35773Q763.5813 382.12335 764.05005 382.92023Q764.8469 384.20148 766.1907 384.20148Q767.2844 384.20148 768.0813 383.25616Q768.8782 382.31085 768.8782 380.42023Q768.8782 378.49835 768.11255 377.57648Q767.3469 376.6546 766.2688 376.6546Q765.17505 376.6546 764.3782 377.60773Q763.5813 378.56085 763.5813 380.35773ZM778.8632 384.13898Q777.9257 384.93585 777.06635 385.25616Q776.207 385.57648 775.2226 385.57648Q773.6132 385.57648 772.7382 384.7874Q771.8632 383.99835 771.8632 382.76398Q771.8632 382.0296 772.19135 381.43585Q772.5195 380.8421 773.0507 380.48273Q773.582 380.12335 774.25385 379.93585Q774.75385 379.79523 775.7382 379.68585Q777.7695 379.43585 778.7226 379.10773Q778.7226 378.76398 778.7226 378.67023Q778.7226 377.6546 778.25385 377.23273Q777.6132 376.67023 776.3476 376.67023Q775.1757 376.67023 774.6132 377.07648Q774.0507 377.48273 773.7851 378.54523L772.1445 378.31085Q772.37885 377.26398 772.88666 376.62335Q773.3945 375.98273 774.3554 375.63116Q775.31635 375.2796 776.5976 375.2796Q777.8632 375.2796 778.6445 375.57648Q779.4257 375.87335 779.8007 376.32648Q780.1757 376.7796 780.31635 377.4671Q780.4101 377.88898 780.4101 378.99835L780.4101 381.23273Q780.4101 383.56085 780.51166 384.17804Q780.6132 384.79523 780.94135 385.35773L779.19135 385.35773Q778.9257 384.8421 778.8632 384.13898ZM778.7226 380.42023Q777.81635 380.7796 775.9882 381.04523Q774.957 381.18585 774.5351 381.37335Q774.1132 381.56085 773.87885 381.92023Q773.6445 382.2796 773.6445 382.7171Q773.6445 383.38898 774.1523 383.8343Q774.6601 384.2796 775.62885 384.2796Q776.5976 384.2796 777.3476 383.8499Q778.0976 383.42023 778.457 382.70148Q778.7226 382.12335 778.7226 381.0296L778.7226 380.42023ZM782.1296 382.42023L783.7858 382.1546Q783.92645 383.1546 784.55927 383.67804Q785.1921 384.20148 786.3327 384.20148Q787.48895 384.20148 788.04364 383.73273Q788.5983 383.26398 788.5983 382.63898Q788.5983 382.07648 788.11395 381.74835Q787.7702 381.5296 786.4108 381.18585Q784.5671 380.7171 783.85614 380.38116Q783.1452 380.04523 782.778 379.44366Q782.4108 378.8421 782.4108 378.12335Q782.4108 377.4671 782.7155 376.9046Q783.0202 376.3421 783.5358 375.9671Q783.92645 375.68585 784.5983 375.48273Q785.2702 375.2796 786.0358 375.2796Q787.2077 375.2796 788.0827 375.61554Q788.9577 375.95148 789.37177 376.5218Q789.7858 377.0921 789.9421 378.04523L788.3171 378.26398Q788.2077 377.51398 787.66864 377.0843Q787.1296 376.6546 786.1608 376.6546Q785.0046 376.6546 784.5202 377.0374Q784.0358 377.42023 784.0358 377.92023Q784.0358 378.24835 784.23895 378.51398Q784.4421 378.7796 784.8796 378.95148Q785.1296 379.04523 786.3483 379.38898Q788.11395 379.85773 788.8171 380.1546Q789.5202 380.45148 789.91864 381.0296Q790.3171 381.60773 790.3171 382.4671Q790.3171 383.29523 789.8327 384.0374Q789.3483 384.7796 788.42645 385.17804Q787.5046 385.57648 786.3483 385.57648Q784.42645 385.57648 783.41864 384.7796Q782.4108 383.98273 782.1296 382.42023ZM798.8796 382.18585L800.5983 382.4046Q800.1921 383.9046 799.0905 384.74054Q797.98895 385.57648 796.2702 385.57648Q794.11395 385.57648 792.8483 384.24835Q791.5827 382.92023 791.5827 380.51398Q791.5827 378.0296 792.85614 376.6546Q794.1296 375.2796 796.17645 375.2796Q798.1608 375.2796 799.4108 376.62335Q800.6608 377.9671 800.6608 380.42023Q800.6608 380.56085 800.6452 380.85773L793.30145 380.85773Q793.3952 382.48273 794.2233 383.3421Q795.05145 384.20148 796.2858 384.20148Q797.1921 384.20148 797.8405 383.7249Q798.48895 383.24835 798.8796 382.18585ZM793.3952 379.48273L798.8952 379.48273Q798.7858 378.24835 798.2702 377.62335Q797.4733 376.6546 796.1921 376.6546Q795.05145 376.6546 794.2624 377.42804Q793.4733 378.20148 793.3952 379.48273ZM811.3022 379.4046L802.3022 383.26398L802.3022 381.60773L809.4272 378.63898L802.3022 375.70148L802.3022 374.04523L811.3022 377.85773L811.3022 379.4046ZM822.19714 379.4046L813.19714 383.26398L813.19714 381.60773L820.32214 378.63898L813.19714 375.70148L813.19714 374.04523L822.19714 377.85773L822.19714 379.4046Z" fill-rule="nonzero" fill="#000000"></path><path d="M703.8389 248.41351L703.8389 246.86664L712.8389 243.05414L712.8389 244.71039L705.6983 247.64789L712.8389 250.61664L712.8389 252.27289L703.8389 248.41351ZM714.7339 248.41351L714.7339 246.86664L723.7339 243.05414L723.7339 244.71039L716.59326 247.64789L723.7339 250.61664L723.7339 252.27289L714.7339 248.41351ZM725.832 258.1479L725.832 244.50726L727.3632 244.50726L727.3632 245.78851Q727.8945 245.03851 728.57416 244.66351Q729.25385 244.28851 730.207 244.28851Q731.4726 244.28851 732.44135 244.93695Q733.4101 245.58539 733.9023 246.77289Q734.3945 247.96039 734.3945 249.36664Q734.3945 250.88226 733.8476 252.0932Q733.3007 253.30414 732.2695 253.94476Q731.2382 254.58539 730.0976 254.58539Q729.25385 254.58539 728.5898 254.23383Q727.9257 253.88226 727.50385 253.35101L727.50385 258.1479L725.832 258.1479ZM727.3476 249.49164Q727.3476 251.39789 728.12103 252.30414Q728.8945 253.21039 729.9882 253.21039Q731.0976 253.21039 731.88666 252.27289Q732.6757 251.33539 732.6757 249.35101Q732.6757 247.47601 731.9023 246.53851Q731.12885 245.60101 730.0507 245.60101Q728.9882 245.60101 728.1679 246.60101Q727.3476 247.60101 727.3476 249.49164ZM736.1921 254.36664L736.1921 244.50726L737.6921 244.50726L737.6921 246.00726Q738.2702 244.96039 738.7546 244.62445Q739.23895 244.28851 739.8327 244.28851Q740.67645 244.28851 741.55145 244.83539L740.9733 246.38226Q740.36395 246.02289 739.73895 246.02289Q739.1921 246.02289 738.7624 246.35101Q738.3327 246.67914 738.1452 247.25726Q737.86395 248.14789 737.86395 249.21039L737.86395 254.36664L736.1921 254.36664ZM741.7954 249.44476Q741.7954 246.71039 743.32666 245.38226Q744.5923 244.28851 746.4204 244.28851Q748.45166 244.28851 749.7407 245.62445Q751.0298 246.96039 751.0298 249.30414Q751.0298 251.21039 750.4595 252.29633Q749.88916 253.38226 748.8032 253.98383Q747.7173 254.58539 746.4204 254.58539Q744.3579 254.58539 743.07666 253.25726Q741.7954 251.92914 741.7954 249.44476ZM743.51416 249.44476Q743.51416 251.33539 744.3423 252.27289Q745.1704 253.21039 746.4204 253.21039Q747.6704 253.21039 748.4907 252.26508Q749.31104 251.31976 749.31104 249.38226Q749.31104 247.55414 748.4829 246.61664Q747.6548 245.67914 746.4204 245.67914Q745.1704 245.67914 744.3423 246.61664Q743.51416 247.55414 743.51416 249.44476ZM759.2336 250.75726L760.8742 250.97601Q760.6086 252.66351 759.4992 253.62445Q758.38983 254.58539 756.76483 254.58539Q754.7492 254.58539 753.52264 253.26508Q752.2961 251.94476 752.2961 249.47601Q752.2961 247.88226 752.8195 246.68695Q753.34296 245.49164 754.4289 244.89008Q755.51483 244.28851 756.78046 244.28851Q758.38983 244.28851 759.40546 245.10101Q760.4211 245.91351 760.71796 247.41351L759.09296 247.66351Q758.8586 246.66351 758.26483 246.16351Q757.6711 245.66351 756.84296 245.66351Q755.57733 245.66351 754.78827 246.56976Q753.9992 247.47601 753.9992 249.42914Q753.9992 251.41351 754.76483 252.31195Q755.53046 253.21039 756.7492 253.21039Q757.7336 253.21039 758.38983 252.60883Q759.0461 252.00726 759.2336 250.75726ZM768.8742 251.19476L770.59296 251.41351Q770.1867 252.91351 769.08514 253.74945Q767.9836 254.58539 766.26483 254.58539Q764.1086 254.58539 762.84296 253.25726Q761.57733 251.92914 761.57733 249.52289Q761.57733 247.03851 762.85077 245.66351Q764.1242 244.28851 766.1711 244.28851Q768.15546 244.28851 769.40546 245.63226Q770.65546 246.97601 770.65546 249.42914Q770.65546 249.56976 770.63983 249.86664L763.2961 249.86664Q763.38983 251.49164 764.21796 252.35101Q765.0461 253.21039 766.28046 253.21039Q767.1867 253.21039 767.83514 252.73383Q768.4836 252.25726 768.8742 251.19476ZM763.38983 248.49164L768.88983 248.49164Q768.78046 247.25726 768.26483 246.63226Q767.46796 245.66351 766.1867 245.66351Q765.0461 245.66351 764.257 246.43695Q763.46796 247.21039 763.38983 248.49164ZM771.82806 251.42914L773.4843 251.16351Q773.62494 252.16351 774.25775 252.68695Q774.89056 253.21039 776.0312 253.21039Q777.18744 253.21039 777.7421 252.74164Q778.2968 252.27289 778.2968 251.64789Q778.2968 251.08539 777.81244 250.75726Q777.4687 250.53851 776.1093 250.19476Q774.26556 249.72601 773.5546 249.39008Q772.8437 249.05414 772.4765 248.45258Q772.1093 247.85101 772.1093 247.13226Q772.1093 246.47601 772.414 245.91351Q772.7187 245.35101 773.2343 244.97601Q773.62494 244.69476 774.2968 244.49164Q774.9687 244.28851 775.7343 244.28851Q776.9062 244.28851 777.7812 244.62445Q778.6562 244.96039 779.07025 245.5307Q779.4843 246.10101 779.64056 247.05414L778.01556 247.27289Q777.9062 246.52289 777.3671 246.0932Q776.82806 245.66351 775.8593 245.66351Q774.70306 245.66351 774.2187 246.04633Q773.7343 246.42914 773.7343 246.92914Q773.7343 247.25726 773.93744 247.52289Q774.14056 247.78851 774.57806 247.96039Q774.82806 248.05414 776.0468 248.39789Q777.81244 248.86664 778.51556 249.16351Q779.2187 249.46039 779.6171 250.03851Q780.01556 250.61664 780.01556 251.47601Q780.01556 252.30414 779.5312 253.04633Q779.0468 253.78851 778.12494 254.18695Q777.20306 254.58539 776.0468 254.58539Q774.12494 254.58539 773.1171 253.78851Q772.1093 252.99164 771.82806 251.42914ZM781.1562 251.42914L782.81244 251.16351Q782.95306 252.16351 783.5859 252.68695Q784.2187 253.21039 785.3593 253.21039Q786.51556 253.21039 787.07025 252.74164Q787.62494 252.27289 787.62494 251.64789Q787.62494 251.08539 787.14056 250.75726Q786.7968 250.53851 785.43744 250.19476Q783.5937 249.72601 782.88275 249.39008Q782.1718 249.05414 781.8046 248.45258Q781.43744 247.85101 781.43744 247.13226Q781.43744 246.47601 781.7421 245.91351Q782.0468 245.35101 782.56244 244.97601Q782.95306 244.69476 783.62494 244.49164Q784.2968 244.28851 785.06244 244.28851Q786.2343 244.28851 787.1093 244.62445Q787.9843 244.96039 788.3984 245.5307Q788.81244 246.10101 788.9687 247.05414L787.3437 247.27289Q787.2343 246.52289 786.69525 246.0932Q786.1562 245.66351 785.18744 245.66351Q784.0312 245.66351 783.5468 246.04633Q783.06244 246.42914 783.06244 246.92914Q783.06244 247.25726 783.26556 247.52289Q783.4687 247.78851 783.9062 247.96039Q784.1562 248.05414 785.37494 248.39789Q787.14056 248.86664 787.8437 249.16351Q788.5468 249.46039 788.94525 250.03851Q789.3437 250.61664 789.3437 251.47601Q789.3437 252.30414 788.8593 253.04633Q788.37494 253.78851 787.45306 254.18695Q786.5312 254.58539 785.37494 254.58539Q783.45306 254.58539 782.44525 253.78851Q781.43744 252.99164 781.1562 251.42914ZM799.95306 248.41351L790.95306 252.27289L790.95306 250.61664L798.07806 247.64789L790.95306 244.71039L790.95306 243.05414L799.95306 246.86664L799.95306 248.41351ZM810.848 248.41351L801.848 252.27289L801.848 250.61664L808.973 247.64789L801.848 244.71039L801.848 243.05414L810.848 246.86664L810.848 248.41351Z" fill-rule="nonzero" fill="#000000"></path><path d="M729.9354 267.86664L729.9354 265.9604L731.8417 265.9604L731.8417 267.86664L729.9354 267.86664ZM729.9354 275.81976L729.9354 273.9135L731.8417 273.9135L731.8417 275.81976L729.9354 275.81976ZM734.64996 279.601L734.64996 265.9604L736.1812 265.9604L736.1812 267.24164Q736.71246 266.49164 737.39215 266.11664Q738.07184 265.74164 739.02496 265.74164Q740.2906 265.74164 741.25934 266.39008Q742.2281 267.0385 742.7203 268.226Q743.21246 269.4135 743.21246 270.81976Q743.21246 272.3354 742.6656 273.54633Q742.1187 274.75726 741.08746 275.3979Q740.0562 276.0385 738.9156 276.0385Q738.07184 276.0385 737.4078 275.68695Q736.7437 275.3354 736.32184 274.80414L736.32184 279.601L734.64996 279.601ZM736.1656 270.94476Q736.1656 272.851 736.939 273.75726Q737.71246 274.6635 738.8062 274.6635Q739.9156 274.6635 740.70465 273.726Q741.4937 272.7885 741.4937 270.80414Q741.4937 268.92914 740.7203 267.99164Q739.94684 267.05414 738.8687 267.05414Q737.8062 267.05414 736.9859 268.05414Q736.1656 269.05414 736.1656 270.94476ZM747.7601 275.81976L744.0101 265.9604L745.7757 265.9604L747.9007 271.86664Q748.24445 272.81976 748.5257 273.851Q748.74445 273.06976 749.1507 271.976L751.3382 265.9604L753.05695 265.9604L749.3226 275.81976L747.7601 275.81976ZM754.86945 275.81976L754.86945 262.226L756.68195 262.226L756.68195 275.81976L754.86945 275.81976ZM759.209 269.19476Q759.209 265.80414 761.0293 263.89008Q762.8496 261.976 765.7246 261.976Q767.5996 261.976 769.11523 262.87445Q770.63086 263.7729 771.4199 265.38226Q772.209 266.99164 772.209 269.0385Q772.209 271.101 771.37305 272.73383Q770.5371 274.36664 769.00586 275.2104Q767.4746 276.05414 765.709 276.05414Q763.7871 276.05414 762.2793 275.12445Q760.7715 274.19476 759.99023 272.5932Q759.209 270.99164 759.209 269.19476ZM761.06836 269.226Q761.06836 271.67914 762.3887 273.0932Q763.709 274.50726 765.69336 274.50726Q767.7246 274.50726 769.0371 273.07758Q770.3496 271.6479 770.3496 269.0229Q770.3496 267.36664 769.7949 266.13226Q769.24023 264.8979 768.1543 264.2104Q767.06836 263.5229 765.7246 263.5229Q763.81836 263.5229 762.44336 264.8354Q761.06836 266.1479 761.06836 269.226ZM783.97046 271.05414L785.76733 271.50726Q785.20483 273.726 783.7361 274.89008Q782.26733 276.05414 780.14233 276.05414Q777.9392 276.05414 776.5642 275.1557Q775.1892 274.25726 774.47046 272.56195Q773.7517 270.86664 773.7517 268.9135Q773.7517 266.7885 774.5564 265.2104Q775.3611 263.63226 776.8611 262.81195Q778.3611 261.99164 780.15796 261.99164Q782.20483 261.99164 783.59546 263.0307Q784.9861 264.06976 785.53296 265.94476L783.76733 266.36664Q783.2986 264.88226 782.39233 264.20258Q781.4861 263.5229 780.1267 263.5229Q778.5642 263.5229 777.5095 264.2729Q776.45483 265.0229 776.02515 266.29633Q775.59546 267.56976 775.59546 268.9135Q775.59546 270.6479 776.1033 271.93695Q776.6111 273.226 777.6814 273.86664Q778.7517 274.50726 779.9861 274.50726Q781.5017 274.50726 782.5486 273.64008Q783.59546 272.7729 783.97046 271.05414Z" fill-rule="nonzero" fill="#000000"></path></svg>

