<?xml version="1.0" standalone="yes"?>

<svg version="1.1" viewBox="0.0 0.0 564.0 323.0" fill="none" stroke="none" stroke-linecap="square" stroke-miterlimit="10" clip-path="url(#p.0)" xmlns="http://www.w3.org/2000/svg" xmlns:xlink="http://www.w3.org/1999/xlink"><clipPath id="p.0"><path d="M0 0L564.0 0L564.0 323.0L0 323.0L0 0Z" clip-rule="nonzero"></path></clipPath><path d="M190.66698 41.170834L184.03409 34.537956L33.060677 34.537956L33.060677 117.95232L39.693554 124.5852L190.66698 124.5852ZM190.66698 41.170834L39.693554 41.170834L33.060677 34.537956M39.693554 41.170834L39.693554 124.5852" fill-rule="nonzero" stroke="#000000" stroke-width="2.0" stroke-linejoin="round" stroke-linecap="butt"></path><path d="M59.178913 72.3624L59.178913 70.81552L68.17892 67.00302L68.17892 68.65927L61.03829 71.59677L68.17892 74.56552L68.17892 76.22177L59.178913 72.3624ZM70.073875 72.3624L70.073875 70.81552L79.073875 67.00302L79.073875 68.65927L71.93325 71.59677L79.073875 74.56552L79.073875 76.22177L70.073875 72.3624ZM81.17196 78.31552L81.17196 68.45615L82.67196 68.45615L82.67196 69.84677Q83.125084 69.12802 83.89852 68.68271Q84.67196 68.2374 85.656334 68.2374Q86.750084 68.2374 87.45321 68.69052Q88.156334 69.14365 88.437584 69.97177Q89.60946 68.2374 91.48446 68.2374Q92.95321 68.2374 93.74227 69.0499Q94.531334 69.8624 94.531334 71.5499L94.531334 78.31552L92.85946 78.31552L92.85946 72.1124Q92.85946 71.1124 92.70321 70.66708Q92.54696 70.22177 92.11727 69.95615Q91.687584 69.69052 91.10946 69.69052Q90.07821 69.69052 89.39071 70.37802Q88.70321 71.06552 88.70321 72.59677L88.70321 78.31552L87.031334 78.31552L87.031334 71.90927Q87.031334 70.7999 86.625084 70.24521Q86.218834 69.69052 85.281334 69.69052Q84.57821 69.69052 83.97665 70.05771Q83.375084 70.4249 83.10946 71.14365Q82.843834 71.8624 82.843834 73.20615L82.843834 78.31552L81.17196 78.31552ZM103.15026 77.09677Q102.21276 77.89365 101.353386 78.21396Q100.49401 78.53427 99.509636 78.53427Q97.90026 78.53427 97.02526 77.74521Q96.15026 76.95615 96.15026 75.72177Q96.15026 74.9874 96.478386 74.39365Q96.80651 73.7999 97.33776 73.44052Q97.86901 73.08115 98.540886 72.89365Q99.040886 72.75302 100.02526 72.64365Q102.05651 72.39365 103.009636 72.06552Q103.009636 71.72177 103.009636 71.62802Q103.009636 70.6124 102.540886 70.19052Q101.90026 69.62802 100.634636 69.62802Q99.46276 69.62802 98.90026 70.03427Q98.33776 70.44052 98.072136 71.50302L96.43151 71.26865Q96.665886 70.22177 97.1737 69.58115Q97.68151 68.94052 98.64245 68.58896Q99.603386 68.2374 100.884636 68.2374Q102.15026 68.2374 102.93151 68.53427Q103.71276 68.83115 104.08776 69.28427Q104.46276 69.7374 104.603386 70.4249Q104.697136 70.84677 104.697136 71.95615L104.697136 74.19052Q104.697136 76.51865 104.7987 77.13583Q104.90026 77.75302 105.228386 78.31552L103.478386 78.31552Q103.21276 77.7999 103.15026 77.09677ZM103.009636 73.37802Q102.103386 73.7374 100.27526 74.00302Q99.24401 74.14365 98.822136 74.33115Q98.40026 74.51865 98.165886 74.87802Q97.93151 75.2374 97.93151 75.6749Q97.93151 76.34677 98.43932 76.79208Q98.947136 77.2374 99.915886 77.2374Q100.884636 77.2374 101.634636 76.80771Q102.384636 76.37802 102.74401 75.65927Q103.009636 75.08115 103.009636 73.9874L103.009636 73.37802ZM113.52598 74.70615L115.1666 74.9249Q114.90098 76.6124 113.7916 77.57333Q112.68223 78.53427 111.05723 78.53427Q109.0416 78.53427 107.81504 77.21396Q106.58848 75.89365 106.58848 73.4249Q106.58848 71.83115 107.111916 70.63583Q107.63535 69.44052 108.72129 68.83896Q109.80723 68.2374 111.07285 68.2374Q112.68223 68.2374 113.69785 69.0499Q114.71348 69.8624 115.01035 71.3624L113.38535 71.6124Q113.15098 70.6124 112.55723 70.1124Q111.96348 69.6124 111.13535 69.6124Q109.86973 69.6124 109.080666 70.51865Q108.2916 71.4249 108.2916 73.37802Q108.2916 75.3624 109.05723 76.26083Q109.82285 77.15927 111.0416 77.15927Q112.02598 77.15927 112.68223 76.55771Q113.33848 75.95615 113.52598 74.70615ZM116.4166 78.31552L116.4166 64.72177L118.08848 64.72177L118.08848 69.59677Q119.26035 68.2374 121.0416 68.2374Q122.13535 68.2374 122.94004 68.66708Q123.74473 69.09677 124.09629 69.8624Q124.44785 70.62802 124.44785 72.06552L124.44785 78.31552L122.77598 78.31552L122.77598 72.06552Q122.77598 70.81552 122.2291 70.24521Q121.68223 69.6749 120.69785 69.6749Q119.94785 69.6749 119.299416 70.05771Q118.65098 70.44052 118.36973 71.10458Q118.08848 71.76865 118.08848 72.9249L118.08848 78.31552L116.4166 78.31552ZM126.807945 66.62802L126.807945 64.72177L128.47981 64.72177L128.47981 66.62802L126.807945 66.62802ZM126.807945 78.31552L126.807945 68.45615L128.47981 68.45615L128.47981 78.31552L126.807945 78.31552ZM130.93713 78.31552L130.93713 68.45615L132.43713 68.45615L132.43713 69.8624Q133.53088 68.2374 135.57776 68.2374Q136.46838 68.2374 137.21838 68.55771Q137.96838 68.87802 138.33557 69.40146Q138.70276 69.9249 138.85901 70.62802Q138.95276 71.09677 138.95276 72.25302L138.95276 78.31552L137.28088 78.31552L137.28088 72.31552Q137.28088 71.2999 137.08557 70.79208Q136.89026 70.28427 136.39026 69.9874Q135.89026 69.69052 135.21838 69.69052Q134.15588 69.69052 133.38245 70.3624Q132.60901 71.03427 132.60901 72.94052L132.60901 78.31552L130.93713 78.31552ZM148.06285 75.14365L149.7816 75.3624Q149.37535 76.8624 148.27379 77.69833Q147.17223 78.53427 145.45348 78.53427Q143.29723 78.53427 142.0316 77.20615Q140.76598 75.87802 140.76598 73.47177Q140.76598 70.9874 142.03941 69.6124Q143.31285 68.2374 145.35973 68.2374Q147.3441 68.2374 148.5941 69.58115Q149.8441 70.9249 149.8441 73.37802Q149.8441 73.51865 149.82848 73.81552L142.48473 73.81552Q142.57848 75.44052 143.4066 76.2999Q144.23473 77.15927 145.4691 77.15927Q146.37535 77.15927 147.02379 76.68271Q147.67223 76.20615 148.06285 75.14365ZM142.57848 72.44052L148.07848 72.44052Q147.9691 71.20615 147.45348 70.58115Q146.6566 69.6124 145.37535 69.6124Q144.23473 69.6124 143.44566 70.38583Q142.6566 71.15927 142.57848 72.44052ZM160.48544 72.3624L151.48544 76.22177L151.48544 74.56552L158.61044 71.59677L151.48544 68.65927L151.48544 67.00302L160.48544 70.81552L160.48544 72.3624ZM171.38042 72.3624L162.3804 76.22177L162.3804 74.56552L169.50542 71.59677L162.3804 68.65927L162.3804 67.00302L171.38042 70.81552L171.38042 72.3624Z" fill-rule="nonzero" fill="#000000"></path><path d="M76.97665 91.81552L76.97665 89.90927L78.8829 89.90927L78.8829 91.81552L76.97665 91.81552ZM76.97665 99.76865L76.97665 97.8624L78.8829 97.8624L78.8829 99.76865L76.97665 99.76865ZM81.675575 99.76865L81.675575 89.90927L83.175575 89.90927L83.175575 91.40927Q83.7537 90.3624 84.238075 90.02646Q84.72245 89.69052 85.3162 89.69052Q86.15995 89.69052 87.03495 90.2374L86.456825 91.78427Q85.84745 91.4249 85.22245 91.4249Q84.675575 91.4249 84.24589 91.75302Q83.8162 92.08115 83.6287 92.65927Q83.34745 93.5499 83.34745 94.6124L83.34745 99.76865L81.675575 99.76865ZM94.2945 99.76865L94.2945 98.51865Q93.357 99.9874 91.5445 99.9874Q90.37263 99.9874 89.38044 99.33896Q88.38825 98.69052 87.84919 97.52646Q87.31013 96.3624 87.31013 94.84677Q87.31013 93.37802 87.802315 92.1749Q88.2945 90.97177 89.271065 90.33115Q90.24763 89.69052 91.46638 89.69052Q92.357 89.69052 93.052315 90.06552Q93.74763 90.44052 94.18513 91.0499L94.18513 86.1749L95.84138 86.1749L95.84138 99.76865L94.2945 99.76865ZM89.01325 94.84677Q89.01325 96.7374 89.81794 97.6749Q90.62263 98.6124 91.70075 98.6124Q92.7945 98.6124 93.56013 97.72177Q94.32575 96.83115 94.32575 94.9874Q94.32575 92.97177 93.5445 92.02646Q92.76325 91.08115 91.62263 91.08115Q90.51325 91.08115 89.76325 91.9874Q89.01325 92.89365 89.01325 94.84677ZM99.82647 99.76865L98.279594 99.76865L98.279594 86.1749L99.935844 86.1749L99.935844 91.01865Q100.998344 89.69052 102.63897 89.69052Q103.54522 89.69052 104.35772 90.05771Q105.17022 90.4249 105.69366 91.08896Q106.217094 91.75302 106.51397 92.69052Q106.810844 93.62802 106.810844 94.69052Q106.810844 97.22177 105.560844 98.60458Q104.310844 99.9874 102.560844 99.9874Q100.810844 99.9874 99.82647 98.53427L99.82647 99.76865ZM99.810844 94.76865Q99.810844 96.53427 100.279594 97.33115Q101.07647 98.6124 102.42022 98.6124Q103.51397 98.6124 104.310844 97.66708Q105.10772 96.72177 105.10772 94.83115Q105.10772 92.90927 104.342094 91.9874Q103.57647 91.06552 102.498344 91.06552Q101.404594 91.06552 100.60772 92.01865Q99.810844 92.97177 99.810844 94.76865ZM118.57719 95.00302L120.37406 95.45615Q119.81156 97.6749 118.34281 98.83896Q116.87406 100.00302 114.74906 100.00302Q112.54594 100.00302 111.17094 99.10458Q109.79594 98.20615 109.07719 96.51083Q108.35844 94.81552 108.35844 92.8624Q108.35844 90.7374 109.163124 89.15927Q109.96781 87.58115 111.46781 86.76083Q112.96781 85.94052 114.76469 85.94052Q116.81156 85.94052 118.20219 86.97958Q119.59281 88.01865 120.13969 89.89365L118.37406 90.31552Q117.90531 88.83115 116.99906 88.15146Q116.09281 87.47177 114.73344 87.47177Q113.17094 87.47177 112.11625 88.22177Q111.06156 88.97177 110.631874 90.24521Q110.20219 91.51865 110.20219 92.8624Q110.20219 94.59677 110.71 95.88583Q111.21781 97.1749 112.288124 97.81552Q113.35844 98.45615 114.59281 98.45615Q116.10844 98.45615 117.15531 97.58896Q118.20219 96.72177 118.57719 95.00302ZM122.09701 99.76865L122.09701 86.1749L123.76888 86.1749L123.76888 99.76865L122.09701 99.76865ZM126.288704 88.08115L126.288704 86.1749L127.96058 86.1749L127.96058 88.08115L126.288704 88.08115ZM126.288704 99.76865L126.288704 89.90927L127.96058 89.90927L127.96058 99.76865L126.288704 99.76865ZM137.1679 96.59677L138.88664 96.81552Q138.4804 98.31552 137.37883 99.15146Q136.27727 99.9874 134.55852 99.9874Q132.40227 99.9874 131.13664 98.65927Q129.87102 97.33115 129.87102 94.9249Q129.87102 92.44052 131.14445 91.06552Q132.4179 89.69052 134.46477 89.69052Q136.44914 89.69052 137.69914 91.03427Q138.94914 92.37802 138.94914 94.83115Q138.94914 94.97177 138.93352 95.26865L131.58977 95.26865Q131.68352 96.89365 132.51164 97.75302Q133.33977 98.6124 134.57414 98.6124Q135.4804 98.6124 136.12883 98.13583Q136.77727 97.65927 137.1679 96.59677ZM131.68352 93.89365L137.18352 93.89365Q137.07414 92.65927 136.55852 92.03427Q135.76164 91.06552 134.4804 91.06552Q133.33977 91.06552 132.5507 91.83896Q131.76164 92.6124 131.68352 93.89365ZM140.79361 99.76865L140.79361 89.90927L142.29361 89.90927L142.29361 91.31552Q143.38736 89.69052 145.43423 89.69052Q146.32486 89.69052 147.07486 90.01083Q147.82486 90.33115 148.19205 90.85458Q148.55923 91.37802 148.71548 92.08115Q148.80923 92.5499 148.80923 93.70615L148.80923 99.76865L147.13736 99.76865L147.13736 93.76865Q147.13736 92.75302 146.94205 92.24521Q146.74673 91.7374 146.24673 91.44052Q145.74673 91.14365 145.07486 91.14365Q144.01236 91.14365 143.23892 91.81552Q142.46548 92.4874 142.46548 94.39365L142.46548 99.76865L140.79361 99.76865ZM154.82558 98.26865L155.05995 99.75302Q154.35683 99.89365 153.79433 99.89365Q152.88808 99.89365 152.38808 99.60458Q151.88808 99.31552 151.68495 98.85458Q151.48183 98.39365 151.48183 96.87802L151.48183 91.22177L150.24745 91.22177L150.24745 89.90927L151.48183 89.90927L151.48183 87.47177L153.13808 86.47177L153.13808 89.90927L154.82558 89.90927L154.82558 91.22177L153.13808 91.22177L153.13808 96.97177Q153.13808 97.69052 153.22401 97.89365Q153.30995 98.09677 153.51308 98.22177Q153.7162 98.34677 154.0912 98.34677Q154.35683 98.34677 154.82558 98.26865Z" fill-rule="nonzero" fill="#000000"></path><path d="M204.67017 54.515083L204.67017 53.43696L210.82642 50.84321L210.82642 51.96821L205.93579 53.983833L210.82642 55.99946L210.82642 57.140083L204.67017 54.515083ZM212.45358 54.515083L212.45358 53.43696L218.60983 50.84321L218.60983 51.96821L213.71921 53.983833L218.60983 55.99946L218.60983 57.140083L212.45358 54.515083ZM220.37762 61.15571L220.37762 51.84321L221.40887 51.84321L221.40887 52.71821Q221.78387 52.202583 222.24481 51.94477Q222.70575 51.68696 223.37762 51.68696Q224.237 51.68696 224.89325 52.13227Q225.5495 52.577583 225.88544 53.38227Q226.22137 54.18696 226.22137 55.15571Q226.22137 56.18696 225.85419 57.015083Q225.487 57.84321 224.77606 58.28852Q224.06512 58.733833 223.28387 58.733833Q222.72137 58.733833 222.26825 58.491646Q221.81512 58.24946 221.51825 57.87446L221.51825 61.15571L220.37762 61.15571ZM221.40887 55.24946Q221.40887 56.546333 221.94012 57.171333Q222.47137 57.796333 223.20575 57.796333Q223.97137 57.796333 224.51825 57.147896Q225.06512 56.49946 225.06512 55.15571Q225.06512 53.858833 224.53387 53.21821Q224.00262 52.577583 223.26825 52.577583Q222.53387 52.577583 221.97137 53.25727Q221.40887 53.93696 221.40887 55.24946ZM229.6651 58.577583L227.1026 51.84321L228.30573 51.84321L229.74323 55.87446Q229.9776 56.53071 230.18073 57.233833Q230.33698 56.702583 230.6026 55.952583L232.1026 51.84321L233.27448 51.84321L230.7276 58.577583L229.6651 58.577583ZM233.57916 58.577583L237.15729 49.265083L238.46979 49.265083L242.28229 58.577583L240.87604 58.577583L239.79791 55.765083L235.90729 55.765083L234.87604 58.577583L233.57916 58.577583ZM236.26666 54.74946L239.42291 54.74946L238.43854 52.171333Q238.00104 50.99946 237.78229 50.24946Q237.61041 51.140083 237.28229 52.03071L236.26666 54.74946ZM247.73454 56.108833L248.85954 56.24946Q248.68767 57.421333 247.92204 58.077583Q247.15642 58.733833 246.06267 58.733833Q244.67204 58.733833 243.8361 57.827583Q243.00017 56.921333 243.00017 55.233833Q243.00017 54.140083 243.35954 53.31977Q243.71892 52.49946 244.4533 52.09321Q245.18767 51.68696 246.06267 51.68696Q247.15642 51.68696 247.85954 52.241646Q248.56267 52.796333 248.75017 53.81196L247.6408 53.983833Q247.48454 53.31196 247.0861 52.96821Q246.68767 52.62446 246.10954 52.62446Q245.25017 52.62446 244.7111 53.241646Q244.17204 53.858833 244.17204 55.202583Q244.17204 56.56196 244.68767 57.179146Q245.2033 57.796333 246.04704 57.796333Q246.71892 57.796333 247.17204 57.38227Q247.62517 56.96821 247.73454 56.108833ZM254.3986 56.108833L255.5236 56.24946Q255.35173 57.421333 254.5861 58.077583Q253.82048 58.733833 252.72673 58.733833Q251.3361 58.733833 250.50017 57.827583Q249.66423 56.921333 249.66423 55.233833Q249.66423 54.140083 250.0236 53.31977Q250.38298 52.49946 251.11736 52.09321Q251.85173 51.68696 252.72673 51.68696Q253.82048 51.68696 254.5236 52.241646Q255.22673 52.796333 255.41423 53.81196L254.30486 53.983833Q254.1486 53.31196 253.75017 52.96821Q253.35173 52.62446 252.7736 52.62446Q251.91423 52.62446 251.37517 53.241646Q250.8361 53.858833 250.8361 55.202583Q250.8361 56.56196 251.35173 57.179146Q251.86736 57.796333 252.7111 57.796333Q253.38298 57.796333 253.8361 57.38227Q254.28923 56.96821 254.3986 56.108833ZM261.2814 56.40571L262.4689 56.546333Q262.18765 57.59321 261.42984 58.16352Q260.67203 58.733833 259.50015 58.733833Q258.01578 58.733833 257.1486 57.81977Q256.2814 56.90571 256.2814 55.265083Q256.2814 53.56196 257.1642 52.62446Q258.04703 51.68696 259.43765 51.68696Q260.79703 51.68696 261.6486 52.608833Q262.50015 53.53071 262.50015 55.18696Q262.50015 55.296333 262.50015 55.49946L257.4689 55.49946Q257.5314 56.608833 258.0939 57.202583Q258.6564 57.796333 259.50015 57.796333Q260.14078 57.796333 260.5861 57.460396Q261.0314 57.12446 261.2814 56.40571ZM257.5314 54.56196L261.29703 54.56196Q261.2189 53.702583 260.85953 53.28071Q260.31265 52.62446 259.45328 52.62446Q258.6564 52.62446 258.12515 53.147896Q257.5939 53.671333 257.5314 54.56196ZM263.63138 56.56196L264.75638 56.390083Q264.85013 57.06196 265.28763 57.429146Q265.72513 57.796333 266.50638 57.796333Q267.28763 57.796333 267.67044 57.47602Q268.05325 57.15571 268.05325 56.71821Q268.05325 56.327583 267.7095 56.108833Q267.47513 55.952583 266.53763 55.71821Q265.28763 55.40571 264.80325 55.171333Q264.31888 54.93696 264.06888 54.53071Q263.81888 54.12446 263.81888 53.62446Q263.81888 53.171333 264.022 52.78852Q264.22513 52.40571 264.5845 52.15571Q264.85013 51.952583 265.31107 51.81977Q265.772 51.68696 266.30325 51.68696Q267.0845 51.68696 267.68607 51.91352Q268.28763 52.140083 268.5767 52.53071Q268.86575 52.921333 268.97513 53.577583L267.85013 53.733833Q267.772 53.202583 267.41263 52.91352Q267.05325 52.62446 266.38138 52.62446Q265.60013 52.62446 265.25638 52.88227Q264.91263 53.140083 264.91263 53.49946Q264.91263 53.71821 265.05325 53.890083Q265.19388 54.077583 265.49075 54.202583Q265.66263 54.265083 266.50638 54.483833Q267.72513 54.81196 268.2017 55.015083Q268.67825 55.21821 268.9517 55.616646Q269.22513 56.015083 269.22513 56.59321Q269.22513 57.171333 268.8892 57.671333Q268.55325 58.171333 267.92825 58.452583Q267.30325 58.733833 266.50638 58.733833Q265.19388 58.733833 264.50638 58.18696Q263.81888 57.640083 263.63138 56.56196ZM270.29544 56.56196L271.42044 56.390083Q271.5142 57.06196 271.9517 57.429146Q272.3892 57.796333 273.17044 57.796333Q273.9517 57.796333 274.3345 57.47602Q274.71732 57.15571 274.71732 56.71821Q274.71732 56.327583 274.37357 56.108833Q274.1392 55.952583 273.2017 55.71821Q271.9517 55.40571 271.46732 55.171333Q270.98294 54.93696 270.73294 54.53071Q270.48294 54.12446 270.48294 53.62446Q270.48294 53.171333 270.68607 52.78852Q270.8892 52.40571 271.24857 52.15571Q271.5142 51.952583 271.97513 51.81977Q272.43607 51.68696 272.96732 51.68696Q273.74857 51.68696 274.35013 51.91352Q274.9517 52.140083 275.24075 52.53071Q275.52982 52.921333 275.6392 53.577583L274.5142 53.733833Q274.43607 53.202583 274.0767 52.91352Q273.71732 52.62446 273.04544 52.62446Q272.2642 52.62446 271.92044 52.88227Q271.5767 53.140083 271.5767 53.49946Q271.5767 53.71821 271.71732 53.890083Q271.85794 54.077583 272.15482 54.202583Q272.3267 54.265083 273.17044 54.483833Q274.3892 54.81196 274.86575 55.015083Q275.34232 55.21821 275.61575 55.616646Q275.8892 56.015083 275.8892 56.59321Q275.8892 57.171333 275.55325 57.671333Q275.21732 58.171333 274.59232 58.452583Q273.96732 58.733833 273.17044 58.733833Q271.85794 58.733833 271.17044 58.18696Q270.48294 57.640083 270.29544 56.56196ZM283.42825 54.515083L277.272 57.140083L277.272 55.99946L282.147 53.983833L277.272 51.96821L277.272 50.84321L283.42825 53.43696L283.42825 54.515083ZM291.21167 54.515083L285.05542 57.140083L285.05542 55.99946L289.93042 53.983833L285.05542 51.96821L285.05542 50.84321L291.21167 53.43696L291.21167 54.515083Z" fill-rule="nonzero" fill="#000000"></path><path d="M190.66698 82.87801L305.40454 82.87801" fill-rule="nonzero" stroke="#000000" stroke-width="2.0" stroke-linejoin="round" stroke-linecap="butt"></path><path d="M456.37796 168.63496L449.7451 162.00209L298.77167 162.00209L298.77167 245.41646L305.40454 252.04933L456.37796 252.04933ZM456.37796 168.63496L305.40454 168.63496L298.77167 162.00209M305.40454 168.63496L305.40454 252.04933" fill-rule="nonzero" stroke="#000000" stroke-width="2.0" stroke-linejoin="round" stroke-linecap="butt"></path><path d="M324.8899 199.82652L324.8899 198.27965L333.8899 194.46715L333.8899 196.1234L326.74927 199.0609L333.8899 202.02965L333.8899 203.6859L324.8899 199.82652ZM335.78485 199.82652L335.78485 198.27965L344.78485 194.46715L344.78485 196.1234L337.64423 199.0609L344.78485 202.02965L344.78485 203.6859L335.78485 199.82652ZM346.88293 205.77965L346.88293 195.92027L348.38293 195.92027L348.38293 197.3109Q348.83606 196.59215 349.6095 196.14684Q350.38293 195.70152 351.3673 195.70152Q352.46106 195.70152 353.16418 196.15465Q353.8673 196.60777 354.14856 197.4359Q355.32043 195.70152 357.19543 195.70152Q358.66418 195.70152 359.45325 196.51402Q360.2423 197.32652 360.2423 199.01402L360.2423 205.77965L358.57043 205.77965L358.57043 199.57652Q358.57043 198.57652 358.41418 198.13121Q358.25793 197.6859 357.82825 197.42027Q357.39856 197.15465 356.82043 197.15465Q355.78918 197.15465 355.10168 197.84215Q354.41418 198.52965 354.41418 200.0609L354.41418 205.77965L352.7423 205.77965L352.7423 199.3734Q352.7423 198.26402 352.33606 197.70934Q351.9298 197.15465 350.9923 197.15465Q350.28918 197.15465 349.68762 197.52184Q349.08606 197.88902 348.82043 198.60777Q348.5548 199.32652 348.5548 200.67027L348.5548 205.77965L346.88293 205.77965ZM368.86124 204.5609Q367.92374 205.35777 367.06436 205.67809Q366.205 205.9984 365.2206 205.9984Q363.61124 205.9984 362.73624 205.20934Q361.86124 204.42027 361.86124 203.1859Q361.86124 202.45152 362.18936 201.85777Q362.5175 201.26402 363.04874 200.90465Q363.58 200.54527 364.25186 200.35777Q364.75186 200.21715 365.73624 200.10777Q367.7675 199.85777 368.7206 199.52965Q368.7206 199.1859 368.7206 199.09215Q368.7206 198.07652 368.25186 197.65465Q367.61124 197.09215 366.3456 197.09215Q365.17374 197.09215 364.61124 197.4984Q364.04874 197.90465 363.7831 198.96715L362.1425 198.73277Q362.37686 197.6859 362.88467 197.04527Q363.3925 196.40465 364.35342 196.05309Q365.31436 195.70152 366.5956 195.70152Q367.86124 195.70152 368.6425 195.9984Q369.42374 196.29527 369.79874 196.7484Q370.17374 197.20152 370.31436 197.88902Q370.4081 198.3109 370.4081 199.42027L370.4081 201.65465Q370.4081 203.98277 370.50967 204.59996Q370.61124 205.21715 370.93936 205.77965L369.18936 205.77965Q368.92374 205.26402 368.86124 204.5609ZM368.7206 200.84215Q367.81436 201.20152 365.98624 201.46715Q364.955 201.60777 364.5331 201.79527Q364.11124 201.98277 363.87686 202.34215Q363.6425 202.70152 363.6425 203.13902Q363.6425 203.8109 364.1503 204.25621Q364.6581 204.70152 365.62686 204.70152Q366.5956 204.70152 367.3456 204.27184Q368.0956 203.84215 368.455 203.1234Q368.7206 202.54527 368.7206 201.45152L368.7206 200.84215ZM379.23697 202.17027L380.8776 202.38902Q380.61197 204.07652 379.5026 205.03746Q378.39322 205.9984 376.76822 205.9984Q374.7526 205.9984 373.52603 204.67809Q372.29947 203.35777 372.29947 200.88902Q372.29947 199.29527 372.8229 198.09996Q373.34634 196.90465 374.43228 196.30309Q375.51822 195.70152 376.78384 195.70152Q378.39322 195.70152 379.40884 196.51402Q380.42447 197.32652 380.72134 198.82652L379.09634 199.07652Q378.86197 198.07652 378.26822 197.57652Q377.67447 197.07652 376.84634 197.07652Q375.58072 197.07652 374.79166 197.98277Q374.0026 198.88902 374.0026 200.84215Q374.0026 202.82652 374.76822 203.72496Q375.53384 204.6234 376.7526 204.6234Q377.73697 204.6234 378.39322 204.02184Q379.04947 203.42027 379.23697 202.17027ZM382.1276 205.77965L382.1276 192.1859L383.79947 192.1859L383.79947 197.0609Q384.97134 195.70152 386.7526 195.70152Q387.84634 195.70152 388.65103 196.13121Q389.45572 196.5609 389.80728 197.32652Q390.15884 198.09215 390.15884 199.52965L390.15884 205.77965L388.48697 205.77965L388.48697 199.52965Q388.48697 198.27965 387.9401 197.70934Q387.39322 197.13902 386.40884 197.13902Q385.65884 197.13902 385.0104 197.52184Q384.36197 197.90465 384.08072 198.56871Q383.79947 199.23277 383.79947 200.38902L383.79947 205.77965L382.1276 205.77965ZM392.51892 194.09215L392.51892 192.1859L394.1908 192.1859L394.1908 194.09215L392.51892 194.09215ZM392.51892 205.77965L392.51892 195.92027L394.1908 195.92027L394.1908 205.77965L392.51892 205.77965ZM396.64813 205.77965L396.64813 195.92027L398.14813 195.92027L398.14813 197.32652Q399.24188 195.70152 401.28876 195.70152Q402.17938 195.70152 402.92938 196.02184Q403.67938 196.34215 404.04657 196.86559Q404.41376 197.38902 404.57 198.09215Q404.66376 198.5609 404.66376 199.71715L404.66376 205.77965L402.99188 205.77965L402.99188 199.77965Q402.99188 198.76402 402.79657 198.25621Q402.60126 197.7484 402.10126 197.45152Q401.60126 197.15465 400.92938 197.15465Q399.86688 197.15465 399.09344 197.82652Q398.32 198.4984 398.32 200.40465L398.32 205.77965L396.64813 205.77965ZM413.77383 202.60777L415.49258 202.82652Q415.08633 204.32652 413.98477 205.16246Q412.8832 205.9984 411.16446 205.9984Q409.0082 205.9984 407.74258 204.67027Q406.47696 203.34215 406.47696 200.9359Q406.47696 198.45152 407.7504 197.07652Q409.02383 195.70152 411.0707 195.70152Q413.05508 195.70152 414.30508 197.04527Q415.55508 198.38902 415.55508 200.84215Q415.55508 200.98277 415.53946 201.27965L408.1957 201.27965Q408.28946 202.90465 409.11758 203.76402Q409.9457 204.6234 411.18008 204.6234Q412.08633 204.6234 412.73477 204.14684Q413.3832 203.67027 413.77383 202.60777ZM408.28946 199.90465L413.78946 199.90465Q413.68008 198.67027 413.16446 198.04527Q412.36758 197.07652 411.08633 197.07652Q409.9457 197.07652 409.15665 197.84996Q408.36758 198.6234 408.28946 199.90465ZM426.19644 199.82652L417.19644 203.6859L417.19644 202.02965L424.32144 199.0609L417.19644 196.1234L417.19644 194.46715L426.19644 198.27965L426.19644 199.82652ZM437.0914 199.82652L428.0914 203.6859L428.0914 202.02965L435.2164 199.0609L428.0914 196.1234L428.0914 194.46715L437.0914 198.27965L437.0914 199.82652Z" fill-rule="nonzero" fill="#000000"></path><path d="M360.3236 219.27965L360.3236 217.3734L362.22986 217.3734L362.22986 219.27965L360.3236 219.27965ZM360.3236 227.23277L360.3236 225.32652L362.22986 225.32652L362.22986 227.23277L360.3236 227.23277ZM365.28818 227.23277L365.28818 213.63902L371.31943 213.63902Q373.13193 213.63902 374.07724 213.9984Q375.02255 214.35777 375.58505 215.28746Q376.14755 216.21715 376.14755 217.34215Q376.14755 218.79527 375.21786 219.78746Q374.28818 220.77965 372.31943 221.04527Q373.03818 221.38902 373.41318 221.71715Q374.19443 222.45152 374.89755 223.52965L377.27255 227.23277L375.00693 227.23277L373.21005 224.40465Q372.41318 223.1859 371.90536 222.52965Q371.39755 221.8734 370.9913 221.61559Q370.58505 221.35777 370.1788 221.26402Q369.8663 221.1859 369.16318 221.1859L367.08505 221.1859L367.08505 227.23277L365.28818 227.23277ZM367.08505 219.63902L370.94443 219.63902Q372.1788 219.63902 372.8741 219.38121Q373.56943 219.1234 373.9366 218.5609Q374.3038 217.9984 374.3038 217.34215Q374.3038 216.3734 373.60068 215.75621Q372.89755 215.13902 371.38193 215.13902L367.08505 215.13902L367.08505 219.63902ZM378.72986 227.23277L378.72986 213.63902L383.41736 213.63902Q384.99548 213.63902 385.83923 213.82652Q386.99548 214.09215 387.8236 214.79527Q388.90173 215.71715 389.43298 217.13121Q389.96423 218.54527 389.96423 220.35777Q389.96423 221.90465 389.60486 223.09996Q389.24548 224.29527 388.68298 225.08434Q388.12048 225.8734 387.4486 226.31871Q386.77673 226.76402 385.8236 226.9984Q384.87048 227.23277 383.6361 227.23277L378.72986 227.23277ZM380.52673 225.6234L383.43298 225.6234Q384.77673 225.6234 385.54236 225.3734Q386.30798 225.1234 386.7611 224.67027Q387.40173 224.02965 387.7611 222.95152Q388.12048 221.8734 388.12048 220.32652Q388.12048 218.20152 387.41736 217.05309Q386.71423 215.90465 385.71423 215.51402Q384.99548 215.23277 383.3861 215.23277L380.52673 215.23277L380.52673 225.6234ZM392.1247 227.23277L392.1247 213.63902L397.23407 213.63902Q398.78094 213.63902 399.72626 214.04527Q400.67157 214.45152 401.20282 215.3109Q401.73407 216.17027 401.73407 217.10777Q401.73407 217.98277 401.26532 218.75621Q400.79657 219.52965 399.82782 219.9984Q401.0622 220.35777 401.72626 221.23277Q402.39032 222.10777 402.39032 223.29527Q402.39032 224.2484 401.99188 225.06871Q401.59344 225.88902 400.9997 226.33434Q400.40594 226.77965 399.5075 227.00621Q398.60907 227.23277 397.3122 227.23277L392.1247 227.23277ZM393.92157 219.34215L396.85907 219.34215Q398.0622 219.34215 398.57782 219.1859Q399.26532 218.98277 399.61688 218.51402Q399.96844 218.04527 399.96844 217.32652Q399.96844 216.65465 399.64032 216.13902Q399.3122 215.6234 398.71063 215.42809Q398.10907 215.23277 396.64032 215.23277L393.92157 215.23277L393.92157 219.34215ZM393.92157 225.6234L397.3122 225.6234Q398.1872 225.6234 398.53094 225.5609Q399.15594 225.45152 399.57782 225.19371Q399.9997 224.9359 400.26532 224.4359Q400.53094 223.9359 400.53094 223.29527Q400.53094 222.52965 400.14032 221.96715Q399.7497 221.40465 399.0622 221.17809Q398.3747 220.95152 397.07782 220.95152L393.92157 220.95152L393.92157 225.6234Z" fill-rule="nonzero" fill="#000000"></path><path d="M380.89124 124.5852L380.89124 168.63496" fill-rule="nonzero" stroke="#000000" stroke-width="2.0" stroke-linejoin="round" stroke-linecap="butt"></path><path d="M408.04834 146.94603L408.04834 145.8679L414.2046 143.27415L414.2046 144.39915L409.31396 146.41478L414.2046 148.4304L414.2046 149.57103L408.04834 146.94603ZM415.83176 146.94603L415.83176 145.8679L421.988 143.27415L421.988 144.39915L417.09738 146.41478L421.988 148.4304L421.988 149.57103L415.83176 146.94603ZM423.27142 148.3679L424.3808 148.21165Q424.42767 149.27415 424.77924 149.67259Q425.1308 150.07103 425.77142 150.07103Q426.22455 150.07103 426.5605 149.86009Q426.89642 149.64915 427.02924 149.28197Q427.16205 148.91478 427.16205 148.1179L427.16205 141.69603L428.3808 141.69603L428.3808 148.03978Q428.3808 149.21165 428.09955 149.85228Q427.8183 150.4929 427.20892 150.82884Q426.59955 151.16478 425.77142 151.16478Q424.55267 151.16478 423.89642 150.46165Q423.24017 149.75853 423.27142 148.3679ZM430.5605 151.00853L430.5605 141.69603L433.7636 141.69603Q434.85736 141.69603 435.41986 141.83665Q436.23236 142.02415 436.79486 142.50853Q437.52924 143.1179 437.89642 144.08665Q438.2636 145.0554 438.2636 146.3054Q438.2636 147.3679 438.0136 148.18822Q437.7636 149.00853 437.373 149.53978Q436.98236 150.07103 436.52142 150.38353Q436.0605 150.69603 435.41205 150.85228Q434.7636 151.00853 433.91986 151.00853L430.5605 151.00853ZM431.79486 149.91478L433.77924 149.91478Q434.7011 149.91478 435.22455 149.7429Q435.748 149.57103 436.0605 149.25853Q436.498 148.82103 436.74017 148.07884Q436.98236 147.33665 436.98236 146.28978Q436.98236 144.82103 436.5058 144.03978Q436.02924 143.25853 435.34174 142.9929Q434.84174 142.8054 433.748 142.8054L431.79486 142.8054L431.79486 149.91478ZM440.13876 151.00853L440.13876 141.69603L443.62314 141.69603Q444.70126 141.69603 445.3419 141.98509Q445.9825 142.27415 446.3497 142.86009Q446.7169 143.44603 446.7169 144.08665Q446.7169 144.6804 446.38876 145.20384Q446.06064 145.72728 445.42 146.0554Q446.26376 146.3054 446.7169 146.89915Q447.17 147.4929 447.17 148.3054Q447.17 148.96165 446.88876 149.52415Q446.6075 150.08665 446.20126 150.39134Q445.795 150.69603 445.18564 150.85228Q444.57626 151.00853 443.68564 151.00853L440.13876 151.00853ZM441.37314 145.6179L443.38876 145.6179Q444.20126 145.6179 444.56064 145.50853Q445.0294 145.3679 445.26376 145.03978Q445.49814 144.71165 445.49814 144.22728Q445.49814 143.75853 445.2794 143.40697Q445.06064 143.0554 444.64658 142.9304Q444.2325 142.8054 443.2325 142.8054L441.37314 142.8054L441.37314 145.6179ZM441.37314 149.91478L443.68564 149.91478Q444.2794 149.91478 444.5294 149.8679Q444.95126 149.78978 445.2325 149.61009Q445.51376 149.4304 445.70126 149.09447Q445.88876 148.75853 445.88876 148.3054Q445.88876 147.78978 445.62314 147.40697Q445.3575 147.02415 444.88095 146.8679Q444.4044 146.71165 443.51376 146.71165L441.37314 146.71165L441.37314 149.91478ZM455.71603 147.7429L456.9504 148.0554Q456.55978 149.57103 455.55197 150.3679Q454.54416 151.16478 453.09103 151.16478Q451.59103 151.16478 450.64572 150.5554Q449.7004 149.94603 449.20822 148.78197Q448.71603 147.6179 448.71603 146.28978Q448.71603 144.83665 449.27853 143.75072Q449.84103 142.66478 450.86447 142.10228Q451.8879 141.53978 453.12228 141.53978Q454.5129 141.53978 455.46603 142.25072Q456.41916 142.96165 456.79416 144.25853L455.5754 144.53978Q455.24728 143.52415 454.6379 143.06322Q454.02853 142.60228 453.09103 142.60228Q452.0129 142.60228 451.29416 143.1179Q450.5754 143.63353 450.28635 144.4929Q449.99728 145.35228 449.99728 146.27415Q449.99728 147.46165 450.34103 148.35228Q450.68478 149.2429 451.41135 149.6804Q452.1379 150.1179 452.99728 150.1179Q454.02853 150.1179 454.74728 149.51634Q455.46603 148.91478 455.71603 147.7429ZM466.87228 148.83665L468.05978 148.97728Q467.77853 150.02415 467.02072 150.59447Q466.2629 151.16478 465.09103 151.16478Q463.60666 151.16478 462.73947 150.25072Q461.87228 149.33665 461.87228 147.69603Q461.87228 145.9929 462.7551 145.0554Q463.6379 144.1179 465.02853 144.1179Q466.3879 144.1179 467.23947 145.03978Q468.09103 145.96165 468.09103 147.6179Q468.09103 147.72728 468.09103 147.9304L463.05978 147.9304Q463.12228 149.03978 463.68478 149.63353Q464.24728 150.22728 465.09103 150.22728Q465.73166 150.22728 466.17697 149.89134Q466.62228 149.5554 466.87228 148.83665ZM463.12228 146.9929L466.8879 146.9929Q466.80978 146.13353 466.4504 145.71165Q465.90353 145.0554 465.04416 145.0554Q464.24728 145.0554 463.71603 145.57884Q463.18478 146.10228 463.12228 146.9929ZM472.17538 149.9929L472.33163 150.9929Q471.84726 151.10228 471.47226 151.10228Q470.84726 151.10228 470.5035 150.89915Q470.15976 150.69603 470.01913 150.37572Q469.8785 150.0554 469.8785 149.03978L469.8785 145.14915L469.05038 145.14915L469.05038 144.27415L469.8785 144.27415L469.8785 142.60228L471.01913 141.91478L471.01913 144.27415L472.17538 144.27415L472.17538 145.14915L471.01913 145.14915L471.01913 149.10228Q471.01913 149.58665 471.08163 149.72728Q471.14413 149.8679 471.27695 149.94603Q471.40976 150.02415 471.65976 150.02415Q471.86288 150.02415 472.17538 149.9929ZM477.769 148.53978L478.894 148.6804Q478.72214 149.85228 477.9565 150.50853Q477.1909 151.16478 476.09714 151.16478Q474.7065 151.16478 473.87057 150.25853Q473.03464 149.35228 473.03464 147.66478Q473.03464 146.57103 473.394 145.75072Q473.7534 144.9304 474.48776 144.52415Q475.22214 144.1179 476.09714 144.1179Q477.1909 144.1179 477.894 144.67259Q478.59714 145.22728 478.78464 146.2429L477.67526 146.41478Q477.519 145.7429 477.12057 145.39915Q476.72214 145.0554 476.144 145.0554Q475.28464 145.0554 474.74557 145.67259Q474.2065 146.28978 474.2065 147.63353Q474.2065 148.9929 474.72214 149.61009Q475.23776 150.22728 476.0815 150.22728Q476.7534 150.22728 477.2065 149.81322Q477.65964 149.39915 477.769 148.53978ZM480.37057 151.00853L480.37057 149.71165L481.66745 149.71165L481.66745 151.00853L480.37057 151.00853ZM489.76105 146.94603L483.6048 149.57103L483.6048 148.4304L488.4798 146.41478L483.6048 144.39915L483.6048 143.27415L489.76105 145.8679L489.76105 146.94603ZM497.54446 146.94603L491.3882 149.57103L491.3882 148.4304L496.2632 146.41478L491.3882 144.39915L491.3882 143.27415L497.54446 145.8679L497.54446 146.94603Z" fill-rule="nonzero" fill="#000000"></path><path d="M456.37796 41.170834L449.7451 34.537956L298.77167 34.537956L298.77167 117.95232L305.40454 124.5852L456.37796 124.5852ZM456.37796 41.170834L305.40454 41.170834L298.77167 34.537956M305.40454 41.170834L305.40454 124.5852" fill-rule="nonzero" stroke="#000000" stroke-width="2.0" stroke-linejoin="round" stroke-linecap="butt"></path><path d="M324.8899 72.3624L324.8899 70.81552L333.8899 67.00302L333.8899 68.65927L326.74927 71.59677L333.8899 74.56552L333.8899 76.22177L324.8899 72.3624ZM335.78485 72.3624L335.78485 70.81552L344.78485 67.00302L344.78485 68.65927L337.64423 71.59677L344.78485 74.56552L344.78485 76.22177L335.78485 72.3624ZM346.88293 78.31552L346.88293 68.45615L348.38293 68.45615L348.38293 69.84677Q348.83606 69.12802 349.6095 68.68271Q350.38293 68.2374 351.3673 68.2374Q352.46106 68.2374 353.16418 68.69052Q353.8673 69.14365 354.14856 69.97177Q355.32043 68.2374 357.19543 68.2374Q358.66418 68.2374 359.45325 69.0499Q360.2423 69.8624 360.2423 71.5499L360.2423 78.31552L358.57043 78.31552L358.57043 72.1124Q358.57043 71.1124 358.41418 70.66708Q358.25793 70.22177 357.82825 69.95615Q357.39856 69.69052 356.82043 69.69052Q355.78918 69.69052 355.10168 70.37802Q354.41418 71.06552 354.41418 72.59677L354.41418 78.31552L352.7423 78.31552L352.7423 71.90927Q352.7423 70.7999 352.33606 70.24521Q351.9298 69.69052 350.9923 69.69052Q350.28918 69.69052 349.68762 70.05771Q349.08606 70.4249 348.82043 71.14365Q348.5548 71.8624 348.5548 73.20615L348.5548 78.31552L346.88293 78.31552ZM368.86124 77.09677Q367.92374 77.89365 367.06436 78.21396Q366.205 78.53427 365.2206 78.53427Q363.61124 78.53427 362.73624 77.74521Q361.86124 76.95615 361.86124 75.72177Q361.86124 74.9874 362.18936 74.39365Q362.5175 73.7999 363.04874 73.44052Q363.58 73.08115 364.25186 72.89365Q364.75186 72.75302 365.73624 72.64365Q367.7675 72.39365 368.7206 72.06552Q368.7206 71.72177 368.7206 71.62802Q368.7206 70.6124 368.25186 70.19052Q367.61124 69.62802 366.3456 69.62802Q365.17374 69.62802 364.61124 70.03427Q364.04874 70.44052 363.7831 71.50302L362.1425 71.26865Q362.37686 70.22177 362.88467 69.58115Q363.3925 68.94052 364.35342 68.58896Q365.31436 68.2374 366.5956 68.2374Q367.86124 68.2374 368.6425 68.53427Q369.42374 68.83115 369.79874 69.28427Q370.17374 69.7374 370.31436 70.4249Q370.4081 70.84677 370.4081 71.95615L370.4081 74.19052Q370.4081 76.51865 370.50967 77.13583Q370.61124 77.75302 370.93936 78.31552L369.18936 78.31552Q368.92374 77.7999 368.86124 77.09677ZM368.7206 73.37802Q367.81436 73.7374 365.98624 74.00302Q364.955 74.14365 364.5331 74.33115Q364.11124 74.51865 363.87686 74.87802Q363.6425 75.2374 363.6425 75.6749Q363.6425 76.34677 364.1503 76.79208Q364.6581 77.2374 365.62686 77.2374Q366.5956 77.2374 367.3456 76.80771Q368.0956 76.37802 368.455 75.65927Q368.7206 75.08115 368.7206 73.9874L368.7206 73.37802ZM379.23697 74.70615L380.8776 74.9249Q380.61197 76.6124 379.5026 77.57333Q378.39322 78.53427 376.76822 78.53427Q374.7526 78.53427 373.52603 77.21396Q372.29947 75.89365 372.29947 73.4249Q372.29947 71.83115 372.8229 70.63583Q373.34634 69.44052 374.43228 68.83896Q375.51822 68.2374 376.78384 68.2374Q378.39322 68.2374 379.40884 69.0499Q380.42447 69.8624 380.72134 71.3624L379.09634 71.6124Q378.86197 70.6124 378.26822 70.1124Q377.67447 69.6124 376.84634 69.6124Q375.58072 69.6124 374.79166 70.51865Q374.0026 71.4249 374.0026 73.37802Q374.0026 75.3624 374.76822 76.26083Q375.53384 77.15927 376.7526 77.15927Q377.73697 77.15927 378.39322 76.55771Q379.04947 75.95615 379.23697 74.70615ZM382.1276 78.31552L382.1276 64.72177L383.79947 64.72177L383.79947 69.59677Q384.97134 68.2374 386.7526 68.2374Q387.84634 68.2374 388.65103 68.66708Q389.45572 69.09677 389.80728 69.8624Q390.15884 70.62802 390.15884 72.06552L390.15884 78.31552L388.48697 78.31552L388.48697 72.06552Q388.48697 70.81552 387.9401 70.24521Q387.39322 69.6749 386.40884 69.6749Q385.65884 69.6749 385.0104 70.05771Q384.36197 70.44052 384.08072 71.10458Q383.79947 71.76865 383.79947 72.9249L383.79947 78.31552L382.1276 78.31552ZM392.51892 66.62802L392.51892 64.72177L394.1908 64.72177L394.1908 66.62802L392.51892 66.62802ZM392.51892 78.31552L392.51892 68.45615L394.1908 68.45615L394.1908 78.31552L392.51892 78.31552ZM396.64813 78.31552L396.64813 68.45615L398.14813 68.45615L398.14813 69.8624Q399.24188 68.2374 401.28876 68.2374Q402.17938 68.2374 402.92938 68.55771Q403.67938 68.87802 404.04657 69.40146Q404.41376 69.9249 404.57 70.62802Q404.66376 71.09677 404.66376 72.25302L404.66376 78.31552L402.99188 78.31552L402.99188 72.31552Q402.99188 71.2999 402.79657 70.79208Q402.60126 70.28427 402.10126 69.9874Q401.60126 69.69052 400.92938 69.69052Q399.86688 69.69052 399.09344 70.3624Q398.32 71.03427 398.32 72.94052L398.32 78.31552L396.64813 78.31552ZM413.77383 75.14365L415.49258 75.3624Q415.08633 76.8624 413.98477 77.69833Q412.8832 78.53427 411.16446 78.53427Q409.0082 78.53427 407.74258 77.20615Q406.47696 75.87802 406.47696 73.47177Q406.47696 70.9874 407.7504 69.6124Q409.02383 68.2374 411.0707 68.2374Q413.05508 68.2374 414.30508 69.58115Q415.55508 70.9249 415.55508 73.37802Q415.55508 73.51865 415.53946 73.81552L408.1957 73.81552Q408.28946 75.44052 409.11758 76.2999Q409.9457 77.15927 411.18008 77.15927Q412.08633 77.15927 412.73477 76.68271Q413.3832 76.20615 413.77383 75.14365ZM408.28946 72.44052L413.78946 72.44052Q413.68008 71.20615 413.16446 70.58115Q412.36758 69.6124 411.08633 69.6124Q409.9457 69.6124 409.15665 70.38583Q408.36758 71.15927 408.28946 72.44052ZM426.19644 72.3624L417.19644 76.22177L417.19644 74.56552L424.32144 71.59677L417.19644 68.65927L417.19644 67.00302L426.19644 70.81552L426.19644 72.3624ZM437.0914 72.3624L428.0914 76.22177L428.0914 74.56552L435.2164 71.59677L428.0914 68.65927L428.0914 67.00302L437.0914 70.81552L437.0914 72.3624Z" fill-rule="nonzero" fill="#000000"></path><path d="M329.21924 91.81552L329.21924 89.90927L331.1255 89.90927L331.1255 91.81552L329.21924 91.81552ZM329.21924 99.76865L329.21924 97.8624L331.1255 97.8624L331.1255 99.76865L329.21924 99.76865ZM334.18378 99.76865L334.18378 86.1749L340.21503 86.1749Q342.02753 86.1749 342.97284 86.53427Q343.91815 86.89365 344.48065 87.82333Q345.04315 88.75302 345.04315 89.87802Q345.04315 91.33115 344.11346 92.32333Q343.18378 93.31552 341.21503 93.58115Q341.93378 93.9249 342.30878 94.25302Q343.09003 94.9874 343.79315 96.06552L346.16815 99.76865L343.90253 99.76865L342.10565 96.94052Q341.30878 95.72177 340.80096 95.06552Q340.29315 94.40927 339.8869 94.15146Q339.48065 93.89365 339.0744 93.7999Q338.7619 93.72177 338.05878 93.72177L335.98065 93.72177L335.98065 99.76865L334.18378 99.76865ZM335.98065 92.1749L339.84003 92.1749Q341.0744 92.1749 341.7697 91.91708Q342.46503 91.65927 342.8322 91.09677Q343.1994 90.53427 343.1994 89.87802Q343.1994 88.90927 342.49628 88.29208Q341.79315 87.6749 340.27753 87.6749L335.98065 87.6749L335.98065 92.1749ZM347.6255 99.76865L347.6255 86.1749L352.313 86.1749Q353.8911 86.1749 354.73486 86.3624Q355.8911 86.62802 356.71924 87.33115Q357.79736 88.25302 358.3286 89.66708Q358.85986 91.08115 358.85986 92.89365Q358.85986 94.44052 358.5005 95.63583Q358.1411 96.83115 357.5786 97.62021Q357.0161 98.40927 356.34424 98.85458Q355.67236 99.2999 354.71924 99.53427Q353.7661 99.76865 352.53174 99.76865L347.6255 99.76865ZM349.42236 98.15927L352.3286 98.15927Q353.67236 98.15927 354.438 97.90927Q355.2036 97.65927 355.65674 97.20615Q356.29736 96.56552 356.65674 95.4874Q357.0161 94.40927 357.0161 92.8624Q357.0161 90.7374 356.313 89.58896Q355.60986 88.44052 354.60986 88.0499Q353.8911 87.76865 352.28174 87.76865L349.42236 87.76865L349.42236 98.15927ZM361.0203 99.76865L361.0203 86.1749L366.12967 86.1749Q367.67654 86.1749 368.62186 86.58115Q369.56717 86.9874 370.09842 87.84677Q370.62967 88.70615 370.62967 89.64365Q370.62967 90.51865 370.16092 91.29208Q369.69217 92.06552 368.72342 92.53427Q369.9578 92.89365 370.62186 93.76865Q371.28592 94.64365 371.28592 95.83115Q371.28592 96.78427 370.88748 97.60458Q370.48904 98.4249 369.8953 98.87021Q369.30154 99.31552 368.4031 99.54208Q367.50467 99.76865 366.2078 99.76865L361.0203 99.76865ZM362.81717 91.87802L365.75467 91.87802Q366.9578 91.87802 367.47342 91.72177Q368.16092 91.51865 368.51248 91.0499Q368.86404 90.58115 368.86404 89.8624Q368.86404 89.19052 368.53592 88.6749Q368.2078 88.15927 367.60623 87.96396Q367.00467 87.76865 365.53592 87.76865L362.81717 87.76865L362.81717 91.87802ZM362.81717 98.15927L366.2078 98.15927Q367.0828 98.15927 367.42654 98.09677Q368.05154 97.9874 368.47342 97.72958Q368.8953 97.47177 369.16092 96.97177Q369.42654 96.47177 369.42654 95.83115Q369.42654 95.06552 369.03592 94.50302Q368.6453 93.94052 367.9578 93.71396Q367.2703 93.4874 365.97342 93.4874L362.81717 93.4874L362.81717 98.15927ZM372.93262 95.39365L374.62012 95.25302Q374.74512 96.26865 375.18262 96.9249Q375.62012 97.58115 376.5498 97.9874Q377.4795 98.39365 378.63574 98.39365Q379.667 98.39365 380.45605 98.08115Q381.24512 97.76865 381.63574 97.2374Q382.02637 96.70615 382.02637 96.08115Q382.02637 95.44052 381.65137 94.96396Q381.27637 94.4874 380.417 94.15927Q379.87012 93.94052 377.99512 93.49521Q376.12012 93.0499 375.37012 92.64365Q374.40137 92.12802 373.9248 91.37802Q373.44824 90.62802 373.44824 89.69052Q373.44824 88.65927 374.03418 87.76083Q374.62012 86.8624 375.7373 86.40146Q376.8545 85.94052 378.2295 85.94052Q379.74512 85.94052 380.90137 86.4249Q382.05762 86.90927 382.6748 87.85458Q383.292 88.7999 383.33887 90.00302L381.62012 90.12802Q381.4795 88.84677 380.6748 88.18271Q379.87012 87.51865 378.30762 87.51865Q376.68262 87.51865 375.93262 88.12021Q375.18262 88.72177 375.18262 89.56552Q375.18262 90.2999 375.71387 90.76865Q376.2295 91.2374 378.4248 91.7374Q380.62012 92.2374 381.43262 92.6124Q382.62012 93.15927 383.19043 93.99521Q383.76074 94.83115 383.76074 95.9249Q383.76074 97.01865 383.13574 97.97958Q382.51074 98.94052 381.34668 99.47177Q380.18262 100.00302 378.7295 100.00302Q376.88574 100.00302 375.63574 99.46396Q374.38574 98.9249 373.6748 97.84677Q372.96387 96.76865 372.93262 95.39365ZM392.5168 96.59677L394.23557 96.81552Q393.8293 98.31552 392.72775 99.15146Q391.6262 99.9874 389.90744 99.9874Q387.7512 99.9874 386.48557 98.65927Q385.21994 97.33115 385.21994 94.9249Q385.21994 92.44052 386.49338 91.06552Q387.7668 89.69052 389.8137 89.69052Q391.79807 89.69052 393.04807 91.03427Q394.29807 92.37802 394.29807 94.83115Q394.29807 94.97177 394.28244 95.26865L386.9387 95.26865Q387.03244 96.89365 387.86057 97.75302Q388.6887 98.6124 389.92307 98.6124Q390.8293 98.6124 391.47775 98.13583Q392.1262 97.65927 392.5168 96.59677ZM387.03244 93.89365L392.53244 93.89365Q392.42307 92.65927 391.90744 92.03427Q391.11057 91.06552 389.8293 91.06552Q388.6887 91.06552 387.89963 91.83896Q387.11057 92.6124 387.03244 93.89365ZM396.12692 99.76865L396.12692 89.90927L397.62692 89.90927L397.62692 91.40927Q398.20505 90.3624 398.68942 90.02646Q399.1738 89.69052 399.76755 89.69052Q400.6113 89.69052 401.4863 90.2374L400.90817 91.78427Q400.2988 91.4249 399.6738 91.4249Q399.12692 91.4249 398.69724 91.75302Q398.26755 92.08115 398.08005 92.65927Q397.7988 93.5499 397.7988 94.6124L397.7988 99.76865L396.12692 99.76865ZM405.0896 99.76865L401.3396 89.90927L403.10522 89.90927L405.23022 95.81552Q405.57397 96.76865 405.85522 97.7999Q406.07397 97.01865 406.48022 95.9249L408.66772 89.90927L410.38647 89.90927L406.6521 99.76865L405.0896 99.76865ZM411.69897 88.08115L411.69897 86.1749L413.37085 86.1749L413.37085 88.08115L411.69897 88.08115ZM411.69897 99.76865L411.69897 89.90927L413.37085 89.90927L413.37085 99.76865L411.69897 99.76865ZM422.26566 96.15927L423.90628 96.37802Q423.64066 98.06552 422.53128 99.02646Q421.4219 99.9874 419.7969 99.9874Q417.78128 99.9874 416.55472 98.66708Q415.32816 97.34677 415.32816 94.87802Q415.32816 93.28427 415.8516 92.08896Q416.37503 90.89365 417.46097 90.29208Q418.5469 89.69052 419.81253 89.69052Q421.4219 89.69052 422.43753 90.50302Q423.45316 91.31552 423.75003 92.81552L422.12503 93.06552Q421.89066 92.06552 421.2969 91.56552Q420.70316 91.06552 419.87503 91.06552Q418.6094 91.06552 417.82034 91.97177Q417.03128 92.87802 417.03128 94.83115Q417.03128 96.81552 417.7969 97.71396Q418.56253 98.6124 419.78128 98.6124Q420.76566 98.6124 421.4219 98.01083Q422.07816 97.40927 422.26566 96.15927ZM431.90628 96.59677L433.62503 96.81552Q433.21878 98.31552 432.11722 99.15146Q431.01566 99.9874 429.2969 99.9874Q427.14066 99.9874 425.87503 98.65927Q424.6094 97.33115 424.6094 94.9249Q424.6094 92.44052 425.88284 91.06552Q427.15628 89.69052 429.20316 89.69052Q431.18753 89.69052 432.43753 91.03427Q433.68753 92.37802 433.68753 94.83115Q433.68753 94.97177 433.6719 95.26865L426.32816 95.26865Q426.4219 96.89365 427.25003 97.75302Q428.07816 98.6124 429.31253 98.6124Q430.21878 98.6124 430.86722 98.13583Q431.51566 97.65927 431.90628 96.59677ZM426.4219 93.89365L431.9219 93.89365Q431.81253 92.65927 431.2969 92.03427Q430.50003 91.06552 429.21878 91.06552Q428.07816 91.06552 427.2891 91.83896Q426.50003 92.6124 426.4219 93.89365Z" fill-rule="nonzero" fill="#000000"></path></svg>

