<?xml version="1.0" standalone="yes"?>

<svg version="1.1" viewBox="0.0 0.0 953.0 536.0" fill="none" stroke="none" stroke-linecap="square" stroke-miterlimit="10" clip-path="url(#p.0)" xmlns="http://www.w3.org/2000/svg" xmlns:xlink="http://www.w3.org/1999/xlink"><clipPath id="p.0"><path d="M0 0L953.0 0L953.0 536.0L0 536.0L0 0Z" clip-rule="nonzero"></path></clipPath><path d="M367.85333 74.15672L347.6415 53.94488L93.45964 53.94488L93.45964 459.78027L113.67148 479.99213L367.85333 479.99213ZM367.85333 74.15672L113.67148 74.15672L93.45964 53.94488M113.67148 74.15672L113.67148 479.99213" fill-rule="nonzero" stroke="#000000" stroke-width="2.0" stroke-linejoin="round" stroke-linecap="butt"></path><path d="M880.84283 74.15672L860.631 53.94488L606.44916 53.94488L606.44916 459.78027L626.66095 479.99213L880.84283 479.99213ZM880.84283 74.15672L626.66095 74.15672L606.44916 53.94488M626.66095 74.15672L626.66095 479.99213" fill-rule="nonzero" stroke="#000000" stroke-width="2.0" stroke-linejoin="round" stroke-linecap="butt"></path><path d="M853.03796 164.07288L837.97656 149.01143L648.56555 149.01143L648.56555 448.06024L663.62695 463.12167L853.03796 463.12167ZM853.03796 164.07288L663.62695 164.07288L648.56555 149.01143M663.62695 164.07288L663.62695 463.12167" fill-rule="nonzero" stroke="#000000" stroke-width="2.0" stroke-linejoin="round" stroke-linecap="butt"></path><path d="M687.64465 107.02243L687.64465 105.475555L696.64465 101.663055L696.64465 103.319305L689.504 106.256805L696.64465 109.225555L696.64465 110.881805L687.64465 107.02243ZM698.5396 107.02243L698.5396 105.475555L707.5396 101.663055L707.5396 103.319305L700.399 106.256805L707.5396 109.225555L707.5396 110.881805L698.5396 107.02243ZM709.6377 112.975555L709.6377 103.11618L711.1377 103.11618L711.1377 104.506805Q711.5908 103.788055 712.36426 103.34274Q713.1377 102.89743 714.1221 102.89743Q715.2158 102.89743 715.91895 103.350555Q716.6221 103.80368 716.9033 104.631805Q718.0752 102.89743 719.9502 102.89743Q721.41895 102.89743 722.208 103.70993Q722.9971 104.52243 722.9971 106.20993L722.9971 112.975555L721.3252 112.975555L721.3252 106.77243Q721.3252 105.77243 721.16895 105.32712Q721.0127 104.881805 720.583 104.61618Q720.1533 104.350555 719.5752 104.350555Q718.54395 104.350555 717.85645 105.038055Q717.16895 105.725555 717.16895 107.256805L717.16895 112.975555L715.4971 112.975555L715.4971 106.569305Q715.4971 105.45993 715.0908 104.90524Q714.6846 104.350555 713.7471 104.350555Q713.04395 104.350555 712.4424 104.71774Q711.8408 105.08493 711.5752 105.80368Q711.3096 106.52243 711.3096 107.86618L711.3096 112.975555L709.6377 112.975555ZM731.61597 111.756805Q730.67847 112.55368 729.8191 112.87399Q728.9597 113.194305 727.97534 113.194305Q726.36597 113.194305 725.49097 112.40524Q724.61597 111.61618 724.61597 110.381805Q724.61597 109.64743 724.9441 109.05368Q725.2722 108.45993 725.80347 108.100555Q726.3347 107.74118 727.0066 107.55368Q727.5066 107.413055 728.49097 107.30368Q730.5222 107.05368 731.47534 106.725555Q731.47534 106.381805 731.47534 106.288055Q731.47534 105.27243 731.0066 104.850555Q730.36597 104.288055 729.10034 104.288055Q727.92847 104.288055 727.36597 104.694305Q726.80347 105.100555 726.53784 106.163055L724.8972 105.92868Q725.1316 104.881805 725.6394 104.24118Q726.1472 103.600555 727.10815 103.24899Q728.0691 102.89743 729.35034 102.89743Q730.61597 102.89743 731.3972 103.194305Q732.17847 103.49118 732.55347 103.944305Q732.92847 104.39743 733.0691 105.08493Q733.16284 105.506805 733.16284 106.61618L733.16284 108.850555Q733.16284 111.17868 733.2644 111.79587Q733.36597 112.413055 733.6941 112.975555L731.9441 112.975555Q731.67847 112.45993 731.61597 111.756805ZM731.47534 108.038055Q730.5691 108.39743 728.74097 108.663055Q727.7097 108.80368 727.28784 108.99118Q726.86597 109.17868 726.6316 109.538055Q726.3972 109.89743 726.3972 110.33493Q726.3972 111.006805 726.905 111.45212Q727.41284 111.89743 728.3816 111.89743Q729.35034 111.89743 730.10034 111.46774Q730.85034 111.038055 731.2097 110.319305Q731.47534 109.74118 731.47534 108.64743L731.47534 108.038055ZM741.9917 109.36618L743.6323 109.58493Q743.3667 111.27243 742.2573 112.23337Q741.14795 113.194305 739.52295 113.194305Q737.5073 113.194305 736.28076 111.87399Q735.0542 110.55368 735.0542 108.08493Q735.0542 106.49118 735.57764 105.29587Q736.1011 104.100555 737.187 103.49899Q738.27295 102.89743 739.5386 102.89743Q741.14795 102.89743 742.1636 103.70993Q743.1792 104.52243 743.4761 106.02243L741.8511 106.27243Q741.6167 105.27243 741.02295 104.77243Q740.4292 104.27243 739.6011 104.27243Q738.33545 104.27243 737.5464 105.17868Q736.7573 106.08493 736.7573 108.038055Q736.7573 110.02243 737.52295 110.92087Q738.2886 111.819305 739.5073 111.819305Q740.4917 111.819305 741.14795 111.21774Q741.8042 110.61618 741.9917 109.36618ZM744.8823 112.975555L744.8823 99.381805L746.5542 99.381805L746.5542 104.256805Q747.7261 102.89743 749.5073 102.89743Q750.6011 102.89743 751.40576 103.32712Q752.21045 103.756805 752.562 104.52243Q752.9136 105.288055 752.9136 106.725555L752.9136 112.975555L751.2417 112.975555L751.2417 106.725555Q751.2417 105.475555 750.6948 104.90524Q750.14795 104.33493 749.1636 104.33493Q748.4136 104.33493 747.76514 104.71774Q747.1167 105.100555 746.83545 105.76462Q746.5542 106.42868 746.5542 107.58493L746.5542 112.975555L744.8823 112.975555ZM755.2737 101.288055L755.2737 99.381805L756.94556 99.381805L756.94556 101.288055L755.2737 101.288055ZM755.2737 112.975555L755.2737 103.11618L756.94556 103.11618L756.94556 112.975555L755.2737 112.975555ZM759.4029 112.975555L759.4029 103.11618L760.9029 103.11618L760.9029 104.52243Q761.99664 102.89743 764.0435 102.89743Q764.93414 102.89743 765.68414 103.21774Q766.43414 103.538055 766.80133 104.06149Q767.1685 104.58493 767.32477 105.288055Q767.4185 105.756805 767.4185 106.913055L767.4185 112.975555L765.74664 112.975555L765.74664 106.975555Q765.74664 105.95993 765.55133 105.45212Q765.356 104.944305 764.856 104.64743Q764.356 104.350555 763.68414 104.350555Q762.62164 104.350555 761.8482 105.02243Q761.07477 105.694305 761.07477 107.600555L761.07477 112.975555L759.4029 112.975555ZM776.52856 109.80368L778.2473 110.02243Q777.84106 111.52243 776.7395 112.35837Q775.63794 113.194305 773.9192 113.194305Q771.76294 113.194305 770.4973 111.86618Q769.2317 110.538055 769.2317 108.131805Q769.2317 105.64743 770.5051 104.27243Q771.77856 102.89743 773.82544 102.89743Q775.8098 102.89743 777.0598 104.24118Q778.3098 105.58493 778.3098 108.038055Q778.3098 108.17868 778.2942 108.475555L770.95044 108.475555Q771.0442 110.100555 771.8723 110.95993Q772.70044 111.819305 773.9348 111.819305Q774.84106 111.819305 775.4895 111.34274Q776.13794 110.86618 776.52856 109.80368ZM771.0442 107.100555L776.5442 107.100555Q776.4348 105.86618 775.9192 105.24118Q775.1223 104.27243 773.84106 104.27243Q772.70044 104.27243 771.9114 105.04587Q771.1223 105.819305 771.0442 107.100555ZM788.9512 107.02243L779.9512 110.881805L779.9512 109.225555L787.0762 106.256805L779.9512 103.319305L779.9512 101.663055L788.9512 105.475555L788.9512 107.02243ZM799.8461 107.02243L790.8461 110.881805L790.8461 109.225555L797.9711 106.256805L790.8461 103.319305L790.8461 101.663055L799.8461 105.475555L799.8461 107.02243Z" fill-rule="nonzero" fill="#000000"></path><path d="M715.2988 126.475555L715.2988 124.569305L717.2051 124.569305L717.2051 126.475555L715.2988 126.475555ZM715.2988 134.42868L715.2988 132.52243L717.2051 132.52243L717.2051 134.42868L715.2988 134.42868ZM719.6228 130.05368L721.3103 129.91306Q721.4353 130.92868 721.8728 131.58493Q722.3103 132.24118 723.24 132.64743Q724.1697 133.05368 725.3259 133.05368Q726.3572 133.05368 727.14624 132.74118Q727.9353 132.42868 728.3259 131.89743Q728.71655 131.36618 728.71655 130.74118Q728.71655 130.10056 728.34155 129.624Q727.96655 129.14743 727.1072 128.8193Q726.5603 128.60056 724.6853 128.15524Q722.8103 127.70993 722.0603 127.30368Q721.09155 126.788055 720.615 126.038055Q720.1384 125.288055 720.1384 124.350555Q720.1384 123.319305 720.72437 122.42087Q721.3103 121.52243 722.4275 121.06149Q723.5447 120.600555 724.9197 120.600555Q726.4353 120.600555 727.59155 121.08493Q728.7478 121.569305 729.365 122.51462Q729.9822 123.45993 730.02905 124.663055L728.3103 124.788055Q728.1697 123.506805 727.365 122.84274Q726.5603 122.17868 724.9978 122.17868Q723.3728 122.17868 722.6228 122.78024Q721.8728 123.381805 721.8728 124.225555Q721.8728 124.95993 722.40405 125.42868Q722.9197 125.89743 725.115 126.39743Q727.3103 126.89743 728.1228 127.27243Q729.3103 127.819305 729.8806 128.65524Q730.4509 129.49118 730.4509 130.58493Q730.4509 131.67868 729.8259 132.63962Q729.2009 133.60056 728.03687 134.1318Q726.8728 134.66306 725.4197 134.66306Q723.5759 134.66306 722.3259 134.124Q721.0759 133.58493 720.365 132.5068Q719.65405 131.42868 719.6228 130.05368ZM739.207 131.2568L740.9257 131.47556Q740.5195 132.97556 739.4179 133.8115Q738.31635 134.64743 736.5976 134.64743Q734.44135 134.64743 733.1757 133.3193Q731.9101 131.99118 731.9101 129.58493Q731.9101 127.100555 733.18353 125.725555Q734.457 124.350555 736.50385 124.350555Q738.4882 124.350555 739.7382 125.694305Q740.9882 127.038055 740.9882 129.49118Q740.9882 129.6318 740.9726 129.92868L733.62885 129.92868Q733.7226 131.55368 734.5507 132.41306Q735.37885 133.27243 736.6132 133.27243Q737.5195 133.27243 738.1679 132.79587Q738.81635 132.3193 739.207 131.2568ZM733.7226 128.55368L739.2226 128.55368Q739.1132 127.319305 738.5976 126.694305Q737.8007 125.725555 736.5195 125.725555Q735.37885 125.725555 734.5898 126.49899Q733.8007 127.27243 733.7226 128.55368ZM742.8171 134.42868L742.8171 124.569305L744.3171 124.569305L744.3171 126.069305Q744.8952 125.02243 745.3796 124.68649Q745.86395 124.350555 746.4577 124.350555Q747.30145 124.350555 748.17645 124.89743L747.5983 126.444305Q746.98895 126.08493 746.36395 126.08493Q745.8171 126.08493 745.3874 126.413055Q744.9577 126.74118 744.7702 127.319305Q744.48895 128.20993 744.48895 129.27243L744.48895 134.42868L742.8171 134.42868ZM751.7797 134.42868L748.0297 124.569305L749.79535 124.569305L751.92035 130.47556Q752.2641 131.42868 752.54535 132.45993Q752.7641 131.67868 753.17035 130.58493L755.35785 124.569305L757.0766 124.569305L753.3422 134.42868L751.7797 134.42868ZM765.1235 131.2568L766.8422 131.47556Q766.436 132.97556 765.3344 133.8115Q764.23285 134.64743 762.5141 134.64743Q760.35785 134.64743 759.0922 133.3193Q757.8266 131.99118 757.8266 129.58493Q757.8266 127.100555 759.10004 125.725555Q760.3735 124.350555 762.42035 124.350555Q764.4047 124.350555 765.6547 125.694305Q766.9047 127.038055 766.9047 129.49118Q766.9047 129.6318 766.8891 129.92868L759.54535 129.92868Q759.6391 131.55368 760.4672 132.41306Q761.29535 133.27243 762.5297 133.27243Q763.436 133.27243 764.0844 132.79587Q764.73285 132.3193 765.1235 131.2568ZM759.6391 128.55368L765.1391 128.55368Q765.0297 127.319305 764.5141 126.694305Q763.7172 125.725555 762.436 125.725555Q761.29535 125.725555 760.5063 126.49899Q759.7172 127.27243 759.6391 128.55368ZM768.7336 134.42868L768.7336 124.569305L770.2336 124.569305L770.2336 126.069305Q770.8117 125.02243 771.2961 124.68649Q771.78046 124.350555 772.3742 124.350555Q773.21796 124.350555 774.09296 124.89743L773.51483 126.444305Q772.90546 126.08493 772.28046 126.08493Q771.7336 126.08493 771.3039 126.413055Q770.8742 126.74118 770.6867 127.319305Q770.40546 128.20993 770.40546 129.27243L770.40546 134.42868L768.7336 134.42868Z" fill-rule="nonzero" fill="#000000"></path><path d="M179.74178 136.03293L179.74178 134.48605L188.74178 130.67355L188.74178 132.3298L181.60115 135.2673L188.74178 138.23605L188.74178 139.8923L179.74178 136.03293ZM190.63673 136.03293L190.63673 134.48605L199.63673 130.67355L199.63673 132.3298L192.49611 135.2673L199.63673 138.23605L199.63673 139.8923L190.63673 136.03293ZM201.73482 141.98605L201.73482 132.12668L203.23482 132.12668L203.23482 133.5173Q203.68794 132.79855 204.46138 132.35324Q205.23482 131.90793 206.2192 131.90793Q207.31294 131.90793 208.01607 132.36105Q208.7192 132.81418 209.00044 133.6423Q210.17232 131.90793 212.04732 131.90793Q213.51607 131.90793 214.30513 132.72043Q215.0942 133.53293 215.0942 135.22043L215.0942 141.98605L213.42232 141.98605L213.42232 135.78293Q213.42232 134.78293 213.26607 134.33762Q213.10982 133.8923 212.68013 133.62668Q212.25044 133.36105 211.67232 133.36105Q210.64107 133.36105 209.95357 134.04855Q209.26607 134.73605 209.26607 136.2673L209.26607 141.98605L207.5942 141.98605L207.5942 135.5798Q207.5942 134.47043 207.18794 133.91574Q206.7817 133.36105 205.8442 133.36105Q205.14107 133.36105 204.5395 133.72824Q203.93794 134.09543 203.67232 134.81418Q203.4067 135.53293 203.4067 136.87668L203.4067 141.98605L201.73482 141.98605ZM223.71312 140.7673Q222.77562 141.56418 221.91624 141.88449Q221.05687 142.2048 220.0725 142.2048Q218.46312 142.2048 217.58812 141.41574Q216.71312 140.62668 216.71312 139.3923Q216.71312 138.65793 217.04124 138.06418Q217.36937 137.47043 217.90062 137.11105Q218.43187 136.75168 219.10374 136.56418Q219.60374 136.42355 220.58812 136.31418Q222.61937 136.06418 223.5725 135.73605Q223.5725 135.3923 223.5725 135.29855Q223.5725 134.28293 223.10374 133.86105Q222.46312 133.29855 221.1975 133.29855Q220.02562 133.29855 219.46312 133.7048Q218.90062 134.11105 218.635 135.17355L216.99437 134.93918Q217.22874 133.8923 217.73656 133.25168Q218.24437 132.61105 219.2053 132.25949Q220.16624 131.90793 221.4475 131.90793Q222.71312 131.90793 223.49437 132.2048Q224.27562 132.50168 224.65062 132.9548Q225.02562 133.40793 225.16624 134.09543Q225.26 134.5173 225.26 135.62668L225.26 137.86105Q225.26 140.18918 225.36156 140.80637Q225.46312 141.42355 225.79124 141.98605L224.04124 141.98605Q223.77562 141.47043 223.71312 140.7673ZM223.5725 137.04855Q222.66624 137.40793 220.83812 137.67355Q219.80687 137.81418 219.385 138.00168Q218.96312 138.18918 218.72874 138.54855Q218.49437 138.90793 218.49437 139.34543Q218.49437 140.0173 219.00218 140.46262Q219.51 140.90793 220.47874 140.90793Q221.4475 140.90793 222.1975 140.47824Q222.9475 140.04855 223.30687 139.3298Q223.5725 138.75168 223.5725 137.65793L223.5725 137.04855ZM234.08884 138.37668L235.72946 138.59543Q235.46384 140.28293 234.35446 141.24387Q233.24509 142.2048 231.62009 142.2048Q229.60446 142.2048 228.3779 140.88449Q227.15134 139.56418 227.15134 137.09543Q227.15134 135.50168 227.67477 134.30637Q228.19821 133.11105 229.28415 132.50949Q230.37009 131.90793 231.63571 131.90793Q233.24509 131.90793 234.26071 132.72043Q235.27634 133.53293 235.57321 135.03293L233.94821 135.28293Q233.71384 134.28293 233.12009 133.78293Q232.52634 133.28293 231.69821 133.28293Q230.43259 133.28293 229.64352 134.18918Q228.85446 135.09543 228.85446 137.04855Q228.85446 139.03293 229.62009 139.93137Q230.38571 140.8298 231.60446 140.8298Q232.58884 140.8298 233.24509 140.22824Q233.90134 139.62668 234.08884 138.37668ZM236.97946 141.98605L236.97946 128.3923L238.65134 128.3923L238.65134 133.2673Q239.82321 131.90793 241.60446 131.90793Q242.69821 131.90793 243.5029 132.33762Q244.30759 132.7673 244.65915 133.53293Q245.01071 134.29855 245.01071 135.73605L245.01071 141.98605L243.33884 141.98605L243.33884 135.73605Q243.33884 134.48605 242.79196 133.91574Q242.24509 133.34543 241.26071 133.34543Q240.51071 133.34543 239.86227 133.72824Q239.21384 134.11105 238.93259 134.77512Q238.65134 135.43918 238.65134 136.59543L238.65134 141.98605L236.97946 141.98605ZM247.3708 130.29855L247.3708 128.3923L249.04268 128.3923L249.04268 130.29855L247.3708 130.29855ZM247.3708 141.98605L247.3708 132.12668L249.04268 132.12668L249.04268 141.98605L247.3708 141.98605ZM251.5 141.98605L251.5 132.12668L253.0 132.12668L253.0 133.53293Q254.09375 131.90793 256.14062 131.90793Q257.03125 131.90793 257.78125 132.22824Q258.53125 132.54855 258.89844 133.07199Q259.26562 133.59543 259.42188 134.29855Q259.51562 134.7673 259.51562 135.92355L259.51562 141.98605L257.84375 141.98605L257.84375 135.98605Q257.84375 134.97043 257.64844 134.46262Q257.45312 133.9548 256.95312 133.65793Q256.45312 133.36105 255.78125 133.36105Q254.71875 133.36105 253.94531 134.03293Q253.17188 134.7048 253.17188 136.61105L253.17188 141.98605L251.5 141.98605ZM268.62573 138.81418L270.34448 139.03293Q269.93823 140.53293 268.83667 141.36887Q267.7351 142.2048 266.01636 142.2048Q263.8601 142.2048 262.59448 140.87668Q261.32886 139.54855 261.32886 137.1423Q261.32886 134.65793 262.6023 133.28293Q263.87573 131.90793 265.9226 131.90793Q267.90698 131.90793 269.15698 133.25168Q270.40698 134.59543 270.40698 137.04855Q270.40698 137.18918 270.39136 137.48605L263.0476 137.48605Q263.14136 139.11105 263.96948 139.97043Q264.7976 140.8298 266.03198 140.8298Q266.93823 140.8298 267.58667 140.35324Q268.2351 139.87668 268.62573 138.81418ZM263.14136 136.11105L268.64136 136.11105Q268.53198 134.87668 268.01636 134.25168Q267.21948 133.28293 265.93823 133.28293Q264.7976 133.28293 264.00854 134.05637Q263.21948 134.8298 263.14136 136.11105ZM281.0483 136.03293L272.0483 139.8923L272.0483 138.23605L279.1733 135.2673L272.0483 132.3298L272.0483 130.67355L281.0483 134.48605L281.0483 136.03293ZM291.94327 136.03293L282.94327 139.8923L282.94327 138.23605L290.06827 135.2673L282.94327 132.3298L282.94327 130.67355L291.94327 134.48605L291.94327 136.03293Z" fill-rule="nonzero" fill="#000000"></path><path d="M211.02156 155.48605L211.02156 153.5798L212.92781 153.5798L212.92781 155.48605L211.02156 155.48605ZM211.02156 163.43918L211.02156 161.53293L212.92781 161.53293L212.92781 163.43918L211.02156 163.43918ZM225.65799 158.67355L227.45486 159.12668Q226.89236 161.34543 225.42361 162.50949Q223.95486 163.67355 221.82986 163.67355Q219.62674 163.67355 218.25174 162.77512Q216.87674 161.87668 216.15799 160.18137Q215.43924 158.48605 215.43924 156.53293Q215.43924 154.40793 216.24393 152.8298Q217.04861 151.25168 218.54861 150.43137Q220.04861 149.61105 221.84549 149.61105Q223.89236 149.61105 225.28299 150.65012Q226.67361 151.68918 227.22049 153.56418L225.45486 153.98605Q224.98611 152.50168 224.07986 151.82199Q223.17361 151.1423 221.81424 151.1423Q220.25174 151.1423 219.19705 151.8923Q218.14236 152.6423 217.71268 153.91574Q217.28299 155.18918 217.28299 156.53293Q217.28299 158.2673 217.7908 159.55637Q218.29861 160.84543 219.36893 161.48605Q220.43924 162.12668 221.67361 162.12668Q223.18924 162.12668 224.23611 161.25949Q225.28299 160.3923 225.65799 158.67355ZM229.17781 163.43918L229.17781 149.84543L230.84969 149.84543L230.84969 163.43918L229.17781 163.43918ZM233.3695 151.75168L233.3695 149.84543L235.04138 149.84543L235.04138 151.75168L233.3695 151.75168ZM233.3695 163.43918L233.3695 153.5798L235.04138 153.5798L235.04138 163.43918L233.3695 163.43918ZM244.2487 160.2673L245.96745 160.48605Q245.5612 161.98605 244.45964 162.82199Q243.35808 163.65793 241.63933 163.65793Q239.48308 163.65793 238.21745 162.3298Q236.95183 161.00168 236.95183 158.59543Q236.95183 156.11105 238.22527 154.73605Q239.4987 153.36105 241.54558 153.36105Q243.52995 153.36105 244.77995 154.7048Q246.02995 156.04855 246.02995 158.50168Q246.02995 158.6423 246.01433 158.93918L238.67058 158.93918Q238.76433 160.56418 239.59245 161.42355Q240.42058 162.28293 241.65495 162.28293Q242.5612 162.28293 243.20964 161.80637Q243.85808 161.3298 244.2487 160.2673ZM238.76433 157.56418L244.26433 157.56418Q244.15495 156.3298 243.63933 155.7048Q242.84245 154.73605 241.5612 154.73605Q240.42058 154.73605 239.63152 155.50949Q238.84245 156.28293 238.76433 157.56418ZM247.87442 163.43918L247.87442 153.5798L249.37442 153.5798L249.37442 154.98605Q250.46817 153.36105 252.51505 153.36105Q253.40567 153.36105 254.15567 153.68137Q254.90567 154.00168 255.27286 154.52512Q255.64005 155.04855 255.7963 155.75168Q255.89005 156.22043 255.89005 157.37668L255.89005 163.43918L254.21817 163.43918L254.21817 157.43918Q254.21817 156.42355 254.02286 155.91574Q253.82755 155.40793 253.32755 155.11105Q252.82755 154.81418 252.15567 154.81418Q251.09317 154.81418 250.31973 155.48605Q249.5463 156.15793 249.5463 158.06418L249.5463 163.43918L247.87442 163.43918ZM261.9064 161.93918L262.14078 163.42355Q261.43765 163.56418 260.87515 163.56418Q259.9689 163.56418 259.4689 163.27512Q258.9689 162.98605 258.76578 162.52512Q258.56265 162.06418 258.56265 160.54855L258.56265 154.8923L257.32828 154.8923L257.32828 153.5798L258.56265 153.5798L258.56265 151.1423L260.2189 150.1423L260.2189 153.5798L261.9064 153.5798L261.9064 154.8923L260.2189 154.8923L260.2189 160.6423Q260.2189 161.36105 260.30484 161.56418Q260.39078 161.7673 260.5939 161.8923Q260.79703 162.0173 261.17203 162.0173Q261.43765 162.0173 261.9064 161.93918Z" fill-rule="nonzero" fill="#000000"></path><path d="M332.79825 324.0793L322.6297 313.91077L138.68802 313.91077L138.68802 441.78946L148.85658 451.958L332.79825 451.958ZM332.79825 324.0793L148.85658 324.0793L138.68802 313.91077M148.85658 324.0793L148.85658 451.958" fill-rule="nonzero" stroke="#000000" stroke-width="2.0" stroke-linejoin="round" stroke-linecap="butt"></path><path d="M187.42227 377.50305L187.42227 375.95618L196.42227 372.14368L196.42227 373.79993L189.28165 376.73743L196.42227 379.70618L196.42227 381.36243L187.42227 377.50305ZM198.31723 377.50305L198.31723 375.95618L207.31723 372.14368L207.31723 373.79993L200.1766 376.73743L207.31723 379.70618L207.31723 381.36243L198.31723 377.50305ZM209.41531 387.23743L209.41531 373.5968L210.94656 373.5968L210.94656 374.87805Q211.47781 374.12805 212.1575 373.75305Q212.83719 373.37805 213.79031 373.37805Q215.05594 373.37805 216.02469 374.0265Q216.99344 374.67493 217.48563 375.86243Q217.97781 377.04993 217.97781 378.45618Q217.97781 379.9718 217.43094 381.18274Q216.88406 382.39368 215.85281 383.0343Q214.82156 383.67493 213.68094 383.67493Q212.83719 383.67493 212.17313 383.32336Q211.50906 382.9718 211.08719 382.44055L211.08719 387.23743L209.41531 387.23743ZM210.93094 378.58118Q210.93094 380.48743 211.70438 381.39368Q212.47781 382.29993 213.57156 382.29993Q214.68094 382.29993 215.47 381.36243Q216.25906 380.42493 216.25906 378.44055Q216.25906 376.56555 215.48563 375.62805Q214.71219 374.69055 213.63406 374.69055Q212.57156 374.69055 211.75125 375.69055Q210.93094 376.69055 210.93094 378.58118ZM219.7754 383.45618L219.7754 373.5968L221.2754 373.5968L221.2754 375.0968Q221.85353 374.04993 222.3379 373.714Q222.82228 373.37805 223.41603 373.37805Q224.25978 373.37805 225.13478 373.92493L224.55666 375.4718Q223.94728 375.11243 223.32228 375.11243Q222.7754 375.11243 222.34572 375.44055Q221.91603 375.76868 221.72853 376.3468Q221.44728 377.23743 221.44728 378.29993L221.44728 383.45618L219.7754 383.45618ZM225.37871 378.5343Q225.37871 375.79993 226.90996 374.4718Q228.17558 373.37805 230.00371 373.37805Q232.03496 373.37805 233.32402 374.714Q234.61308 376.04993 234.61308 378.39368Q234.61308 380.29993 234.04277 381.38586Q233.47246 382.4718 232.38652 383.07336Q231.30058 383.67493 230.00371 383.67493Q227.94121 383.67493 226.65996 382.3468Q225.37871 381.01868 225.37871 378.5343ZM227.09746 378.5343Q227.09746 380.42493 227.92558 381.36243Q228.75371 382.29993 230.00371 382.29993Q231.25371 382.29993 232.07402 381.3546Q232.89433 380.4093 232.89433 378.4718Q232.89433 376.64368 232.06621 375.70618Q231.23808 374.76868 230.00371 374.76868Q228.75371 374.76868 227.92558 375.70618Q227.09746 376.64368 227.09746 378.5343ZM242.81693 379.8468L244.45755 380.06555Q244.19193 381.75305 243.08255 382.714Q241.97318 383.67493 240.34818 383.67493Q238.33255 383.67493 237.10599 382.3546Q235.87943 381.0343 235.87943 378.56555Q235.87943 376.9718 236.40286 375.7765Q236.9263 374.58118 238.01224 373.9796Q239.09818 373.37805 240.3638 373.37805Q241.97318 373.37805 242.9888 374.19055Q244.00443 375.00305 244.3013 376.50305L242.6763 376.75305Q242.44193 375.75305 241.84818 375.25305Q241.25443 374.75305 240.4263 374.75305Q239.16068 374.75305 238.37161 375.6593Q237.58255 376.56555 237.58255 378.51868Q237.58255 380.50305 238.34818 381.4015Q239.1138 382.29993 240.33255 382.29993Q241.31693 382.29993 241.97318 381.69836Q242.62943 381.0968 242.81693 379.8468ZM252.45755 380.2843L254.1763 380.50305Q253.77005 382.00305 252.66849 382.839Q251.56693 383.67493 249.84818 383.67493Q247.69193 383.67493 246.4263 382.3468Q245.16068 381.01868 245.16068 378.61243Q245.16068 376.12805 246.43411 374.75305Q247.70755 373.37805 249.75443 373.37805Q251.7388 373.37805 252.9888 374.7218Q254.2388 376.06555 254.2388 378.51868Q254.2388 378.6593 254.22318 378.95618L246.87943 378.95618Q246.97318 380.58118 247.8013 381.44055Q248.62943 382.29993 249.8638 382.29993Q250.77005 382.29993 251.41849 381.82336Q252.06693 381.3468 252.45755 380.2843ZM246.97318 377.58118L252.47318 377.58118Q252.3638 376.3468 251.84818 375.7218Q251.0513 374.75305 249.77005 374.75305Q248.62943 374.75305 247.84036 375.5265Q247.0513 376.29993 246.97318 377.58118ZM255.41139 380.51868L257.06763 380.25305Q257.20825 381.25305 257.84106 381.7765Q258.47388 382.29993 259.6145 382.29993Q260.77075 382.29993 261.32544 381.83118Q261.88013 381.36243 261.88013 380.73743Q261.88013 380.17493 261.39575 379.8468Q261.052 379.62805 259.69263 379.2843Q257.84888 378.81555 257.13794 378.4796Q256.427 378.14368 256.0598 377.5421Q255.69264 376.94055 255.69264 376.2218Q255.69264 375.56555 255.99733 375.00305Q256.302 374.44055 256.81763 374.06555Q257.20825 373.7843 257.88013 373.58118Q258.552 373.37805 259.31763 373.37805Q260.4895 373.37805 261.3645 373.714Q262.2395 374.04993 262.65356 374.62024Q263.06763 375.19055 263.22388 376.14368L261.59888 376.36243Q261.4895 375.61243 260.95044 375.18274Q260.41138 374.75305 259.44263 374.75305Q258.28638 374.75305 257.802 375.13586Q257.31763 375.51868 257.31763 376.01868Q257.31763 376.3468 257.52075 376.61243Q257.72388 376.87805 258.16138 377.04993Q258.41138 377.14368 259.63013 377.48743Q261.39575 377.95618 262.09888 378.25305Q262.802 378.54993 263.20044 379.12805Q263.59888 379.70618 263.59888 380.56555Q263.59888 381.39368 263.1145 382.13586Q262.63013 382.87805 261.70825 383.2765Q260.78638 383.67493 259.63013 383.67493Q257.70825 383.67493 256.70044 382.87805Q255.69264 382.08118 255.41139 380.51868ZM264.7395 380.51868L266.39575 380.25305Q266.53638 381.25305 267.1692 381.7765Q267.802 382.29993 268.94263 382.29993Q270.09888 382.29993 270.65356 381.83118Q271.20825 381.36243 271.20825 380.73743Q271.20825 380.17493 270.72388 379.8468Q270.38013 379.62805 269.02075 379.2843Q267.177 378.81555 266.46606 378.4796Q265.75513 378.14368 265.38794 377.5421Q265.02075 376.94055 265.02075 376.2218Q265.02075 375.56555 265.32544 375.00305Q265.63013 374.44055 266.14575 374.06555Q266.53638 373.7843 267.20825 373.58118Q267.88013 373.37805 268.64575 373.37805Q269.81763 373.37805 270.69263 373.714Q271.56763 374.04993 271.9817 374.62024Q272.39575 375.19055 272.552 376.14368L270.927 376.36243Q270.81763 375.61243 270.27856 375.18274Q269.7395 374.75305 268.77075 374.75305Q267.6145 374.75305 267.13013 375.13586Q266.64575 375.51868 266.64575 376.01868Q266.64575 376.3468 266.84888 376.61243Q267.052 376.87805 267.4895 377.04993Q267.7395 377.14368 268.95825 377.48743Q270.72388 377.95618 271.427 378.25305Q272.13013 378.54993 272.52856 379.12805Q272.927 379.70618 272.927 380.56555Q272.927 381.39368 272.44263 382.13586Q271.95825 382.87805 271.03638 383.2765Q270.1145 383.67493 268.95825 383.67493Q267.03638 383.67493 266.02856 382.87805Q265.02075 382.08118 264.7395 380.51868ZM283.53638 377.50305L274.53638 381.36243L274.53638 379.70618L281.66138 376.73743L274.53638 373.79993L274.53638 372.14368L283.53638 375.95618L283.53638 377.50305ZM294.43134 377.50305L285.43134 381.36243L285.43134 379.70618L292.55634 376.73743L285.43134 373.79993L285.43134 372.14368L294.43134 375.95618L294.43134 377.50305Z" fill-rule="nonzero" fill="#000000"></path><path d="M185.00146 396.95618L185.00146 395.04993L186.90771 395.04993L186.90771 396.95618L185.00146 396.95618ZM185.00146 404.9093L185.00146 403.00305L186.90771 403.00305L186.90771 404.9093L185.00146 404.9093ZM189.71602 404.9093L189.71602 395.04993L191.21602 395.04993L191.21602 396.44055Q191.66914 395.7218 192.44258 395.2765Q193.21602 394.83118 194.2004 394.83118Q195.29414 394.83118 195.99727 395.2843Q196.7004 395.73743 196.98164 396.56555Q198.15352 394.83118 200.02852 394.83118Q201.49727 394.83118 202.28633 395.64368Q203.0754 396.45618 203.0754 398.14368L203.0754 404.9093L201.40352 404.9093L201.40352 398.70618Q201.40352 397.70618 201.24727 397.26086Q201.09102 396.81555 200.66133 396.54993Q200.23164 396.2843 199.65352 396.2843Q198.62227 396.2843 197.93477 396.9718Q197.24727 397.6593 197.24727 399.19055L197.24727 404.9093L195.5754 404.9093L195.5754 398.50305Q195.5754 397.39368 195.16914 396.839Q194.7629 396.2843 193.8254 396.2843Q193.12227 396.2843 192.5207 396.6515Q191.91914 397.01868 191.65352 397.73743Q191.3879 398.45618 191.3879 399.79993L191.3879 404.9093L189.71602 404.9093ZM204.63182 399.98743Q204.63182 397.25305 206.16307 395.92493Q207.4287 394.83118 209.25682 394.83118Q211.28807 394.83118 212.57713 396.1671Q213.8662 397.50305 213.8662 399.8468Q213.8662 401.75305 213.29588 402.839Q212.72557 403.92493 211.63963 404.5265Q210.5537 405.12805 209.25682 405.12805Q207.19432 405.12805 205.91307 403.79993Q204.63182 402.4718 204.63182 399.98743ZM206.35057 399.98743Q206.35057 401.87805 207.1787 402.81555Q208.00682 403.75305 209.25682 403.75305Q210.50682 403.75305 211.32713 402.80774Q212.14745 401.86243 212.14745 399.92493Q212.14745 398.0968 211.31932 397.1593Q210.4912 396.2218 209.25682 396.2218Q208.00682 396.2218 207.1787 397.1593Q206.35057 398.0968 206.35057 399.98743ZM215.63254 404.9093L215.63254 395.04993L217.13254 395.04993L217.13254 396.45618Q218.22629 394.83118 220.27316 394.83118Q221.16379 394.83118 221.91379 395.1515Q222.66379 395.4718 223.03098 395.99524Q223.39816 396.51868 223.55441 397.2218Q223.64816 397.69055 223.64816 398.8468L223.64816 404.9093L221.97629 404.9093L221.97629 398.9093Q221.97629 397.89368 221.78098 397.38586Q221.58566 396.87805 221.08566 396.58118Q220.58566 396.2843 219.91379 396.2843Q218.85129 396.2843 218.07785 396.95618Q217.30441 397.62805 217.30441 399.5343L217.30441 404.9093L215.63254 404.9093ZM226.02388 393.2218L226.02388 391.31555L227.69576 391.31555L227.69576 393.2218L226.02388 393.2218ZM226.02388 404.9093L226.02388 395.04993L227.69576 395.04993L227.69576 404.9093L226.02388 404.9093ZM233.80933 403.4093L234.0437 404.89368Q233.34058 405.0343 232.77808 405.0343Q231.87183 405.0343 231.37183 404.74524Q230.87183 404.45618 230.6687 403.99524Q230.46558 403.5343 230.46558 402.01868L230.46558 396.36243L229.2312 396.36243L229.2312 395.04993L230.46558 395.04993L230.46558 392.61243L232.12183 391.61243L232.12183 395.04993L233.80933 395.04993L233.80933 396.36243L232.12183 396.36243L232.12183 402.11243Q232.12183 402.83118 232.20776 403.0343Q232.2937 403.23743 232.49683 403.36243Q232.69995 403.48743 233.07495 403.48743Q233.34058 403.48743 233.80933 403.4093ZM234.71138 399.98743Q234.71138 397.25305 236.24263 395.92493Q237.50826 394.83118 239.33638 394.83118Q241.36763 394.83118 242.6567 396.1671Q243.94576 397.50305 243.94576 399.8468Q243.94576 401.75305 243.37544 402.839Q242.80513 403.92493 241.7192 404.5265Q240.63326 405.12805 239.33638 405.12805Q237.27388 405.12805 235.99263 403.79993Q234.71138 402.4718 234.71138 399.98743ZM236.43013 399.98743Q236.43013 401.87805 237.25826 402.81555Q238.08638 403.75305 239.33638 403.75305Q240.58638 403.75305 241.4067 402.80774Q242.227 401.86243 242.227 399.92493Q242.227 398.0968 241.39888 397.1593Q240.57076 396.2218 239.33638 396.2218Q238.08638 396.2218 237.25826 397.1593Q236.43013 398.0968 236.43013 399.98743ZM245.69647 404.9093L245.69647 395.04993L247.19647 395.04993L247.19647 396.54993Q247.7746 395.50305 248.25897 395.1671Q248.74335 394.83118 249.3371 394.83118Q250.18085 394.83118 251.05585 395.37805L250.47772 396.92493Q249.86835 396.56555 249.24335 396.56555Q248.69647 396.56555 248.26678 396.89368Q247.8371 397.2218 247.6496 397.79993Q247.36835 398.69055 247.36835 399.75305L247.36835 404.9093L245.69647 404.9093ZM261.84665 400.14368L263.64352 400.5968Q263.08102 402.81555 261.61227 403.9796Q260.14352 405.14368 258.01852 405.14368Q255.8154 405.14368 254.4404 404.24524Q253.0654 403.3468 252.34665 401.6515Q251.6279 399.95618 251.6279 398.00305Q251.6279 395.87805 252.43259 394.29993Q253.23727 392.7218 254.73727 391.9015Q256.23727 391.08118 258.03415 391.08118Q260.08102 391.08118 261.47165 392.12024Q262.86227 393.1593 263.40915 395.0343L261.64352 395.45618Q261.17477 393.9718 260.26852 393.2921Q259.36227 392.61243 258.0029 392.61243Q256.4404 392.61243 255.38571 393.36243Q254.33102 394.11243 253.90134 395.38586Q253.47165 396.6593 253.47165 398.00305Q253.47165 399.73743 253.97946 401.0265Q254.48727 402.31555 255.55759 402.95618Q256.6279 403.5968 257.86227 403.5968Q259.3779 403.5968 260.42477 402.7296Q261.47165 401.86243 261.84665 400.14368ZM265.3665 404.9093L265.3665 391.31555L267.03836 391.31555L267.03836 404.9093L265.3665 404.9093ZM269.55817 393.2218L269.55817 391.31555L271.23004 391.31555L271.23004 393.2218L269.55817 393.2218ZM269.55817 404.9093L269.55817 395.04993L271.23004 395.04993L271.23004 404.9093L269.55817 404.9093ZM280.43735 401.73743L282.1561 401.95618Q281.74985 403.45618 280.6483 404.2921Q279.54672 405.12805 277.82797 405.12805Q275.67175 405.12805 274.40613 403.79993Q273.1405 402.4718 273.1405 400.06555Q273.1405 397.58118 274.41394 396.20618Q275.68738 394.83118 277.73422 394.83118Q279.7186 394.83118 280.9686 396.17493Q282.2186 397.51868 282.2186 399.9718Q282.2186 400.11243 282.20297 400.4093L274.85925 400.4093Q274.953 402.0343 275.78113 402.89368Q276.60925 403.75305 277.8436 403.75305Q278.74985 403.75305 279.3983 403.2765Q280.04672 402.79993 280.43735 401.73743ZM274.953 399.0343L280.45297 399.0343Q280.3436 397.79993 279.82797 397.17493Q279.0311 396.20618 277.74985 396.20618Q276.60925 396.20618 275.8202 396.9796Q275.03113 397.75305 274.953 399.0343ZM284.06308 404.9093L284.06308 395.04993L285.56308 395.04993L285.56308 396.45618Q286.65683 394.83118 288.7037 394.83118Q289.59433 394.83118 290.34433 395.1515Q291.09433 395.4718 291.46152 395.99524Q291.8287 396.51868 291.98495 397.2218Q292.0787 397.69055 292.0787 398.8468L292.0787 404.9093L290.40683 404.9093L290.40683 398.9093Q290.40683 397.89368 290.21152 397.38586Q290.0162 396.87805 289.5162 396.58118Q289.0162 396.2843 288.34433 396.2843Q287.28183 396.2843 286.5084 396.95618Q285.73495 397.62805 285.73495 399.5343L285.73495 404.9093L284.06308 404.9093ZM298.09503 403.4093L298.3294 404.89368Q297.62628 405.0343 297.06378 405.0343Q296.15753 405.0343 295.65753 404.74524Q295.15753 404.45618 294.9544 403.99524Q294.75128 403.5343 294.75128 402.01868L294.75128 396.36243L293.5169 396.36243L293.5169 395.04993L294.75128 395.04993L294.75128 392.61243L296.40753 391.61243L296.40753 395.04993L298.09503 395.04993L298.09503 396.36243L296.40753 396.36243L296.40753 402.11243Q296.40753 402.83118 296.49347 403.0343Q296.5794 403.23743 296.78253 403.36243Q296.98566 403.48743 297.36066 403.48743Q297.62628 403.48743 298.09503 403.4093Z" fill-rule="nonzero" fill="#000000"></path><path d="M434.63046 229.28537L434.63046 227.7385L443.63046 223.926L443.63046 225.58224L436.48984 228.51974L443.63046 231.4885L443.63046 233.14474L434.63046 229.28537ZM445.52542 229.28537L445.52542 227.7385L454.52542 223.926L454.52542 225.58224L447.3848 228.51974L454.52542 231.4885L454.52542 233.14474L445.52542 229.28537ZM456.6235 239.01974L456.6235 225.37912L458.15475 225.37912L458.15475 226.66037Q458.686 225.91037 459.3657 225.53537Q460.04538 225.16037 460.9985 225.16037Q462.26413 225.16037 463.23288 225.8088Q464.20163 226.45724 464.69382 227.64474Q465.186 228.83224 465.186 230.2385Q465.186 231.75412 464.63913 232.96506Q464.09225 234.176 463.061 234.81662Q462.02975 235.45724 460.88913 235.45724Q460.04538 235.45724 459.38132 235.10568Q458.71725 234.75412 458.29538 234.22287L458.29538 239.01974L456.6235 239.01974ZM458.13913 230.3635Q458.13913 232.26974 458.91257 233.176Q459.686 234.08224 460.77975 234.08224Q461.88913 234.08224 462.6782 233.14474Q463.46725 232.20724 463.46725 230.22287Q463.46725 228.34787 462.69382 227.41037Q461.92038 226.47287 460.84225 226.47287Q459.77975 226.47287 458.95944 227.47287Q458.13913 228.47287 458.13913 230.3635ZM469.7336 235.2385L465.9836 225.37912L467.74924 225.37912L469.87424 231.28537Q470.218 232.2385 470.49924 233.26974Q470.718 232.4885 471.12424 231.39474L473.31174 225.37912L475.0305 225.37912L471.2961 235.2385L469.7336 235.2385ZM475.0461 235.2385L480.2805 221.64474L482.218 221.64474L487.7805 235.2385L485.7336 235.2385L484.13986 231.1135L478.45236 231.1135L476.968 235.2385L475.0461 235.2385ZM478.968 229.66037L483.57736 229.66037L482.1711 225.87912Q481.51486 224.176 481.20236 223.06662Q480.93674 224.37912 480.468 225.66037L478.968 229.66037ZM495.20844 231.62912L496.84906 231.84787Q496.58344 233.53537 495.47406 234.4963Q494.3647 235.45724 492.7397 235.45724Q490.72406 235.45724 489.4975 234.13693Q488.27094 232.81662 488.27094 230.34787Q488.27094 228.75412 488.79437 227.5588Q489.3178 226.3635 490.40375 225.76193Q491.4897 225.16037 492.7553 225.16037Q494.3647 225.16037 495.3803 225.97287Q496.39594 226.78537 496.6928 228.28537L495.0678 228.53537Q494.83344 227.53537 494.2397 227.03537Q493.64594 226.53537 492.8178 226.53537Q491.5522 226.53537 490.76312 227.44162Q489.97406 228.34787 489.97406 230.301Q489.97406 232.28537 490.7397 233.1838Q491.5053 234.08224 492.72406 234.08224Q493.70844 234.08224 494.3647 233.48068Q495.02094 232.87912 495.20844 231.62912ZM504.53656 231.62912L506.1772 231.84787Q505.91156 233.53537 504.8022 234.4963Q503.6928 235.45724 502.0678 235.45724Q500.0522 235.45724 498.82562 234.13693Q497.59906 232.81662 497.59906 230.34787Q497.59906 228.75412 498.1225 227.5588Q498.64594 226.3635 499.73187 225.76193Q500.8178 225.16037 502.08344 225.16037Q503.6928 225.16037 504.70844 225.97287Q505.72406 226.78537 506.02094 228.28537L504.39594 228.53537Q504.16156 227.53537 503.5678 227.03537Q502.97406 226.53537 502.14594 226.53537Q500.8803 226.53537 500.09125 227.44162Q499.3022 228.34787 499.3022 230.301Q499.3022 232.28537 500.0678 233.1838Q500.83344 234.08224 502.0522 234.08224Q503.03656 234.08224 503.6928 233.48068Q504.34906 232.87912 504.53656 231.62912ZM514.1772 232.06662L515.89594 232.28537Q515.4897 233.78537 514.3881 234.6213Q513.28656 235.45724 511.5678 235.45724Q509.41156 235.45724 508.14594 234.12912Q506.8803 232.801 506.8803 230.39474Q506.8803 227.91037 508.15375 226.53537Q509.4272 225.16037 511.47406 225.16037Q513.45844 225.16037 514.70844 226.50412Q515.95844 227.84787 515.95844 230.301Q515.95844 230.44162 515.9428 230.7385L508.59906 230.7385Q508.6928 232.3635 509.52094 233.22287Q510.34906 234.08224 511.58344 234.08224Q512.4897 234.08224 513.1381 233.60568Q513.78656 233.12912 514.1772 232.06662ZM508.6928 229.3635L514.1928 229.3635Q514.08344 228.12912 513.5678 227.50412Q512.77094 226.53537 511.4897 226.53537Q510.34906 226.53537 509.56 227.3088Q508.77094 228.08224 508.6928 229.3635ZM517.13104 232.301L518.7873 232.03537Q518.9279 233.03537 519.5607 233.5588Q520.19354 234.08224 521.33417 234.08224Q522.4904 234.08224 523.0451 233.6135Q523.5998 233.14474 523.5998 232.51974Q523.5998 231.95724 523.1154 231.62912Q522.77167 231.41037 521.4123 231.06662Q519.56854 230.59787 518.8576 230.26193Q518.14667 229.926 517.7795 229.32443Q517.4123 228.72287 517.4123 228.00412Q517.4123 227.34787 517.717 226.78537Q518.02167 226.22287 518.5373 225.84787Q518.9279 225.56662 519.5998 225.3635Q520.27167 225.16037 521.0373 225.16037Q522.20917 225.16037 523.08417 225.4963Q523.95917 225.83224 524.3732 226.40256Q524.7873 226.97287 524.94354 227.926L523.31854 228.14474Q523.20917 227.39474 522.6701 226.96506Q522.13104 226.53537 521.1623 226.53537Q520.00604 226.53537 519.52167 226.91818Q519.0373 227.301 519.0373 227.801Q519.0373 228.12912 519.2404 228.39474Q519.44354 228.66037 519.88104 228.83224Q520.13104 228.926 521.3498 229.26974Q523.1154 229.7385 523.81854 230.03537Q524.52167 230.33224 524.9201 230.91037Q525.31854 231.4885 525.31854 232.34787Q525.31854 233.176 524.83417 233.91818Q524.3498 234.66037 523.4279 235.0588Q522.50604 235.45724 521.3498 235.45724Q519.4279 235.45724 518.4201 234.66037Q517.4123 233.8635 517.13104 232.301ZM526.45917 232.301L528.1154 232.03537Q528.25604 233.03537 528.88885 233.5588Q529.52167 234.08224 530.6623 234.08224Q531.81854 234.08224 532.3732 233.6135Q532.9279 233.14474 532.9279 232.51974Q532.9279 231.95724 532.44354 231.62912Q532.0998 231.41037 530.7404 231.06662Q528.89667 230.59787 528.1857 230.26193Q527.4748 229.926 527.1076 229.32443Q526.7404 228.72287 526.7404 228.00412Q526.7404 227.34787 527.0451 226.78537Q527.3498 226.22287 527.8654 225.84787Q528.25604 225.56662 528.9279 225.3635Q529.5998 225.16037 530.3654 225.16037Q531.5373 225.16037 532.4123 225.4963Q533.2873 225.83224 533.70135 226.40256Q534.1154 226.97287 534.27167 227.926L532.64667 228.14474Q532.5373 227.39474 531.9982 226.96506Q531.45917 226.53537 530.4904 226.53537Q529.33417 226.53537 528.8498 226.91818Q528.3654 227.301 528.3654 227.801Q528.3654 228.12912 528.56854 228.39474Q528.77167 228.66037 529.20917 228.83224Q529.45917 228.926 530.6779 229.26974Q532.44354 229.7385 533.14667 230.03537Q533.8498 230.33224 534.2482 230.91037Q534.64667 231.4885 534.64667 232.34787Q534.64667 233.176 534.1623 233.91818Q533.6779 234.66037 532.75604 235.0588Q531.83417 235.45724 530.6779 235.45724Q528.75604 235.45724 527.7482 234.66037Q526.7404 233.8635 526.45917 232.301ZM545.25604 229.28537L536.25604 233.14474L536.25604 231.4885L543.38104 228.51974L536.25604 225.58224L536.25604 223.926L545.25604 227.7385L545.25604 229.28537ZM556.151 229.28537L547.151 233.14474L547.151 231.4885L554.276 228.51974L547.151 225.58224L547.151 223.926L556.151 227.7385L556.151 229.28537Z" fill-rule="nonzero" fill="#000000"></path><path d="M626.66095 277.07443L367.85333 277.07443" fill-rule="nonzero" stroke="#000000" stroke-width="2.0" stroke-linejoin="round" stroke-linecap="butt"></path><path d="M704.9775 180.60056L704.9775 179.28806L712.5712 176.08493L712.5712 177.49118L706.5556 179.95993L712.5712 182.4443L712.5712 183.85056L704.9775 180.60056ZM714.3212 180.60056L714.3212 179.28806L721.915 176.08493L721.915 177.49118L715.89935 179.95993L721.915 182.4443L721.915 183.85056L714.3212 180.60056ZM723.8525 188.80368L723.8525 177.3193L725.1337 177.3193L725.1337 178.39743Q725.58685 177.7568 726.15717 177.4443Q726.7275 177.1318 727.54 177.1318Q728.6025 177.1318 729.415 177.67868Q730.2275 178.22556 730.64154 179.21774Q731.0556 180.20993 731.0556 181.39743Q731.0556 182.67868 730.59467 183.6943Q730.1337 184.70993 729.26654 185.2568Q728.39935 185.80368 727.4306 185.80368Q726.7275 185.80368 726.1728 185.5068Q725.6181 185.20993 725.2587 184.7568L725.2587 188.80368L723.8525 188.80368ZM725.1181 181.5068Q725.1181 183.11618 725.76654 183.8818Q726.415 184.64743 727.33685 184.64743Q728.27435 184.64743 728.9462 183.85056Q729.6181 183.05368 729.6181 181.39743Q729.6181 179.80368 728.96185 179.01462Q728.3056 178.22556 727.39935 178.22556Q726.5087 178.22556 725.8134 179.0693Q725.1181 179.91306 725.1181 181.5068ZM732.7353 185.61618L732.7353 177.3193L734.0009 177.3193L734.0009 178.5693Q734.4853 177.6943 734.89154 177.41306Q735.2978 177.1318 735.7978 177.1318Q736.5009 177.1318 737.2353 177.58493L736.7509 178.8818Q736.2353 178.58493 735.71967 178.58493Q735.26654 178.58493 734.89935 178.85837Q734.53217 179.1318 734.3759 179.6318Q734.14154 180.3818 734.14154 181.27243L734.14154 185.61618L732.7353 185.61618ZM737.5478 181.45993Q737.5478 179.16306 738.82904 178.05368Q739.90717 177.1318 741.4384 177.1318Q743.15717 177.1318 744.2431 178.249Q745.32904 179.36618 745.32904 181.35056Q745.32904 182.9443 744.84467 183.86618Q744.3603 184.78806 743.4462 185.29587Q742.53217 185.80368 741.4384 185.80368Q739.70404 185.80368 738.6259 184.6865Q737.5478 183.5693 737.5478 181.45993ZM739.0009 181.45993Q739.0009 183.05368 739.6962 183.85056Q740.39154 184.64743 741.4384 184.64743Q742.4853 184.64743 743.1806 183.85056Q743.8759 183.05368 743.8759 181.41306Q743.8759 179.8818 743.1806 179.08493Q742.4853 178.28806 741.4384 178.28806Q740.39154 178.28806 739.6962 179.07712Q739.0009 179.86618 739.0009 181.45993ZM752.3837 182.5693L753.77435 182.7568Q753.54 184.17868 752.6103 184.99118Q751.6806 185.80368 750.3212 185.80368Q748.6181 185.80368 747.57904 184.6865Q746.54 183.5693 746.54 181.49118Q746.54 180.14743 746.9853 179.13962Q747.4306 178.1318 748.34467 177.6318Q749.2587 177.1318 750.3212 177.1318Q751.6806 177.1318 752.54 177.8115Q753.39935 178.49118 753.6337 179.7568L752.27435 179.95993Q752.0712 179.1318 751.57904 178.70993Q751.08685 178.28806 750.3837 178.28806Q749.3212 178.28806 748.65717 179.04587Q747.9931 179.80368 747.9931 181.45993Q747.9931 183.1318 748.6337 183.88962Q749.27435 184.64743 750.3056 184.64743Q751.1337 184.64743 751.6884 184.13962Q752.2431 183.6318 752.3837 182.5693ZM760.64935 182.9443L762.1025 183.11618Q761.7587 184.39743 760.82904 185.10056Q759.89935 185.80368 758.46185 185.80368Q756.6337 185.80368 755.5712 184.67868Q754.5087 183.55368 754.5087 181.53806Q754.5087 179.4443 755.58685 178.28806Q756.665 177.1318 758.3837 177.1318Q760.04 177.1318 761.09467 178.26462Q762.14935 179.39743 762.14935 181.4443Q762.14935 181.5693 762.14935 181.8193L755.96185 181.8193Q756.04 183.1943 756.7353 183.92087Q757.4306 184.64743 758.46185 184.64743Q759.2431 184.64743 759.79 184.24118Q760.33685 183.83493 760.64935 182.9443ZM756.04 180.66306L760.665 180.66306Q760.5712 179.61618 760.1337 179.10056Q759.46185 178.28806 758.39935 178.28806Q757.4306 178.28806 756.76654 178.9365Q756.1025 179.58493 756.04 180.66306ZM763.3134 183.1318L764.70404 182.91306Q764.8134 183.7568 765.3525 184.20212Q765.89154 184.64743 766.84467 184.64743Q767.8134 184.64743 768.28217 184.249Q768.7509 183.85056 768.7509 183.3193Q768.7509 182.85056 768.34467 182.5693Q768.0478 182.3818 766.90717 182.10056Q765.3603 181.70993 764.7587 181.42087Q764.15717 181.1318 763.8525 180.6318Q763.5478 180.1318 763.5478 179.52243Q763.5478 178.95993 763.7978 178.49118Q764.0478 178.02243 764.4853 177.70993Q764.8134 177.45993 765.3837 177.29587Q765.95404 177.1318 766.59467 177.1318Q767.57904 177.1318 768.3134 177.41306Q769.0478 177.6943 769.39935 178.17087Q769.7509 178.64743 769.89154 179.45993L768.51654 179.64743Q768.4228 179.0068 767.96967 178.64743Q767.51654 178.28806 766.70404 178.28806Q765.7353 178.28806 765.3212 178.60837Q764.90717 178.92868 764.90717 179.35056Q764.90717 179.6318 765.07904 179.85056Q765.2509 180.0693 765.6103 180.22556Q765.82904 180.30368 766.8603 180.58493Q768.34467 180.97556 768.9384 181.23337Q769.53217 181.49118 769.8681 181.97556Q770.20404 182.45993 770.20404 183.17868Q770.20404 183.8818 769.79 184.499Q769.3759 185.11618 768.6025 185.45993Q767.82904 185.80368 766.8603 185.80368Q765.2353 185.80368 764.39154 185.1318Q763.5478 184.45993 763.3134 183.1318ZM771.3134 183.1318L772.70404 182.91306Q772.8134 183.7568 773.3525 184.20212Q773.89154 184.64743 774.84467 184.64743Q775.8134 184.64743 776.28217 184.249Q776.7509 183.85056 776.7509 183.3193Q776.7509 182.85056 776.34467 182.5693Q776.0478 182.3818 774.90717 182.10056Q773.3603 181.70993 772.7587 181.42087Q772.15717 181.1318 771.8525 180.6318Q771.5478 180.1318 771.5478 179.52243Q771.5478 178.95993 771.7978 178.49118Q772.0478 178.02243 772.4853 177.70993Q772.8134 177.45993 773.3837 177.29587Q773.95404 177.1318 774.59467 177.1318Q775.57904 177.1318 776.3134 177.41306Q777.0478 177.6943 777.39935 178.17087Q777.7509 178.64743 777.89154 179.45993L776.51654 179.64743Q776.4228 179.0068 775.96967 178.64743Q775.51654 178.28806 774.70404 178.28806Q773.7353 178.28806 773.3212 178.60837Q772.90717 178.92868 772.90717 179.35056Q772.90717 179.6318 773.07904 179.85056Q773.2509 180.0693 773.6103 180.22556Q773.82904 180.30368 774.8603 180.58493Q776.34467 180.97556 776.9384 181.23337Q777.53217 181.49118 777.8681 181.97556Q778.20404 182.45993 778.20404 183.17868Q778.20404 183.8818 777.79 184.499Q777.3759 185.11618 776.6025 185.45993Q775.82904 185.80368 774.8603 185.80368Q773.2353 185.80368 772.39154 185.1318Q771.5478 184.45993 771.3134 183.1318ZM787.28217 180.60056L779.6884 183.85056L779.6884 182.4443L785.70404 179.95993L779.6884 177.49118L779.6884 176.08493L787.28217 179.28806L787.28217 180.60056ZM796.6259 180.60056L789.03217 183.85056L789.03217 182.4443L795.0478 179.95993L789.03217 177.49118L789.03217 176.08493L796.6259 179.28806L796.6259 180.60056Z" fill-rule="nonzero" fill="#000000"></path><path d="M701.1298 197.3193L701.1298 195.72556L702.7236 195.72556L702.7236 197.3193L701.1298 197.3193ZM701.1298 204.02243L701.1298 202.41306L702.7236 202.41306L702.7236 204.02243L701.1298 204.02243ZM705.38763 204.02243L705.38763 192.5693L713.6689 192.5693L713.6689 193.91306L706.90326 193.91306L706.90326 197.42868L713.247 197.42868L713.247 198.77243L706.90326 198.77243L706.90326 202.66306L713.9345 202.66306L713.9345 204.02243L705.38763 204.02243ZM716.02826 204.02243L716.02826 192.5693L720.3564 192.5693Q721.497 192.5693 722.09076 192.67868Q722.9345 192.8193 723.5048 193.20993Q724.07513 193.60056 724.4267 194.3115Q724.77826 195.02243 724.77826 195.8818Q724.77826 197.33493 723.8486 198.35056Q722.9189 199.36618 720.4814 199.36618L717.5439 199.36618L717.5439 204.02243L716.02826 204.02243ZM717.5439 198.0068L720.51263 198.0068Q721.9814 198.0068 722.5986 197.45993Q723.21576 196.91306 723.21576 195.92868Q723.21576 195.20993 722.8486 194.6943Q722.4814 194.17868 721.88763 194.02243Q721.51263 193.91306 720.4814 193.91306L717.5439 193.91306L717.5439 198.0068ZM726.96576 204.02243L726.96576 192.5693L728.4814 192.5693L728.4814 204.02243L726.96576 204.02243ZM739.3173 200.0068L740.83295 200.3818Q740.3642 202.2568 739.122 203.24118Q737.8798 204.22556 736.0986 204.22556Q734.2392 204.22556 733.08295 203.46774Q731.9267 202.70993 731.3173 201.28024Q730.70795 199.85056 730.70795 198.20993Q730.70795 196.41306 731.39545 195.08493Q732.08295 193.7568 733.34076 193.0615Q734.5986 192.36618 736.1142 192.36618Q737.83295 192.36618 739.0048 193.24118Q740.1767 194.11618 740.64545 195.70993L739.14545 196.05368Q738.7548 194.80368 737.997 194.23337Q737.2392 193.66306 736.08295 193.66306Q734.77045 193.66306 733.8798 194.29587Q732.9892 194.92868 732.6298 195.999Q732.27045 197.0693 732.27045 198.1943Q732.27045 199.66306 732.70013 200.749Q733.1298 201.83493 734.02826 202.374Q734.9267 202.91306 735.9736 202.91306Q737.2392 202.91306 738.122 202.17868Q739.0048 201.4443 739.3173 200.0068ZM742.1845 200.33493L743.622 200.20993Q743.71576 201.0693 744.09076 201.624Q744.46576 202.17868 745.247 202.51462Q746.02826 202.85056 746.997 202.85056Q747.872 202.85056 748.5361 202.59274Q749.20013 202.33493 749.52045 201.88962Q749.84076 201.4443 749.84076 200.91306Q749.84076 200.36618 749.52826 199.96774Q749.21576 199.5693 748.497 199.28806Q748.0439 199.11618 746.46576 198.73337Q744.88763 198.35056 744.247 198.02243Q743.4345 197.58493 743.02826 196.95212Q742.622 196.3193 742.622 195.52243Q742.622 194.66306 743.1142 193.90524Q743.6064 193.14743 744.5517 192.7568Q745.497 192.36618 746.65326 192.36618Q747.9345 192.36618 748.90326 192.78024Q749.872 193.1943 750.39545 193.99118Q750.9189 194.78806 750.96576 195.78806L749.51263 195.89743Q749.38763 194.8193 748.71576 194.26462Q748.0439 193.70993 746.71576 193.70993Q745.34076 193.70993 744.71576 194.20993Q744.09076 194.70993 744.09076 195.42868Q744.09076 196.03806 744.52826 196.4443Q744.96576 196.83493 746.8173 197.2568Q748.6689 197.67868 749.3564 197.99118Q750.3564 198.4443 750.83295 199.15524Q751.3095 199.86618 751.3095 200.78806Q751.3095 201.6943 750.7861 202.5068Q750.26263 203.3193 749.27826 203.77243Q748.2939 204.22556 747.07513 204.22556Q745.51263 204.22556 744.46576 203.76462Q743.4189 203.30368 742.8173 202.39743Q742.21576 201.49118 742.1845 200.33493ZM755.497 204.02243L752.34076 195.72556L753.82513 195.72556L755.6064 200.6943Q755.90326 201.49118 756.13763 202.36618Q756.32513 201.70993 756.6689 200.78806L758.51263 195.72556L759.95013 195.72556L756.8095 204.02243L755.497 204.02243ZM760.8095 200.99118L762.21576 200.80368Q762.46576 202.0068 763.0439 202.53024Q763.622 203.05368 764.46576 203.05368Q765.45013 203.05368 766.13763 202.36618Q766.82513 201.67868 766.82513 200.66306Q766.82513 199.6943 766.1923 199.0693Q765.5595 198.4443 764.57513 198.4443Q764.1845 198.4443 763.59076 198.60056L763.747 197.36618Q763.88763 197.3818 763.96576 197.3818Q764.872 197.3818 765.59076 196.91306Q766.3095 196.4443 766.3095 195.45993Q766.3095 194.6943 765.7861 194.1865Q765.26263 193.67868 764.4345 193.67868Q763.6064 193.67868 763.0595 194.1943Q762.51263 194.70993 762.3564 195.74118L760.95013 195.49118Q761.21576 194.0693 762.1298 193.29587Q763.0439 192.52243 764.40326 192.52243Q765.34076 192.52243 766.1298 192.92087Q766.9189 193.3193 767.33295 194.01462Q767.747 194.70993 767.747 195.49118Q767.747 196.24118 767.3486 196.85056Q766.95013 197.45993 766.1689 197.8193Q767.1845 198.05368 767.747 198.78806Q768.3095 199.52243 768.3095 200.6318Q768.3095 202.1318 767.21576 203.17868Q766.122 204.22556 764.45013 204.22556Q762.95013 204.22556 761.95013 203.32712Q760.95013 202.42868 760.8095 200.99118ZM774.9814 204.02243L774.9814 192.5693L776.497 192.5693L776.497 204.02243L774.9814 204.02243ZM778.70795 198.4443Q778.70795 195.58493 780.2392 193.97556Q781.77045 192.36618 784.1923 192.36618Q785.77045 192.36618 787.0439 193.124Q788.3173 193.8818 788.9892 195.23337Q789.6611 196.58493 789.6611 198.30368Q789.6611 200.05368 788.95795 201.42868Q788.2548 202.80368 786.96576 203.51462Q785.6767 204.22556 784.1767 204.22556Q782.5673 204.22556 781.2939 203.4365Q780.02045 202.64743 779.3642 201.29587Q778.70795 199.9443 778.70795 198.4443ZM780.27045 198.45993Q780.27045 200.53806 781.3798 201.72556Q782.4892 202.91306 784.1767 202.91306Q785.8798 202.91306 786.9892 201.70993Q788.0986 200.5068 788.0986 198.30368Q788.0986 196.89743 787.622 195.85837Q787.14545 194.8193 786.2392 194.24118Q785.33295 193.66306 784.1923 193.66306Q782.58295 193.66306 781.4267 194.77243Q780.27045 195.8818 780.27045 198.45993ZM799.77826 200.0068L801.2939 200.3818Q800.82513 202.2568 799.58295 203.24118Q798.34076 204.22556 796.5595 204.22556Q794.70013 204.22556 793.5439 203.46774Q792.38763 202.70993 791.77826 201.28024Q791.1689 199.85056 791.1689 198.20993Q791.1689 196.41306 791.8564 195.08493Q792.5439 193.7568 793.8017 193.0615Q795.0595 192.36618 796.57513 192.36618Q798.2939 192.36618 799.46576 193.24118Q800.63763 194.11618 801.1064 195.70993L799.6064 196.05368Q799.21576 194.80368 798.45795 194.23337Q797.70013 193.66306 796.5439 193.66306Q795.2314 193.66306 794.34076 194.29587Q793.45013 194.92868 793.09076 195.999Q792.7314 197.0693 792.7314 198.1943Q792.7314 199.66306 793.1611 200.749Q793.59076 201.83493 794.4892 202.374Q795.38763 202.91306 796.4345 202.91306Q797.70013 202.91306 798.58295 202.17868Q799.46576 201.4443 799.77826 200.0068Z" fill-rule="nonzero" fill="#000000"></path><path d="M826.61273 347.8811L819.57153 340.8399L674.99066 340.8399L674.99066 429.38925L682.03186 436.43045L826.61273 436.43045ZM826.61273 347.8811L682.03186 347.8811L674.99066 340.8399M682.03186 347.8811L682.03186 436.43045" fill-rule="nonzero" stroke="#000000" stroke-width="2.0" stroke-linejoin="round" stroke-linecap="butt"></path><path d="M713.39655 383.21826L713.39655 381.90576L720.9903 378.70264L720.9903 380.1089L714.9747 382.57764L720.9903 385.062L720.9903 386.46826L713.39655 383.21826ZM722.7403 383.21826L722.7403 381.90576L730.33405 378.70264L730.33405 380.1089L724.3184 382.57764L730.33405 385.062L730.33405 386.46826L722.7403 383.21826ZM732.4747 388.2339L732.4747 376.78076L740.7559 376.78076L740.7559 378.1245L733.9903 378.1245L733.9903 381.64014L740.33405 381.64014L740.33405 382.9839L733.9903 382.9839L733.9903 386.8745L741.02155 386.8745L741.02155 388.2339L732.4747 388.2339ZM743.1153 388.2339L743.1153 376.78076L747.4434 376.78076Q748.58405 376.78076 749.1778 376.89014Q750.02155 377.03076 750.59186 377.4214Q751.1622 377.812 751.51373 378.52295Q751.8653 379.2339 751.8653 380.09326Q751.8653 381.5464 750.9356 382.562Q750.0059 383.57764 747.5684 383.57764L744.6309 383.57764L744.6309 388.2339L743.1153 388.2339ZM744.6309 382.21826L747.5997 382.21826Q749.0684 382.21826 749.6856 381.6714Q750.3028 381.1245 750.3028 380.14014Q750.3028 379.4214 749.9356 378.90576Q749.5684 378.39014 748.9747 378.2339Q748.5997 378.1245 747.5684 378.1245L744.6309 378.1245L744.6309 382.21826ZM754.0528 388.2339L754.0528 376.78076L755.5684 376.78076L755.5684 388.2339L754.0528 388.2339ZM766.40436 384.21826L767.92 384.59326Q767.45123 386.46826 766.20905 387.45264Q764.96686 388.437 763.1856 388.437Q761.32623 388.437 760.17 387.6792Q759.01373 386.9214 758.40436 385.4917Q757.795 384.062 757.795 382.4214Q757.795 380.6245 758.4825 379.2964Q759.17 377.96826 760.4278 377.27295Q761.6856 376.57764 763.20123 376.57764Q764.92 376.57764 766.09186 377.45264Q767.26373 378.32764 767.7325 379.9214L766.2325 380.26514Q765.84186 379.01514 765.08405 378.44482Q764.32623 377.8745 763.17 377.8745Q761.8575 377.8745 760.96686 378.50732Q760.07623 379.14014 759.71686 380.21045Q759.3575 381.28076 759.3575 382.40576Q759.3575 383.8745 759.7872 384.96045Q760.21686 386.0464 761.1153 386.58545Q762.01373 387.1245 763.0606 387.1245Q764.32623 387.1245 765.20905 386.39014Q766.09186 385.65576 766.40436 384.21826ZM769.27155 384.5464L770.70905 384.4214Q770.8028 385.28076 771.1778 385.83545Q771.5528 386.39014 772.33405 386.72607Q773.1153 387.062 774.08405 387.062Q774.95905 387.062 775.6231 386.8042Q776.2872 386.5464 776.6075 386.10107Q776.9278 385.65576 776.9278 385.1245Q776.9278 384.57764 776.6153 384.1792Q776.3028 383.78076 775.58405 383.4995Q775.1309 383.32764 773.5528 382.94482Q771.9747 382.562 771.33405 382.2339Q770.52155 381.7964 770.1153 381.16357Q769.70905 380.53076 769.70905 379.7339Q769.70905 378.8745 770.20123 378.1167Q770.6934 377.3589 771.63873 376.96826Q772.58405 376.57764 773.7403 376.57764Q775.02155 376.57764 775.9903 376.9917Q776.95905 377.40576 777.4825 378.20264Q778.0059 378.9995 778.0528 379.9995L776.5997 380.1089Q776.4747 379.03076 775.8028 378.47607Q775.1309 377.9214 773.8028 377.9214Q772.4278 377.9214 771.8028 378.4214Q771.1778 378.9214 771.1778 379.64014Q771.1778 380.2495 771.6153 380.65576Q772.0528 381.0464 773.90436 381.46826Q775.7559 381.89014 776.4434 382.20264Q777.4434 382.65576 777.92 383.3667Q778.39655 384.07764 778.39655 384.9995Q778.39655 385.90576 777.8731 386.71826Q777.3497 387.53076 776.3653 387.9839Q775.3809 388.437 774.1622 388.437Q772.5997 388.437 771.5528 387.97607Q770.5059 387.51514 769.90436 386.6089Q769.3028 385.70264 769.27155 384.5464ZM782.58405 388.2339L779.4278 379.937L780.9122 379.937L782.6934 384.90576Q782.9903 385.70264 783.2247 386.57764Q783.4122 385.9214 783.7559 384.9995L785.5997 379.937L787.0372 379.937L783.89655 388.2339L782.58405 388.2339ZM787.89655 385.20264L789.3028 385.01514Q789.5528 386.21826 790.1309 386.7417Q790.70905 387.26514 791.5528 387.26514Q792.5372 387.26514 793.2247 386.57764Q793.9122 385.89014 793.9122 384.8745Q793.9122 383.90576 793.27936 383.28076Q792.64655 382.65576 791.6622 382.65576Q791.27155 382.65576 790.6778 382.812L790.83405 381.57764Q790.9747 381.59326 791.0528 381.59326Q791.95905 381.59326 792.6778 381.1245Q793.39655 380.65576 793.39655 379.6714Q793.39655 378.90576 792.8731 378.39795Q792.3497 377.89014 791.52155 377.89014Q790.6934 377.89014 790.14655 378.40576Q789.5997 378.9214 789.4434 379.95264L788.0372 379.70264Q788.3028 378.28076 789.21686 377.50732Q790.1309 376.7339 791.4903 376.7339Q792.4278 376.7339 793.21686 377.13232Q794.0059 377.53076 794.42 378.22607Q794.83405 378.9214 794.83405 379.70264Q794.83405 380.45264 794.4356 381.062Q794.0372 381.6714 793.2559 382.03076Q794.27155 382.26514 794.83405 382.9995Q795.39655 383.7339 795.39655 384.84326Q795.39655 386.34326 794.3028 387.39014Q793.20905 388.437 791.5372 388.437Q790.0372 388.437 789.0372 387.53857Q788.0372 386.64014 787.89655 385.20264Z" fill-rule="nonzero" fill="#000000"></path><path d="M718.4981 406.64014L718.4981 405.59326Q717.71686 406.82764 716.1856 406.82764Q715.1856 406.82764 714.3575 406.28076Q713.52936 405.7339 713.0684 404.7495Q712.6075 403.76514 712.6075 402.4995Q712.6075 401.2495 713.02155 400.2417Q713.4356 399.2339 714.26373 398.69482Q715.09186 398.15576 716.1231 398.15576Q716.8731 398.15576 717.45905 398.46826Q718.045 398.78076 718.40436 399.2964L718.40436 395.187L719.8106 395.187L719.8106 406.64014L718.4981 406.64014ZM714.0606 402.4995Q714.0606 404.09326 714.7325 404.88232Q715.40436 405.6714 716.3106 405.6714Q717.2325 405.6714 717.8809 404.91357Q718.52936 404.15576 718.52936 402.6089Q718.52936 400.90576 717.8731 400.1089Q717.21686 399.312 716.2481 399.312Q715.3106 399.312 714.6856 400.07764Q714.0606 400.84326 714.0606 402.4995ZM727.4278 405.6089Q726.64655 406.28076 725.9278 406.5542Q725.20905 406.82764 724.3809 406.82764Q723.0059 406.82764 722.27155 406.15576Q721.5372 405.4839 721.5372 404.45264Q721.5372 403.84326 721.8184 403.33545Q722.0997 402.82764 722.545 402.52295Q722.9903 402.21826 723.5528 402.062Q723.9747 401.95264 724.8028 401.8589Q726.5059 401.65576 727.3184 401.3745Q727.3184 401.07764 727.3184 400.9995Q727.3184 400.14014 726.9278 399.7964Q726.3809 399.312 725.3184 399.312Q724.33405 399.312 723.8575 399.66357Q723.3809 400.01514 723.1622 400.89014L721.7872 400.70264Q721.9747 399.82764 722.40436 399.28076Q722.83405 398.7339 723.64655 398.44482Q724.45905 398.15576 725.52155 398.15576Q726.58405 398.15576 727.2481 398.40576Q727.9122 398.65576 728.2247 399.03076Q728.5372 399.40576 728.6622 399.9839Q728.7403 400.34326 728.7403 401.28076L728.7403 403.15576Q728.7403 405.1245 728.82623 405.64014Q728.9122 406.15576 729.1778 406.64014L727.70905 406.64014Q727.4903 406.20264 727.4278 405.6089ZM727.3184 402.46826Q726.5528 402.78076 725.02155 402.9995Q724.14655 403.1245 723.7872 403.28076Q723.4278 403.437 723.2325 403.7417Q723.0372 404.0464 723.0372 404.40576Q723.0372 404.96826 723.46686 405.34326Q723.89655 405.71826 724.70905 405.71826Q725.52155 405.71826 726.15436 405.3667Q726.7872 405.01514 727.08405 404.39014Q727.3184 403.9214 727.3184 402.9839L727.3184 402.46826ZM733.9825 405.3745L734.1856 406.6245Q733.59186 406.7495 733.1231 406.7495Q732.3575 406.7495 731.9356 406.50732Q731.51373 406.26514 731.34186 405.8667Q731.17 405.46826 731.17 404.20264L731.17 399.437L730.13873 399.437L730.13873 398.34326L731.17 398.34326L731.17 396.28076L732.57623 395.437L732.57623 398.34326L733.9825 398.34326L733.9825 399.437L732.57623 399.437L732.57623 404.28076Q732.57623 404.89014 732.64655 405.062Q732.71686 405.2339 732.88873 405.33545Q733.0606 405.437 733.3731 405.437Q733.6075 405.437 733.9825 405.3745ZM740.77155 405.6089Q739.9903 406.28076 739.27155 406.5542Q738.5528 406.82764 737.7247 406.82764Q736.3497 406.82764 735.6153 406.15576Q734.8809 405.4839 734.8809 404.45264Q734.8809 403.84326 735.1622 403.33545Q735.4434 402.82764 735.88873 402.52295Q736.33405 402.21826 736.89655 402.062Q737.3184 401.95264 738.14655 401.8589Q739.8497 401.65576 740.6622 401.3745Q740.6622 401.07764 740.6622 400.9995Q740.6622 400.14014 740.27155 399.7964Q739.7247 399.312 738.6622 399.312Q737.6778 399.312 737.20123 399.66357Q736.7247 400.01514 736.5059 400.89014L735.1309 400.70264Q735.3184 399.82764 735.7481 399.28076Q736.1778 398.7339 736.9903 398.44482Q737.8028 398.15576 738.8653 398.15576Q739.9278 398.15576 740.59186 398.40576Q741.2559 398.65576 741.5684 399.03076Q741.8809 399.40576 742.0059 399.9839Q742.08405 400.34326 742.08405 401.28076L742.08405 403.15576Q742.08405 405.1245 742.17 405.64014Q742.2559 406.15576 742.52155 406.64014L741.0528 406.64014Q740.83405 406.20264 740.77155 405.6089ZM740.6622 402.46826Q739.89655 402.78076 738.3653 402.9995Q737.4903 403.1245 737.1309 403.28076Q736.77155 403.437 736.57623 403.7417Q736.3809 404.0464 736.3809 404.40576Q736.3809 404.96826 736.8106 405.34326Q737.2403 405.71826 738.0528 405.71826Q738.8653 405.71826 739.4981 405.3667Q740.1309 405.01514 740.4278 404.39014Q740.6622 403.9214 740.6622 402.9839L740.6622 402.46826ZM745.5606 406.64014L744.2481 406.64014L744.2481 395.187L745.65436 395.187L745.65436 399.26514Q746.545 398.15576 747.9356 398.15576Q748.70123 398.15576 749.3809 398.46045Q750.0606 398.76514 750.5059 399.32764Q750.95123 399.89014 751.20123 400.6792Q751.45123 401.46826 751.45123 402.3589Q751.45123 404.4995 750.39655 405.66357Q749.34186 406.82764 747.8575 406.82764Q746.38873 406.82764 745.5606 405.59326L745.5606 406.64014ZM745.545 402.4214Q745.545 403.9214 745.95123 404.57764Q746.6075 405.6714 747.7481 405.6714Q748.67 405.6714 749.34186 404.8667Q750.01373 404.062 750.01373 402.4839Q750.01373 400.8589 749.3653 400.08545Q748.71686 399.312 747.8106 399.312Q746.88873 399.312 746.21686 400.1089Q745.545 400.90576 745.545 402.4214ZM758.5684 405.6089Q757.7872 406.28076 757.0684 406.5542Q756.3497 406.82764 755.52155 406.82764Q754.14655 406.82764 753.4122 406.15576Q752.6778 405.4839 752.6778 404.45264Q752.6778 403.84326 752.95905 403.33545Q753.2403 402.82764 753.6856 402.52295Q754.1309 402.21826 754.6934 402.062Q755.1153 401.95264 755.9434 401.8589Q757.64655 401.65576 758.45905 401.3745Q758.45905 401.07764 758.45905 400.9995Q758.45905 400.14014 758.0684 399.7964Q757.52155 399.312 756.45905 399.312Q755.4747 399.312 754.9981 399.66357Q754.52155 400.01514 754.3028 400.89014L752.9278 400.70264Q753.1153 399.82764 753.545 399.28076Q753.9747 398.7339 754.7872 398.44482Q755.5997 398.15576 756.6622 398.15576Q757.7247 398.15576 758.38873 398.40576Q759.0528 398.65576 759.3653 399.03076Q759.6778 399.40576 759.8028 399.9839Q759.8809 400.34326 759.8809 401.28076L759.8809 403.15576Q759.8809 405.1245 759.96686 405.64014Q760.0528 406.15576 760.3184 406.64014L758.8497 406.64014Q758.6309 406.20264 758.5684 405.6089ZM758.45905 402.46826Q757.6934 402.78076 756.1622 402.9995Q755.2872 403.1245 754.9278 403.28076Q754.5684 403.437 754.3731 403.7417Q754.1778 404.0464 754.1778 404.40576Q754.1778 404.96826 754.6075 405.34326Q755.0372 405.71826 755.8497 405.71826Q756.6622 405.71826 757.295 405.3667Q757.9278 405.01514 758.2247 404.39014Q758.45905 403.9214 758.45905 402.9839L758.45905 402.46826ZM761.4981 404.15576L762.88873 403.937Q762.9981 404.78076 763.5372 405.22607Q764.07623 405.6714 765.02936 405.6714Q765.9981 405.6714 766.46686 405.27295Q766.9356 404.8745 766.9356 404.34326Q766.9356 403.8745 766.52936 403.59326Q766.2325 403.40576 765.09186 403.1245Q763.545 402.7339 762.9434 402.44482Q762.34186 402.15576 762.0372 401.65576Q761.7325 401.15576 761.7325 400.5464Q761.7325 399.9839 761.9825 399.51514Q762.2325 399.0464 762.67 398.7339Q762.9981 398.4839 763.5684 398.31982Q764.13873 398.15576 764.77936 398.15576Q765.76373 398.15576 766.4981 398.437Q767.2325 398.71826 767.58405 399.19482Q767.9356 399.6714 768.07623 400.4839L766.70123 400.6714Q766.6075 400.03076 766.15436 399.6714Q765.70123 399.312 764.88873 399.312Q763.92 399.312 763.5059 399.63232Q763.09186 399.95264 763.09186 400.3745Q763.09186 400.65576 763.26373 400.8745Q763.4356 401.09326 763.795 401.2495Q764.01373 401.32764 765.045 401.6089Q766.52936 401.9995 767.1231 402.25732Q767.71686 402.51514 768.0528 402.9995Q768.38873 403.4839 768.38873 404.20264Q768.38873 404.90576 767.9747 405.52295Q767.5606 406.14014 766.7872 406.4839Q766.01373 406.82764 765.045 406.82764Q763.42 406.82764 762.57623 406.15576Q761.7325 405.4839 761.4981 404.15576ZM775.7325 403.96826L777.1856 404.14014Q776.84186 405.4214 775.9122 406.1245Q774.9825 406.82764 773.545 406.82764Q771.71686 406.82764 770.65436 405.70264Q769.59186 404.57764 769.59186 402.562Q769.59186 400.46826 770.67 399.312Q771.7481 398.15576 773.46686 398.15576Q775.1231 398.15576 776.1778 399.28857Q777.2325 400.4214 777.2325 402.46826Q777.2325 402.59326 777.2325 402.84326L771.045 402.84326Q771.1231 404.21826 771.8184 404.94482Q772.51373 405.6714 773.545 405.6714Q774.32623 405.6714 774.8731 405.26514Q775.42 404.8589 775.7325 403.96826ZM771.1231 401.687L775.7481 401.687Q775.65436 400.64014 775.21686 400.1245Q774.545 399.312 773.4825 399.312Q772.51373 399.312 771.8497 399.96045Q771.1856 400.6089 771.1231 401.687ZM786.3653 401.6245L778.77155 404.8745L778.77155 403.46826L784.7872 400.9839L778.77155 398.51514L778.77155 397.1089L786.3653 400.312L786.3653 401.6245ZM795.70905 401.6245L788.1153 404.8745L788.1153 403.46826L794.1309 400.9839L788.1153 398.51514L788.1153 397.1089L795.70905 400.312L795.70905 401.6245Z" fill-rule="nonzero" fill="#000000"></path><path d="M826.61273 235.90575L819.7247 229.01767L674.99066 229.01767L674.99066 315.64142L681.8788 322.52948L826.61273 322.52948ZM826.61273 235.90575L681.8788 235.90575L674.99066 229.01767M681.8788 235.90575L681.8788 322.52948" fill-rule="nonzero" stroke="#000000" stroke-width="2.0" stroke-linejoin="round" stroke-linecap="butt"></path><path d="M696.8512 270.28012L696.8512 268.96762L704.44495 265.7645L704.44495 267.17075L698.4293 269.6395L704.44495 272.12387L704.44495 273.53012L696.8512 270.28012ZM706.19495 270.28012L706.19495 268.96762L713.7887 265.7645L713.7887 267.17075L707.7731 269.6395L713.7887 272.12387L713.7887 273.53012L706.19495 270.28012ZM721.13245 272.24887L722.5231 272.43637Q722.2887 273.85825 721.359 274.67075Q720.4293 275.48325 719.06995 275.48325Q717.3668 275.48325 716.32776 274.36606Q715.2887 273.24887 715.2887 271.17075Q715.2887 269.827 715.734 268.81918Q716.1793 267.81137 717.0934 267.31137Q718.00745 266.81137 719.06995 266.81137Q720.4293 266.81137 721.2887 267.49106Q722.1481 268.17075 722.38245 269.43637L721.0231 269.6395Q720.81995 268.81137 720.32776 268.3895Q719.8356 267.96762 719.13245 267.96762Q718.06995 267.96762 717.4059 268.72543Q716.7418 269.48325 716.7418 271.1395Q716.7418 272.81137 717.38245 273.56918Q718.0231 274.327 719.0543 274.327Q719.88245 274.327 720.43713 273.81918Q720.9918 273.31137 721.13245 272.24887ZM723.19495 271.1395Q723.19495 268.84262 724.4762 267.73325Q725.5543 266.81137 727.0856 266.81137Q728.8043 266.81137 729.89026 267.92856Q730.9762 269.04575 730.9762 271.03012Q730.9762 272.62387 730.4918 273.54575Q730.00745 274.46762 729.0934 274.97543Q728.1793 275.48325 727.0856 275.48325Q725.3512 275.48325 724.2731 274.36606Q723.19495 273.24887 723.19495 271.1395ZM724.6481 271.1395Q724.6481 272.73325 725.3434 273.53012Q726.0387 274.327 727.0856 274.327Q728.13245 274.327 728.82776 273.53012Q729.5231 272.73325 729.5231 271.09262Q729.5231 269.56137 728.82776 268.7645Q728.13245 267.96762 727.0856 267.96762Q726.0387 267.96762 725.3434 268.75668Q724.6481 269.54575 724.6481 271.1395ZM732.62463 275.29575L732.62463 266.99887L733.87463 266.99887L733.87463 268.15512Q734.26526 267.54575 734.9137 267.17856Q735.56213 266.81137 736.39026 266.81137Q737.31213 266.81137 737.9059 267.19418Q738.49963 267.577 738.734 268.2645Q739.7184 266.81137 741.2965 266.81137Q742.5309 266.81137 743.19495 267.49106Q743.859 268.17075 743.859 269.59262L743.859 275.29575L742.4684 275.29575L742.4684 270.06137Q742.4684 269.21762 742.32776 268.85043Q742.18713 268.48325 741.82776 268.25668Q741.4684 268.03012 740.984 268.03012Q740.109 268.03012 739.5309 268.60825Q738.95276 269.18637 738.95276 270.46762L738.95276 275.29575L737.5465 275.29575L737.5465 269.90512Q737.5465 268.96762 737.20276 268.49887Q736.859 268.03012 736.07776 268.03012Q735.484 268.03012 734.984 268.34262Q734.484 268.65512 734.25745 269.25668Q734.0309 269.85825 734.0309 270.98325L734.0309 275.29575L732.62463 275.29575ZM745.9528 278.48325L745.9528 266.99887L747.2341 266.99887L747.2341 268.077Q747.6872 267.43637 748.2575 267.12387Q748.8278 266.81137 749.6403 266.81137Q750.7028 266.81137 751.5153 267.35825Q752.3278 267.90512 752.7419 268.8973Q753.15594 269.8895 753.15594 271.077Q753.15594 272.35825 752.695 273.37387Q752.2341 274.3895 751.3669 274.93637Q750.4997 275.48325 749.53094 275.48325Q748.8278 275.48325 748.27313 275.18637Q747.71844 274.8895 747.3591 274.43637L747.3591 278.48325L745.9528 278.48325ZM747.21844 271.18637Q747.21844 272.79575 747.8669 273.56137Q748.5153 274.327 749.4372 274.327Q750.3747 274.327 751.0466 273.53012Q751.71844 272.73325 751.71844 271.077Q751.71844 269.48325 751.0622 268.69418Q750.40594 267.90512 749.4997 267.90512Q748.6091 267.90512 747.91376 268.74887Q747.21844 269.59262 747.21844 271.18637ZM754.32 271.1395Q754.32 268.84262 755.60126 267.73325Q756.6794 266.81137 758.21063 266.81137Q759.9294 266.81137 761.0153 267.92856Q762.10126 269.04575 762.10126 271.03012Q762.10126 272.62387 761.6169 273.54575Q761.1325 274.46762 760.21844 274.97543Q759.3044 275.48325 758.21063 275.48325Q756.47626 275.48325 755.39813 274.36606Q754.32 273.24887 754.32 271.1395ZM755.77313 271.1395Q755.77313 272.73325 756.46844 273.53012Q757.16376 274.327 758.21063 274.327Q759.2575 274.327 759.9528 273.53012Q760.64813 272.73325 760.64813 271.09262Q760.64813 269.56137 759.9528 268.7645Q759.2575 267.96762 758.21063 267.96762Q757.16376 267.96762 756.46844 268.75668Q755.77313 269.54575 755.77313 271.1395ZM763.7497 275.29575L763.7497 266.99887L765.0153 266.99887L765.0153 268.17075Q765.9216 266.81137 767.65594 266.81137Q768.40594 266.81137 769.03094 267.077Q769.65594 267.34262 769.96844 267.78012Q770.28094 268.21762 770.40594 268.827Q770.4841 269.21762 770.4841 270.18637L770.4841 275.29575L769.0778 275.29575L769.0778 270.24887Q769.0778 269.3895 768.91376 268.9598Q768.7497 268.53012 768.33563 268.28012Q767.9216 268.03012 767.3591 268.03012Q766.4528 268.03012 765.8044 268.60043Q765.15594 269.17075 765.15594 270.7645L765.15594 275.29575L763.7497 275.29575ZM778.32 272.62387L779.77313 272.79575Q779.4294 274.077 778.4997 274.78012Q777.57 275.48325 776.1325 275.48325Q774.3044 275.48325 773.2419 274.35825Q772.1794 273.23325 772.1794 271.21762Q772.1794 269.12387 773.2575 267.96762Q774.33563 266.81137 776.0544 266.81137Q777.71063 266.81137 778.7653 267.94418Q779.82 269.077 779.82 271.12387Q779.82 271.24887 779.82 271.49887L773.6325 271.49887Q773.71063 272.87387 774.40594 273.60043Q775.10126 274.327 776.1325 274.327Q776.91376 274.327 777.46063 273.92075Q778.0075 273.5145 778.32 272.62387ZM773.71063 270.34262L778.33563 270.34262Q778.2419 269.29575 777.8044 268.78012Q777.1325 267.96762 776.07 267.96762Q775.10126 267.96762 774.4372 268.61606Q773.77313 269.2645 773.71063 270.34262ZM781.5466 275.29575L781.5466 266.99887L782.8122 266.99887L782.8122 268.17075Q783.71844 266.81137 785.4528 266.81137Q786.2028 266.81137 786.8278 267.077Q787.4528 267.34262 787.7653 267.78012Q788.0778 268.21762 788.2028 268.827Q788.28094 269.21762 788.28094 270.18637L788.28094 275.29575L786.8747 275.29575L786.8747 270.24887Q786.8747 269.3895 786.71063 268.9598Q786.5466 268.53012 786.1325 268.28012Q785.71844 268.03012 785.15594 268.03012Q784.2497 268.03012 783.60126 268.60043Q782.9528 269.17075 782.9528 270.7645L782.9528 275.29575L781.5466 275.29575ZM793.5075 274.03012L793.71063 275.28012Q793.1169 275.40512 792.64813 275.40512Q791.8825 275.40512 791.46063 275.16293Q791.03876 274.92075 790.8669 274.5223Q790.695 274.12387 790.695 272.85825L790.695 268.09262L789.66376 268.09262L789.66376 266.99887L790.695 266.99887L790.695 264.93637L792.10126 264.09262L792.10126 266.99887L793.5075 266.99887L793.5075 268.09262L792.10126 268.09262L792.10126 272.93637Q792.10126 273.54575 792.1716 273.71762Q792.2419 273.8895 792.41376 273.99106Q792.58563 274.09262 792.89813 274.09262Q793.1325 274.09262 793.5075 274.03012ZM802.2966 270.28012L794.7028 273.53012L794.7028 272.12387L800.71844 269.6395L794.7028 267.17075L794.7028 265.7645L802.2966 268.96762L802.2966 270.28012ZM811.6403 270.28012L804.0466 273.53012L804.0466 272.12387L810.0622 269.6395L804.0466 267.17075L804.0466 265.7645L811.6403 268.96762L811.6403 270.28012Z" fill-rule="nonzero" fill="#000000"></path><path d="M715.2262 286.99887L715.2262 285.40512L716.81995 285.40512L716.81995 286.99887L715.2262 286.99887ZM715.2262 293.702L715.2262 292.09262L716.81995 292.09262L716.81995 293.702L715.2262 293.702ZM721.57776 293.702L718.4215 285.40512L719.9059 285.40512L721.68713 290.37387Q721.984 291.17075 722.2184 292.04575Q722.4059 291.3895 722.74963 290.46762L724.5934 285.40512L726.0309 285.40512L722.89026 293.702L721.57776 293.702ZM726.89026 290.67075L728.2965 290.48325Q728.5465 291.68637 729.12463 292.2098Q729.70276 292.73325 730.5465 292.73325Q731.5309 292.73325 732.2184 292.04575Q732.9059 291.35825 732.9059 290.34262Q732.9059 289.37387 732.2731 288.74887Q731.64026 288.12387 730.6559 288.12387Q730.26526 288.12387 729.6715 288.28012L729.82776 287.04575Q729.9684 287.06137 730.0465 287.06137Q730.95276 287.06137 731.6715 286.59262Q732.39026 286.12387 732.39026 285.1395Q732.39026 284.37387 731.8668 283.86606Q731.3434 283.35825 730.51526 283.35825Q729.68713 283.35825 729.14026 283.87387Q728.5934 284.3895 728.43713 285.42075L727.0309 285.17075Q727.2965 283.74887 728.2106 282.97543Q729.12463 282.202 730.484 282.202Q731.4215 282.202 732.2106 282.60043Q732.99963 282.99887 733.4137 283.69418Q733.82776 284.3895 733.82776 285.17075Q733.82776 285.92075 733.4293 286.53012Q733.0309 287.1395 732.24963 287.49887Q733.26526 287.73325 733.82776 288.46762Q734.39026 289.202 734.39026 290.31137Q734.39026 291.81137 733.2965 292.85825Q732.20276 293.90512 730.5309 293.90512Q729.0309 293.90512 728.0309 293.00668Q727.0309 292.10825 726.89026 290.67075ZM744.5231 289.68637L746.03876 290.06137Q745.56995 291.93637 744.32776 292.92075Q743.0856 293.90512 741.3043 293.90512Q739.44495 293.90512 738.2887 293.1473Q737.13245 292.3895 736.5231 290.9598Q735.9137 289.53012 735.9137 287.8895Q735.9137 286.09262 736.6012 284.7645Q737.2887 283.43637 738.5465 282.74106Q739.8043 282.04575 741.31995 282.04575Q743.0387 282.04575 744.2106 282.92075Q745.38245 283.79575 745.8512 285.3895L744.3512 285.73325Q743.9606 284.48325 743.20276 283.91293Q742.44495 283.34262 741.2887 283.34262Q739.9762 283.34262 739.0856 283.97543Q738.19495 284.60825 737.8356 285.67856Q737.4762 286.74887 737.4762 287.87387Q737.4762 289.34262 737.9059 290.42856Q738.3356 291.5145 739.234 292.05356Q740.13245 292.59262 741.1793 292.59262Q742.44495 292.59262 743.32776 291.85825Q744.2106 291.12387 744.5231 289.68637ZM747.7341 293.702L747.7341 282.24887L749.1403 282.24887L749.1403 286.35825Q750.1247 285.21762 751.6247 285.21762Q752.5466 285.21762 753.22626 285.577Q753.90594 285.93637 754.195 286.577Q754.4841 287.21762 754.4841 288.43637L754.4841 293.702L753.0778 293.702L753.0778 288.43637Q753.0778 287.3895 752.6247 286.90512Q752.1716 286.42075 751.3278 286.42075Q750.7028 286.42075 750.15594 286.74887Q749.6091 287.077 749.3747 287.63168Q749.1403 288.18637 749.1403 289.15512L749.1403 293.702L747.7341 293.702ZM762.03876 292.67075Q761.2575 293.34262 760.53876 293.61606Q759.82 293.8895 758.9919 293.8895Q757.6169 293.8895 756.8825 293.21762Q756.14813 292.54575 756.14813 291.5145Q756.14813 290.90512 756.4294 290.3973Q756.71063 289.8895 757.15594 289.5848Q757.60126 289.28012 758.16376 289.12387Q758.58563 289.0145 759.41376 288.92075Q761.1169 288.71762 761.9294 288.43637Q761.9294 288.1395 761.9294 288.06137Q761.9294 287.202 761.53876 286.85825Q760.9919 286.37387 759.9294 286.37387Q758.945 286.37387 758.46844 286.72543Q757.9919 287.077 757.77313 287.952L756.39813 287.7645Q756.58563 286.8895 757.0153 286.34262Q757.445 285.79575 758.2575 285.50668Q759.07 285.21762 760.1325 285.21762Q761.195 285.21762 761.8591 285.46762Q762.52313 285.71762 762.83563 286.09262Q763.14813 286.46762 763.27313 287.04575Q763.35126 287.40512 763.35126 288.34262L763.35126 290.21762Q763.35126 292.18637 763.4372 292.702Q763.52313 293.21762 763.78876 293.702L762.32 293.702Q762.10126 293.2645 762.03876 292.67075ZM761.9294 289.53012Q761.16376 289.84262 759.6325 290.06137Q758.7575 290.18637 758.39813 290.34262Q758.03876 290.49887 757.84344 290.80356Q757.64813 291.10825 757.64813 291.46762Q757.64813 292.03012 758.0778 292.40512Q758.5075 292.78012 759.32 292.78012Q760.1325 292.78012 760.7653 292.42856Q761.39813 292.077 761.695 291.452Q761.9294 290.98325 761.9294 290.04575L761.9294 289.53012ZM765.53094 293.702L765.53094 285.40512L766.7966 285.40512L766.7966 286.577Q767.7028 285.21762 769.4372 285.21762Q770.1872 285.21762 770.8122 285.48325Q771.4372 285.74887 771.7497 286.18637Q772.0622 286.62387 772.1872 287.23325Q772.2653 287.62387 772.2653 288.59262L772.2653 293.702L770.8591 293.702L770.8591 288.65512Q770.8591 287.79575 770.695 287.36606Q770.53094 286.93637 770.1169 286.68637Q769.7028 286.43637 769.1403 286.43637Q768.2341 286.43637 767.58563 287.00668Q766.9372 287.577 766.9372 289.17075L766.9372 293.702L765.53094 293.702ZM774.4294 293.702L774.4294 285.40512L775.695 285.40512L775.695 286.577Q776.60126 285.21762 778.33563 285.21762Q779.08563 285.21762 779.71063 285.48325Q780.33563 285.74887 780.64813 286.18637Q780.96063 286.62387 781.08563 287.23325Q781.16376 287.62387 781.16376 288.59262L781.16376 293.702L779.7575 293.702L779.7575 288.65512Q779.7575 287.79575 779.59344 287.36606Q779.4294 286.93637 779.0153 286.68637Q778.60126 286.43637 778.03876 286.43637Q777.1325 286.43637 776.4841 287.00668Q775.83563 287.577 775.83563 289.17075L775.83563 293.702L774.4294 293.702ZM788.9997 291.03012L790.4528 291.202Q790.1091 292.48325 789.1794 293.18637Q788.2497 293.8895 786.8122 293.8895Q784.9841 293.8895 783.9216 292.7645Q782.8591 291.6395 782.8591 289.62387Q782.8591 287.53012 783.9372 286.37387Q785.0153 285.21762 786.7341 285.21762Q788.3903 285.21762 789.445 286.35043Q790.4997 287.48325 790.4997 289.53012Q790.4997 289.65512 790.4997 289.90512L784.3122 289.90512Q784.3903 291.28012 785.08563 292.00668Q785.78094 292.73325 786.8122 292.73325Q787.59344 292.73325 788.1403 292.327Q788.6872 291.92075 788.9997 291.03012ZM784.3903 288.74887L789.0153 288.74887Q788.9216 287.702 788.4841 287.18637Q787.8122 286.37387 786.7497 286.37387Q785.78094 286.37387 785.1169 287.0223Q784.4528 287.67075 784.3903 288.74887ZM792.195 293.702L792.195 282.24887L793.60126 282.24887L793.60126 293.702L792.195 293.702Z" fill-rule="nonzero" fill="#000000"></path></svg>

