<?xml version="1.0" standalone="yes"?>

<svg version="1.1" viewBox="0.0 0.0 953.0 536.0" fill="none" stroke="none" stroke-linecap="square" stroke-miterlimit="10" clip-path="url(#p.0)" xmlns="http://www.w3.org/2000/svg" xmlns:xlink="http://www.w3.org/1999/xlink"><clipPath id="p.0"><path d="M0 0L953.0 0L953.0 536.0L0 536.0L0 0Z" clip-rule="nonzero"></path></clipPath><path d="M367.85333 74.15672L347.6415 53.94488L93.45964 53.94488L93.45964 459.78027L113.67148 479.99213L367.85333 479.99213ZM367.85333 74.15672L113.67148 74.15672L93.45964 53.94488M113.67148 74.15672L113.67148 479.99213" fill-rule="nonzero" stroke="#000000" stroke-width="2.0" stroke-linejoin="round" stroke-linecap="butt"></path><path d="M179.74179 115.143166L179.74179 113.59629L188.74179 109.78379L188.74179 111.44004L181.60117 114.37754L188.74179 117.34629L188.74179 119.00254L179.74179 115.143166ZM190.63675 115.143166L190.63675 113.59629L199.63675 109.78379L199.63675 111.44004L192.49612 114.37754L199.63675 117.34629L199.63675 119.00254L190.63675 115.143166ZM201.73483 121.09629L201.73483 111.236916L203.23483 111.236916L203.23483 112.62754Q203.68796 111.90879 204.4614 111.46348Q205.23483 111.018166 206.21921 111.018166Q207.31296 111.018166 208.01608 111.47129Q208.71921 111.924416 209.00046 112.75254Q210.17233 111.018166 212.04733 111.018166Q213.51608 111.018166 214.30515 111.830666Q215.09421 112.643166 215.09421 114.330666L215.09421 121.09629L213.42233 121.09629L213.42233 114.893166Q213.42233 113.893166 213.26608 113.44785Q213.10983 113.00254 212.68015 112.736916Q212.25046 112.47129 211.67233 112.47129Q210.64108 112.47129 209.95358 113.15879Q209.26608 113.84629 209.26608 115.37754L209.26608 121.09629L207.59421 121.09629L207.59421 114.69004Q207.59421 113.580666 207.18796 113.02598Q206.78171 112.47129 205.84421 112.47129Q205.14108 112.47129 204.53952 112.83848Q203.93796 113.205666 203.67233 113.924416Q203.40671 114.643166 203.40671 115.986916L203.40671 121.09629L201.73483 121.09629ZM223.71313 119.87754Q222.77563 120.674416 221.91626 120.99473Q221.05688 121.31504 220.07251 121.31504Q218.46313 121.31504 217.58813 120.52598Q216.71313 119.736916 216.71313 118.50254Q216.71313 117.768166 217.04126 117.174416Q217.36938 116.580666 217.90063 116.22129Q218.43188 115.861916 219.10376 115.674416Q219.60376 115.53379 220.58813 115.424416Q222.61938 115.174416 223.57251 114.84629Q223.57251 114.50254 223.57251 114.40879Q223.57251 113.393166 223.10376 112.97129Q222.46313 112.40879 221.19751 112.40879Q220.02563 112.40879 219.46313 112.81504Q218.90063 113.22129 218.63501 114.28379L216.99438 114.049416Q217.22876 113.00254 217.73657 112.361916Q218.24438 111.72129 219.20532 111.36973Q220.16626 111.018166 221.44751 111.018166Q222.71313 111.018166 223.49438 111.31504Q224.27563 111.611916 224.65063 112.06504Q225.02563 112.518166 225.16626 113.205666Q225.26001 113.62754 225.26001 114.736916L225.26001 116.97129Q225.26001 119.299416 225.36157 119.9166Q225.46313 120.53379 225.79126 121.09629L224.04126 121.09629Q223.77563 120.580666 223.71313 119.87754ZM223.57251 116.15879Q222.66626 116.518166 220.83813 116.78379Q219.80688 116.924416 219.38501 117.111916Q218.96313 117.299416 218.72876 117.65879Q218.49438 118.018166 218.49438 118.455666Q218.49438 119.12754 219.0022 119.57285Q219.51001 120.018166 220.47876 120.018166Q221.44751 120.018166 222.19751 119.58848Q222.94751 119.15879 223.30688 118.44004Q223.57251 117.861916 223.57251 116.768166L223.57251 116.15879ZM234.08885 117.486916L235.72948 117.705666Q235.46385 119.393166 234.35448 120.3541Q233.2451 121.31504 231.6201 121.31504Q229.60448 121.31504 228.37791 119.99473Q227.15135 118.674416 227.15135 116.205666Q227.15135 114.611916 227.67479 113.4166Q228.19823 112.22129 229.28416 111.61973Q230.3701 111.018166 231.63573 111.018166Q233.2451 111.018166 234.26073 111.830666Q235.27635 112.643166 235.57323 114.143166L233.94823 114.393166Q233.71385 113.393166 233.1201 112.893166Q232.52635 112.393166 231.69823 112.393166Q230.4326 112.393166 229.64354 113.299416Q228.85448 114.205666 228.85448 116.15879Q228.85448 118.143166 229.6201 119.0416Q230.38573 119.94004 231.60448 119.94004Q232.58885 119.94004 233.2451 119.33848Q233.90135 118.736916 234.08885 117.486916ZM236.97948 121.09629L236.97948 107.50254L238.65135 107.50254L238.65135 112.37754Q239.82323 111.018166 241.60448 111.018166Q242.69823 111.018166 243.50291 111.44785Q244.3076 111.87754 244.65916 112.643166Q245.01073 113.40879 245.01073 114.84629L245.01073 121.09629L243.33885 121.09629L243.33885 114.84629Q243.33885 113.59629 242.79198 113.02598Q242.2451 112.455666 241.26073 112.455666Q240.51073 112.455666 239.86229 112.83848Q239.21385 113.22129 238.9326 113.88535Q238.65135 114.549416 238.65135 115.705666L238.65135 121.09629L236.97948 121.09629ZM247.37082 109.40879L247.37082 107.50254L249.0427 107.50254L249.0427 109.40879L247.37082 109.40879ZM247.37082 121.09629L247.37082 111.236916L249.0427 111.236916L249.0427 121.09629L247.37082 121.09629ZM251.50002 121.09629L251.50002 111.236916L253.00002 111.236916L253.00002 112.643166Q254.09377 111.018166 256.14062 111.018166Q257.03125 111.018166 257.78125 111.33848Q258.53125 111.65879 258.89844 112.18223Q259.26562 112.705666 259.42188 113.40879Q259.51562 113.87754 259.51562 115.03379L259.51562 121.09629L257.84375 121.09629L257.84375 115.09629Q257.84375 114.080666 257.64844 113.57285Q257.45312 113.06504 256.95312 112.768166Q256.45312 112.47129 255.78127 112.47129Q254.71877 112.47129 253.94533 113.143166Q253.17189 113.81504 253.17189 115.72129L253.17189 121.09629L251.50002 121.09629ZM268.62573 117.924416L270.34448 118.143166Q269.93823 119.643166 268.83667 120.4791Q267.7351 121.31504 266.01636 121.31504Q263.8601 121.31504 262.59448 119.986916Q261.32886 118.65879 261.32886 116.25254Q261.32886 113.768166 262.6023 112.393166Q263.87573 111.018166 265.9226 111.018166Q267.90698 111.018166 269.15698 112.361916Q270.40698 113.705666 270.40698 116.15879Q270.40698 116.299416 270.39136 116.59629L263.0476 116.59629Q263.14136 118.22129 263.96948 119.080666Q264.7976 119.94004 266.03198 119.94004Q266.93823 119.94004 267.58667 119.46348Q268.2351 118.986916 268.62573 117.924416ZM263.14136 115.22129L268.64136 115.22129Q268.53198 113.986916 268.01636 113.361916Q267.21948 112.393166 265.93823 112.393166Q264.7976 112.393166 264.00854 113.1666Q263.21948 113.94004 263.14136 115.22129ZM281.0483 115.143166L272.0483 119.00254L272.0483 117.34629L279.1733 114.37754L272.0483 111.44004L272.0483 109.78379L281.0483 113.59629L281.0483 115.143166ZM291.94327 115.143166L282.94327 119.00254L282.94327 117.34629L290.06827 114.37754L282.94327 111.44004L282.94327 109.78379L291.94327 113.59629L291.94327 115.143166Z" fill-rule="nonzero" fill="#000000"></path><path d="M211.02158 134.5963L211.02158 132.69005L212.92783 132.69005L212.92783 134.5963L211.02158 134.5963ZM211.02158 142.54942L211.02158 140.64317L212.92783 140.64317L212.92783 142.54942L211.02158 142.54942ZM225.658 137.7838L227.45488 138.23692Q226.89238 140.45567 225.42363 141.61974Q223.95488 142.7838 221.82988 142.7838Q219.62675 142.7838 218.25175 141.88536Q216.87675 140.98692 216.158 139.29161Q215.43925 137.5963 215.43925 135.64317Q215.43925 133.51817 216.24394 131.94005Q217.04863 130.36192 218.54863 129.54161Q220.04863 128.7213 221.8455 128.7213Q223.89238 128.7213 225.283 129.76036Q226.67363 130.79942 227.2205 132.67442L225.45488 133.0963Q224.98613 131.61192 224.07988 130.93224Q223.17363 130.25255 221.81425 130.25255Q220.25175 130.25255 219.19707 131.00255Q218.14238 131.75255 217.71269 133.02599Q217.283 134.29942 217.283 135.64317Q217.283 137.37755 217.79082 138.66661Q218.29863 139.95567 219.36894 140.5963Q220.43925 141.23692 221.67363 141.23692Q223.18925 141.23692 224.23613 140.36974Q225.283 139.50255 225.658 137.7838ZM229.17783 142.54942L229.17783 128.95567L230.8497 128.95567L230.8497 142.54942L229.17783 142.54942ZM233.36952 130.86192L233.36952 128.95567L235.0414 128.95567L235.0414 130.86192L233.36952 130.86192ZM233.36952 142.54942L233.36952 132.69005L235.0414 132.69005L235.0414 142.54942L233.36952 142.54942ZM244.24872 139.37755L245.96747 139.5963Q245.56122 141.0963 244.45966 141.93224Q243.3581 142.76817 241.63934 142.76817Q239.4831 142.76817 238.21747 141.44005Q236.95184 140.11192 236.95184 137.70567Q236.95184 135.2213 238.22528 133.8463Q239.49872 132.4713 241.5456 132.4713Q243.52997 132.4713 244.77997 133.81505Q246.02997 135.1588 246.02997 137.61192Q246.02997 137.75255 246.01434 138.04942L238.6706 138.04942Q238.76434 139.67442 239.59247 140.5338Q240.4206 141.39317 241.65497 141.39317Q242.56122 141.39317 243.20966 140.91661Q243.8581 140.44005 244.24872 139.37755ZM238.76434 136.67442L244.26434 136.67442Q244.15497 135.44005 243.63934 134.81505Q242.84247 133.8463 241.56122 133.8463Q240.4206 133.8463 239.63153 134.61974Q238.84247 135.39317 238.76434 136.67442ZM247.87444 142.54942L247.87444 132.69005L249.37444 132.69005L249.37444 134.0963Q250.46819 132.4713 252.51506 132.4713Q253.40569 132.4713 254.15569 132.79161Q254.90569 133.11192 255.27287 133.63536Q255.64006 134.1588 255.79631 134.86192Q255.89006 135.33067 255.89006 136.48692L255.89006 142.54942L254.21819 142.54942L254.21819 136.54942Q254.21819 135.5338 254.02287 135.02599Q253.82756 134.51817 253.32756 134.2213Q252.82756 133.92442 252.15569 133.92442Q251.09319 133.92442 250.31975 134.5963Q249.54631 135.26817 249.54631 137.17442L249.54631 142.54942L247.87444 142.54942ZM261.9064 141.04942L262.14078 142.5338Q261.43765 142.67442 260.87515 142.67442Q259.9689 142.67442 259.4689 142.38536Q258.9689 142.0963 258.76578 141.63536Q258.56265 141.17442 258.56265 139.6588L258.56265 134.00255L257.32828 134.00255L257.32828 132.69005L258.56265 132.69005L258.56265 130.25255L260.2189 129.25255L260.2189 132.69005L261.9064 132.69005L261.9064 134.00255L260.2189 134.00255L260.2189 139.75255Q260.2189 140.4713 260.30484 140.67442Q260.39078 140.87755 260.5939 141.00255Q260.79703 141.12755 261.17203 141.12755Q261.43765 141.12755 261.9064 141.04942Z" fill-rule="nonzero" fill="#000000"></path><path d="M332.79825 168.6841L318.5001 154.38594L138.68802 154.38594L138.68802 437.6626L152.98618 451.96075L332.79825 451.96075ZM332.79825 168.6841L152.98618 168.6841L138.68802 154.38594M152.98618 168.6841L152.98618 451.96075" fill-rule="nonzero" stroke="#000000" stroke-width="2.0" stroke-linejoin="round" stroke-linecap="butt"></path><path d="M393.98206 227.33972L393.98206 226.02722L401.5758 222.8241L401.5758 224.23035L395.56018 226.6991L401.5758 229.18347L401.5758 230.58972L393.98206 227.33972ZM403.3258 227.33972L403.3258 226.02722L410.91956 222.8241L410.91956 224.23035L404.90393 226.6991L410.91956 229.18347L410.91956 230.58972L403.3258 227.33972ZM412.85706 235.54285L412.85706 224.05847L414.1383 224.05847L414.1383 225.1366Q414.59143 224.49597 415.16174 224.18347Q415.73206 223.87097 416.54456 223.87097Q417.60706 223.87097 418.41956 224.41785Q419.23206 224.96472 419.64612 225.95691Q420.06018 226.9491 420.06018 228.1366Q420.06018 229.41785 419.59924 230.43347Q419.1383 231.4491 418.27112 231.99597Q417.40393 232.54285 416.43518 232.54285Q415.73206 232.54285 415.17737 232.24597Q414.62268 231.9491 414.2633 231.49597L414.2633 235.54285L412.85706 235.54285ZM414.12268 228.24597Q414.12268 229.85535 414.77112 230.62097Q415.41956 231.3866 416.34143 231.3866Q417.27893 231.3866 417.9508 230.58972Q418.62268 229.79285 418.62268 228.1366Q418.62268 226.54285 417.96643 225.75378Q417.31018 224.96472 416.40393 224.96472Q415.5133 224.96472 414.818 225.80847Q414.12268 226.65222 414.12268 228.24597ZM424.05237 232.35535L420.89612 224.05847L422.3805 224.05847L424.16174 229.02722Q424.45862 229.8241 424.693 230.6991Q424.8805 230.04285 425.22424 229.12097L427.068 224.05847L428.5055 224.05847L425.36487 232.35535L424.05237 232.35535ZM428.66174 232.35535L433.068 220.90222L434.70862 220.90222L439.39612 232.35535L437.66174 232.35535L436.33362 228.8866L431.53674 228.8866L430.28674 232.35535L428.66174 232.35535ZM431.97424 227.65222L435.86487 227.65222L434.66174 224.48035Q434.11487 223.02722 433.84924 222.10535Q433.6305 223.1991 433.23987 224.29285L431.97424 227.65222ZM445.83362 229.30847L447.22424 229.49597Q446.98987 230.91785 446.06018 231.73035Q445.1305 232.54285 443.77112 232.54285Q442.068 232.54285 441.02893 231.42566Q439.98987 230.30847 439.98987 228.23035Q439.98987 226.8866 440.43518 225.87878Q440.8805 224.87097 441.79456 224.37097Q442.70862 223.87097 443.77112 223.87097Q445.1305 223.87097 445.98987 224.55066Q446.84924 225.23035 447.08362 226.49597L445.72424 226.6991Q445.52112 225.87097 445.02893 225.4491Q444.53674 225.02722 443.83362 225.02722Q442.77112 225.02722 442.10706 225.78503Q441.443 226.54285 441.443 228.1991Q441.443 229.87097 442.08362 230.62878Q442.72424 231.3866 443.7555 231.3866Q444.58362 231.3866 445.1383 230.87878Q445.693 230.37097 445.83362 229.30847ZM453.83362 229.30847L455.22424 229.49597Q454.98987 230.91785 454.06018 231.73035Q453.1305 232.54285 451.77112 232.54285Q450.068 232.54285 449.02893 231.42566Q447.98987 230.30847 447.98987 228.23035Q447.98987 226.8866 448.43518 225.87878Q448.8805 224.87097 449.79456 224.37097Q450.70862 223.87097 451.77112 223.87097Q453.1305 223.87097 453.98987 224.55066Q454.84924 225.23035 455.08362 226.49597L453.72424 226.6991Q453.52112 225.87097 453.02893 225.4491Q452.53674 225.02722 451.83362 225.02722Q450.77112 225.02722 450.10706 225.78503Q449.443 226.54285 449.443 228.1991Q449.443 229.87097 450.08362 230.62878Q450.72424 231.3866 451.7555 231.3866Q452.58362 231.3866 453.1383 230.87878Q453.693 230.37097 453.83362 229.30847ZM462.09924 229.68347L463.55237 229.85535Q463.20862 231.1366 462.27893 231.83972Q461.34924 232.54285 459.91174 232.54285Q458.08362 232.54285 457.02112 231.41785Q455.95862 230.29285 455.95862 228.27722Q455.95862 226.18347 457.03674 225.02722Q458.11487 223.87097 459.83362 223.87097Q461.48987 223.87097 462.54456 225.00378Q463.59924 226.1366 463.59924 228.18347Q463.59924 228.30847 463.59924 228.55847L457.41174 228.55847Q457.48987 229.93347 458.18518 230.66003Q458.8805 231.3866 459.91174 231.3866Q460.693 231.3866 461.23987 230.98035Q461.78674 230.5741 462.09924 229.68347ZM457.48987 227.40222L462.11487 227.40222Q462.02112 226.35535 461.58362 225.83972Q460.91174 225.02722 459.84924 225.02722Q458.8805 225.02722 458.21643 225.67566Q457.55237 226.3241 457.48987 227.40222ZM464.7633 229.87097L466.15393 229.65222Q466.2633 230.49597 466.80237 230.94128Q467.34143 231.3866 468.29456 231.3866Q469.2633 231.3866 469.73206 230.98816Q470.2008 230.58972 470.2008 230.05847Q470.2008 229.58972 469.79456 229.30847Q469.49768 229.12097 468.35706 228.83972Q466.81018 228.4491 466.20862 228.16003Q465.60706 227.87097 465.30237 227.37097Q464.99768 226.87097 464.99768 226.2616Q464.99768 225.6991 465.24768 225.23035Q465.49768 224.7616 465.93518 224.4491Q466.2633 224.1991 466.83362 224.03503Q467.40393 223.87097 468.04456 223.87097Q469.02893 223.87097 469.7633 224.15222Q470.49768 224.43347 470.84924 224.91003Q471.2008 225.3866 471.34143 226.1991L469.96643 226.3866Q469.87268 225.74597 469.41956 225.3866Q468.96643 225.02722 468.15393 225.02722Q467.18518 225.02722 466.77112 225.34753Q466.35706 225.66785 466.35706 226.08972Q466.35706 226.37097 466.52893 226.58972Q466.7008 226.80847 467.06018 226.96472Q467.27893 227.04285 468.31018 227.3241Q469.79456 227.71472 470.3883 227.97253Q470.98206 228.23035 471.318 228.71472Q471.65393 229.1991 471.65393 229.91785Q471.65393 230.62097 471.23987 231.23816Q470.8258 231.85535 470.05237 232.1991Q469.27893 232.54285 468.31018 232.54285Q466.68518 232.54285 465.84143 231.87097Q464.99768 231.1991 464.7633 229.87097ZM472.7633 229.87097L474.15393 229.65222Q474.2633 230.49597 474.80237 230.94128Q475.34143 231.3866 476.29456 231.3866Q477.2633 231.3866 477.73206 230.98816Q478.2008 230.58972 478.2008 230.05847Q478.2008 229.58972 477.79456 229.30847Q477.49768 229.12097 476.35706 228.83972Q474.81018 228.4491 474.20862 228.16003Q473.60706 227.87097 473.30237 227.37097Q472.99768 226.87097 472.99768 226.2616Q472.99768 225.6991 473.24768 225.23035Q473.49768 224.7616 473.93518 224.4491Q474.2633 224.1991 474.83362 224.03503Q475.40393 223.87097 476.04456 223.87097Q477.02893 223.87097 477.7633 224.15222Q478.49768 224.43347 478.84924 224.91003Q479.2008 225.3866 479.34143 226.1991L477.96643 226.3866Q477.87268 225.74597 477.41956 225.3866Q476.96643 225.02722 476.15393 225.02722Q475.18518 225.02722 474.77112 225.34753Q474.35706 225.66785 474.35706 226.08972Q474.35706 226.37097 474.52893 226.58972Q474.7008 226.80847 475.06018 226.96472Q475.27893 227.04285 476.31018 227.3241Q477.79456 227.71472 478.3883 227.97253Q478.98206 228.23035 479.318 228.71472Q479.65393 229.1991 479.65393 229.91785Q479.65393 230.62097 479.23987 231.23816Q478.8258 231.85535 478.05237 232.1991Q477.27893 232.54285 476.31018 232.54285Q474.68518 232.54285 473.84143 231.87097Q472.99768 231.1991 472.7633 229.87097ZM485.23987 228.1991Q485.23987 225.90222 486.52112 224.79285Q487.59924 223.87097 489.1305 223.87097Q490.84924 223.87097 491.93518 224.98816Q493.02112 226.10535 493.02112 228.08972Q493.02112 229.68347 492.53674 230.60535Q492.05237 231.52722 491.1383 232.03503Q490.22424 232.54285 489.1305 232.54285Q487.39612 232.54285 486.318 231.42566Q485.23987 230.30847 485.23987 228.1991ZM486.693 228.1991Q486.693 229.79285 487.3883 230.58972Q488.08362 231.3866 489.1305 231.3866Q490.17737 231.3866 490.87268 230.58972Q491.568 229.79285 491.568 228.15222Q491.568 226.62097 490.87268 225.8241Q490.17737 225.02722 489.1305 225.02722Q488.08362 225.02722 487.3883 225.81628Q486.693 226.60535 486.693 228.1991ZM494.65393 232.35535L494.65393 224.05847L495.91956 224.05847L495.91956 225.30847Q496.40393 224.43347 496.81018 224.15222Q497.21643 223.87097 497.71643 223.87097Q498.41956 223.87097 499.15393 224.3241L498.66956 225.62097Q498.15393 225.3241 497.6383 225.3241Q497.18518 225.3241 496.818 225.59753Q496.4508 225.87097 496.29456 226.37097Q496.06018 227.12097 496.06018 228.0116L496.06018 232.35535L494.65393 232.35535ZM512.78674 228.33972L514.30237 228.71472Q513.8336 230.58972 512.59143 231.5741Q511.34924 232.55847 509.568 232.55847Q507.70862 232.55847 506.55237 231.80066Q505.39612 231.04285 504.78674 229.61316Q504.17737 228.18347 504.17737 226.54285Q504.17737 224.74597 504.86487 223.41785Q505.55237 222.08972 506.81018 221.39441Q508.068 220.6991 509.58362 220.6991Q511.30237 220.6991 512.47424 221.5741Q513.6461 222.4491 514.11487 224.04285L512.61487 224.3866Q512.22424 223.1366 511.46643 222.56628Q510.70862 221.99597 509.55237 221.99597Q508.23987 221.99597 507.34924 222.62878Q506.45862 223.2616 506.09924 224.33191Q505.73987 225.40222 505.73987 226.52722Q505.73987 227.99597 506.16956 229.08191Q506.59924 230.16785 507.49768 230.70691Q508.39612 231.24597 509.443 231.24597Q510.70862 231.24597 511.59143 230.5116Q512.47424 229.77722 512.78674 228.33972ZM515.9977 232.35535L515.9977 220.90222L517.40393 220.90222L517.40393 225.0116Q518.3883 223.87097 519.8883 223.87097Q520.8102 223.87097 521.48987 224.23035Q522.16956 224.58972 522.4586 225.23035Q522.7477 225.87097 522.7477 227.08972L522.7477 232.35535L521.34143 232.35535L521.34143 227.08972Q521.34143 226.04285 520.8883 225.55847Q520.4352 225.0741 519.59143 225.0741Q518.96643 225.0741 518.41956 225.40222Q517.8727 225.73035 517.6383 226.28503Q517.40393 226.83972 517.40393 227.80847L517.40393 232.35535L515.9977 232.35535ZM530.30237 231.3241Q529.5211 231.99597 528.80237 232.26941Q528.0836 232.54285 527.2555 232.54285Q525.8805 232.54285 525.1461 231.87097Q524.41174 231.1991 524.41174 230.16785Q524.41174 229.55847 524.693 229.05066Q524.97424 228.54285 525.41956 228.23816Q525.86487 227.93347 526.42737 227.77722Q526.84924 227.66785 527.67737 227.5741Q529.3805 227.37097 530.193 227.08972Q530.193 226.79285 530.193 226.71472Q530.193 225.85535 529.80237 225.5116Q529.2555 225.02722 528.193 225.02722Q527.2086 225.02722 526.73206 225.37878Q526.2555 225.73035 526.03674 226.60535L524.66174 226.41785Q524.84924 225.54285 525.27893 224.99597Q525.7086 224.4491 526.5211 224.16003Q527.3336 223.87097 528.3961 223.87097Q529.4586 223.87097 530.1227 224.12097Q530.78674 224.37097 531.09924 224.74597Q531.41174 225.12097 531.53674 225.6991Q531.61487 226.05847 531.61487 226.99597L531.61487 228.87097Q531.61487 230.83972 531.7008 231.35535Q531.78674 231.87097 532.05237 232.35535L530.5836 232.35535Q530.36487 231.91785 530.30237 231.3241ZM530.193 228.18347Q529.42737 228.49597 527.8961 228.71472Q527.0211 228.83972 526.66174 228.99597Q526.30237 229.15222 526.10706 229.45691Q525.91174 229.7616 525.91174 230.12097Q525.91174 230.68347 526.34143 231.05847Q526.7711 231.43347 527.5836 231.43347Q528.3961 231.43347 529.02893 231.08191Q529.66174 230.73035 529.9586 230.10535Q530.193 229.6366 530.193 228.6991L530.193 228.18347ZM533.79456 232.35535L533.79456 224.05847L535.0602 224.05847L535.0602 225.23035Q535.96643 223.87097 537.7008 223.87097Q538.4508 223.87097 539.0758 224.1366Q539.7008 224.40222 540.0133 224.83972Q540.3258 225.27722 540.4508 225.8866Q540.52893 226.27722 540.52893 227.24597L540.52893 232.35535L539.1227 232.35535L539.1227 227.30847Q539.1227 226.4491 538.9586 226.01941Q538.79456 225.58972 538.3805 225.33972Q537.96643 225.08972 537.40393 225.08972Q536.4977 225.08972 535.84924 225.66003Q535.2008 226.23035 535.2008 227.8241L535.2008 232.35535L533.79456 232.35535ZM542.693 232.35535L542.693 224.05847L543.9586 224.05847L543.9586 225.23035Q544.86487 223.87097 546.59924 223.87097Q547.34924 223.87097 547.97424 224.1366Q548.59924 224.40222 548.91174 224.83972Q549.22424 225.27722 549.34924 225.8866Q549.42737 226.27722 549.42737 227.24597L549.42737 232.35535L548.0211 232.35535L548.0211 227.30847Q548.0211 226.4491 547.85706 226.01941Q547.693 225.58972 547.27893 225.33972Q546.86487 225.08972 546.30237 225.08972Q545.3961 225.08972 544.7477 225.66003Q544.09924 226.23035 544.09924 227.8241L544.09924 232.35535L542.693 232.35535ZM557.2633 229.68347L558.71643 229.85535Q558.3727 231.1366 557.443 231.83972Q556.5133 232.54285 555.0758 232.54285Q553.2477 232.54285 552.1852 231.41785Q551.1227 230.29285 551.1227 228.27722Q551.1227 226.18347 552.2008 225.02722Q553.27893 223.87097 554.9977 223.87097Q556.65393 223.87097 557.7086 225.00378Q558.7633 226.1366 558.7633 228.18347Q558.7633 228.30847 558.7633 228.55847L552.5758 228.55847Q552.65393 229.93347 553.34924 230.66003Q554.04456 231.3866 555.0758 231.3866Q555.85706 231.3866 556.40393 230.98035Q556.9508 230.5741 557.2633 229.68347ZM552.65393 227.40222L557.27893 227.40222Q557.1852 226.35535 556.7477 225.83972Q556.0758 225.02722 555.0133 225.02722Q554.04456 225.02722 553.3805 225.67566Q552.71643 226.3241 552.65393 227.40222ZM560.4586 232.35535L560.4586 220.90222L561.86487 220.90222L561.86487 232.35535L560.4586 232.35535ZM567.3961 232.35535L571.80237 220.90222L573.443 220.90222L578.1305 232.35535L576.3961 232.35535L575.068 228.8866L570.2711 228.8866L569.0211 232.35535L567.3961 232.35535ZM570.7086 227.65222L574.59924 227.65222L573.3961 224.48035Q572.84924 223.02722 572.5836 222.10535Q572.36487 223.1991 571.97424 224.29285L570.7086 227.65222ZM584.568 229.30847L585.9586 229.49597Q585.72424 230.91785 584.79456 231.73035Q583.86487 232.54285 582.5055 232.54285Q580.80237 232.54285 579.7633 231.42566Q578.72424 230.30847 578.72424 228.23035Q578.72424 226.8866 579.16956 225.87878Q579.61487 224.87097 580.52893 224.37097Q581.443 223.87097 582.5055 223.87097Q583.86487 223.87097 584.72424 224.55066Q585.5836 225.23035 585.818 226.49597L584.4586 226.6991Q584.2555 225.87097 583.7633 225.4491Q583.2711 225.02722 582.568 225.02722Q581.5055 225.02722 580.84143 225.78503Q580.17737 226.54285 580.17737 228.1991Q580.17737 229.87097 580.818 230.62878Q581.4586 231.3866 582.48987 231.3866Q583.318 231.3866 583.8727 230.87878Q584.42737 230.37097 584.568 229.30847ZM592.568 229.30847L593.9586 229.49597Q593.72424 230.91785 592.79456 231.73035Q591.86487 232.54285 590.5055 232.54285Q588.80237 232.54285 587.7633 231.42566Q586.72424 230.30847 586.72424 228.23035Q586.72424 226.8866 587.16956 225.87878Q587.61487 224.87097 588.52893 224.37097Q589.443 223.87097 590.5055 223.87097Q591.86487 223.87097 592.72424 224.55066Q593.5836 225.23035 593.818 226.49597L592.4586 226.6991Q592.2555 225.87097 591.7633 225.4491Q591.2711 225.02722 590.568 225.02722Q589.5055 225.02722 588.84143 225.78503Q588.17737 226.54285 588.17737 228.1991Q588.17737 229.87097 588.818 230.62878Q589.4586 231.3866 590.48987 231.3866Q591.318 231.3866 591.8727 230.87878Q592.42737 230.37097 592.568 229.30847ZM600.8336 229.68347L602.28674 229.85535Q601.943 231.1366 601.0133 231.83972Q600.0836 232.54285 598.6461 232.54285Q596.818 232.54285 595.7555 231.41785Q594.693 230.29285 594.693 228.27722Q594.693 226.18347 595.7711 225.02722Q596.84924 223.87097 598.568 223.87097Q600.22424 223.87097 601.27893 225.00378Q602.3336 226.1366 602.3336 228.18347Q602.3336 228.30847 602.3336 228.55847L596.1461 228.55847Q596.22424 229.93347 596.91956 230.66003Q597.61487 231.3866 598.6461 231.3866Q599.42737 231.3866 599.97424 230.98035Q600.5211 230.5741 600.8336 229.68347ZM596.22424 227.40222L600.84924 227.40222Q600.7555 226.35535 600.318 225.83972Q599.6461 225.02722 598.5836 225.02722Q597.61487 225.02722 596.9508 225.67566Q596.28674 226.3241 596.22424 227.40222ZM603.4977 229.87097L604.8883 229.65222Q604.9977 230.49597 605.53674 230.94128Q606.0758 231.3866 607.02893 231.3866Q607.9977 231.3866 608.46643 230.98816Q608.9352 230.58972 608.9352 230.05847Q608.9352 229.58972 608.52893 229.30847Q608.23206 229.12097 607.09143 228.83972Q605.54456 228.4491 604.943 228.16003Q604.34143 227.87097 604.03674 227.37097Q603.73206 226.87097 603.73206 226.2616Q603.73206 225.6991 603.98206 225.23035Q604.23206 224.7616 604.66956 224.4491Q604.9977 224.1991 605.568 224.03503Q606.1383 223.87097 606.77893 223.87097Q607.7633 223.87097 608.4977 224.15222Q609.23206 224.43347 609.5836 224.91003Q609.9352 225.3866 610.0758 226.1991L608.7008 226.3866Q608.60706 225.74597 608.15393 225.3866Q607.7008 225.02722 606.8883 225.02722Q605.91956 225.02722 605.5055 225.34753Q605.09143 225.66785 605.09143 226.08972Q605.09143 226.37097 605.2633 226.58972Q605.4352 226.80847 605.79456 226.96472Q606.0133 227.04285 607.04456 227.3241Q608.52893 227.71472 609.1227 227.97253Q609.71643 228.23035 610.05237 228.71472Q610.3883 229.1991 610.3883 229.91785Q610.3883 230.62097 609.97424 231.23816Q609.5602 231.85535 608.78674 232.1991Q608.0133 232.54285 607.04456 232.54285Q605.41956 232.54285 604.5758 231.87097Q603.73206 231.1991 603.4977 229.87097ZM611.4977 229.87097L612.8883 229.65222Q612.9977 230.49597 613.53674 230.94128Q614.0758 231.3866 615.02893 231.3866Q615.9977 231.3866 616.46643 230.98816Q616.9352 230.58972 616.9352 230.05847Q616.9352 229.58972 616.52893 229.30847Q616.23206 229.12097 615.09143 228.83972Q613.54456 228.4491 612.943 228.16003Q612.34143 227.87097 612.03674 227.37097Q611.73206 226.87097 611.73206 226.2616Q611.73206 225.6991 611.98206 225.23035Q612.23206 224.7616 612.66956 224.4491Q612.9977 224.1991 613.568 224.03503Q614.1383 223.87097 614.77893 223.87097Q615.7633 223.87097 616.4977 224.15222Q617.23206 224.43347 617.5836 224.91003Q617.9352 225.3866 618.0758 226.1991L616.7008 226.3866Q616.60706 225.74597 616.15393 225.3866Q615.7008 225.02722 614.8883 225.02722Q613.91956 225.02722 613.5055 225.34753Q613.09143 225.66785 613.09143 226.08972Q613.09143 226.37097 613.2633 226.58972Q613.4352 226.80847 613.79456 226.96472Q614.0133 227.04285 615.04456 227.3241Q616.52893 227.71472 617.1227 227.97253Q617.71643 228.23035 618.05237 228.71472Q618.3883 229.1991 618.3883 229.91785Q618.3883 230.62097 617.97424 231.23816Q617.5602 231.85535 616.78674 232.1991Q616.0133 232.54285 615.04456 232.54285Q613.41956 232.54285 612.5758 231.87097Q611.73206 231.1991 611.4977 229.87097ZM627.46643 227.33972L619.8727 230.58972L619.8727 229.18347L625.8883 226.6991L619.8727 224.23035L619.8727 222.8241L627.46643 226.02722L627.46643 227.33972ZM636.8102 227.33972L629.21643 230.58972L629.21643 229.18347L635.23206 226.6991L629.21643 224.23035L629.21643 222.8241L636.8102 226.02722L636.8102 227.33972Z" fill-rule="nonzero" fill="#000000"></path><path d="M667.6869 277.07443L367.85333 277.07443" fill-rule="nonzero" stroke="#000000" stroke-width="2.0" stroke-linejoin="round" stroke-linecap="butt"></path><path d="M182.33798 192.55847L182.33798 191.0116L191.33798 187.1991L191.33798 188.85535L184.19736 191.79285L191.33798 194.7616L191.33798 196.41785L182.33798 192.55847ZM193.23294 192.55847L193.23294 191.0116L202.23294 187.1991L202.23294 188.85535L195.09232 191.79285L202.23294 194.7616L202.23294 196.41785L193.23294 192.55847ZM204.33102 202.29285L204.33102 188.65222L205.86227 188.65222L205.86227 189.93347Q206.39352 189.18347 207.07321 188.80847Q207.7529 188.43347 208.70602 188.43347Q209.97165 188.43347 210.9404 189.08191Q211.90915 189.73035 212.40134 190.91785Q212.89352 192.10535 212.89352 193.5116Q212.89352 195.02722 212.34665 196.23816Q211.79977 197.4491 210.76852 198.08972Q209.73727 198.73035 208.59665 198.73035Q207.7529 198.73035 207.08884 198.37878Q206.42477 198.02722 206.0029 197.49597L206.0029 202.29285L204.33102 202.29285ZM205.84665 193.6366Q205.84665 195.54285 206.62009 196.4491Q207.39352 197.35535 208.48727 197.35535Q209.59665 197.35535 210.38571 196.41785Q211.17477 195.48035 211.17477 193.49597Q211.17477 191.62097 210.40134 190.68347Q209.6279 189.74597 208.54977 189.74597Q207.48727 189.74597 206.66696 190.74597Q205.84665 191.74597 205.84665 193.6366ZM214.69112 198.5116L214.69112 188.65222L216.19112 188.65222L216.19112 190.15222Q216.76924 189.10535 217.25362 188.76941Q217.73799 188.43347 218.33174 188.43347Q219.17549 188.43347 220.05049 188.98035L219.47237 190.52722Q218.86299 190.16785 218.23799 190.16785Q217.69112 190.16785 217.26143 190.49597Q216.83174 190.8241 216.64424 191.40222Q216.36299 192.29285 216.36299 193.35535L216.36299 198.5116L214.69112 198.5116ZM220.29442 193.58972Q220.29442 190.85535 221.82567 189.52722Q223.0913 188.43347 224.91942 188.43347Q226.95067 188.43347 228.23973 189.76941Q229.5288 191.10535 229.5288 193.4491Q229.5288 195.35535 228.95848 196.44128Q228.38817 197.52722 227.30223 198.12878Q226.2163 198.73035 224.91942 198.73035Q222.85692 198.73035 221.57567 197.40222Q220.29442 196.0741 220.29442 193.58972ZM222.01317 193.58972Q222.01317 195.48035 222.8413 196.41785Q223.66942 197.35535 224.91942 197.35535Q226.16942 197.35535 226.98973 196.41003Q227.81004 195.46472 227.81004 193.52722Q227.81004 191.6991 226.98192 190.7616Q226.1538 189.8241 224.91942 189.8241Q223.66942 189.8241 222.8413 190.7616Q222.01317 191.6991 222.01317 193.58972ZM237.73264 194.90222L239.37326 195.12097Q239.10764 196.80847 237.99826 197.76941Q236.88889 198.73035 235.26389 198.73035Q233.24826 198.73035 232.0217 197.41003Q230.79514 196.08972 230.79514 193.62097Q230.79514 192.02722 231.31857 190.83191Q231.84201 189.6366 232.92795 189.03503Q234.01389 188.43347 235.27951 188.43347Q236.88889 188.43347 237.90451 189.24597Q238.92014 190.05847 239.21701 191.55847L237.59201 191.80847Q237.35764 190.80847 236.76389 190.30847Q236.17014 189.80847 235.34201 189.80847Q234.07639 189.80847 233.28732 190.71472Q232.49826 191.62097 232.49826 193.5741Q232.49826 195.55847 233.26389 196.45691Q234.02951 197.35535 235.24826 197.35535Q236.23264 197.35535 236.88889 196.75378Q237.54514 196.15222 237.73264 194.90222ZM247.37326 195.33972L249.09201 195.55847Q248.68576 197.05847 247.5842 197.89441Q246.48264 198.73035 244.76389 198.73035Q242.60764 198.73035 241.34201 197.40222Q240.07639 196.0741 240.07639 193.66785Q240.07639 191.18347 241.34982 189.80847Q242.62326 188.43347 244.67014 188.43347Q246.65451 188.43347 247.90451 189.77722Q249.15451 191.12097 249.15451 193.5741Q249.15451 193.71472 249.13889 194.0116L241.79514 194.0116Q241.88889 195.6366 242.71701 196.49597Q243.54514 197.35535 244.77951 197.35535Q245.68576 197.35535 246.3342 196.87878Q246.98264 196.40222 247.37326 195.33972ZM241.88889 192.6366L247.38889 192.6366Q247.27951 191.40222 246.76389 190.77722Q245.96701 189.80847 244.68576 189.80847Q243.54514 189.80847 242.75607 190.58191Q241.96701 191.35535 241.88889 192.6366ZM250.3271 195.5741L251.98335 195.30847Q252.12398 196.30847 252.75679 196.83191Q253.3896 197.35535 254.53023 197.35535Q255.68648 197.35535 256.24118 196.8866Q256.79587 196.41785 256.79587 195.79285Q256.79587 195.23035 256.3115 194.90222Q255.96773 194.68347 254.60835 194.33972Q252.7646 193.87097 252.05367 193.53503Q251.34273 193.1991 250.97554 192.59753Q250.60835 191.99597 250.60835 191.27722Q250.60835 190.62097 250.91304 190.05847Q251.21773 189.49597 251.73335 189.12097Q252.12398 188.83972 252.79585 188.6366Q253.46773 188.43347 254.23335 188.43347Q255.40523 188.43347 256.28024 188.76941Q257.15524 189.10535 257.5693 189.67566Q257.98337 190.24597 258.13962 191.1991L256.51462 191.41785Q256.40524 190.66785 255.86617 190.23816Q255.3271 189.80847 254.35835 189.80847Q253.2021 189.80847 252.71773 190.19128Q252.23335 190.5741 252.23335 191.0741Q252.23335 191.40222 252.43648 191.66785Q252.6396 191.93347 253.0771 192.10535Q253.3271 192.1991 254.54585 192.54285Q256.3115 193.0116 257.01462 193.30847Q257.71774 193.60535 258.11618 194.18347Q258.51462 194.7616 258.51462 195.62097Q258.51462 196.4491 258.03024 197.19128Q257.54587 197.93347 256.624 198.33191Q255.7021 198.73035 254.54585 198.73035Q252.62398 198.73035 251.61617 197.93347Q250.60835 197.1366 250.3271 195.5741ZM259.65524 195.5741L261.3115 195.30847Q261.45212 196.30847 262.08493 196.83191Q262.71774 197.35535 263.85837 197.35535Q265.01462 197.35535 265.5693 196.8866Q266.124 196.41785 266.124 195.79285Q266.124 195.23035 265.63962 194.90222Q265.29587 194.68347 263.9365 194.33972Q262.09274 193.87097 261.3818 193.53503Q260.67087 193.1991 260.30368 192.59753Q259.9365 191.99597 259.9365 191.27722Q259.9365 190.62097 260.24118 190.05847Q260.54587 189.49597 261.0615 189.12097Q261.45212 188.83972 262.124 188.6366Q262.79587 188.43347 263.5615 188.43347Q264.73337 188.43347 265.60837 188.76941Q266.48337 189.10535 266.89743 189.67566Q267.3115 190.24597 267.46774 191.1991L265.84274 191.41785Q265.73337 190.66785 265.1943 190.23816Q264.65524 189.80847 263.6865 189.80847Q262.53024 189.80847 262.04587 190.19128Q261.5615 190.5741 261.5615 191.0741Q261.5615 191.40222 261.76462 191.66785Q261.96774 191.93347 262.40524 192.10535Q262.65524 192.1991 263.874 192.54285Q265.63962 193.0116 266.34274 193.30847Q267.04587 193.60535 267.4443 194.18347Q267.84274 194.7616 267.84274 195.62097Q267.84274 196.4491 267.35837 197.19128Q266.874 197.93347 265.95212 198.33191Q265.03024 198.73035 263.874 198.73035Q261.95212 198.73035 260.9443 197.93347Q259.9365 197.1366 259.65524 195.5741ZM278.45212 192.55847L269.45212 196.41785L269.45212 194.7616L276.57712 191.79285L269.45212 188.85535L269.45212 187.1991L278.45212 191.0116L278.45212 192.55847ZM289.34708 192.55847L280.34708 196.41785L280.34708 194.7616L287.47208 191.79285L280.34708 188.85535L280.34708 187.1991L289.34708 191.0116L289.34708 192.55847Z" fill-rule="nonzero" fill="#000000"></path><path d="M215.69019 212.0116L215.69019 210.10535L217.59644 210.10535L217.59644 212.0116L215.69019 212.0116ZM215.69019 219.96472L215.69019 218.05847L217.59644 218.05847L217.59644 219.96472L215.69019 219.96472ZM230.32661 215.1991L232.12349 215.65222Q231.56099 217.87097 230.09224 219.03503Q228.62349 220.1991 226.49849 220.1991Q224.29536 220.1991 222.92036 219.30066Q221.54536 218.40222 220.82661 216.70691Q220.10786 215.0116 220.10786 213.05847Q220.10786 210.93347 220.91255 209.35535Q221.71724 207.77722 223.21724 206.95691Q224.71724 206.1366 226.51411 206.1366Q228.56099 206.1366 229.95161 207.17566Q231.34224 208.21472 231.88911 210.08972L230.12349 210.5116Q229.65474 209.02722 228.74849 208.34753Q227.84224 207.66785 226.48286 207.66785Q224.92036 207.66785 223.86568 208.41785Q222.81099 209.16785 222.3813 210.44128Q221.95161 211.71472 221.95161 213.05847Q221.95161 214.79285 222.45943 216.08191Q222.96724 217.37097 224.03755 218.0116Q225.10786 218.65222 226.34224 218.65222Q227.85786 218.65222 228.90474 217.78503Q229.95161 216.91785 230.32661 215.1991ZM233.48706 215.58972L235.17456 215.4491Q235.29956 216.46472 235.73706 217.12097Q236.17456 217.77722 237.10425 218.18347Q238.03394 218.58972 239.19019 218.58972Q240.22144 218.58972 241.0105 218.27722Q241.79956 217.96472 242.19019 217.43347Q242.58081 216.90222 242.58081 216.27722Q242.58081 215.6366 242.20581 215.16003Q241.83081 214.68347 240.97144 214.35535Q240.42456 214.1366 238.54956 213.69128Q236.67456 213.24597 235.92456 212.83972Q234.95581 212.3241 234.47925 211.5741Q234.00269 210.8241 234.00269 209.8866Q234.00269 208.85535 234.58862 207.95691Q235.17456 207.05847 236.29175 206.59753Q237.40894 206.1366 238.78394 206.1366Q240.29956 206.1366 241.45581 206.62097Q242.61206 207.10535 243.22925 208.05066Q243.84644 208.99597 243.89331 210.1991L242.17456 210.3241Q242.03394 209.04285 241.22925 208.37878Q240.42456 207.71472 238.86206 207.71472Q237.23706 207.71472 236.48706 208.31628Q235.73706 208.91785 235.73706 209.7616Q235.73706 210.49597 236.26831 210.96472Q236.78394 211.43347 238.97925 211.93347Q241.17456 212.43347 241.98706 212.80847Q243.17456 213.35535 243.74487 214.19128Q244.31519 215.02722 244.31519 216.12097Q244.31519 217.21472 243.69019 218.17566Q243.06519 219.1366 241.90112 219.66785Q240.73706 220.1991 239.28394 220.1991Q237.44019 220.1991 236.19019 219.66003Q234.94019 219.12097 234.22925 218.04285Q233.51831 216.96472 233.48706 215.58972ZM245.93063 215.58972L247.61813 215.4491Q247.74313 216.46472 248.18063 217.12097Q248.61813 217.77722 249.54782 218.18347Q250.47751 218.58972 251.63376 218.58972Q252.66501 218.58972 253.45407 218.27722Q254.24313 217.96472 254.63376 217.43347Q255.02438 216.90222 255.02438 216.27722Q255.02438 215.6366 254.64938 215.16003Q254.27438 214.68347 253.41501 214.35535Q252.86813 214.1366 250.99313 213.69128Q249.11813 213.24597 248.36813 212.83972Q247.39938 212.3241 246.92282 211.5741Q246.44626 210.8241 246.44626 209.8866Q246.44626 208.85535 247.0322 207.95691Q247.61813 207.05847 248.73532 206.59753Q249.85251 206.1366 251.22751 206.1366Q252.74313 206.1366 253.89938 206.62097Q255.05563 207.10535 255.67282 208.05066Q256.29 208.99597 256.33688 210.1991L254.61813 210.3241Q254.47751 209.04285 253.67282 208.37878Q252.86813 207.71472 251.30563 207.71472Q249.68063 207.71472 248.93063 208.31628Q248.18063 208.91785 248.18063 209.7616Q248.18063 210.49597 248.71188 210.96472Q249.22751 211.43347 251.42282 211.93347Q253.61813 212.43347 254.43063 212.80847Q255.61813 213.35535 256.18845 214.19128Q256.75876 215.02722 256.75876 216.12097Q256.75876 217.21472 256.13376 218.17566Q255.50876 219.1366 254.3447 219.66785Q253.18063 220.1991 251.72751 220.1991Q249.88376 220.1991 248.63376 219.66003Q247.38376 219.12097 246.67282 218.04285Q245.96188 216.96472 245.93063 215.58972Z" fill-rule="nonzero" fill="#000000"></path><path d="M321.84515 346.06308L315.88275 340.10068L169.18373 340.10068L169.18373 415.08316L175.14613 421.04556L321.84515 421.04556ZM321.84515 346.06308L175.14613 346.06308L169.18373 340.10068M175.14613 346.06308L175.14613 421.04556" fill-rule="nonzero" stroke="#000000" stroke-width="2.0" stroke-linejoin="round" stroke-linecap="butt"></path><path d="M191.1011 374.61682L191.1011 373.30432L198.69485 370.1012L198.69485 371.50745L192.67923 373.9762L198.69485 376.46057L198.69485 377.86682L191.1011 374.61682ZM200.44485 374.61682L200.44485 373.30432L208.0386 370.1012L208.0386 371.50745L202.02298 373.9762L208.0386 376.46057L208.0386 377.86682L200.44485 374.61682ZM215.38235 376.58557L216.77298 376.77307Q216.5386 378.19495 215.60892 379.00745Q214.67923 379.81995 213.31985 379.81995Q211.61673 379.81995 210.57767 378.70276Q209.5386 377.58557 209.5386 375.50745Q209.5386 374.1637 209.98392 373.15588Q210.42923 372.14807 211.34329 371.64807Q212.25735 371.14807 213.31985 371.14807Q214.67923 371.14807 215.5386 371.82776Q216.39798 372.50745 216.63235 373.77307L215.27298 373.9762Q215.06985 373.14807 214.57767 372.7262Q214.08548 372.30432 213.38235 372.30432Q212.31985 372.30432 211.65579 373.06213Q210.99173 373.81995 210.99173 375.4762Q210.99173 377.14807 211.63235 377.90588Q212.27298 378.6637 213.30423 378.6637Q214.13235 378.6637 214.68704 378.15588Q215.24173 377.64807 215.38235 376.58557ZM217.44485 375.4762Q217.44485 373.17932 218.7261 372.06995Q219.80423 371.14807 221.33548 371.14807Q223.05423 371.14807 224.14017 372.26526Q225.2261 373.38245 225.2261 375.36682Q225.2261 376.96057 224.74173 377.88245Q224.25735 378.80432 223.34329 379.31213Q222.42923 379.81995 221.33548 379.81995Q219.6011 379.81995 218.52298 378.70276Q217.44485 377.58557 217.44485 375.4762ZM218.89798 375.4762Q218.89798 377.06995 219.59329 377.86682Q220.2886 378.6637 221.33548 378.6637Q222.38235 378.6637 223.07767 377.86682Q223.77298 377.06995 223.77298 375.42932Q223.77298 373.89807 223.07767 373.1012Q222.38235 372.30432 221.33548 372.30432Q220.2886 372.30432 219.59329 373.09338Q218.89798 373.88245 218.89798 375.4762ZM226.87454 379.63245L226.87454 371.33557L228.12454 371.33557L228.12454 372.49182Q228.51517 371.88245 229.1636 371.51526Q229.81204 371.14807 230.64017 371.14807Q231.56204 371.14807 232.15579 371.53088Q232.74954 371.9137 232.98392 372.6012Q233.96829 371.14807 235.54642 371.14807Q236.78079 371.14807 237.44485 371.82776Q238.10892 372.50745 238.10892 373.92932L238.10892 379.63245L236.71829 379.63245L236.71829 374.39807Q236.71829 373.55432 236.57767 373.18713Q236.43704 372.81995 236.07767 372.59338Q235.71829 372.36682 235.23392 372.36682Q234.35892 372.36682 233.78079 372.94495Q233.20267 373.52307 233.20267 374.80432L233.20267 379.63245L231.79642 379.63245L231.79642 374.24182Q231.79642 373.30432 231.45267 372.83557Q231.10892 372.36682 230.32767 372.36682Q229.73392 372.36682 229.23392 372.67932Q228.73392 372.99182 228.50735 373.59338Q228.28079 374.19495 228.28079 375.31995L228.28079 379.63245L226.87454 379.63245ZM240.20267 382.81995L240.20267 371.33557L241.48392 371.33557L241.48392 372.4137Q241.93704 371.77307 242.50735 371.46057Q243.07767 371.14807 243.89017 371.14807Q244.95267 371.14807 245.76517 371.69495Q246.57767 372.24182 246.99173 373.234Q247.40579 374.2262 247.40579 375.4137Q247.40579 376.69495 246.94485 377.71057Q246.48392 378.7262 245.61673 379.27307Q244.74954 379.81995 243.78079 379.81995Q243.07767 379.81995 242.52298 379.52307Q241.96829 379.2262 241.60892 378.77307L241.60892 382.81995L240.20267 382.81995ZM241.46829 375.52307Q241.46829 377.13245 242.11673 377.89807Q242.76517 378.6637 243.68704 378.6637Q244.62454 378.6637 245.29642 377.86682Q245.96829 377.06995 245.96829 375.4137Q245.96829 373.81995 245.31204 373.03088Q244.65579 372.24182 243.74954 372.24182Q242.85892 372.24182 242.1636 373.08557Q241.46829 373.92932 241.46829 375.52307ZM248.56985 375.4762Q248.56985 373.17932 249.8511 372.06995Q250.92923 371.14807 252.46048 371.14807Q254.17923 371.14807 255.26517 372.26526Q256.3511 373.38245 256.3511 375.36682Q256.3511 376.96057 255.86673 377.88245Q255.38235 378.80432 254.46829 379.31213Q253.55423 379.81995 252.46048 379.81995Q250.7261 379.81995 249.64798 378.70276Q248.56985 377.58557 248.56985 375.4762ZM250.02298 375.4762Q250.02298 377.06995 250.71829 377.86682Q251.4136 378.6637 252.46048 378.6637Q253.50735 378.6637 254.20267 377.86682Q254.89798 377.06995 254.89798 375.42932Q254.89798 373.89807 254.20267 373.1012Q253.50735 372.30432 252.46048 372.30432Q251.4136 372.30432 250.71829 373.09338Q250.02298 373.88245 250.02298 375.4762ZM257.99954 379.63245L257.99954 371.33557L259.26517 371.33557L259.26517 372.50745Q260.17142 371.14807 261.9058 371.14807Q262.6558 371.14807 263.2808 371.4137Q263.9058 371.67932 264.2183 372.11682Q264.5308 372.55432 264.6558 373.1637Q264.73392 373.55432 264.73392 374.52307L264.73392 379.63245L263.32767 379.63245L263.32767 374.58557Q263.32767 373.7262 263.1636 373.2965Q262.99954 372.86682 262.58548 372.61682Q262.17142 372.36682 261.60892 372.36682Q260.70267 372.36682 260.05423 372.93713Q259.4058 373.50745 259.4058 375.1012L259.4058 379.63245L257.99954 379.63245ZM272.56985 376.96057L274.02298 377.13245Q273.67923 378.4137 272.74954 379.11682Q271.81985 379.81995 270.38235 379.81995Q268.55423 379.81995 267.49173 378.69495Q266.42923 377.56995 266.42923 375.55432Q266.42923 373.46057 267.50735 372.30432Q268.58548 371.14807 270.30423 371.14807Q271.96048 371.14807 273.01517 372.28088Q274.06985 373.4137 274.06985 375.46057Q274.06985 375.58557 274.06985 375.83557L267.88235 375.83557Q267.96048 377.21057 268.6558 377.93713Q269.3511 378.6637 270.38235 378.6637Q271.1636 378.6637 271.71048 378.25745Q272.25735 377.8512 272.56985 376.96057ZM267.96048 374.67932L272.58548 374.67932Q272.49173 373.63245 272.05423 373.11682Q271.38235 372.30432 270.31985 372.30432Q269.3511 372.30432 268.68704 372.95276Q268.02298 373.6012 267.96048 374.67932ZM275.79642 379.63245L275.79642 371.33557L277.06204 371.33557L277.06204 372.50745Q277.9683 371.14807 279.70267 371.14807Q280.45267 371.14807 281.07767 371.4137Q281.70267 371.67932 282.01517 372.11682Q282.32767 372.55432 282.45267 373.1637Q282.5308 373.55432 282.5308 374.52307L282.5308 379.63245L281.12454 379.63245L281.12454 374.58557Q281.12454 373.7262 280.96048 373.2965Q280.79642 372.86682 280.38235 372.61682Q279.9683 372.36682 279.4058 372.36682Q278.49954 372.36682 277.8511 372.93713Q277.20267 373.50745 277.20267 375.1012L277.20267 379.63245L275.79642 379.63245ZM287.75735 378.36682L287.96048 379.61682Q287.36673 379.74182 286.89798 379.74182Q286.13235 379.74182 285.71048 379.49963Q285.2886 379.25745 285.11673 378.859Q284.94485 378.46057 284.94485 377.19495L284.94485 372.42932L283.9136 372.42932L283.9136 371.33557L284.94485 371.33557L284.94485 369.27307L286.3511 368.42932L286.3511 371.33557L287.75735 371.33557L287.75735 372.42932L286.3511 372.42932L286.3511 377.27307Q286.3511 377.88245 286.42142 378.05432Q286.49173 378.2262 286.6636 378.32776Q286.83548 378.42932 287.14798 378.42932Q287.38235 378.42932 287.75735 378.36682ZM296.54642 374.61682L288.95267 377.86682L288.95267 376.46057L294.9683 373.9762L288.95267 371.50745L288.95267 370.1012L296.54642 373.30432L296.54642 374.61682ZM305.89017 374.61682L298.29642 377.86682L298.29642 376.46057L304.31204 373.9762L298.29642 371.50745L298.29642 370.1012L305.89017 373.30432L305.89017 374.61682Z" fill-rule="nonzero" fill="#000000"></path><path d="M207.70267 391.33557L207.70267 389.74182L209.29642 389.74182L209.29642 391.33557L207.70267 391.33557ZM207.70267 398.0387L207.70267 396.42932L209.29642 396.42932L209.29642 398.0387L207.70267 398.0387ZM211.75735 401.2262L211.75735 389.74182L213.0386 389.74182L213.0386 390.81995Q213.49173 390.17932 214.06204 389.86682Q214.63235 389.55432 215.44485 389.55432Q216.50735 389.55432 217.31985 390.1012Q218.13235 390.64807 218.54642 391.64026Q218.96048 392.63245 218.96048 393.81995Q218.96048 395.1012 218.49954 396.11682Q218.0386 397.13245 217.17142 397.67932Q216.30423 398.2262 215.33548 398.2262Q214.63235 398.2262 214.07767 397.92932Q213.52298 397.63245 213.1636 397.17932L213.1636 401.2262L211.75735 401.2262ZM213.02298 393.92932Q213.02298 395.5387 213.67142 396.30432Q214.31985 397.06995 215.24173 397.06995Q216.17923 397.06995 216.8511 396.27307Q217.52298 395.4762 217.52298 393.81995Q217.52298 392.2262 216.86673 391.43713Q216.21048 390.64807 215.30423 390.64807Q214.4136 390.64807 213.71829 391.49182Q213.02298 392.33557 213.02298 393.92932ZM222.95267 398.0387L219.79642 389.74182L221.28079 389.74182L223.06204 394.71057Q223.35892 395.50745 223.59329 396.38245Q223.78079 395.7262 224.12454 394.80432L225.96829 389.74182L227.40579 389.74182L224.26517 398.0387L222.95267 398.0387ZM228.78079 398.0387L228.78079 386.58557L231.06204 386.58557L233.78079 394.69495Q234.15579 395.81995 234.32767 396.38245Q234.51517 395.75745 234.93704 394.55432L237.67142 386.58557L239.71829 386.58557L239.71829 398.0387L238.24954 398.0387L238.24954 388.44495L234.92142 398.0387L233.56204 398.0387L230.24954 388.2887L230.24954 398.0387L228.78079 398.0387ZM247.39017 397.00745Q246.60892 397.67932 245.89017 397.95276Q245.17142 398.2262 244.34329 398.2262Q242.96829 398.2262 242.23392 397.55432Q241.49954 396.88245 241.49954 395.8512Q241.49954 395.24182 241.78079 394.734Q242.06204 394.2262 242.50735 393.9215Q242.95267 393.61682 243.51517 393.46057Q243.93704 393.3512 244.76517 393.25745Q246.46829 393.05432 247.28079 392.77307Q247.28079 392.4762 247.28079 392.39807Q247.28079 391.5387 246.89017 391.19495Q246.34329 390.71057 245.28079 390.71057Q244.29642 390.71057 243.81985 391.06213Q243.34329 391.4137 243.12454 392.2887L241.74954 392.1012Q241.93704 391.2262 242.36673 390.67932Q242.79642 390.13245 243.60892 389.84338Q244.42142 389.55432 245.48392 389.55432Q246.54642 389.55432 247.21048 389.80432Q247.87454 390.05432 248.18704 390.42932Q248.49954 390.80432 248.62454 391.38245Q248.70267 391.74182 248.70267 392.67932L248.70267 394.55432Q248.70267 396.52307 248.7886 397.0387Q248.87454 397.55432 249.14017 398.0387L247.67142 398.0387Q247.45267 397.6012 247.39017 397.00745ZM247.28079 393.86682Q246.51517 394.17932 244.98392 394.39807Q244.10892 394.52307 243.74954 394.67932Q243.39017 394.83557 243.19485 395.14026Q242.99954 395.44495 242.99954 395.80432Q242.99954 396.36682 243.42923 396.74182Q243.85892 397.11682 244.67142 397.11682Q245.48392 397.11682 246.11673 396.76526Q246.74954 396.4137 247.04642 395.7887Q247.28079 395.31995 247.28079 394.38245L247.28079 393.86682ZM250.88235 398.0387L250.88235 389.74182L252.14798 389.74182L252.14798 390.9137Q253.05423 389.55432 254.7886 389.55432Q255.5386 389.55432 256.1636 389.81995Q256.7886 390.08557 257.1011 390.52307Q257.4136 390.96057 257.5386 391.56995Q257.61673 391.96057 257.61673 392.92932L257.61673 398.0387L256.21048 398.0387L256.21048 392.99182Q256.21048 392.13245 256.04642 391.70276Q255.88235 391.27307 255.46829 391.02307Q255.05423 390.77307 254.49173 390.77307Q253.58548 390.77307 252.93704 391.34338Q252.2886 391.9137 252.2886 393.50745L252.2886 398.0387L250.88235 398.0387ZM265.18704 397.00745Q264.4058 397.67932 263.68704 397.95276Q262.9683 398.2262 262.14017 398.2262Q260.76517 398.2262 260.0308 397.55432Q259.29642 396.88245 259.29642 395.8512Q259.29642 395.24182 259.57767 394.734Q259.85892 394.2262 260.30423 393.9215Q260.74954 393.61682 261.31204 393.46057Q261.73392 393.3512 262.56204 393.25745Q264.26517 393.05432 265.07767 392.77307Q265.07767 392.4762 265.07767 392.39807Q265.07767 391.5387 264.68704 391.19495Q264.14017 390.71057 263.07767 390.71057Q262.0933 390.71057 261.61673 391.06213Q261.14017 391.4137 260.92142 392.2887L259.54642 392.1012Q259.73392 391.2262 260.1636 390.67932Q260.5933 390.13245 261.4058 389.84338Q262.2183 389.55432 263.2808 389.55432Q264.3433 389.55432 265.00735 389.80432Q265.67142 390.05432 265.98392 390.42932Q266.29642 390.80432 266.42142 391.38245Q266.49954 391.74182 266.49954 392.67932L266.49954 394.55432Q266.49954 396.52307 266.58548 397.0387Q266.67142 397.55432 266.93704 398.0387L265.4683 398.0387Q265.24954 397.6012 265.18704 397.00745ZM265.07767 393.86682Q264.31204 394.17932 262.7808 394.39807Q261.9058 394.52307 261.54642 394.67932Q261.18704 394.83557 260.99173 395.14026Q260.79642 395.44495 260.79642 395.80432Q260.79642 396.36682 261.2261 396.74182Q261.6558 397.11682 262.4683 397.11682Q263.2808 397.11682 263.9136 396.76526Q264.54642 396.4137 264.8433 395.7887Q265.07767 395.31995 265.07767 394.38245L265.07767 393.86682ZM268.4136 398.7262L269.7886 398.92932Q269.86673 399.56995 270.25735 399.8512Q270.7886 400.24182 271.69485 400.24182Q272.6636 400.24182 273.19485 399.8512Q273.7261 399.46057 273.9136 398.75745Q274.02298 398.33557 274.02298 396.94495Q273.1011 398.0387 271.7261 398.0387Q270.00735 398.0387 269.06985 396.80432Q268.13235 395.56995 268.13235 393.83557Q268.13235 392.64807 268.56204 391.64807Q268.99173 390.64807 269.81204 390.1012Q270.63235 389.55432 271.7261 389.55432Q273.19485 389.55432 274.14798 390.74182L274.14798 389.74182L275.44485 389.74182L275.44485 396.9137Q275.44485 398.8512 275.05423 399.6637Q274.6636 400.4762 273.80423 400.94495Q272.94485 401.4137 271.69485 401.4137Q270.21048 401.4137 269.29642 400.74182Q268.38235 400.06995 268.4136 398.7262ZM269.58548 393.74182Q269.58548 395.36682 270.23392 396.11682Q270.88235 396.86682 271.8511 396.86682Q272.81985 396.86682 273.4761 396.12463Q274.13235 395.38245 274.13235 393.7887Q274.13235 392.25745 273.46048 391.484Q272.7886 390.71057 271.83548 390.71057Q270.89798 390.71057 270.24173 391.4762Q269.58548 392.24182 269.58548 393.74182ZM283.24954 395.36682L284.70267 395.5387Q284.35892 396.81995 283.42923 397.52307Q282.49954 398.2262 281.06204 398.2262Q279.23392 398.2262 278.17142 397.1012Q277.10892 395.9762 277.10892 393.96057Q277.10892 391.86682 278.18704 390.71057Q279.26517 389.55432 280.98392 389.55432Q282.64017 389.55432 283.69485 390.68713Q284.74954 391.81995 284.74954 393.86682Q284.74954 393.99182 284.74954 394.24182L278.56204 394.24182Q278.64017 395.61682 279.33548 396.34338Q280.0308 397.06995 281.06204 397.06995Q281.8433 397.06995 282.39017 396.6637Q282.93704 396.25745 283.24954 395.36682ZM278.64017 393.08557L283.26517 393.08557Q283.17142 392.0387 282.73392 391.52307Q282.06204 390.71057 280.99954 390.71057Q280.0308 390.71057 279.36673 391.359Q278.70267 392.00745 278.64017 393.08557ZM286.46048 398.0387L286.46048 389.74182L287.7261 389.74182L287.7261 390.99182Q288.21048 390.11682 288.61673 389.83557Q289.02298 389.55432 289.52298 389.55432Q290.2261 389.55432 290.96048 390.00745L290.4761 391.30432Q289.96048 391.00745 289.44485 391.00745Q288.99173 391.00745 288.62454 391.28088Q288.25735 391.55432 288.1011 392.05432Q287.86673 392.80432 287.86673 393.69495L287.86673 398.0387L286.46048 398.0387Z" fill-rule="nonzero" fill="#000000"></path><path d="M921.8688 74.15672L901.6569 53.94488L647.47504 53.94488L647.47504 459.78027L667.6869 479.99213L921.8688 479.99213ZM921.8688 74.15672L667.6869 74.15672L647.47504 53.94488M667.6869 74.15672L667.6869 479.99213" fill-rule="nonzero" stroke="#000000" stroke-width="2.0" stroke-linejoin="round" stroke-linecap="butt"></path><path d="M723.92255 115.143166L723.92255 113.59629L732.92255 109.78379L732.92255 111.44004L725.7819 114.37754L732.92255 117.34629L732.92255 119.00254L723.92255 115.143166ZM734.8175 115.143166L734.8175 113.59629L743.8175 109.78379L743.8175 111.44004L736.6769 114.37754L743.8175 117.34629L743.8175 119.00254L734.8175 115.143166ZM745.9156 121.09629L745.9156 111.236916L747.4156 111.236916L747.4156 112.62754Q747.8687 111.90879 748.64215 111.46348Q749.4156 111.018166 750.39996 111.018166Q751.4937 111.018166 752.19684 111.47129Q752.89996 111.924416 753.1812 112.75254Q754.3531 111.018166 756.2281 111.018166Q757.69684 111.018166 758.4859 111.830666Q759.27496 112.643166 759.27496 114.330666L759.27496 121.09629L757.6031 121.09629L757.6031 114.893166Q757.6031 113.893166 757.44684 113.44785Q757.2906 113.00254 756.8609 112.736916Q756.4312 112.47129 755.8531 112.47129Q754.82184 112.47129 754.13434 113.15879Q753.44684 113.84629 753.44684 115.37754L753.44684 121.09629L751.77496 121.09629L751.77496 114.69004Q751.77496 113.580666 751.3687 113.02598Q750.96246 112.47129 750.02496 112.47129Q749.32184 112.47129 748.7203 112.83848Q748.1187 113.205666 747.8531 113.924416Q747.58746 114.643166 747.58746 115.986916L747.58746 121.09629L745.9156 121.09629ZM767.89386 119.87754Q766.95636 120.674416 766.097 120.99473Q765.2376 121.31504 764.25323 121.31504Q762.64386 121.31504 761.76886 120.52598Q760.89386 119.736916 760.89386 118.50254Q760.89386 117.768166 761.222 117.174416Q761.5501 116.580666 762.08136 116.22129Q762.6126 115.861916 763.2845 115.674416Q763.7845 115.53379 764.76886 115.424416Q766.8001 115.174416 767.75323 114.84629Q767.75323 114.50254 767.75323 114.40879Q767.75323 113.393166 767.2845 112.97129Q766.64386 112.40879 765.37823 112.40879Q764.20636 112.40879 763.64386 112.81504Q763.08136 113.22129 762.81573 114.28379L761.1751 114.049416Q761.4095 113.00254 761.9173 112.361916Q762.4251 111.72129 763.38605 111.36973Q764.347 111.018166 765.62823 111.018166Q766.89386 111.018166 767.6751 111.31504Q768.45636 111.611916 768.83136 112.06504Q769.20636 112.518166 769.347 113.205666Q769.44073 113.62754 769.44073 114.736916L769.44073 116.97129Q769.44073 119.299416 769.5423 119.9166Q769.64386 120.53379 769.972 121.09629L768.222 121.09629Q767.95636 120.580666 767.89386 119.87754ZM767.75323 116.15879Q766.847 116.518166 765.01886 116.78379Q763.9876 116.924416 763.56573 117.111916Q763.14386 117.299416 762.9095 117.65879Q762.6751 118.018166 762.6751 118.455666Q762.6751 119.12754 763.1829 119.57285Q763.69073 120.018166 764.6595 120.018166Q765.62823 120.018166 766.37823 119.58848Q767.12823 119.15879 767.4876 118.44004Q767.75323 117.861916 767.75323 116.768166L767.75323 116.15879ZM778.2696 117.486916L779.9102 117.705666Q779.6446 119.393166 778.5352 120.3541Q777.42584 121.31504 775.80084 121.31504Q773.7852 121.31504 772.55865 119.99473Q771.3321 118.674416 771.3321 116.205666Q771.3321 114.611916 771.8555 113.4166Q772.37897 112.22129 773.4649 111.61973Q774.55084 111.018166 775.81647 111.018166Q777.42584 111.018166 778.44147 111.830666Q779.4571 112.643166 779.75397 114.143166L778.12897 114.393166Q777.8946 113.393166 777.30084 112.893166Q776.7071 112.393166 775.87897 112.393166Q774.61334 112.393166 773.8243 113.299416Q773.0352 114.205666 773.0352 116.15879Q773.0352 118.143166 773.80084 119.0416Q774.56647 119.94004 775.7852 119.94004Q776.7696 119.94004 777.42584 119.33848Q778.0821 118.736916 778.2696 117.486916ZM781.1602 121.09629L781.1602 107.50254L782.8321 107.50254L782.8321 112.37754Q784.00397 111.018166 785.7852 111.018166Q786.87897 111.018166 787.68365 111.44785Q788.48834 111.87754 788.8399 112.643166Q789.19147 113.40879 789.19147 114.84629L789.19147 121.09629L787.5196 121.09629L787.5196 114.84629Q787.5196 113.59629 786.9727 113.02598Q786.42584 112.455666 785.44147 112.455666Q784.69147 112.455666 784.043 112.83848Q783.3946 113.22129 783.11334 113.88535Q782.8321 114.549416 782.8321 115.705666L782.8321 121.09629L781.1602 121.09629ZM791.5516 109.40879L791.5516 107.50254L793.22345 107.50254L793.22345 109.40879L791.5516 109.40879ZM791.5516 121.09629L791.5516 111.236916L793.22345 111.236916L793.22345 121.09629L791.5516 121.09629ZM795.6808 121.09629L795.6808 111.236916L797.1808 111.236916L797.1808 112.643166Q798.27454 111.018166 800.3214 111.018166Q801.21204 111.018166 801.96204 111.33848Q802.71204 111.65879 803.0792 112.18223Q803.4464 112.705666 803.60266 113.40879Q803.6964 113.87754 803.6964 115.03379L803.6964 121.09629L802.02454 121.09629L802.02454 115.09629Q802.02454 114.080666 801.8292 113.57285Q801.6339 113.06504 801.1339 112.768166Q800.6339 112.47129 799.96204 112.47129Q798.89954 112.47129 798.1261 113.143166Q797.35266 113.81504 797.35266 115.72129L797.35266 121.09629L795.6808 121.09629ZM812.80646 117.924416L814.5252 118.143166Q814.11896 119.643166 813.0174 120.4791Q811.91583 121.31504 810.1971 121.31504Q808.04083 121.31504 806.7752 119.986916Q805.5096 118.65879 805.5096 116.25254Q805.5096 113.768166 806.783 112.393166Q808.05646 111.018166 810.10333 111.018166Q812.0877 111.018166 813.3377 112.361916Q814.5877 113.705666 814.5877 116.15879Q814.5877 116.299416 814.5721 116.59629L807.22833 116.59629Q807.3221 118.22129 808.1502 119.080666Q808.97833 119.94004 810.2127 119.94004Q811.11896 119.94004 811.7674 119.46348Q812.41583 118.986916 812.80646 117.924416ZM807.3221 115.22129L812.8221 115.22129Q812.7127 113.986916 812.1971 113.361916Q811.4002 112.393166 810.11896 112.393166Q808.97833 112.393166 808.1893 113.1666Q807.4002 113.94004 807.3221 115.22129ZM825.22906 115.143166L816.22906 119.00254L816.22906 117.34629L823.35406 114.37754L816.22906 111.44004L816.22906 109.78379L825.22906 113.59629L825.22906 115.143166ZM836.124 115.143166L827.124 119.00254L827.124 117.34629L834.249 114.37754L827.124 111.44004L827.124 109.78379L836.124 113.59629L836.124 115.143166Z" fill-rule="nonzero" fill="#000000"></path><path d="M751.5767 134.5963L751.5767 132.69005L753.483 132.69005L753.483 134.5963L751.5767 134.5963ZM751.5767 142.54942L751.5767 140.64317L753.483 140.64317L753.483 142.54942L751.5767 142.54942ZM755.9007 138.17442L757.5882 138.0338Q757.7132 139.04942 758.1507 139.70567Q758.5882 140.36192 759.5179 140.76817Q760.4476 141.17442 761.6038 141.17442Q762.6351 141.17442 763.42413 140.86192Q764.2132 140.54942 764.6038 140.01817Q764.99445 139.48692 764.99445 138.86192Q764.99445 138.2213 764.61945 137.74474Q764.24445 137.26817 763.3851 136.94005Q762.8382 136.7213 760.9632 136.27599Q759.0882 135.83067 758.3382 135.42442Q757.36945 134.9088 756.8929 134.1588Q756.4163 133.4088 756.4163 132.4713Q756.4163 131.44005 757.00226 130.54161Q757.5882 129.64317 758.7054 129.18224Q759.8226 128.7213 761.1976 128.7213Q762.7132 128.7213 763.86945 129.20567Q765.0257 129.69005 765.6429 130.63536Q766.2601 131.58067 766.30695 132.7838L764.5882 132.9088Q764.4476 131.62755 763.6429 130.96349Q762.8382 130.29942 761.2757 130.29942Q759.6507 130.29942 758.9007 130.90099Q758.1507 131.50255 758.1507 132.3463Q758.1507 133.08067 758.68195 133.54942Q759.1976 134.01817 761.3929 134.51817Q763.5882 135.01817 764.4007 135.39317Q765.5882 135.94005 766.1585 136.77599Q766.7288 137.61192 766.7288 138.70567Q766.7288 139.79942 766.1038 140.76036Q765.4788 141.7213 764.31476 142.25255Q763.1507 142.7838 761.6976 142.7838Q759.8538 142.7838 758.6038 142.24474Q757.3538 141.70567 756.6429 140.62755Q755.93195 139.54942 755.9007 138.17442ZM775.48486 139.37755L777.2036 139.5963Q776.79736 141.0963 775.6958 141.93224Q774.59424 142.76817 772.8755 142.76817Q770.71924 142.76817 769.4536 141.44005Q768.188 140.11192 768.188 137.70567Q768.188 135.2213 769.4614 133.8463Q770.73486 132.4713 772.78174 132.4713Q774.7661 132.4713 776.0161 133.81505Q777.2661 135.1588 777.2661 137.61192Q777.2661 137.75255 777.2505 138.04942L769.90674 138.04942Q770.0005 139.67442 770.8286 140.5338Q771.65674 141.39317 772.8911 141.39317Q773.79736 141.39317 774.4458 140.91661Q775.09424 140.44005 775.48486 139.37755ZM770.0005 136.67442L775.5005 136.67442Q775.3911 135.44005 774.8755 134.81505Q774.0786 133.8463 772.79736 133.8463Q771.65674 133.8463 770.8677 134.61974Q770.0786 135.39317 770.0005 136.67442ZM779.095 142.54942L779.095 132.69005L780.595 132.69005L780.595 134.19005Q781.1731 133.14317 781.6575 132.80724Q782.14185 132.4713 782.7356 132.4713Q783.57935 132.4713 784.45435 133.01817L783.8762 134.56505Q783.26685 134.20567 782.64185 134.20567Q782.095 134.20567 781.6653 134.5338Q781.2356 134.86192 781.0481 135.44005Q780.76685 136.33067 780.76685 137.39317L780.76685 142.54942L779.095 142.54942ZM788.0576 142.54942L784.3076 132.69005L786.07324 132.69005L788.19824 138.5963Q788.542 139.54942 788.82324 140.58067Q789.042 139.79942 789.44824 138.70567L791.63574 132.69005L793.3545 132.69005L789.6201 142.54942L788.0576 142.54942ZM801.40137 139.37755L803.1201 139.5963Q802.71387 141.0963 801.6123 141.93224Q800.51074 142.76817 798.792 142.76817Q796.63574 142.76817 795.3701 141.44005Q794.1045 140.11192 794.1045 137.70567Q794.1045 135.2213 795.3779 133.8463Q796.65137 132.4713 798.69824 132.4713Q800.6826 132.4713 801.9326 133.81505Q803.1826 135.1588 803.1826 137.61192Q803.1826 137.75255 803.167 138.04942L795.82324 138.04942Q795.917 139.67442 796.7451 140.5338Q797.57324 141.39317 798.8076 141.39317Q799.71387 141.39317 800.3623 140.91661Q801.01074 140.44005 801.40137 139.37755ZM795.917 136.67442L801.417 136.67442Q801.3076 135.44005 800.792 134.81505Q799.9951 133.8463 798.71387 133.8463Q797.57324 133.8463 796.7842 134.61974Q795.9951 135.39317 795.917 136.67442ZM805.0115 142.54942L805.0115 132.69005L806.5115 132.69005L806.5115 134.19005Q807.0896 133.14317 807.574 132.80724Q808.05835 132.4713 808.6521 132.4713Q809.49585 132.4713 810.37085 133.01817L809.7927 134.56505Q809.18335 134.20567 808.55835 134.20567Q808.0115 134.20567 807.5818 134.5338Q807.1521 134.86192 806.9646 135.44005Q806.68335 136.33067 806.68335 137.39317L806.68335 142.54942L805.0115 142.54942Z" fill-rule="nonzero" fill="#000000"></path><path d="M321.84515 242.5778L315.88507 236.61774L169.18373 236.61774L169.18373 311.57104L175.14381 317.53113L321.84515 317.53113ZM321.84515 242.5778L175.14381 242.5778L169.18373 236.61774M175.14381 242.5778L175.14381 317.53113" fill-rule="nonzero" stroke="#000000" stroke-width="2.0" stroke-linejoin="round" stroke-linecap="butt"></path><path d="M191.09995 271.11697L191.09995 269.80447L198.6937 266.60135L198.6937 268.0076L192.67807 270.47635L198.6937 272.96072L198.6937 274.36697L191.09995 271.11697ZM200.4437 271.11697L200.4437 269.80447L208.03745 266.60135L208.03745 268.0076L202.02182 270.47635L208.03745 272.96072L208.03745 274.36697L200.4437 271.11697ZM215.3812 273.08572L216.77182 273.27322Q216.53745 274.6951 215.60776 275.5076Q214.67807 276.3201 213.3187 276.3201Q211.61557 276.3201 210.5765 275.2029Q209.53745 274.08572 209.53745 272.0076Q209.53745 270.66385 209.98276 269.65604Q210.42807 268.64822 211.34213 268.14822Q212.2562 267.64822 213.3187 267.64822Q214.67807 267.64822 215.53745 268.3279Q216.39682 269.0076 216.6312 270.27322L215.27182 270.47635Q215.0687 269.64822 214.5765 269.22635Q214.08432 268.80447 213.3812 268.80447Q212.3187 268.80447 211.65463 269.5623Q210.99057 270.3201 210.99057 271.97635Q210.99057 273.64822 211.6312 274.40604Q212.27182 275.16385 213.30307 275.16385Q214.1312 275.16385 214.68588 274.65604Q215.24057 274.14822 215.3812 273.08572ZM217.4437 271.97635Q217.4437 269.67947 218.72495 268.5701Q219.80307 267.64822 221.33432 267.64822Q223.05307 267.64822 224.139 268.7654Q225.22495 269.8826 225.22495 271.86697Q225.22495 273.46072 224.74057 274.3826Q224.2562 275.30447 223.34213 275.8123Q222.42807 276.3201 221.33432 276.3201Q219.59995 276.3201 218.52182 275.2029Q217.4437 274.08572 217.4437 271.97635ZM218.89682 271.97635Q218.89682 273.5701 219.59213 274.36697Q220.28745 275.16385 221.33432 275.16385Q222.3812 275.16385 223.0765 274.36697Q223.77182 273.5701 223.77182 271.92947Q223.77182 270.39822 223.0765 269.60135Q222.3812 268.80447 221.33432 268.80447Q220.28745 268.80447 219.59213 269.59354Q218.89682 270.3826 218.89682 271.97635ZM226.87338 276.1326L226.87338 267.83572L228.12338 267.83572L228.12338 268.99197Q228.514 268.3826 229.16245 268.0154Q229.81088 267.64822 230.639 267.64822Q231.56088 267.64822 232.15463 268.03104Q232.74838 268.41385 232.98276 269.10135Q233.96713 267.64822 235.54526 267.64822Q236.77963 267.64822 237.4437 268.3279Q238.10776 269.0076 238.10776 270.42947L238.10776 276.1326L236.71713 276.1326L236.71713 270.89822Q236.71713 270.05447 236.5765 269.6873Q236.43588 269.3201 236.0765 269.09354Q235.71713 268.86697 235.23276 268.86697Q234.35776 268.86697 233.77963 269.4451Q233.2015 270.02322 233.2015 271.30447L233.2015 276.1326L231.79526 276.1326L231.79526 270.74197Q231.79526 269.80447 231.4515 269.33572Q231.10776 268.86697 230.3265 268.86697Q229.73276 268.86697 229.23276 269.17947Q228.73276 269.49197 228.5062 270.09354Q228.27963 270.6951 228.27963 271.8201L228.27963 276.1326L226.87338 276.1326ZM240.2015 279.3201L240.2015 267.83572L241.48276 267.83572L241.48276 268.91385Q241.93588 268.27322 242.5062 267.96072Q243.0765 267.64822 243.889 267.64822Q244.9515 267.64822 245.764 268.1951Q246.5765 268.74197 246.99057 269.73416Q247.40463 270.72635 247.40463 271.91385Q247.40463 273.1951 246.9437 274.21072Q246.48276 275.22635 245.61557 275.77322Q244.74838 276.3201 243.77963 276.3201Q243.0765 276.3201 242.52182 276.02322Q241.96713 275.72635 241.60776 275.27322L241.60776 279.3201L240.2015 279.3201ZM241.46713 272.02322Q241.46713 273.6326 242.11557 274.39822Q242.764 275.16385 243.68588 275.16385Q244.62338 275.16385 245.29526 274.36697Q245.96713 273.5701 245.96713 271.91385Q245.96713 270.3201 245.31088 269.53104Q244.65463 268.74197 243.74838 268.74197Q242.85776 268.74197 242.16245 269.58572Q241.46713 270.42947 241.46713 272.02322ZM248.5687 271.97635Q248.5687 269.67947 249.84995 268.5701Q250.92807 267.64822 252.45932 267.64822Q254.17807 267.64822 255.264 268.7654Q256.34995 269.8826 256.34995 271.86697Q256.34995 273.46072 255.86557 274.3826Q255.3812 275.30447 254.46713 275.8123Q253.55307 276.3201 252.45932 276.3201Q250.72495 276.3201 249.64682 275.2029Q248.5687 274.08572 248.5687 271.97635ZM250.02182 271.97635Q250.02182 273.5701 250.71713 274.36697Q251.41245 275.16385 252.45932 275.16385Q253.5062 275.16385 254.2015 274.36697Q254.89682 273.5701 254.89682 271.92947Q254.89682 270.39822 254.2015 269.60135Q253.5062 268.80447 252.45932 268.80447Q251.41245 268.80447 250.71713 269.59354Q250.02182 270.3826 250.02182 271.97635ZM257.99838 276.1326L257.99838 267.83572L259.264 267.83572L259.264 269.0076Q260.17026 267.64822 261.90463 267.64822Q262.65463 267.64822 263.27963 267.91385Q263.90463 268.17947 264.21713 268.61697Q264.52963 269.05447 264.65463 269.66385Q264.73276 270.05447 264.73276 271.02322L264.73276 276.1326L263.3265 276.1326L263.3265 271.08572Q263.3265 270.22635 263.16245 269.79666Q262.99838 269.36697 262.58432 269.11697Q262.17026 268.86697 261.60776 268.86697Q260.7015 268.86697 260.05307 269.4373Q259.40463 270.0076 259.40463 271.60135L259.40463 276.1326L257.99838 276.1326ZM272.5687 273.46072L274.02182 273.6326Q273.67807 274.91385 272.74838 275.61697Q271.8187 276.3201 270.3812 276.3201Q268.55307 276.3201 267.49057 275.1951Q266.42807 274.0701 266.42807 272.05447Q266.42807 269.96072 267.5062 268.80447Q268.58432 267.64822 270.30307 267.64822Q271.95932 267.64822 273.014 268.78104Q274.0687 269.91385 274.0687 271.96072Q274.0687 272.08572 274.0687 272.33572L267.8812 272.33572Q267.95932 273.71072 268.65463 274.4373Q269.34995 275.16385 270.3812 275.16385Q271.16245 275.16385 271.70932 274.7576Q272.2562 274.35135 272.5687 273.46072ZM267.95932 271.17947L272.58432 271.17947Q272.49057 270.1326 272.05307 269.61697Q271.3812 268.80447 270.3187 268.80447Q269.34995 268.80447 268.68588 269.4529Q268.02182 270.10135 267.95932 271.17947ZM275.79526 276.1326L275.79526 267.83572L277.06088 267.83572L277.06088 269.0076Q277.96713 267.64822 279.7015 267.64822Q280.4515 267.64822 281.0765 267.91385Q281.7015 268.17947 282.014 268.61697Q282.3265 269.05447 282.4515 269.66385Q282.52963 270.05447 282.52963 271.02322L282.52963 276.1326L281.12338 276.1326L281.12338 271.08572Q281.12338 270.22635 280.95932 269.79666Q280.79526 269.36697 280.3812 269.11697Q279.96713 268.86697 279.40463 268.86697Q278.49838 268.86697 277.84995 269.4373Q277.2015 270.0076 277.2015 271.60135L277.2015 276.1326L275.79526 276.1326ZM287.7562 274.86697L287.95932 276.11697Q287.36557 276.24197 286.89682 276.24197Q286.1312 276.24197 285.70932 275.9998Q285.28745 275.7576 285.11557 275.35916Q284.9437 274.96072 284.9437 273.6951L284.9437 268.92947L283.91245 268.92947L283.91245 267.83572L284.9437 267.83572L284.9437 265.77322L286.34995 264.92947L286.34995 267.83572L287.7562 267.83572L287.7562 268.92947L286.34995 268.92947L286.34995 273.77322Q286.34995 274.3826 286.42026 274.55447Q286.49057 274.72635 286.66245 274.8279Q286.83432 274.92947 287.14682 274.92947Q287.3812 274.92947 287.7562 274.86697ZM296.54526 271.11697L288.9515 274.36697L288.9515 272.96072L294.96713 270.47635L288.9515 268.0076L288.9515 266.60135L296.54526 269.80447L296.54526 271.11697ZM305.889 271.11697L298.29526 274.36697L298.29526 272.96072L304.31088 270.47635L298.29526 268.0076L298.29526 266.60135L305.889 269.80447L305.889 271.11697Z" fill-rule="nonzero" fill="#000000"></path><path d="M230.83041 287.83572L230.83041 286.24197L232.42416 286.24197L232.42416 287.83572L230.83041 287.83572ZM230.83041 294.53885L230.83041 292.92947L232.42416 292.92947L232.42416 294.53885L230.83041 294.53885ZM234.99448 294.53885L234.99448 283.08572L239.29135 283.08572Q240.60385 283.08572 241.40073 283.42947Q242.1976 283.77322 242.64291 284.4998Q243.08823 285.22635 243.08823 286.0076Q243.08823 286.74197 242.68979 287.3904Q242.29135 288.03885 241.49448 288.4451Q242.52573 288.74197 243.08823 289.47635Q243.65073 290.21072 243.65073 291.21072Q243.65073 292.02322 243.30698 292.71072Q242.96323 293.39822 242.46323 293.77322Q241.96323 294.14822 241.21323 294.34354Q240.46323 294.53885 239.36948 294.53885L234.99448 294.53885ZM236.5101 287.89822L238.99448 287.89822Q239.99448 287.89822 240.43198 287.7576Q241.0101 287.58572 241.30698 287.1873Q241.60385 286.78885 241.60385 286.1951Q241.60385 285.61697 241.33041 285.1873Q241.05698 284.7576 240.54916 284.59354Q240.04135 284.42947 238.80698 284.42947L236.5101 284.42947L236.5101 287.89822ZM236.5101 293.17947L239.36948 293.17947Q240.10385 293.17947 240.40073 293.1326Q240.91635 293.03885 241.26791 292.8201Q241.61948 292.60135 241.84604 292.17947Q242.0726 291.7576 242.0726 291.21072Q242.0726 290.5701 241.74448 290.10135Q241.41635 289.6326 240.83823 289.4373Q240.2601 289.24197 239.16635 289.24197L236.5101 289.24197L236.5101 293.17947ZM245.27573 288.96072Q245.27573 286.10135 246.80698 284.49197Q248.33823 282.8826 250.7601 282.8826Q252.33823 282.8826 253.61166 283.6404Q254.8851 284.39822 255.55698 285.7498Q256.22885 287.10135 256.22885 288.8201Q256.22885 290.5701 255.52573 291.9451Q254.8226 293.3201 253.53354 294.03104Q252.24448 294.74197 250.74448 294.74197Q249.1351 294.74197 247.86166 293.9529Q246.58823 293.16385 245.93198 291.8123Q245.27573 290.46072 245.27573 288.96072ZM246.83823 288.97635Q246.83823 291.05447 247.9476 292.24197Q249.05698 293.42947 250.74448 293.42947Q252.4476 293.42947 253.55698 292.22635Q254.66635 291.02322 254.66635 288.8201Q254.66635 287.41385 254.18979 286.3748Q253.71323 285.33572 252.80698 284.7576Q251.90073 284.17947 250.7601 284.17947Q249.15073 284.17947 247.99448 285.28885Q246.83823 286.39822 246.83823 288.97635ZM261.40854 294.53885L261.40854 289.67947L256.98666 283.08572L258.8304 283.08572L261.09604 286.53885Q261.72104 287.5076 262.2523 288.47635Q262.7679 287.5701 263.5023 286.4451L265.72104 283.08572L267.48666 283.08572L262.92416 289.67947L262.92416 294.53885L261.40854 294.53885Z" fill-rule="nonzero" fill="#000000"></path></svg>

