<?xml version="1.0" standalone="yes"?>

<svg version="1.1" viewBox="0.0 0.0 953.0 536.0" fill="none" stroke="none" stroke-linecap="square" stroke-miterlimit="10" clip-path="url(#p.0)" xmlns="http://www.w3.org/2000/svg" xmlns:xlink="http://www.w3.org/1999/xlink"><clipPath id="p.0"><path d="M0 0L953.0 0L953.0 536.0L0 536.0L0 0Z" clip-rule="nonzero"></path></clipPath><path d="M367.85333 75.43625L347.6415 55.22441L93.45965 55.22441L93.45965 461.0598L113.671486 481.27167L367.85333 481.27167ZM367.85333 75.43625L113.671486 75.43625L93.45965 55.22441M113.671486 75.43625L113.671486 481.27167" fill-rule="nonzero" stroke="#000000" stroke-width="2.0" stroke-linejoin="round" stroke-linecap="butt"></path><path d="M880.84283 74.15672L860.631 53.94488L606.44916 53.94488L606.44916 459.78027L626.66095 479.99213L880.84283 479.99213ZM880.84283 74.15672L626.66095 74.15672L606.44916 53.94488M626.66095 74.15672L626.66095 479.99213" fill-rule="nonzero" stroke="#000000" stroke-width="2.0" stroke-linejoin="round" stroke-linecap="butt"></path><path d="M856.14557 210.90178L841.08417 195.84035L651.67316 195.84035L651.67316 436.90488L666.73456 451.96634L856.14557 451.96634ZM856.14557 210.90178L666.73456 210.90178L651.67316 195.84035M666.73456 210.90178L666.73456 451.96634" fill-rule="nonzero" stroke="#000000" stroke-width="2.0" stroke-linejoin="round" stroke-linecap="butt"></path><path d="M699.6837 136.03293L699.6837 134.48605L708.6837 130.67355L708.6837 132.3298L701.5431 135.2673L708.6837 138.23605L708.6837 139.8923L699.6837 136.03293ZM710.5787 136.03293L710.5787 134.48605L719.5787 130.67355L719.5787 132.3298L712.43805 135.2673L719.5787 138.23605L719.5787 139.8923L710.5787 136.03293ZM721.67676 141.98605L721.67676 132.12668L723.17676 132.12668L723.17676 133.5173Q723.6299 132.79855 724.4033 132.35324Q725.17676 131.90793 726.16113 131.90793Q727.2549 131.90793 727.958 132.36105Q728.66113 132.81418 728.9424 133.6423Q730.11426 131.90793 731.98926 131.90793Q733.458 131.90793 734.2471 132.72043Q735.03613 133.53293 735.03613 135.22043L735.03613 141.98605L733.36426 141.98605L733.36426 135.78293Q733.36426 134.78293 733.208 134.33762Q733.05176 133.8923 732.6221 133.62668Q732.1924 133.36105 731.61426 133.36105Q730.583 133.36105 729.8955 134.04855Q729.208 134.73605 729.208 136.2673L729.208 141.98605L727.53613 141.98605L727.53613 135.5798Q727.53613 134.47043 727.1299 133.91574Q726.72363 133.36105 725.78613 133.36105Q725.083 133.36105 724.48145 133.72824Q723.8799 134.09543 723.61426 134.81418Q723.34863 135.53293 723.34863 136.87668L723.34863 141.98605L721.67676 141.98605ZM743.655 140.7673Q742.7175 141.56418 741.85815 141.88449Q740.9988 142.2048 740.0144 142.2048Q738.405 142.2048 737.53 141.41574Q736.655 140.62668 736.655 139.3923Q736.655 138.65793 736.98315 138.06418Q737.3113 137.47043 737.8425 137.11105Q738.3738 136.75168 739.04565 136.56418Q739.54565 136.42355 740.53 136.31418Q742.5613 136.06418 743.5144 135.73605Q743.5144 135.3923 743.5144 135.29855Q743.5144 134.28293 743.04565 133.86105Q742.405 133.29855 741.1394 133.29855Q739.9675 133.29855 739.405 133.7048Q738.8425 134.11105 738.5769 135.17355L736.9363 134.93918Q737.17065 133.8923 737.67847 133.25168Q738.1863 132.61105 739.1472 132.25949Q740.10815 131.90793 741.3894 131.90793Q742.655 131.90793 743.4363 132.2048Q744.2175 132.50168 744.5925 132.9548Q744.9675 133.40793 745.10815 134.09543Q745.2019 134.5173 745.2019 135.62668L745.2019 137.86105Q745.2019 140.18918 745.30347 140.80637Q745.405 141.42355 745.73315 141.98605L743.98315 141.98605Q743.7175 141.47043 743.655 140.7673ZM743.5144 137.04855Q742.60815 137.40793 740.78 137.67355Q739.7488 137.81418 739.3269 138.00168Q738.905 138.18918 738.67065 138.54855Q738.4363 138.90793 738.4363 139.34543Q738.4363 140.0173 738.9441 140.46262Q739.4519 140.90793 740.42065 140.90793Q741.3894 140.90793 742.1394 140.47824Q742.8894 140.04855 743.2488 139.3298Q743.5144 138.75168 743.5144 137.65793L743.5144 137.04855ZM754.03076 138.37668L755.6714 138.59543Q755.40576 140.28293 754.2964 141.24387Q753.187 142.2048 751.562 142.2048Q749.5464 142.2048 748.3198 140.88449Q747.09326 139.56418 747.09326 137.09543Q747.09326 135.50168 747.6167 134.30637Q748.14014 133.11105 749.2261 132.50949Q750.312 131.90793 751.57764 131.90793Q753.187 131.90793 754.20264 132.72043Q755.21826 133.53293 755.51514 135.03293L753.89014 135.28293Q753.65576 134.28293 753.062 133.78293Q752.46826 133.28293 751.64014 133.28293Q750.3745 133.28293 749.58545 134.18918Q748.7964 135.09543 748.7964 137.04855Q748.7964 139.03293 749.562 139.93137Q750.32764 140.8298 751.5464 140.8298Q752.53076 140.8298 753.187 140.22824Q753.84326 139.62668 754.03076 138.37668ZM756.9214 141.98605L756.9214 128.3923L758.59326 128.3923L758.59326 133.2673Q759.76514 131.90793 761.5464 131.90793Q762.64014 131.90793 763.4448 132.33762Q764.2495 132.7673 764.6011 133.53293Q764.95264 134.29855 764.95264 135.73605L764.95264 141.98605L763.28076 141.98605L763.28076 135.73605Q763.28076 134.48605 762.7339 133.91574Q762.187 133.34543 761.20264 133.34543Q760.45264 133.34543 759.8042 133.72824Q759.15576 134.11105 758.8745 134.77512Q758.59326 135.43918 758.59326 136.59543L758.59326 141.98605L756.9214 141.98605ZM767.31274 130.29855L767.31274 128.3923L768.9846 128.3923L768.9846 130.29855L767.31274 130.29855ZM767.31274 141.98605L767.31274 132.12668L768.9846 132.12668L768.9846 141.98605L767.31274 141.98605ZM771.4419 141.98605L771.4419 132.12668L772.9419 132.12668L772.9419 133.53293Q774.03564 131.90793 776.0825 131.90793Q776.97314 131.90793 777.72314 132.22824Q778.47314 132.54855 778.84033 133.07199Q779.2075 133.59543 779.3638 134.29855Q779.4575 134.7673 779.4575 135.92355L779.4575 141.98605L777.78564 141.98605L777.78564 135.98605Q777.78564 134.97043 777.59033 134.46262Q777.395 133.9548 776.895 133.65793Q776.395 133.36105 775.72314 133.36105Q774.66064 133.36105 773.8872 134.03293Q773.1138 134.7048 773.1138 136.61105L773.1138 141.98605L771.4419 141.98605ZM788.5676 138.81418L790.2864 139.03293Q789.8801 140.53293 788.77856 141.36887Q787.677 142.2048 785.95825 142.2048Q783.802 142.2048 782.5364 140.87668Q781.27075 139.54855 781.27075 137.1423Q781.27075 134.65793 782.5442 133.28293Q783.8176 131.90793 785.8645 131.90793Q787.8489 131.90793 789.0989 133.25168Q790.3489 134.59543 790.3489 137.04855Q790.3489 137.18918 790.33325 137.48605L782.9895 137.48605Q783.08325 139.11105 783.9114 139.97043Q784.7395 140.8298 785.9739 140.8298Q786.8801 140.8298 787.52856 140.35324Q788.177 139.87668 788.5676 138.81418ZM783.08325 136.11105L788.58325 136.11105Q788.4739 134.87668 787.95825 134.25168Q787.1614 133.28293 785.8801 133.28293Q784.7395 133.28293 783.95044 134.05637Q783.1614 134.8298 783.08325 136.11105ZM800.99023 136.03293L791.99023 139.8923L791.99023 138.23605L799.11523 135.2673L791.99023 132.3298L791.99023 130.67355L800.99023 134.48605L800.99023 136.03293ZM811.8852 136.03293L802.8852 139.8923L802.8852 138.23605L810.0102 135.2673L802.8852 132.3298L802.8852 130.67355L811.8852 134.48605L811.8852 136.03293Z" fill-rule="nonzero" fill="#000000"></path><path d="M727.3379 155.48605L727.3379 153.5798L729.24414 153.5798L729.24414 155.48605L727.3379 155.48605ZM727.3379 163.43918L727.3379 161.53293L729.24414 161.53293L729.24414 163.43918L727.3379 163.43918ZM731.6618 159.06418L733.3493 158.92355Q733.4743 159.93918 733.9118 160.59543Q734.3493 161.25168 735.279 161.65793Q736.2087 162.06418 737.3649 162.06418Q738.3962 162.06418 739.18524 161.75168Q739.9743 161.43918 740.3649 160.90793Q740.75555 160.37668 740.75555 159.75168Q740.75555 159.11105 740.38055 158.63449Q740.00555 158.15793 739.1462 157.8298Q738.5993 157.61105 736.7243 157.16574Q734.8493 156.72043 734.0993 156.31418Q733.13055 155.79855 732.654 155.04855Q732.1774 154.29855 732.1774 153.36105Q732.1774 152.3298 732.76337 151.43137Q733.3493 150.53293 734.4665 150.07199Q735.5837 149.61105 736.9587 149.61105Q738.4743 149.61105 739.63055 150.09543Q740.7868 150.5798 741.404 151.52512Q742.0212 152.47043 742.06805 153.67355L740.3493 153.79855Q740.2087 152.5173 739.404 151.85324Q738.5993 151.18918 737.0368 151.18918Q735.4118 151.18918 734.6618 151.79074Q733.9118 152.3923 733.9118 153.23605Q733.9118 153.97043 734.44305 154.43918Q734.9587 154.90793 737.154 155.40793Q739.3493 155.90793 740.1618 156.28293Q741.3493 156.8298 741.9196 157.66574Q742.4899 158.50168 742.4899 159.59543Q742.4899 160.68918 741.8649 161.65012Q741.2399 162.61105 740.07587 163.1423Q738.9118 163.67355 737.4587 163.67355Q735.6149 163.67355 734.3649 163.13449Q733.1149 162.59543 732.404 161.5173Q731.69305 160.43918 731.6618 159.06418ZM751.24603 160.2673L752.9648 160.48605Q752.55853 161.98605 751.457 162.82199Q750.3554 163.65793 748.63666 163.65793Q746.4804 163.65793 745.2148 162.3298Q743.94916 161.00168 743.94916 158.59543Q743.94916 156.11105 745.2226 154.73605Q746.49603 153.36105 748.5429 153.36105Q750.5273 153.36105 751.7773 154.7048Q753.0273 156.04855 753.0273 158.50168Q753.0273 158.6423 753.01166 158.93918L745.6679 158.93918Q745.76166 160.56418 746.5898 161.42355Q747.4179 162.28293 748.6523 162.28293Q749.55853 162.28293 750.207 161.80637Q750.8554 161.3298 751.24603 160.2673ZM745.76166 157.56418L751.26166 157.56418Q751.1523 156.3298 750.63666 155.7048Q749.8398 154.73605 748.55853 154.73605Q747.4179 154.73605 746.62885 155.50949Q745.8398 156.28293 745.76166 157.56418ZM754.85614 163.43918L754.85614 153.5798L756.35614 153.5798L756.35614 155.0798Q756.93427 154.03293 757.41864 153.69699Q757.903 153.36105 758.49677 153.36105Q759.3405 153.36105 760.2155 153.90793L759.6374 155.4548Q759.028 155.09543 758.403 155.09543Q757.85614 155.09543 757.42645 155.42355Q756.99677 155.75168 756.80927 156.3298Q756.528 157.22043 756.528 158.28293L756.528 163.43918L754.85614 163.43918ZM763.8188 163.43918L760.0688 153.5798L761.8344 153.5798L763.9594 159.48605Q764.30316 160.43918 764.5844 161.47043Q764.80316 160.68918 765.2094 159.59543L767.3969 153.5798L769.11566 153.5798L765.3813 163.43918L763.8188 163.43918ZM777.16254 160.2673L778.8813 160.48605Q778.47504 161.98605 777.3735 162.82199Q776.2719 163.65793 774.55316 163.65793Q772.3969 163.65793 771.1313 162.3298Q769.86566 161.00168 769.86566 158.59543Q769.86566 156.11105 771.1391 154.73605Q772.41254 153.36105 774.4594 153.36105Q776.4438 153.36105 777.6938 154.7048Q778.9438 156.04855 778.9438 158.50168Q778.9438 158.6423 778.92816 158.93918L771.5844 158.93918Q771.67816 160.56418 772.5063 161.42355Q773.3344 162.28293 774.5688 162.28293Q775.47504 162.28293 776.1235 161.80637Q776.7719 161.3298 777.16254 160.2673ZM771.67816 157.56418L777.17816 157.56418Q777.0688 156.3298 776.55316 155.7048Q775.7563 154.73605 774.47504 154.73605Q773.3344 154.73605 772.54535 155.50949Q771.7563 156.28293 771.67816 157.56418ZM780.77264 163.43918L780.77264 153.5798L782.27264 153.5798L782.27264 155.0798Q782.85077 154.03293 783.33514 153.69699Q783.8195 153.36105 784.41327 153.36105Q785.257 153.36105 786.132 153.90793L785.5539 155.4548Q784.9445 155.09543 784.3195 155.09543Q783.77264 155.09543 783.34296 155.42355Q782.91327 155.75168 782.72577 156.3298Q782.4445 157.22043 782.4445 158.28293L782.4445 163.43918L780.77264 163.43918Z" fill-rule="nonzero" fill="#000000"></path><path d="M179.74178 136.03293L179.74178 134.48605L188.74178 130.67355L188.74178 132.3298L181.60115 135.2673L188.74178 138.23605L188.74178 139.8923L179.74178 136.03293ZM190.63673 136.03293L190.63673 134.48605L199.63673 130.67355L199.63673 132.3298L192.49611 135.2673L199.63673 138.23605L199.63673 139.8923L190.63673 136.03293ZM201.73482 141.98605L201.73482 132.12668L203.23482 132.12668L203.23482 133.5173Q203.68794 132.79855 204.46138 132.35324Q205.23482 131.90793 206.2192 131.90793Q207.31294 131.90793 208.01607 132.36105Q208.7192 132.81418 209.00044 133.6423Q210.17232 131.90793 212.04732 131.90793Q213.51607 131.90793 214.30513 132.72043Q215.0942 133.53293 215.0942 135.22043L215.0942 141.98605L213.42232 141.98605L213.42232 135.78293Q213.42232 134.78293 213.26607 134.33762Q213.10982 133.8923 212.68013 133.62668Q212.25044 133.36105 211.67232 133.36105Q210.64107 133.36105 209.95357 134.04855Q209.26607 134.73605 209.26607 136.2673L209.26607 141.98605L207.5942 141.98605L207.5942 135.5798Q207.5942 134.47043 207.18794 133.91574Q206.7817 133.36105 205.8442 133.36105Q205.14107 133.36105 204.5395 133.72824Q203.93794 134.09543 203.67232 134.81418Q203.4067 135.53293 203.4067 136.87668L203.4067 141.98605L201.73482 141.98605ZM223.71312 140.7673Q222.77562 141.56418 221.91624 141.88449Q221.05687 142.2048 220.0725 142.2048Q218.46312 142.2048 217.58812 141.41574Q216.71312 140.62668 216.71312 139.3923Q216.71312 138.65793 217.04124 138.06418Q217.36937 137.47043 217.90062 137.11105Q218.43187 136.75168 219.10374 136.56418Q219.60374 136.42355 220.58812 136.31418Q222.61937 136.06418 223.5725 135.73605Q223.5725 135.3923 223.5725 135.29855Q223.5725 134.28293 223.10374 133.86105Q222.46312 133.29855 221.1975 133.29855Q220.02562 133.29855 219.46312 133.7048Q218.90062 134.11105 218.635 135.17355L216.99437 134.93918Q217.22874 133.8923 217.73656 133.25168Q218.24437 132.61105 219.2053 132.25949Q220.16624 131.90793 221.4475 131.90793Q222.71312 131.90793 223.49437 132.2048Q224.27562 132.50168 224.65062 132.9548Q225.02562 133.40793 225.16624 134.09543Q225.26 134.5173 225.26 135.62668L225.26 137.86105Q225.26 140.18918 225.36156 140.80637Q225.46312 141.42355 225.79124 141.98605L224.04124 141.98605Q223.77562 141.47043 223.71312 140.7673ZM223.5725 137.04855Q222.66624 137.40793 220.83812 137.67355Q219.80687 137.81418 219.385 138.00168Q218.96312 138.18918 218.72874 138.54855Q218.49437 138.90793 218.49437 139.34543Q218.49437 140.0173 219.00218 140.46262Q219.51 140.90793 220.47874 140.90793Q221.4475 140.90793 222.1975 140.47824Q222.9475 140.04855 223.30687 139.3298Q223.5725 138.75168 223.5725 137.65793L223.5725 137.04855ZM234.08884 138.37668L235.72946 138.59543Q235.46384 140.28293 234.35446 141.24387Q233.24509 142.2048 231.62009 142.2048Q229.60446 142.2048 228.3779 140.88449Q227.15134 139.56418 227.15134 137.09543Q227.15134 135.50168 227.67477 134.30637Q228.19821 133.11105 229.28415 132.50949Q230.37009 131.90793 231.63571 131.90793Q233.24509 131.90793 234.26071 132.72043Q235.27634 133.53293 235.57321 135.03293L233.94821 135.28293Q233.71384 134.28293 233.12009 133.78293Q232.52634 133.28293 231.69821 133.28293Q230.43259 133.28293 229.64352 134.18918Q228.85446 135.09543 228.85446 137.04855Q228.85446 139.03293 229.62009 139.93137Q230.38571 140.8298 231.60446 140.8298Q232.58884 140.8298 233.24509 140.22824Q233.90134 139.62668 234.08884 138.37668ZM236.97946 141.98605L236.97946 128.3923L238.65134 128.3923L238.65134 133.2673Q239.82321 131.90793 241.60446 131.90793Q242.69821 131.90793 243.5029 132.33762Q244.30759 132.7673 244.65915 133.53293Q245.01071 134.29855 245.01071 135.73605L245.01071 141.98605L243.33884 141.98605L243.33884 135.73605Q243.33884 134.48605 242.79196 133.91574Q242.24509 133.34543 241.26071 133.34543Q240.51071 133.34543 239.86227 133.72824Q239.21384 134.11105 238.93259 134.77512Q238.65134 135.43918 238.65134 136.59543L238.65134 141.98605L236.97946 141.98605ZM247.3708 130.29855L247.3708 128.3923L249.04268 128.3923L249.04268 130.29855L247.3708 130.29855ZM247.3708 141.98605L247.3708 132.12668L249.04268 132.12668L249.04268 141.98605L247.3708 141.98605ZM251.5 141.98605L251.5 132.12668L253.0 132.12668L253.0 133.53293Q254.09375 131.90793 256.14062 131.90793Q257.03125 131.90793 257.78125 132.22824Q258.53125 132.54855 258.89844 133.07199Q259.26562 133.59543 259.42188 134.29855Q259.51562 134.7673 259.51562 135.92355L259.51562 141.98605L257.84375 141.98605L257.84375 135.98605Q257.84375 134.97043 257.64844 134.46262Q257.45312 133.9548 256.95312 133.65793Q256.45312 133.36105 255.78125 133.36105Q254.71875 133.36105 253.94531 134.03293Q253.17188 134.7048 253.17188 136.61105L253.17188 141.98605L251.5 141.98605ZM268.62573 138.81418L270.34448 139.03293Q269.93823 140.53293 268.83667 141.36887Q267.7351 142.2048 266.01636 142.2048Q263.8601 142.2048 262.59448 140.87668Q261.32886 139.54855 261.32886 137.1423Q261.32886 134.65793 262.6023 133.28293Q263.87573 131.90793 265.9226 131.90793Q267.90698 131.90793 269.15698 133.25168Q270.40698 134.59543 270.40698 137.04855Q270.40698 137.18918 270.39136 137.48605L263.0476 137.48605Q263.14136 139.11105 263.96948 139.97043Q264.7976 140.8298 266.03198 140.8298Q266.93823 140.8298 267.58667 140.35324Q268.2351 139.87668 268.62573 138.81418ZM263.14136 136.11105L268.64136 136.11105Q268.53198 134.87668 268.01636 134.25168Q267.21948 133.28293 265.93823 133.28293Q264.7976 133.28293 264.00854 134.05637Q263.21948 134.8298 263.14136 136.11105ZM281.0483 136.03293L272.0483 139.8923L272.0483 138.23605L279.1733 135.2673L272.0483 132.3298L272.0483 130.67355L281.0483 134.48605L281.0483 136.03293ZM291.94327 136.03293L282.94327 139.8923L282.94327 138.23605L290.06827 135.2673L282.94327 132.3298L282.94327 130.67355L291.94327 134.48605L291.94327 136.03293Z" fill-rule="nonzero" fill="#000000"></path><path d="M211.02156 155.48605L211.02156 153.5798L212.92781 153.5798L212.92781 155.48605L211.02156 155.48605ZM211.02156 163.43918L211.02156 161.53293L212.92781 161.53293L212.92781 163.43918L211.02156 163.43918ZM225.65799 158.67355L227.45486 159.12668Q226.89236 161.34543 225.42361 162.50949Q223.95486 163.67355 221.82986 163.67355Q219.62674 163.67355 218.25174 162.77512Q216.87674 161.87668 216.15799 160.18137Q215.43924 158.48605 215.43924 156.53293Q215.43924 154.40793 216.24393 152.8298Q217.04861 151.25168 218.54861 150.43137Q220.04861 149.61105 221.84549 149.61105Q223.89236 149.61105 225.28299 150.65012Q226.67361 151.68918 227.22049 153.56418L225.45486 153.98605Q224.98611 152.50168 224.07986 151.82199Q223.17361 151.1423 221.81424 151.1423Q220.25174 151.1423 219.19705 151.8923Q218.14236 152.6423 217.71268 153.91574Q217.28299 155.18918 217.28299 156.53293Q217.28299 158.2673 217.7908 159.55637Q218.29861 160.84543 219.36893 161.48605Q220.43924 162.12668 221.67361 162.12668Q223.18924 162.12668 224.23611 161.25949Q225.28299 160.3923 225.65799 158.67355ZM229.17781 163.43918L229.17781 149.84543L230.84969 149.84543L230.84969 163.43918L229.17781 163.43918ZM233.3695 151.75168L233.3695 149.84543L235.04138 149.84543L235.04138 151.75168L233.3695 151.75168ZM233.3695 163.43918L233.3695 153.5798L235.04138 153.5798L235.04138 163.43918L233.3695 163.43918ZM244.2487 160.2673L245.96745 160.48605Q245.5612 161.98605 244.45964 162.82199Q243.35808 163.65793 241.63933 163.65793Q239.48308 163.65793 238.21745 162.3298Q236.95183 161.00168 236.95183 158.59543Q236.95183 156.11105 238.22527 154.73605Q239.4987 153.36105 241.54558 153.36105Q243.52995 153.36105 244.77995 154.7048Q246.02995 156.04855 246.02995 158.50168Q246.02995 158.6423 246.01433 158.93918L238.67058 158.93918Q238.76433 160.56418 239.59245 161.42355Q240.42058 162.28293 241.65495 162.28293Q242.5612 162.28293 243.20964 161.80637Q243.85808 161.3298 244.2487 160.2673ZM238.76433 157.56418L244.26433 157.56418Q244.15495 156.3298 243.63933 155.7048Q242.84245 154.73605 241.5612 154.73605Q240.42058 154.73605 239.63152 155.50949Q238.84245 156.28293 238.76433 157.56418ZM247.87442 163.43918L247.87442 153.5798L249.37442 153.5798L249.37442 154.98605Q250.46817 153.36105 252.51505 153.36105Q253.40567 153.36105 254.15567 153.68137Q254.90567 154.00168 255.27286 154.52512Q255.64005 155.04855 255.7963 155.75168Q255.89005 156.22043 255.89005 157.37668L255.89005 163.43918L254.21817 163.43918L254.21817 157.43918Q254.21817 156.42355 254.02286 155.91574Q253.82755 155.40793 253.32755 155.11105Q252.82755 154.81418 252.15567 154.81418Q251.09317 154.81418 250.31973 155.48605Q249.5463 156.15793 249.5463 158.06418L249.5463 163.43918L247.87442 163.43918ZM261.9064 161.93918L262.14078 163.42355Q261.43765 163.56418 260.87515 163.56418Q259.9689 163.56418 259.4689 163.27512Q258.9689 162.98605 258.76578 162.52512Q258.56265 162.06418 258.56265 160.54855L258.56265 154.8923L257.32828 154.8923L257.32828 153.5798L258.56265 153.5798L258.56265 151.1423L260.2189 150.1423L260.2189 153.5798L261.9064 153.5798L261.9064 154.8923L260.2189 154.8923L260.2189 160.6423Q260.2189 161.36105 260.30484 161.56418Q260.39078 161.7673 260.5939 161.8923Q260.79703 162.0173 261.17203 162.0173Q261.43765 162.0173 261.9064 161.93918Z" fill-rule="nonzero" fill="#000000"></path><path d="M332.79825 210.13783L318.5001 195.83966L138.68802 195.83966L138.68802 437.66748L152.98618 451.96564L332.79825 451.96564ZM332.79825 210.13783L152.98618 210.13783L138.68802 195.83966M152.98618 210.13783L152.98618 451.96564" fill-rule="nonzero" stroke="#000000" stroke-width="2.0" stroke-linejoin="round" stroke-linecap="butt"></path><path d="M434.63046 229.28537L434.63046 227.7385L443.63046 223.926L443.63046 225.58224L436.48984 228.51974L443.63046 231.4885L443.63046 233.14474L434.63046 229.28537ZM445.52542 229.28537L445.52542 227.7385L454.52542 223.926L454.52542 225.58224L447.3848 228.51974L454.52542 231.4885L454.52542 233.14474L445.52542 229.28537ZM456.6235 239.01974L456.6235 225.37912L458.15475 225.37912L458.15475 226.66037Q458.686 225.91037 459.3657 225.53537Q460.04538 225.16037 460.9985 225.16037Q462.26413 225.16037 463.23288 225.8088Q464.20163 226.45724 464.69382 227.64474Q465.186 228.83224 465.186 230.2385Q465.186 231.75412 464.63913 232.96506Q464.09225 234.176 463.061 234.81662Q462.02975 235.45724 460.88913 235.45724Q460.04538 235.45724 459.38132 235.10568Q458.71725 234.75412 458.29538 234.22287L458.29538 239.01974L456.6235 239.01974ZM458.13913 230.3635Q458.13913 232.26974 458.91257 233.176Q459.686 234.08224 460.77975 234.08224Q461.88913 234.08224 462.6782 233.14474Q463.46725 232.20724 463.46725 230.22287Q463.46725 228.34787 462.69382 227.41037Q461.92038 226.47287 460.84225 226.47287Q459.77975 226.47287 458.95944 227.47287Q458.13913 228.47287 458.13913 230.3635ZM469.7336 235.2385L465.9836 225.37912L467.74924 225.37912L469.87424 231.28537Q470.218 232.2385 470.49924 233.26974Q470.718 232.4885 471.12424 231.39474L473.31174 225.37912L475.0305 225.37912L471.2961 235.2385L469.7336 235.2385ZM475.0461 235.2385L480.2805 221.64474L482.218 221.64474L487.7805 235.2385L485.7336 235.2385L484.13986 231.1135L478.45236 231.1135L476.968 235.2385L475.0461 235.2385ZM478.968 229.66037L483.57736 229.66037L482.1711 225.87912Q481.51486 224.176 481.20236 223.06662Q480.93674 224.37912 480.468 225.66037L478.968 229.66037ZM495.20844 231.62912L496.84906 231.84787Q496.58344 233.53537 495.47406 234.4963Q494.3647 235.45724 492.7397 235.45724Q490.72406 235.45724 489.4975 234.13693Q488.27094 232.81662 488.27094 230.34787Q488.27094 228.75412 488.79437 227.5588Q489.3178 226.3635 490.40375 225.76193Q491.4897 225.16037 492.7553 225.16037Q494.3647 225.16037 495.3803 225.97287Q496.39594 226.78537 496.6928 228.28537L495.0678 228.53537Q494.83344 227.53537 494.2397 227.03537Q493.64594 226.53537 492.8178 226.53537Q491.5522 226.53537 490.76312 227.44162Q489.97406 228.34787 489.97406 230.301Q489.97406 232.28537 490.7397 233.1838Q491.5053 234.08224 492.72406 234.08224Q493.70844 234.08224 494.3647 233.48068Q495.02094 232.87912 495.20844 231.62912ZM504.53656 231.62912L506.1772 231.84787Q505.91156 233.53537 504.8022 234.4963Q503.6928 235.45724 502.0678 235.45724Q500.0522 235.45724 498.82562 234.13693Q497.59906 232.81662 497.59906 230.34787Q497.59906 228.75412 498.1225 227.5588Q498.64594 226.3635 499.73187 225.76193Q500.8178 225.16037 502.08344 225.16037Q503.6928 225.16037 504.70844 225.97287Q505.72406 226.78537 506.02094 228.28537L504.39594 228.53537Q504.16156 227.53537 503.5678 227.03537Q502.97406 226.53537 502.14594 226.53537Q500.8803 226.53537 500.09125 227.44162Q499.3022 228.34787 499.3022 230.301Q499.3022 232.28537 500.0678 233.1838Q500.83344 234.08224 502.0522 234.08224Q503.03656 234.08224 503.6928 233.48068Q504.34906 232.87912 504.53656 231.62912ZM514.1772 232.06662L515.89594 232.28537Q515.4897 233.78537 514.3881 234.6213Q513.28656 235.45724 511.5678 235.45724Q509.41156 235.45724 508.14594 234.12912Q506.8803 232.801 506.8803 230.39474Q506.8803 227.91037 508.15375 226.53537Q509.4272 225.16037 511.47406 225.16037Q513.45844 225.16037 514.70844 226.50412Q515.95844 227.84787 515.95844 230.301Q515.95844 230.44162 515.9428 230.7385L508.59906 230.7385Q508.6928 232.3635 509.52094 233.22287Q510.34906 234.08224 511.58344 234.08224Q512.4897 234.08224 513.1381 233.60568Q513.78656 233.12912 514.1772 232.06662ZM508.6928 229.3635L514.1928 229.3635Q514.08344 228.12912 513.5678 227.50412Q512.77094 226.53537 511.4897 226.53537Q510.34906 226.53537 509.56 227.3088Q508.77094 228.08224 508.6928 229.3635ZM517.13104 232.301L518.7873 232.03537Q518.9279 233.03537 519.5607 233.5588Q520.19354 234.08224 521.33417 234.08224Q522.4904 234.08224 523.0451 233.6135Q523.5998 233.14474 523.5998 232.51974Q523.5998 231.95724 523.1154 231.62912Q522.77167 231.41037 521.4123 231.06662Q519.56854 230.59787 518.8576 230.26193Q518.14667 229.926 517.7795 229.32443Q517.4123 228.72287 517.4123 228.00412Q517.4123 227.34787 517.717 226.78537Q518.02167 226.22287 518.5373 225.84787Q518.9279 225.56662 519.5998 225.3635Q520.27167 225.16037 521.0373 225.16037Q522.20917 225.16037 523.08417 225.4963Q523.95917 225.83224 524.3732 226.40256Q524.7873 226.97287 524.94354 227.926L523.31854 228.14474Q523.20917 227.39474 522.6701 226.96506Q522.13104 226.53537 521.1623 226.53537Q520.00604 226.53537 519.52167 226.91818Q519.0373 227.301 519.0373 227.801Q519.0373 228.12912 519.2404 228.39474Q519.44354 228.66037 519.88104 228.83224Q520.13104 228.926 521.3498 229.26974Q523.1154 229.7385 523.81854 230.03537Q524.52167 230.33224 524.9201 230.91037Q525.31854 231.4885 525.31854 232.34787Q525.31854 233.176 524.83417 233.91818Q524.3498 234.66037 523.4279 235.0588Q522.50604 235.45724 521.3498 235.45724Q519.4279 235.45724 518.4201 234.66037Q517.4123 233.8635 517.13104 232.301ZM526.45917 232.301L528.1154 232.03537Q528.25604 233.03537 528.88885 233.5588Q529.52167 234.08224 530.6623 234.08224Q531.81854 234.08224 532.3732 233.6135Q532.9279 233.14474 532.9279 232.51974Q532.9279 231.95724 532.44354 231.62912Q532.0998 231.41037 530.7404 231.06662Q528.89667 230.59787 528.1857 230.26193Q527.4748 229.926 527.1076 229.32443Q526.7404 228.72287 526.7404 228.00412Q526.7404 227.34787 527.0451 226.78537Q527.3498 226.22287 527.8654 225.84787Q528.25604 225.56662 528.9279 225.3635Q529.5998 225.16037 530.3654 225.16037Q531.5373 225.16037 532.4123 225.4963Q533.2873 225.83224 533.70135 226.40256Q534.1154 226.97287 534.27167 227.926L532.64667 228.14474Q532.5373 227.39474 531.9982 226.96506Q531.45917 226.53537 530.4904 226.53537Q529.33417 226.53537 528.8498 226.91818Q528.3654 227.301 528.3654 227.801Q528.3654 228.12912 528.56854 228.39474Q528.77167 228.66037 529.20917 228.83224Q529.45917 228.926 530.6779 229.26974Q532.44354 229.7385 533.14667 230.03537Q533.8498 230.33224 534.2482 230.91037Q534.64667 231.4885 534.64667 232.34787Q534.64667 233.176 534.1623 233.91818Q533.6779 234.66037 532.75604 235.0588Q531.83417 235.45724 530.6779 235.45724Q528.75604 235.45724 527.7482 234.66037Q526.7404 233.8635 526.45917 232.301ZM545.25604 229.28537L536.25604 233.14474L536.25604 231.4885L543.38104 228.51974L536.25604 225.58224L536.25604 223.926L545.25604 227.7385L545.25604 229.28537ZM556.151 229.28537L547.151 233.14474L547.151 231.4885L554.276 228.51974L547.151 225.58224L547.151 223.926L556.151 227.7385L556.151 229.28537Z" fill-rule="nonzero" fill="#000000"></path><path d="M626.66095 277.07443L367.85333 278.35394" fill-rule="nonzero" stroke="#000000" stroke-width="2.0" stroke-linejoin="round" stroke-linecap="butt"></path><path d="M834.6142 321.48343L825.4363 312.3055L681.95276 312.3055L681.95276 427.726L691.1307 436.90393L834.6142 436.90393ZM834.6142 321.48343L691.1307 321.48343L681.95276 312.3055M691.1307 321.48343L691.1307 436.90393" fill-rule="nonzero" stroke="#000000" stroke-width="2.0" stroke-linejoin="round" stroke-linecap="butt"></path><path d="M703.7465 379.4046L703.7465 377.85773L712.7465 374.04523L712.7465 375.70148L705.6059 378.63898L712.7465 381.60773L712.7465 383.26398L703.7465 379.4046ZM714.6415 379.4046L714.6415 377.85773L723.6415 374.04523L723.6415 375.70148L716.50085 378.63898L723.6415 381.60773L723.6415 383.26398L714.6415 379.4046ZM732.1302 385.35773L732.1302 384.10773Q731.1927 385.57648 729.3802 385.57648Q728.2083 385.57648 727.2161 384.92804Q726.22394 384.2796 725.6849 383.11554Q725.1458 381.95148 725.1458 380.43585Q725.1458 378.9671 725.638 377.76398Q726.1302 376.56085 727.10675 375.92023Q728.0833 375.2796 729.30206 375.2796Q730.1927 375.2796 730.888 375.6546Q731.5833 376.0296 732.0208 376.63898L732.0208 371.76398L733.67706 371.76398L733.67706 385.35773L732.1302 385.35773ZM726.84894 380.43585Q726.84894 382.32648 727.6536 383.26398Q728.4583 384.20148 729.53644 384.20148Q730.6302 384.20148 731.3958 383.31085Q732.16144 382.42023 732.16144 380.57648Q732.16144 378.56085 731.3802 377.61554Q730.59894 376.67023 729.4583 376.67023Q728.34894 376.67023 727.59894 377.57648Q726.84894 378.48273 726.84894 380.43585ZM742.5528 384.13898Q741.6153 384.93585 740.7559 385.25616Q739.89655 385.57648 738.9122 385.57648Q737.3028 385.57648 736.4278 384.7874Q735.5528 383.99835 735.5528 382.76398Q735.5528 382.0296 735.8809 381.43585Q736.20905 380.8421 736.7403 380.48273Q737.27155 380.12335 737.9434 379.93585Q738.4434 379.79523 739.4278 379.68585Q741.45905 379.43585 742.4122 379.10773Q742.4122 378.76398 742.4122 378.67023Q742.4122 377.6546 741.9434 377.23273Q741.3028 376.67023 740.0372 376.67023Q738.8653 376.67023 738.3028 377.07648Q737.7403 377.48273 737.4747 378.54523L735.83405 378.31085Q736.0684 377.26398 736.57623 376.62335Q737.08405 375.98273 738.045 375.63116Q739.0059 375.2796 740.2872 375.2796Q741.5528 375.2796 742.33405 375.57648Q743.1153 375.87335 743.4903 376.32648Q743.8653 376.7796 744.0059 377.4671Q744.0997 377.88898 744.0997 378.99835L744.0997 381.23273Q744.0997 383.56085 744.20123 384.17804Q744.3028 384.79523 744.6309 385.35773L742.8809 385.35773Q742.6153 384.8421 742.5528 384.13898ZM742.4122 380.42023Q741.5059 380.7796 739.6778 381.04523Q738.64655 381.18585 738.2247 381.37335Q737.8028 381.56085 737.5684 381.92023Q737.33405 382.2796 737.33405 382.7171Q737.33405 383.38898 737.84186 383.8343Q738.3497 384.2796 739.3184 384.2796Q740.2872 384.2796 741.0372 383.8499Q741.7872 383.42023 742.14655 382.70148Q742.4122 382.12335 742.4122 381.0296L742.4122 380.42023ZM750.1472 383.85773L750.3816 385.3421Q749.67847 385.48273 749.11597 385.48273Q748.2097 385.48273 747.7097 385.19366Q747.2097 384.9046 747.0066 384.44366Q746.80347 383.98273 746.80347 382.4671L746.80347 376.81085L745.5691 376.81085L745.5691 375.49835L746.80347 375.49835L746.80347 373.06085L748.4597 372.06085L748.4597 375.49835L750.1472 375.49835L750.1472 376.81085L748.4597 376.81085L748.4597 382.56085Q748.4597 383.2796 748.54565 383.48273Q748.6316 383.68585 748.8347 383.81085Q749.03784 383.93585 749.41284 383.93585Q749.67847 383.93585 750.1472 383.85773ZM758.1118 384.13898Q757.1743 384.93585 756.31494 385.25616Q755.45557 385.57648 754.4712 385.57648Q752.8618 385.57648 751.9868 384.7874Q751.1118 383.99835 751.1118 382.76398Q751.1118 382.0296 751.43994 381.43585Q751.76807 380.8421 752.2993 380.48273Q752.83057 380.12335 753.50244 379.93585Q754.00244 379.79523 754.9868 379.68585Q757.01807 379.43585 757.9712 379.10773Q757.9712 378.76398 757.9712 378.67023Q757.9712 377.6546 757.50244 377.23273Q756.8618 376.67023 755.5962 376.67023Q754.4243 376.67023 753.8618 377.07648Q753.2993 377.48273 753.0337 378.54523L751.39307 378.31085Q751.62744 377.26398 752.13525 376.62335Q752.64307 375.98273 753.604 375.63116Q754.56494 375.2796 755.8462 375.2796Q757.1118 375.2796 757.89307 375.57648Q758.6743 375.87335 759.0493 376.32648Q759.4243 376.7796 759.56494 377.4671Q759.6587 377.88898 759.6587 378.99835L759.6587 381.23273Q759.6587 383.56085 759.76025 384.17804Q759.8618 384.79523 760.18994 385.35773L758.43994 385.35773Q758.1743 384.8421 758.1118 384.13898ZM757.9712 380.42023Q757.06494 380.7796 755.2368 381.04523Q754.20557 381.18585 753.7837 381.37335Q753.3618 381.56085 753.12744 381.92023Q752.89307 382.2796 752.89307 382.7171Q752.89307 383.38898 753.4009 383.8343Q753.9087 384.2796 754.87744 384.2796Q755.8462 384.2796 756.5962 383.8499Q757.3462 383.42023 757.70557 382.70148Q757.9712 382.12335 757.9712 381.0296L757.9712 380.42023ZM763.5969 385.35773L762.05005 385.35773L762.05005 371.76398L763.7063 371.76398L763.7063 376.60773Q764.7688 375.2796 766.4094 375.2796Q767.3157 375.2796 768.1282 375.6468Q768.9407 376.01398 769.4641 376.67804Q769.98755 377.3421 770.2844 378.2796Q770.5813 379.2171 770.5813 380.2796Q770.5813 382.81085 769.3313 384.19366Q768.0813 385.57648 766.3313 385.57648Q764.5813 385.57648 763.5969 384.12335L763.5969 385.35773ZM763.5813 380.35773Q763.5813 382.12335 764.05005 382.92023Q764.8469 384.20148 766.1907 384.20148Q767.2844 384.20148 768.0813 383.25616Q768.8782 382.31085 768.8782 380.42023Q768.8782 378.49835 768.11255 377.57648Q767.3469 376.6546 766.2688 376.6546Q765.17505 376.6546 764.3782 377.60773Q763.5813 378.56085 763.5813 380.35773ZM778.8632 384.13898Q777.9257 384.93585 777.06635 385.25616Q776.207 385.57648 775.2226 385.57648Q773.6132 385.57648 772.7382 384.7874Q771.8632 383.99835 771.8632 382.76398Q771.8632 382.0296 772.19135 381.43585Q772.5195 380.8421 773.0507 380.48273Q773.582 380.12335 774.25385 379.93585Q774.75385 379.79523 775.7382 379.68585Q777.7695 379.43585 778.7226 379.10773Q778.7226 378.76398 778.7226 378.67023Q778.7226 377.6546 778.25385 377.23273Q777.6132 376.67023 776.3476 376.67023Q775.1757 376.67023 774.6132 377.07648Q774.0507 377.48273 773.7851 378.54523L772.1445 378.31085Q772.37885 377.26398 772.88666 376.62335Q773.3945 375.98273 774.3554 375.63116Q775.31635 375.2796 776.5976 375.2796Q777.8632 375.2796 778.6445 375.57648Q779.4257 375.87335 779.8007 376.32648Q780.1757 376.7796 780.31635 377.4671Q780.4101 377.88898 780.4101 378.99835L780.4101 381.23273Q780.4101 383.56085 780.51166 384.17804Q780.6132 384.79523 780.94135 385.35773L779.19135 385.35773Q778.9257 384.8421 778.8632 384.13898ZM778.7226 380.42023Q777.81635 380.7796 775.9882 381.04523Q774.957 381.18585 774.5351 381.37335Q774.1132 381.56085 773.87885 381.92023Q773.6445 382.2796 773.6445 382.7171Q773.6445 383.38898 774.1523 383.8343Q774.6601 384.2796 775.62885 384.2796Q776.5976 384.2796 777.3476 383.8499Q778.0976 383.42023 778.457 382.70148Q778.7226 382.12335 778.7226 381.0296L778.7226 380.42023ZM782.1296 382.42023L783.7858 382.1546Q783.92645 383.1546 784.55927 383.67804Q785.1921 384.20148 786.3327 384.20148Q787.48895 384.20148 788.04364 383.73273Q788.5983 383.26398 788.5983 382.63898Q788.5983 382.07648 788.11395 381.74835Q787.7702 381.5296 786.4108 381.18585Q784.5671 380.7171 783.85614 380.38116Q783.1452 380.04523 782.778 379.44366Q782.4108 378.8421 782.4108 378.12335Q782.4108 377.4671 782.7155 376.9046Q783.0202 376.3421 783.5358 375.9671Q783.92645 375.68585 784.5983 375.48273Q785.2702 375.2796 786.0358 375.2796Q787.2077 375.2796 788.0827 375.61554Q788.9577 375.95148 789.37177 376.5218Q789.7858 377.0921 789.9421 378.04523L788.3171 378.26398Q788.2077 377.51398 787.66864 377.0843Q787.1296 376.6546 786.1608 376.6546Q785.0046 376.6546 784.5202 377.0374Q784.0358 377.42023 784.0358 377.92023Q784.0358 378.24835 784.23895 378.51398Q784.4421 378.7796 784.8796 378.95148Q785.1296 379.04523 786.3483 379.38898Q788.11395 379.85773 788.8171 380.1546Q789.5202 380.45148 789.91864 381.0296Q790.3171 381.60773 790.3171 382.4671Q790.3171 383.29523 789.8327 384.0374Q789.3483 384.7796 788.42645 385.17804Q787.5046 385.57648 786.3483 385.57648Q784.42645 385.57648 783.41864 384.7796Q782.4108 383.98273 782.1296 382.42023ZM798.8796 382.18585L800.5983 382.4046Q800.1921 383.9046 799.0905 384.74054Q797.98895 385.57648 796.2702 385.57648Q794.11395 385.57648 792.8483 384.24835Q791.5827 382.92023 791.5827 380.51398Q791.5827 378.0296 792.85614 376.6546Q794.1296 375.2796 796.17645 375.2796Q798.1608 375.2796 799.4108 376.62335Q800.6608 377.9671 800.6608 380.42023Q800.6608 380.56085 800.6452 380.85773L793.30145 380.85773Q793.3952 382.48273 794.2233 383.3421Q795.05145 384.20148 796.2858 384.20148Q797.1921 384.20148 797.8405 383.7249Q798.48895 383.24835 798.8796 382.18585ZM793.3952 379.48273L798.8952 379.48273Q798.7858 378.24835 798.2702 377.62335Q797.4733 376.6546 796.1921 376.6546Q795.05145 376.6546 794.2624 377.42804Q793.4733 378.20148 793.3952 379.48273ZM811.3022 379.4046L802.3022 383.26398L802.3022 381.60773L809.4272 378.63898L802.3022 375.70148L802.3022 374.04523L811.3022 377.85773L811.3022 379.4046ZM822.19714 379.4046L813.19714 383.26398L813.19714 381.60773L820.32214 378.63898L813.19714 375.70148L813.19714 374.04523L822.19714 377.85773L822.19714 379.4046Z" fill-rule="nonzero" fill="#000000"></path><path d="M703.8389 248.41351L703.8389 246.86664L712.8389 243.05414L712.8389 244.71039L705.6983 247.64789L712.8389 250.61664L712.8389 252.27289L703.8389 248.41351ZM714.7339 248.41351L714.7339 246.86664L723.7339 243.05414L723.7339 244.71039L716.59326 247.64789L723.7339 250.61664L723.7339 252.27289L714.7339 248.41351ZM725.832 258.1479L725.832 244.50726L727.3632 244.50726L727.3632 245.78851Q727.8945 245.03851 728.57416 244.66351Q729.25385 244.28851 730.207 244.28851Q731.4726 244.28851 732.44135 244.93695Q733.4101 245.58539 733.9023 246.77289Q734.3945 247.96039 734.3945 249.36664Q734.3945 250.88226 733.8476 252.0932Q733.3007 253.30414 732.2695 253.94476Q731.2382 254.58539 730.0976 254.58539Q729.25385 254.58539 728.5898 254.23383Q727.9257 253.88226 727.50385 253.35101L727.50385 258.1479L725.832 258.1479ZM727.3476 249.49164Q727.3476 251.39789 728.12103 252.30414Q728.8945 253.21039 729.9882 253.21039Q731.0976 253.21039 731.88666 252.27289Q732.6757 251.33539 732.6757 249.35101Q732.6757 247.47601 731.9023 246.53851Q731.12885 245.60101 730.0507 245.60101Q728.9882 245.60101 728.1679 246.60101Q727.3476 247.60101 727.3476 249.49164ZM736.1921 254.36664L736.1921 244.50726L737.6921 244.50726L737.6921 246.00726Q738.2702 244.96039 738.7546 244.62445Q739.23895 244.28851 739.8327 244.28851Q740.67645 244.28851 741.55145 244.83539L740.9733 246.38226Q740.36395 246.02289 739.73895 246.02289Q739.1921 246.02289 738.7624 246.35101Q738.3327 246.67914 738.1452 247.25726Q737.86395 248.14789 737.86395 249.21039L737.86395 254.36664L736.1921 254.36664ZM741.7954 249.44476Q741.7954 246.71039 743.32666 245.38226Q744.5923 244.28851 746.4204 244.28851Q748.45166 244.28851 749.7407 245.62445Q751.0298 246.96039 751.0298 249.30414Q751.0298 251.21039 750.4595 252.29633Q749.88916 253.38226 748.8032 253.98383Q747.7173 254.58539 746.4204 254.58539Q744.3579 254.58539 743.07666 253.25726Q741.7954 251.92914 741.7954 249.44476ZM743.51416 249.44476Q743.51416 251.33539 744.3423 252.27289Q745.1704 253.21039 746.4204 253.21039Q747.6704 253.21039 748.4907 252.26508Q749.31104 251.31976 749.31104 249.38226Q749.31104 247.55414 748.4829 246.61664Q747.6548 245.67914 746.4204 245.67914Q745.1704 245.67914 744.3423 246.61664Q743.51416 247.55414 743.51416 249.44476ZM759.2336 250.75726L760.8742 250.97601Q760.6086 252.66351 759.4992 253.62445Q758.38983 254.58539 756.76483 254.58539Q754.7492 254.58539 753.52264 253.26508Q752.2961 251.94476 752.2961 249.47601Q752.2961 247.88226 752.8195 246.68695Q753.34296 245.49164 754.4289 244.89008Q755.51483 244.28851 756.78046 244.28851Q758.38983 244.28851 759.40546 245.10101Q760.4211 245.91351 760.71796 247.41351L759.09296 247.66351Q758.8586 246.66351 758.26483 246.16351Q757.6711 245.66351 756.84296 245.66351Q755.57733 245.66351 754.78827 246.56976Q753.9992 247.47601 753.9992 249.42914Q753.9992 251.41351 754.76483 252.31195Q755.53046 253.21039 756.7492 253.21039Q757.7336 253.21039 758.38983 252.60883Q759.0461 252.00726 759.2336 250.75726ZM768.8742 251.19476L770.59296 251.41351Q770.1867 252.91351 769.08514 253.74945Q767.9836 254.58539 766.26483 254.58539Q764.1086 254.58539 762.84296 253.25726Q761.57733 251.92914 761.57733 249.52289Q761.57733 247.03851 762.85077 245.66351Q764.1242 244.28851 766.1711 244.28851Q768.15546 244.28851 769.40546 245.63226Q770.65546 246.97601 770.65546 249.42914Q770.65546 249.56976 770.63983 249.86664L763.2961 249.86664Q763.38983 251.49164 764.21796 252.35101Q765.0461 253.21039 766.28046 253.21039Q767.1867 253.21039 767.83514 252.73383Q768.4836 252.25726 768.8742 251.19476ZM763.38983 248.49164L768.88983 248.49164Q768.78046 247.25726 768.26483 246.63226Q767.46796 245.66351 766.1867 245.66351Q765.0461 245.66351 764.257 246.43695Q763.46796 247.21039 763.38983 248.49164ZM771.82806 251.42914L773.4843 251.16351Q773.62494 252.16351 774.25775 252.68695Q774.89056 253.21039 776.0312 253.21039Q777.18744 253.21039 777.7421 252.74164Q778.2968 252.27289 778.2968 251.64789Q778.2968 251.08539 777.81244 250.75726Q777.4687 250.53851 776.1093 250.19476Q774.26556 249.72601 773.5546 249.39008Q772.8437 249.05414 772.4765 248.45258Q772.1093 247.85101 772.1093 247.13226Q772.1093 246.47601 772.414 245.91351Q772.7187 245.35101 773.2343 244.97601Q773.62494 244.69476 774.2968 244.49164Q774.9687 244.28851 775.7343 244.28851Q776.9062 244.28851 777.7812 244.62445Q778.6562 244.96039 779.07025 245.5307Q779.4843 246.10101 779.64056 247.05414L778.01556 247.27289Q777.9062 246.52289 777.3671 246.0932Q776.82806 245.66351 775.8593 245.66351Q774.70306 245.66351 774.2187 246.04633Q773.7343 246.42914 773.7343 246.92914Q773.7343 247.25726 773.93744 247.52289Q774.14056 247.78851 774.57806 247.96039Q774.82806 248.05414 776.0468 248.39789Q777.81244 248.86664 778.51556 249.16351Q779.2187 249.46039 779.6171 250.03851Q780.01556 250.61664 780.01556 251.47601Q780.01556 252.30414 779.5312 253.04633Q779.0468 253.78851 778.12494 254.18695Q777.20306 254.58539 776.0468 254.58539Q774.12494 254.58539 773.1171 253.78851Q772.1093 252.99164 771.82806 251.42914ZM781.1562 251.42914L782.81244 251.16351Q782.95306 252.16351 783.5859 252.68695Q784.2187 253.21039 785.3593 253.21039Q786.51556 253.21039 787.07025 252.74164Q787.62494 252.27289 787.62494 251.64789Q787.62494 251.08539 787.14056 250.75726Q786.7968 250.53851 785.43744 250.19476Q783.5937 249.72601 782.88275 249.39008Q782.1718 249.05414 781.8046 248.45258Q781.43744 247.85101 781.43744 247.13226Q781.43744 246.47601 781.7421 245.91351Q782.0468 245.35101 782.56244 244.97601Q782.95306 244.69476 783.62494 244.49164Q784.2968 244.28851 785.06244 244.28851Q786.2343 244.28851 787.1093 244.62445Q787.9843 244.96039 788.3984 245.5307Q788.81244 246.10101 788.9687 247.05414L787.3437 247.27289Q787.2343 246.52289 786.69525 246.0932Q786.1562 245.66351 785.18744 245.66351Q784.0312 245.66351 783.5468 246.04633Q783.06244 246.42914 783.06244 246.92914Q783.06244 247.25726 783.26556 247.52289Q783.4687 247.78851 783.9062 247.96039Q784.1562 248.05414 785.37494 248.39789Q787.14056 248.86664 787.8437 249.16351Q788.5468 249.46039 788.94525 250.03851Q789.3437 250.61664 789.3437 251.47601Q789.3437 252.30414 788.8593 253.04633Q788.37494 253.78851 787.45306 254.18695Q786.5312 254.58539 785.37494 254.58539Q783.45306 254.58539 782.44525 253.78851Q781.43744 252.99164 781.1562 251.42914ZM799.95306 248.41351L790.95306 252.27289L790.95306 250.61664L798.07806 247.64789L790.95306 244.71039L790.95306 243.05414L799.95306 246.86664L799.95306 248.41351ZM810.848 248.41351L801.848 252.27289L801.848 250.61664L808.973 247.64789L801.848 244.71039L801.848 243.05414L810.848 246.86664L810.848 248.41351Z" fill-rule="nonzero" fill="#000000"></path><path d="M729.9354 267.86664L729.9354 265.9604L731.8417 265.9604L731.8417 267.86664L729.9354 267.86664ZM729.9354 275.81976L729.9354 273.9135L731.8417 273.9135L731.8417 275.81976L729.9354 275.81976ZM734.64996 279.601L734.64996 265.9604L736.1812 265.9604L736.1812 267.24164Q736.71246 266.49164 737.39215 266.11664Q738.07184 265.74164 739.02496 265.74164Q740.2906 265.74164 741.25934 266.39008Q742.2281 267.0385 742.7203 268.226Q743.21246 269.4135 743.21246 270.81976Q743.21246 272.3354 742.6656 273.54633Q742.1187 274.75726 741.08746 275.3979Q740.0562 276.0385 738.9156 276.0385Q738.07184 276.0385 737.4078 275.68695Q736.7437 275.3354 736.32184 274.80414L736.32184 279.601L734.64996 279.601ZM736.1656 270.94476Q736.1656 272.851 736.939 273.75726Q737.71246 274.6635 738.8062 274.6635Q739.9156 274.6635 740.70465 273.726Q741.4937 272.7885 741.4937 270.80414Q741.4937 268.92914 740.7203 267.99164Q739.94684 267.05414 738.8687 267.05414Q737.8062 267.05414 736.9859 268.05414Q736.1656 269.05414 736.1656 270.94476ZM747.7601 275.81976L744.0101 265.9604L745.7757 265.9604L747.9007 271.86664Q748.24445 272.81976 748.5257 273.851Q748.74445 273.06976 749.1507 271.976L751.3382 265.9604L753.05695 265.9604L749.3226 275.81976L747.7601 275.81976ZM754.86945 275.81976L754.86945 262.226L756.68195 262.226L756.68195 275.81976L754.86945 275.81976ZM759.209 269.19476Q759.209 265.80414 761.0293 263.89008Q762.8496 261.976 765.7246 261.976Q767.5996 261.976 769.11523 262.87445Q770.63086 263.7729 771.4199 265.38226Q772.209 266.99164 772.209 269.0385Q772.209 271.101 771.37305 272.73383Q770.5371 274.36664 769.00586 275.2104Q767.4746 276.05414 765.709 276.05414Q763.7871 276.05414 762.2793 275.12445Q760.7715 274.19476 759.99023 272.5932Q759.209 270.99164 759.209 269.19476ZM761.06836 269.226Q761.06836 271.67914 762.3887 273.0932Q763.709 274.50726 765.69336 274.50726Q767.7246 274.50726 769.0371 273.07758Q770.3496 271.6479 770.3496 269.0229Q770.3496 267.36664 769.7949 266.13226Q769.24023 264.8979 768.1543 264.2104Q767.06836 263.5229 765.7246 263.5229Q763.81836 263.5229 762.44336 264.8354Q761.06836 266.1479 761.06836 269.226ZM783.97046 271.05414L785.76733 271.50726Q785.20483 273.726 783.7361 274.89008Q782.26733 276.05414 780.14233 276.05414Q777.9392 276.05414 776.5642 275.1557Q775.1892 274.25726 774.47046 272.56195Q773.7517 270.86664 773.7517 268.9135Q773.7517 266.7885 774.5564 265.2104Q775.3611 263.63226 776.8611 262.81195Q778.3611 261.99164 780.15796 261.99164Q782.20483 261.99164 783.59546 263.0307Q784.9861 264.06976 785.53296 265.94476L783.76733 266.36664Q783.2986 264.88226 782.39233 264.20258Q781.4861 263.5229 780.1267 263.5229Q778.5642 263.5229 777.5095 264.2729Q776.45483 265.0229 776.02515 266.29633Q775.59546 267.56976 775.59546 268.9135Q775.59546 270.6479 776.1033 271.93695Q776.6111 273.226 777.6814 273.86664Q778.7517 274.50726 779.9861 274.50726Q781.5017 274.50726 782.5486 273.64008Q783.59546 272.7729 783.97046 271.05414Z" fill-rule="nonzero" fill="#000000"></path><path d="M182.33798 235.98306L182.33798 234.43619L191.33798 230.62369L191.33798 232.27994L184.19736 235.21744L191.33798 238.18619L191.33798 239.84244L182.33798 235.98306ZM193.23294 235.98306L193.23294 234.43619L202.23294 230.62369L202.23294 232.27994L195.09232 235.21744L202.23294 238.18619L202.23294 239.84244L193.23294 235.98306ZM204.33102 245.71744L204.33102 232.07681L205.86227 232.07681L205.86227 233.35806Q206.39352 232.60806 207.07321 232.23306Q207.7529 231.85806 208.70602 231.85806Q209.97165 231.85806 210.9404 232.5065Q211.90915 233.15494 212.40134 234.34244Q212.89352 235.52994 212.89352 236.93619Q212.89352 238.45181 212.34665 239.66275Q211.79977 240.87369 210.76852 241.51431Q209.73727 242.15494 208.59665 242.15494Q207.7529 242.15494 207.08884 241.80338Q206.42477 241.45181 206.0029 240.92056L206.0029 245.71744L204.33102 245.71744ZM205.84665 237.06119Q205.84665 238.96744 206.62009 239.87369Q207.39352 240.77994 208.48727 240.77994Q209.59665 240.77994 210.38571 239.84244Q211.17477 238.90494 211.17477 236.92056Q211.17477 235.04556 210.40134 234.10806Q209.6279 233.17056 208.54977 233.17056Q207.48727 233.17056 206.66696 234.17056Q205.84665 235.17056 205.84665 237.06119ZM214.69112 241.93619L214.69112 232.07681L216.19112 232.07681L216.19112 233.57681Q216.76924 232.52994 217.25362 232.194Q217.73799 231.85806 218.33174 231.85806Q219.17549 231.85806 220.05049 232.40494L219.47237 233.95181Q218.86299 233.59244 218.23799 233.59244Q217.69112 233.59244 217.26143 233.92056Q216.83174 234.24869 216.64424 234.82681Q216.36299 235.71744 216.36299 236.77994L216.36299 241.93619L214.69112 241.93619ZM220.29442 237.01431Q220.29442 234.27994 221.82567 232.95181Q223.0913 231.85806 224.91942 231.85806Q226.95067 231.85806 228.23973 233.194Q229.5288 234.52994 229.5288 236.87369Q229.5288 238.77994 228.95848 239.86588Q228.38817 240.95181 227.30223 241.55338Q226.2163 242.15494 224.91942 242.15494Q222.85692 242.15494 221.57567 240.82681Q220.29442 239.49869 220.29442 237.01431ZM222.01317 237.01431Q222.01317 238.90494 222.8413 239.84244Q223.66942 240.77994 224.91942 240.77994Q226.16942 240.77994 226.98973 239.83463Q227.81004 238.88931 227.81004 236.95181Q227.81004 235.12369 226.98192 234.18619Q226.1538 233.24869 224.91942 233.24869Q223.66942 233.24869 222.8413 234.18619Q222.01317 235.12369 222.01317 237.01431ZM237.73264 238.32681L239.37326 238.54556Q239.10764 240.23306 237.99826 241.194Q236.88889 242.15494 235.26389 242.15494Q233.24826 242.15494 232.0217 240.83463Q230.79514 239.51431 230.79514 237.04556Q230.79514 235.45181 231.31857 234.2565Q231.84201 233.06119 232.92795 232.45963Q234.01389 231.85806 235.27951 231.85806Q236.88889 231.85806 237.90451 232.67056Q238.92014 233.48306 239.21701 234.98306L237.59201 235.23306Q237.35764 234.23306 236.76389 233.73306Q236.17014 233.23306 235.34201 233.23306Q234.07639 233.23306 233.28732 234.13931Q232.49826 235.04556 232.49826 236.99869Q232.49826 238.98306 233.26389 239.8815Q234.02951 240.77994 235.24826 240.77994Q236.23264 240.77994 236.88889 240.17838Q237.54514 239.57681 237.73264 238.32681ZM247.37326 238.76431L249.09201 238.98306Q248.68576 240.48306 247.5842 241.319Q246.48264 242.15494 244.76389 242.15494Q242.60764 242.15494 241.34201 240.82681Q240.07639 239.49869 240.07639 237.09244Q240.07639 234.60806 241.34982 233.23306Q242.62326 231.85806 244.67014 231.85806Q246.65451 231.85806 247.90451 233.20181Q249.15451 234.54556 249.15451 236.99869Q249.15451 237.13931 249.13889 237.43619L241.79514 237.43619Q241.88889 239.06119 242.71701 239.92056Q243.54514 240.77994 244.77951 240.77994Q245.68576 240.77994 246.3342 240.30338Q246.98264 239.82681 247.37326 238.76431ZM241.88889 236.06119L247.38889 236.06119Q247.27951 234.82681 246.76389 234.20181Q245.96701 233.23306 244.68576 233.23306Q243.54514 233.23306 242.75607 234.0065Q241.96701 234.77994 241.88889 236.06119ZM250.3271 238.99869L251.98335 238.73306Q252.12398 239.73306 252.75679 240.2565Q253.3896 240.77994 254.53023 240.77994Q255.68648 240.77994 256.24118 240.31119Q256.79587 239.84244 256.79587 239.21744Q256.79587 238.65494 256.3115 238.32681Q255.96773 238.10806 254.60835 237.76431Q252.7646 237.29556 252.05367 236.95963Q251.34273 236.62369 250.97554 236.02213Q250.60835 235.42056 250.60835 234.70181Q250.60835 234.04556 250.91304 233.48306Q251.21773 232.92056 251.73335 232.54556Q252.12398 232.26431 252.79585 232.06119Q253.46773 231.85806 254.23335 231.85806Q255.40523 231.85806 256.28024 232.194Q257.15524 232.52994 257.5693 233.10025Q257.98337 233.67056 258.13962 234.62369L256.51462 234.84244Q256.40524 234.09244 255.86617 233.66275Q255.3271 233.23306 254.35835 233.23306Q253.2021 233.23306 252.71773 233.61588Q252.23335 233.99869 252.23335 234.49869Q252.23335 234.82681 252.43648 235.09244Q252.6396 235.35806 253.0771 235.52994Q253.3271 235.62369 254.54585 235.96744Q256.3115 236.43619 257.01462 236.73306Q257.71774 237.02994 258.11618 237.60806Q258.51462 238.18619 258.51462 239.04556Q258.51462 239.87369 258.03024 240.61588Q257.54587 241.35806 256.624 241.7565Q255.7021 242.15494 254.54585 242.15494Q252.62398 242.15494 251.61617 241.35806Q250.60835 240.56119 250.3271 238.99869ZM259.65524 238.99869L261.3115 238.73306Q261.45212 239.73306 262.08493 240.2565Q262.71774 240.77994 263.85837 240.77994Q265.01462 240.77994 265.5693 240.31119Q266.124 239.84244 266.124 239.21744Q266.124 238.65494 265.63962 238.32681Q265.29587 238.10806 263.9365 237.76431Q262.09274 237.29556 261.3818 236.95963Q260.67087 236.62369 260.30368 236.02213Q259.9365 235.42056 259.9365 234.70181Q259.9365 234.04556 260.24118 233.48306Q260.54587 232.92056 261.0615 232.54556Q261.45212 232.26431 262.124 232.06119Q262.79587 231.85806 263.5615 231.85806Q264.73337 231.85806 265.60837 232.194Q266.48337 232.52994 266.89743 233.10025Q267.3115 233.67056 267.46774 234.62369L265.84274 234.84244Q265.73337 234.09244 265.1943 233.66275Q264.65524 233.23306 263.6865 233.23306Q262.53024 233.23306 262.04587 233.61588Q261.5615 233.99869 261.5615 234.49869Q261.5615 234.82681 261.76462 235.09244Q261.96774 235.35806 262.40524 235.52994Q262.65524 235.62369 263.874 235.96744Q265.63962 236.43619 266.34274 236.73306Q267.04587 237.02994 267.4443 237.60806Q267.84274 238.18619 267.84274 239.04556Q267.84274 239.87369 267.35837 240.61588Q266.874 241.35806 265.95212 241.7565Q265.03024 242.15494 263.874 242.15494Q261.95212 242.15494 260.9443 241.35806Q259.9365 240.56119 259.65524 238.99869ZM278.45212 235.98306L269.45212 239.84244L269.45212 238.18619L276.57712 235.21744L269.45212 232.27994L269.45212 230.62369L278.45212 234.43619L278.45212 235.98306ZM289.34708 235.98306L280.34708 239.84244L280.34708 238.18619L287.47208 235.21744L280.34708 232.27994L280.34708 230.62369L289.34708 234.43619L289.34708 235.98306Z" fill-rule="nonzero" fill="#000000"></path><path d="M179.91719 255.43619L179.91719 253.52994L181.82344 253.52994L181.82344 255.43619L179.91719 255.43619ZM179.91719 263.3893L179.91719 261.48306L181.82344 261.48306L181.82344 263.3893L179.91719 263.3893ZM184.63174 263.3893L184.63174 253.52994L186.13174 253.52994L186.13174 254.92056Q186.58487 254.20181 187.3583 253.7565Q188.13174 253.31119 189.11612 253.31119Q190.20987 253.31119 190.913 253.76431Q191.61612 254.21744 191.89737 255.04556Q193.06924 253.31119 194.94424 253.31119Q196.413 253.31119 197.20206 254.12369Q197.99112 254.93619 197.99112 256.6237L197.99112 263.3893L196.31924 263.3893L196.31924 257.1862Q196.31924 256.1862 196.163 255.74088Q196.00674 255.29556 195.57706 255.02994Q195.14737 254.76431 194.56924 254.76431Q193.538 254.76431 192.8505 255.45181Q192.163 256.1393 192.163 257.67056L192.163 263.3893L190.49112 263.3893L190.49112 256.98306Q190.49112 255.87369 190.08487 255.319Q189.67862 254.76431 188.74112 254.76431Q188.038 254.76431 187.43643 255.1315Q186.83487 255.49869 186.56924 256.21744Q186.30362 256.9362 186.30362 258.27994L186.30362 263.3893L184.63174 263.3893ZM199.54755 258.46744Q199.54755 255.73306 201.0788 254.40494Q202.34442 253.31119 204.17255 253.31119Q206.2038 253.31119 207.49286 254.64713Q208.78192 255.98306 208.78192 258.3268Q208.78192 260.23306 208.21161 261.319Q207.6413 262.40494 206.55536 263.0065Q205.46942 263.60806 204.17255 263.60806Q202.11005 263.60806 200.8288 262.27994Q199.54755 260.9518 199.54755 258.46744ZM201.2663 258.46744Q201.2663 260.35806 202.09442 261.29556Q202.92255 262.23306 204.17255 262.23306Q205.42255 262.23306 206.24286 261.28775Q207.06317 260.34244 207.06317 258.40494Q207.06317 256.5768 206.23505 255.63931Q205.40692 254.70181 204.17255 254.70181Q202.92255 254.70181 202.09442 255.63931Q201.2663 256.5768 201.2663 258.46744ZM210.54826 263.3893L210.54826 253.52994L212.04826 253.52994L212.04826 254.93619Q213.14201 253.31119 215.18889 253.31119Q216.07951 253.31119 216.82951 253.6315Q217.57951 253.95181 217.9467 254.47525Q218.31389 254.99869 218.47014 255.70181Q218.56389 256.17056 218.56389 257.3268L218.56389 263.3893L216.89201 263.3893L216.89201 257.3893Q216.89201 256.3737 216.6967 255.86588Q216.50139 255.35806 216.00139 255.06119Q215.50139 254.76431 214.82951 254.76431Q213.76701 254.76431 212.99358 255.43619Q212.22014 256.10806 212.22014 258.0143L212.22014 263.3893L210.54826 263.3893ZM220.9396 251.70181L220.9396 249.79556L222.61148 249.79556L222.61148 251.70181L220.9396 251.70181ZM220.9396 263.3893L220.9396 253.52994L222.61148 253.52994L222.61148 263.3893L220.9396 263.3893ZM228.72505 261.8893L228.95943 263.3737Q228.2563 263.5143 227.6938 263.5143Q226.78755 263.5143 226.28755 263.22525Q225.78755 262.9362 225.58443 262.47525Q225.3813 262.0143 225.3813 260.4987L225.3813 254.84244L224.14693 254.84244L224.14693 253.52994L225.3813 253.52994L225.3813 251.09244L227.03755 250.09244L227.03755 253.52994L228.72505 253.52994L228.72505 254.84244L227.03755 254.84244L227.03755 260.59244Q227.03755 261.3112 227.12349 261.5143Q227.20943 261.71744 227.41255 261.84244Q227.61568 261.96744 227.99068 261.96744Q228.2563 261.96744 228.72505 261.8893ZM229.6271 258.46744Q229.6271 255.73306 231.15836 254.40494Q232.42398 253.31119 234.2521 253.31119Q236.28336 253.31119 237.57242 254.64713Q238.86148 255.98306 238.86148 258.3268Q238.86148 260.23306 238.29117 261.319Q237.72086 262.40494 236.63492 263.0065Q235.54898 263.60806 234.2521 263.60806Q232.1896 263.60806 230.90836 262.27994Q229.6271 260.9518 229.6271 258.46744ZM231.34586 258.46744Q231.34586 260.35806 232.17398 261.29556Q233.0021 262.23306 234.2521 262.23306Q235.5021 262.23306 236.32242 261.28775Q237.14273 260.34244 237.14273 258.40494Q237.14273 256.5768 236.3146 255.63931Q235.48648 254.70181 234.2521 254.70181Q233.0021 254.70181 232.17398 255.63931Q231.34586 256.5768 231.34586 258.46744ZM240.6122 263.3893L240.6122 253.52994L242.1122 253.52994L242.1122 255.02994Q242.69032 253.98306 243.1747 253.64713Q243.65907 253.31119 244.25282 253.31119Q245.09657 253.31119 245.97157 253.85806L245.39345 255.40494Q244.78407 255.04556 244.15907 255.04556Q243.6122 255.04556 243.18251 255.37369Q242.75282 255.70181 242.56532 256.27994Q242.28407 257.17056 242.28407 258.23306L242.28407 263.3893L240.6122 263.3893ZM256.76236 258.6237L258.55923 259.0768Q257.99673 261.29556 256.52798 262.45963Q255.05925 263.6237 252.93425 263.6237Q250.73112 263.6237 249.35612 262.72525Q247.98112 261.8268 247.26237 260.1315Q246.54362 258.4362 246.54362 256.48306Q246.54362 254.35806 247.34831 252.77994Q248.153 251.20181 249.653 250.3815Q251.153 249.56119 252.94987 249.56119Q254.99675 249.56119 256.38736 250.60025Q257.77798 251.63931 258.32486 253.51431L256.55923 253.93619Q256.09048 252.45181 255.18425 251.77213Q254.278 251.09244 252.91862 251.09244Q251.35612 251.09244 250.30144 251.84244Q249.24675 252.59244 248.81706 253.86588Q248.38737 255.13931 248.38737 256.48306Q248.38737 258.21744 248.89519 259.5065Q249.403 260.79556 250.47331 261.4362Q251.54362 262.0768 252.778 262.0768Q254.29362 262.0768 255.3405 261.20963Q256.38736 260.34244 256.76236 258.6237ZM260.2822 263.3893L260.2822 249.79556L261.95407 249.79556L261.95407 263.3893L260.2822 263.3893ZM264.47388 251.70181L264.47388 249.79556L266.14575 249.79556L266.14575 251.70181L264.47388 251.70181ZM264.47388 263.3893L264.47388 253.52994L266.14575 253.52994L266.14575 263.3893L264.47388 263.3893ZM275.3531 260.21744L277.07184 260.4362Q276.6656 261.9362 275.56403 262.77213Q274.46246 263.60806 272.7437 263.60806Q270.58746 263.60806 269.32184 262.27994Q268.0562 260.9518 268.0562 258.54556Q268.0562 256.0612 269.32965 254.68619Q270.6031 253.31119 272.64996 253.31119Q274.63434 253.31119 275.88434 254.65494Q277.13434 255.99869 277.13434 258.4518Q277.13434 258.59244 277.1187 258.8893L269.77496 258.8893Q269.8687 260.5143 270.69684 261.3737Q271.52496 262.23306 272.75934 262.23306Q273.6656 262.23306 274.31403 261.7565Q274.96246 261.27994 275.3531 260.21744ZM269.8687 257.5143L275.3687 257.5143Q275.25934 256.27994 274.7437 255.65494Q273.94684 254.68619 272.6656 254.68619Q271.52496 254.68619 270.7359 255.45963Q269.94684 256.23306 269.8687 257.5143ZM278.9788 263.3893L278.9788 253.52994L280.4788 253.52994L280.4788 254.93619Q281.57254 253.31119 283.61942 253.31119Q284.51004 253.31119 285.26004 253.6315Q286.01004 253.95181 286.37723 254.47525Q286.74442 254.99869 286.90067 255.70181Q286.99442 256.17056 286.99442 257.3268L286.99442 263.3893L285.32254 263.3893L285.32254 257.3893Q285.32254 256.3737 285.12723 255.86588Q284.93192 255.35806 284.43192 255.06119Q283.93192 254.76431 283.26004 254.76431Q282.19754 254.76431 281.4241 255.43619Q280.65067 256.10806 280.65067 258.0143L280.65067 263.3893L278.9788 263.3893ZM293.01077 261.8893L293.24515 263.3737Q292.54202 263.5143 291.97952 263.5143Q291.07327 263.5143 290.57327 263.22525Q290.07327 262.9362 289.87015 262.47525Q289.66702 262.0143 289.66702 260.4987L289.66702 254.84244L288.43265 254.84244L288.43265 253.52994L289.66702 253.52994L289.66702 251.09244L291.32327 250.09244L291.32327 253.52994L293.01077 253.52994L293.01077 254.84244L291.32327 254.84244L291.32327 260.59244Q291.32327 261.3112 291.4092 261.5143Q291.49515 261.71744 291.69827 261.84244Q291.9014 261.96744 292.2764 261.96744Q292.54202 261.96744 293.01077 261.8893Z" fill-rule="nonzero" fill="#000000"></path><path d="M307.40808 309.52017L298.23016 300.34225L169.23485 300.34225L169.23485 415.76276L178.41277 424.94067L307.40808 424.94067ZM307.40808 309.52017L178.41277 309.52017L169.23485 300.34225M178.41277 309.52017L178.41277 424.94067" fill-rule="nonzero" stroke="#000000" stroke-width="2.0" stroke-linejoin="round" stroke-linecap="butt"></path><path d="M190.36275 358.9492L190.36275 357.7148L197.47212 354.7148L197.47212 356.0117L191.8315 358.3398L197.47212 360.66794L197.47212 361.98044L190.36275 358.9492ZM198.92177 358.9492L198.92177 357.7148L206.03114 354.7148L206.03114 356.0117L200.39052 358.3398L206.03114 360.66794L206.03114 361.98044L198.92177 358.9492ZM212.71516 360.79294L214.01204 360.9492Q213.80891 362.29294 212.9261 363.05075Q212.04329 363.80856 210.77766 363.80856Q209.18391 363.80856 208.21516 362.7695Q207.24641 361.73044 207.24641 359.7773Q207.24641 358.5117 207.66048 357.56638Q208.07454 356.62106 208.9261 356.1523Q209.77766 355.68356 210.77766 355.68356Q212.04329 355.68356 212.85579 356.3242Q213.66829 356.9648 213.88704 358.1367L212.60579 358.3398Q212.41829 357.55856 211.95735 357.16013Q211.49641 356.7617 210.84016 356.7617Q209.84016 356.7617 209.21516 357.48044Q208.59016 358.1992 208.59016 359.74606Q208.59016 361.30856 209.19173 362.0195Q209.79329 362.73044 210.76204 362.73044Q211.54329 362.73044 212.05891 362.25388Q212.57454 361.7773 212.71516 360.79294ZM214.48079 359.74606Q214.48079 357.5898 215.68391 356.54294Q216.68391 355.68356 218.12141 355.68356Q219.73079 355.68356 220.74641 356.73044Q221.76204 357.7773 221.76204 359.6367Q221.76204 361.1367 221.31673 361.99606Q220.87141 362.85544 220.00423 363.332Q219.13704 363.80856 218.12141 363.80856Q216.49641 363.80856 215.4886 362.7617Q214.48079 361.7148 214.48079 359.74606ZM215.84016 359.74606Q215.84016 361.24606 216.4886 361.98825Q217.13704 362.73044 218.12141 362.73044Q219.10579 362.73044 219.76204 361.98044Q220.41829 361.23044 220.41829 359.6992Q220.41829 358.2617 219.76204 357.5195Q219.10579 356.7773 218.12141 356.7773Q217.13704 356.7773 216.4886 357.5117Q215.84016 358.24606 215.84016 359.74606ZM223.11627 363.6367L223.11627 355.85544L224.30377 355.85544L224.30377 356.9492Q224.66315 356.37106 225.27252 356.0273Q225.8819 355.68356 226.66315 355.68356Q227.52252 355.68356 228.07721 356.04294Q228.6319 356.4023 228.85065 357.04294Q229.77252 355.68356 231.2569 355.68356Q232.41315 355.68356 233.03815 356.3242Q233.66315 356.9648 233.66315 358.29294L233.66315 363.6367L232.35065 363.6367L232.35065 358.73044Q232.35065 357.9492 232.22565 357.59763Q232.10065 357.24606 231.7569 357.03513Q231.41315 356.8242 230.96002 356.8242Q230.14752 356.8242 229.60065 357.37106Q229.05377 357.91794 229.05377 359.12106L229.05377 363.6367L227.74127 363.6367L227.74127 358.5898Q227.74127 357.6992 227.42096 357.2617Q227.10065 356.8242 226.36627 356.8242Q225.80377 356.8242 225.33502 357.12106Q224.86627 357.41794 224.65533 357.98044Q224.4444 358.54294 224.4444 359.60544L224.4444 363.6367L223.11627 363.6367ZM235.32504 366.62106L235.32504 355.85544L236.52817 355.85544L236.52817 356.87106Q236.95004 356.2773 237.4891 355.98044Q238.02817 355.68356 238.7938 355.68356Q239.77817 355.68356 240.5438 356.1992Q241.30942 356.7148 241.69223 357.6445Q242.07504 358.5742 242.07504 359.68356Q242.07504 360.8867 241.65317 361.8398Q241.2313 362.79294 240.41098 363.30075Q239.59067 363.80856 238.68442 363.80856Q238.02817 363.80856 237.50473 363.53513Q236.9813 363.2617 236.65317 362.8242L236.65317 366.62106L235.32504 366.62106ZM236.52817 359.79294Q236.52817 361.29294 237.13754 362.0117Q237.74692 362.73044 238.6063 362.73044Q239.4813 362.73044 240.1063 361.98825Q240.7313 361.24606 240.7313 359.68356Q240.7313 358.1992 240.12192 357.457Q239.51254 356.7148 238.6688 356.7148Q237.82504 356.7148 237.1766 357.50388Q236.52817 358.29294 236.52817 359.79294ZM242.99178 359.74606Q242.99178 357.5898 244.1949 356.54294Q245.1949 355.68356 246.6324 355.68356Q248.24178 355.68356 249.2574 356.73044Q250.27303 357.7773 250.27303 359.6367Q250.27303 361.1367 249.82771 361.99606Q249.3824 362.85544 248.51521 363.332Q247.64803 363.80856 246.6324 363.80856Q245.0074 363.80856 243.99959 362.7617Q242.99178 361.7148 242.99178 359.74606ZM244.35115 359.74606Q244.35115 361.24606 244.99959 361.98825Q245.64803 362.73044 246.6324 362.73044Q247.61678 362.73044 248.27303 361.98044Q248.92928 361.23044 248.92928 359.6992Q248.92928 358.2617 248.27303 357.5195Q247.61678 356.7773 246.6324 356.7773Q245.64803 356.7773 244.99959 357.5117Q244.35115 358.24606 244.35115 359.74606ZM251.62726 363.6367L251.62726 355.85544L252.81476 355.85544L252.81476 356.9648Q253.67413 355.68356 255.29913 355.68356Q256.00226 355.68356 256.5882 355.93356Q257.17413 356.18356 257.471 356.59763Q257.76788 357.0117 257.87726 357.5742Q257.95538 357.93356 257.95538 358.85544L257.95538 363.6367L256.62726 363.6367L256.62726 358.9023Q256.62726 358.10544 256.47882 357.707Q256.33038 357.30856 255.93976 357.06638Q255.54913 356.8242 255.01788 356.8242Q254.17413 356.8242 253.56476 357.35544Q252.95538 357.8867 252.95538 359.3867L252.95538 363.6367L251.62726 363.6367ZM265.1065 361.1367L266.46588 361.29294Q266.15338 362.49606 265.27838 363.1523Q264.40338 363.80856 263.044 363.80856Q261.34088 363.80856 260.34088 362.7617Q259.34088 361.7148 259.34088 359.80856Q259.34088 357.85544 260.3565 356.7695Q261.37213 355.68356 262.9815 355.68356Q264.544 355.68356 265.52838 356.74606Q266.51276 357.80856 266.51276 359.73044Q266.51276 359.85544 266.51276 360.0898L260.70026 360.0898Q260.77838 361.37106 261.42682 362.05075Q262.07526 362.73044 263.05963 362.73044Q263.77838 362.73044 264.294 362.34763Q264.80963 361.9648 265.1065 361.1367ZM260.77838 358.99606L265.12213 358.99606Q265.02838 358.0117 264.62213 357.5273Q263.99713 356.7617 262.99713 356.7617Q262.07526 356.7617 261.45807 357.37106Q260.84088 357.98044 260.77838 358.99606ZM267.92947 363.6367L267.92947 355.85544L269.11697 355.85544L269.11697 356.9648Q269.97635 355.68356 271.60135 355.68356Q272.30447 355.68356 272.8904 355.93356Q273.47635 356.18356 273.77322 356.59763Q274.0701 357.0117 274.17947 357.5742Q274.2576 357.93356 274.2576 358.85544L274.2576 363.6367L272.92947 363.6367L272.92947 358.9023Q272.92947 358.10544 272.78104 357.707Q272.6326 357.30856 272.24197 357.06638Q271.85135 356.8242 271.3201 356.8242Q270.47635 356.8242 269.86697 357.35544Q269.2576 357.8867 269.2576 359.3867L269.2576 363.6367L267.92947 363.6367ZM278.97122 362.4648L279.15872 363.62106Q278.59622 363.74606 278.15872 363.74606Q277.43997 363.74606 277.04153 363.5117Q276.6431 363.2773 276.48685 362.91013Q276.3306 362.54294 276.3306 361.35544L276.3306 356.8867L275.36185 356.8867L275.36185 355.85544L276.3306 355.85544L276.3306 353.93356L277.6431 353.1367L277.6431 355.85544L278.97122 355.85544L278.97122 356.8867L277.6431 356.8867L277.6431 361.43356Q277.6431 361.99606 277.7134 362.16013Q277.78372 362.3242 277.93997 362.41794Q278.09622 362.5117 278.37747 362.5117Q278.61185 362.5117 278.97122 362.4648ZM287.10568 358.9492L279.9963 361.98044L279.9963 360.66794L285.6213 358.3398L279.9963 356.0117L279.9963 354.7148L287.10568 357.7148L287.10568 358.9492ZM295.6647 358.9492L288.55533 361.98044L288.55533 360.66794L294.18033 358.3398L288.55533 356.0117L288.55533 354.7148L295.6647 357.7148L295.6647 358.9492Z" fill-rule="nonzero" fill="#000000"></path><path d="M209.64726 374.2148L209.64726 372.7148L211.14726 372.7148L211.14726 374.2148L209.64726 374.2148ZM209.64726 380.49606L209.64726 378.99606L211.14726 378.99606L211.14726 380.49606L209.64726 380.49606ZM213.34424 383.48044L213.34424 372.7148L214.54736 372.7148L214.54736 373.73044Q214.96924 373.1367 215.5083 372.8398Q216.04736 372.54294 216.81299 372.54294Q217.79736 372.54294 218.56299 373.05856Q219.32861 373.5742 219.71143 374.50388Q220.09424 375.43356 220.09424 376.54294Q220.09424 377.74606 219.67236 378.6992Q219.25049 379.6523 218.43018 380.16013Q217.60986 380.66794 216.70361 380.66794Q216.04736 380.66794 215.52393 380.3945Q215.00049 380.12106 214.67236 379.68356L214.67236 383.48044L213.34424 383.48044ZM214.54736 376.6523Q214.54736 378.1523 215.15674 378.87106Q215.76611 379.5898 216.62549 379.5898Q217.50049 379.5898 218.12549 378.84763Q218.75049 378.10544 218.75049 376.54294Q218.75049 375.05856 218.14111 374.31638Q217.53174 373.5742 216.68799 373.5742Q215.84424 373.5742 215.1958 374.36325Q214.54736 375.1523 214.54736 376.6523ZM223.66722 380.49606L220.69847 372.7148L222.0891 372.7148L223.76097 377.37106Q224.0266 378.1367 224.26097 378.9492Q224.43285 378.3242 224.74535 377.4648L226.47972 372.7148L227.8391 372.7148L224.88597 380.49606L223.66722 380.49606ZM228.94847 380.49606L228.94847 369.7617L231.0891 369.7617L233.63597 377.35544Q233.97972 378.41794 234.1516 378.9492Q234.32347 378.37106 234.7141 377.23044L237.29222 369.7617L239.19847 369.7617L239.19847 380.49606L237.82347 380.49606L237.82347 371.5117L234.7141 380.49606L233.43285 380.49606L230.32347 371.35544L230.32347 380.49606L228.94847 380.49606ZM246.11037 379.54294Q245.37599 380.1523 244.70412 380.41013Q244.03224 380.66794 243.25099 380.66794Q241.96974 380.66794 241.28224 380.04294Q240.59474 379.41794 240.59474 378.4492Q240.59474 377.87106 240.85255 377.4023Q241.11037 376.93356 241.53224 376.6445Q241.95412 376.35544 242.48537 376.2148Q242.86037 376.10544 243.65724 376.0117Q245.25099 375.8242 246.00099 375.55856Q246.01662 375.29294 246.01662 375.2148Q246.01662 374.4023 245.64162 374.0742Q245.12599 373.6367 244.14162 373.6367Q243.20412 373.6367 242.7588 373.957Q242.31349 374.2773 242.11037 375.10544L240.81349 374.93356Q240.98537 374.10544 241.39162 373.59763Q241.79787 373.0898 242.56349 372.81638Q243.32912 372.54294 244.32912 372.54294Q245.32912 372.54294 245.9463 372.7773Q246.56349 373.0117 246.86037 373.36325Q247.15724 373.7148 247.26662 374.2617Q247.32912 374.60544 247.32912 375.48044L247.32912 377.23044Q247.32912 379.0742 247.41505 379.55856Q247.50099 380.04294 247.75099 380.49606L246.37599 380.49606Q246.17287 380.0898 246.11037 379.54294ZM246.00099 376.5898Q245.28224 376.8867 243.84474 377.0898Q243.03224 377.2148 242.6963 377.35544Q242.36037 377.49606 242.18068 377.7773Q242.00099 378.05856 242.00099 378.4023Q242.00099 378.93356 242.39943 379.28513Q242.79787 379.6367 243.56349 379.6367Q244.32912 379.6367 244.92287 379.30075Q245.51662 378.9648 245.79787 378.3867Q246.00099 377.9492 246.00099 377.0742L246.00099 376.5898ZM249.18335 380.49606L249.18335 372.7148L250.37085 372.7148L250.37085 373.8242Q251.23022 372.54294 252.85522 372.54294Q253.55835 372.54294 254.14429 372.79294Q254.73022 373.04294 255.0271 373.457Q255.32397 373.87106 255.43335 374.43356Q255.51147 374.79294 255.51147 375.7148L255.51147 380.49606L254.18335 380.49606L254.18335 375.7617Q254.18335 374.9648 254.03491 374.56638Q253.88647 374.16794 253.49585 373.92575Q253.10522 373.68356 252.57397 373.68356Q251.73022 373.68356 251.12085 374.2148Q250.51147 374.74606 250.51147 376.24606L250.51147 380.49606L249.18335 380.49606ZM257.1001 381.1367L258.38135 381.3242Q258.45947 381.91794 258.81885 382.1992Q259.31885 382.55856 260.1626 382.55856Q261.08447 382.55856 261.58447 382.19138Q262.08447 381.8242 262.25635 381.16794Q262.3501 380.7617 262.3501 379.48044Q261.49072 380.49606 260.19385 380.49606Q258.58447 380.49606 257.70947 379.3398Q256.83447 378.18356 256.83447 376.55856Q256.83447 375.4492 257.24072 374.5117Q257.64697 373.5742 258.4048 373.05856Q259.1626 372.54294 260.20947 372.54294Q261.58447 372.54294 262.4751 373.6523L262.4751 372.7148L263.69385 372.7148L263.69385 379.43356Q263.69385 381.2617 263.31885 382.0195Q262.94385 382.7773 262.14697 383.2148Q261.3501 383.6523 260.17822 383.6523Q258.7876 383.6523 257.92822 383.0273Q257.06885 382.4023 257.1001 381.1367ZM258.19385 376.4648Q258.19385 377.99606 258.7954 378.6992Q259.39697 379.4023 260.31885 379.4023Q261.2251 379.4023 261.8423 378.707Q262.45947 378.0117 262.45947 376.5117Q262.45947 375.0898 261.82666 374.36325Q261.19385 373.6367 260.30322 373.6367Q259.4126 373.6367 258.80322 374.34763Q258.19385 375.05856 258.19385 376.4648ZM270.8137 377.99606L272.17307 378.1523Q271.86057 379.35544 270.98557 380.0117Q270.11057 380.66794 268.7512 380.66794Q267.04807 380.66794 266.04807 379.62106Q265.04807 378.5742 265.04807 376.66794Q265.04807 374.7148 266.0637 373.62888Q267.0793 372.54294 268.6887 372.54294Q270.2512 372.54294 271.23557 373.60544Q272.21994 374.66794 272.21994 376.5898Q272.21994 376.7148 272.21994 376.9492L266.40744 376.9492Q266.48557 378.23044 267.134 378.91013Q267.78244 379.5898 268.7668 379.5898Q269.48557 379.5898 270.0012 379.207Q270.5168 378.8242 270.8137 377.99606ZM266.48557 375.85544L270.8293 375.85544Q270.73557 374.87106 270.3293 374.3867Q269.7043 373.62106 268.7043 373.62106Q267.78244 373.62106 267.16525 374.23044Q266.54807 374.8398 266.48557 375.85544ZM273.62106 380.49606L273.62106 372.7148L274.80856 372.7148L274.80856 373.9023Q275.2617 373.0742 275.6523 372.80856Q276.04294 372.54294 276.49606 372.54294Q277.16794 372.54294 277.85544 372.9648L277.4023 374.18356Q276.91794 373.9023 276.43356 373.9023Q275.99606 373.9023 275.6523 374.16013Q275.30856 374.41794 275.16794 374.8867Q274.9492 375.5898 274.9492 376.41794L274.9492 380.49606L273.62106 380.49606Z" fill-rule="nonzero" fill="#000000"></path><path d="M402.70996 415.23044L307.40808 367.23044" fill-rule="nonzero" stroke="#000000" stroke-width="2.0" stroke-linejoin="round" stroke-linecap="butt" stroke-dasharray="2.0,6.0"></path><path d="M482.70966 463.23044L485.90973 450.43018L498.70996 447.2301L482.70966 463.23044L402.70996 463.23044L402.70996 367.23044L498.70996 367.23044L498.70996 447.2301" fill-rule="nonzero" stroke="#000000" stroke-width="2.0" stroke-linejoin="round" stroke-linecap="butt"></path><path d="M432.50613 391.9412L432.50613 378.34744L438.53738 378.34744Q440.34988 378.34744 441.2952 378.70682Q442.2405 379.0662 442.803 379.99588Q443.3655 380.92557 443.3655 382.05057Q443.3655 383.5037 442.43582 384.49588Q441.50613 385.48807 439.53738 385.7537Q440.25613 386.09744 440.63113 386.42557Q441.41238 387.15994 442.1155 388.23807L444.4905 391.9412L442.22488 391.9412L440.428 389.11307Q439.63113 387.89432 439.12332 387.23807Q438.6155 386.58182 438.20926 386.324Q437.803 386.0662 437.39676 385.97244Q437.08426 385.89432 436.38113 385.89432L434.303 385.89432L434.303 391.9412L432.50613 391.9412ZM434.303 384.34744L438.16238 384.34744Q439.39676 384.34744 440.09207 384.08963Q440.78738 383.83182 441.15457 383.26932Q441.52176 382.70682 441.52176 382.05057Q441.52176 381.08182 440.81863 380.46463Q440.1155 379.84744 438.59988 379.84744L434.303 379.84744L434.303 384.34744ZM452.16656 390.72244Q451.22906 391.51932 450.3697 391.83963Q449.5103 392.15994 448.52594 392.15994Q446.91656 392.15994 446.04156 391.37088Q445.16656 390.58182 445.16656 389.34744Q445.16656 388.61307 445.4947 388.01932Q445.8228 387.42557 446.35406 387.0662Q446.8853 386.70682 447.5572 386.51932Q448.0572 386.3787 449.04156 386.26932Q451.0728 386.01932 452.02594 385.6912Q452.02594 385.34744 452.02594 385.2537Q452.02594 384.23807 451.5572 383.8162Q450.91656 383.2537 449.65094 383.2537Q448.47906 383.2537 447.91656 383.65994Q447.35406 384.0662 447.08844 385.1287L445.4478 384.89432Q445.6822 383.84744 446.19 383.20682Q446.6978 382.5662 447.65875 382.21463Q448.6197 381.86307 449.90094 381.86307Q451.16656 381.86307 451.9478 382.15994Q452.72906 382.45682 453.10406 382.90994Q453.47906 383.36307 453.6197 384.05057Q453.71344 384.47244 453.71344 385.58182L453.71344 387.8162Q453.71344 390.14432 453.815 390.7615Q453.91656 391.3787 454.2447 391.9412L452.4947 391.9412Q452.22906 391.42557 452.16656 390.72244ZM452.02594 387.0037Q451.1197 387.36307 449.29156 387.6287Q448.2603 387.76932 447.83844 387.95682Q447.41656 388.14432 447.1822 388.5037Q446.9478 388.86307 446.9478 389.30057Q446.9478 389.97244 447.45563 390.41776Q447.96344 390.86307 448.9322 390.86307Q449.90094 390.86307 450.65094 390.43338Q451.40094 390.0037 451.7603 389.28494Q452.02594 388.70682 452.02594 387.61307L452.02594 387.0037ZM459.76105 390.4412L459.99542 391.92557Q459.2923 392.0662 458.7298 392.0662Q457.82355 392.0662 457.32355 391.77713Q456.82355 391.48807 456.62042 391.02713Q456.4173 390.5662 456.4173 389.05057L456.4173 383.39432L455.18292 383.39432L455.18292 382.08182L456.4173 382.08182L456.4173 379.64432L458.07355 378.64432L458.07355 382.08182L459.76105 382.08182L459.76105 383.39432L458.07355 383.39432L458.07355 389.14432Q458.07355 389.86307 458.1595 390.0662Q458.24542 390.26932 458.44855 390.39432Q458.65167 390.51932 459.02667 390.51932Q459.2923 390.51932 459.76105 390.4412ZM468.0381 388.76932L469.75684 388.98807Q469.3506 390.48807 468.24902 391.324Q467.14746 392.15994 465.4287 392.15994Q463.27246 392.15994 462.00684 390.83182Q460.7412 389.5037 460.7412 387.09744Q460.7412 384.61307 462.01465 383.23807Q463.2881 381.86307 465.33496 381.86307Q467.31934 381.86307 468.56934 383.20682Q469.81934 384.55057 469.81934 387.0037Q469.81934 387.14432 469.8037 387.4412L462.45996 387.4412Q462.5537 389.0662 463.38184 389.92557Q464.20996 390.78494 465.44434 390.78494Q466.3506 390.78494 466.99902 390.30838Q467.64746 389.83182 468.0381 388.76932ZM462.5537 386.0662L468.0537 386.0662Q467.94434 384.83182 467.4287 384.20682Q466.63184 383.23807 465.3506 383.23807Q464.20996 383.23807 463.4209 384.0115Q462.63184 384.78494 462.5537 386.0662Z" fill-rule="nonzero" fill="#000000"></path><path d="M413.5706 413.39432L413.5706 403.53494L415.0706 403.53494L415.0706 405.03494Q415.6487 403.98807 416.1331 403.65213Q416.61746 403.3162 417.2112 403.3162Q418.05496 403.3162 418.92996 403.86307L418.35184 405.40994Q417.74246 405.05057 417.11746 405.05057Q416.5706 405.05057 416.1409 405.3787Q415.7112 405.70682 415.5237 406.28494Q415.24246 407.17557 415.24246 408.23807L415.24246 413.39432L413.5706 413.39432ZM426.5489 410.22244L428.26764 410.4412Q427.8614 411.9412 426.75983 412.77713Q425.65826 413.61307 423.9395 413.61307Q421.78326 413.61307 420.51764 412.28494Q419.252 410.95682 419.252 408.55057Q419.252 406.0662 420.52545 404.6912Q421.7989 403.3162 423.84576 403.3162Q425.83014 403.3162 427.08014 404.65994Q428.33014 406.0037 428.33014 408.45682Q428.33014 408.59744 428.3145 408.89432L420.97076 408.89432Q421.0645 410.51932 421.89264 411.3787Q422.72076 412.23807 423.95514 412.23807Q424.8614 412.23807 425.50983 411.7615Q426.15826 411.28494 426.5489 410.22244ZM421.0645 407.51932L426.5645 407.51932Q426.45514 406.28494 425.9395 405.65994Q425.14264 404.6912 423.8614 404.6912Q422.72076 404.6912 421.9317 405.46463Q421.14264 406.23807 421.0645 407.51932ZM436.56525 413.39432L436.56525 412.14432Q435.62775 413.61307 433.81525 413.61307Q432.64337 413.61307 431.65118 412.96463Q430.659 412.3162 430.11993 411.15213Q429.58087 409.98807 429.58087 408.47244Q429.58087 407.0037 430.07306 405.80057Q430.56525 404.59744 431.5418 403.95682Q432.51837 403.3162 433.73712 403.3162Q434.62775 403.3162 435.32306 403.6912Q436.01837 404.0662 436.45587 404.67557L436.45587 399.80057L438.11212 399.80057L438.11212 413.39432L436.56525 413.39432ZM431.284 408.47244Q431.284 410.36307 432.08868 411.30057Q432.89337 412.23807 433.9715 412.23807Q435.06525 412.23807 435.83087 411.34744Q436.5965 410.45682 436.5965 408.61307Q436.5965 406.59744 435.81525 405.65213Q435.034 404.70682 433.89337 404.70682Q432.784 404.70682 432.034 405.61307Q431.284 406.51932 431.284 408.47244ZM447.00345 413.39432L447.00345 411.9412Q445.86282 413.61307 443.87845 413.61307Q443.01907 413.61307 442.26126 413.27713Q441.50345 412.9412 441.13626 412.4412Q440.76907 411.9412 440.61282 411.20682Q440.51907 410.70682 440.51907 409.64432L440.51907 403.53494L442.19095 403.53494L442.19095 409.0037Q442.19095 410.3162 442.2847 410.76932Q442.44095 411.42557 442.95657 411.80057Q443.4722 412.17557 444.2222 412.17557Q444.9722 412.17557 445.62845 411.79276Q446.2847 411.40994 446.55814 410.74588Q446.83157 410.08182 446.83157 408.8162L446.83157 403.53494L448.50345 403.53494L448.50345 413.39432L447.00345 413.39432ZM457.36356 409.78494L459.00418 410.0037Q458.73856 411.6912 457.62918 412.65213Q456.5198 413.61307 454.8948 413.61307Q452.87918 413.61307 451.65262 412.29276Q450.42606 410.97244 450.42606 408.5037Q450.42606 406.90994 450.9495 405.71463Q451.47293 404.51932 452.55887 403.91776Q453.6448 403.3162 454.91043 403.3162Q456.5198 403.3162 457.53543 404.1287Q458.55106 404.9412 458.84793 406.4412L457.22293 406.6912Q456.98856 405.6912 456.3948 405.1912Q455.80106 404.6912 454.97293 404.6912Q453.7073 404.6912 452.91824 405.59744Q452.12918 406.5037 452.12918 408.45682Q452.12918 410.4412 452.8948 411.33963Q453.66043 412.23807 454.87918 412.23807Q455.86356 412.23807 456.5198 411.6365Q457.17606 411.03494 457.36356 409.78494ZM463.91043 411.89432L464.1448 413.3787Q463.44168 413.51932 462.87918 413.51932Q461.97293 413.51932 461.47293 413.23026Q460.97293 412.9412 460.7698 412.48026Q460.56668 412.01932 460.56668 410.5037L460.56668 404.84744L459.3323 404.84744L459.3323 403.53494L460.56668 403.53494L460.56668 401.09744L462.22293 400.09744L462.22293 403.53494L463.91043 403.53494L463.91043 404.84744L462.22293 404.84744L462.22293 410.59744Q462.22293 411.3162 462.30887 411.51932Q462.3948 411.72244 462.59793 411.84744Q462.80106 411.97244 463.17606 411.97244Q463.44168 411.97244 463.91043 411.89432ZM465.4531 401.70682L465.4531 399.80057L467.12497 399.80057L467.12497 401.70682L465.4531 401.70682ZM465.4531 413.39432L465.4531 403.53494L467.12497 403.53494L467.12497 413.39432L465.4531 413.39432ZM468.9573 408.47244Q468.9573 405.73807 470.48856 404.40994Q471.75418 403.3162 473.5823 403.3162Q475.61356 403.3162 476.90262 404.65213Q478.19168 405.98807 478.19168 408.33182Q478.19168 410.23807 477.62137 411.324Q477.05106 412.40994 475.96512 413.0115Q474.87918 413.61307 473.5823 413.61307Q471.5198 413.61307 470.23856 412.28494Q468.9573 410.95682 468.9573 408.47244ZM470.67606 408.47244Q470.67606 410.36307 471.50418 411.30057Q472.3323 412.23807 473.5823 412.23807Q474.8323 412.23807 475.65262 411.29276Q476.47293 410.34744 476.47293 408.40994Q476.47293 406.58182 475.6448 405.64432Q474.81668 404.70682 473.5823 404.70682Q472.3323 404.70682 471.50418 405.64432Q470.67606 406.58182 470.67606 408.47244ZM479.958 413.39432L479.958 403.53494L481.458 403.53494L481.458 404.9412Q482.55176 403.3162 484.59863 403.3162Q485.48926 403.3162 486.23926 403.6365Q486.98926 403.95682 487.35645 404.48026Q487.72363 405.0037 487.87988 405.70682Q487.97363 406.17557 487.97363 407.33182L487.97363 413.39432L486.30176 413.39432L486.30176 407.39432Q486.30176 406.3787 486.10645 405.87088Q485.91113 405.36307 485.41113 405.0662Q484.91113 404.76932 484.23926 404.76932Q483.17676 404.76932 482.40332 405.4412Q481.62988 406.11307 481.62988 408.01932L481.62988 413.39432L479.958 413.39432Z" fill-rule="nonzero" fill="#000000"></path><path d="M443.67474 431.67557L445.3935 431.89432Q444.98724 433.39432 443.88568 434.23026Q442.78412 435.0662 441.06537 435.0662Q438.90912 435.0662 437.6435 433.73807Q436.37787 432.40994 436.37787 430.0037Q436.37787 427.51932 437.6513 426.14432Q438.92474 424.76932 440.97162 424.76932Q442.956 424.76932 444.206 426.11307Q445.456 427.45682 445.456 429.90994Q445.456 430.05057 445.44037 430.34744L438.09662 430.34744Q438.19037 431.97244 439.0185 432.83182Q439.84662 433.6912 441.081 433.6912Q441.98724 433.6912 442.63568 433.21463Q443.28412 432.73807 443.67474 431.67557ZM438.19037 428.97244L443.69037 428.97244Q443.581 427.73807 443.06537 427.11307Q442.2685 426.14432 440.98724 426.14432Q439.84662 426.14432 439.05756 426.91776Q438.2685 427.6912 438.19037 428.97244ZM450.95673 433.34744L451.1911 434.83182Q450.48798 434.97244 449.92548 434.97244Q449.01923 434.97244 448.51923 434.68338Q448.01923 434.39432 447.8161 433.93338Q447.61298 433.47244 447.61298 431.95682L447.61298 426.30057L446.3786 426.30057L446.3786 424.98807L447.61298 424.98807L447.61298 422.55057L449.26923 421.55057L449.26923 424.98807L450.95673 424.98807L450.95673 426.30057L449.26923 426.30057L449.26923 432.05057Q449.26923 432.76932 449.35516 432.97244Q449.4411 433.17557 449.64423 433.30057Q449.84735 433.42557 450.22235 433.42557Q450.48798 433.42557 450.95673 433.34744ZM458.92126 431.23807L460.5619 431.45682Q460.29626 433.14432 459.1869 434.10526Q458.0775 435.0662 456.4525 435.0662Q454.4369 435.0662 453.21033 433.74588Q451.98376 432.42557 451.98376 429.95682Q451.98376 428.36307 452.5072 427.16776Q453.03064 425.97244 454.11658 425.37088Q455.2025 424.76932 456.46814 424.76932Q458.0775 424.76932 459.09314 425.58182Q460.10876 426.39432 460.40564 427.89432L458.78064 428.14432Q458.54626 427.14432 457.9525 426.64432Q457.35876 426.14432 456.53064 426.14432Q455.265 426.14432 454.47595 427.05057Q453.6869 427.95682 453.6869 429.90994Q453.6869 431.89432 454.4525 432.79276Q455.21814 433.6912 456.4369 433.6912Q457.42126 433.6912 458.0775 433.08963Q458.73376 432.48807 458.92126 431.23807ZM462.28064 434.84744L462.28064 432.9412L464.1869 432.9412L464.1869 434.84744L462.28064 434.84744Z" fill-rule="nonzero" fill="#000000"></path></svg>

